<svg xmlns="http://www.w3.org/2000/svg" xmlns:xlink="http://www.w3.org/1999/xlink" width="373.528" height="385.348" viewBox="0 0 373.528 385.348"><defs><clipPath id="a"><rect width="373.528" height="385.348" transform="translate(86 100)" fill="none"/></clipPath><clipPath id="b"><rect width="373.528" height="485.348" transform="translate(86)" fill="none"/></clipPath><clipPath id="c"><path d="M341.143,166.868a15.9,15.9,0,0,0-11.975,19,95.357,95.357,0,1,1-186,42.161,15.879,15.879,0,0,0-30.971,7.021,127.114,127.114,0,1,0,247.938-56.2,15.869,15.869,0,0,0-19-11.975" transform="translate(-111.806 -166.473)" fill="none"/></clipPath><clipPath id="d"><rect width="371.528" height="485.348" transform="translate(88)" fill="none"/></clipPath><clipPath id="e"><path d="M228,237.742V479.094H397.215l-1.63-241.352Z" transform="translate(-228.001 -237.742)" fill="none"/></clipPath><clipPath id="f"><rect width="459.528" height="485.348" fill="none"/></clipPath><clipPath id="g"><rect width="134.611" height="192.056" fill="none"/></clipPath><clipPath id="h"><rect width="239.415" height="199.269" fill="none"/></clipPath></defs><g transform="translate(-86 -100)"><g clip-path="url(#a)"><g clip-path="url(#b)"><path d="M438.375,444.367c-23.459,6.5-67.774,51.82-40.3,73.075s109.552-92.271,40.3-73.075" transform="translate(-83.771 -95.128)" fill="#ecf2fa"/><path d="M394.988,384.68c-99.45,20.269-69.614,72.014-135.968,84.2-89.527,16.444-131.51-117.811-75.382-200.667,44.852-66.209,122.226-87.127,190.782-59.937,96.831,38.409,99.066,160.4,20.568,176.4" transform="translate(-34.039 -42.315)" fill="#fff"/></g><g transform="translate(87.752 130.658)"><g clip-path="url(#c)"><line x1="265.196" y1="167.185" transform="translate(-86.078 56.986)" fill="none" stroke="#f3ad13" stroke-miterlimit="10" stroke-width="8"/><line x1="265.196" y1="167.185" transform="translate(-79.94 47.249)" fill="none" stroke="#f3ad13" stroke-miterlimit="10" stroke-width="8"/><line x1="265.196" y1="167.185" transform="translate(-73.802 37.513)" fill="none" stroke="#f3ad13" stroke-miterlimit="10" stroke-width="8"/><line x1="265.196" y1="167.184" transform="translate(-67.664 27.778)" fill="none" stroke="#f3ad13" stroke-miterlimit="10" stroke-width="8"/><line x1="265.197" y1="167.184" transform="translate(-61.527 18.041)" fill="none" stroke="#f3ad13" stroke-miterlimit="10" stroke-width="8"/><line x1="265.196" y1="167.184" transform="translate(-55.388 8.305)" fill="none" stroke="#f3ad13" stroke-miterlimit="10" stroke-width="8"/><line x1="265.196" y1="167.185" transform="translate(-49.25 -1.432)" fill="none" stroke="#f3ad13" stroke-miterlimit="10" stroke-width="8"/><line x1="265.197" y1="167.185" transform="translate(-43.113 -11.168)" fill="none" stroke="#f3ad13" stroke-miterlimit="10" stroke-width="8"/><line x1="265.196" y1="167.185" transform="translate(-36.974 -20.904)" fill="none" stroke="#f3ad13" stroke-miterlimit="10" stroke-width="8"/><line x1="265.196" y1="167.185" transform="translate(-30.837 -30.64)" fill="none" stroke="#f3ad13" stroke-miterlimit="10" stroke-width="8"/><line x1="265.197" y1="167.185" transform="translate(-24.699 -40.377)" fill="none" stroke="#f3ad13" stroke-miterlimit="10" stroke-width="8"/><line x1="265.196" y1="167.184" transform="translate(-18.561 -50.112)" fill="none" stroke="#f3ad13" stroke-miterlimit="10" stroke-width="8"/><line x1="265.196" y1="167.184" transform="translate(-12.423 -59.848)" fill="none" stroke="#f3ad13" stroke-miterlimit="10" stroke-width="8"/><line x1="265.196" y1="167.184" transform="translate(-6.285 -69.585)" fill="none" stroke="#f3ad13" stroke-miterlimit="10" stroke-width="8"/><line x1="265.196" y1="167.184" transform="translate(-0.147 -79.321)" fill="none" stroke="#f3ad13" stroke-miterlimit="10" stroke-width="8"/><line x1="265.196" y1="167.184" transform="translate(5.991 -89.057)" fill="none" stroke="#f3ad13" stroke-miterlimit="10" stroke-width="8"/><line x1="265.196" y1="167.185" transform="translate(12.129 -98.794)" fill="none" stroke="#f3ad13" stroke-miterlimit="10" stroke-width="8"/><line x1="265.197" y1="167.185" transform="translate(18.266 -108.53)" fill="none" stroke="#f3ad13" stroke-miterlimit="10" stroke-width="8"/><line x1="265.196" y1="167.185" transform="translate(24.404 -118.266)" fill="none" stroke="#f3ad13" stroke-miterlimit="10" stroke-width="8"/><line x1="265.196" y1="167.185" transform="translate(30.542 -128.003)" fill="none" stroke="#f3ad13" stroke-miterlimit="10" stroke-width="8"/></g></g><g clip-path="url(#d)"><path d="M260.462,391.886c-36.731,1.657-60.7-12.4-60.7-12.4l-4.4.58s-19.467,20.184-50.9,27.124L212.826,509.7l4.4-.581c61.8-37.114,43.239-117.232,43.239-117.232" transform="translate(-31.081 -81.642)" fill="#2e3433"/><path d="M260.462,391.886c-36.731,1.657-60.7-12.4-60.7-12.4l-4.4.58s-19.467,20.184-50.9,27.124L212.826,509.7l4.4-.581C279.024,472,260.462,391.886,260.462,391.886Z" transform="translate(-31.081 -81.642)" fill="none" stroke="#2e3433" stroke-miterlimit="10" stroke-width="1"/><path d="M254.86,392.626c-36.73,1.656-60.7-12.4-60.7-12.4s-19.408,19.781-55.294,27.7c0,0,3.287,82.133,72.752,101.932,61.8-37.115,43.239-117.232,43.239-117.232" transform="translate(-29.876 -81.801)" fill="#dbe0e6"/><path d="M254.86,392.626c-36.73,1.656-60.7-12.4-60.7-12.4s-19.408,19.781-55.294,27.7c0,0,3.287,82.133,72.752,101.932C273.422,472.744,254.86,392.626,254.86,392.626Z" transform="translate(-29.876 -81.801)" fill="none" stroke="#2e3433" stroke-miterlimit="10" stroke-width="1"/><path d="M212.872,503.171c-59.6-16.984-62.416-87.446-62.416-87.446,30.787-6.8,47.44-23.766,47.44-23.766s20.552,12.062,52.062,10.641c0,0,15.925,68.733-37.086,100.571" transform="translate(-32.369 -84.326)" fill="#96999e"/><path d="M212.872,503.171c-59.6-16.984-62.416-87.446-62.416-87.446,30.787-6.8,47.44-23.766,47.44-23.766s20.552,12.062,52.062,10.641C249.958,402.6,265.883,471.333,212.872,503.171Z" transform="translate(-32.369 -84.326)" fill="none" stroke="#2e3433" stroke-linecap="round" stroke-linejoin="round" stroke-width="1"/><path d="M236.49,442.034a4.108,4.108,0,0,0-2.9-.717l-1.327.176-.991-7.513a16.4,16.4,0,0,0-.664-2.856,16.174,16.174,0,0,0-.927-2.327c-.185-.4-.391-.782-.61-1.158a17.238,17.238,0,0,0-3.078-3.814c-.118-.11-.242-.212-.359-.314-.283-.243-.564-.472-.851-.691a16.39,16.39,0,0,0-2.385-1.523,15.634,15.634,0,0,0-2.7-1.119c-.447-.141-.886-.283-1.358-.389a15.254,15.254,0,0,0-3.873-.4,16.586,16.586,0,0,0-1.824.1l-.232.031c-.378.049-.761.108-1.141.188h-.007c-.253.047-.509.111-.759.173a16.5,16.5,0,0,0-7.905,4.562,16.746,16.746,0,0,0-4.648,13.93l.991,7.513-1.341.177a4.107,4.107,0,0,0-3.532,4.606L197.8,479c.02.152.049.311.083.461.027.1.056.2.089.291.014.049.035.1.049.148.035.091.077.189.118.279a3.715,3.715,0,0,0,.207.393c.027.041.049.089.076.13.055.082.117.161.171.235.072.1.15.188.229.281.035.038.076.078.119.124a1.1,1.1,0,0,1,.086.092c.042.039.082.07.116.1.067.058.126.11.191.16s.123.094.188.137a.184.184,0,0,0,.049.03c.073.049.146.1.217.141.1.06.216.119.326.171.047.024.1.046.149.069.155.06.319.12.48.166a4.037,4.037,0,0,0,1.662.127l35.989-4.747a4.108,4.108,0,0,0,3.53-4.612l-3.737-28.332a4.094,4.094,0,0,0-1.7-2.815M204.144,445.2l-1.02-7.73a11.518,11.518,0,0,1,3.171-9.294,14.784,14.784,0,0,1,1.184-1.093,11.344,11.344,0,0,1,4.569-2.161,8.412,8.412,0,0,1,1.043-.2c.319-.042.64-.07.955-.089.367-.011.736-.009,1.109.017a7.334,7.334,0,0,1,1.121.11,10.281,10.281,0,0,1,1.364.27,11.3,11.3,0,0,1,2.7,1.148,10.378,10.378,0,0,1,2.292,1.713,11.937,11.937,0,0,1,.926,1.035,2.05,2.05,0,0,1,.174.206,11.526,11.526,0,0,1,2.294,5.533l.99,7.513Z" transform="translate(-41.743 -90.227)" fill="#2e3433"/><path d="M229.139,432.443c-.08-.328-.173-.64-.273-.952a15.828,15.828,0,0,0-1.046-2.563c-.144-.313-.319-.622-.491-.924a16.484,16.484,0,0,0-2.185-2.913q-.426-.464-.893-.9c-.385-.348-.8-.691-1.209-1.007a16.524,16.524,0,0,0-2.385-1.522,15.666,15.666,0,0,0-2.7-1.119c-.447-.141-.886-.282-1.358-.389a15.28,15.28,0,0,0-3.586-.4c-.1,0-.192,0-.287,0-.34,0-.685.01-1.021.032H211.7c-.344.024-.679.053-1.027.1a15.71,15.71,0,0,0-1.907.363,16.485,16.485,0,0,0-7.905,4.562,16.742,16.742,0,0,0-4.647,13.93l3.3,25.025,33.32-4.4-3.3-25.024a13.967,13.967,0,0,0-.391-1.9m-2.231,22.405-22.878,3.018-2.642-20.029a11.512,11.512,0,0,1,3.171-9.293,14.805,14.805,0,0,1,1.184-1.094,11.527,11.527,0,0,1,5.613-2.355,9.811,9.811,0,0,1,1.132-.091,8.239,8.239,0,0,1,.932.017,7.43,7.43,0,0,1,1.121.111l.158.023a10.594,10.594,0,0,1,1.206.248,11.294,11.294,0,0,1,2.7,1.148,10.394,10.394,0,0,1,2.292,1.711c.255.261.5.524.732.8.13.145.253.292.368.439a11.523,11.523,0,0,1,2.294,5.533Z" transform="translate(-42.181 -90.306)" fill="#fff"/><path d="M229.139,432.443c-.08-.328-.173-.64-.273-.952a15.828,15.828,0,0,0-1.046-2.563c-.144-.313-.319-.622-.491-.924a16.484,16.484,0,0,0-2.185-2.913q-.426-.464-.893-.9c-.385-.348-.8-.691-1.209-1.007a16.524,16.524,0,0,0-2.385-1.522,15.666,15.666,0,0,0-2.7-1.119c-.447-.141-.886-.282-1.358-.389a15.28,15.28,0,0,0-3.586-.4c-.1,0-.192,0-.287,0-.34,0-.685.01-1.021.032H211.7c-.344.024-.679.053-1.027.1a15.71,15.71,0,0,0-1.907.363,16.485,16.485,0,0,0-7.905,4.562,16.742,16.742,0,0,0-4.647,13.93l3.3,25.025,33.32-4.4-3.3-25.024A13.967,13.967,0,0,0,229.139,432.443Zm-2.231,22.405-22.878,3.018-2.642-20.029a11.512,11.512,0,0,1,3.171-9.293,14.805,14.805,0,0,1,1.184-1.094,11.527,11.527,0,0,1,5.613-2.355,9.811,9.811,0,0,1,1.132-.091,8.239,8.239,0,0,1,.932.017,7.43,7.43,0,0,1,1.121.111l.158.023a10.594,10.594,0,0,1,1.206.248,11.294,11.294,0,0,1,2.7,1.148,10.394,10.394,0,0,1,2.292,1.711c.255.261.5.524.732.8.13.145.253.292.368.439a11.523,11.523,0,0,1,2.294,5.533Z" transform="translate(-42.181 -90.306)" fill="none" stroke="#2e3433" stroke-miterlimit="10" stroke-width="1"/><path d="M235.418,451.219l3.737,28.329a4.105,4.105,0,0,1-3.533,4.609L199.638,488.9a4.115,4.115,0,0,1-1.665-.121,3.991,3.991,0,0,1-.478-.171,1.4,1.4,0,0,1-.149-.067,3.437,3.437,0,0,1-.327-.172c-.074-.043-.147-.089-.218-.137l-.046-.033c-.064-.044-.128-.091-.189-.139s-.127-.1-.188-.156c-.041-.033-.078-.069-.118-.108s-.06-.059-.089-.092a1.083,1.083,0,0,1-.118-.124c-.082-.089-.155-.177-.228-.274-.059-.077-.115-.159-.17-.241-.027-.039-.053-.084-.08-.126a3.931,3.931,0,0,1-.208-.394v0c-.042-.091-.08-.182-.117-.276-.016-.049-.034-.1-.05-.145-.032-.1-.06-.2-.085-.3a4.316,4.316,0,0,1-.087-.462l-3.737-28.328a4.107,4.107,0,0,1,3.536-4.608l35.983-4.747a4.107,4.107,0,0,1,4.607,3.533" transform="translate(-41.147 -96.307)" fill="#f5b015"/><path d="M235.418,451.219l3.737,28.329a4.105,4.105,0,0,1-3.533,4.609L199.638,488.9a4.115,4.115,0,0,1-1.665-.121,3.991,3.991,0,0,1-.478-.171,1.4,1.4,0,0,1-.149-.067,3.437,3.437,0,0,1-.327-.172c-.074-.043-.147-.089-.218-.137l-.046-.033c-.064-.044-.128-.091-.189-.139s-.127-.1-.188-.156c-.041-.033-.078-.069-.118-.108s-.06-.059-.089-.092a1.083,1.083,0,0,1-.118-.124c-.082-.089-.155-.177-.228-.274-.059-.077-.115-.159-.17-.241-.027-.039-.053-.084-.08-.126a3.931,3.931,0,0,1-.208-.394v0c-.042-.091-.08-.182-.117-.276-.016-.049-.034-.1-.05-.145-.032-.1-.06-.2-.085-.3a4.316,4.316,0,0,1-.087-.462l-3.737-28.328a4.107,4.107,0,0,1,3.536-4.608l35.983-4.747a4.107,4.107,0,0,1,4.607,3.533Z" transform="translate(-41.147 -96.307)" fill="none" stroke="#2e3433" stroke-miterlimit="10" stroke-width="1"/><path d="M224.412,465.888a4.778,4.778,0,1,0-6.994,4.832l1.155,8.756a2.623,2.623,0,1,0,5.2-.685l-1.127-8.542a4.772,4.772,0,0,0,1.765-4.361" transform="translate(-46.233 -99.337)" fill="#fff"/><path d="M224.412,465.888a4.778,4.778,0,1,0-6.994,4.832l1.155,8.756a2.623,2.623,0,1,0,5.2-.685l-1.127-8.542A4.772,4.772,0,0,0,224.412,465.888Z" transform="translate(-46.233 -99.337)" fill="none" stroke="#2e3433" stroke-miterlimit="10" stroke-width="1"/><path d="M222.229,481.54a2.669,2.669,0,0,1-.712.2,2.628,2.628,0,0,1-2.946-2.26l-1.155-8.753a4.78,4.78,0,0,1,1.63-8.951,4.987,4.987,0,0,1,.732-.038,4.777,4.777,0,0,0-.912,8.8l1.154,8.753a2.636,2.636,0,0,0,2.209,2.254" transform="translate(-46.232 -99.338)" fill="#2e3433"/><rect width="292.8" height="1.641" transform="translate(128.39 427.947)" fill="#101c3a"/></g><g transform="translate(178.949 186.594)"><g clip-path="url(#e)"><path d="M393.394,263.656v254.5a19.378,19.378,0,0,1-19.361,19.355H323.126v-.037H258.891a19.385,19.385,0,0,1-18.2-19.318v-254.5A19.382,19.382,0,0,1,260.05,244.3H374.033a19.378,19.378,0,0,1,19.361,19.354" transform="translate(-230.731 -239.153)" fill="#2e3433"/><path d="M384.115,263.656v254.5a19.378,19.378,0,0,1-19.361,19.355H313.847v-.037H249.612a19.385,19.385,0,0,1-18.2-19.318v-254.5A19.383,19.383,0,0,1,250.771,244.3H364.754a19.378,19.378,0,0,1,19.361,19.354" transform="translate(-228.734 -239.153)" fill="#dbe0e6"/><path d="M384.115,263.656v254.5a19.378,19.378,0,0,1-19.361,19.355H313.847v-.037H249.612a19.385,19.385,0,0,1-18.2-19.318v-254.5A19.383,19.383,0,0,1,250.771,244.3H364.754A19.378,19.378,0,0,1,384.115,263.656Z" transform="translate(-228.734 -239.153)" fill="none" stroke="#2e3433" stroke-miterlimit="10" stroke-width="1"/><path d="M380.993,264.833V519.342a15.053,15.053,0,0,1-15.057,15.05H251.948a15.052,15.052,0,0,1-15.051-15.05V264.833a15.052,15.052,0,0,1,15.051-15.051H365.935a15.053,15.053,0,0,1,15.057,15.051" transform="translate(-229.915 -240.332)" fill="#fff"/><path d="M380.993,264.833V519.342a15.053,15.053,0,0,1-15.057,15.05H251.948a15.052,15.052,0,0,1-15.051-15.05V264.833a15.052,15.052,0,0,1,15.051-15.051H365.935A15.053,15.053,0,0,1,380.993,264.833Z" transform="translate(-229.915 -240.332)" fill="none" stroke="#2e3433" stroke-miterlimit="10" stroke-width="1"/><path d="M341.444,252.978H305.957a1.434,1.434,0,0,0,0,2.867h35.487a1.434,1.434,0,1,0,0-2.867" transform="translate(-244.464 -241.02)" fill="#2e3433"/><rect width="6.725" height="0.851" transform="translate(20.101 27.578) rotate(-45.001)" fill="#101c3a"/><rect width="0.852" height="6.725" transform="translate(20.101 23.425) rotate(-45)" fill="#101c3a"/><rect width="7.628" height="0.852" transform="translate(129.937 26.644)" fill="#101c3a"/></g></g><g clip-path="url(#f)"><path d="M359.832,484.684H270.686a8.445,8.445,0,0,1,0-16.889h89.145a8.445,8.445,0,1,1,0,16.889m-89.145-14.975a6.53,6.53,0,0,0,0,13.061h89.145a6.53,6.53,0,1,0,0-13.061Z" transform="translate(-56.419 -100.641)" fill="#f5b015"/><path d="M359.832,447.245H270.686a8.444,8.444,0,0,1,0-16.889h89.145a8.444,8.444,0,1,1,0,16.889M270.686,432.27a6.53,6.53,0,0,0,0,13.061h89.145a6.53,6.53,0,1,0,0-13.061Z" transform="translate(-56.419 -92.586)" fill="#f5b015"/><path d="M286.742,480.677l-1.411-1.093q.673-.758,1.4-1.449c.193-.188.315-.305.364-.356q-.233-.037-1.336-.308-.795-.2-1.047-.29l.552-1.645a14.3,14.3,0,0,1,2.187,1.094,17.736,17.736,0,0,1-.224-2.486h1.664a22,22,0,0,1-.252,2.5q.186-.074.8-.365.841-.383,1.551-.653l.5,1.691q-1.037.233-2.4.458l1.122,1.261q.336.384.533.627l-1.43.943-1.262-2.084q-.57,1.009-1.308,2.15" transform="translate(-61.253 -102.007)" fill="#f5b015"/><path d="M303.009,480.677l-1.411-1.093q.672-.758,1.4-1.449c.193-.188.315-.305.364-.356q-.233-.037-1.337-.308-.793-.2-1.046-.29l.552-1.645a14.309,14.309,0,0,1,2.187,1.094,17.733,17.733,0,0,1-.224-2.486h1.664a21.864,21.864,0,0,1-.253,2.5q.187-.074.8-.365.842-.383,1.552-.653l.5,1.691q-1.037.233-2.4.458l1.122,1.261q.335.384.533.627l-1.431.943-1.261-2.084q-.57,1.009-1.308,2.15" transform="translate(-64.753 -102.007)" fill="#f5b015"/><path d="M319.275,480.677l-1.411-1.093q.673-.758,1.4-1.449c.193-.188.315-.305.364-.356q-.233-.037-1.336-.308-.795-.2-1.047-.29l.552-1.645a14.273,14.273,0,0,1,2.187,1.094,17.733,17.733,0,0,1-.224-2.486h1.664a21.869,21.869,0,0,1-.253,2.5q.187-.074.8-.365.841-.383,1.551-.653l.5,1.691q-1.037.233-2.4.458l1.122,1.261q.336.384.533.627l-1.43.943-1.262-2.084q-.57,1.009-1.308,2.15" transform="translate(-68.252 -102.007)" fill="#f5b015"/><path d="M335.541,480.677l-1.411-1.093q.673-.758,1.4-1.449c.193-.188.315-.305.365-.356q-.234-.037-1.337-.308-.795-.2-1.047-.29l.552-1.645a14.28,14.28,0,0,1,2.187,1.094,17.757,17.757,0,0,1-.225-2.486h1.664a22,22,0,0,1-.252,2.5q.187-.074.8-.365.841-.383,1.551-.653l.5,1.691q-1.038.233-2.4.458l1.122,1.261q.337.384.533.627l-1.43.943-1.262-2.084q-.57,1.009-1.308,2.15" transform="translate(-71.752 -102.007)" fill="#f5b015"/><path d="M351.807,480.677l-1.41-1.093q.672-.758,1.4-1.449c.192-.188.314-.305.364-.356q-.234-.037-1.337-.308-.795-.2-1.047-.29l.552-1.645a14.348,14.348,0,0,1,2.187,1.094,17.64,17.64,0,0,1-.225-2.486h1.664a21.992,21.992,0,0,1-.252,2.5q.187-.074.8-.365.842-.383,1.551-.653l.5,1.691q-1.037.233-2.4.458l1.122,1.261c.224.256.4.465.532.627l-1.43.943-1.261-2.084q-.571,1.009-1.309,2.15" transform="translate(-75.251 -102.007)" fill="#f5b015"/><path d="M368.075,480.677l-1.411-1.093q.672-.758,1.4-1.449c.192-.188.314-.305.364-.356q-.234-.037-1.337-.308-.793-.2-1.046-.29l.551-1.645a14.244,14.244,0,0,1,2.187,1.094,17.737,17.737,0,0,1-.224-2.486h1.664a21.871,21.871,0,0,1-.253,2.5q.186-.074.8-.365.842-.383,1.552-.653l.5,1.691q-1.038.233-2.4.458l1.122,1.261q.335.384.533.627l-1.431.943-1.262-2.084q-.57,1.009-1.308,2.15" transform="translate(-78.751 -102.007)" fill="#f5b015"/><g transform="translate(199.718 235.884)" opacity="0.3"><g clip-path="url(#g)"><path d="M377.565,301.7c-12.683,4.077-11.151,11.946-11.151,11.946s-3.526,1.608-2.817,7.732c.677,5.832,4.691,11.851,5.067,12.4.571,8.83,3.13,21.1,11.808,22.165.056.443.143.914.252,1.408l.172,1.436a44.286,44.286,0,0,0-21,8.954,30.093,30.093,0,0,0-6.2,5.6c-2.017,2.384-4.862,6.067-8.035,10.305-2.916-2.121-6-4.082-7.6-4.5a.776.776,0,0,0-.11-.062c-4.463-1.894-13.73-3.05-17.641-4.059-1.722-.442-3.283,1.052-.433,3.121,3.445,2.5,9.106,4.643,12.807,5.565a14.618,14.618,0,0,1-2.555,5.5c-1.975,2.489-.538,5.447-1.052,8.3-.323,1.808.909,3.548,2.846,4.976-5.766,8.045-10.253,14.444-10.253,14.444a29.677,29.677,0,0,0,1.6,5.314c-.176.308-.356.623-.533.937-11.033-9.344-23.449-20.067-28.169-27.137.143-.728.567-4.039-2.083-8.079l-.071.042a41.15,41.15,0,0,1-3.183-5.461,15.559,15.559,0,0,1-1.27-4.73c-.171-1.413-1.1-1.727-2.022-1.075l-1.717-13.672a3.188,3.188,0,0,0-3.406-3.035l-17.57,2.621-3.716.523a3.379,3.379,0,0,0-2.541,3.92l1.26,10.019a8.986,8.986,0,0,0-2.245,2c-3.53,4.224.086,5.709.323,5.8l.014.009c-3.9,3.673,1.066,5.9,1.066,5.9-3.125,3.44.319,5.4.319,5.4-.719,4.853,2.469,6.346,3.763,6.746l.914,7.294a3.194,3.194,0,0,0,3.406,3.03l1.1-.176a1.644,1.644,0,0,0,.272-.005,1.384,1.384,0,0,0,.2-.024l14.93-2.227a15.563,15.563,0,0,0,3.915,3.017c8.421,14.725,22.442,38.331,30.738,47.389,7.517,8.2,14.454,7.7,19.316,3.478a40.527,40.527,0,0,0,4.9-3.154c-.347,2.464-.623,4.015-.628,4.058l.928.166c.009-.053.352-2,.766-5.033.2-.157.409-.323.614-.485-.382,12.821-.9,24.477-1.95,32.289l48.161-.015V301.242c-2.789-.89-6.58-1.123-11.509.461m-9.039,27.5-.028-.775a.305.305,0,0,0,.043,0c-.005.257-.009.519-.015.78" transform="translate(-254.463 -300.543)" fill="#ccc"/></g></g><rect width="76.192" height="4.307" transform="translate(220.528 344.025)" fill="#f5b015"/><path d="M359.67,327.341a40.914,40.914,0,1,1-40.914-40.915,40.848,40.848,0,0,1,40.914,40.915" transform="translate(-59.774 -61.621)" fill="#f5b015"/><path d="M343.607,323.642c.092,10.837-8.152,19.654-18.412,19.692s-18.654-8.714-18.746-19.551,8.15-19.655,18.411-19.694,18.655,8.714,18.746,19.552" transform="translate(-65.929 -65.422)" fill="#fff"/><path d="M347.645,376.6a40.932,40.932,0,0,1-47.194.6c3.2-9.834,12.555-15.718,23.6-15.762,10.885-.042,20.138,5.605,23.6,15.158" transform="translate(-64.639 -77.761)" fill="#fff"/><path d="M468.743,254.207c-2.617,1.284-2.918,7.9-2.967,10.815a11.024,11.024,0,0,0,2.154,6.288c1.851,2.706,6.419,5.414,8.351,6.291,1.848.837,2.213-1.042,3.57-2.551a10.271,10.271,0,0,0,2.269-5.549c.531-3.922-.441-8.356-3.612-10.724-2.334-1.744-7.148-5.853-9.765-4.569" transform="translate(-100.207 -54.637)" fill="#96999e"/><path d="M477.011,278.075a2.388,2.388,0,0,1-.981-.24c-1.945-.882-6.583-3.611-8.5-6.418a11.374,11.374,0,0,1-2.219-6.5c.108-6.411,1.176-10.159,3.173-11.139,2.529-1.238,6.6,1.885,9.3,3.956.309.238.595.458.852.648,3.519,2.629,4.248,7.44,3.756,11.068a10.535,10.535,0,0,1-2.36,5.745,10.83,10.83,0,0,0-.907,1.213c-.555.823-1.125,1.667-2.107,1.667m-7.221-23.847a2.206,2.206,0,0,0-.985.21c-1.68.824-2.661,4.549-2.761,10.49A10.643,10.643,0,0,0,468.134,271c1.814,2.652,6.39,5.343,8.2,6.163,1.02.461,1.4-.024,2.175-1.169a11.586,11.586,0,0,1,.969-1.293,9.823,9.823,0,0,0,2.178-5.352c.463-3.42-.2-7.943-3.467-10.38-.258-.193-.547-.414-.859-.655-2.062-1.585-5.319-4.088-7.539-4.088" transform="translate(-100.106 -54.537)" fill="#2e3433"/><path d="M499.589,295.037a12.649,12.649,0,0,0-3.322-.253,11.85,11.85,0,0,0-7.695,4.239,35.186,35.186,0,0,0-4.731,7.633l.012,1.734a21.2,21.2,0,0,0,13.415,2.386,9.2,9.2,0,0,0,2.909-.863c2.216-1.172,3.437-3.595,4.394-5.913.658-1.593,3.964-4.548,3.464-6.2-.711-2.343-6.041-2.306-8.445-2.765" transform="translate(-104.093 -63.414)" fill="#96999e"/><path d="M493.969,311.288a21.5,21.5,0,0,1-10.4-2.677l-.188-.1-.014-2.037.041-.08a35.467,35.467,0,0,1,4.784-7.71,12.116,12.116,0,0,1,7.943-4.361,12.864,12.864,0,0,1,3.419.257c.52.1,1.2.177,1.925.261,2.753.314,6.18.706,6.8,2.759.375,1.233-.868,2.835-2.07,4.385a11.415,11.415,0,0,0-1.4,2.059c-1.012,2.45-2.264,4.883-4.562,6.1a9.583,9.583,0,0,1-3.025.9,21.138,21.138,0,0,1-3.253.25m-9.851-3.218a20.761,20.761,0,0,0,12.992,2.241,8.913,8.913,0,0,0,2.793-.825c2.092-1.106,3.267-3.406,4.226-5.728a11.749,11.749,0,0,1,1.5-2.231c.986-1.271,2.213-2.851,1.949-3.719-.484-1.591-3.778-1.968-6.182-2.243-.737-.084-1.433-.163-1.98-.268a12.13,12.13,0,0,0-3.226-.247,11.393,11.393,0,0,0-7.447,4.117,34.517,34.517,0,0,0-4.639,7.475Z" transform="translate(-103.992 -63.313)" fill="#2e3433"/><path d="M465.861,291.717c-2.6-.7-6.678-1.206-8.108,1.08-.982,1.569.047,4.356.8,6.046,1.475,3.3,4.65,5.591,8.05,6.813a40.519,40.519,0,0,0,10.655,1.787l.585-.293a16.7,16.7,0,0,0-11.986-15.434" transform="translate(-98.394 -62.632)" fill="#96999e"/><path d="M477.236,307.715l-.1-.007a40.8,40.8,0,0,1-10.751-1.808c-3.939-1.416-6.873-3.905-8.261-7.009-1.323-2.954-1.585-5.1-.781-6.391,1.713-2.738,6.528-1.78,8.516-1.24a17.108,17.108,0,0,1,12.257,15.783l0,.231Zm-15.529-16.326c-1.516,0-3.018.341-3.743,1.5-.458.732-.688,2.316.828,5.7a13.294,13.294,0,0,0,7.838,6.618,39.91,39.91,0,0,0,10.458,1.758l.283-.142a16,16,0,0,0-15.665-15.435" transform="translate(-98.294 -62.53)" fill="#2e3433"/><path d="M463.988,325.176a10.71,10.71,0,0,0-3.619-2.434,7.507,7.507,0,0,0-6.378,1.137,8.27,8.27,0,0,0-2.532,11.505,12.909,12.909,0,0,0,7.726,5.739,24.28,24.28,0,0,0,9.789.471l.545-1.061c.217-3.326.407-6.815-1-9.839a18.1,18.1,0,0,0-4.533-5.518" transform="translate(-96.865 -69.37)" fill="#96999e"/><path d="M464.785,342.138a20.712,20.712,0,0,1-5.8-.76,13.289,13.289,0,0,1-7.944-5.912,8.64,8.64,0,0,1,2.649-11.993,7.863,7.863,0,0,1,6.7-1.179,10.929,10.929,0,0,1,3.749,2.51h0a18.532,18.532,0,0,1,4.619,5.636c1.479,3.182,1.242,6.813,1.032,10.017l-.04.144-.633,1.233-.192.024a33,33,0,0,1-4.134.278m-6.412-19.425a7.9,7.9,0,0,0-4.281,1.375,7.9,7.9,0,0,0-2.413,11.017,12.547,12.547,0,0,0,7.508,5.567,23.606,23.606,0,0,0,9.448.483l.421-.82c.2-3.1.419-6.6-.969-9.584a17.94,17.94,0,0,0-4.448-5.4h0a10.344,10.344,0,0,0-3.489-2.356,5.55,5.55,0,0,0-1.777-.28" transform="translate(-96.763 -69.27)" fill="#2e3433"/><path d="M494.843,334.466c-3.971-.693-8.145-.916-11.772.841s-10.063,9.358-7.323,10.141c3.109.89,12.245,4.123,15.408,3.446,2.592-.556,9.526-5.109,9.69-6,.381-2.057-2.886-7.889-6-8.432" transform="translate(-102.21 -71.846)" fill="#96999e"/><path d="M490.014,349.252c-3.074,0-8.5-1.7-12.243-2.869-.893-.28-1.66-.52-2.225-.682a1.2,1.2,0,0,1-.921-1.11c-.206-2.383,4.971-8.159,8.184-9.716,3.989-1.932,8.506-1.482,12-.873,1.9.33,3.509,2.289,4.3,3.428,1.4,2.009,2.22,4.243,2,5.433-.217,1.172-7.489,5.756-9.975,6.288a5.414,5.414,0,0,1-1.118.1m-.484-15.037a14.552,14.552,0,0,0-6.4,1.323c-3.068,1.485-7.935,7.115-7.773,8.99a.471.471,0,0,0,.391.466c.571.163,1.342.4,2.243.687,3.927,1.229,10.5,3.282,12.986,2.753,2.588-.555,9.121-4.984,9.41-5.722.177-.961-.633-3.059-1.885-4.861-1.236-1.777-2.63-2.916-3.824-3.124a30.1,30.1,0,0,0-5.149-.512" transform="translate(-102.109 -71.744)" fill="#2e3433"/><path d="M447.378,353.29a5.814,5.814,0,0,0-3.646,2.249c-1.374,2.074-.628,4.872.472,7.1a26.994,26.994,0,0,0,11.99,12.076l.988-.045a29.68,29.68,0,0,0,1.844-10.895,14.351,14.351,0,0,0-.633-4.291,9.773,9.773,0,0,0-11.016-6.2" transform="translate(-95.304 -75.962)" fill="#96999e"/><path d="M456.016,374.989l-.086-.042A27.3,27.3,0,0,1,443.774,362.7c-1.051-2.132-1.982-5.157-.449-7.47a6.149,6.149,0,0,1,3.872-2.4,10.16,10.16,0,0,1,11.446,6.441,15.038,15.038,0,0,1,.651,4.4,30.286,30.286,0,0,1-1.866,11.03l-.085.228Zm-6.86-21.639a8.173,8.173,0,0,0-1.8.2,5.429,5.429,0,0,0-3.42,2.093c-1.341,2.021-.47,4.781.5,6.739a26.572,26.572,0,0,0,11.741,11.866l.648-.029a29.534,29.534,0,0,0,1.736-10.53,13.652,13.652,0,0,0-.613-4.181,9.468,9.468,0,0,0-8.79-6.155" transform="translate(-95.203 -75.862)" fill="#2e3433"/><path d="M477.659,365.824a15.817,15.817,0,0,0-3.953.16,13.405,13.405,0,0,0-6.879,4.314c-1.877,2.012-3.427,4.307-5.28,6.34l.331.174c1.392,3.046,5.116,4.121,8.413,4.7,4.025.713,8.63,1.063,11.742-1.585a11.1,11.1,0,0,0,3.2-5.551,7.3,7.3,0,0,0-.046-5.166c-1.277-2.595-4.638-3.24-7.526-3.39" transform="translate(-99.297 -78.693)" fill="#96999e"/><path d="M475.08,382.29a29.058,29.058,0,0,1-5.014-.513c-3.223-.571-7.1-1.632-8.63-4.8l-.643-.337.32-.352c.882-.967,1.713-2.017,2.515-3.033.878-1.108,1.783-2.255,2.769-3.311a13.648,13.648,0,0,1,7.075-4.423,16.263,16.263,0,0,1,4.046-.167c4.19.217,6.754,1.393,7.837,3.595.685,1.393.708,3.169.069,5.429a11.247,11.247,0,0,1-3.313,5.73,10.564,10.564,0,0,1-7.03,2.181m-13.106-5.86.024.013.053.115c1.345,2.944,5.058,3.949,8.144,4.5,3.727.659,8.395,1.084,11.439-1.5a10.557,10.557,0,0,0,3.081-5.372,6.827,6.827,0,0,0-.022-4.9c-.954-1.941-3.314-2.982-7.214-3.186a15.713,15.713,0,0,0-3.862.154,12.948,12.948,0,0,0-6.683,4.2c-.965,1.033-1.862,2.168-2.729,3.264-.714.9-1.451,1.835-2.231,2.719" transform="translate(-99.134 -78.592)" fill="#2e3433"/><path d="M445.924,390.312a18.8,18.8,0,0,0-4.293-6.013,11.187,11.187,0,0,0-12.225-1.3,6.7,6.7,0,0,0-3.776,4.971c-.251,2.847,2.026,5.224,4.164,7.121,3.068,2.724,6.761,5.522,10.826,4.964a14.8,14.8,0,0,0,3.271-.979l3.005-1.159.554-.33a9.623,9.623,0,0,0-.189-4.02,16.709,16.709,0,0,0-1.337-3.256" transform="translate(-91.566 -82.13)" fill="#96999e"/><path d="M439.444,400.394c-3.673,0-6.966-2.442-10-5.13-2.266-2.011-4.547-4.465-4.286-7.429a7,7,0,0,1,3.968-5.263,11.5,11.5,0,0,1,12.638,1.343,19.082,19.082,0,0,1,4.383,6.127,17.255,17.255,0,0,1,1.364,3.329,10.051,10.051,0,0,1,.2,4.173l-.027.169-.7.418-3.063,1.186a15.083,15.083,0,0,1-3.353,1,8.174,8.174,0,0,1-1.125.078m-5.033-18.387a10.429,10.429,0,0,0-4.931,1.213,6.277,6.277,0,0,0-3.584,4.679c-.232,2.639,1.913,4.925,4.042,6.813,3.2,2.843,6.689,5.4,10.532,4.875a14.5,14.5,0,0,0,3.188-.958l3.005-1.158.35-.212a9.326,9.326,0,0,0-.207-3.7,16.593,16.593,0,0,0-1.309-3.184,18.446,18.446,0,0,0-4.2-5.9,10.659,10.659,0,0,0-6.882-2.469" transform="translate(-91.465 -82.027)" fill="#2e3433"/><path d="M469.154,395.77a21.606,21.606,0,0,0-16.458,6.147l1.816.022a6.628,6.628,0,0,0,2.857,5.915,16.993,16.993,0,0,0,6.337,2.575c2.972.717,6.356,1.2,8.88-.522,2.074-1.418,3.018-4,3.457-6.47a7.394,7.394,0,0,0-.1-3.85c-.952-2.578-4.046-3.632-6.788-3.818" transform="translate(-97.393 -85.136)" fill="#96999e"/><path d="M468.048,411.354a20.26,20.26,0,0,1-4.668-.669,17.4,17.4,0,0,1-6.471-2.638,7.149,7.149,0,0,1-3.041-5.846l-2.293-.027.622-.618a21.962,21.962,0,0,1,16.742-6.254c3.6.244,6.261,1.76,7.109,4.058a7.716,7.716,0,0,1,.118,4.042c-.57,3.2-1.785,5.459-3.612,6.707a7.8,7.8,0,0,1-4.505,1.245m-14.683-9.894,1.327.016-.056.413a6.259,6.259,0,0,0,2.715,5.57,16.776,16.776,0,0,0,6.2,2.512c2.889.7,6.169,1.185,8.586-.469,1.658-1.133,2.769-3.23,3.3-6.23a7.067,7.067,0,0,0-.084-3.658c-1.1-2.988-5.23-3.494-6.468-3.577a21.235,21.235,0,0,0-15.525,5.423" transform="translate(-97.151 -85.035)" fill="#2e3433"/><path d="M501.6,301.572c-3.057.906-5.933,2.692-8.825,4.031a40.517,40.517,0,0,1-9.193,2.966.262.262,0,0,0,.055.52c3.167.069,6.2-1.219,9.024-2.523,3.033-1.4,6.417-2.68,9.157-4.587a.234.234,0,0,0-.217-.408" transform="translate(-103.988 -64.878)" fill="#2e3433"/><path d="M478.321,307.084c-2.8.1-5.751-2.745-7.936-4.321-1.8-1.3-3.513-2.752-5.41-3.912-.264-.162-.462.245-.272.433a58.445,58.445,0,0,0,8.339,6.282c1.653,1.123,3.244,2.446,5.328,1.99a.237.237,0,0,0-.049-.472" transform="translate(-99.96 -64.287)" fill="#2e3433"/><path d="M458.436,329.91c-.332-.151-.68.359-.352.565a26.593,26.593,0,0,1,8.045,7.058c1.313,1.844,2.276,4.259,4.336,5.375.126.068.214-.094.16-.2-2.693-5.041-6.891-10.37-12.189-12.8" transform="translate(-98.523 -70.971)" fill="#2e3433"/><path d="M496.7,344.086a20.307,20.307,0,0,0-9.869-.378c-3.946.947-6.939,2.676-11.142,1.608-.275-.07-.415.388-.144.483a11.544,11.544,0,0,0,8.067-.172,21.821,21.821,0,0,1,6.212-1.5c2.277-.1,4.533.349,6.8.436a.244.244,0,0,0,.075-.482" transform="translate(-102.276 -73.849)" fill="#2e3433"/><path d="M454.694,366.3a23.977,23.977,0,0,0-5.41-7.3c-.114-.1-.26.053-.185.172,2.326,3.726,4.912,7.025,6.538,11.178.739,1.885,1.124,5.054,3.658,5.142a.274.274,0,0,0,.155-.517c-2.7-1.286-3.423-6.159-4.755-8.678" transform="translate(-96.614 -77.229)" fill="#2e3433"/><path d="M481.92,373.678a28.21,28.21,0,0,0-8.615.927c-3.341.87-7.563,4.095-11.016,3.244-.226-.055-.34.319-.118.4,2.841,1,5.221-.7,7.831-1.721a33.78,33.78,0,0,1,11.9-2.076c.435-.007.462-.746.02-.77" transform="translate(-99.406 -80.385)" fill="#2e3433"/><path d="M429.344,389.263c-.2-.05-.293.272-.1.342,7.1,2.651,14.515,3.768,19.334,10.212.319.427,1-.053.675-.478-4.831-6.4-12.486-8.189-19.906-10.076" transform="translate(-92.324 -83.745)" fill="#2e3433"/><path d="M472.149,404.448c-3.091-.513-6.209-.669-9.316-1.252a21.922,21.922,0,0,0-8.473-.367.3.3,0,0,0,.062.59,38.407,38.407,0,0,1,10.13,1.076c2.437.479,5.211,1.181,7.651.476.27-.079.2-.482-.054-.523" transform="translate(-97.696 -86.605)" fill="#2e3433"/><path d="M468.232,268.767a78.478,78.478,0,0,1,6.848,25.81,77.171,77.171,0,0,1-4.014,29.354c-5.76,17.872-15.695,34.253-19.584,52.751-1.937,9.214-2.323,18.7.326,27.811.086.291.586.179.522-.123-8.232-38.941,26.6-70.489,24.379-108.991a65.91,65.91,0,0,0-7.354-27.209c-.343-.642-1.413-.064-1.122.6" transform="translate(-96.797 -57.634)" fill="#2e3433"/><path d="M474.138,445.6a9.087,9.087,0,0,0-1.148.528c.4-.282.786-.565,1.173-.845,0,.072-.02.182-.025.317" transform="translate(-101.759 -95.798)" fill="#96999e"/><path d="M450.048,382.812c2.773,3.012,5.316,10.736,11.656,19.914a11.16,11.16,0,0,0,4.267,3.942c-5.283-1.644-12-1.029-14.4-.681s-7.923-.251-10.805-.608c3.587,1.022,4.238,5.075,13.921,8.247,5.19,1.695,9.107.95,11.813-.346l-.633.6a86.916,86.916,0,0,0-9.416,6.079c-6.195,4.571-13.817,3.684-13.817,3.684,7.355,1.92,1.994,1.654,11.366,2.028,7.987.323,12.751-11.716,12.751-11.716.181-.152.322-.28.428-.376a45.916,45.916,0,0,0,.506,11.629c1.144,5.15,3.53,9.294,5.472,10.972,1.852,1.611,5.349,1.6,5.684,1.586-.293-.126-4.571-1.984-4.848-4.188-.285-2.292.494-4.49-1.805-10.479s-4.4-10.289-4.4-10.289l-.352-.02a12.967,12.967,0,0,0,2.989-2.35,124.047,124.047,0,0,0,11.71-10.99c-.637,3.238,5.168,12.667,7.68,14.258,19.153,12.146,28.557,2.122,28.557,2.122.5-.629-2.493-.13-4.675.025s-7-3.643-7-3.643c-7.36-9.144-10.615-9.1-10.615-9.1S489.656,400.5,485.818,400a5.436,5.436,0,0,1-2.916-1.363c2-2.14,3.949-4.363,5.862-6.633.889,1.513,2.616,5.8,5.155,6.422,14.174,3.434,21.98-8.968,21.98-8.968s-3.537,2.941-10.345,2.389c-5.6-.445-12.6-1.423-15.766-1.06,2.139-2.581,4.226-5.235,6.245-7.914,1.007,1,6.387,5.926,13.564,5.679,3.686-.128,12.962-1.72,17.158-6.574,0,0-27.6-1.144-29.9-.112,0,0-.016-.008-.049-.02,2.3-3.08,4.516-6.2,6.626-9.3,1.3.845,28.341,11.951,40.3-.179,0,0-6.145.6-11.019-1s-8.282-5.1-14.681-4.342c-4.861.58-11.016,3.044-13.7,4.2,2.241-3.312,4.353-6.6,6.335-9.779,2.512.986,17.915,6.1,34.981-7.784,1.95-1.6,4.538-4.2,3.778-3.781-6.3,3.451-7.569,2.746-10.27,2.817-17.558.513-22.465,3.479-27.931,7.86,1.9-3.083,3.68-6.064,5.312-8.875,8.878-.221,11.826-1.679,16.411-3.033,4.694-1.4,13.46-7.8,13.46-7.8s5.828-3.962,7.285-7c1.241-2.609-3.406,4.951-14.364,5.85-8.819.714-18.956,8.376-22.264,11.059,1.906-3.324,3.61-6.412,5.075-9.143,1.456.5,9.311,2.271,24.6-10.861,11.413-9.819,6.1-5.945,6.1-5.945a23.164,23.164,0,0,1-6.284,2.9c-4.252,1.384-13.733,2.625-24.007,13.134,1.753-3.293,3.146-6.058,4.117-8.072,1.136.028,5.424-1.7,8.36-3.158a33.9,33.9,0,0,0,6.963-4.73c4.948-4.27,13.12-11.862,12.306-11.275-2.5,1.821-9.9,4.409-17.407,9.843-6.19,4.482-8.7,7.01-9.713,8.271a22.2,22.2,0,0,0,1.16-2.66c-3.5,6.853-6.989,13.2-10.42,19.1.111-.231.211-.46.211-.46a101.251,101.251,0,0,0,3.656-20.245c.647-10.308.892-17.409.112-24.8s-1.376-7.781-1.376-7.781.208,13.187-.608,17.52c-.819,4.351-2.375,11.514-2.373,15.51s.633,18.542.2,20.1c-.141.513-.14.638-.084.594q-2.576,4.42-5.1,8.487c.05-.222.075-.4.075-.4s5.041-16.417,3.439-33.955-2.187-23.452-2.394-23.278c-.209.272-.679,13.639-1.428,20.4-.367,3.246-.706,5.988-1,8.331-.6-10.544-2.263-12.219-2.263-12.219s1.08,15.587-3.311,27.731c-3.055,8.45.128,23.107.128,23.107l.068.634q-3.391,5.023-6.58,9.4c.335-.908.987-2.928,2.254-7.185,3.03-10.262,2.252-19.2.008-30.845s-5.656-13.976-5.423-13.161,1.535,10.664,1.687,11.982-1.012,11.284-1.232,18.48,2.384,21.107,2.384,21.107l-.012.074c-2.4,3.271-4.7,6.3-6.878,9.026a49.33,49.33,0,0,0-.2-29.881c-1.721-5.342-7.216-21.487-7.953-23.81.316,1.33,1.4,7.536,1.239,24.471-.166,18.355,5.363,28.272,6.368,29.9-2.008,2.509-3.916,4.787-5.692,6.849.595-.965,1.587-4.225-1.286-14.3,0,0-4.23-12.785-21.7-10.944a16.973,16.973,0,0,1,9,9.713c2.585,7.243,9.338,13.953,13.666,15.886-1.579.793-14.536,14.828-14.536,14.828l-.258.252a10.616,10.616,0,0,0-3.413-2.157c4.376,1.092,8.016-2.553,8.016-2.553-1.564-.841-1.874-7.608-4.708-9.135s-7.937-2.941-9.811-4.084-10.472-9.27-10.989-9.855.228,1.29.228,1.29m55.967-15.576a95.32,95.32,0,0,0,4.653-19.965c.283,2.507.722,5.733,1.347,9.932a2.2,2.2,0,0,0,.131.553q-3.11,5-6.131,9.48M467.23,412.93c0,.072-.02.182-.025.317a9.1,9.1,0,0,0-1.148.528c.4-.282.786-.565,1.173-.845" transform="translate(-94.826 -63.444)" fill="#96999e"/><path d="M167.723,300.2a1.248,1.248,0,1,1-1.247-1.247,1.248,1.248,0,0,1,1.247,1.247" transform="translate(-35.547 -64.317)" fill="#f5b015"/><path d="M213.44,295.675a1.248,1.248,0,1,1-1.248-1.247,1.248,1.248,0,0,1,1.248,1.247" transform="translate(-45.383 -63.343)" fill="#f5b015"/><path d="M432.817,189.983a1.247,1.247,0,1,1-1.247-1.248,1.247,1.247,0,0,1,1.247,1.248" transform="translate(-92.579 -40.604)" fill="#f5b015"/><path d="M263.233,213.948a2.495,2.495,0,1,1-2.5-2.494,2.5,2.5,0,0,1,2.5,2.494" transform="translate(-55.558 -45.492)" fill="#f5b015"/><path d="M387.09,227.374a2.495,2.495,0,1,1-2.494-2.5,2.494,2.494,0,0,1,2.494,2.5" transform="translate(-82.205 -48.38)" fill="#f5b015"/></g><g transform="translate(204.538 228.657)"><g clip-path="url(#h)"><path d="M357.169,424.836s-4.527,7.6-8.87,15.255c-11.087-9.395-23.573-20.176-28.237-27.245.147-.845.469-4.035-2.085-7.929-2.987-4.553-4.018-6.613-4.453-10.189-.424-3.489-5.484-.308-3.519,7.645a20.162,20.162,0,0,0-7.2-2.224l-.071-.057-.316.054c-.177.006-.276.017-.276.017l.012.03,1.656,18.083c.442.334,1.372,2.784,2.205,4.8-.222,3.7,3.344,6.345,5.779,7.71,8.422,14.727,22.441,38.334,30.741,47.393,7.515,8.2,14.452,7.7,19.312,3.475,10.53-5.65,26.045-22.352,33.807-39.851,8.171-18.419-24.592-37.267-38.486-16.972" transform="translate(-269.541 -313.276)" fill="#fff"/><path d="M357.169,424.836s-4.527,7.6-8.87,15.255c-11.087-9.395-23.573-20.176-28.237-27.245.147-.845.469-4.035-2.085-7.929-2.987-4.553-4.018-6.613-4.453-10.189-.424-3.489-5.484-.308-3.519,7.645a20.162,20.162,0,0,0-7.2-2.224l-.071-.057-.316.054c-.177.006-.276.017-.276.017l.012.03,1.656,18.083c.442.334,1.372,2.784,2.205,4.8-.222,3.7,3.344,6.345,5.779,7.71,8.422,14.727,22.441,38.334,30.741,47.393,7.515,8.2,14.452,7.7,19.312,3.475,10.53-5.65,26.045-22.352,33.807-39.851C403.826,423.389,371.063,404.541,357.169,424.836Z" transform="translate(-269.541 -313.276)" fill="none" stroke="#2e3433" stroke-linecap="round" stroke-linejoin="round" stroke-width="1"/><path d="M417.5,378.339c6.11,2.355,12.412,7.368,10.928,23.222S413.7,444.816,399.57,463.645c0,0-35.018-8.519-39.982-33.3,0,0,23.481-33.486,32.028-43.581s19.14-11.026,25.879-8.428" transform="translate(-281.899 -309.787)" fill="#f5b015"/><path d="M417.5,378.339c6.11,2.355,12.412,7.368,10.928,23.222S413.7,444.816,399.57,463.645c0,0-35.018-8.519-39.982-33.3,0,0,23.481-33.486,32.028-43.581S410.756,375.741,417.5,378.339Z" transform="translate(-281.899 -309.787)" fill="none" stroke="#2e3433" stroke-miterlimit="10" stroke-width="1"/><path d="M407.258,450.866a22.349,22.349,0,0,0,20.789-15.372l-.921-.327a21.375,21.375,0,0,1-19.837,14.722Z" transform="translate(-292.155 -322.278)" fill="#101c3a"/><path d="M389.646,399.942c-5.661,20.851-1.99,104.173-8.579,113.65,0,0,7.8,16.615,28.663,11.308,32.506-8.269,48.17,41.791,74.26,28.533,10.613-70.751,11.2-159.5-12.388-173.57-23.99-14.312-71.674-17.781-81.955,20.078" transform="translate(-286.52 -308.221)" fill="#f5b015"/><path d="M389.646,399.942c-5.661,20.851-1.99,104.173-8.579,113.65,0,0,7.8,16.615,28.663,11.308,32.506-8.269,48.17,41.791,74.26,28.533,10.613-70.751,11.2-159.5-12.388-173.57C447.611,365.552,399.927,362.083,389.646,399.942Z" transform="translate(-286.52 -308.221)" fill="none" stroke="#2e3433" stroke-miterlimit="10" stroke-width="1"/><path d="M453.577,338.513c.142.006.283.013.428.008a5.828,5.828,0,1,0-3-10.929c-2.291-6.238-4.8-11.423-10.027-13.079-2.7-.849-9.41.184-11.854.773-8.05,1.965-9.438,8.534-9.215,16.813.235,8.82,2.387,23.639,12.015,24.73l.445,3.746c.925,1.76,5.864,10.9,23.591-1.4L453.2,341.82l-.375-3.216Z" transform="translate(-294.873 -296.251)" fill="#fff"/><path d="M453.577,338.513c.142.006.283.013.428.008a5.828,5.828,0,1,0-3-10.929c-2.291-6.238-4.8-11.423-10.027-13.079-2.7-.849-9.41.184-11.854.773-8.05,1.965-9.438,8.534-9.215,16.813.235,8.82,2.387,23.639,12.015,24.73l.445,3.746c.925,1.76,5.864,10.9,23.591-1.4L453.2,341.82l-.375-3.216Z" transform="translate(-294.873 -296.251)" fill="none" stroke="#2e3433" stroke-miterlimit="10" stroke-width="1"/><path d="M452.027,356.617c-4.453,4.54-11.078,8.824-15.382,9a10.918,10.918,0,0,1-1.681-.186,17.289,17.289,0,0,0,.428,2.236s6.791,5.047,17-10.677c.474-.731.277-1.016-.359-.368" transform="translate(-298.116 -305.301)" fill="#2e3433"/><path d="M462.628,340.887a1.559,1.559,0,0,1-.895-.308c-.764-.564-.408-1.416-.148-2.038.316-.753.374-1.044.1-1.287a4.4,4.4,0,0,0-.555-.38c-.548-.341-1.169-.726-1.261-1.392a1.6,1.6,0,0,1,.523-1.3,3.207,3.207,0,0,1,3.363-.824l-.323.888a2.26,2.26,0,0,0-2.344.574c-.2.22-.3.408-.285.531.031.228.471.5.825.719a5.138,5.138,0,0,1,.679.472c.834.732.424,1.713.151,2.362-.262.626-.3.814-.162.912.632.464,1.747-.534,1.759-.544l.645.689a3.193,3.193,0,0,1-2.07.923" transform="translate(-303.471 -300.339)" fill="#2e3433"/><path d="M439.956,338.733a1.47,1.47,0,0,1,.032.238,1.548,1.548,0,1,1-2.786-.866,10.376,10.376,0,0,0,2.754.629" transform="translate(-298.531 -301.396)" fill="#101c3a"/><path d="M425.674,339.2a1.708,1.708,0,0,1,.032.238,1.548,1.548,0,1,1-2.786-.866,10.375,10.375,0,0,0,2.754.629" transform="translate(-295.458 -301.497)" fill="#101c3a"/><path d="M444.141,322.921l1.788,6.714a7.648,7.648,0,0,0,2.225-.191c-.228-6.927,5.593-5.829,5.593-5.829,4.956-8.248-2.772-21.341-8.826-20.634,0,0-5.135-7.988-17.822-3.91s-11.153,11.949-11.153,11.949-3.526,1.607-2.818,7.729,5.1,12.446,5.1,12.446l-.2-5.4s12.372-2.08,18.659-10.127c1.9,6.768,7.452,7.247,7.452,7.247" transform="translate(-293.398 -292.749)" fill="#2e3433"/><path d="M436.842,339.4a1.651,1.651,0,1,0,1.289-1.946,1.651,1.651,0,0,0-1.289,1.946" transform="translate(-298.513 -301.249)" fill="#2e3433"/><path d="M422.5,339.579a1.65,1.65,0,1,0,1.288-1.946,1.651,1.651,0,0,0-1.288,1.946" transform="translate(-295.427 -301.288)" fill="#2e3433"/><path d="M421.7,335.119a4.4,4.4,0,0,1,4.65.841.584.584,0,0,1,.192.289,8.636,8.636,0,0,1,.259,3.326,9.115,9.115,0,0,1-1.2,4.051c-.644,1.013-.994,1.473-.166,2.063a14.867,14.867,0,0,0,3.37,1.528" transform="translate(-295.262 -300.684)" fill="none" stroke="#2e3433" stroke-linecap="round" stroke-linejoin="round" stroke-width="1"/><path d="M426.274,354.151s5.138,1.16,9.282-.829c0,0-.111,3.812-3.315,4.585S426.274,354.151,426.274,354.151Z" transform="translate(-296.246 -304.67)" fill="none" stroke="#2e3433" stroke-linecap="round" stroke-linejoin="round" stroke-width="1"/><path d="M434.5,335s.614-1.152,2.989-1.042a8.563,8.563,0,0,1,3.868,1.05" transform="translate(-298.016 -300.503)" fill="none" stroke="#2e3433" stroke-linecap="round" stroke-linejoin="round" stroke-width="1"/><path d="M432.7,395.1l-11.377,54.719,5.485,8.788,8.731-5.787,2.867-56.624Z" transform="translate(-295.182 -313.659)" fill="#fff"/><path d="M432.7,395.1l-11.377,54.719,5.485,8.788,8.731-5.787,2.867-56.624Z" transform="translate(-295.182 -313.659)" fill="none" stroke="#2e3433" stroke-linecap="round" stroke-linejoin="round" stroke-width="1"/><path d="M431.2,423.846s-4.836,9.885-8.794,18.569c-10.747-8.621-22.484-18.5-26.648-25.192-5.471-7-4.277-8.564-6.386-11.4-1.413-1.9-11.028-9.308-14.322-10.165a.525.525,0,0,0-.108-.063c-4.465-1.9-13.731-3.052-17.645-4.059-1.721-.444-3.281,1.051-.428,3.121,3.442,2.5,9.105,4.642,12.8,5.565a14.574,14.574,0,0,1-2.555,5.495c-1.973,2.491-.536,5.446-1.049,8.3s2.857,5.547,6.751,7.1,11.137-2.675,13.35,4.355l.009-.007c4.275,13.505,19.324,46.394,29.931,55.788,7.24,6.413,17.478,4.021,23.709-1.984,9.85-6.069,24.033-23.932,30.31-41.948,6.494-18.636-27-34.4-38.93-13.47" transform="translate(-280.976 -312.875)" fill="#fff"/><path d="M431.2,423.846s-4.836,9.885-8.794,18.569c-10.747-8.621-22.484-18.5-26.648-25.192-5.471-7-4.277-8.564-6.386-11.4-1.413-1.9-11.028-9.308-14.322-10.165a.525.525,0,0,0-.108-.063c-4.465-1.9-13.731-3.052-17.645-4.059-1.721-.444-3.281,1.051-.428,3.121,3.442,2.5,9.105,4.642,12.8,5.565a14.574,14.574,0,0,1-2.555,5.495c-1.973,2.491-.536,5.446-1.049,8.3s2.857,5.547,6.751,7.1,11.137-2.675,13.35,4.355l.009-.007c4.275,13.505,19.324,46.394,29.931,55.788,7.24,6.413,17.478,4.021,23.709-1.984,9.85-6.069,24.033-23.932,30.31-41.948C476.628,418.68,443.134,402.919,431.2,423.846Z" transform="translate(-280.976 -312.875)" fill="none" stroke="#2e3433" stroke-miterlimit="10" stroke-width="1"/><path d="M485.713,383.89c6.153,1.808,14.306,12.516,14.133,28.108s-5.288,29.431-17.57,48.946c0,0-34.865-5.5-41.7-29.286,0,0,14.926-26.49,22.458-37.03s15.894-12.732,22.681-10.738" transform="translate(-299.323 -311.104)" fill="#f5b015"/><path d="M485.713,383.89c6.153,1.808,14.306,12.516,14.133,28.108s-5.288,29.431-17.57,48.946c0,0-34.865-5.5-41.7-29.286,0,0,14.926-26.49,22.458-37.03S478.926,381.9,485.713,383.89Z" transform="translate(-299.323 -311.104)" fill="none" stroke="#2e3433" stroke-miterlimit="10" stroke-width="1"/><path d="M482.276,468.314s-34.865-5.5-41.7-29.285c0,0,6.161-10.933,12.564-21.547" transform="translate(-299.323 -318.473)" fill="#f5b015"/><path d="M482.276,468.314s-34.865-5.5-41.7-29.285c0,0,6.161-10.933,12.564-21.547" transform="translate(-299.323 -318.473)" fill="none" stroke="#2e3433" stroke-miterlimit="10" stroke-width="1"/><path d="M438.686,454.871a41.811,41.811,0,0,1,10.625,11.6" transform="translate(-298.916 -326.517)" fill="#fff"/><path d="M438.686,454.871a41.811,41.811,0,0,1,10.625,11.6" transform="translate(-298.916 -326.517)" fill="none" stroke="#2e3433" stroke-miterlimit="10" stroke-width="1"/><path d="M440.132,379.364l-6.992,7.148,2.151,5.609L441,393.207l4.02-4.436Z" transform="translate(-297.723 -310.273)" fill="#fff"/><path d="M440.132,379.364l-6.992,7.148,2.151,5.609L441,393.207l4.02-4.436Z" transform="translate(-297.723 -310.273)" fill="none" stroke="#2e3433" stroke-linecap="round" stroke-linejoin="round" stroke-width="1"/><path d="M462.07,371.5s-.031,5.714-.657,7.28c-.442,1.105-4.5,6.667-13.138,8.3" transform="translate(-300.979 -308.581)" fill="#f5b015"/><path d="M462.07,371.5s-.031,5.714-.657,7.28c-.442,1.105-4.5,6.667-13.138,8.3" transform="translate(-300.979 -308.581)" fill="none" stroke="#2e3433" stroke-miterlimit="10" stroke-width="1"/><path d="M438.6,377.514l-6.992,7.148s-4.485-1.954-5.591-8.473l.221-3.867s6.278-1.752,7.227-1.539a7.591,7.591,0,0,0,5.134,6.73" transform="translate(-296.191 -308.423)" fill="#f5b015"/><path d="M438.6,377.514l-6.992,7.148s-4.485-1.954-5.591-8.473l.221-3.867s6.278-1.752,7.227-1.539A7.591,7.591,0,0,0,438.6,377.514Z" transform="translate(-296.191 -308.423)" fill="none" stroke="#2e3433" stroke-miterlimit="10" stroke-width="1"/><path d="M285.9,423.514l23.346-3.482-5.707-45.52-23.345,3.482Z" transform="translate(-264.819 -309.229)" fill="#fff"/><path d="M284.088,393.738l-.167.021-.422-3.469,3.708-.452.02.167-3.541.432Z" transform="translate(-265.53 -312.526)" fill="#f5b015"/><path d="M291.375,424.185l-3.708.452-.423-3.469.168-.02.4,3.3,3.541-.431Z" transform="translate(-266.335 -319.262)" fill="#f5b015"/><path d="M309.025,390.7l-.167.02-.4-3.3-3.541.432-.02-.168,3.708-.451Z" transform="translate(-270.133 -311.966)" fill="#f5b015"/><path d="M312.881,421.462l-3.708.451-.02-.167,3.541-.432-.4-3.3.167-.02Z" transform="translate(-271.049 -318.583)" fill="#f5b015"/><path d="M289.615,405.766a.4.4,0,0,0,.329-.016.44.44,0,0,0,.22-.284,6.582,6.582,0,0,1,5.74-4.943,6.906,6.906,0,0,1,6.989,3.5.426.426,0,0,0,.422.228.4.4,0,0,0,.183-.071.475.475,0,0,0,.127-.607h0a7.558,7.558,0,0,0-3.438-3.269,8.014,8.014,0,0,0-4.409-.688,7.409,7.409,0,0,0-6.435,5.591.475.475,0,0,0,.272.557" transform="translate(-266.784 -314.617)" fill="#f5b015"/><path d="M290.085,401.653c.016,0,.032,0,.049,0a.406.406,0,0,0,.311-.217,6.755,6.755,0,0,1,5.311-3.375h.041l.025-.009a6.76,6.76,0,0,1,5.93,2.006.4.4,0,0,0,.626-.02.484.484,0,0,0-.027-.616,7.569,7.569,0,0,0-6.666-2.272h-.059l-.013.007a7.55,7.55,0,0,0-5.9,3.8.486.486,0,0,0,.123.606.409.409,0,0,0,.251.088" transform="translate(-266.854 -314.084)" fill="#f5b015"/><path d="M291.025,398.039c.016,0,.032,0,.049,0a.411.411,0,0,0,.249-.129,7.067,7.067,0,0,1,4.416-2.129h.039l.024-.009a7.078,7.078,0,0,1,4.759,1.013.4.4,0,0,0,.272.064.419.419,0,0,0,.327-.246.483.483,0,0,0-.166-.595,7.854,7.854,0,0,0-5.329-1.138h-.06l-.014.008a7.866,7.866,0,0,0-4.877,2.382.483.483,0,0,0-.018.617.42.42,0,0,0,.329.165" transform="translate(-267.056 -313.593)" fill="#f5b015"/><path d="M303.618,413.314a.419.419,0,0,0-.279.211,7.341,7.341,0,0,1-11.307,1.376.45.45,0,0,0-.323-.137.408.408,0,0,0-.3.157.485.485,0,0,0,.027.618,7.374,7.374,0,0,0,5.554,2.339,9.3,9.3,0,0,0,1.142-.07A7.556,7.556,0,0,0,304.072,414a.484.484,0,0,0-.122-.606.409.409,0,0,0-.332-.079" transform="translate(-267.21 -317.575)" fill="#f5b015"/><path d="M303.379,417.285a.376.376,0,0,0-.311.131,7.061,7.061,0,0,1-4.4,2.129h-.059l-.013.006a7.078,7.078,0,0,1-4.774-1.01.4.4,0,0,0-.334-.053.42.42,0,0,0-.264.234.484.484,0,0,0,.165.6,7.61,7.61,0,0,0,4.209,1.206,9.324,9.324,0,0,0,1.1-.067l0,0,.088,0,.013-.009a7.861,7.861,0,0,0,4.87-2.381.484.484,0,0,0,.016-.617.424.424,0,0,0-.314-.163" transform="translate(-267.614 -318.431)" fill="#f5b015"/><path d="M291.733,413.2a6.1,6.1,0,0,0,5.051,2.332,9.773,9.773,0,0,0,1.18-.075c3.891-.474,5.017-2.724,5.5-3.686a.482.482,0,0,0-.146-.6.409.409,0,0,0-.334-.064.422.422,0,0,0-.271.221c-.419.84-1.4,2.8-4.859,3.226s-4.888-1.25-5.5-1.964a.422.422,0,0,0-.316-.151.375.375,0,0,0-.311.145.487.487,0,0,0,.007.618" transform="translate(-267.276 -317.098)" fill="#f5b015"/><path d="M295.353,412.016a.421.421,0,0,0-.333-.088.414.414,0,0,0-.282.2.485.485,0,0,0,.108.607,3.944,3.944,0,0,0,2.437.648,9.592,9.592,0,0,0,1.107-.069,5.052,5.052,0,0,0,4.251-2.735.484.484,0,0,0-.144-.6.41.41,0,0,0-.334-.066.424.424,0,0,0-.272.223,5.3,5.3,0,0,1-6.537,1.876" transform="translate(-267.934 -316.843)" fill="#f5b015"/><path d="M303.834,406.459h0c-.564-.159-1.654-1.527-2.013-1.977a7.5,7.5,0,0,0-2.409-2.2,7.123,7.123,0,0,0-6.5.793,7.466,7.466,0,0,0-1.8,2.712,7.588,7.588,0,0,1-1.472,2.4.466.466,0,0,0-.177.593.433.433,0,0,0,.392.267.271.271,0,0,0,.049,0,.407.407,0,0,0,.147-.049,6.736,6.736,0,0,0,1.826-2.792c1.03-2.255,1.835-3.108,4.3-3.409s3.46.334,5.007,2.275a6.775,6.775,0,0,0,2.451,2.273.385.385,0,0,0,.157.012.424.424,0,0,0,.361-.36.468.468,0,0,0-.315-.534" transform="translate(-266.802 -315.102)" fill="#f5b015"/><path d="M292.584,394.6a.445.445,0,0,0,.046,0,.426.426,0,0,0,.134-.041,8.566,8.566,0,0,1,6.364-.775.4.4,0,0,0,.136.007.433.433,0,0,0,.365-.379.466.466,0,0,0-.339-.52,9.459,9.459,0,0,0-3.432-.253l-.029,0-.046.008.039.234-.089-.228-.1.016a9.475,9.475,0,0,0-3.241,1.065.465.465,0,0,0-.2.587.438.438,0,0,0,.4.282" transform="translate(-267.391 -313.117)" fill="#f5b015"/><path d="M296.9,404.107c-2.322.283-3.22,1.832-3.945,3.4a12.642,12.642,0,0,1-.836,1.6.484.484,0,0,0-.019.483.432.432,0,0,0,.44.233,6.516,6.516,0,0,1,2.285.137h0a10.283,10.283,0,0,0,1.924.217,7.374,7.374,0,0,0,.89-.054,2.412,2.412,0,0,0,1.607-.938,3.243,3.243,0,0,0,.622-2.391,2.857,2.857,0,0,0-2.971-2.694m-3.177,3.811h0c.669-1.45,1.379-2.671,3.289-2.9a1.977,1.977,0,0,1,2.017,1.89,2.3,2.3,0,0,1-.434,1.694,1.6,1.6,0,0,1-1.064.626,8.042,8.042,0,0,1-2.577-.155,9.816,9.816,0,0,0-1.686-.2c.162-.316.308-.629.451-.938l-.213-.108Z" transform="translate(-267.368 -315.592)" fill="#f5b015"/><path d="M295.68,408.717l.024,0a9.114,9.114,0,0,0,1.691.2,6.38,6.38,0,0,0,.739-.046,1.053,1.053,0,0,0,.7-.407,1.363,1.363,0,0,0,.263-1,1.216,1.216,0,0,0-1.277-1.137,3.322,3.322,0,0,0-2.444,1.717.5.5,0,0,0-.013.407.443.443,0,0,0,.317.268m.855-.778a2.321,2.321,0,0,1,1.4-.708h0c.151-.015.3.134.323.333a.339.339,0,0,1-.233.4,5.424,5.424,0,0,1-1.488-.026" transform="translate(-268.074 -316.071)" fill="#f5b015"/><path d="M279.713,375.939l13.512-1.891.258,2.048-6.836,1.019-4.872.744a3.381,3.381,0,0,0-2.536,3.92l4.574,36.507a3.19,3.19,0,0,0,3.408,3.03l11.717-1.687.538,4.3-13.482,2.129a3.189,3.189,0,0,1-3.406-3.03l-5.413-43.17a3.378,3.378,0,0,1,2.537-3.92" transform="translate(-264.162 -309.129)" fill="#2e3433"/><path d="M279.185,379.306l5.409,43.17a3.233,3.233,0,0,0,3.206,3.054c.068-.006.137-.011.2-.024l19.711-2.939a3.379,3.379,0,0,0,2.537-3.92l-5.412-43.17a3.194,3.194,0,0,0-3.407-3.033l-19.708,2.943a1.733,1.733,0,0,0-.206.04,3.422,3.422,0,0,0-2.333,3.88m26.178,39.051-16.13,2.406a3.185,3.185,0,0,1-3.409-3.026l-4.576-36.507a3.38,3.38,0,0,1,2.537-3.92l4.874-.727.319.77a.976.976,0,0,0,1.037.721l4.091-.609a1.038,1.038,0,0,0,.822-1l.116-.833,4.873-.729a3.186,3.186,0,0,1,3.407,3.03l4.576,36.507a3.373,3.373,0,0,1-2.537,3.916" transform="translate(-264.595 -308.778)" fill="#dbe0e6"/><path d="M279.185,379.306l5.409,43.17a3.233,3.233,0,0,0,3.206,3.054c.068-.006.137-.011.2-.024l19.711-2.939a3.379,3.379,0,0,0,2.537-3.92l-5.412-43.17a3.194,3.194,0,0,0-3.407-3.033l-19.708,2.943a1.733,1.733,0,0,0-.206.04A3.422,3.422,0,0,0,279.185,379.306Zm26.178,39.051-16.13,2.406a3.185,3.185,0,0,1-3.409-3.026l-4.576-36.507a3.38,3.38,0,0,1,2.537-3.92l4.874-.727.319.77a.976.976,0,0,0,1.037.721l4.091-.609a1.038,1.038,0,0,0,.822-1l.116-.833,4.873-.729a3.186,3.186,0,0,1,3.407,3.03l4.576,36.507A3.373,3.373,0,0,1,305.363,418.358Z" transform="translate(-264.595 -308.778)" fill="none" stroke="#2e3433" stroke-miterlimit="10" stroke-width="1"/><path d="M275.843,401.834s-3.988-1.441-.337-5.811,7-2.543,6.8-.709-.188,3.025-3.019,4.373c0,0,2.727.021,2.811,2.11a4.644,4.644,0,0,1-1.5,3.44s2.427-.483,2.953.446,0,3.571-2.343,4.952c0,0,2.757.341,1.526,3.4s-1.855,2.183-1.855,2.183l.633,3.8s-5.184-.824-4.288-6.88c0,0-3.444-1.958-.319-5.4,0,0-4.963-2.225-1.064-5.9" transform="translate(-263.479 -313.276)" fill="#fff"/><path d="M275.843,401.834s-3.988-1.441-.337-5.811,7-2.543,6.8-.709-.188,3.025-3.019,4.373c0,0,2.727.021,2.811,2.11a4.644,4.644,0,0,1-1.5,3.44s2.427-.483,2.953.446,0,3.571-2.343,4.952c0,0,2.757.341,1.526,3.4s-1.855,2.183-1.855,2.183l.633,3.8s-5.184-.824-4.288-6.88c0,0-3.444-1.958-.319-5.4C276.906,407.735,271.943,405.51,275.843,401.834Z" transform="translate(-263.479 -313.276)" fill="none" stroke="#2e3433" stroke-linecap="round" stroke-linejoin="round" stroke-width="1"/><path d="M281.286,408.592c-.321.117-.633.253-.939.4a9.6,9.6,0,0,0-.889.48,7.069,7.069,0,0,0-.825.578,7.353,7.353,0,0,0-.74.7,3.864,3.864,0,0,1,.651-.8,4.907,4.907,0,0,1,.824-.625,5.467,5.467,0,0,1,1.917-.729" transform="translate(-264.324 -316.561)" fill="#fff"/><path d="M278.057,410.884a6.8,6.8,0,0,1,1.492-1.217,9.723,9.723,0,0,1,.866-.467c.294-.136.6-.269.909-.384l-.17-.647a5.788,5.788,0,0,0-2.036.774,5.187,5.187,0,0,0-.88.667,4.168,4.168,0,0,0-.706.862Z" transform="translate(-264.246 -316.47)" fill="#2e3433"/><path d="M281.907,415.46c-.322.117-.633.254-.939.4a9.614,9.614,0,0,0-.89.48,7.333,7.333,0,0,0-.825.578,7.453,7.453,0,0,0-.74.7,3.867,3.867,0,0,1,.652-.8,4.948,4.948,0,0,1,.824-.625,5.462,5.462,0,0,1,1.917-.729" transform="translate(-264.457 -318.038)" fill="#fff"/><path d="M278.678,417.752a6.795,6.795,0,0,1,1.492-1.217,9.415,9.415,0,0,1,.866-.467c.294-.136.6-.269.909-.384l-.17-.646a5.782,5.782,0,0,0-2.036.772,5.2,5.2,0,0,0-.881.669,4.188,4.188,0,0,0-.7.861Z" transform="translate(-264.379 -317.948)" fill="#2e3433"/><path d="M279.816,401.431c-.322.117-.633.253-.939.4a9.507,9.507,0,0,0-.889.48,7.082,7.082,0,0,0-.826.578,7.361,7.361,0,0,0-.74.7,3.867,3.867,0,0,1,.652-.8,4.912,4.912,0,0,1,.824-.625,5.447,5.447,0,0,1,1.917-.729" transform="translate(-264.007 -315.02)" fill="#fff"/><path d="M276.586,403.723a7.174,7.174,0,0,1,.706-.665,6.764,6.764,0,0,1,.787-.553,9.681,9.681,0,0,1,.864-.467c.294-.136.595-.269.909-.382l-.169-.648a5.755,5.755,0,0,0-2.036.775,5.111,5.111,0,0,0-.881.666,4.12,4.12,0,0,0-.706.862Z" transform="translate(-263.929 -314.929)" fill="#2e3433"/></g></g></g></g></svg>