<svg xmlns="http://www.w3.org/2000/svg" xmlns:xlink="http://www.w3.org/1999/xlink" width="437.647" height="500.397" style="transform:scale(1.3)" viewBox="0 0 437.647 358.397">
  <defs>
    <clipPath id="clip-path">
      <rect id="Rectángulo_331" data-name="Rectángulo 331" width="413.647" height="354.397" transform="translate(24 153)" fill="none"/>
    </clipPath>
    <clipPath id="clip-path-2">
      <path id="Trazado_1500" data-name="Trazado 1500" d="M141.754,213.813C127,289.8,176.817,363.607,252.8,378.357s149.794-35.063,164.544-111.045a17.534,17.534,0,0,0-34.425-6.684A105.3,105.3,0,1,1,176.18,220.5a17.534,17.534,0,1,0-34.426-6.683" transform="translate(-139.166 -199.618)" fill="none"/>
    </clipPath>
    <clipPath id="clip-path-3">
      <rect id="Rectángulo_332" data-name="Rectángulo 332" width="412.647" height="352.397" transform="translate(25 149)" fill="none"/>
    </clipPath>
    <clipPath id="clip-path-4">
      <path id="Trazado_1525" data-name="Trazado 1525" d="M118.024,285.395,62.487,342.818l55.537,157.557H315.149V285.395Z" transform="translate(-62.487 -285.395)" fill="none"/>
    </clipPath>
    <clipPath id="clip-path-5">
      <rect id="Rectángulo_336" data-name="Rectángulo 336" width="412.647" height="343.397" transform="translate(25 155)" fill="none"/>
    </clipPath>
    <clipPath id="clip-path-6">
      <path id="Trazado_1577" data-name="Trazado 1577" d="M53.87,279.791c-5.283,0-14.15,15.673-19.6,18.54S7.615,318.178,4.462,326.457c-1.713,4.5-4.439,4.6-4.462,8.191v.088c.018,3.038,1.935,8.539,7.9,21.061,13.186,27.668,18.129,30.849,23.684,32.986S63.847,401.8,66.115,408.83s3.989,9.6,6.855,22.647S81,459.574,81,459.574l20.653,8.23v27.029a4.416,4.416,0,0,0,4.416,4.416H227.982a4.415,4.415,0,0,0,4.416-4.416V471.871l8.835-5.278,13.974-24.723,31.818-28.2,15.049-14.27-28.809-13.16-20.91,5.751-5.318,15.264-14.639-5.58V364.652a4.415,4.415,0,0,0-4.416-4.416H211.554c-3.4-3.95-7.857-9.211-8.19-9.956-.541-1.213-31.762-16.634-31.762-16.634l-16.926-58.928s-95.523,5.073-100.805,5.073" transform="translate(0 -274.718)" fill="none"/>
    </clipPath>
    <clipPath id="clip-path-7">
      <rect id="Rectángulo_343" data-name="Rectángulo 343" width="410.647" height="324.397" transform="translate(27 160)" fill="none"/>
    </clipPath>
  </defs>
  <g id="Grupo_694" data-name="Grupo 694" transform="translate(0 -149)">
    <g id="Grupo_414" data-name="Grupo 414">
      <g id="Grupo_413" data-name="Grupo 413" clip-path="url(#clip-path)">
        <path id="Trazado_1499" data-name="Trazado 1499" d="M332.254,257.734c-46.3-19.741-73.3,31.572-161.253,9.35C76.733,243.265,46.9,381.732,127.3,447.148c80.022,65.112,145.512,54.35,204.767-11.8,44.556-49.738,68.988-148.283.188-177.619" transform="translate(-10.771 -33.743)" fill="#fff"/>
      </g>
    </g>
    <g id="Grupo_416" data-name="Grupo 416" transform="translate(120.614 173.007)">
      <g id="Grupo_415" data-name="Grupo 415" clip-path="url(#clip-path-2)">
        <line id="Línea_181" data-name="Línea 181" x1="193.652" y1="286.948" transform="translate(-79.653 -35.985)" fill="none" stroke="#f3ad13" stroke-miterlimit="10" stroke-width="8"/>
        <line id="Línea_182" data-name="Línea 182" x1="193.652" y1="286.948" transform="translate(-69.119 -43.094)" fill="none" stroke="#f3ad13" stroke-miterlimit="10" stroke-width="8"/>
        <line id="Línea_183" data-name="Línea 183" x1="193.652" y1="286.948" transform="translate(-58.584 -50.204)" fill="none" stroke="#f3ad13" stroke-miterlimit="10" stroke-width="8"/>
        <line id="Línea_184" data-name="Línea 184" x1="193.652" y1="286.948" transform="translate(-48.049 -57.314)" fill="none" stroke="#f3ad13" stroke-miterlimit="10" stroke-width="8"/>
        <line id="Línea_185" data-name="Línea 185" x1="193.652" y1="286.948" transform="translate(-37.514 -64.423)" fill="none" stroke="#f3ad13" stroke-miterlimit="10" stroke-width="8"/>
        <line id="Línea_186" data-name="Línea 186" x1="193.652" y1="286.948" transform="translate(-26.979 -71.533)" fill="none" stroke="#f3ad13" stroke-miterlimit="10" stroke-width="8"/>
        <line id="Línea_187" data-name="Línea 187" x1="193.652" y1="286.948" transform="translate(-16.444 -78.642)" fill="none" stroke="#f3ad13" stroke-miterlimit="10" stroke-width="8"/>
        <line id="Línea_188" data-name="Línea 188" x1="193.652" y1="286.948" transform="translate(-5.91 -85.752)" fill="none" stroke="#f3ad13" stroke-miterlimit="10" stroke-width="8"/>
        <line id="Línea_189" data-name="Línea 189" x1="193.652" y1="286.948" transform="translate(4.625 -92.862)" fill="none" stroke="#f3ad13" stroke-miterlimit="10" stroke-width="8"/>
        <line id="Línea_190" data-name="Línea 190" x1="193.652" y1="286.948" transform="translate(15.16 -99.971)" fill="none" stroke="#f3ad13" stroke-miterlimit="10" stroke-width="8"/>
        <line id="Línea_191" data-name="Línea 191" x1="193.652" y1="286.948" transform="translate(25.695 -107.081)" fill="none" stroke="#f3ad13" stroke-miterlimit="10" stroke-width="8"/>
        <line id="Línea_192" data-name="Línea 192" x1="193.652" y1="286.948" transform="translate(36.23 -114.19)" fill="none" stroke="#f3ad13" stroke-miterlimit="10" stroke-width="8"/>
        <line id="Línea_193" data-name="Línea 193" x1="193.652" y1="286.948" transform="translate(46.765 -121.3)" fill="none" stroke="#f3ad13" stroke-miterlimit="10" stroke-width="8"/>
        <line id="Línea_194" data-name="Línea 194" x1="193.652" y1="286.948" transform="translate(57.299 -128.41)" fill="none" stroke="#f3ad13" stroke-miterlimit="10" stroke-width="8"/>
        <line id="Línea_195" data-name="Línea 195" x1="193.652" y1="286.948" transform="translate(67.834 -135.519)" fill="none" stroke="#f3ad13" stroke-miterlimit="10" stroke-width="8"/>
        <line id="Línea_196" data-name="Línea 196" x1="193.652" y1="286.948" transform="translate(78.369 -142.629)" fill="none" stroke="#f3ad13" stroke-miterlimit="10" stroke-width="8"/>
        <line id="Línea_197" data-name="Línea 197" x1="193.652" y1="286.948" transform="translate(88.904 -149.738)" fill="none" stroke="#f3ad13" stroke-miterlimit="10" stroke-width="8"/>
        <line id="Línea_198" data-name="Línea 198" x1="193.652" y1="286.948" transform="translate(99.439 -156.848)" fill="none" stroke="#f3ad13" stroke-miterlimit="10" stroke-width="8"/>
        <line id="Línea_199" data-name="Línea 199" x1="193.652" y1="286.948" transform="translate(109.974 -163.958)" fill="none" stroke="#f3ad13" stroke-miterlimit="10" stroke-width="8"/>
        <line id="Línea_200" data-name="Línea 200" x1="193.652" y1="286.948" transform="translate(120.508 -171.067)" fill="none" stroke="#f3ad13" stroke-miterlimit="10" stroke-width="8"/>
      </g>
    </g>
    <g id="Grupo_418" data-name="Grupo 418">
      <g id="Grupo_417" data-name="Grupo 417" clip-path="url(#clip-path-3)">
        <path id="Trazado_1501" data-name="Trazado 1501" d="M341.644,349.005s39.574,13.3,34.188,58.918S378.2,509.14,378.2,509.14H355.643s-40.184-54.175-10.572-94.766-3.428-65.368-3.428-65.368" transform="translate(-44.551 -46.526)" fill="#f5b015"/>
        <path id="Trazado_1502" data-name="Trazado 1502" d="M378.793,509.457H355.276l-.174-.234c-.4-.545-40.1-54.986-10.575-95.454,28.937-39.671-2.981-64.319-3.306-64.562l-2.881-2.162,3.414,1.148c.4.133,39.958,13.971,34.58,59.535-5.314,45.023,2.29,100.513,2.368,101.068Zm-22.929-1.16h21.6c-.845-6.427-7.3-58.2-2.283-100.7,4.365-36.984-21.468-52.625-30.651-56.967,7.232,7.161,25.4,30.287.933,63.828-28.042,38.441,7.6,89.922,10.4,93.844" transform="translate(-44.475 -46.265)" fill="#131313"/>
        <path id="Trazado_1503" data-name="Trazado 1503" d="M344.778,352.284c7.2,5.945,28.149,27.546,5.575,63.3-26.821,42.486,16.9,93.845,16.9,93.845l10.829-.731c.07.553.116.874.116.874H355.643S315.459,455.4,345.071,414.81c23.763-32.579,7.185-54.956-.293-62.526" transform="translate(-44.551 -46.963)" fill="#131313"/>
        <path id="Trazado_1504" data-name="Trazado 1504" d="M379.383,476.094c-2.112-40.488-.479-45.547,15.261-58.917s37.919-35.351,37.919-35.351c-15.11,29.912-14.806,43.509-17.647,65.514-2.207,17.07-27.851,51.143-39.245,65.572,2.524-5.85,4.765-16.717,3.712-36.818" transform="translate(-50.081 -50.902)" fill="#f5b015"/>
        <path id="Trazado_1505" data-name="Trazado 1505" d="M375.057,512.231c2.27-5.262,4.749-15.877,3.665-36.557-2.095-40.152-.649-45.7,15.463-59.39,15.542-13.2,37.664-35.1,37.886-35.321l2.535-2.513L433,381.637c-12.97,25.679-14.545,39.323-16.539,56.6-.322,2.792-.655,5.681-1.049,8.73-2.234,17.277-28.273,51.811-39.364,65.857Zm4.824-36.618c.759,14.494-.08,25.773-2.5,33.618,11.948-15.353,34.815-46.5,36.873-62.416.394-3.044.726-5.926,1.048-8.714,1.926-16.682,3.463-30,15.119-53.892-6.225,6.1-22.978,22.333-35.487,32.96-15.717,13.35-17.124,18.812-15.056,58.444" transform="translate(-49.999 -50.452)" fill="#131313"/>
        <path id="Trazado_1506" data-name="Trazado 1506" d="M383.78,466.815c7.857,33.634-8.849,56.239-8.849,56.239H358.461c.056-11.593-.775-22.711-6.232-33.955a12.47,12.47,0,0,0-1-1.669c2.321-1.087,4.9-2.187,7.779-3.291,30.415-11.684,16.92-50.96,24.776-17.323" transform="translate(-46.822 -60.456)" fill="#131313"/>
        <path id="Trazado_1507" data-name="Trazado 1507" d="M342.082,482c16.035,9.694,8.488,45.483,8.488,45.483l-15.675-.25s3.636-11.563-6.041-25.222-17.076-9.261-17.076-9.261,14.267-20.442,30.3-10.75" transform="translate(-41.564 -63.908)" fill="#131313"/>
        <path id="Trazado_1508" data-name="Trazado 1508" d="M424.424,454.648c28.071,0,43.771,16.917,43.771,16.917s-10.926-5.554-30.476-4.832-18.129,17.323-33.841,32.831-28.8,17.725-28.8,17.725,20.809-30.095,36.054-50.556c2.685-3.6.071-12.085,13.3-12.085" transform="translate(-50.002 -60.61)" fill="#131313"/>
        <path id="Trazado_1509" data-name="Trazado 1509" d="M474.527,480.083a2.442,2.442,0,0,1,.141.466s-.044-.168-.141-.466" transform="translate(-63.26 -64)" fill="#faf9fc"/>
        <path id="Trazado_1510" data-name="Trazado 1510" d="M401.276,472.341c5.239-7.05-.2-24.371,33.236-20.345,30.54,3.68,37.718,21.8,38.734,24.912-.771-2.008-5.659-10.194-35.109-16.854C404.3,452.4,422.224,469.922,406.916,481s-27.8,31.824-27.8,31.824-8.662,14.5-6.646,2.415,23.566-35.854,28.8-42.9" transform="translate(-49.614 -60.176)" fill="#f5b015"/>
        <path id="Trazado_1511" data-name="Trazado 1511" d="M372.843,520.536a1.024,1.024,0,0,1-.363-.062c-1.037-.38-1.237-2-.667-5.414,1.622-9.728,15.552-26.723,23.875-36.876,2.122-2.589,3.955-4.824,5.034-6.276a19.371,19.371,0,0,0,2.455-6.008c2.3-7.894,5.172-17.716,31.315-14.566,30.673,3.695,38.049,21.73,39.216,25.307l-1.093.387c-.607-1.582-5.133-9.811-34.694-16.5-10.148-2.295-16.286-2.454-19.312-.5-2.311,1.492-2.84,4.092-3.51,7.382-.875,4.3-1.965,9.647-7.932,13.967-15.036,10.883-27.515,31.447-27.639,31.653-1.719,2.878-4.776,7.5-6.684,7.5M401.652,472.6c-1.1,1.475-2.848,3.613-5.067,6.32-8.25,10.064-22.057,26.909-23.629,36.331-.616,3.7-.075,4.135-.069,4.139.662.136,3.353-3.11,5.645-6.947.126-.21,12.727-20.976,27.954-32,5.6-4.054,6.6-8.944,7.475-13.258.7-3.417,1.3-6.368,4.016-8.126,3.353-2.168,9.581-2.063,20.2.341,19.461,4.4,28.33,9.489,32.362,13.108-3.777-6.511-13.368-17.276-36.185-20.025-25.169-3.031-27.769,5.879-30.064,13.741a20.066,20.066,0,0,1-2.637,6.374" transform="translate(-49.525 -60.087)" fill="#131313"/>
        <path id="Trazado_1512" data-name="Trazado 1512" d="M287.926,493.2c17.612-29.98,35.918-26.561,47.678-18.824,16.684,10.979,10.78,51.11,10.78,51.11l-2.562.615s.187-7.861-.129-21.42-5.449-33.158-28.744-8.228-53.782,27.429-53.782,27.429,9.144-.7,26.759-30.681" transform="translate(-34.816 -62.525)" fill="#f5b015"/>
        <path id="Trazado_1513" data-name="Trazado 1513" d="M261.2,524.367l-.092-1.156h0c.113-.013,9.21-1.3,26.3-30.4,7.982-13.589,16.868-21.606,26.412-23.83,7.236-1.687,14.666-.067,22.085,4.814,16.8,11.056,11.277,50.025,11.035,51.678l-.057.387-3.676.884.017-.754c0-.079.184-8.006-.128-21.393-.117-4.971-1.074-16.795-7.418-19.211-4.75-1.806-11.585,2.015-20.323,11.365-23.044,24.659-53.489,27.553-54.15,27.611H261.2m59.964-54.8a23.285,23.285,0,0,0-7.073.547c-9.222,2.149-17.861,9.983-25.677,23.286-11.225,19.108-19.06,26.428-23.354,29.231,8.972-1.623,31.489-7.445,49.453-26.667,9.091-9.729,16.351-13.649,21.584-11.66,7,2.669,8.042,15.064,8.164,20.27.258,11.067.179,18.415.142,20.694l1.448-.348c.541-4.142,4.742-40.072-10.578-50.153a29.783,29.783,0,0,0-14.111-5.2" transform="translate(-34.809 -62.435)" fill="#131313"/>
        <path id="Trazado_1514" data-name="Trazado 1514" d="M332.026,451.412c4.809-3.529,9.692-2.925,13.463-1.354a16.114,16.114,0,0,0,14.528-1.329c16.1-9.742,17.33,3.65,17.33,3.65l-.436,3.626a.182.182,0,0,0-.023.12c-1.16,6.719-4.932,20.691-21.078,26.9-2.876,1.11-28.206,12.085-28.206,12.085,3.432-13.9-5.44-36.449,4.422-43.7" transform="translate(-43.619 -59.347)" fill="#f5b015"/>
        <path id="Trazado_1515" data-name="Trazado 1515" d="M326.669,496.022l.282-1.137c1.345-5.451.757-12.366.188-19.053-.893-10.5-1.737-20.424,4.453-24.976h0c4.133-3.033,8.983-3.523,14.03-1.422a15.628,15.628,0,0,0,14.006-1.289c5.869-3.553,10.523-4.512,13.833-2.84,3.872,1.954,4.355,6.73,4.374,6.933l.005.062-.483,3.9c-2.323,13.347-9.732,22.782-21.429,27.283-2.831,1.093-27.932,11.966-28.185,12.076Zm5.61-44.233c-5.666,4.168-4.849,13.774-3.984,23.945.539,6.338,1.1,12.877.029,18.307,4.859-2.1,24.632-10.657,27.186-11.643,11.315-4.353,18.478-13.5,20.716-26.46a.4.4,0,0,1,.031-.19l.415-3.461c-.064-.512-.648-4.4-3.742-5.952-2.927-1.47-7.2-.529-12.7,2.8a16.793,16.793,0,0,1-15.052,1.369c-4.717-1.968-9.055-1.534-12.9,1.285Z" transform="translate(-43.529 -59.257)" fill="#131313"/>
      </g>
    </g>
    <g id="Grupo_420" data-name="Grupo 420" transform="translate(54.157 247.349)">
      <g id="Grupo_419" data-name="Grupo 419" clip-path="url(#clip-path-4)">
        <path id="Trazado_1516" data-name="Trazado 1516" d="M325.589,310.516V591.29a21.385,21.385,0,0,1-21.358,21.358H248.064v-.042H177.2a21.382,21.382,0,0,1-20.077-21.315V310.516a21.386,21.386,0,0,1,21.358-21.358H304.232a21.378,21.378,0,0,1,21.358,21.358" transform="translate(-75.102 -285.897)" fill="#dbe0e6"/>
        <path id="Trazado_1517" data-name="Trazado 1517" d="M325.589,310.516V591.29a21.385,21.385,0,0,1-21.358,21.358H248.064v-.042H177.2a21.382,21.382,0,0,1-20.077-21.315V310.516a21.386,21.386,0,0,1,21.358-21.358H304.232A21.378,21.378,0,0,1,325.589,310.516Z" transform="translate(-75.102 -285.897)" fill="none" stroke="#2e3433" stroke-miterlimit="10" stroke-width="1"/>
        <path id="Trazado_1518" data-name="Trazado 1518" d="M320.728,310.676V591.459a16.608,16.608,0,0,1-16.613,16.6H178.361a16.605,16.605,0,0,1-16.6-16.6V310.676a16.6,16.6,0,0,1,16.6-16.6H304.115a16.607,16.607,0,0,1,16.613,16.6" transform="translate(-75.721 -286.552)" fill="#fff"/>
        <path id="Trazado_1519" data-name="Trazado 1519" d="M320.728,310.676V591.459a16.608,16.608,0,0,1-16.613,16.6H178.361a16.605,16.605,0,0,1-16.6-16.6V310.676a16.6,16.6,0,0,1,16.6-16.6H304.115A16.607,16.607,0,0,1,320.728,310.676Z" transform="translate(-75.721 -286.552)" fill="none" stroke="#2e3433" stroke-miterlimit="10" stroke-width="1"/>
        <path id="Trazado_1520" data-name="Trazado 1520" d="M270.9,297.827h-39.15a1.582,1.582,0,1,0,0,3.163H270.9a1.582,1.582,0,1,0,0-3.163" transform="translate(-84.84 -287.052)" fill="#2e3433"/>
        <rect id="Rectángulo_333" data-name="Rectángulo 333" width="7.419" height="0.94" transform="matrix(0.707, -0.708, 0.708, 0.707, 101.241, 28.009)" fill="#2e3433"/>
        <rect id="Rectángulo_334" data-name="Rectángulo 334" width="0.94" height="7.419" transform="translate(101.24 23.425) rotate(-45)" fill="#2e3433"/>
        <rect id="Rectángulo_335" data-name="Rectángulo 335" width="8.416" height="0.94" transform="translate(222.415 26.977)" fill="#361e4d"/>
        <path id="Trazado_1521" data-name="Trazado 1521" d="M292.984,423.115H200.4a5.915,5.915,0,0,1-5.146-8.83l45.757-80.775a5.915,5.915,0,0,1,10.263-.051L298.1,414.234a5.915,5.915,0,0,1-5.117,8.881" transform="translate(-80.083 -291.409)" fill="#fff"/>
        <path id="Trazado_1522" data-name="Trazado 1522" d="M292.984,423.115H200.4a5.915,5.915,0,0,1-5.146-8.83l45.757-80.775a5.915,5.915,0,0,1,10.263-.051L298.1,414.234A5.915,5.915,0,0,1,292.984,423.115Z" transform="translate(-80.083 -291.409)" fill="none" stroke="#2e3433" stroke-miterlimit="10" stroke-width="1"/>
        <path id="Trazado_1523" data-name="Trazado 1523" d="M291.582,418.352h-87.64a1.757,1.757,0,0,1-1.529-2.624l43.315-76.467a1.758,1.758,0,0,1,3.05-.015L293.1,415.713a1.757,1.757,0,0,1-1.52,2.639" transform="translate(-81.11 -292.457)" fill="#f5b015"/>
        <path id="Trazado_1524" data-name="Trazado 1524" d="M291.582,418.352h-87.64a1.757,1.757,0,0,1-1.529-2.624l43.315-76.467a1.758,1.758,0,0,1,3.05-.015L293.1,415.713A1.757,1.757,0,0,1,291.582,418.352Z" transform="translate(-81.11 -292.457)" fill="none" stroke="#2e3433" stroke-miterlimit="10" stroke-width="1"/>
        <text id="_" data-name="!" transform="translate(158.205 111.427)" fill="#2e3433" font-size="67" font-family="Helvetica"><tspan x="0" y="0">!</tspan></text>
      </g>
    </g>
    <g id="Grupo_422" data-name="Grupo 422">
      <g id="Grupo_421" data-name="Grupo 421" clip-path="url(#clip-path-5)">
        <path id="Trazado_1526" data-name="Trazado 1526" d="M326.306,246.829l-.156.015,1.288,12.762,10.208-7.337-.347-.561a12.157,12.157,0,0,0-10.993-4.879" transform="translate(-43.479 -32.897)" fill="#f5b015"/>
        <path id="Trazado_1527" data-name="Trazado 1527" d="M63.741,378.619a3.436,3.436,0,1,1-3.436-3.436,3.437,3.437,0,0,1,3.436,3.436" transform="translate(-7.581 -50.016)" fill="#f5b015"/>
        <path id="Trazado_1528" data-name="Trazado 1528" d="M101.78,408.652a2.353,2.353,0,1,1-2.354-2.353,2.353,2.353,0,0,1,2.354,2.353" transform="translate(-12.941 -54.164)" fill="#f5b015"/>
        <path id="Trazado_1529" data-name="Trazado 1529" d="M225.712,251.033a3.435,3.435,0,1,1-3.436-3.436,3.436,3.436,0,0,1,3.436,3.436" transform="translate(-29.174 -33.007)" fill="#f5b015"/>
        <path id="Trazado_1530" data-name="Trazado 1530" d="M372.651,288.113a2.263,2.263,0,1,1-2.263-2.263,2.263,2.263,0,0,1,2.263,2.263" transform="translate(-49.075 -38.107)" fill="#f5b015"/>
      </g>
    </g>
    <g id="Grupo_424" data-name="Grupo 424" transform="translate(0 238.095)">
      <g id="Grupo_423" data-name="Grupo 423" clip-path="url(#clip-path-6)">
        <path id="Trazado_1531" data-name="Trazado 1531" d="M187.461,646.879c-12.326-.018-42.722-6.845-48.293-9.5-7.571-3.613-28.96-1.545-31.012-2.4,15.163-92.545,40.216-145.9,40.216-145.9l65.4-5.531c-.418,18.9,45.076,88.989,45.172,148.877-19.355-.03-31.4,14.527-71.482,14.467" transform="translate(-14.418 -302.556)" fill="#2e3433"/>
        <path id="Trazado_1532" data-name="Trazado 1532" d="M256.135,466.72c-.726-14.077-26.913-35.51-36.265-43.176-7.335-6.016-12.362-7.506-17.243-6.776a16.791,16.791,0,0,0-7.469-1.433c-5.327,0-30.068,1.139-34.146,1.139a8.68,8.68,0,0,0-5.8,2.378c-13.105,3.424-41.836,10.735-48.52,17.011-10.006,9.4-8.7,38.653,12.985,41.518,6.511.86,15.6-3.424,24.376-9.034.494,6.617,1.76,11.728,3.749,13.529,13.485,12.212,41.451,12.063,57.39,4.1,3.862-1.93,6.634-6.719,8.462-12.679a65.156,65.156,0,0,0,9.242,9.413c11.061,8.13,34.364,5.848,33.237-15.992" transform="translate(-13.423 -293.464)" fill="#f5b015"/>
        <path id="Trazado_1533" data-name="Trazado 1533" d="M256.135,466.72c-.726-14.077-26.913-35.51-36.265-43.176-7.335-6.016-12.362-7.506-17.243-6.776a16.791,16.791,0,0,0-7.469-1.433c-5.327,0-30.068,1.139-34.146,1.139a8.68,8.68,0,0,0-5.8,2.378c-13.105,3.424-41.836,10.735-48.52,17.011-10.006,9.4-8.7,38.653,12.985,41.518,6.511.86,15.6-3.424,24.376-9.034.494,6.617,1.76,11.728,3.749,13.529,13.485,12.212,41.451,12.063,57.39,4.1,3.862-1.93,6.634-6.719,8.462-12.679a65.156,65.156,0,0,0,9.242,9.413C233.959,490.843,257.263,488.56,256.135,466.72Z" transform="translate(-13.423 -293.464)" fill="none" stroke="#2e3433" stroke-miterlimit="10" stroke-width="1"/>
        <path id="Trazado_1534" data-name="Trazado 1534" d="M188.356,457.811c.054-.08,5.411-8.067,1.7-16.662l-.819.353c3.514,8.149-1.57,15.73-1.622,15.806Z" transform="translate(-25.012 -296.905)" fill="#2e3433"/>
        <path id="Trazado_1535" data-name="Trazado 1535" d="M181.642,495.371c9.293,0,25.386-2.344,35.824-16.883l-.724-.521c-14.993,20.882-41.967,16.047-42.239,16l-.167.876a44.6,44.6,0,0,0,7.306.531" transform="translate(-23.241 -301.813)" fill="#2e3433"/>
        <path id="Trazado_1536" data-name="Trazado 1536" d="M135.119,434.631a60.806,60.806,0,0,0,13.433-1.823l-.227-.863c-.113.03-11.432,2.949-18.454,1.262l-.209.868a23.75,23.75,0,0,0,5.457.556" transform="translate(-17.285 -295.678)" fill="#2e3433"/>
        <path id="Trazado_1537" data-name="Trazado 1537" d="M253.643,458.222c3.994-4.245,28.206-13.568,35.052-25.821a18.044,18.044,0,0,1,.866-3.635c1.192-4.284,8.333-4.888,9.172-5.536,1.278-1.052,1.269-1.431-.1-1.734-4.226,1.761-4.89-1.154-.556-2.545,3.3-1.058,3.982.131,5.314,3.382.12.634.749.483.823-.03.189-1.294,1.1-3.049.94-3.438-1.284-3.069-3.388.418-5.432-1.635-.717-.461,2.29-1.892,3.2-2.377,1.91-1.024,5.378,2.291,5.452,2.681a15.047,15.047,0,0,1,.12,6c1.284-.612,4.171-1.9,4.6-2.5,1.571-2.237,2.678-5.587,3.284-5.9,3.963-2.02.207,7.671-1.2,9.459-.017.02-3.939,2.019-4.008,2.086,3.694.109,11.954-3.875,11.991.12,0,0-14.475,4.859-16.952,5.653-1.18.512-5.668,2.605-9.2,4.261a42.894,42.894,0,0,0-2.385,3.568c-.136.224-19.986,35.272-24.305,40.447-5.674,6.8-28.382-10.06-16.67-22.51" transform="translate(-33.372 -293.374)" fill="#fff"/>
        <path id="Trazado_1538" data-name="Trazado 1538" d="M253.643,458.222c3.994-4.245,28.206-13.568,35.052-25.821a18.044,18.044,0,0,1,.866-3.635c1.192-4.284,8.333-4.888,9.172-5.536,1.278-1.052,1.269-1.431-.1-1.734-4.226,1.761-4.89-1.154-.556-2.545,3.3-1.058,3.982.131,5.314,3.382.12.634.749.483.823-.03.189-1.294,1.1-3.049.94-3.438-1.284-3.069-3.388.418-5.432-1.635-.717-.461,2.29-1.892,3.2-2.377,1.91-1.024,5.378,2.291,5.452,2.681a15.047,15.047,0,0,1,.12,6c1.284-.612,4.171-1.9,4.6-2.5,1.571-2.237,2.678-5.587,3.284-5.9,3.963-2.02.207,7.671-1.2,9.459-.017.02-3.939,2.019-4.008,2.086,3.694.109,11.954-3.875,11.991.12,0,0-14.475,4.859-16.952,5.653-1.18.512-5.668,2.605-9.2,4.261a42.894,42.894,0,0,0-2.385,3.568c-.136.224-19.986,35.272-24.305,40.447C264.639,487.527,241.931,470.672,253.643,458.222Z" transform="translate(-33.372 -293.374)" fill="none" stroke="#2e3433" stroke-linecap="round" stroke-linejoin="round" stroke-width="1"/>
        <path id="Trazado_1539" data-name="Trazado 1539" d="M180.152,398.718v14.761c.811,1.2,5.208,6.414,16.309-.907v-19.98a147.4,147.4,0,0,1-16.309,6.126" transform="translate(-24.016 -290.432)" fill="#fff"/>
        <path id="Trazado_1540" data-name="Trazado 1540" d="M180.152,398.718v14.761c.811,1.2,5.208,6.414,16.309-.907v-19.98A147.4,147.4,0,0,1,180.152,398.718Z" transform="translate(-24.016 -290.432)" fill="none" stroke="#2e3433" stroke-linecap="round" stroke-linejoin="round" stroke-width="1"/>
        <path id="Trazado_1541" data-name="Trazado 1541" d="M192.6,395.665s-.379,10.178-12.447,13.366V403.62c1.046.112,5.019-3.23,12.447-7.955" transform="translate(-24.016 -290.842)" fill="#2e3433"/>
        <path id="Trazado_1542" data-name="Trazado 1542" d="M202.838,383.1a4.878,4.878,0,0,0-2.488-1.073c.352-5.6.184-10.46-3.294-13.517-1.8-1.573-10.52-4.489-12.486-5.278-4.5-1.805-7.1,5.233-9.734,11.694-2.96,7.249-6.548,20.354,2.077,23.744,4.891,1.923,16.455-1.153,20.218-4.824a7.58,7.58,0,0,0,1.355-2.219,4.9,4.9,0,0,0,4.353-8.527" transform="translate(-22.864 -286.48)" fill="#fff"/>
        <path id="Trazado_1543" data-name="Trazado 1543" d="M202.838,383.1a4.878,4.878,0,0,0-2.488-1.073c.352-5.6.184-10.46-3.294-13.517-1.8-1.573-10.52-4.489-12.486-5.278-4.5-1.805-7.1,5.233-9.734,11.694-2.96,7.249-6.548,20.354,2.077,23.744,4.891,1.923,16.455-1.153,20.218-4.824a7.58,7.58,0,0,0,1.355-2.219,4.9,4.9,0,0,0,4.353-8.527Z" transform="translate(-22.864 -286.48)" fill="none" stroke="#2e3433" stroke-linecap="round" stroke-linejoin="round" stroke-width="1"/>
        <path id="Trazado_1544" data-name="Trazado 1544" d="M214.85,380.147c-1.6-8.905-16.853-5.705-16.853-5.705,13.3-22.034,30.307-8.19,35.753-.648,7.118,9.86,10.807,31.077,5.6,34.707l-1.963-1.169-.708,3.214c-2.727,2.926-10.663,7.58-13.237,7.532,0,0-8.492-37.381-8.591-37.93" transform="translate(-26.395 -286.423)" fill="#2e3433"/>
        <path id="Trazado_1545" data-name="Trazado 1545" d="M178.937,387.448l.514-.679c-.855-.646-2.1-1.868-2.064-2.441,0-.042.008-.12.161-.208,3.278-1.875,4.355-6.625,4.4-6.827l.04-.179-.1-.151a5.953,5.953,0,0,0-4.556-2.277l-.049.852a5.252,5.252,0,0,1,3.788,1.759c-.231.879-1.34,4.593-3.943,6.082a1.081,1.081,0,0,0-.589.894c-.078,1.239,1.986,2.862,2.4,3.174" transform="translate(-23.534 -288.045)" fill="#2e3433"/>
        <path id="Trazado_1546" data-name="Trazado 1546" d="M187.374,378.514c.084-.066,2.1-1.572,5.945,1.005l.476-.708c-4.4-2.954-6.852-1.045-6.953-.963Z" transform="translate(-24.908 -288.375)" fill="#2e3433"/>
        <path id="Trazado_1547" data-name="Trazado 1547" d="M203.154,392.723a3.187,3.187,0,0,0,1.313.2l-.049-.851c-.012,0-1.271.04-1.387-.584a.336.336,0,0,1-.008-.133,1.648,1.648,0,0,1,.255-.107,1.572,1.572,0,0,0,1.184-1.344,2.7,2.7,0,0,0-.229-1.484c-.192-.485-.22-.56.417-.9a.591.591,0,0,1,.523-.036c.8.328,1.5,1.907,1.687,2.446l.8-.284c-.088-.249-.894-2.44-2.167-2.95l-.016-.006a1.443,1.443,0,0,0-1.234.079c-1.207.643-1.081,1.27-.809,1.963a1.886,1.886,0,0,1,.18,1.041c-.073.468-.3.55-.635.674a.983.983,0,0,0-.792,1.2,1.443,1.443,0,0,0,.962,1.083" transform="translate(-26.951 -289.631)" fill="#2e3433"/>
        <path id="Trazado_1548" data-name="Trazado 1548" d="M191.063,384.011a1.656,1.656,0,1,1-.92-2.154,1.657,1.657,0,0,1,.92,2.154" transform="translate(-25.045 -288.985)" fill="#2e3433"/>
        <path id="Trazado_1549" data-name="Trazado 1549" d="M179.685,379.566a1.656,1.656,0,1,1-.92-2.154,1.657,1.657,0,0,1,.92,2.154" transform="translate(-23.528 -288.392)" fill="#2e3433"/>
        <path id="Trazado_1550" data-name="Trazado 1550" d="M174.734,391.572a4.31,4.31,0,0,0,7.544,4.138,4.249,4.249,0,0,0,.545-1.379,45.94,45.94,0,0,1-8.089-2.759" transform="translate(-23.239 -290.296)" fill="#2e3433"/>
        <path id="Trazado_1551" data-name="Trazado 1551" d="M175.131,395.948c-.021.045-.039.091-.059.135a4.27,4.27,0,0,0,1.345,1.355,4.321,4.321,0,0,0,5.961-1.342c.424-.669-5.881-3.2-7.247-.148" transform="translate(-23.339 -290.683)" fill="#dbe0e6"/>
        <path id="Trazado_1552" data-name="Trazado 1552" d="M195.817,381.748l.726.6a4.894,4.894,0,0,1,8.6,4.659c5.048-6.9,10.114-16.113,7.031-21.428-5.15-8.873-10.931-13.375-18.8-16.534-14.547-5.835-17.121,11.113-11.19,13,7.581,2.41,19.011,8.228,16.624,14.178-.848,2.114-2.3,2.622-2.985,5.528" transform="translate(-23.891 -284.464)" fill="#2e3433"/>
        <path id="Trazado_1553" data-name="Trazado 1553" d="M202.1,395.651l-2.961,4.4c.231-.065,0,1.65.325,1.5,2.2-.976,4.287-3.063,7.314-7.014a4.9,4.9,0,0,1-4.678,1.11" transform="translate(-26.547 -290.692)" fill="#2e3433"/>
        <path id="Trazado_1554" data-name="Trazado 1554" d="M132.2,383.067c-.653.983-1.254,1.835-1.8,2.606A69.986,69.986,0,0,1,124.813,375s-7.2,2.355-6.063,12.541a33.628,33.628,0,0,1,.179,6.431s-.751,2.115-1.929,5.558c-4.052,11.828-13.163,39.38-14.353,51.221-2.292,22.813,26.515,13.916,27.126.93.578-12.248-3.5-32.477-2.978-43.526.065-1.388.736-5.592.995-9.709l.1-.01s4.01-2.142,5.86-4.623a7.143,7.143,0,0,0,1.664-3.039c1.468-5.145,2.322-7.2,4.6-9.635s-3.272-4.925-7.817,1.924" transform="translate(-13.667 -288.087)" fill="#fff"/>
        <path id="Trazado_1555" data-name="Trazado 1555" d="M132.2,383.067c-.653.983-1.254,1.835-1.8,2.606A69.986,69.986,0,0,1,124.813,375s-7.2,2.355-6.063,12.541a33.628,33.628,0,0,1,.179,6.431s-.751,2.115-1.929,5.558c-4.052,11.828-13.163,39.38-14.353,51.221-2.292,22.813,26.515,13.916,27.126.93.578-12.248-3.5-32.477-2.978-43.526.065-1.388.736-5.592.995-9.709l.1-.01s4.01-2.142,5.86-4.623a7.143,7.143,0,0,0,1.664-3.039c1.468-5.145,2.322-7.2,4.6-9.635S136.745,376.218,132.2,383.067Z" transform="translate(-13.667 -288.087)" fill="none" stroke="#2e3433" stroke-linecap="round" stroke-linejoin="round" stroke-width="1"/>
        <path id="Trazado_1556" data-name="Trazado 1556" d="M136.836,384.72a2.616,2.616,0,0,0-.225.935,2.132,2.132,0,0,0,.387,1.4,2.14,2.14,0,0,0,.765.6,1.439,1.439,0,0,0,.227.085c.076.027.153.05.229.072-.137-.086-.283-.146-.411-.237a2.5,2.5,0,0,1-.364-.287,2.292,2.292,0,0,1-.3-.341,2.241,2.241,0,0,1-.209-.4,2.613,2.613,0,0,1-.177-.9,4.248,4.248,0,0,1,.079-.937" transform="translate(-18.211 -289.382)" fill="#fff"/>
        <path id="Trazado_1557" data-name="Trazado 1557" d="M136.836,384.72a2.616,2.616,0,0,0-.225.935,2.132,2.132,0,0,0,.387,1.4,2.14,2.14,0,0,0,.765.6,1.439,1.439,0,0,0,.227.085c.076.027.153.05.229.072-.137-.086-.283-.146-.411-.237a2.5,2.5,0,0,1-.364-.287,2.292,2.292,0,0,1-.3-.341,2.241,2.241,0,0,1-.209-.4,2.613,2.613,0,0,1-.177-.9A4.248,4.248,0,0,1,136.836,384.72Z" transform="translate(-18.211 -289.382)" fill="none" stroke="#2e3433" stroke-linecap="round" stroke-linejoin="round" stroke-width="1"/>
        <path id="Trazado_1558" data-name="Trazado 1558" d="M112.055,392.615c-2.387,1.716-6.155,4.508-6.372,7.349s10.811,2.558,10.811,2.558l30.423-36.895-16.123-5s-16.354,30.268-18.74,31.986" transform="translate(-14.088 -286.171)" fill="#2e3433"/>
        <rect id="Rectángulo_337" data-name="Rectángulo 337" width="36.054" height="0.548" transform="translate(102.793 111.429) rotate(-51.385)" fill="#fff"/>
        <path id="Trazado_1559" data-name="Trazado 1559" d="M157.333,350.408l-39.4-47.96L88.594,347.37l59.355,17.4c2.235,1.46,6.148-.573,8.739-4.541s2.88-8.366.645-9.827" transform="translate(-11.811 -278.415)" fill="#f5b015"/>
        <path id="Trazado_1560" data-name="Trazado 1560" d="M157.333,350.408l-39.4-47.96L88.594,347.37l59.355,17.4c2.235,1.46,6.148-.573,8.739-4.541S159.568,351.868,157.333,350.408Z" transform="translate(-11.811 -278.415)" fill="none" stroke="#2e3433" stroke-miterlimit="10" stroke-width="1"/>
        <path id="Trazado_1561" data-name="Trazado 1561" d="M165.408,356.84l-5.045-6.141a23.581,23.581,0,0,1-11.193,18.5l6.855,2.01c2.235,1.46,6.148-.573,8.739-4.541s2.88-8.366.645-9.827" transform="translate(-19.886 -284.847)" fill="#2e3433"/>
        <path id="Trazado_1562" data-name="Trazado 1562" d="M117.049,300.039a12.5,12.5,0,0,0-4.749-1.845c-8.4-1.442-19.135,5-26.107,15.675-8.721,13.357-8.837,28.208-.26,33.813a12.5,12.5,0,0,0,4.748,1.846c8.4,1.442,19.135-5.005,26.107-15.677,8.724-13.358,8.838-28.21.261-33.811" transform="translate(-10.608 -277.821)" fill="#2e3433"/>
        <path id="Trazado_1563" data-name="Trazado 1563" d="M116.2,302.177c-7.5-4.9-20.015.986-27.955,13.143s-8.3,25.983-.8,30.881,20.015-.987,27.956-13.144,8.3-25.982.8-30.88" transform="translate(-10.937 -278.148)" fill="#dbe0e6"/>
        <path id="Trazado_1564" data-name="Trazado 1564" d="M111.6,325.293l-4.787,8.143,6.985,9.1a41.142,41.142,0,0,0,4.9-6.163,40.368,40.368,0,0,0,3.911-7.59l-10.525-3.444Z" transform="translate(-14.239 -281.46)" fill="#2e3433"/>
        <path id="Trazado_1565" data-name="Trazado 1565" d="M111.958,325.309c-1.259-.822-3.462.323-4.922,2.557s-1.622,4.712-.363,5.535,3.462-.323,4.922-2.558,1.622-4.711.363-5.534" transform="translate(-14.108 -281.427)" fill="#f5b015"/>
        <path id="Trazado_1566" data-name="Trazado 1566" d="M111.958,325.309c-1.259-.822-3.462.323-4.922,2.557s-1.622,4.712-.363,5.535,3.462-.323,4.922-2.558S113.216,326.132,111.958,325.309Z" transform="translate(-14.108 -281.427)" fill="none" stroke="#2e3433" stroke-miterlimit="10" stroke-width="1"/>
        <rect id="Rectángulo_338" data-name="Rectángulo 338" width="1.071" height="10.516" transform="matrix(0.733, -0.68, 0.68, 0.733, 71.326, 21.098)" fill="#101c3a"/>
        <rect id="Rectángulo_339" data-name="Rectángulo 339" width="1.071" height="20.089" transform="matrix(0.017, -1, 1, 0.017, 47.039, 54.919)" fill="#101c3a"/>
        <rect id="Rectángulo_340" data-name="Rectángulo 340" width="1.071" height="7.635" transform="translate(60.114 41.798) rotate(-70.861)" fill="#101c3a"/>
        <rect id="Rectángulo_341" data-name="Rectángulo 341" width="1.071" height="18.885" transform="translate(52.132 31.961) rotate(-61.03)" fill="#101c3a"/>
        <path id="Trazado_1567" data-name="Trazado 1567" d="M121.662,375.382c-5.064.775-2.37,5.937-2.37,5.937-4.327,1.06-2.683,5.013-2.683,5.013-1.574.809-1.909,2.029-1.638,2.989a3.715,3.715,0,0,0,5.479,1.34c2.63-1.933.647-4,.647-4,2.59.269,4.442-1.744,4.533-2.909.088-1.142-1.992-2.247-2.075-2.291a4.209,4.209,0,0,0,3.041-2.1c1.044-1.867-.957-3.592-1.056-3.677a3.773,3.773,0,0,0,4.743-1.961c1.151-1.5-.484-5.277-5.73-3.727s-2.892,5.39-2.892,5.39" transform="translate(-15.315 -287.37)" fill="#fff"/>
        <path id="Trazado_1568" data-name="Trazado 1568" d="M121.662,375.382c-5.064.775-2.37,5.937-2.37,5.937-4.327,1.06-2.683,5.013-2.683,5.013-1.574.809-1.909,2.029-1.638,2.989a3.715,3.715,0,0,0,5.479,1.34c2.63-1.933.647-4,.647-4,2.59.269,4.442-1.744,4.533-2.909.088-1.142-1.992-2.247-2.075-2.291a4.209,4.209,0,0,0,3.041-2.1c1.044-1.867-.957-3.592-1.056-3.677a3.773,3.773,0,0,0,4.743-1.961c1.151-1.5-.484-5.277-5.73-3.727S121.662,375.382,121.662,375.382Z" transform="translate(-15.315 -287.37)" fill="none" stroke="#2e3433" stroke-linecap="round" stroke-linejoin="round" stroke-width="1"/>
        <path id="Trazado_1569" data-name="Trazado 1569" d="M122.7,376.24a6.418,6.418,0,0,1,3.683.2" transform="translate(-16.358 -288.229)" fill="#fff"/>
        <path id="Trazado_1570" data-name="Trazado 1570" d="M122.7,376.24a6.418,6.418,0,0,1,3.683.2" transform="translate(-16.358 -288.229)" fill="none" stroke="#2e3433" stroke-linecap="round" stroke-linejoin="round" stroke-width="1"/>
        <path id="Trazado_1571" data-name="Trazado 1571" d="M119.969,383.087a9.287,9.287,0,0,1,4.263.14" transform="translate(-15.993 -289.14)" fill="#fff"/>
        <path id="Trazado_1572" data-name="Trazado 1572" d="M119.969,383.087a9.287,9.287,0,0,1,4.263.14" transform="translate(-15.993 -289.14)" fill="none" stroke="#2e3433" stroke-linecap="round" stroke-linejoin="round" stroke-width="1"/>
        <path id="Trazado_1573" data-name="Trazado 1573" d="M116.873,388.857a6.169,6.169,0,0,1,4.489.327" transform="translate(-15.58 -289.896)" fill="#fff"/>
        <path id="Trazado_1574" data-name="Trazado 1574" d="M116.873,388.857a6.169,6.169,0,0,1,4.489.327" transform="translate(-15.58 -289.896)" fill="none" stroke="#2e3433" stroke-linecap="round" stroke-linejoin="round" stroke-width="1"/>
        <path id="Trazado_1575" data-name="Trazado 1575" d="M228.808,479.288s-4.949-4.388-11.537-19.029a3.844,3.844,0,0,1-2.929,1.464" transform="translate(-28.574 -299.453)" fill="#f5b015"/>
        <path id="Trazado_1576" data-name="Trazado 1576" d="M228.808,479.288s-4.949-4.388-11.537-19.029a3.844,3.844,0,0,1-2.929,1.464" transform="translate(-28.574 -299.453)" fill="none" stroke="#2e3433" stroke-miterlimit="10" stroke-width="1"/>
      </g>
    </g>
    <g id="Grupo_426" data-name="Grupo 426">
      <g id="Grupo_425" data-name="Grupo 425" clip-path="url(#clip-path-7)">
        <rect id="Rectángulo_342" data-name="Rectángulo 342" width="301.167" height="2.106" transform="translate(60.387 462.33)" fill="#131313"/>
      </g>
    </g>
  </g>
</svg>
