<svg id="Grupo_672" data-name="Grupo 672" xmlns="http://www.w3.org/2000/svg" xmlns:xlink="http://www.w3.org/1999/xlink" width="323.811" height="339.444" viewBox="0 0 323.811 339.444">
  <defs>
    <clipPath id="clip-path">
      <rect id="Rectángulo_63" data-name="Rectángulo 63" width="323.811" height="339.444" fill="none"/>
    </clipPath>
    <clipPath id="clip-path-2">
      <path id="Trazado_370" data-name="Trazado 370" d="M101.125,114.528,44.719,172.85l56.406,160.02H301.333V114.528Z" transform="translate(-44.719 -114.528)" fill="none"/>
    </clipPath>
    <clipPath id="clip-path-3">
      <rect id="Rectángulo_73" data-name="Rectángulo 73" width="323.811" height="338.444" fill="none"/>
    </clipPath>
  </defs>
  <g id="Grupo_39" data-name="Grupo 39">
    <g id="Grupo_38" data-name="Grupo 38" clip-path="url(#clip-path)">
      <path id="Trazado_345" data-name="Trazado 345" d="M196.763,47.1C146.748,57.663,154.2,116.082,68.094,148.864-24.194,184,31.7,316.557,136.7,324.1c104.509,7.512,152.705-39.612,163.434-129.165C308.2,127.6,271.085,31.4,196.763,47.1" transform="translate(-2.563 -5.436)" fill="#fff"/>
    </g>
  </g>
  <g id="Grupo_41" data-name="Grupo 41" transform="translate(39.364 100.812)">
    <g id="Grupo_40" data-name="Grupo 40" clip-path="url(#clip-path-2)">
      <path id="Trazado_346" data-name="Trazado 346" d="M311.584,140.358V425.523a21.719,21.719,0,0,1-21.692,21.692H232.846v-.043H160.87a21.716,21.716,0,0,1-20.391-21.649V140.358a21.72,21.72,0,0,1,21.692-21.692H289.892a21.713,21.713,0,0,1,21.692,21.692" transform="translate(-56.187 -115.024)" fill="#dbe0e6"/>
      <path id="Trazado_347" data-name="Trazado 347" d="M311.584,140.358V425.523a21.719,21.719,0,0,1-21.692,21.692H232.846v-.043H160.87a21.716,21.716,0,0,1-20.391-21.649V140.358a21.72,21.72,0,0,1,21.692-21.692H289.892A21.713,21.713,0,0,1,311.584,140.358Z" transform="translate(-56.187 -115.024)" fill="none" stroke="#2e3433" stroke-miterlimit="10" stroke-width="1"/>
      <path id="Trazado_348" data-name="Trazado 348" d="M307.418,141.008V426.182a16.868,16.868,0,0,1-16.872,16.865H162.825a16.865,16.865,0,0,1-16.864-16.865V141.008a16.864,16.864,0,0,1,16.864-16.864H290.545a16.867,16.867,0,0,1,16.872,16.864" transform="translate(-56.843 -115.68)" fill="#fff"/>
      <path id="Trazado_349" data-name="Trazado 349" d="M307.418,141.008V426.182a16.868,16.868,0,0,1-16.872,16.865H162.825a16.865,16.865,0,0,1-16.864-16.865V141.008a16.864,16.864,0,0,1,16.864-16.864H290.545A16.867,16.867,0,0,1,307.418,141.008Z" transform="translate(-56.843 -115.68)" fill="none" stroke="#2e3433" stroke-miterlimit="10" stroke-width="1"/>
      <path id="Trazado_350" data-name="Trazado 350" d="M254.892,127.336H215.129a1.606,1.606,0,1,0,0,3.213h39.762a1.606,1.606,0,1,0,0-3.213" transform="translate(-64.934 -116.062)" fill="#101c3a"/>
      <rect id="Rectángulo_64" data-name="Rectángulo 64" width="7.535" height="0.954" transform="matrix(0.707, -0.708, 0.708, 0.707, 103.817, 28.778)" fill="#101c3a"/>
      <rect id="Rectángulo_65" data-name="Rectángulo 65" width="0.954" height="7.535" transform="translate(103.816 24.122) rotate(-45)" fill="#101c3a"/>
      <rect id="Rectángulo_66" data-name="Rectángulo 66" width="8.547" height="0.954" transform="translate(226.886 27.73)" fill="#361e4d"/>
      <path id="Trazado_351" data-name="Trazado 351" d="M274.018,405.244c-11.021-20.622-31.649-52.871-41.59-71.473-1.248-2.337-8.22-17.387-8.22-17.387a43.366,43.366,0,0,0,6.071-8.116,13.451,13.451,0,0,0,2.784-6.4c1.772-10.049,2.982-14.124,6.822-19.182s-7.177-8.7-14.445,5.193c-1.671,3.194-3.185,5.776-4.423,7.966a224.493,224.493,0,0,1-20.1-16.815s-19.415,16.366-7.605,31.94a64.074,64.074,0,0,1,6.575,10.355h0l3.718,11.092c4.919,23.325,15.457,77.244,25.077,97.8,18.529,39.6,57.016-3.108,45.334-24.973" transform="translate(-62.058 -134.125)" fill="#fff"/>
      <path id="Trazado_352" data-name="Trazado 352" d="M274.018,405.244c-11.021-20.622-31.649-52.871-41.59-71.473-1.248-2.337-8.22-17.387-8.22-17.387a43.366,43.366,0,0,0,6.071-8.116,13.451,13.451,0,0,0,2.784-6.4c1.772-10.049,2.982-14.124,6.822-19.182s-7.177-8.7-14.445,5.193c-1.671,3.194-3.185,5.776-4.423,7.966a224.493,224.493,0,0,1-20.1-16.815s-19.415,16.366-7.605,31.94a64.074,64.074,0,0,1,6.575,10.355h0l3.718,11.092c4.919,23.325,15.457,77.244,25.077,97.8C247.213,469.816,285.7,427.109,274.018,405.244Z" transform="translate(-62.058 -134.125)" fill="none" stroke="#2e3433" stroke-linecap="round" stroke-linejoin="round" stroke-width="1"/>
      <path id="Trazado_353" data-name="Trazado 353" d="M185.614,310.979c-4.25,3.791-10.942,9.934-10.784,15.45s21.346,2.735,21.346,2.735l51.132-77.246-32.074-6.361s-25.369,61.629-29.619,65.421" transform="translate(-60.3 -130.22)" fill="#2e3433"/>
      <rect id="Rectángulo_67" data-name="Rectángulo 67" width="69.845" height="1.06" transform="translate(135.623 189.385) rotate(-57.393)" fill="#fff"/>
      <path id="Trazado_354" data-name="Trazado 354" d="M265.128,222.043,179.5,137.635l-47.417,92.492,117.88,21.5c4.6,2.359,11.727-2.35,15.915-10.52s3.852-16.7-.751-19.062" transform="translate(-55.182 -117.295)" fill="#f5b015"/>
      <path id="Trazado_355" data-name="Trazado 355" d="M265.128,222.043,179.5,137.635l-47.417,92.492,117.88,21.5c4.6,2.359,11.727-2.35,15.915-10.52S269.731,224.4,265.128,222.043Z" transform="translate(-55.182 -117.295)" fill="none" stroke="#2e3433" stroke-miterlimit="10" stroke-width="1"/>
      <path id="Trazado_356" data-name="Trazado 356" d="M279.314,232.057,268.35,221.249c.3,8.28-1.475,24.827-17.814,37.906l13.614,2.483c4.6,2.359,11.727-2.35,15.915-10.52s3.852-16.7-.751-19.062" transform="translate(-69.367 -127.309)" fill="#2e3433"/>
      <path id="Trazado_357" data-name="Trazado 357" d="M177.3,133.228a24.217,24.217,0,0,0-9.522-2.592c-16.476-1.076-35.849,13.518-47.118,35.491-14.1,27.5-11.306,56.137,6.351,65.2a24.225,24.225,0,0,0,9.523,2.592c16.476,1.076,35.849-13.521,47.118-35.495,14.1-27.5,11.306-56.139-6.352-65.193" transform="translate(-52.739 -116.45)" fill="#d39416"/>
      <path id="Trazado_358" data-name="Trazado 358" d="M177.3,133.228a24.217,24.217,0,0,0-9.522-2.592c-16.476-1.076-35.849,13.518-47.118,35.491-14.1,27.5-11.306,56.137,6.351,65.2a24.225,24.225,0,0,0,9.523,2.592c16.476,1.076,35.849-13.521,47.118-35.495C197.754,170.916,194.961,142.281,177.3,133.228Z" transform="translate(-52.739 -116.45)" fill="none" stroke="#2e3433" stroke-miterlimit="10" stroke-width="1"/>
      <path id="Trazado_359" data-name="Trazado 359" d="M175.955,137.518c-15.441-7.916-38.361,5.958-51.192,30.989s-10.717,51.739,4.723,59.655,38.361-5.958,51.193-30.99,10.717-51.739-4.723-59.654" transform="translate(-53.299 -117.015)" fill="#96999e"/>
      <path id="Trazado_360" data-name="Trazado 360" d="M175.955,137.518c-15.441-7.916-38.361,5.958-51.192,30.989s-10.717,51.739,4.723,59.655,38.361-5.958,51.193-30.99S191.4,145.433,175.955,137.518Z" transform="translate(-53.299 -117.015)" fill="none" stroke="#2e3433" stroke-linecap="round" stroke-linejoin="round" stroke-width="1"/>
      <path id="Trazado_361" data-name="Trazado 361" d="M129.913,228.886c-.241-.113-.48-.228-.717-.349-15.659-8.028-17.872-35.087-4.938-60.32s36.217-39.23,51.859-31.2c15.659,8.028,17.872,35.087,4.938,60.32-12.74,24.851-35.5,38.8-51.142,31.553m45.068-91.328c-15.165-7.029-37.344,6.73-49.842,31.108-12.687,24.749-10.665,51.213,4.508,58.991,15.119,7.791,37.842-6.025,50.529-30.774s10.665-51.212-4.509-58.989c-.225-.116-.456-.229-.686-.335" transform="translate(-53.236 -116.95)" fill="#101c3a"/>
      <path id="Trazado_362" data-name="Trazado 362" d="M170.3,182.986l-7.571,16.659,15.3,16.114a79.674,79.674,0,0,0,8.2-12.867,78.01,78.01,0,0,0,6-15.415l-20.976-4.5Z" transform="translate(-58.851 -122.725)" fill="#2e3433"/>
      <path id="Trazado_363" data-name="Trazado 363" d="M170.974,182.934c-2.591-1.328-6.6,1.324-8.963,5.923s-2.17,9.407.423,10.736,6.6-1.324,8.963-5.924,2.169-9.406-.423-10.735" transform="translate(-58.568 -122.679)" fill="#fff"/>
      <path id="Trazado_364" data-name="Trazado 364" d="M170.974,182.934c-2.591-1.328-6.6,1.324-8.963,5.923s-2.17,9.407.423,10.736,6.6-1.324,8.963-5.924S173.565,184.264,170.974,182.934Z" transform="translate(-58.568 -122.679)" fill="none" stroke="#2e3433" stroke-miterlimit="10" stroke-width="1"/>
      <rect id="Rectángulo_68" data-name="Rectángulo 68" width="2.074" height="20.372" transform="translate(62.016 11.878) rotate(-38.986)" fill="#101c3a"/>
      <rect id="Rectángulo_69" data-name="Rectángulo 69" width="38.915" height="2.075" transform="translate(16.572 89.752) rotate(-5.061)" fill="#101c3a"/>
      <rect id="Rectángulo_70" data-name="Rectángulo 70" width="2.075" height="14.792" transform="translate(39.284 63.889) rotate(-76.854)" fill="#101c3a"/>
      <rect id="Rectángulo_71" data-name="Rectángulo 71" width="2.075" height="36.583" transform="matrix(0.39, -0.921, 0.921, 0.39, 21.912, 46.56)" fill="#101c3a"/>
      <path id="Trazado_365" data-name="Trazado 365" d="M193.624,280.546c-9.615,1.729-4.223,11.435-4.223,11.435-8.192,2.238-4.864,9.688-4.864,9.688-1.979.9-3.053,1.978-2.971,5.782.661,3.135,5.6,6.095,10.511,2.28s1.033-7.662,1.033-7.662c4.951.384,8.379-3.547,8.5-5.771.111-2.182-3.909-4.184-4.07-4.263a8.025,8.025,0,0,0,5.693-4.158c1.9-3.611-2.005-6.8-2.2-6.958a9.318,9.318,0,0,0,5.037-.139c1.73-.662,2.974-1.227,3.918-3.157,1.818-3.717-1.2-10.715-11.117-7.5s-5.244,10.419-5.244,10.419" transform="translate(-61.107 -133.064)" fill="#fff"/>
      <path id="Trazado_366" data-name="Trazado 366" d="M193.624,280.546c-9.615,1.729-4.223,11.435-4.223,11.435-8.192,2.238-4.864,9.688-4.864,9.688-1.979.9-3.053,1.978-2.971,5.782.661,3.135,5.6,6.095,10.511,2.28s1.033-7.662,1.033-7.662c4.951.384,8.379-3.547,8.5-5.771.111-2.182-3.909-4.184-4.07-4.263a8.025,8.025,0,0,0,5.693-4.158c1.9-3.611-2.005-6.8-2.2-6.958a9.318,9.318,0,0,0,5.037-.139c1.73-.662,2.974-1.227,3.918-3.157,1.818-3.717-1.2-10.715-11.117-7.5S193.624,280.546,193.624,280.546Z" transform="translate(-61.107 -133.064)" fill="none" stroke="#2e3433" stroke-linecap="round" stroke-linejoin="round" stroke-width="1"/>
      <path id="Trazado_367" data-name="Trazado 367" d="M237.014,301.841c1.771-10.049,2.982-14.124,6.821-19.182s-8.42-9.28-14.444,5.193c-2.611,6.274-3.76,9.689-6.9,14.515" transform="translate(-66.008 -134.096)" fill="#fff"/>
      <path id="Trazado_368" data-name="Trazado 368" d="M237.014,301.841c1.771-10.049,2.982-14.124,6.821-19.182s-8.42-9.28-14.444,5.193c-2.611,6.274-3.76,9.689-6.9,14.515" transform="translate(-66.008 -134.096)" fill="none" stroke="#2e3433" stroke-miterlimit="10" stroke-width="1"/>
      <path id="Trazado_369" data-name="Trazado 369" d="M233.8,295.469a5.869,5.869,0,0,1-3.478-6.267" transform="translate(-66.939 -135.446)" fill="none" stroke="#2e3433" stroke-linecap="round" stroke-linejoin="round" stroke-width="1"/>
    </g>
  </g>
  <g id="Grupo_43" data-name="Grupo 43">
    <g id="Grupo_42" data-name="Grupo 42" clip-path="url(#clip-path-3)">
      <path id="Trazado_371" data-name="Trazado 371" d="M238.233,8.361l-.159.015,1.309,12.962,10.367-7.452-.353-.57a12.346,12.346,0,0,0-11.164-4.955" transform="translate(-28.511 -0.994)" fill="#f5b015"/>
      <path id="Trazado_372" data-name="Trazado 372" d="M29.788,214.71l-15.539,4.773,0,.005.246.976a14.85,14.85,0,0,0,6.031,8.06Z" transform="translate(-1.706 -25.713)" fill="#f5b015"/>
      <path id="Trazado_373" data-name="Trazado 373" d="M201.725,9.589a3.489,3.489,0,1,1-3.49-3.489,3.49,3.49,0,0,1,3.49,3.489" transform="translate(-23.322 -0.731)" fill="#f5b015"/>
      <path id="Trazado_374" data-name="Trazado 374" d="M100.094,246.005a3.489,3.489,0,1,1-3.489-3.489,3.49,3.49,0,0,1,3.489,3.489" transform="translate(-11.151 -29.043)" fill="#f5b015"/>
      <path id="Trazado_375" data-name="Trazado 375" d="M208.053,80.219a3.489,3.489,0,1,1-3.489-3.489,3.49,3.49,0,0,1,3.489,3.489" transform="translate(-24.08 -9.189)" fill="#f5b015"/>
      <path id="Trazado_376" data-name="Trazado 376" d="M354.955,117.281a2.3,2.3,0,1,1-2.3-2.3,2.3,2.3,0,0,1,2.3,2.3" transform="translate(-41.958 -13.77)" fill="#f5b015"/>
      <path id="Trazado_377" data-name="Trazado 377" d="M165.042,51.468a35.692,35.692,0,1,1-16.995-47.53,35.692,35.692,0,0,1,16.995,47.53" transform="translate(-11.626 -0.06)" fill="#f5b015"/>
      <path id="Trazado_378" data-name="Trazado 378" d="M165.042,51.468a35.692,35.692,0,1,1-16.995-47.53A35.692,35.692,0,0,1,165.042,51.468Z" transform="translate(-11.626 -0.06)" fill="none" stroke="#2e3433" stroke-miterlimit="10" stroke-width="1"/>
      <path id="Trazado_379" data-name="Trazado 379" d="M151.812,27.434a10.846,10.846,0,0,0-12.947-.7,10.926,10.926,0,0,0-12.555-4.937,12.254,12.254,0,0,0-8,14.8c1.635,6.347,14.316,20.322,14.316,20.322s16.983-7.486,20.91-12.7a12.345,12.345,0,0,0-1.73-16.783" transform="translate(-14.122 -2.554)" fill="#fff"/>
      <path id="Trazado_380" data-name="Trazado 380" d="M66.487,299.372,29.495,281.609a1.382,1.382,0,0,1,.163-2.569l.027-.006L94.776,262.55l.029-.006a1.382,1.382,0,0,1,1.364,2.181L72.318,297.638c-1.559,2.163-3.892,2.753-5.831,1.734" transform="translate(-3.437 -31.437)" fill="#f5b015"/>
      <path id="Trazado_381" data-name="Trazado 381" d="M55.8,301.1,40.752,322.554A1.372,1.372,0,0,1,38.3,322.1l-8.269-32.655a1.372,1.372,0,0,1,1.924-1.574l23.313,11.2a1.372,1.372,0,0,1,.53,2.025" transform="translate(-3.591 -34.458)" fill="#f5b015"/>
      <path id="Trazado_382" data-name="Trazado 382" d="M108.044,310.672c-.019.185-.213.356-.521.481l-64.372,16.3c-.33.036-.582-.023-.687-.176-.121-.178-.066-.446.131-.79.059-.1.143-.216.234-.343L59.1,302.936a1.887,1.887,0,0,1,2.35-.614l5.767,2.766a6.481,6.481,0,0,0,8.068-2.043l3.925-5.409a1.884,1.884,0,0,1,2.358-.578l25.61,12.793c.141.068.269.13.37.19.336.208.513.417.491.632" transform="translate(-5.078 -35.551)" fill="#f5b015"/>
      <path id="Trazado_383" data-name="Trazado 383" d="M105.166,269.9l8.177,32.292a1.372,1.372,0,0,1-1.944,1.563L88.217,292.181a1.373,1.373,0,0,1-.5-2.034l15.006-20.71a1.373,1.373,0,0,1,2.442.467" transform="translate(-10.474 -32.199)" fill="#f5b015"/>
      <rect id="Rectángulo_72" data-name="Rectángulo 72" width="305.877" height="2.139" transform="translate(17.933 319.156)" fill="#131313"/>
      <path id="Trazado_384" data-name="Trazado 384" d="M309.519,103.923,268.3,94.859A6.176,6.176,0,0,1,263.6,87.5l9.064-41.214a6.177,6.177,0,0,1,7.36-4.706l41.214,9.064A6.176,6.176,0,0,1,325.942,58l-9.064,41.214a6.177,6.177,0,0,1-7.36,4.706" transform="translate(-31.55 -4.962)" fill="#f5b015"/>
      <path id="Trazado_385" data-name="Trazado 385" d="M309.519,103.923,268.3,94.859A6.176,6.176,0,0,1,263.6,87.5l9.064-41.214a6.177,6.177,0,0,1,7.36-4.706l41.214,9.064A6.176,6.176,0,0,1,325.942,58l-9.064,41.214A6.177,6.177,0,0,1,309.519,103.923Z" transform="translate(-31.55 -4.962)" fill="none" stroke="#2e3433" stroke-miterlimit="10" stroke-width="1"/>
      <path id="Trazado_386" data-name="Trazado 386" d="M307.96,68.885a9.517,9.517,0,0,1-11.117,7.647,9.624,9.624,0,0,1-7.06-11.572A9.515,9.515,0,0,1,300.9,57.313a9.624,9.624,0,0,1,7.062,11.573" transform="translate(-34.676 -6.84)" fill="#fff"/>
      <path id="Trazado_387" data-name="Trazado 387" d="M281.1,89.242c1.5-7.116,7.059-6.411,13.789-4.958s12.088,3.1,10.587,10.221Z" transform="translate(-33.664 -9.98)" fill="#fff"/>
      <path id="Trazado_388" data-name="Trazado 388" d="M74.971,76.933,7.7,91.721a9.559,9.559,0,0,0-6.954,11.6l9.993,44.575a9.689,9.689,0,0,0,11.264,7.619l47.028-10.536L95.39,156.314l-6.117-15.589a9.558,9.558,0,0,0,6.955-11.6L86.236,84.553a9.692,9.692,0,0,0-11.264-7.619" transform="translate(-0.06 -9.189)" fill="#f5b015"/>
      <path id="Trazado_389" data-name="Trazado 389" d="M74.971,76.933,7.7,91.721a9.559,9.559,0,0,0-6.954,11.6l9.993,44.575a9.689,9.689,0,0,0,11.264,7.619l47.028-10.536L95.39,156.314l-6.117-15.589a9.558,9.558,0,0,0,6.955-11.6L86.236,84.553A9.692,9.692,0,0,0,74.971,76.933Z" transform="translate(-0.06 -9.189)" fill="none" stroke="#2e3433" stroke-miterlimit="10" stroke-width="1"/>
      <path id="Trazado_390" data-name="Trazado 390" d="M32.3,124.533a5.763,5.763,0,1,0-4.414,6.851,5.761,5.761,0,0,0,4.414-6.851" transform="translate(-2.504 -14.369)" fill="#fff"/>
      <path id="Trazado_391" data-name="Trazado 391" d="M57.191,119.152A5.763,5.763,0,1,0,52.777,126a5.763,5.763,0,0,0,4.414-6.85" transform="translate(-5.484 -13.725)" fill="#fff"/>
      <path id="Trazado_392" data-name="Trazado 392" d="M82.079,113.772a5.763,5.763,0,1,0-4.414,6.85,5.762,5.762,0,0,0,4.414-6.85" transform="translate(-8.465 -13.081)" fill="#fff"/>
    </g>
  </g>
</svg>
