<svg id="Grupo_719" data-name="Grupo 719" xmlns="http://www.w3.org/2000/svg" xmlns:xlink="http://www.w3.org/1999/xlink" width="325.215" height="318.36" style="transform:scale(.85)" viewBox="0 0 325.215 318.36">
  <defs>
    <clipPath id="clip-path">
      <rect id="Rectángulo_386" data-name="Rectángulo 386" width="325.215" height="317.36" fill="none"/>
    </clipPath>
    <clipPath id="clip-path-2">
      <path id="Trazado_1925" data-name="Trazado 1925" d="M87.282,41.713,29.669,131.66,87.282,295.108H295.574V41.713Z" transform="translate(-29.669 -41.713)" fill="none"/>
    </clipPath>
    <clipPath id="clip-path-3">
      <rect id="Rectángulo_396" data-name="Rectángulo 396" width="15.202" height="11.664" fill="none"/>
    </clipPath>
    <clipPath id="clip-path-5">
      <rect id="Rectángulo_397" data-name="Rectángulo 397" width="15.202" height="11.665" fill="none"/>
    </clipPath>
    <clipPath id="clip-path-10">
      <rect id="Rectángulo_400" data-name="Rectángulo 400" width="325.215" height="318.36" fill="none"/>
    </clipPath>
    <clipPath id="clip-path-11">
      <rect id="Rectángulo_402" data-name="Rectángulo 402" width="133.213" height="172.03" fill="none"/>
    </clipPath>
    <clipPath id="clip-path-13">
      <path id="Trazado_2028" data-name="Trazado 2028" d="M145.865,137.226,147.384,305.5h192.55l-1.519-168.277Z" transform="translate(-145.865 -137.226)" fill="none"/>
    </clipPath>
    <clipPath id="clip-path-14">
      <rect id="Rectángulo_407" data-name="Rectángulo 407" width="325.215" height="315.36" fill="none"/>
    </clipPath>
  </defs>
  <g id="Grupo_467" data-name="Grupo 467">
    <g id="Grupo_466" data-name="Grupo 466" clip-path="url(#clip-path)">
      <path id="Trazado_1897" data-name="Trazado 1897" d="M302.038,141.473c-24.158-46.288-79.57-22.883-135.512-98.556C106.565-38.191-8.439,53.269,13.036,158.629c21.372,104.865,80.988,139.3,172.029,125.212,68.457-10.6,152.87-73.584,116.972-142.369" transform="translate(-1.049 -1.194)" fill="#fff"/>
    </g>
  </g>
  <g id="Grupo_469" data-name="Grupo 469" transform="translate(26.675 37.504)">
    <g id="Grupo_468" data-name="Grupo 468" clip-path="url(#clip-path-2)">
      <path id="Trazado_1898" data-name="Trazado 1898" d="M300.2,74.764v291.27a22.184,22.184,0,0,1-22.156,22.156H219.774v-.044H146.256a22.181,22.181,0,0,1-20.827-22.112V74.764a22.184,22.184,0,0,1,22.156-22.156H278.041A22.177,22.177,0,0,1,300.2,74.764" transform="translate(-39.332 -42.812)" fill="#dbe0e6"/>
      <path id="Trazado_1899" data-name="Trazado 1899" d="M300.2,74.764v291.27a22.184,22.184,0,0,1-22.156,22.156H219.774v-.044H146.256a22.181,22.181,0,0,1-20.827-22.112V74.764a22.184,22.184,0,0,1,22.156-22.156H278.041A22.177,22.177,0,0,1,300.2,74.764Z" transform="translate(-39.332 -42.812)" fill="none" stroke="#2e3433" stroke-miterlimit="10" stroke-width="1"/>
      <path id="Trazado_1900" data-name="Trazado 1900" d="M295.543,75.311V366.59a17.229,17.229,0,0,1-17.234,17.226H147.855A17.226,17.226,0,0,1,130.63,366.59V75.311a17.225,17.225,0,0,1,17.225-17.225H278.309a17.228,17.228,0,0,1,17.234,17.225" transform="translate(-39.857 -43.365)" fill="#fff"/>
      <path id="Rectángulo_387" data-name="Rectángulo 387" d="M19.158,0h126.6a19.159,19.159,0,0,1,19.159,19.159V306.571a19.158,19.158,0,0,1-19.158,19.158H19.158A19.158,19.158,0,0,1,0,306.571V19.158A19.158,19.158,0,0,1,19.158,0Z" transform="translate(90.772 14.721)" fill="none" stroke="#2e3433" stroke-miterlimit="10" stroke-width="1"/>
      <path id="Trazado_1901" data-name="Trazado 1901" d="M240.727,61.278H200.114a1.641,1.641,0,0,0,0,3.282h40.614a1.641,1.641,0,1,0,0-3.282" transform="translate(-46.704 -43.687)" fill="#2e3433"/>
      <rect id="Rectángulo_388" data-name="Rectángulo 388" width="7.697" height="0.975" transform="matrix(0.707, -0.708, 0.708, 0.707, 106.04, 35.469)" fill="#2e3433"/>
      <rect id="Rectángulo_389" data-name="Rectángulo 389" width="0.975" height="7.697" transform="translate(106.038 30.714) rotate(-45)" fill="#2e3433"/>
      <rect id="Rectángulo_390" data-name="Rectángulo 390" width="8.73" height="0.975" transform="translate(231.743 34.399)" fill="#361e4d"/>
      <path id="Trazado_1902" data-name="Trazado 1902" d="M222.816,119.866,222.85,122l-1.922.031-.033-2.055a6.1,6.1,0,0,1-4.52-1.716l1.685-1.742a4.337,4.337,0,0,0,3.044,1.093l-.055-3.444-.61-.067a4.542,4.542,0,0,1-2.645-1.1,3.534,3.534,0,0,1-1.013-2.63,4.032,4.032,0,0,1,3.893-4.136l-.028-1.714,1.922-.031.028,1.694a5.563,5.563,0,0,1,3.774,1.5l-1.648,1.683a3.8,3.8,0,0,0-2.356-.876l.054,3.311.725.1a4.615,4.615,0,0,1,2.606,1.024,3.752,3.752,0,0,1,1.093,2.838c.037,2.321-1.653,3.777-4.027,4.1m-1.858-11.335a1.687,1.687,0,0,0-1.628,1.7,1.308,1.308,0,0,0,.415.964,2.243,2.243,0,0,0,1.264.513Zm2.861,6.216a2.307,2.307,0,0,0-1.359-.473l.053,3.274c1.14-.152,1.759-.733,1.743-1.665a1.509,1.509,0,0,0-.437-1.136" transform="translate(-48.51 -48.048)" fill="#d8143b"/>
      <path id="Trazado_1903" data-name="Trazado 1903" d="M225.092,91.389a.873.873,0,0,1-.964.735h-4.459a.873.873,0,0,1-.965-.735V88.772a.874.874,0,0,1,.965-.736h4.459a.874.874,0,0,1,.964.736Z" transform="translate(-48.745 -46.388)" fill="#f5b015"/>
      <path id="Trazado_1904" data-name="Trazado 1904" d="M220.356,125.017a12.808,12.808,0,0,1,0-25.616,2.133,2.133,0,1,0,0-4.265,17.073,17.073,0,0,0,0,34.146,2.133,2.133,0,1,0,0-4.265" transform="translate(-47.189 -47.104)" fill="#d8143b"/>
      <rect id="Rectángulo_391" data-name="Rectángulo 391" width="2.74" height="2.639" transform="translate(188.492 63.738)" fill="#f5b015"/>
      <path id="Trazado_1905" data-name="Trazado 1905" d="M237.875,113.922a1.319,1.319,0,1,0,1.319-1.319,1.319,1.319,0,0,0-1.319,1.319" transform="translate(-50.68 -48.867)" fill="#f5b015"/>
      <path id="Trazado_1906" data-name="Trazado 1906" d="M240.81,113.922a1.319,1.319,0,1,0,1.319-1.319,1.319,1.319,0,0,0-1.319,1.319" transform="translate(-50.976 -48.867)" fill="#f5b015"/>
      <rect id="Rectángulo_392" data-name="Rectángulo 392" width="2.74" height="2.639" transform="matrix(0.799, -0.601, 0.601, 0.799, 185.597, 56.362)" fill="#f5b015"/>
      <path id="Trazado_1907" data-name="Trazado 1907" d="M235.8,106.2a1.319,1.319,0,1,0,.261-1.848,1.319,1.319,0,0,0-.261,1.848" transform="translate(-50.443 -48.008)" fill="#f5b015"/>
      <path id="Trazado_1908" data-name="Trazado 1908" d="M238.141,104.438a1.319,1.319,0,1,0,.261-1.848,1.319,1.319,0,0,0-.261,1.848" transform="translate(-50.68 -47.83)" fill="#f5b015"/>
      <rect id="Rectángulo_393" data-name="Rectángulo 393" width="2.739" height="2.639" transform="matrix(0.491, -0.871, 0.871, 0.491, 179.247, 51.442)" fill="#f5b015"/>
      <path id="Trazado_1909" data-name="Trazado 1909" d="M229.529,100.628a1.319,1.319,0,1,0-.5-1.8,1.32,1.32,0,0,0,.5,1.8" transform="translate(-49.77 -47.409)" fill="#f5b015"/>
      <path id="Trazado_1910" data-name="Trazado 1910" d="M230.968,98.071a1.319,1.319,0,1,0-.5-1.8,1.32,1.32,0,0,0,.5,1.8" transform="translate(-49.915 -47.151)" fill="#f5b015"/>
      <rect id="Rectángulo_394" data-name="Rectángulo 394" width="2.639" height="2.739" transform="translate(185.719 73.419) rotate(-58.611)" fill="#f5b015"/>
      <path id="Trazado_1911" data-name="Trazado 1911" d="M235.746,121.3a1.319,1.319,0,1,0,1.813-.439,1.319,1.319,0,0,0-1.813.439" transform="translate(-50.446 -49.68)" fill="#f5b015"/>
      <path id="Trazado_1912" data-name="Trazado 1912" d="M238.251,122.825a1.319,1.319,0,1,0,1.813-.439,1.319,1.319,0,0,0-1.813.439" transform="translate(-50.698 -49.835)" fill="#f5b015"/>
      <rect id="Rectángulo_395" data-name="Rectángulo 395" width="2.639" height="2.739" transform="matrix(0.86, -0.511, 0.511, 0.86, 179.326, 77.982)" fill="#f5b015"/>
      <path id="Trazado_1913" data-name="Trazado 1913" d="M229.577,126.436a1.32,1.32,0,1,0,1.808.46,1.319,1.319,0,0,0-1.808-.46" transform="translate(-49.777 -50.244)" fill="#f5b015"/>
      <path id="Trazado_1914" data-name="Trazado 1914" d="M231.076,128.958a1.32,1.32,0,1,0,1.808.46,1.319,1.319,0,0,0-1.808-.46" transform="translate(-49.929 -50.499)" fill="#f5b015"/>
      <path id="Trazado_1915" data-name="Trazado 1915" d="M259.851,160.847h-59.9a1.914,1.914,0,1,1,0-3.828h59.9a1.914,1.914,0,1,1,0,3.828" transform="translate(-46.66 -53.349)" fill="#2e3433"/>
      <path id="Trazado_1916" data-name="Trazado 1916" d="M243.007,198.279H199.955a1.914,1.914,0,1,1,0-3.828h43.052a1.914,1.914,0,0,1,0,3.828" transform="translate(-46.66 -57.126)" fill="#2e3433"/>
      <path id="Trazado_1917" data-name="Trazado 1917" d="M280.921,171.3H199.956a1.915,1.915,0,1,1,0-3.829h80.965a1.915,1.915,0,0,1,0,3.829" transform="translate(-46.66 -54.404)" fill="#2e3433"/>
      <path id="Trazado_1918" data-name="Trazado 1918" d="M243.007,303.019H199.955a1.914,1.914,0,1,1,0-3.828h43.052a1.914,1.914,0,1,1,0,3.828" transform="translate(-46.66 -67.696)" fill="#2e3433"/>
      <path id="Trazado_1919" data-name="Trazado 1919" d="M280.921,292.181H199.956a1.915,1.915,0,1,1,0-3.829h80.965a1.915,1.915,0,0,1,0,3.829" transform="translate(-46.66 -66.602)" fill="#2e3433"/>
      <path id="Trazado_1920" data-name="Trazado 1920" d="M259.851,209.239h-59.9a1.914,1.914,0,1,1,0-3.828h59.9a1.914,1.914,0,1,1,0,3.828" transform="translate(-46.66 -58.232)" fill="#2e3433"/>
      <path id="Trazado_1921" data-name="Trazado 1921" d="M280.921,219.692H199.956a1.915,1.915,0,1,1,0-3.829h80.965a1.915,1.915,0,0,1,0,3.829" transform="translate(-46.66 -59.287)" fill="#2e3433"/>
      <path id="Trazado_1922" data-name="Trazado 1922" d="M259.851,248.657h-59.9a1.914,1.914,0,1,1,0-3.828h59.9a1.914,1.914,0,1,1,0,3.828" transform="translate(-46.66 -62.21)" fill="#2e3433"/>
      <path id="Trazado_1923" data-name="Trazado 1923" d="M280.921,259.11H199.956a1.915,1.915,0,1,1,0-3.829h80.965a1.915,1.915,0,0,1,0,3.829" transform="translate(-46.66 -63.265)" fill="#2e3433"/>
      <path id="Trazado_1924" data-name="Trazado 1924" d="M182.949,163.757a11.982,11.982,0,1,1-11.982-11.982,11.982,11.982,0,0,1,11.982,11.982" transform="translate(-42.719 -52.82)" fill="#96999e"/>
      <circle id="Elipse_29" data-name="Elipse 29" cx="11.982" cy="11.982" r="11.982" transform="translate(114.217 120.437) rotate(-79.099)" fill="none" stroke="#2e3433" stroke-linecap="round" stroke-linejoin="round" stroke-width="1"/>
    </g>
  </g>
  <g id="Grupo_471" data-name="Grupo 471" transform="translate(147.483 143.605)">
    <g id="Grupo_470" data-name="Grupo 470" clip-path="url(#clip-path-3)">
      <path id="Trazado_1926" data-name="Trazado 1926" d="M171.927,168.461a1.353,1.353,0,0,1,0,1.878l-1.047,1.047a1.351,1.351,0,0,1-1.878,0l-4.585-4.625a1.35,1.35,0,0,1,0-1.877l1.047-1.047a1.35,1.35,0,0,1,1.877,0Z" transform="translate(-164.037 -160.1)" fill="#fff"/>
      <path id="Trazado_1927" data-name="Trazado 1927" d="M176.336,160.1a1.351,1.351,0,0,1,1.878,0l1.047,1.047a1.353,1.353,0,0,1,0,1.878l-7.944,7.907a1.353,1.353,0,0,1-1.878,0l-1.047-1.047a1.351,1.351,0,0,1,0-1.878Z" transform="translate(-164.438 -159.723)" fill="#fff"/>
    </g>
  </g>
  <g id="Grupo_473" data-name="Grupo 473" transform="translate(26.675 37.504)">
    <g id="Grupo_472" data-name="Grupo 472" clip-path="url(#clip-path-2)">
      <path id="Trazado_1928" data-name="Trazado 1928" d="M182.949,205.8a11.982,11.982,0,1,1-11.982-11.982A11.982,11.982,0,0,1,182.949,205.8" transform="translate(-42.719 -57.063)" fill="#96999e"/>
      <circle id="Elipse_30" data-name="Elipse 30" cx="11.982" cy="11.982" r="11.982" transform="translate(114.217 158.24) rotate(-79.099)" fill="none" stroke="#2e3433" stroke-linecap="round" stroke-linejoin="round" stroke-width="1"/>
    </g>
  </g>
  <g id="Grupo_475" data-name="Grupo 475" transform="translate(147.483 181.407)">
    <g id="Grupo_474" data-name="Grupo 474" clip-path="url(#clip-path-5)">
      <path id="Trazado_1930" data-name="Trazado 1930" d="M171.927,210.507a1.353,1.353,0,0,1,0,1.878l-1.047,1.047a1.351,1.351,0,0,1-1.878,0l-4.585-4.625a1.35,1.35,0,0,1,0-1.877l1.047-1.047a1.35,1.35,0,0,1,1.877,0Z" transform="translate(-164.037 -202.145)" fill="#fff"/>
      <path id="Trazado_1931" data-name="Trazado 1931" d="M176.336,202.148a1.353,1.353,0,0,1,1.878,0l1.047,1.047a1.353,1.353,0,0,1,0,1.878l-7.944,7.907a1.353,1.353,0,0,1-1.878,0l-1.047-1.047a1.351,1.351,0,0,1,0-1.878Z" transform="translate(-164.438 -201.768)" fill="#fff"/>
    </g>
  </g>
  <g id="Grupo_477" data-name="Grupo 477" transform="translate(26.675 37.504)">
    <g id="Grupo_476" data-name="Grupo 476" clip-path="url(#clip-path-2)">
      <path id="Trazado_1932" data-name="Trazado 1932" d="M182.949,250.853a11.982,11.982,0,1,1-11.982-11.982,11.982,11.982,0,0,1,11.982,11.982" transform="translate(-42.719 -61.609)" fill="#96999e"/>
      <circle id="Elipse_31" data-name="Elipse 31" cx="11.982" cy="11.982" r="11.982" transform="translate(113.834 198.153) rotate(-76.717)" fill="none" stroke="#2e3433" stroke-linecap="round" stroke-linejoin="round" stroke-width="1"/>
    </g>
  </g>
  <g id="Grupo_479" data-name="Grupo 479" transform="translate(147.483 221.911)">
    <g id="Grupo_478" data-name="Grupo 478" clip-path="url(#clip-path-3)">
      <path id="Trazado_1934" data-name="Trazado 1934" d="M171.927,255.556a1.353,1.353,0,0,1,0,1.878l-1.047,1.048a1.351,1.351,0,0,1-1.878,0l-4.585-4.625a1.35,1.35,0,0,1,0-1.877l1.047-1.047a1.35,1.35,0,0,1,1.877,0Z" transform="translate(-164.037 -247.195)" fill="#fff"/>
      <path id="Trazado_1935" data-name="Trazado 1935" d="M176.336,247.2a1.351,1.351,0,0,1,1.878,0l1.047,1.047a1.353,1.353,0,0,1,0,1.878l-7.944,7.907a1.353,1.353,0,0,1-1.878,0l-1.047-1.047a1.351,1.351,0,0,1,0-1.878Z" transform="translate(-164.438 -246.818)" fill="#fff"/>
    </g>
  </g>
  <g id="Grupo_481" data-name="Grupo 481" transform="translate(26.675 37.504)">
    <g id="Grupo_480" data-name="Grupo 480" clip-path="url(#clip-path-2)">
      <path id="Trazado_1936" data-name="Trazado 1936" d="M182.949,292.9a11.982,11.982,0,1,1-11.982-11.982A11.982,11.982,0,0,1,182.949,292.9" transform="translate(-42.719 -65.852)" fill="#96999e"/>
      <circle id="Elipse_32" data-name="Elipse 32" cx="11.982" cy="11.982" r="11.982" transform="translate(113.834 235.956) rotate(-76.717)" fill="none" stroke="#2e3433" stroke-linecap="round" stroke-linejoin="round" stroke-width="1"/>
    </g>
  </g>
  <g id="Grupo_483" data-name="Grupo 483" transform="translate(147.483 259.715)">
    <g id="Grupo_482" data-name="Grupo 482" clip-path="url(#clip-path-3)">
      <path id="Trazado_1938" data-name="Trazado 1938" d="M171.927,297.6a1.353,1.353,0,0,1,0,1.878l-1.047,1.047a1.351,1.351,0,0,1-1.878,0l-4.585-4.625a1.35,1.35,0,0,1,0-1.877l1.047-1.047a1.35,1.35,0,0,1,1.877,0Z" transform="translate(-164.037 -289.242)" fill="#fff"/>
      <path id="Trazado_1939" data-name="Trazado 1939" d="M176.336,289.243a1.353,1.353,0,0,1,1.878,0l1.047,1.047a1.353,1.353,0,0,1,0,1.878l-7.944,7.907a1.353,1.353,0,0,1-1.878,0l-1.047-1.047a1.351,1.351,0,0,1,0-1.878Z" transform="translate(-164.438 -288.865)" fill="#fff"/>
    </g>
  </g>
  <g id="Grupo_485" data-name="Grupo 485">
    <g id="Grupo_484" data-name="Grupo 484" clip-path="url(#clip-path-10)">
      <path id="Trazado_1940" data-name="Trazado 1940" d="M60.418,69.591a3.564,3.564,0,1,1-3.565-3.564,3.565,3.565,0,0,1,3.565,3.564" transform="translate(-5.378 -6.663)" fill="#f5b015"/>
      <path id="Trazado_1941" data-name="Trazado 1941" d="M32.544,271.47a3.564,3.564,0,1,1-3.565-3.564,3.565,3.565,0,0,1,3.565,3.564" transform="translate(-2.565 -27.035)" fill="#f5b015"/>
      <path id="Trazado_1942" data-name="Trazado 1942" d="M85.193,207.052a3.564,3.564,0,1,1-3.564-3.564,3.564,3.564,0,0,1,3.564,3.564" transform="translate(-7.878 -20.535)" fill="#f5b015"/>
      <path id="Trazado_1943" data-name="Trazado 1943" d="M146.835,15.752a3.564,3.564,0,1,1-3.564-3.564,3.565,3.565,0,0,1,3.564,3.564" transform="translate(-14.098 -1.23)" fill="#f5b015"/>
      <path id="Trazado_1944" data-name="Trazado 1944" d="M334.938,203.895a3.564,3.564,0,1,1-3.564-3.564,3.564,3.564,0,0,1,3.564,3.564" transform="translate(-33.081 -20.216)" fill="#f5b015"/>
      <path id="Trazado_1945" data-name="Trazado 1945" d="M100.22,74.8a2.348,2.348,0,1,1-2.348-2.348A2.348,2.348,0,0,1,100.22,74.8" transform="translate(-9.64 -7.311)" fill="#f5b015"/>
      <path id="Trazado_1946" data-name="Trazado 1946" d="M214.251,40.125a2.348,2.348,0,1,1-2.348-2.348,2.348,2.348,0,0,1,2.348,2.348" transform="translate(-21.147 -3.812)" fill="#f5b015"/>
    </g>
  </g>
  <g id="Grupo_487" data-name="Grupo 487" transform="translate(16.117 120.13)">
    <g id="Grupo_486" data-name="Grupo 486" clip-path="url(#clip-path-11)">
      <path id="Trazado_1947" data-name="Trazado 1947" d="M98.851,272.823c.094-4.475.3-7.929.628-10.529l0-.021a3.148,3.148,0,0,1,2.19-2.614c.933-.293,2.012-.6,3.1-.88,2.338-.6,4.712-1.109,5.772-1.275,5.579-.862,11.763,1.1,17.078,7.768,4.578,5.741,19.115,46.566,21.568,53.533,2.286,2.955,8.786,11.344,10.219,12.9,2.06,2.238-11.886,7.467-12.656,5.694-.547-1.109-4.074-4.532-6.669-10.629-3.535-4.8-20.607-20.289-31.473-30.089a29.535,29.535,0,0,1-9.787-22.161q.007-.84.023-1.7" transform="translate(-26.09 -146.096)" fill="#fff"/>
      <path id="Trazado_1948" data-name="Trazado 1948" d="M98.851,272.823c.094-4.475.3-7.929.628-10.529l0-.021a3.148,3.148,0,0,1,2.19-2.614c.933-.293,2.012-.6,3.1-.88,2.338-.6,4.712-1.109,5.772-1.275,5.579-.862,11.763,1.1,17.078,7.768,4.578,5.741,19.115,46.566,21.568,53.533,2.286,2.955,8.786,11.344,10.219,12.9,2.06,2.238-11.886,7.467-12.656,5.694-.547-1.109-4.074-4.532-6.669-10.629-3.535-4.8-20.607-20.289-31.473-30.089a29.535,29.535,0,0,1-9.787-22.161Q98.835,273.68,98.851,272.823Z" transform="translate(-26.09 -146.096)" fill="none" stroke="#2e3433" stroke-linecap="round" stroke-linejoin="round" stroke-width="1"/>
      <path id="Trazado_1949" data-name="Trazado 1949" d="M121.148,432.626c4.492-34.478,1.487-77.908,1.555-100.848.079-26.216-50.326-23.383-54.882-12.757-5.515,12.86-.934,65.447,2.12,92.307C73.8,445.292,75.614,471.5,75.614,471.5s17.636,5.794,47.882-.826c0,0,2.625-6.058,2.243-11.966-.36-5.563-5.736-17.285-4.591-26.077" transform="translate(-22.701 -151.547)" fill="#2e3433"/>
      <path id="Trazado_1950" data-name="Trazado 1950" d="M86.524,200.881c-5.369.793-11.376,3.7-13.062,16.787S81.588,261.206,89.592,279c0,0,29.864-.517,38.386-19.65,0,0-16.989-37.232-22.064-46.95s-13.469-12.4-19.391-11.522" transform="translate(-23.511 -140.386)" fill="#dbe0e6"/>
      <path id="Trazado_1951" data-name="Trazado 1951" d="M86.524,200.881c-5.369.793-11.376,3.7-13.062,16.787S81.588,261.206,89.592,279c0,0,29.864-.517,38.386-19.65,0,0-16.989-37.232-22.064-46.95S92.445,200.006,86.524,200.881Z" transform="translate(-23.511 -140.386)" fill="none" stroke="#2e3433" stroke-linecap="round" stroke-linejoin="round" stroke-width="1"/>
      <path id="Trazado_1952" data-name="Trazado 1952" d="M97.274,263.749a18.524,18.524,0,0,1-14.012-16.212l.8-.1a17.715,17.715,0,0,0,13.36,15.514Z" transform="translate(-24.519 -145.1)"/>
      <path id="Trazado_1953" data-name="Trazado 1953" d="M102.643,281.868a59.682,59.682,0,0,1-12.865,1.874l-.209,0-.121-.169c-.154-.213-15.379-21.5-15.454-42.972l.81,0c.071,20.2,13.736,40.268,15.178,42.328,1.567-.044,11.607-.487,20.667-4.752l.345.733a47.672,47.672,0,0,1-8.351,2.96" transform="translate(-23.584 -144.409)" fill="#2e3433"/>
      <path id="Trazado_1954" data-name="Trazado 1954" d="M22.629,328.419c-6.347,26.5-8.027,85.447,6.282,105.91,7.679,10.981,28.312,19.778,37.5,1.067,6.018-12.251,16.654-79.6,10.3-101.584s-45.982-39.224-54.083-5.393" transform="translate(-17.926 -151.349)" fill="#2e3433"/>
      <path id="Trazado_1955" data-name="Trazado 1955" d="M53.506,321.492l.743-.543c3.623,4.942,10.161,4.09,10.227,4.082l.129.911c-.29.04-7.152.931-11.1-4.45" transform="translate(-21.517 -152.518)" fill="#2e3433"/>
      <path id="Trazado_1956" data-name="Trazado 1956" d="M24.5,320.459c-1.885,3.318-3.522,9.282-4.925,16.763,20.167,0,50.125-10.74,56.234-14.121-9.052-15.04-46.2-11.63-51.309-2.642" transform="translate(-18.093 -151.692)" fill="#ebf1fd"/>
      <path id="Trazado_1957" data-name="Trazado 1957" d="M74.08,196.872c-6.125.5-26.266-.516-33.246,9.9S19.867,318.766,19.867,318.766s50.492,17.5,99.23-1.074c0,0-10.489-84.163-17.6-101.222S82.409,196.2,74.08,196.872" transform="translate(-18.122 -139.988)" fill="#dbe0e6"/>
      <path id="Trazado_1958" data-name="Trazado 1958" d="M74.08,196.872c-6.125.5-26.266-.516-33.246,9.9S19.867,318.766,19.867,318.766s50.492,17.5,99.23-1.074c0,0-10.489-84.163-17.6-101.222S82.409,196.2,74.08,196.872Z" transform="translate(-18.122 -139.988)" fill="none" stroke="#2e3433" stroke-linecap="round" stroke-linejoin="round" stroke-width="1"/>
      <rect id="Rectángulo_401" data-name="Rectángulo 401" width="87.149" height="8.103" transform="matrix(0.192, -0.981, 0.981, 0.192, 14.633, 179.468)" fill="#ebf1fd"/>
      <path id="Trazado_1959" data-name="Trazado 1959" d="M77.253,164.163a3.82,3.82,0,1,0,4.109,3.506,3.82,3.82,0,0,0-4.109-3.506" transform="translate(-23.558 -136.695)" fill="#2e3433"/>
      <path id="Trazado_1960" data-name="Trazado 1960" d="M77.432,143.244a6.642,6.642,0,1,0,8.068,4.811,6.642,6.642,0,0,0-8.068-4.811" transform="translate(-23.425 -134.564)" fill="#2e3433"/>
      <path id="Trazado_1961" data-name="Trazado 1961" d="M73.993,153.757a4.744,4.744,0,1,0,5.762,3.436,4.743,4.743,0,0,0-5.762-3.436" transform="translate(-23.222 -135.631)" fill="#2e3433"/>
      <path id="Trazado_1962" data-name="Trazado 1962" d="M93.355,135.822a10.345,10.345,0,1,0,11.128,9.5,10.345,10.345,0,0,0-11.128-9.5" transform="translate(-24.576 -133.833)" fill="#2e3433"/>
      <path id="Trazado_1963" data-name="Trazado 1963" d="M104.033,145.31a9.942,9.942,0,0,0-19.59-1.485,9.91,9.91,0,0,0,.963,7.032,8.713,8.713,0,0,0,.681,1.067,9.873,9.873,0,0,0,8.822,4.071,9.824,9.824,0,0,0,4.112-1.256,9.075,9.075,0,0,0,2.177-1.674c.178-.167.335-.345.492-.523.105-.125.2-.251.293-.377a5.828,5.828,0,0,0,.512-.732,3.612,3.612,0,0,0,.367-.638,9.438,9.438,0,0,0,1.119-3.464.293.293,0,0,0,.01-.136.325.325,0,0,0,.022-.147,9.569,9.569,0,0,0,.021-1.738m.816.356a2.707,2.707,0,0,0-.011-.418A10.744,10.744,0,0,0,83.753,143.3a10.64,10.64,0,0,0,.869,7.807,11.283,11.283,0,0,0,1.015,1.57,10.733,10.733,0,0,0,8.487,4.165q.423,0,.848-.031a10.648,10.648,0,0,0,5.358-1.936,11.094,11.094,0,0,0,1.224-1.005c.252-.251.493-.5.733-.774,0-.011.011-.021.022-.031.209-.251.408-.5.6-.764a9.378,9.378,0,0,0,.744-1.224,10.158,10.158,0,0,0,1.14-3.726,3.183,3.183,0,0,0,.052-.544,5.9,5.9,0,0,0,.011-1.141" transform="translate(-24.531 -133.788)" fill="#2e3433"/>
      <path id="Trazado_1964" data-name="Trazado 1964" d="M77.276,195.779c5.055,9.721,16.545,7.759,16.545,7.759l6.927-16.58-17.7-6.041Z" transform="translate(-23.915 -138.387)" fill="#fff"/>
      <path id="Trazado_1965" data-name="Trazado 1965" d="M77.276,195.779c5.055,9.721,16.545,7.759,16.545,7.759l6.927-16.58-17.7-6.041Z" transform="translate(-23.915 -138.387)" fill="none" stroke="#2e3433" stroke-linecap="round" stroke-linejoin="round" stroke-width="1"/>
      <path id="Trazado_1966" data-name="Trazado 1966" d="M97.709,197.238l2.259-5.368s-.481-.31-12.139-6.084c-.044-.028-1.732,9.721,9.88,11.452" transform="translate(-24.969 -138.878)" fill="#2e3433"/>
      <path id="Trazado_1967" data-name="Trazado 1967" d="M87.12,185.094c4.152,3.756,10.889,7.319,14.848,7.034,9.266-.667,9.173-14.234,8.506-22.055-.593-6.972-2.933-12.1-9.877-12.991-2.107-.264-6.7-.8-8.895.168-5.2,2.312-6.446,8.692-8.077,15.748-.516,2.25-1.884,6.156-.993,7.809" transform="translate(-24.426 -135.942)" fill="#fff"/>
      <path id="Trazado_1968" data-name="Trazado 1968" d="M87.12,185.094c4.152,3.756,10.889,7.319,14.848,7.034,9.266-.667,9.173-14.234,8.506-22.055-.593-6.972-2.933-12.1-9.877-12.991-2.107-.264-6.7-.8-8.895.168-5.2,2.312-6.446,8.692-8.077,15.748-.516,2.25-1.884,6.156-.993,7.809" transform="translate(-24.426 -135.942)" fill="none" stroke="#2e3433" stroke-linecap="round" stroke-linejoin="round" stroke-width="1"/>
      <path id="Trazado_1969" data-name="Trazado 1969" d="M93.164,151.182c-8.183,0-18.163,3.687-18.171,10.183-.007,6.458,6.631,20.167,6.631,20.167l4.639-10.715s1.923-.272,1.505-5.556c-.308-3.9,7.269-5.33,11.454-3.7,5.181,2.013,5.545-4.085,9.191,1.555,1.431-9.5-6.529-11.934-15.25-11.931" transform="translate(-23.685 -135.386)" fill="#2e3433"/>
      <path id="Trazado_1970" data-name="Trazado 1970" d="M107.382,148a4.836,4.836,0,1,0,5.2,4.439,4.836,4.836,0,0,0-5.2-4.439" transform="translate(-26.504 -135.063)" fill="#2e3433"/>
      <path id="Trazado_1971" data-name="Trazado 1971" d="M107.263,170.836l-.056.081-.012.1a9.349,9.349,0,0,0,2.09,6.933c.129.138.109.222.1.268-.138.573-1.673,1.359-2.717,1.733l.273.762c.488-.174,2.94-1.108,3.231-2.3a1.065,1.065,0,0,0-.291-1.011,8.582,8.582,0,0,1-1.89-6.179,3.68,3.68,0,0,1,3.841-1.208l.2-.786a4.5,4.5,0,0,0-4.766,1.614" transform="translate(-26.881 -137.191)" fill="#2e3433"/>
      <path id="Trazado_1972" data-name="Trazado 1972" d="M86.806,173.555a4.923,4.923,0,1,0-3.153,6.208" transform="translate(-23.908 -137.301)" fill="#fff"/>
      <path id="Trazado_1973" data-name="Trazado 1973" d="M86.806,173.555a4.923,4.923,0,1,0-3.153,6.208" transform="translate(-23.908 -137.301)" fill="none" stroke="#2e3433" stroke-linecap="round" stroke-linejoin="round" stroke-width="1"/>
      <path id="Trazado_1974" data-name="Trazado 1974" d="M79.431,172.836l.462.665c.619-.429,2.552-1.474,3.3-.654.437.482.354.559-.19,1.065a3.875,3.875,0,0,0-1.068,1.4,2,2,0,0,0,.211,1.971c.218.369.222.407.067.59a.42.42,0,0,1-.315.163,2.09,2.09,0,0,1-1.145-.571l-.557.589a2.862,2.862,0,0,0,1.671.793l.073,0a1.23,1.23,0,0,0,.889-.447,1.164,1.164,0,0,0,.014-1.528,1.2,1.2,0,0,1-.158-1.254,3.174,3.174,0,0,1,.87-1.115c.512-.477,1.212-1.128.236-2.2-1.371-1.512-4.238.449-4.359.533" transform="translate(-24.133 -137.46)" fill="#2e3433"/>
      <path id="Trazado_1975" data-name="Trazado 1975" d="M100.776,186.546l.238-.775c.037.011,3.753,2.031,7.342.542l.137.8c-3.644,1.885-7.556-.516-7.717-.566" transform="translate(-26.287 -138.876)" fill="#2e3433"/>
      <path id="Trazado_1976" data-name="Trazado 1976" d="M97.7,170.9l.427.689c3.871-2.4,5.159-.8,5.172-.779l.657-.473c-.067-.1-1.688-2.275-6.256.563" transform="translate(-25.976 -137.229)" fill="#2e3433"/>
      <path id="Trazado_1977" data-name="Trazado 1977" d="M85.041,164.857a13.525,13.525,0,0,0-2.821.878,13.007,13.007,0,0,0-2.513,1.438,12.837,12.837,0,0,1,5.453-1.106,15.18,15.18,0,0,1,2.715.279,13.375,13.375,0,0,1,2.517.737l.726-2.32a15.362,15.362,0,0,0-3.1-.236,16.732,16.732,0,0,0-2.981.33" transform="translate(-24.161 -136.732)" fill="#fff"/>
      <path id="Trazado_1978" data-name="Trazado 1978" d="M101.746,172.32a1.276,1.276,0,1,0,1.372,1.172,1.276,1.276,0,0,0-1.372-1.172" transform="translate(-26.266 -137.519)" fill="#2e3433"/>
      <path id="Trazado_1979" data-name="Trazado 1979" d="M111.123,171.579a1.276,1.276,0,1,0,1.372,1.172,1.277,1.277,0,0,0-1.372-1.172" transform="translate(-27.212 -137.444)" fill="#2e3433"/>
      <path id="Trazado_1980" data-name="Trazado 1980" d="M80.942,158.9a2.394,2.394,0,0,1-1.769,3.976l.009.811a3.2,3.2,0,0,0,2.368-5.323Z" transform="translate(-24.107 -136.11)" fill="#fff"/>
      <path id="Trazado_1981" data-name="Trazado 1981" d="M99.527,150.652a4.777,4.777,0,0,0-3.067,1.276l.552.593a3.966,3.966,0,0,1,6.665,2.748l.81-.031a4.777,4.777,0,0,0-4.96-4.585" transform="translate(-25.851 -135.332)" fill="#fff"/>
      <path id="Trazado_1982" data-name="Trazado 1982" d="M111.881,145.026a4.775,4.775,0,0,0-5.623,3.254l.774.236a3.966,3.966,0,0,1,7.147-.946l.686-.432a4.748,4.748,0,0,0-2.984-2.112" transform="translate(-26.84 -134.753)" fill="#fff"/>
      <path id="Trazado_1983" data-name="Trazado 1983" d="M141.446,200.739s3.515-3.945-.921-5.431a4.579,4.579,0,0,0-.629-.188,15.405,15.405,0,0,0-2.814-.346s-2.533-.649-4.239-.962-2.856-.063-4.98,1.936-7.86,5.672-8.425,8.487a19.6,19.6,0,0,0-.46,4.615v0c-5.955,6.987-15.751,20.617-23.494,27.917-5.616-6.427-14.018-15-14.018-15-15.047-13.752-37.924,7.649-27.85,20.968,9.039,11.952,24.465,21.031,34.1,24.278,3.039,1.8,11.16,1.927,15.24-2.949,7.709-9.214,21.257-35.5,26.683-46.289a22.113,22.113,0,0,0,5.985-.848c.356-.105.711-.219,1.046-.334,3.548-1.266,5.63-3.276,3.568-4.783a.163.163,0,0,0-.041-.041s4.794-1.56,1.5-5.243c0,0,4.1-3.8-.25-5.787" transform="translate(-21.277 -139.676)" fill="#fff"/>
      <path id="Trazado_1984" data-name="Trazado 1984" d="M141.446,200.739s3.515-3.945-.921-5.431a4.579,4.579,0,0,0-.629-.188,15.405,15.405,0,0,0-2.814-.346s-2.533-.649-4.239-.962-2.856-.063-4.98,1.936-7.86,5.672-8.425,8.487a19.6,19.6,0,0,0-.46,4.615v0c-5.955,6.987-15.751,20.617-23.494,27.917-5.616-6.427-14.018-15-14.018-15-15.047-13.752-37.924,7.649-27.85,20.968,9.039,11.952,24.465,21.031,34.1,24.278,3.039,1.8,11.16,1.927,15.24-2.949,7.709-9.214,21.257-35.5,26.683-46.289a22.113,22.113,0,0,0,5.985-.848c.356-.105.711-.219,1.046-.334,3.548-1.266,5.63-3.276,3.568-4.783a.163.163,0,0,0-.041-.041s4.794-1.56,1.5-5.243C141.7,206.526,145.8,202.728,141.446,200.739Z" transform="translate(-21.277 -139.676)" fill="none" stroke="#2e3433" stroke-linecap="round" stroke-linejoin="round" stroke-width="1"/>
      <path id="Trazado_1985" data-name="Trazado 1985" d="M150.864,201.482a13.127,13.127,0,0,0-3.185-.457,12.95,12.95,0,0,0-3.209.247,14.7,14.7,0,0,0,6.393.209" transform="translate(-30.696 -140.415)" fill="#2e3433"/>
      <path id="Trazado_1986" data-name="Trazado 1986" d="M150.893,207.948a30.869,30.869,0,0,0-4.285-.339c-1.428-.022-2.838-.016-4.29.084a10.832,10.832,0,0,0,2.122.463,19.891,19.891,0,0,0,2.152.157,18.733,18.733,0,0,0,4.3-.365" transform="translate(-30.479 -141.079)" fill="#2e3433"/>
      <path id="Trazado_1987" data-name="Trazado 1987" d="M149.586,213.843c-1.018.083-1.962.227-2.921.333-.477.064-.955.111-1.438.165s-.969.093-1.479.183a5.938,5.938,0,0,0,3,.352,7.205,7.205,0,0,0,1.481-.34,4.78,4.78,0,0,0,1.357-.692" transform="translate(-30.623 -141.709)" fill="#2e3433"/>
    </g>
  </g>
  <g id="Grupo_489" data-name="Grupo 489">
    <g id="Grupo_488" data-name="Grupo 488" clip-path="url(#clip-path-10)">
      <path id="Trazado_1988" data-name="Trazado 1988" d="M47.11,202.139c-4.486,3.055-12.727,14.618-8.534,27.131s10.63,19.691,25.593,32.215c0,0,26.649-13.492,25.971-34.426,0,0-15.033-16.273-23.838-22.8s-14.244-5.486-19.192-2.116" transform="translate(-3.776 -20.13)" fill="#dbe0e6"/>
      <path id="Trazado_1989" data-name="Trazado 1989" d="M47.11,202.139c-4.486,3.055-12.727,14.618-8.534,27.131s10.63,19.691,25.593,32.215c0,0,26.649-13.492,25.971-34.426,0,0-15.033-16.273-23.838-22.8S52.057,198.769,47.11,202.139Z" transform="translate(-3.776 -20.13)" fill="none" stroke="#2e3433" stroke-linecap="round" stroke-linejoin="round" stroke-width="1"/>
      <path id="Trazado_1990" data-name="Trazado 1990" d="M64.4,246.663a18.525,18.525,0,0,1-19.681-8.477l.682-.438a17.715,17.715,0,0,0,18.789,8.131Z" transform="translate(-4.512 -23.992)" fill="#101c3a"/>
    </g>
  </g>
  <g id="Grupo_491" data-name="Grupo 491" transform="translate(131.145 123.378)">
    <g id="Grupo_490" data-name="Grupo 490" clip-path="url(#clip-path-13)">
      <path id="Trazado_1991" data-name="Trazado 1991" d="M305.016,208.735c-7.719-8.764-13.24-10.669-19.449-9.99a3.764,3.764,0,0,0-.687-.094c-2.116-.067-10.595-.23-20.43-.416-.52-.017-1.039-.024-1.568-.041-1.531-.024-3.1-.056-4.677-.089-1.814-.04-3.637-.071-5.442-.1-1.167-.02-2.315-.049-3.455-.071-.9-.02-1.8-.032-2.679-.053-6.462-.128-12.2-.246-15.753-.324-5.449-.824-10.88.824-18.8,7.786-9.7,8.526-38.514,32.449-38.772,47.5-.336,19.53,19.462,28.866,32.681,26.083-3.051,33.185-6.2,68.848-6.2,68.848s33.38,7.075,49.067,9.245c.11.013.21.028.311.043.21.028.413.057.614.076s.384.058.576.079c2.59.321,5.03.53,7.246.592,6.31.174,14.832-1.4,23.233-3.523,8.067-2.044,16.015-4.583,21.789-6.55,5.315-1.811,3.317-3.624,3.317-3.624.555-4.568.414-37.472.076-60.571,12.663,1.82,29.489-5.411,31.413-22.751,1.661-14.961-23.876-42.36-32.408-52.051" transform="translate(-148.633 -143.294)" fill="#f5b015"/>
      <path id="Trazado_1992" data-name="Trazado 1992" d="M305.016,208.735c-7.719-8.764-13.24-10.669-19.449-9.99a3.764,3.764,0,0,0-.687-.094c-2.116-.067-10.595-.23-20.43-.416-.52-.017-1.039-.024-1.568-.041-1.531-.024-3.1-.056-4.677-.089-1.814-.04-3.637-.071-5.442-.1-1.167-.02-2.315-.049-3.455-.071-.9-.02-1.8-.032-2.679-.053-6.462-.128-12.2-.246-15.753-.324-5.449-.824-10.88.824-18.8,7.786-9.7,8.526-38.514,32.449-38.772,47.5-.336,19.53,19.462,28.866,32.681,26.083-3.051,33.185-6.2,68.848-6.2,68.848s33.38,7.075,49.067,9.245c.11.013.21.028.311.043.21.028.413.057.614.076s.384.058.576.079c2.59.321,5.03.53,7.246.592,6.31.174,14.832-1.4,23.233-3.523,8.067-2.044,16.015-4.583,21.789-6.55,5.315-1.811,3.317-3.624,3.317-3.624.555-4.568.414-37.472.076-60.571,12.663,1.82,29.489-5.411,31.413-22.751C339.085,245.825,313.548,218.426,305.016,208.735Z" transform="translate(-148.633 -143.294)" fill="none" stroke="#2e3433" stroke-miterlimit="10" stroke-width="1"/>
      <path id="Trazado_1993" data-name="Trazado 1993" d="M321.387,254.917c10.406-4.839,21.833-2.324,25.524,5.613s-.5,19.069-10.9,23.907-23.088,1.552-26.778-6.387,1.752-18.294,12.157-23.133" transform="translate(-162.234 -148.854)" fill="#2e3433"/>
      <path id="Trazado_1994" data-name="Trazado 1994" d="M321.387,254.917c10.406-4.839,21.833-2.324,25.524,5.613s-.5,19.069-10.9,23.907-23.088,1.552-26.778-6.387S310.982,259.756,321.387,254.917Z" transform="translate(-162.234 -148.854)" fill="none" stroke="#2e3433" stroke-linecap="round" stroke-linejoin="round" stroke-width="1"/>
      <path id="Trazado_1995" data-name="Trazado 1995" d="M273.5,182.023l-.074,2.339-.024.812-.511,15.6c-2.476,2.508-9,8.2-9,8.2s-7.743-7.122-8.828-8.591l.2-6.259.213-6.606.009-.176c1.76-.431,3.413-.861,4.951-1.279,8.209-2.225,13.061-4.041,13.061-4.041" transform="translate(-156.885 -141.747)" fill="#fff"/>
      <path id="Trazado_1996" data-name="Trazado 1996" d="M273.5,182.023l-.074,2.339-.024.812-.511,15.6c-2.476,2.508-9,8.2-9,8.2s-7.743-7.122-8.828-8.591l.2-6.259.213-6.606.009-.176c1.76-.431,3.413-.861,4.951-1.279C268.643,183.838,273.5,182.023,273.5,182.023Z" transform="translate(-156.885 -141.747)" fill="none" stroke="#2e3433" stroke-linecap="round" stroke-linejoin="round" stroke-width="1"/>
      <path id="Trazado_1997" data-name="Trazado 1997" d="M269.131,186.517l-10,1.653-3.82,1.414-.165,3.8a9.292,9.292,0,0,0,3.436-.067c8.228-1.515,7.347-3.347,9.351-5.549Z" transform="translate(-156.893 -142.2)" fill="#2e3433"/>
      <rect id="Rectángulo_404" data-name="Rectángulo 404" width="0.91" height="31.229" transform="translate(144.574 76.846) rotate(-16.233)" fill="#2e3433"/>
      <rect id="Rectángulo_405" data-name="Rectángulo 405" width="39.214" height="0.822" transform="translate(58.623 129.665) rotate(-84.096)" fill="#2e3433"/>
      <path id="Trazado_1998" data-name="Trazado 1998" d="M272.263,183c1.419-1.185,3.14-5.341,3.491-7.587,1.082-7.044,2.267-13.333-1.64-17.342a29.247,29.247,0,0,0-8.7-5.229c-6.673-1.719-10.048,3.948-13.133,10.1-3.461,6.906-8.495,19.273-.268,23.262,3.679,1.785,9.753,1.7,14.922-.417" transform="translate(-156.127 -138.77)" fill="#fff"/>
      <path id="Trazado_1999" data-name="Trazado 1999" d="M272.263,183c1.419-1.185,3.14-5.341,3.491-7.587,1.082-7.044,2.267-13.333-1.64-17.342a29.247,29.247,0,0,0-8.7-5.229c-6.673-1.719-10.048,3.948-13.133,10.1-3.461,6.906-8.495,19.273-.268,23.262,3.679,1.785,9.753,1.7,14.922-.417" transform="translate(-156.127 -138.77)" fill="none" stroke="#2e3433" stroke-linecap="round" stroke-linejoin="round" stroke-width="1"/>
      <path id="Trazado_2000" data-name="Trazado 2000" d="M257.731,154.871c4.931-5.145,2.817,1.437,8.287,1.334,5.936-.112,11.253,4.108,9.635,8.166-3.118,7.813.625,4.637.261,6.378-1.162,5.555-1.638,10.4-1.638,10.4s11.591-4.277,13.529-14.663c1.38-7.394-5.679-12.729-11.152-18.637-6.469-6.981-18.6-4.917-18.92,7.017" transform="translate(-157.154 -137.895)" fill="#2e3433"/>
      <path id="Trazado_2001" data-name="Trazado 2001" d="M255.128,174.5c-.549-.486-2.33-2.166-2.154-3.4a1.182,1.182,0,0,1,.706-.914,8.264,8.264,0,0,0,3.9-4.844,3.472,3.472,0,0,0-2.955-2.381l.14-1.041a4.5,4.5,0,0,1,3.874,3.312l.027.124-.031.123a9.334,9.334,0,0,1-4.509,5.655c-.106.051-.111.088-.116.113-.064.458.885,1.644,1.81,2.463Z" transform="translate(-156.673 -139.718)" fill="#2e3433"/>
      <path id="Trazado_2002" data-name="Trazado 2002" d="M275.621,181.12a4.846,4.846,0,1,0,2.123-7.325" transform="translate(-158.959 -140.881)" fill="#fff"/>
      <path id="Trazado_2003" data-name="Trazado 2003" d="M275.621,181.12a4.846,4.846,0,1,0,2.123-7.325" transform="translate(-158.959 -140.881)" fill="none" stroke="#2e3433" stroke-linecap="round" stroke-linejoin="round" stroke-width="1"/>
      <path id="Trazado_2004" data-name="Trazado 2004" d="M278.945,182.058c-.048-.016-.094-.035-.14-.056a1.338,1.338,0,0,1-.717-.807,1.265,1.265,0,0,1,.585-1.542,1.058,1.058,0,0,0,.553-.989,2.988,2.988,0,0,0-.375-1.282c-.3-.632-.75-1.587.645-2.268,1.875-.912,3.745,1.809,3.951,2.121l-.876.58c-.4-.594-1.723-2.2-2.615-1.757-.464.227-.464.227-.157.876a3.9,3.9,0,0,1,.477,1.725,2.069,2.069,0,0,1-.96,1.825c-.286.221-.286.221-.234.374a.287.287,0,0,0,.161.19,1.852,1.852,0,0,0,1.154-.108l.389.977a3.027,3.027,0,0,1-1.842.141" transform="translate(-159.2 -141.031)" fill="#2e3433"/>
      <path id="Trazado_2005" data-name="Trazado 2005" d="M251.437,180.6c-.105-.036-.17-.059-.188-.067l.366-.984a17.832,17.832,0,0,0,7.125.95l.117,1.045a18.575,18.575,0,0,1-7.42-.944" transform="translate(-156.5 -141.497)" fill="#2e3433"/>
      <path id="Trazado_2006" data-name="Trazado 2006" d="M266.565,169.365c-2.58-3.5-4.262-2.573-4.278-2.563l-.562-.888c.1-.064,2.473-1.527,5.684,2.828Z" transform="translate(-157.557 -140.092)" fill="#2e3433"/>
      <path id="Trazado_2007" data-name="Trazado 2007" d="M264.141,170.964a1.256,1.256,0,1,1-.57-1.682,1.257,1.257,0,0,1,.57,1.682" transform="translate(-157.56 -140.448)" fill="#2e3433"/>
      <path id="Trazado_2008" data-name="Trazado 2008" d="M255.84,166.866a1.256,1.256,0,1,1-.57-1.681,1.254,1.254,0,0,1,.57,1.681" transform="translate(-156.723 -140.034)" fill="#2e3433"/>
      <path id="Trazado_2009" data-name="Trazado 2009" d="M205.306,250.262c-9.706-6.124-21.361-5.085-26.031,2.317s-1.936,18.977,7.769,25.1,22.7,4.478,27.374-2.926.592-18.368-9.112-24.492" transform="translate(-149.012 -148.23)" fill="#101c3a"/>
      <path id="Trazado_2010" data-name="Trazado 2010" d="M202.29,245.13a26.127,26.127,0,0,0-8.22-3.412c-8.335-9.411-18.219-20.861-20.985-27.728-3.577-6.71-5.992-10.1-8.047-12.32-1.377-1.486-8.53-5.546-11.411-5.971a.433.433,0,0,0-.1-.044c-3.974-1.2-4.514,2.321-4.058,4.424a12.433,12.433,0,0,1-1.668,4.911c-1.449,2.3.046,4.684-.129,7.159s2.944,4.459,6.4,5.417a47.967,47.967,0,0,1,7.4,2.2,7.555,7.555,0,0,1,2.909,3.72c2.018,12.745,9.166,38.421,16.386,47.492,4.664,5.862,12.462,6,18.455,2.91l.051-.018c2.927-1.01,8.259-5.428,9.637-7.613,4.673-7.4,3.083-15-6.621-21.128" transform="translate(-145.996 -143.098)" fill="#fff"/>
      <path id="Trazado_2011" data-name="Trazado 2011" d="M202.29,245.13a26.127,26.127,0,0,0-8.22-3.412c-8.335-9.411-18.219-20.861-20.985-27.728-3.577-6.71-5.992-10.1-8.047-12.32-1.377-1.486-8.53-5.546-11.411-5.971a.433.433,0,0,0-.1-.044c-3.974-1.2-4.514,2.321-4.058,4.424a12.433,12.433,0,0,1-1.668,4.911c-1.449,2.3.046,4.684-.129,7.159s2.944,4.459,6.4,5.417a47.967,47.967,0,0,1,7.4,2.2,7.555,7.555,0,0,1,2.909,3.72c2.018,12.745,9.166,38.421,16.386,47.492,4.664,5.862,12.462,6,18.455,2.91l.051-.018c2.927-1.01,8.259-5.428,9.637-7.613C213.583,258.856,211.993,251.254,202.29,245.13Z" transform="translate(-145.996 -143.098)" fill="none" stroke="#2e3433" stroke-linecap="round" stroke-linejoin="round" stroke-width="1"/>
      <path id="Trazado_2012" data-name="Trazado 2012" d="M206.026,255.183c-1.624-3.773-6.937-7.931-6.99-7.972l.5-.65c.226.174,5.535,4.33,7.242,8.3Z" transform="translate(-151.231 -148.259)" fill="#2e3433"/>
      <path id="Trazado_2013" data-name="Trazado 2013" d="M153.322,217.325s7.648-.985,2.7-3.618c-.519-.276-5.157-2.152-5.157-2.152s6.271,2.066,7.7.307-.654-4.21-6.493-5.236a33.414,33.414,0,0,0,6.65.639c2.644-.155,1.626-4.646-5.3-5.247Z" transform="translate(-146.369 -143.764)" fill="#fff"/>
      <path id="Trazado_2014" data-name="Trazado 2014" d="M157.631,216.139a1.228,1.228,0,0,0,.361-.642c.129-.707-.47-1.4-1.831-2.125-.162-.087-.7-.316-1.362-.6,1.633.2,3.281.15,4-.738a2.031,2.031,0,0,0,.37-2.08,4.958,4.958,0,0,0-2.741-2.433,17.887,17.887,0,0,0,2.285.04,1.594,1.594,0,0,0,1.658-1.574c.021-1.447-1.849-3.907-6.953-4.347a.338.338,0,0,0-.058.673c4.4.381,6.354,2.374,6.336,3.666-.007.54-.381.871-1.021.908a30.985,30.985,0,0,1-6.117-.55c-.149-.031-.3-.058-.456-.085l-.124.664c.032.007.212.042.5.1,3.862.761,5.662,2.127,6.057,3.182a1.37,1.37,0,0,1-.263,1.417c-1.039,1.268-5.644.139-7.327-.415l-.232.634c1.286.52,4.711,1.917,5.125,2.136,1.432.762,1.515,1.239,1.484,1.408-.137.744-2.457,1.37-4.064,1.577a.337.337,0,1,0,.086.669c.611-.078,3.283-.474,4.281-1.483" transform="translate(-146.355 -143.727)" fill="#2e3433"/>
      <path id="Trazado_2015" data-name="Trazado 2015" d="M164.363,201.618l-3.3-4.863a5.608,5.608,0,0,0-4.332-2.449,2.78,2.78,0,0,0-2.637,1.535L151.517,201a1.5,1.5,0,0,0,.823,2.073,2.6,2.6,0,0,0,2.985-.894l1.182-1.6Z" transform="translate(-146.419 -142.986)" fill="#fff"/>
      <path id="Trazado_2016" data-name="Trazado 2016" d="M164.571,201.421l-3.3-4.863a5.928,5.928,0,0,0-4.558-2.576,3.073,3.073,0,0,0-2.915,1.695l-2.574,5.16a1.789,1.789,0,0,0,.984,2.479,2.908,2.908,0,0,0,3.321-.994l1.181-1.6-.47-.347-1.181,1.6a2.319,2.319,0,0,1-2.65.792,1.2,1.2,0,0,1-.662-1.668l2.574-5.161a2.485,2.485,0,0,1,2.36-1.372,5.345,5.345,0,0,1,4.106,2.321l3.3,4.863Z" transform="translate(-146.387 -142.953)" fill="#2e3433"/>
      <path id="Trazado_2017" data-name="Trazado 2017" d="M260.336,225.256l-6.188,52.763,5.929,7.862,7.783-6.211-2.029-53.853Z" transform="translate(-156.792 -146.109)" fill="#fff"/>
      <path id="Trazado_2018" data-name="Trazado 2018" d="M260.336,225.256l-6.188,52.763,5.929,7.862,7.783-6.211-2.029-53.853Z" transform="translate(-156.792 -146.109)" fill="none" stroke="#2e3433" stroke-linecap="round" stroke-linejoin="round" stroke-width="1"/>
      <path id="Trazado_2019" data-name="Trazado 2019" d="M264.351,211.792l-6.021,7.355,2.507,5.13,5.5.55,3.434-4.538Z" transform="translate(-157.214 -144.751)" fill="#fff"/>
      <path id="Trazado_2020" data-name="Trazado 2020" d="M264.351,211.792l-6.021,7.355,2.507,5.13,5.5.55,3.434-4.538Z" transform="translate(-157.214 -144.751)" fill="none" stroke="#2e3433" stroke-linecap="round" stroke-linejoin="round" stroke-width="1"/>
      <path id="Trazado_2021" data-name="Trazado 2021" d="M329.24,250.266a24.5,24.5,0,0,0-14.825,2.073c-.843.393-1.616.806-2.356,1.231-12.142-4.336-27.425-9.905-33.43-14.822-6.364-4.161-5.828-5.76-8.318-7.475-1.669-1.15-11.5-4.5-14.409-4.287a.436.436,0,0,0-.106-.021c-4.14-.306-11.968,1.314-15.417,1.577-1.518.115-2.37,1.756.513,2.647a36.221,36.221,0,0,0,11.911.978,12.479,12.479,0,0,1-.555,5.157c-.913,2.562,1.068,4.56,1.439,7.015s3.845,3.707,7.426,3.888,8.287-5.24,12.02-.154l.005-.008c7.189,9.765,28.453,32.265,39.64,36.951,7.435,3.115,14.87-1.317,18.388-7.631,5.224-6.712,1.84-17.758-1.927-27.118" transform="translate(-155.262 -146.278)" fill="#fff"/>
      <path id="Trazado_2022" data-name="Trazado 2022" d="M329.24,250.266a24.5,24.5,0,0,0-14.825,2.073c-.843.393-1.616.806-2.356,1.231-12.142-4.336-27.425-9.905-33.43-14.822-6.364-4.161-5.828-5.76-8.318-7.475-1.669-1.15-11.5-4.5-14.409-4.287a.436.436,0,0,0-.106-.021c-4.14-.306-11.968,1.314-15.417,1.577-1.518.115-2.37,1.756.513,2.647a36.221,36.221,0,0,0,11.911.978,12.479,12.479,0,0,1-.555,5.157c-.913,2.562,1.068,4.56,1.439,7.015s3.845,3.707,7.426,3.888,8.287-5.24,12.02-.154l.005-.008c7.189,9.765,28.453,32.265,39.64,36.951,7.435,3.115,14.87-1.317,18.388-7.631C336.39,270.673,333.007,259.627,329.24,250.266Z" transform="translate(-155.262 -146.278)" fill="none" stroke="#2e3433" stroke-linecap="round" stroke-linejoin="round" stroke-width="1"/>
      <path id="Trazado_2023" data-name="Trazado 2023" d="M338.022,263.377c-.053-.043-5.254-4.341-9.287-5.117l.156-.807c4.241.815,9.438,5.11,9.656,5.293Z" transform="translate(-164.319 -149.359)" fill="#2e3433"/>
      <path id="Trazado_2024" data-name="Trazado 2024" d="M246.078,197.92s-2.278,7.088,1.266,10.758l9.677,9.068" transform="translate(-155.905 -143.351)" fill="#f5b015"/>
      <path id="Trazado_2025" data-name="Trazado 2025" d="M246.078,197.92s-2.278,7.088,1.266,10.758l9.677,9.068" transform="translate(-155.905 -143.351)" fill="none" stroke="#2e3433" stroke-miterlimit="10" stroke-width="1"/>
      <path id="Trazado_2026" data-name="Trazado 2026" d="M271.05,218.933s10.15-8.312,11.289-12.11a31.665,31.665,0,0,0,1.012-8.48" transform="translate(-158.498 -143.394)" fill="#f5b015"/>
      <path id="Trazado_2027" data-name="Trazado 2027" d="M271.05,218.933s10.15-8.312,11.289-12.11a31.665,31.665,0,0,0,1.012-8.48" transform="translate(-158.498 -143.394)" fill="none" stroke="#2e3433" stroke-miterlimit="10" stroke-width="1"/>
    </g>
  </g>
  <g id="Grupo_493" data-name="Grupo 493">
    <g id="Grupo_492" data-name="Grupo 492" clip-path="url(#clip-path-14)">
      <rect id="Rectángulo_406" data-name="Rectángulo 406" width="312.425" height="2.185" transform="translate(4.786 290.898)" fill="#131313"/>
      <path id="Trazado_2029" data-name="Trazado 2029" d="M54.6,125.984l-8.168-9.531-12.587-.214,9.532-8.168.213-12.587,8.169,9.532,12.586.214-10.071,7.907Z" transform="translate(-3.416 -9.636)" fill="#f5b015"/>
      <path id="Trazado_2030" data-name="Trazado 2030" d="M234.658,25.067l-6.989-5.655-8.895,1.481,5.655-6.99-1.481-8.894,6.99,5.655,8.894-1.481-6.069,6.876Z" transform="translate(-22.077 -0.505)" fill="#f5b015"/>
      <path id="Trazado_2031" data-name="Trazado 2031" d="M169.281,11.93l-.045-4.922-3.722-3.241,4.922-.045L173.677,0l.044,4.922,3.722,3.242-5.018-.17Z" transform="translate(-16.703 0)" fill="#f5b015"/>
      <path id="Trazado_2032" data-name="Trazado 2032" d="M266.255,33.331l-.021-2.325-1.759-1.532,2.324-.021,1.533-1.76.021,2.326,1.758,1.532-2.371-.081Z" transform="translate(-26.689 -2.795)" fill="#f5b015"/>
      <path id="Trazado_2033" data-name="Trazado 2033" d="M334.944,175.776l1.2-6.2-3.854-5.03,6.2,1.2,5.03-3.853-1.2,6.2,3.854,5.031-6.27-1.5Z" transform="translate(-33.533 -16.337)" fill="#f5b015"/>
      <path id="Trazado_2034" data-name="Trazado 2034" d="M94.536,33.367l3.582-.958,1.664-3.326.958,3.582,3.326,1.664-3.582.959L98.82,38.613,98,34.921Z" transform="translate(-9.54 -2.935)" fill="#f5b015"/>
      <path id="Trazado_2035" data-name="Trazado 2035" d="M109.886,104.248l-.828-2.381-2.337-.963,2.381-.828.963-2.336.828,2.38,2.337.963-2.463.74Z" transform="translate(-10.77 -9.863)" fill="#f5b015"/>
    </g>
  </g>
</svg>
