<svg xmlns="http://www.w3.org/2000/svg" xmlns:xlink="http://www.w3.org/1999/xlink" width="345.503" height="301.886" viewBox="0 0 345.503 301.886">
  <defs>
    <clipPath id="clip-path">
      <rect id="Rect치ngulo_439" data-name="Rect치ngulo 439" width="345.503" height="301.886" fill="none"/>
    </clipPath>
  </defs>
  <g id="Grupo_720" data-name="Grupo 720" transform="translate(-79.289 -4.97)">
    <g id="Grupo_556" data-name="Grupo 556" transform="translate(79.289 4.97)" clip-path="url(#clip-path)">
      <path id="Trazado_2218" data-name="Trazado 2218" d="M382.656,186.287c-18.5-49.96-77.6-33.4-124.489-117.191C207.908-20.716,79.734,57.069,87.917,166.476c8.144,108.9,64.058,151.424,158.023,148.87,70.657-1.919,164.2-54.817,136.715-129.059" transform="translate(-74.678 -27.418)" fill="#fff"/>
      <path id="Trazado_2219" data-name="Trazado 2219" d="M305.71,83.143c11.357,21.955,53.664,51.533,93.392,32.723s-126.92-97.54-93.392-32.723" transform="translate(-108.147 -31.829)" fill="#fff"/>
      <path id="Trazado_2220" data-name="Trazado 2220" d="M149.751,128.313a3.343,3.343,0,1,1-3.344-3.343,3.344,3.344,0,0,1,3.344,3.343" transform="translate(-83.375 -42.32)" fill="#f5b015"/>
      <path id="Trazado_2221" data-name="Trazado 2221" d="M121.877,330.192a3.343,3.343,0,1,1-3.344-3.343,3.344,3.344,0,0,1,3.344,3.343" transform="translate(-79.009 -73.94)" fill="#f5b015"/>
      <path id="Trazado_2222" data-name="Trazado 2222" d="M188.48,168.84a3.343,3.343,0,1,1-3.343-3.343,3.343,3.343,0,0,1,3.343,3.343" transform="translate(-89.441 -48.668)" fill="#f5b015"/>
      <path id="Trazado_2223" data-name="Trazado 2223" d="M323.628,51.429a3.343,3.343,0,1,1-3.343-3.343,3.343,3.343,0,0,1,3.343,3.343" transform="translate(-110.609 -30.277)" fill="#f5b015"/>
      <path id="Trazado_2224" data-name="Trazado 2224" d="M424.271,262.617a3.343,3.343,0,1,1-3.343-3.343,3.343,3.343,0,0,1,3.343,3.343" transform="translate(-126.373 -63.356)" fill="#f5b015"/>
      <path id="Trazado_2225" data-name="Trazado 2225" d="M189.7,133.593a2.2,2.2,0,1,1-2.2-2.2,2.2,2.2,0,0,1,2.2,2.2" transform="translate(-89.99 -43.325)" fill="#f5b015"/>
      <path id="Trazado_2226" data-name="Trazado 2226" d="M154.452,96.088l-6.556-5.3-8.343,1.389,5.3-6.556-1.389-8.343,6.556,5.3,8.343-1.389-5.693,6.45Z" transform="translate(-82.825 -34.849)" fill="#f5b015"/>
      <path id="Trazado_2227" data-name="Trazado 2227" d="M278.99,50.424l-.042-4.617-3.492-3.04,4.617-.042,3.041-3.492.041,4.617,3.492,3.041-4.707-.159Z" transform="translate(-104.111 -28.891)" fill="#f5b015"/>
      <path id="Trazado_2228" data-name="Trazado 2228" d="M424.554,233.858l1.128-5.819-3.615-4.719,5.819,1.128,4.719-3.615-1.128,5.818,3.615,4.719-5.882-1.405Z" transform="translate(-127.075 -57.335)" fill="#f5b015"/>
      <path id="Trazado_2229" data-name="Trazado 2229" d="M184.311,92.044l3.36-.9,1.56-3.12.9,3.36,3.12,1.561-3.36.9-1.561,3.119-.77-3.464Z" transform="translate(-89.835 -36.533)" fill="#f5b015"/>
      <path id="Trazado_2230" data-name="Trazado 2230" d="M453.746,86.388a46.592,46.592,0,0,0,.5-7.372c.013-1.277-.038-2.581-.141-3.858A50.426,50.426,0,0,0,450.77,61.1c-.167-.447-.358-.882-.55-1.3-.434-1.009-.894-1.967-1.379-2.926a46.863,46.863,0,0,0-4.408-7.09,47.661,47.661,0,0,0-5.737-6.426c-1.022-.933-2.006-1.866-3.116-2.747a45.851,45.851,0,0,0-9.8-6,51.637,51.637,0,0,0-4.983-2.057l-.651-.217c-1.074-.345-2.16-.677-3.284-.958h-.014c-.74-.192-1.494-.358-2.248-.5a48.516,48.516,0,0,0-26.83,2.044,49.436,49.436,0,0,0-30.125,31.122l-2.5,7.678,5.212,5.481-7.934,2.849-3.833,11.755,8.151,4.063h6.809l9.033-27.622a33.947,33.947,0,0,1,20.275-20.684,46.124,46.124,0,0,1,4.536-1.392,33.647,33.647,0,0,1,14.923.076,26.71,26.71,0,0,1,3.014.818c.907.294,1.789.627,2.645.984,1.009.433,1.979.92,2.952,1.443a21.678,21.678,0,0,1,2.823,1.726,34.369,34.369,0,0,1,3.3,2.453,33.958,33.958,0,0,1,5.724,6.515,30.6,30.6,0,0,1,3.908,7.474,34.159,34.159,0,0,1,1.138,3.922,4.687,4.687,0,0,1,.2.78,33.94,33.94,0,0,1-.957,17.631L425.755,124.64,369.9,106.382l8.177,13.543s-38.226-13.2-39.184-14.054c-.652-.588-.409-5.8-.193-9.032a12.107,12.107,0,0,0-11.421,8.343L301.1,185.3c-.14.422-.268.894-.371,1.328-.051.294-.1.6-.127.894a4.41,4.41,0,0,1-.064.447c-.025.294-.038.6-.038.907a8.722,8.722,0,0,0,.051,1.3c.025.141.013.294.039.447.038.282.1.576.153.843A7.538,7.538,0,0,0,301,192.5c.038.153.1.308.153.486.038.1.077.23.115.358.064.154.115.282.18.409.089.243.191.46.293.676.127.193.218.4.332.6a.287.287,0,0,0,.089.14c.127.231.268.46.4.665.2.28.422.574.652.869.089.115.2.243.307.37.331.358.7.716,1.06,1.047a12.124,12.124,0,0,0,3.667,2.249c.191.077.383.141.588.2l101.76,33.255a12.11,12.11,0,0,0,15.279-7.755l26.192-80.118a12.139,12.139,0,0,0-7.755-15.268l-3.756-1.214,11.32-34.648a46.693,46.693,0,0,0,1.877-8.446" transform="translate(-108.033 -27.423)" fill="#2e3433"/>
      <path id="Trazado_2231" data-name="Trazado 2231" d="M452.441,75.857c.026-1.009-.051-2.057-.115-3.078a49.149,49.149,0,0,0-2.108-10.529c-.358-1.2-.767-2.362-1.226-3.538-.575-1.419-1.24-2.862-1.93-4.216a48.55,48.55,0,0,0-10.143-13.518c-1.023-.933-2.007-1.878-3.118-2.76a45.532,45.532,0,0,0-9.046-5.635c-.256-.127-.5-.242-.767-.358q-1.36-.652-2.759-1.226h-.013c-.945-.384-1.865-.728-2.849-1.047a45.2,45.2,0,0,0-5.532-1.469,48.657,48.657,0,0,0-26.842,2.056,49.379,49.379,0,0,0-30.127,31.123l-5.812,17.784-3.654,11.2,14.7,4.843,9.684-29.64a33.947,33.947,0,0,1,20.288-20.672,40.715,40.715,0,0,1,4.549-1.392,33.889,33.889,0,0,1,17.924.894,31.733,31.733,0,0,1,3.131,1.188,26.128,26.128,0,0,1,2.453,1.24,20.286,20.286,0,0,1,2.823,1.725c.154.089.282.179.41.256a33.161,33.161,0,0,1,2.888,2.2,33.858,33.858,0,0,1,5.723,6.5,31.1,31.1,0,0,1,4.843,10.552,16.073,16.073,0,0,1,.408,1.623,33.98,33.98,0,0,1-.932,17.644l-22.691,69.413-64.7-21.145,8.445-25.832-15.612-2.058-12.367,37.83,94.223,30.8L450.09,92.453a41.7,41.7,0,0,0,1.381-5.57c.216-.971.357-1.915.5-2.874a47.644,47.644,0,0,0,.473-8.151" transform="translate(-112.4 -27.05)" fill="#dbe0e6"/>
      <path id="Trazado_2232" data-name="Trazado 2232" d="M452.441,75.857c.026-1.009-.051-2.057-.115-3.078a49.149,49.149,0,0,0-2.108-10.529c-.358-1.2-.767-2.362-1.226-3.538-.575-1.419-1.24-2.862-1.93-4.216a48.55,48.55,0,0,0-10.143-13.518c-1.023-.933-2.007-1.878-3.118-2.76a45.532,45.532,0,0,0-9.046-5.635c-.256-.127-.5-.242-.767-.358q-1.36-.652-2.759-1.226h-.013c-.945-.384-1.865-.728-2.849-1.047a45.2,45.2,0,0,0-5.532-1.469,48.657,48.657,0,0,0-26.842,2.056,49.379,49.379,0,0,0-30.127,31.123l-5.812,17.784-3.654,11.2,14.7,4.843,9.684-29.64a33.947,33.947,0,0,1,20.288-20.672,40.715,40.715,0,0,1,4.549-1.392,33.889,33.889,0,0,1,17.924.894,31.733,31.733,0,0,1,3.131,1.188,26.128,26.128,0,0,1,2.453,1.24,20.286,20.286,0,0,1,2.823,1.725c.154.089.282.179.41.256a33.161,33.161,0,0,1,2.888,2.2,33.858,33.858,0,0,1,5.723,6.5,31.1,31.1,0,0,1,4.843,10.552,16.073,16.073,0,0,1,.408,1.623,33.98,33.98,0,0,1-.932,17.644l-22.691,69.413-64.7-21.145,8.445-25.832-15.612-2.058-12.367,37.83,94.223,30.8L450.09,92.453a41.7,41.7,0,0,0,1.381-5.57c.216-.971.357-1.915.5-2.874A47.644,47.644,0,0,0,452.441,75.857Z" transform="translate(-112.4 -27.05)" fill="none" stroke="#2e3433" stroke-miterlimit="10" stroke-width="1"/>
      <path id="Trazado_2233" data-name="Trazado 2233" d="M444.747,156.022l-4.741,14.487-21.823,62.872a7.833,7.833,0,0,1-9.856,4.87l-94.433-31.177c-.267,0-.511,0-.767-.013h-7.065a18.585,18.585,0,0,1-5.864-.934,13.189,13.189,0,0,1-1.611-.638c-.165-.076-.332-.153-.5-.242a10.71,10.71,0,0,1-1.073-.588c-.244-.141-.486-.294-.716-.447-.039-.038-.1-.064-.154-.116-.191-.14-.4-.294-.587-.447a5.9,5.9,0,0,1-.6-.486c-.126-.115-.256-.229-.37-.344-.089-.09-.191-.18-.28-.282a4.434,4.434,0,0,1-.346-.383c-.18-.2-.358-.4-.524-.614v-.012c-.051-.268-.1-.563-.141-.856-.024-.141-.024-.282-.051-.435a11.762,11.762,0,0,1-.052-1.316c0-.307.026-.588.052-.895a2.964,2.964,0,0,1,.051-.447c.038-.293.09-.6.141-.894a10.422,10.422,0,0,1,.358-1.342l8.112-24.836,18.065-55.256a12.114,12.114,0,0,1,15.28-7.755L437,140.754a12.1,12.1,0,0,1,7.743,15.268" transform="translate(-106.889 -39.489)" fill="#dbe0e6"/>
      <path id="Trazado_2234" data-name="Trazado 2234" d="M444.747,156.022l-4.741,14.487-21.823,62.872a7.833,7.833,0,0,1-9.856,4.87l-94.433-31.177c-.267,0-.511,0-.767-.013h-7.065a18.585,18.585,0,0,1-5.864-.934,13.189,13.189,0,0,1-1.611-.638c-.165-.076-.332-.153-.5-.242a10.71,10.71,0,0,1-1.073-.588c-.244-.141-.486-.294-.716-.447-.039-.038-.1-.064-.154-.116-.191-.14-.4-.294-.587-.447a5.9,5.9,0,0,1-.6-.486c-.126-.115-.256-.229-.37-.344-.089-.09-.191-.18-.28-.282a4.434,4.434,0,0,1-.346-.383c-.18-.2-.358-.4-.524-.614v-.012c-.051-.268-.1-.563-.141-.856-.024-.141-.024-.282-.051-.435a11.762,11.762,0,0,1-.052-1.316c0-.307.026-.588.052-.895a2.964,2.964,0,0,1,.051-.447c.038-.293.09-.6.141-.894a10.422,10.422,0,0,1,.358-1.342l8.112-24.836,18.065-55.256a12.114,12.114,0,0,1,15.28-7.755L437,140.754a12.1,12.1,0,0,1,7.743,15.268Z" transform="translate(-106.889 -39.489)" fill="none" stroke="#2e3433" stroke-miterlimit="10" stroke-width="1"/>
      <path id="Trazado_2235" data-name="Trazado 2235" d="M398.39,174.093a14.094,14.094,0,1,0-24.761,3.936l-8.092,24.76a7.735,7.735,0,0,0,14.7,4.806l7.895-24.156a14.075,14.075,0,0,0,10.255-9.347" transform="translate(-118.16 -47.12)" fill="#fff"/>
      <path id="Trazado_2236" data-name="Trazado 2236" d="M398.39,174.093a14.094,14.094,0,1,0-24.761,3.936l-8.092,24.76a7.735,7.735,0,0,0,14.7,4.806l7.895-24.156A14.075,14.075,0,0,0,398.39,174.093Z" transform="translate(-118.16 -47.12)" fill="none" stroke="#2e3433" stroke-miterlimit="10" stroke-width="1"/>
      <path id="Trazado_2237" data-name="Trazado 2237" d="M372.628,212.933a7.909,7.909,0,0,1-2.144-.383,7.751,7.751,0,0,1-4.956-9.767l8.088-24.75a14.1,14.1,0,0,1,15.747-21.724,14.285,14.285,0,0,1,2,.834,14.092,14.092,0,0,0-13.642,22.23l-8.089,24.75a7.771,7.771,0,0,0,3,8.81" transform="translate(-118.159 -47.119)" fill="#2e3433"/>
      <path id="Trazado_2238" data-name="Trazado 2238" d="M395.406,296.078c-5.124-19.237-64.122-80.524-82.542-100.007a34.8,34.8,0,0,0-11.864-8.5c-1.118-.672-9.42-1.4-13.7-1.774-6.732-.39-10.288-1.222-20.248-1.785-.92-.065-1.841-.113-2.778-.178-2.713-.146-5.49-.307-8.284-.468-3.213-.193-6.444-.371-9.641-.55-2.068-.112-4.1-.241-6.12-.354-1.6-.1-3.181-.178-4.748-.275-11.676-.67-16.819.135-23.075-.238-7.352-.376-13.414-.317-21.592,4.389-23.241,13.37-97.289,55.624-107.725,72.578-15.09,24.507,8.524,77.844,53.96,71.739,4.825-.649,9.943-2.87,15.191-6.21-9.919,54.649-19.8,111.175-19.8,111.175s5.216,2,13.581,4.99c19.233,6.863,55.131,18.942,82.794,23.836.193.032.371.064.549.1.371.064.726.129,1.082.177.338.064.678.129,1.017.177,4.569.743,8.882,1.277,12.8,1.534,11.175.727,26.387-1.5,41.421-4.7,14.437-3.085,28.7-7.058,39.062-10.158,9.544-2.858,15.762-4.974,15.762-4.974,1.884-11.813.383-52.691-1.762-93.008,35.033,3.614,63.131-33.235,56.661-57.513" transform="translate(-73.268 -51.222)" fill="#f5b015"/>
      <path id="Trazado_2239" data-name="Trazado 2239" d="M395.406,296.078c-5.124-19.237-64.122-80.524-82.542-100.007a34.8,34.8,0,0,0-11.864-8.5c-1.118-.672-9.42-1.4-13.7-1.774-6.732-.39-10.288-1.222-20.248-1.785-.92-.065-1.841-.113-2.778-.178-2.713-.146-5.49-.307-8.284-.468-3.213-.193-6.444-.371-9.641-.55-2.068-.112-4.1-.241-6.12-.354-1.6-.1-3.181-.178-4.748-.275-11.676-.67-16.819.135-23.075-.238-7.352-.376-13.414-.317-21.592,4.389-23.241,13.37-97.289,55.624-107.725,72.578-15.09,24.507,8.524,77.844,53.96,71.739,4.825-.649,9.943-2.87,15.191-6.21-9.919,54.649-19.8,111.175-19.8,111.175s5.216,2,13.581,4.99c19.233,6.863,55.131,18.942,82.794,23.836.193.032.371.064.549.1.371.064.726.129,1.082.177.338.064.678.129,1.017.177,4.569.743,8.882,1.277,12.8,1.534,11.175.727,26.387-1.5,41.421-4.7,14.437-3.085,28.7-7.058,39.062-10.158,9.544-2.858,15.762-4.974,15.762-4.974,1.884-11.813.383-52.691-1.762-93.008C373.777,357.205,401.876,320.357,395.406,296.078Z" transform="translate(-73.268 -51.222)" fill="none" stroke="#2e3433" stroke-miterlimit="10" stroke-width="1"/>
      <path id="Trazado_2240" data-name="Trazado 2240" d="M146.083,280.693c14.154,17.529,14.785,40.491,1.415,51.289s-35.687,5.342-49.841-12.187-14.785-40.492-1.412-51.29,35.684-5.341,49.838,12.188" transform="translate(-74.533 -63.933)" fill="#2e3433"/>
      <path id="Trazado_2241" data-name="Trazado 2241" d="M299.441,144.812a8.5,8.5,0,1,0,10.652-5.58,8.5,8.5,0,0,0-10.652,5.58" transform="translate(-107.807 -44.493)" fill="#fff"/>
      <path id="Trazado_2242" data-name="Trazado 2242" d="M299.441,144.812a8.5,8.5,0,1,0,10.652-5.58A8.5,8.5,0,0,0,299.441,144.812Z" transform="translate(-107.807 -44.493)" fill="none" stroke="#2e3433" stroke-linecap="round" stroke-linejoin="round" stroke-width="1"/>
      <path id="Trazado_2243" data-name="Trazado 2243" d="M268.241,142.048a8.5,8.5,0,1,1-9.83-6.925,8.5,8.5,0,0,1,9.83,6.925" transform="translate(-100.337 -43.89)" fill="#fff"/>
      <path id="Trazado_2244" data-name="Trazado 2244" d="M268.241,142.048a8.5,8.5,0,1,1-9.83-6.925A8.5,8.5,0,0,1,268.241,142.048Z" transform="translate(-100.337 -43.89)" fill="none" stroke="#2e3433" stroke-linecap="round" stroke-linejoin="round" stroke-width="1"/>
      <path id="Trazado_2245" data-name="Trazado 2245" d="M265.252,166.262l-1.521,23.132a3.882,3.882,0,0,0,.234,1.633c1.464,3.856,5.138,19.834,7.6,30.869a3.852,3.852,0,0,0,7.224.848c4.95-10.157,12.389-24.989,15.784-29.58a3.818,3.818,0,0,0,.74-2.027l2.076-31.584a3.852,3.852,0,0,0-5.086-3.9c-5.036,1.721-13.356,4.373-24.154,7.13a3.86,3.86,0,0,0-2.9,3.482" transform="translate(-102.273 -47.092)" fill="#fff"/>
      <path id="Trazado_2246" data-name="Trazado 2246" d="M265.252,166.262l-1.521,23.132a3.882,3.882,0,0,0,.234,1.633c1.464,3.856,5.138,19.834,7.6,30.869a3.852,3.852,0,0,0,7.224.848c4.95-10.157,12.389-24.989,15.784-29.58a3.818,3.818,0,0,0,.74-2.027l2.076-31.584a3.852,3.852,0,0,0-5.086-3.9c-5.036,1.721-13.356,4.373-24.154,7.13A3.86,3.86,0,0,0,265.252,166.262Z" transform="translate(-102.273 -47.092)" fill="none" stroke="#2e3433" stroke-linecap="round" stroke-linejoin="round" stroke-width="1"/>
      <path id="Trazado_2247" data-name="Trazado 2247" d="M270.71,180.157c-1.841-2.046-3.345-9.736-5.457-10.589l.423-6.432a285.292,285.292,0,0,0,32.34-9.779l-1.441,21.923c-1.572,1.08-4.513,7.487-7.739,9.533-5.459,3.461-12.222,1.911-18.125-4.656" transform="translate(-102.513 -46.766)" fill="#2e3433"/>
      <path id="Trazado_2248" data-name="Trazado 2248" d="M259.588,133.447c-1-13,2.722-19.425,15.668-22.885,13.844-3.7,25.42,2.956,29.122,16.8,1.279,4.781.815,10.979-.377,15.408h.022s-1.413,11.445-2.334,15.168a10.763,10.763,0,0,1-4.73,6.11l-10.53,6.992a8.563,8.563,0,0,1-5.3,1.413l-3.553-.233a8.572,8.572,0,0,1-5.17-2.178l-9.151-8.223a10.438,10.438,0,0,1-3.761-6.561c-.49-5.431.391-17.963.1-21.811" transform="translate(-101.587 -39.905)" fill="#fff"/>
      <path id="Trazado_2249" data-name="Trazado 2249" d="M259.588,133.447c-1-13,2.722-19.425,15.668-22.885,13.844-3.7,25.42,2.956,29.122,16.8,1.279,4.781.815,10.979-.377,15.408h.022s-1.413,11.445-2.334,15.168a10.763,10.763,0,0,1-4.73,6.11l-10.53,6.992a8.563,8.563,0,0,1-5.3,1.413l-3.553-.233a8.572,8.572,0,0,1-5.17-2.178l-9.151-8.223a10.438,10.438,0,0,1-3.761-6.561C259,149.827,259.881,137.3,259.588,133.447Z" transform="translate(-101.587 -39.905)" fill="none" stroke="#2e3433" stroke-linecap="round" stroke-linejoin="round" stroke-width="1"/>
      <path id="Trazado_2250" data-name="Trazado 2250" d="M296.364,114.671c-18,2.436-30.464-2.117-31.865-2.095s-2.706,8.411-3.255,12.2a14.184,14.184,0,0,1-2.656,6.361s.52,8.054-1.092,7.137-3.431-3.444-4.127-6.975-.037-18.952,2.487-23.643S272.2,95.608,274.761,91.782s6.678-6.534,7.037-4.3a14.011,14.011,0,0,1-.064,4.344s3.39-3.015,5.727.288,15.267,8.548,18.163,13.065,2.846,15.687,2.51,19.414-1.7,7.237-2.811,12.71-3.178,2.415-3.58.416a51.087,51.087,0,0,1,.791-6.219s-3.171-10.749-3.393-12.721c-.359-3.227.314-4.524-2.776-4.106" transform="translate(-100.611 -36.321)" fill="#2e3433"/>
      <path id="Trazado_2251" data-name="Trazado 2251" d="M189.83,279.018c10.562-28.788,19.948-54.725,20.041-54.984l-1.547-.558c-.093.257-9.479,26.19-20.041,54.976Z" transform="translate(-90.457 -57.749)" fill="#2e3433"/>
      <path id="Trazado_2252" data-name="Trazado 2252" d="M286.024,149.673l.564-1.751c-2.094-.676-4.484-1.933-4.7-2.729-.012-.045-.033-.114.109-.277,4.409-5.059,3.357-12.1,3.308-12.4l-1.814.285c.009.064.953,6.5-2.878,10.9a2.1,2.1,0,0,0-.5,1.98c.606,2.178,5.032,3.7,5.911,3.987" transform="translate(-104.829 -43.502)" fill="#2e3433"/>
      <path id="Trazado_2253" data-name="Trazado 2253" d="M301.534,134.825l1.1-1.474c-6.561-4.884-11.827-.918-11.878-.879l1.124,1.454-.563-.725.558.729c.172-.128,4.251-3.128,9.662.9" transform="translate(-106.507 -43.251)" fill="#2e3433"/>
      <path id="Trazado_2254" data-name="Trazado 2254" d="M272.807,158.293s9.155-4.527,21.594.887c0,0-9.611,16.954-21.594-.887" transform="translate(-103.696 -47.261)" fill="#2e3433"/>
      <path id="Trazado_2255" data-name="Trazado 2255" d="M291.73,164.1c-3.332,3.175-9,5.985-15.636-1.3,10.912-.9,14.9,1.2,15.636,1.3" transform="translate(-104.211 -48.211)" fill="#96999e"/>
      <path id="Trazado_2256" data-name="Trazado 2256" d="M294.856,140.439a2.26,2.26,0,0,1-.08-.346,2.285,2.285,0,0,1,4.534-.566,2.253,2.253,0,0,1-.322,1.464,15.308,15.308,0,0,0-4.132-.552" transform="translate(-107.134 -44.286)" fill="#2e3433"/>
      <path id="Trazado_2257" data-name="Trazado 2257" d="M268.922,133.6c.148-.154,3.739-3.729,9.684-.553l.869-1.623c-7.223-3.848-11.833.854-11.88.9l1.329,1.271-.664-.637Z" transform="translate(-102.88 -43.093)" fill="#2e3433"/>
      <path id="Trazado_2258" data-name="Trazado 2258" d="M272.56,139.707a2.357,2.357,0,0,1-.13-.329,2.285,2.285,0,1,1,4.3.262,15.37,15.37,0,0,0-4.169.067" transform="translate(-103.624 -44.122)" fill="#2e3433"/>
      <path id="Trazado_2259" data-name="Trazado 2259" d="M357.348,299.764l1.546-.466-14.308-46.53-1.546.466Z" transform="translate(-114.697 -62.337)" fill="#2e3433"/>
      <path id="Trazado_2260" data-name="Trazado 2260" d="M265.817,201.212l-19.74,4.285.654,2.805,10.019-2.083,7.144-1.462c2.4-.5,3.219,1.719,3.828,4.353l13.855,60.864c.615,2.632.791,4.671-1.612,5.171L262.829,278.8l1.375,5.888,19.81-3.955a4.551,4.551,0,0,0,3.245-5.667l-15.977-70a4.821,4.821,0,0,0-5.465-3.85" transform="translate(-99.509 -54.248)" fill="#201030"/>
      <path id="Trazado_2261" data-name="Trazado 2261" d="M260.223,202.057a2.511,2.511,0,0,0-.287.044l-27.229,5.651c-2.267.47-3.613,2.98-3,5.613l15.942,70c.607,2.634,2.942,4.383,5.208,3.907l27.23-5.646c.093-.019.186-.041.277-.066,2.107-.614,3.314-3.025,2.727-5.548l-15.942-70c-.585-2.523-2.749-4.232-4.927-3.955" transform="translate(-96.922 -54.389)" fill="#dbe0e6"/>
      <path id="Trazado_2262" data-name="Trazado 2262" d="M260.223,202.057a2.511,2.511,0,0,0-.287.044l-27.229,5.651c-2.267.47-3.613,2.98-3,5.613l15.942,70c.607,2.634,2.942,4.383,5.208,3.907l27.23-5.646c.093-.019.186-.041.277-.066,2.107-.614,3.314-3.025,2.727-5.548l-15.942-70C264.565,203.489,262.4,201.78,260.223,202.057Z" transform="translate(-96.922 -54.389)" fill="none" stroke="#2e3433" stroke-miterlimit="10" stroke-width="1"/>
      <path id="Trazado_2263" data-name="Trazado 2263" d="M250.523,210.142a2.889,2.889,0,1,0,3.443,2.2,2.884,2.884,0,0,0-3.443-2.2" transform="translate(-99.85 -55.65)" fill="#2e3433"/>
      <path id="Trazado_2264" data-name="Trazado 2264" d="M238.961,269.29s7.126-4.964-.353-10.541c0,0,4.762-8.9-3.553-10.843,0,0,5.24-12.643-10.488-9.464,0,0-4.562-.181-7.566-.061s-4.035,1.734-7.249,5.736c-2.465,3.068-6.313,7.6-8.09,11.962-20.76.037-51.173,1.08-74.75,6.007-10.969-4.62-22.511-4.113-30.7,2.5-9.1,7.344-11.913,23.781-8.273,38.071C91.4,319.4,107.7,334.336,131.922,329.3c9.109-1.893,54.558-28.158,81.806-44.94a9.76,9.76,0,0,0,3.2.972c13.856,1.608,30.529-12.189,22.031-16.046" transform="translate(-74.498 -60.012)" fill="#fff"/>
      <path id="Trazado_2265" data-name="Trazado 2265" d="M238.961,269.29s7.126-4.964-.353-10.541c0,0,4.762-8.9-3.553-10.843,0,0,5.24-12.643-10.488-9.464,0,0-4.562-.181-7.566-.061s-4.035,1.734-7.249,5.736c-2.465,3.068-6.313,7.6-8.09,11.962-20.76.037-51.173,1.08-74.75,6.007-10.969-4.62-22.511-4.113-30.7,2.5-9.1,7.344-11.913,23.781-8.273,38.071C91.4,319.4,107.7,334.336,131.922,329.3c9.109-1.893,54.558-28.158,81.806-44.94a9.76,9.76,0,0,0,3.2.972C230.785,286.944,247.458,273.146,238.961,269.29Z" transform="translate(-74.498 -60.012)" fill="none" stroke="#2e3433" stroke-linecap="round" stroke-linejoin="round" stroke-width="1"/>
      <path id="Trazado_2266" data-name="Trazado 2266" d="M259.84,249.75a20.087,20.087,0,0,0-5.543.465c-1.782.4-7.993,1.718-9.658,2.631,1.917.156,8.2-.929,10-1.29a19.461,19.461,0,0,0,5.2-1.806" transform="translate(-99.284 -61.857)" fill="#2e3433"/>
      <path id="Trazado_2267" data-name="Trazado 2267" d="M263.567,262.651a46.547,46.547,0,0,0-7.309,1.149c-2.385.552-8.153,1.925-10.512,2.717,1.278.162,5.964-.657,7.2-.777a30.852,30.852,0,0,0,3.665-.6,27.986,27.986,0,0,0,6.951-2.487" transform="translate(-99.458 -63.885)" fill="#2e3433"/>
      <path id="Trazado_2268" data-name="Trazado 2268" d="M265.31,275.182c-1.648.58-3.139,1.25-4.677,1.848-.759.323-1.528.61-2.3.913s-3.486.8-4.284,1.187a16.91,16.91,0,0,0,7.1-.81,10.684,10.684,0,0,0,2.278-1.261,7.582,7.582,0,0,0,1.881-1.876" transform="translate(-100.758 -65.848)" fill="#2e3433"/>
      <path id="Trazado_2269" data-name="Trazado 2269" d="M383.669,306.188c-21.142,7.785-33.466,27.172-27.525,43.3s27.893,22.892,49.035,15.1,33.464-27.172,27.523-43.3-27.893-22.891-49.033-15.1" transform="translate(-116.515 -70.198)" fill="#2e3433"/>
      <path id="Trazado_2270" data-name="Trazado 2270" d="M407.458,322.386a4.114,4.114,0,0,0-.12-.5c-.054-.263-.116-.547-.191-.8-.2-.787-.442-1.54-.708-2.285a23.163,23.163,0,0,0-2.064-4.23c-.276-.454-.571-.9-.871-1.325-.317-.435-.634-.87-.971-1.295-.272-.331-.55-.681-.84-1-.181-.208-.359-.416-.559-.615C391.88,300.3,374.4,295.167,358.19,299.719c-2.959.22-7.5.747-13.053,1.5-9.449,1.27-21.913,3.173-34.892,5.239-14.606,2.335-29.868,4.883-42.228,6.965-9.269,1.571-16.9,2.883-21.424,3.664-4.909-.7-10.938-.305-14.566-1.149-5.723-1.331-8.01-.6-10.672,1.675s-6.422,5.975-6.422,5.975c-15.928,10.11-1.586,14.837-1.586,14.837-5.594,7.876,5.421,10.364,5.421,10.364-2.046,9.763,7.92,7.644,7.92,7.644-4.259,9.359,21.585,6.208,32.252-5.713a16.161,16.161,0,0,0,3.726-6.757c7.534,1.663,17.323,5.079,28.225,8.854,5.953,2.068,12.228,4.243,18.653,6.3,5.135,1.629,10.346,3.2,15.566,4.568.045.018.111.026.172.05l.029.011c5.115,1.326,10.228,2.479,15.233,3.329,13.164,2.232,25.627,2.391,35.674-1.541a34.246,34.246,0,0,0,5.26-2.619l.015.006c22.164-8.911,28.753-27.28,25.965-40.538" transform="translate(-93.454 -69.429)" fill="#fff"/>
      <path id="Trazado_2271" data-name="Trazado 2271" d="M407.458,322.386a4.114,4.114,0,0,0-.12-.5c-.054-.263-.116-.547-.191-.8-.2-.787-.442-1.54-.708-2.285a23.163,23.163,0,0,0-2.064-4.23c-.276-.454-.571-.9-.871-1.325-.317-.435-.634-.87-.971-1.295-.272-.331-.55-.681-.84-1-.181-.208-.359-.416-.559-.615C391.88,300.3,374.4,295.167,358.19,299.719c-2.959.22-7.5.747-13.053,1.5-9.449,1.27-21.913,3.173-34.892,5.239-14.606,2.335-29.868,4.883-42.228,6.965-9.269,1.571-16.9,2.883-21.424,3.664-4.909-.7-10.938-.305-14.566-1.149-5.723-1.331-8.01-.6-10.672,1.675s-6.422,5.975-6.422,5.975c-15.928,10.11-1.586,14.837-1.586,14.837-5.594,7.876,5.421,10.364,5.421,10.364-2.046,9.763,7.92,7.644,7.92,7.644-4.259,9.359,21.585,6.208,32.252-5.713a16.161,16.161,0,0,0,3.726-6.757c7.534,1.663,17.323,5.079,28.225,8.854,5.953,2.068,12.228,4.243,18.653,6.3,5.135,1.629,10.346,3.2,15.566,4.568.045.018.111.026.172.05l.029.011c5.115,1.326,10.228,2.479,15.233,3.329,13.164,2.232,25.627,2.391,35.674-1.541a34.246,34.246,0,0,0,5.26-2.619l.015.006C403.657,354.013,410.246,335.644,407.458,322.386Z" transform="translate(-93.454 -69.429)" fill="none" stroke="#2e3433" stroke-linecap="round" stroke-linejoin="round" stroke-width="1"/>
      <path id="Trazado_2272" data-name="Trazado 2272" d="M214.448,344.656a26.529,26.529,0,0,1,5.1-4.022,26.263,26.263,0,0,1,5.858-2.816,26.029,26.029,0,0,1-5.1,4.022,26.389,26.389,0,0,1-5.858,2.816" transform="translate(-94.555 -75.658)" fill="#2e3433"/>
      <path id="Trazado_2273" data-name="Trazado 2273" d="M220.9,356.548a62.223,62.223,0,0,1,7.144-4.928c2.471-1.484,4.944-2.9,7.579-4.2a21.843,21.843,0,0,1-3.239,2.958,41.052,41.052,0,0,1-3.6,2.453,38.038,38.038,0,0,1-7.883,3.713" transform="translate(-95.566 -77.163)" fill="#2e3433"/>
      <path id="Trazado_2274" data-name="Trazado 2274" d="M230.227,366.534c1.862-.887,3.659-1.588,5.442-2.376.9-.369,1.782-.772,2.678-1.166s1.787-.819,2.77-1.178a12,12,0,0,1-4.888,3.653,14.506,14.506,0,0,1-2.93.9,9.718,9.718,0,0,1-3.072.164" transform="translate(-97.027 -79.417)" fill="#2e3433"/>
      <path id="Trazado_2275" data-name="Trazado 2275" d="M132.11,266.571s-8.086,1.588-12.519,3.8" transform="translate(-79.698 -64.499)" fill="#fff"/>
      <path id="Trazado_2276" data-name="Trazado 2276" d="M132.11,266.571s-8.086,1.588-12.519,3.8" transform="translate(-79.698 -64.499)" fill="none" stroke="#2e3433" stroke-linecap="round" stroke-linejoin="round" stroke-width="1"/>
      <rect id="Rect치ngulo_438" data-name="Rect치ngulo 438" width="293.064" height="2.049" transform="translate(19.236 299.837)" fill="#131313"/>
    </g>
  </g>
</svg>
