<?xml version="1.0" encoding="utf-8"?>
<!-- Generator: Adobe Illustrator 26.3.1, SVG Export Plug-In . SVG Version: 6.00 Build 0)  -->
<svg version="1.1" id="Capa_1" xmlns="http://www.w3.org/2000/svg" xmlns:xlink="http://www.w3.org/1999/xlink" x="0px" y="0px"
	 viewBox="0 0 438 336.5" style="enable-background:new 0 0 438 336.5;" xml:space="preserve">
<style type="text/css">
	.st0{fill:#FFFFFF;}
	.st1{clip-path:url(#SVGID_00000119094280352777585440000013955040195365933728_);}
	.st2{fill:none;stroke:#F3AD13;stroke-width:8;stroke-miterlimit:10;}
	.st3{clip-path:url(#SVGID_00000128459944454633510600000000227222484097402547_);}
	.st4{fill:#2E3433;}
	.st5{fill:#DBE0E6;stroke:#2E3433;stroke-miterlimit:10;}
	.st6{fill:#575251;}
	.st7{clip-path:url(#SVGID_00000128459944454633510600000000227222484097402547_);fill:#FFFFFF;}
	.st8{fill:#D8143B;}
	.st9{fill:#F5B015;}
	.st10{fill:#96999E;stroke:#2E3433;stroke-linecap:round;stroke-linejoin:round;stroke-miterlimit:10;}
	.st11{clip-path:url(#SVGID_00000096022054778382571530000002603307792855450000_);}
</style>
<g>
	<g>
		<g>
			<g>
				<g>
					<defs>
						<path id="SVGID_1_" d="M355.4,240.1c-117.9,24-82.6,85.4-161.2,99.9C88,359.5,38.2,200.3,104.7,102
							C157.9,23.5,249.7-1.3,331,30.9C445.8,76.5,448.5,221.1,355.4,240.1z"/>
					</defs>
					<clipPath id="SVGID_00000098929613286500105880000002408560836068368547_">
						<use xlink:href="#SVGID_1_"  style="overflow:visible;"/>
					</clipPath>
				</g>
			</g>
			<g>
				<g>
					<path class="st0" d="M101,102.8c28-6.9,82.2-59,50.4-85.2C119.5-8.5,18.2,123.2,101,102.8z"/>
				</g>
				<g>
					<path class="st0" d="M93.2,110.8c118.6-20.5,85.1-82.9,164.2-95c106.7-16.3,151.7,144.3,82.3,240.5
						c-20.6,28.5-46.2,49.5-74.5,62.8c0,0-156.7,0.2-158.1-0.4C-2,268,0.8,126.8,93.2,110.8z"/>
				</g>
				<g>
					<defs>
						<path id="SVGID_00000081611210931326122030000014673392787655448198_" d="M355.4,240.1c-117.9,24-82.6,85.4-161.2,99.9
							C88,359.5,38.2,200.3,104.7,102C157.9,23.5,249.7-1.3,331,30.9C445.8,76.5,448.5,221.1,355.4,240.1z"/>
					</defs>
					<clipPath id="SVGID_00000116217886929782886740000014542040612289808296_">
						<use xlink:href="#SVGID_00000081611210931326122030000014673392787655448198_"  style="overflow:visible;"/>
					</clipPath>
				</g>
			</g>
		</g>
	</g>
	<g>
		<defs>
			<path id="SVGID_00000108287744057032203070000011935751651980866203_" d="M281.5,46c34.5,57.4,15.8,132.2-41.6,166.7
				c-57.4,34.5-132.2,15.8-166.7-41.6c-5.7-9.6-18.2-12.7-27.8-6.9c-9.6,5.7-12.7,18.2-6.9,27.8c46,76.6,145.7,101.4,222.2,55.4
				c76.6-46,101.4-145.7,55.4-222.2c-5.7-9.6-18.2-12.7-27.8-6.9C278.8,24,275.7,36.5,281.5,46z"/>
		</defs>
		<clipPath id="SVGID_00000081606257812762629730000002065149075543228579_">
			<use xlink:href="#SVGID_00000108287744057032203070000011935751651980866203_"  style="overflow:visible;"/>
		</clipPath>
		<g style="clip-path:url(#SVGID_00000081606257812762629730000002065149075543228579_);">
			<line class="st2" x1="316.8" y1="309.1" x2="-70.8" y2="212.4"/>
			<line class="st2" x1="320.3" y1="294.9" x2="-67.2" y2="198.2"/>
			<line class="st2" x1="323.9" y1="280.6" x2="-63.7" y2="184"/>
			<line class="st2" x1="327.4" y1="266.4" x2="-60.1" y2="169.7"/>
			<line class="st2" x1="331" y1="252.2" x2="-56.6" y2="155.5"/>
			<line class="st2" x1="334.5" y1="237.9" x2="-53" y2="141.3"/>
			<line class="st2" x1="338.1" y1="223.7" x2="-49.5" y2="127"/>
			<line class="st2" x1="341.6" y1="209.5" x2="-45.9" y2="112.8"/>
			<line class="st2" x1="345.2" y1="195.3" x2="-42.4" y2="98.6"/>
			<line class="st2" x1="348.7" y1="181" x2="-38.8" y2="84.4"/>
			<line class="st2" x1="352.3" y1="166.8" x2="-35.3" y2="70.1"/>
			<line class="st2" x1="355.8" y1="152.6" x2="-31.7" y2="55.9"/>
			<line class="st2" x1="359.4" y1="138.3" x2="-28.2" y2="41.7"/>
			<line class="st2" x1="362.9" y1="124.1" x2="-24.7" y2="27.4"/>
			<line class="st2" x1="366.5" y1="109.9" x2="-21.1" y2="13.2"/>
			<line class="st2" x1="370" y1="95.7" x2="-17.6" y2="-1"/>
			<line class="st2" x1="373.6" y1="81.4" x2="-14" y2="-15.2"/>
			<line class="st2" x1="377.1" y1="67.2" x2="-10.5" y2="-29.5"/>
			<line class="st2" x1="380.6" y1="53" x2="-6.9" y2="-43.7"/>
			<line class="st2" x1="384.2" y1="38.7" x2="-3.4" y2="-57.9"/>
		</g>
	</g>
	<g>
		<defs>
			<polygon id="SVGID_00000010271718844965692880000011981149736046481804_" points="314.6,320 99,320 99,71.1 312.5,71.1 			"/>
		</defs>
		<clipPath id="SVGID_00000173119589403719096430000001766755745631428997_">
			<use xlink:href="#SVGID_00000010271718844965692880000011981149736046481804_"  style="overflow:visible;"/>
		</clipPath>
		<g style="clip-path:url(#SVGID_00000173119589403719096430000001766755745631428997_);">
			<g>
				<path class="st4" d="M306.3,102.3v324.3c0,13.6-11.1,24.7-24.7,24.7h-64.9v0h-81.8c-5.3-0.3-10.2-2.3-14.1-5.5
					c-5.5-4.5-9.1-11.4-9.1-19.1V102.3c0-13.6,11.1-24.7,24.7-24.7h145.2C295.2,77.6,306.3,88.7,306.3,102.3z"/>
			</g>
			<g>
				<path class="st5" d="M297,102.3v324.3c0,13.6-11.1,24.7-24.7,24.7h-64.9v0h-81.8c-5.3-0.3-10.2-2.3-14.1-5.5
					c-5.5-4.5-9.1-11.4-9.1-19.1V102.3c0-13.6,11.1-24.7,24.7-24.7h145.2C285.9,77.6,297,88.7,297,102.3z"/>
			</g>
			<g>
				<path class="st6" d="M291.5,102.3v324.3c0,10.6-8.6,19.2-19.2,19.2H127.1c-10.6,0-19.2-8.6-19.2-19.2V102.3
					c0-10.6,8.6-19.2,19.2-19.2h145.2C282.9,83.1,291.5,91.7,291.5,102.3z"/>
			</g>
			<g>
				<path class="st4" d="M222.6,86.3h-45.2c-1,0-1.8,0.8-1.8,1.8c0,1,0.8,1.8,1.8,1.8h45.2c1,0,1.8-0.8,1.8-1.8
					C224.4,87.1,223.6,86.3,222.6,86.3z"/>
			</g>
			<g>
				<g>
					<g>
						
							<rect x="123.7" y="103" transform="matrix(0.7069 -0.7073 0.7073 0.7069 -35.7131 120.9024)" class="st4" width="8.6" height="1.1"/>
					</g>
				</g>
				<g>
					<g>
						
							<rect x="127.5" y="99.3" transform="matrix(0.7071 -0.7071 0.7071 0.7071 -35.7184 120.8526)" class="st4" width="1.1" height="8.6"/>
					</g>
				</g>
			</g>
			<g>
				<g>
					<rect x="264.6" y="105" class="st4" width="9.7" height="1.1"/>
				</g>
			</g>
		</g>
		<path style="clip-path:url(#SVGID_00000173119589403719096430000001766755745631428997_);fill:#FFFFFF;" d="M216.1,242.3H189
			c-11.8,0-21.4-9.6-21.4-21.4v-27.1c0-11.8,9.6-21.4,21.4-21.4h27.1c11.8,0,21.4,9.6,21.4,21.4v27.1
			C237.4,232.7,227.9,242.3,216.1,242.3z"/>
		<g style="clip-path:url(#SVGID_00000173119589403719096430000001766755745631428997_);">
			<g>
				<path class="st8" d="M202.6,219.6l0,2.7l-2.4,0l0-2.6c-2.3,0-4.1-0.6-5.7-2.2l2.1-2.2c1,1,2.4,1.4,3.9,1.4l-0.1-4.4l-0.8-0.1
					c-1.4-0.2-2.6-0.7-3.3-1.4c-0.8-0.8-1.3-1.9-1.3-3.3c0-2.8,1.8-4.8,4.9-5.2l0-2.2l2.4,0l0,2.1c2,0.1,3.5,0.7,4.8,1.9l-2.1,2.1
					c-0.8-0.8-2-1.1-3-1.1l0.1,4.2l0.9,0.1c1.6,0.2,2.6,0.6,3.3,1.3c0.9,0.9,1.4,2.1,1.4,3.6C207.7,217.4,205.6,219.2,202.6,219.6z
					 M200.2,205.3c-1.4,0.2-2.1,1.1-2.1,2.2c0,0.4,0.2,0.9,0.5,1.2c0.4,0.4,0.9,0.6,1.6,0.6L200.2,205.3z M203.9,213.1
					c-0.5-0.4-1.1-0.5-1.7-0.6l0.1,4.1c1.4-0.2,2.2-0.9,2.2-2.1C204.4,214,204.2,213.5,203.9,213.1z"/>
			</g>
			<path class="st9" d="M205.2,185.7c0,0.5-0.5,0.9-1.2,0.9h-5.6c-0.7,0-1.2-0.4-1.2-0.9v-3.3c0-0.5,0.5-0.9,1.2-0.9h5.6
				c0.7,0,1.2,0.4,1.2,0.9V185.7z"/>
			<g>
				<path class="st8" d="M201.1,227.3c-8.9,0-16.2-7.3-16.2-16.2c0-8.9,7.3-16.2,16.2-16.2c1.5,0,2.7-1.2,2.7-2.7
					c0-1.5-1.2-2.7-2.7-2.7c-11.9,0-21.6,9.7-21.6,21.6c0,11.9,9.7,21.6,21.6,21.6c1.5,0,2.7-1.2,2.7-2.7S202.6,227.3,201.1,227.3z"
					/>
				<g>
					<rect x="220.5" y="209.4" class="st9" width="3.5" height="3.3"/>
					<circle class="st9" cx="220.6" cy="211.1" r="1.7"/>
					<circle class="st9" cx="223.9" cy="211.1" r="1.7"/>
				</g>
				<g>
					
						<rect x="217.5" y="198.7" transform="matrix(0.799 -0.6013 0.6013 0.799 -76.3986 172.0952)" class="st9" width="3.5" height="3.3"/>
					<circle class="st9" cx="217.9" cy="201.4" r="1.7"/>
					<circle class="st9" cx="220.6" cy="199.4" r="1.7"/>
				</g>
				<g>
					
						<rect x="209.4" y="191.5" transform="matrix(0.4905 -0.8714 0.8714 0.4905 -60.7314 282.3932)" class="st9" width="3.5" height="3.3"/>
					<circle class="st9" cx="210.3" cy="194.6" r="1.7"/>
					<circle class="st9" cx="211.9" cy="191.7" r="1.7"/>
				</g>
				<g>
					
						<rect x="217.6" y="219.4" transform="matrix(0.8536 0.5209 -0.5209 0.8536 147.3017 -81.9092)" class="st9" width="3.5" height="3.3"/>
					<circle class="st9" cx="217.9" cy="220.2" r="1.7"/>
					<circle class="st9" cx="220.8" cy="222" r="1.7"/>
				</g>
				<g>
					
						<rect x="209.5" y="226.4" transform="matrix(0.511 0.8596 -0.8596 0.511 299.3412 -70.0762)" class="st9" width="3.5" height="3.3"/>
					<circle class="st9" cx="210.4" cy="226.6" r="1.7"/>
					<circle class="st9" cx="212.1" cy="229.4" r="1.7"/>
				</g>
			</g>
		</g>
	</g>
	<path class="st9" d="M42,100.1c0,1.2-1,2.2-2.2,2.2c-1.2,0-2.2-1-2.2-2.2c0-1.2,1-2.2,2.2-2.2C41,98,42,98.9,42,100.1z"/>
	<path class="st9" d="M239.5,50.7c0,0.9-0.7,1.6-1.6,1.6c-0.9,0-1.6-0.7-1.6-1.6c0-0.9,0.7-1.6,1.6-1.6
		C238.8,49.1,239.5,49.8,239.5,50.7z"/>
	<path class="st9" d="M180.9,60.2c0,0.9-0.7,1.6-1.6,1.6c-0.9,0-1.6-0.7-1.6-1.6c0-0.9,0.7-1.6,1.6-1.6
		C180.1,58.6,180.9,59.3,180.9,60.2z"/>
	<path class="st9" d="M128.7,47.2c0,0.9-0.7,1.6-1.6,1.6c-0.9,0-1.6-0.7-1.6-1.6c0-0.9,0.7-1.6,1.6-1.6
		C128,45.6,128.7,46.3,128.7,47.2z"/>
	<path class="st9" d="M64.6,57.9c0,1.8-1.4,3.2-3.2,3.2c-1.8,0-3.2-1.4-3.2-3.2c0-1.8,1.4-3.2,3.2-3.2
		C63.2,54.7,64.6,56.2,64.6,57.9z"/>
	<path class="st9" d="M205.1,38.4c0,1.8-1.4,3.2-3.2,3.2c-1.8,0-3.2-1.4-3.2-3.2c0-1.8,1.4-3.2,3.2-3.2
		C203.6,35.2,205.1,36.6,205.1,38.4z"/>
	<path class="st9" d="M371.7,129.4c0,1.8-1.4,3.2-3.2,3.2c-1.8,0-3.2-1.4-3.2-3.2c0-1.8,1.4-3.2,3.2-3.2
		C370.3,126.2,371.7,127.6,371.7,129.4z"/>
	<circle class="st10" cx="291.3" cy="94.5" r="28"/>
	<g id="Grupo_9_00000139973032308817074030000007405255538229827737_" transform="translate(0.001 0.001)">
		<g>
			<defs>
				<rect id="SVGID_00000169534126743585674610000008547065351583870395_" x="273.9" y="83.2" width="35.5" height="27.3"/>
			</defs>
			<clipPath id="SVGID_00000076587361717233130090000010656681254100619139_">
				<use xlink:href="#SVGID_00000169534126743585674610000008547065351583870395_"  style="overflow:visible;"/>
			</clipPath>
			
				<g id="Grupo_8_00000110469641884840229110000015947186808904386737_" transform="translate(-0.001 -0.001)" style="clip-path:url(#SVGID_00000076587361717233130090000010656681254100619139_);">
				<path id="Trazado_64_00000047047476706797741600000005870796835117958844_" class="st0" d="M292.4,102.7c1.2,1.2,1.2,3.2,0,4.4
					l-2.4,2.4c-1.2,1.2-3.2,1.2-4.4,0l-10.7-10.8c-1.2-1.2-1.2-3.2,0-4.4l2.4-2.4c1.2-1.2,3.2-1.2,4.4,0L292.4,102.7z"/>
				<path id="Trazado_65_00000076601696063399548110000013046777793974044050_" class="st0" d="M301.7,84.1c1.2-1.2,3.2-1.2,4.4,0
					l2.4,2.4c1.2,1.2,1.2,3.2,0,4.4L290,109.4c-1.2,1.2-3.2,1.2-4.4,0l-2.4-2.4c-1.2-1.2-1.2-3.2,0-4.4L301.7,84.1z"/>
			</g>
		</g>
	</g>
	<g>
		<rect x="8.1" y="318.7" class="st4" width="384.6" height="2.1"/>
	</g>
</g>
</svg>
