<svg id="Grupo_429" data-name="Grupo 429" xmlns="http://www.w3.org/2000/svg" xmlns:xlink="http://www.w3.org/1999/xlink" width="380.957" height="259.05" viewBox="0 0 380.957 259.05">
  <defs>
    <clipPath id="clip-path">
      <rect id="Rectángulo_355" data-name="Rectángulo 355" width="380.957" height="259.05" fill="none"/>
    </clipPath>
  </defs>
  <g id="Grupo_428" data-name="Grupo 428" clip-path="url(#clip-path)">
    <path id="Trazado_1578" data-name="Trazado 1578" d="M324.517,10.962C277.305-9.169,249.768,43.157,160.081,20.5,63.952-3.792,33.53,137.407,115.515,204.115c81.6,66.4,148.384,55.423,208.809-12.028,45.435-50.72,70.349-151.21.192-181.125" transform="translate(-7.913 -0.726)" fill="#fff"/>
    <path id="Trazado_1579" data-name="Trazado 1579" d="M309.025,260.629a10.217,10.217,0,0,0-1.341.478c.475-.277.939-.556,1.4-.832-.008.08-.041.2-.06.353" transform="translate(-35.754 -30.245)" fill="#96999e"/>
    <path id="Trazado_1580" data-name="Trazado 1580" d="M289.2,208.073c2.809,3.654,4.891,12.572,11.087,23.5a12.564,12.564,0,0,0,4.392,4.849c-5.761-2.372-13.352-2.351-16.083-2.2s-8.862-1.072-12.059-1.761c3.921,1.5,4.247,6.115,14.791,10.639,5.653,2.418,10.12,1.974,13.284.79l-.771.613a97.943,97.943,0,0,0-11.168,5.879c-7.4,4.509-15.865,2.755-15.865,2.755,8.058,2.886,2.071,2.053,12.546,3.408,8.926,1.159,15.47-11.87,15.47-11.87.218-.152.389-.282.517-.378-.355,2.254-1.217,8.382-.591,13.094.769,5.891,3.033,10.776,5.043,12.851,1.916,1.992,5.84,2.328,6.217,2.346-.315-.171-4.93-2.681-5.02-5.181-.091-2.6,1-4.988-.979-11.935s-3.912-11.98-3.912-11.98l-.393-.057a14.622,14.622,0,0,0,3.587-2.339,139.791,139.791,0,0,0,14.23-11.159c-1.037,3.569,4.534,14.722,7.191,16.758,20.272,15.533,31.82,5.229,31.82,5.229.624-.656-2.785-.4-5.247-.437S349.8,246.7,349.8,246.7c-7.343-10.99-11-11.262-11-11.262s-6.939-3.581-11.2-4.515a6.113,6.113,0,0,1-3.134-1.82c2.453-2.2,4.864-4.5,7.236-6.856.848,1.787,2.356,6.766,5.142,7.718,15.555,5.266,25.548-7.867,25.548-7.867s-4.261,2.946-11.841,1.647c-6.241-1.057-13.995-2.852-17.579-2.76,2.657-2.681,5.262-5.45,7.794-8.254,1.03,1.227,6.573,7.283,14.647,7.724,4.147.224,14.71-.636,19.9-5.663,0,0-30.845-4.036-33.526-3.108a.534.534,0,0,0-.054-.027c2.89-3.225,5.685-6.5,8.359-9.766,1.377,1.077,30.6,16.232,45.217,3.819,0,0-6.953.063-12.261-2.217s-8.781-6.545-16.033-6.334c-5.51.166-12.66,2.316-15.78,3.339,2.844-3.491,5.541-6.963,8.081-10.336,2.719,1.356,19.485,8.625,40.012-5.243,2.346-1.6,5.509-4.255,4.613-3.865-7.413,3.243-8.763,2.325-11.8,2.136-19.745-1.176-25.543,1.661-32.112,6.031,2.445-3.268,4.733-6.435,6.843-9.425,9.979.637,13.431-.7,18.71-1.765,5.4-1.1,15.875-7.405,15.875-7.405s6.931-3.862,8.869-7.121c1.652-2.8-4.314,5.214-16.694,5.129-9.964-.079-22.1,7.5-26.076,10.183,2.469-3.537,4.689-6.831,6.6-9.748,1.584.7,10.218,3.476,28.674-9.729,13.78-9.876,7.44-6.058,7.44-6.058a26.122,26.122,0,0,1-7.338,2.63c-4.908,1.129-15.665,1.575-28.237,12.337,2.294-3.518,4.133-6.481,5.424-8.642,1.27.144,6.253-1.369,9.69-2.709a38.2,38.2,0,0,0,8.283-4.611c5.974-4.3,15.9-12,14.926-11.42-2.986,1.793-11.549,3.958-20.505,9.306-7.39,4.409-10.457,7-11.719,8.308a24.978,24.978,0,0,0,1.567-2.868c-4.612,7.337-9.156,14.111-13.592,20.379.148-.247.282-.495.282-.495a114,114,0,0,0,6.12-22.342c1.753-11.5,2.736-19.437,2.6-27.8s-.767-8.865-.767-8.865-1.083,14.812-2.43,19.591c-1.353,4.8-3.812,12.677-4.21,17.161s-1.138,20.859-1.776,22.562c-.21.562-.221.7-.154.659q-3.329,4.7-6.571,9.009c.079-.245.123-.438.123-.438s7.292-17.911,7.244-37.742-.113-26.524-.363-26.349c-.262.284-2.122,15.23-3.636,22.733-.735,3.6-1.389,6.647-1.951,9.245.378-11.886-1.319-13.931-1.319-13.931s-.344,17.591-6.479,30.775c-4.27,9.173-2.162,25.93-2.162,25.93l.013.718q-4.3,5.3-8.318,9.891c.468-.985,1.4-3.186,3.245-7.834,4.422-11.207,4.44-21.307,3.085-34.6s-4.95-16.24-4.771-15.3.658,12.114.7,13.608-2.26,12.555-3.224,20.6.569,23.913.569,23.913-.011.039-.021.08c-3.013,3.431-5.9,6.595-8.614,9.438a55.551,55.551,0,0,0,2.751-33.536c-1.4-6.164-5.951-24.821-6.547-27.5.222,1.525.819,8.592-1.051,27.571-2.017,20.571,3.2,32.246,4.161,34.175-2.5,2.613-4.87,4.978-7.067,7.114.764-1.023,2.2-4.581-.017-16.163,0,0-3.471-14.761-23.246-14.439a19.119,19.119,0,0,1,9.128,11.792c2.177,8.383,9.083,16.583,13.744,19.182-1.851.732-17.783,15.181-17.783,15.181l-.315.257a11.96,11.96,0,0,0-3.613-2.759c4.8,1.662,9.246-2.065,9.246-2.065-1.67-1.1-1.344-8.72-4.37-10.715s-8.609-4.09-10.6-5.56-10.822-11.442-11.343-12.15.127,1.47.127,1.47m64.327-11.889a107.317,107.317,0,0,0,7.21-21.929c.068,2.841.238,6.5.521,11.275a2.5,2.5,0,0,0,.091.634q-3.986,5.294-7.822,10.02m-48.058,47.383c-.008.08-.041.2-.06.354a10.305,10.305,0,0,0-1.341.477c.475-.276.939-.555,1.4-.831" transform="translate(-32.134 -13.537)" fill="#96999e"/>
    <rect id="Rectángulo_344" data-name="Rectángulo 344" width="307.112" height="2.148" transform="translate(50.229 253.362)" fill="#131313"/>
    <path id="Trazado_1581" data-name="Trazado 1581" d="M313.467.061l-.159.015,1.313,13.014,10.409-7.482-.354-.572A12.4,12.4,0,0,0,313.467.061" transform="translate(-36.407 0)" fill="#f5b015"/>
    <path id="Trazado_1582" data-name="Trazado 1582" d="M51.035,131.917a3.5,3.5,0,1,1-3.5-3.5,3.5,3.5,0,0,1,3.5,3.5" transform="translate(-5.116 -14.922)" fill="#f5b015"/>
    <path id="Trazado_1583" data-name="Trazado 1583" d="M89.031,161.929a2.4,2.4,0,1,1-2.4-2.4,2.4,2.4,0,0,1,2.4,2.4" transform="translate(-9.788 -18.538)" fill="#f5b015"/>
    <path id="Trazado_1584" data-name="Trazado 1584" d="M213.006,4.331a3.5,3.5,0,1,1-3.5-3.5,3.5,3.5,0,0,1,3.5,3.5" transform="translate(-23.938 -0.096)" fill="#f5b015"/>
    <path id="Trazado_1585" data-name="Trazado 1585" d="M359.9,41.388a2.308,2.308,0,1,1-2.308-2.308,2.308,2.308,0,0,1,2.308,2.308" transform="translate(-41.285 -4.541)" fill="#f5b015"/>
    <path id="Trazado_1586" data-name="Trazado 1586" d="M359.587,53.166c-3.093,1.1-4.286,8.46-4.719,11.713a12.407,12.407,0,0,0,1.6,7.313c1.72,3.267,6.478,6.887,8.527,8.117,1.958,1.176,2.61-.879,4.324-2.391A11.566,11.566,0,0,0,372.571,72c1.1-4.318.589-9.4-2.651-12.462-2.386-2.254-7.239-7.472-10.332-6.376" transform="translate(-41.227 -6.161)" fill="#96999e"/>
    <path id="Trazado_1587" data-name="Trazado 1587" d="M365.79,81.006a2.686,2.686,0,0,1-1.067-.4c-2.061-1.238-6.9-4.892-8.681-8.279a12.81,12.81,0,0,1-1.64-7.559c.951-7.158,2.63-11.211,4.992-12.049,2.989-1.057,7.141,2.963,9.886,5.628.316.307.607.589.869.836,3.6,3.395,3.788,8.872,2.769,12.866a11.859,11.859,0,0,1-3.384,6.121,12.222,12.222,0,0,0-1.171,1.24c-.727.848-1.474,1.719-2.573,1.592M360.8,53.4a2.482,2.482,0,0,0-1.129.107c-1.987.705-3.566,4.745-4.446,11.378a11.988,11.988,0,0,0,1.551,7.063c1.686,3.2,6.457,6.8,8.375,7.956,1.08.648,1.573.154,2.584-1.025a12.95,12.95,0,0,1,1.251-1.321,11.072,11.072,0,0,0,3.13-5.706c.961-3.765.8-8.911-2.536-12.059-.263-.25-.559-.535-.876-.844-2.1-2.04-5.421-5.262-7.9-5.549" transform="translate(-41.173 -6.106)" fill="#2e3433"/>
    <path id="Trazado_1588" data-name="Trazado 1588" d="M387.1,97.609a14.249,14.249,0,0,0-3.684-.712,13.339,13.339,0,0,0-9.156,3.746,39.615,39.615,0,0,0-6.28,7.925l-.211,1.941a23.883,23.883,0,0,0,14.7,4.406,10.361,10.361,0,0,0,3.366-.589c2.631-1.024,4.309-3.576,5.681-6.045.941-1.7,5.023-4.575,4.676-6.484-.491-2.713-6.458-3.362-9.088-4.187" transform="translate(-42.736 -11.259)" fill="#96999e"/>
    <path id="Trazado_1589" data-name="Trazado 1589" d="M378.754,115.132a24.211,24.211,0,0,1-11.282-4.341l-.2-.141.247-2.281.056-.084a39.923,39.923,0,0,1,6.35-8.006,13.639,13.639,0,0,1,9.449-3.85,14.459,14.459,0,0,1,3.791.731c.569.179,1.323.354,2.12.54,3.039.708,6.822,1.59,7.252,3.967.259,1.427-1.339,3.059-2.884,4.636a12.792,12.792,0,0,0-1.838,2.122c-1.449,2.609-3.165,5.169-5.893,6.23a10.825,10.825,0,0,1-3.5.618,23.9,23.9,0,0,1-3.672-.141m-10.6-4.875a23.38,23.38,0,0,0,14.242,4.189,10.047,10.047,0,0,0,3.232-.562c2.483-.966,4.1-3.387,5.468-5.86a13.223,13.223,0,0,1,1.971-2.3c1.266-1.294,2.843-2.9,2.661-3.909-.335-1.842-3.971-2.689-6.626-3.309-.812-.189-1.581-.368-2.179-.556a13.717,13.717,0,0,0-3.577-.694,12.826,12.826,0,0,0-8.863,3.64,38.854,38.854,0,0,0-6.156,7.761Z" transform="translate(-42.679 -11.204)" fill="#2e3433"/>
    <path id="Trazado_1590" data-name="Trazado 1590" d="M353.237,90.22c-2.82-1.126-7.313-2.214-9.209.158-1.3,1.629-.511,4.879.117,6.867,1.224,3.88,4.478,6.856,8.123,8.664s7.694,2.6,11.687,3.378l.69-.252A18.806,18.806,0,0,0,353.237,90.22" transform="translate(-39.896 -10.338)" fill="#96999e"/>
    <path id="Trazado_1591" data-name="Trazado 1591" d="M363.934,109.66l-.112-.022c-3.968-.772-8.072-1.57-11.793-3.413-4.223-2.095-7.183-5.259-8.334-8.91-1.1-3.476-1.112-5.915-.045-7.25,2.27-2.841,7.532-1.145,9.685-.285A19.264,19.264,0,0,1,365,109.021l-.026.259ZM348.678,89.388c-1.7-.2-3.419-.009-4.381,1.194-.607.76-1.068,2.5.188,6.484,1.068,3.385,3.951,6.453,7.912,8.417,3.586,1.777,7.591,2.567,11.47,3.321l.336-.123a18.015,18.015,0,0,0-15.525-19.293" transform="translate(-39.842 -10.283)" fill="#2e3433"/>
    <path id="Trazado_1592" data-name="Trazado 1592" d="M348.066,123.654a12.063,12.063,0,0,0-3.733-3.191,8.456,8.456,0,0,0-7.282.445,9.314,9.314,0,0,0-4.321,12.542,14.532,14.532,0,0,0,7.9,7.42,27.34,27.34,0,0,0,10.889,1.794l.747-1.116c.674-3.692,1.338-7.571.158-11.135a20.379,20.379,0,0,0-4.357-6.76" transform="translate(-38.568 -13.925)" fill="#96999e"/>
    <path id="Trazado_1593" data-name="Trazado 1593" d="M346.806,142.8a23.347,23.347,0,0,1-6.394-1.6,14.961,14.961,0,0,1-8.12-7.641,9.727,9.727,0,0,1,4.516-13.072,8.857,8.857,0,0,1,7.646-.452,12.3,12.3,0,0,1,3.867,3.293h0a20.9,20.9,0,0,1,4.438,6.9c1.242,3.751.506,7.783-.142,11.339l-.064.156-.869,1.3-.217,0a37.278,37.278,0,0,1-4.661-.225m-4.657-22.559a8.893,8.893,0,0,0-4.968.984,8.9,8.9,0,0,0-4.126,12.012,14.122,14.122,0,0,0,7.678,7.2,26.552,26.552,0,0,0,10.506,1.763l.578-.863c.628-3.438,1.322-7.324.156-10.846a20.2,20.2,0,0,0-4.277-6.618h0a11.664,11.664,0,0,0-3.6-3.089,6.272,6.272,0,0,0-1.951-.543" transform="translate(-38.512 -13.871)" fill="#2e3433"/>
    <path id="Trazado_1594" data-name="Trazado 1594" d="M378.4,136.332c-4.352-1.289-8.993-2.079-13.277-.582s-12.468,9.164-9.5,10.4c3.363,1.4,13.165,6.2,16.79,5.849,2.971-.286,11.316-4.483,11.616-5.453.691-2.252-2.208-9.2-5.624-10.209" transform="translate(-41.251 -15.68)" fill="#96999e"/>
    <path id="Trazado_1595" data-name="Trazado 1595" d="M371.131,152.32c-3.439-.4-9.288-3-13.323-4.795-.963-.429-1.79-.8-2.4-1.052a1.353,1.353,0,0,1-.886-1.36c.078-2.693,6.617-8.484,10.414-9.808,4.711-1.645,9.707-.556,13.53.576,2.081.616,3.63,3.016,4.368,4.392,1.3,2.43,1.935,5.034,1.534,6.336-.4,1.283-9.123,5.47-11.972,5.744a6.075,6.075,0,0,1-1.263-.033m1.405-16.883a16.393,16.393,0,0,0-7.33.65c-3.624,1.265-9.8,6.932-9.858,9.05a.531.531,0,0,0,.377.573c.617.256,1.449.626,2.42,1.058,4.233,1.883,11.317,5.03,14.17,4.76,2.966-.285,10.848-4.394,11.268-5.182.322-1.053-.312-3.5-1.48-5.682-1.152-2.147-2.564-3.6-3.872-3.989a33.862,33.862,0,0,0-5.693-1.239" transform="translate(-41.196 -15.625)" fill="#2e3433"/>
    <path id="Trazado_1596" data-name="Trazado 1596" d="M327.256,149.183a6.539,6.539,0,0,0-4.369,2.043c-1.807,2.142-1.334,5.369-.392,8.008a30.394,30.394,0,0,0,11.849,15.06l1.111.079a33.458,33.458,0,0,0,3.472-11.948,16.192,16.192,0,0,0-.152-4.881,11,11,0,0,0-11.52-8.361" transform="translate(-37.378 -17.329)" fill="#96999e"/>
    <path id="Trazado_1597" data-name="Trazado 1597" d="M334.154,174.646l-.09-.058a30.735,30.735,0,0,1-12.012-15.268c-.9-2.521-1.549-6.026.465-8.414a6.922,6.922,0,0,1,4.642-2.189,11.443,11.443,0,0,1,11.969,8.687,16.92,16.92,0,0,1,.159,5.006,34.126,34.126,0,0,1-3.516,12.1l-.125.244Zm-4.872-25.093a9.226,9.226,0,0,0-2.036-.012,6.112,6.112,0,0,0-4.1,1.9c-1.761,2.088-1.145,5.287-.318,7.6a29.915,29.915,0,0,0,11.6,14.794l.727.051a33.251,33.251,0,0,0,3.306-11.555,15.387,15.387,0,0,0-.145-4.757,10.66,10.66,0,0,0-9.035-8.022" transform="translate(-37.323 -17.275)" fill="#2e3433"/>
    <path id="Trazado_1598" data-name="Trazado 1598" d="M357.274,165.4a17.8,17.8,0,0,0-4.443-.332A15.091,15.091,0,0,0,344.578,169c-2.361,2.006-4.391,4.374-6.727,6.408l.347.237c1.163,3.587,5.19,5.272,8.8,6.352,4.409,1.319,9.515,2.306,13.34-.254a12.5,12.5,0,0,0,4.294-5.8c.756-1.835,1.284-3.915.619-5.784-1.092-3.069-4.769-4.225-7.98-4.766" transform="translate(-39.259 -19.177)" fill="#96999e"/>
    <path id="Trazado_1599" data-name="Trazado 1599" d="M352.336,183.566a32.743,32.743,0,0,1-5.543-1.223c-3.531-1.055-7.733-2.746-9.032-6.484l-.676-.461.4-.353c1.113-.968,2.177-2.035,3.206-3.067,1.125-1.126,2.286-2.292,3.525-3.344,2.879-2.445,5.734-3.8,8.487-4.032a18.326,18.326,0,0,1,4.547.337c4.658.786,7.374,2.433,8.3,5.036.586,1.647.382,3.637-.626,6.081a12.655,12.655,0,0,1-4.447,5.981,11.9,11.9,0,0,1-8.146,1.53m-13.9-8.251.025.017.043.135c1.125,3.467,5.148,5.072,8.528,6.083,4.083,1.22,9.251,2.3,12.991-.2a11.873,11.873,0,0,0,4.141-5.609c.927-2.247,1.127-4.041.611-5.487-.816-2.294-3.32-3.765-7.657-4.5a17.732,17.732,0,0,0-4.339-.329c-2.578.217-5.276,1.507-8.02,3.838-1.213,1.031-2.363,2.184-3.476,3.3-.916.919-1.86,1.865-2.847,2.752" transform="translate(-39.17 -19.123)" fill="#2e3433"/>
    <path id="Trazado_1600" data-name="Trazado 1600" d="M323.4,187.111a21.152,21.152,0,0,0-4.024-7.282,12.6,12.6,0,0,0-13.506-3.036c-2.271.9-4.376,2.68-4.868,5.072-.649,3.153,1.59,6.105,3.736,8.5,3.08,3.443,6.848,7.052,11.467,6.954a16.715,16.715,0,0,0,3.786-.673l3.511-.906.663-.3a10.866,10.866,0,0,0,.308-4.521,18.817,18.817,0,0,0-1.074-3.816" transform="translate(-34.965 -20.449)" fill="#96999e"/>
    <path id="Trazado_1601" data-name="Trazado 1601" d="M314.894,197.623c-4.108-.475-7.476-3.633-10.516-7.032-2.274-2.543-4.508-5.583-3.833-8.864a7.878,7.878,0,0,1,5.121-5.373,12.955,12.955,0,0,1,13.962,3.137,21.505,21.505,0,0,1,4.111,7.421,19.488,19.488,0,0,1,1.1,3.9,11.314,11.314,0,0,1-.322,4.694l-.053.185-.838.376-3.578.931a16.981,16.981,0,0,1-3.88.684,9.263,9.263,0,0,1-1.268-.058m-3.25-21.219a11.752,11.752,0,0,0-5.673.719,7.066,7.066,0,0,0-4.615,4.771c-.6,2.922,1.5,5.757,3.639,8.145,3.216,3.594,6.784,6.907,11.15,6.816a16.318,16.318,0,0,0,3.691-.659l3.512-.907.418-.192a10.482,10.482,0,0,0,.247-4.166,18.7,18.7,0,0,0-1.052-3.731,20.755,20.755,0,0,0-3.939-7.142,12,12,0,0,0-7.378-3.653" transform="translate(-34.91 -20.393)" fill="#2e3433"/>
    <path id="Trazado_1602" data-name="Trazado 1602" d="M345.5,194.178a24.329,24.329,0,0,0-19.206,4.745l2.028.26c-.644,2.5.557,5.2,2.43,6.986a19.113,19.113,0,0,0,6.754,3.7c3.232,1.186,6.955,2.171,10,.566,2.5-1.318,3.893-4.079,4.705-6.789a8.334,8.334,0,0,0,.386-4.319c-.732-3.007-4.056-4.586-7.1-5.149" transform="translate(-37.917 -22.519)" fill="#96999e"/>
    <path id="Trazado_1603" data-name="Trazado 1603" d="M342.37,211.558a22.822,22.822,0,0,1-5.136-1.353,19.584,19.584,0,0,1-6.9-3.789,8.048,8.048,0,0,1-2.644-6.932l-2.561-.328.776-.611a24.731,24.731,0,0,1,19.536-4.827c4,.739,6.776,2.78,7.427,5.459a8.679,8.679,0,0,1-.392,4.536c-1.052,3.508-2.7,5.875-4.909,7.036a8.779,8.779,0,0,1-5.2.81m-15.144-12.969,1.483.19-.117.453a7.05,7.05,0,0,0,2.316,6.583,18.872,18.872,0,0,0,6.612,3.612c3.141,1.152,6.746,2.124,9.664.588,2-1.053,3.516-3.254,4.5-6.542a7.962,7.962,0,0,0,.38-4.1c-.848-3.486-5.4-4.586-6.772-4.84a23.908,23.908,0,0,0-18.068,4.057" transform="translate(-37.781 -22.465)" fill="#2e3433"/>
    <path id="Trazado_1604" data-name="Trazado 1604" d="M388.766,104.431c-3.536.618-6.985,2.243-10.393,3.367a45.643,45.643,0,0,1-10.667,2.127.3.3,0,0,0-.005.589c3.533.487,7.088-.561,10.42-1.654,3.573-1.171,7.525-2.167,10.837-3.944a.264.264,0,0,0-.191-.485" transform="translate(-42.695 -12.135)" fill="#2e3433"/>
    <path id="Trazado_1605" data-name="Trazado 1605" d="M364.443,107.892c-3.145-.255-6.078-3.814-8.318-5.861-1.849-1.689-3.573-3.533-5.545-5.077-.274-.215-.549.215-.36.45a65.811,65.811,0,0,0,8.515,8.107c1.7,1.47,3.312,3.155,5.7,2.915a.267.267,0,0,0,.006-.534" transform="translate(-40.689 -11.26)" fill="#2e3433"/>
    <path id="Trazado_1606" data-name="Trazado 1606" d="M340.528,127.059c-.352-.213-.808.312-.468.585a29.974,29.974,0,0,1,8.086,8.937c1.229,2.232,1.995,5.058,4.155,6.573.133.094.251-.078.2-.2-2.36-5.987-6.366-12.492-11.977-15.9" transform="translate(-39.502 -14.759)" fill="#2e3433"/>
    <path id="Trazado_1607" data-name="Trazado 1607" d="M379.468,146.179a22.872,22.872,0,0,0-10.99-1.7c-4.537.549-8.109,2.1-12.672.357-.3-.114-.514.379-.224.521a13,13,0,0,0,9.046.853,24.575,24.575,0,0,1,7.143-.87c2.559.185,5.024.977,7.55,1.368a.275.275,0,0,0,.147-.529" transform="translate(-41.304 -16.774)" fill="#2e3433"/>
    <path id="Trazado_1608" data-name="Trazado 1608" d="M333.168,163.761a27.011,27.011,0,0,0-5.106-8.862.144.144,0,0,0-.23.169c2.118,4.468,4.585,8.493,5.865,13.35.582,2.2.6,5.8,3.426,6.225a.308.308,0,0,0,.24-.559c-2.849-1.788-3.03-7.332-4.2-10.323" transform="translate(-38.093 -17.994)" fill="#2e3433"/>
    <path id="Trazado_1609" data-name="Trazado 1609" d="M361.183,173.8a31.764,31.764,0,0,0-9.756-.079c-3.851.541-8.99,3.6-12.742,2.2-.246-.091-.422.311-.183.428,3.048,1.487,5.93-.108,8.983-.912a38.047,38.047,0,0,1,13.576-.781c.488.048.613-.774.122-.859" transform="translate(-39.322 -20.148)" fill="#2e3433"/>
    <path id="Trazado_1610" data-name="Trazado 1610" d="M304.773,182.663c-.213-.081-.362.266-.159.37,7.594,3.884,15.747,6.094,20.3,13.925.3.519,1.12.069.817-.447-4.575-7.786-12.905-10.777-20.962-13.848" transform="translate(-35.386 -21.225)" fill="#2e3433"/>
    <path id="Trazado_1611" data-name="Trazado 1611" d="M347.748,203.2c-3.39-.975-6.859-1.551-10.258-2.606a24.675,24.675,0,0,0-9.431-1.507.334.334,0,0,0-.007.668c3.921.186,7.488,1.334,11.192,2.515,2.664.851,5.676,2,8.5,1.523.312-.054.285-.513.007-.593" transform="translate(-38.084 -23.128)" fill="#2e3433"/>
    <path id="Trazado_1612" data-name="Trazado 1612" d="M357.372,68.128c2.974,9.693,4.747,19.587,4.318,29.757-.476,11.28-3.632,22.081-8.289,32.315-8.757,19.246-21.991,36.283-28.736,56.471-3.359,10.056-5.02,20.619-3.236,31.152.057.337.633.276.6-.071-4.166-44.625,38.876-75.4,41.379-118.76A74.218,74.218,0,0,0,358.7,67.6c-.3-.762-1.572-.255-1.333.523" transform="translate(-37.267 -7.812)" fill="#2e3433"/>
    <path id="Trazado_1613" data-name="Trazado 1613" d="M324.338,221.418a7.244,7.244,0,0,1-.087,1.17,9.032,9.032,0,0,1-4.7,6.583,8.506,8.506,0,0,1-3.043.964,7.012,7.012,0,0,1-.965.063H117.109l-.772-158.831-.063-12.619a7.007,7.007,0,0,1,6.839-6.44H317.524a6.062,6.062,0,0,1,6.21,6.141l.3,79.842.149,40.7.037,10.036Z" transform="translate(-13.511 -6.078)" fill="#2e3433"/>
    <path id="Trazado_1614" data-name="Trazado 1614" d="M317.634,61.133v.175l-.115,14.147-.468,58.658-.39,49.8-.074,8.157-.262,34.293-.02,1.939-.027,2.857v.342H114.34l.818-73.395.925-82.995.027-2.723.127-11.257Z" transform="translate(-13.287 -7.104)" fill="#f5b015"/>
    <path id="Trazado_1615" data-name="Trazado 1615" d="M317.634,61.133v.175l-.115,14.147-.468,58.658-.39,49.8-.074,8.157-.262,34.293-.02,1.939-.027,2.857v.342H114.34l.818-73.395.925-82.995.027-2.723.127-11.257Z" transform="translate(-13.287 -7.104)" fill="none" stroke="#2e3433" stroke-miterlimit="10" stroke-width="1"/>
    <path id="Trazado_1616" data-name="Trazado 1616" d="M308.091,63.93l0,.151-.1,12.249-1.076,135.121H120.374l1.507-135.419.134-12.1Z" transform="translate(-13.988 -7.429)" fill="#fff"/>
    <path id="Trazado_1617" data-name="Trazado 1617" d="M143.96,219.816H130.776a1.842,1.842,0,0,0-1.836,1.806,1.772,1.772,0,0,0,1.777,1.807H143.9a1.842,1.842,0,0,0,1.836-1.807,1.772,1.772,0,0,0-1.777-1.806" transform="translate(-14.983 -25.543)" fill="#2e3433"/>
    <path id="Trazado_1618" data-name="Trazado 1618" d="M172.471,219.816H159.288a1.841,1.841,0,0,0-1.836,1.806,1.771,1.771,0,0,0,1.776,1.807h13.184a1.842,1.842,0,0,0,1.837-1.807,1.772,1.772,0,0,0-1.777-1.806" transform="translate(-18.296 -25.543)" fill="#2e3433"/>
    <path id="Trazado_1619" data-name="Trazado 1619" d="M200.983,219.816H187.8a1.841,1.841,0,0,0-1.836,1.806,1.772,1.772,0,0,0,1.777,1.807h13.184a1.842,1.842,0,0,0,1.837-1.807,1.772,1.772,0,0,0-1.777-1.806" transform="translate(-21.609 -25.543)" fill="#2e3433"/>
    <path id="Trazado_1620" data-name="Trazado 1620" d="M229.495,219.816H216.31a1.843,1.843,0,0,0-1.837,1.806,1.772,1.772,0,0,0,1.777,1.807h13.185a1.842,1.842,0,0,0,1.836-1.807,1.772,1.772,0,0,0-1.777-1.806" transform="translate(-24.922 -25.543)" fill="#2e3433"/>
    <path id="Trazado_1621" data-name="Trazado 1621" d="M258.006,219.816H244.822a1.843,1.843,0,0,0-1.837,1.806,1.772,1.772,0,0,0,1.777,1.807h13.185a1.844,1.844,0,0,0,1.837-1.807,1.772,1.772,0,0,0-1.778-1.806" transform="translate(-28.236 -25.543)" fill="#2e3433"/>
    <path id="Trazado_1622" data-name="Trazado 1622" d="M286.517,219.816H273.333a1.843,1.843,0,0,0-1.836,1.806,1.773,1.773,0,0,0,1.778,1.807H286.46a1.84,1.84,0,0,0,1.834-1.807,1.77,1.77,0,0,0-1.776-1.806" transform="translate(-31.549 -25.543)" fill="#2e3433"/>
    <path id="Trazado_1623" data-name="Trazado 1623" d="M315.03,219.816H301.845a1.843,1.843,0,0,0-1.837,1.806,1.771,1.771,0,0,0,1.776,1.807h13.185a1.843,1.843,0,0,0,1.837-1.807,1.772,1.772,0,0,0-1.777-1.806" transform="translate(-34.862 -25.543)" fill="#2e3433"/>
    <path id="Trazado_1624" data-name="Trazado 1624" d="M274.842,118.072l-1.674-3.926-1.8,3.926-3.928.427,3.051,2.689-1,4.352,3.533-2.262,3.46,2.262-.862-4.352,3.137-2.689Z" transform="translate(-31.077 -13.264)" fill="#d8143b"/>
    <path id="Trazado_1625" data-name="Trazado 1625" d="M308.745,168.394l-1.674-3.925-1.8,3.925-3.927.426,3.051,2.691-1,4.351,3.534-2.263,3.459,2.263-.863-4.351,3.138-2.691Z" transform="translate(-35.017 -19.112)" fill="#d8143b"/>
    <path id="Trazado_1626" data-name="Trazado 1626" d="M192.168,200.636H193L194.953,82.55l-.831-.071Z" transform="translate(-22.331 -9.584)" fill="#2e3433"/>
    <path id="Trazado_1627" data-name="Trazado 1627" d="M224.024,200.636h.832L226.807,82.55l-.828-.071Z" transform="translate(-26.032 -9.584)" fill="#2e3433"/>
    <path id="Trazado_1628" data-name="Trazado 1628" d="M255.881,200.636h.831L258.665,82.55l-.829-.071Z" transform="translate(-29.734 -9.584)" fill="#2e3433"/>
    <path id="Trazado_1629" data-name="Trazado 1629" d="M287.735,200.636h.832L290.52,82.55l-.829-.071Z" transform="translate(-33.436 -9.584)" fill="#2e3433"/>
    <path id="Trazado_1630" data-name="Trazado 1630" d="M130.126,134.133H300.131l-.059-.828H130.067Z" transform="translate(-15.114 -15.49)" fill="#2e3433"/>
    <path id="Trazado_1631" data-name="Trazado 1631" d="M131.226,108.115H301.152l-.058-.828H131.167Z" transform="translate(-15.242 -12.467)" fill="#2e3433"/>
    <path id="Trazado_1632" data-name="Trazado 1632" d="M129.712,159.7H299.717l-.059-.828h-170Z" transform="translate(-15.066 -18.462)" fill="#2e3433"/>
    <path id="Trazado_1633" data-name="Trazado 1633" d="M129.3,185.268h170l-.06-.828h-170Z" transform="translate(-15.018 -21.432)" fill="#2e3433"/>
    <path id="Trazado_1634" data-name="Trazado 1634" d="M128.882,210.837H298.887l-.059-.828H128.822Z" transform="translate(-14.97 -24.404)" fill="#2e3433"/>
    <path id="Trazado_1635" data-name="Trazado 1635" d="M248.175,119.916h-13.29a1.245,1.245,0,0,0-1.242,1.221,1.2,1.2,0,0,0,1.2,1.221h13.29a1.247,1.247,0,0,0,1.243-1.221,1.2,1.2,0,0,0-1.2-1.221" transform="translate(-27.15 -13.935)" fill="#2e3433"/>
    <path id="Trazado_1636" data-name="Trazado 1636" d="M247.188,194.173H232.868a.6.6,0,0,0-.6.589.576.576,0,0,0,.579.589h14.319a.6.6,0,0,0,.6-.589.578.578,0,0,0-.581-.589" transform="translate(-26.991 -22.564)" fill="#2e3433"/>
    <path id="Trazado_1637" data-name="Trazado 1637" d="M247.134,197.473H232.815a.6.6,0,0,0-.6.589.578.578,0,0,0,.58.589h14.32a.6.6,0,0,0,.6-.589.576.576,0,0,0-.579-.589" transform="translate(-26.984 -22.947)" fill="#2e3433"/>
    <path id="Trazado_1638" data-name="Trazado 1638" d="M247.081,200.775h-14.32a.6.6,0,0,0-.6.589.578.578,0,0,0,.58.589h14.32a.6.6,0,0,0,.6-.589.577.577,0,0,0-.579-.589" transform="translate(-26.978 -23.331)" fill="#2e3433"/>
    <path id="Trazado_1639" data-name="Trazado 1639" d="M178.508,138.83H146.861c-.3,0-.539.434-.549.969s.224.969.517.969h31.647c.294,0,.539-.434.549-.969s-.224-.969-.517-.969" transform="translate(-17.002 -16.132)" fill="#2e3433"/>
    <path id="Trazado_1640" data-name="Trazado 1640" d="M156.883,143.36H146.789c-.3,0-.541.435-.55.969s.223.969.516.969h10.1c.294,0,.54-.434.548-.969s-.223-.969-.516-.969" transform="translate(-16.993 -16.659)" fill="#2e3433"/>
    <path id="Trazado_1641" data-name="Trazado 1641" d="M175.083,143.36H160.535c-.294,0-.54.435-.549.969s.224.969.518.969h14.549c.293,0,.539-.434.548-.969s-.223-.969-.518-.969" transform="translate(-18.591 -16.659)" fill="#2e3433"/>
    <path id="Trazado_1642" data-name="Trazado 1642" d="M176.653,168.723H145c-.293,0-.54.433-.548.968s.223.969.518.969h31.646c.294,0,.54-.432.548-.969s-.223-.968-.516-.968" transform="translate(-16.786 -19.606)" fill="#2e3433"/>
    <path id="Trazado_1643" data-name="Trazado 1643" d="M141.257,173.253h-5.533c-.293,0-.539.434-.548.968s.224.97.517.97h5.532c.3,0,.54-.434.55-.97s-.223-.968-.518-.968" transform="translate(-15.708 -20.133)" fill="#2e3433"/>
    <path id="Trazado_1644" data-name="Trazado 1644" d="M155.027,173.253h-10.1c-.294,0-.539.434-.549.968s.224.97.518.97H155c.3,0,.54-.434.548-.97s-.223-.968-.516-.968" transform="translate(-16.778 -20.133)" fill="#2e3433"/>
    <path id="Trazado_1645" data-name="Trazado 1645" d="M173.229,173.253H158.68c-.294,0-.539.434-.548.968s.223.97.517.97H173.2c.294,0,.54-.434.549-.97s-.224-.968-.517-.968" transform="translate(-18.375 -20.133)" fill="#2e3433"/>
    <path id="Trazado_1646" data-name="Trazado 1646" d="M143.04,147.891h-5.532c-.294,0-.54.434-.548.968s.223.97.516.97h5.533c.294,0,.539-.434.549-.97s-.223-.968-.518-.968" transform="translate(-15.915 -17.185)" fill="#2e3433"/>
    <path id="Trazado_1647" data-name="Trazado 1647" d="M175.207,147.891H146.579a.407.407,0,0,0-.406.4l-.019,1.138a.391.391,0,0,0,.392.4h28.63a.408.408,0,0,0,.4-.4l.019-1.138a.392.392,0,0,0-.393-.4" transform="translate(-16.984 -17.185)" fill="#2e3433"/>
    <path id="Trazado_1648" data-name="Trazado 1648" d="M142.966,152.42h-5.533c-.3,0-.54.433-.548.969s.223.969.516.969h5.533c.293,0,.54-.433.548-.969s-.223-.969-.516-.969" transform="translate(-15.907 -17.712)" fill="#2e3433"/>
    <path id="Trazado_1649" data-name="Trazado 1649" d="M159.76,152.42H146.641c-.294,0-.539.433-.549.969s.223.969.518.969h13.118c.3,0,.54-.433.549-.969s-.222-.969-.517-.969" transform="translate(-16.976 -17.712)" fill="#2e3433"/>
    <path id="Trazado_1650" data-name="Trazado 1650" d="M168.7,152.42h-5.2c-.294,0-.54.433-.549.969s.223.969.517.969h5.2c.294,0,.54-.433.548-.969s-.223-.969-.516-.969" transform="translate(-18.935 -17.712)" fill="#2e3433"/>
    <path id="Trazado_1651" data-name="Trazado 1651" d="M158.415,116.063H148.32c-.294,0-.54.434-.549.969s.224.969.517.969h10.095c.3,0,.54-.434.549-.969s-.222-.969-.517-.969" transform="translate(-17.171 -13.487)" fill="#2e3433"/>
    <path id="Trazado_1652" data-name="Trazado 1652" d="M176.615,116.063H162.067c-.294,0-.54.434-.548.969s.223.969.515.969h14.549c.3,0,.54-.434.549-.969s-.224-.969-.517-.969" transform="translate(-18.769 -13.487)" fill="#2e3433"/>
    <path id="Trazado_1653" data-name="Trazado 1653" d="M144.571,120.593h-5.533c-.293,0-.54.434-.548.97s.223.968.516.968h5.533c.3,0,.54-.433.548-.968s-.223-.97-.516-.97" transform="translate(-16.093 -14.013)" fill="#2e3433"/>
    <path id="Trazado_1654" data-name="Trazado 1654" d="M176.739,120.593H148.111a.408.408,0,0,0-.407.4l-.019,1.138a.392.392,0,0,0,.393.4h28.628a.408.408,0,0,0,.407-.4l.019-1.138a.393.393,0,0,0-.393-.4" transform="translate(-17.162 -14.013)" fill="#2e3433"/>
    <path id="Trazado_1655" data-name="Trazado 1655" d="M144.5,125.123h-5.533c-.3,0-.54.433-.549.969s.223.969.517.969h5.533c.293,0,.539-.433.548-.969s-.223-.969-.516-.969" transform="translate(-16.084 -14.54)" fill="#2e3433"/>
    <path id="Trazado_1656" data-name="Trazado 1656" d="M161.292,125.123h-13.12c-.293,0-.539.433-.548.969s.223.969.517.969H161.26c.294,0,.54-.433.548-.969s-.223-.969-.516-.969" transform="translate(-17.154 -14.54)" fill="#2e3433"/>
    <path id="Trazado_1657" data-name="Trazado 1657" d="M170.233,125.123h-5.2c-.3,0-.541.433-.55.969s.223.969.518.969h5.2c.294,0,.541-.433.549-.969s-.223-.969-.517-.969" transform="translate(-19.113 -14.54)" fill="#2e3433"/>
    <path id="Trazado_1658" data-name="Trazado 1658" d="M158.982,89.929h-10.1c-.293,0-.539.434-.548.969s.223.969.516.969h10.1c.294,0,.539-.434.549-.969s-.223-.969-.517-.969" transform="translate(-17.237 -10.45)" fill="#2e3433"/>
    <path id="Trazado_1659" data-name="Trazado 1659" d="M177.183,89.929H162.634c-.293,0-.54.434-.548.969s.223.969.516.969h14.549c.294,0,.539-.434.549-.969s-.224-.969-.517-.969" transform="translate(-18.835 -10.45)" fill="#2e3433"/>
    <path id="Trazado_1660" data-name="Trazado 1660" d="M145.138,94.459h-5.532c-.294,0-.54.434-.548.97s.222.968.516.968h5.532c.3,0,.54-.433.549-.968s-.223-.97-.517-.97" transform="translate(-16.159 -10.976)" fill="#2e3433"/>
    <path id="Trazado_1661" data-name="Trazado 1661" d="M177.306,94.459H148.678a.407.407,0,0,0-.406.4L148.254,96a.392.392,0,0,0,.392.4h28.628a.409.409,0,0,0,.407-.4l.018-1.138a.392.392,0,0,0-.393-.4" transform="translate(-17.228 -10.976)" fill="#2e3433"/>
    <path id="Trazado_1662" data-name="Trazado 1662" d="M145.064,98.989h-5.533c-.294,0-.54.433-.549.969s.224.969.517.969h5.533c.294,0,.54-.433.548-.969s-.223-.969-.516-.969" transform="translate(-16.15 -11.503)" fill="#2e3433"/>
    <path id="Trazado_1663" data-name="Trazado 1663" d="M161.858,98.989h-13.12c-.293,0-.539.433-.548.969s.223.969.517.969h13.119c.3,0,.54-.433.548-.969s-.223-.969-.516-.969" transform="translate(-17.22 -11.503)" fill="#2e3433"/>
    <path id="Trazado_1664" data-name="Trazado 1664" d="M170.8,98.989h-5.2c-.3,0-.541.433-.549.969s.223.969.517.969h5.2c.3,0,.541-.433.549-.969s-.222-.969-.517-.969" transform="translate(-19.179 -11.503)" fill="#2e3433"/>
    <path id="Trazado_1665" data-name="Trazado 1665" d="M156.179,193.179h-10.1c-.294,0-.539.434-.549.97s.224.969.518.969h10.095c.293,0,.54-.433.548-.969s-.223-.97-.516-.97" transform="translate(-16.912 -22.448)" fill="#2e3433"/>
    <path id="Trazado_1666" data-name="Trazado 1666" d="M174.381,193.179H159.832c-.3,0-.539.434-.549.97s.223.969.517.969h14.549c.294,0,.54-.433.548-.969s-.223-.97-.516-.97" transform="translate(-18.509 -22.448)" fill="#2e3433"/>
    <path id="Trazado_1667" data-name="Trazado 1667" d="M142.337,197.71H136.8c-.293,0-.539.434-.549.969s.223.969.517.969H142.3c.3,0,.541-.434.549-.969s-.224-.969-.516-.969" transform="translate(-15.833 -22.974)" fill="#2e3433"/>
    <path id="Trazado_1668" data-name="Trazado 1668" d="M174.505,197.71H145.876a.407.407,0,0,0-.406.4l-.019,1.138a.391.391,0,0,0,.392.4h28.629a.409.409,0,0,0,.407-.4l.018-1.138a.391.391,0,0,0-.392-.4" transform="translate(-16.902 -22.974)" fill="#2e3433"/>
    <path id="Trazado_1669" data-name="Trazado 1669" d="M142.262,202.24H136.73c-.293,0-.538.434-.548.969s.223.969.516.969h5.534c.293,0,.538-.434.547-.969s-.224-.969-.517-.969" transform="translate(-15.825 -23.501)" fill="#2e3433"/>
    <path id="Trazado_1670" data-name="Trazado 1670" d="M159.058,202.24h-13.12c-.293,0-.539.434-.549.969s.224.969.518.969h13.118c.294,0,.539-.434.549-.969s-.223-.969-.516-.969" transform="translate(-16.895 -23.501)" fill="#2e3433"/>
    <path id="Trazado_1671" data-name="Trazado 1671" d="M168,202.24h-5.2c-.3,0-.54.434-.549.969s.224.969.517.969h5.2c.3,0,.54-.434.55-.969s-.223-.969-.518-.969" transform="translate(-18.854 -23.501)" fill="#2e3433"/>
    <path id="Trazado_1672" data-name="Trazado 1672" d="M141.19,177.448h-5.533c-.294,0-.54.433-.549.969s.223.969.516.969h5.533c.294,0,.539-.435.548-.969s-.223-.969-.516-.969" transform="translate(-15.7 -20.62)" fill="#2e3433"/>
    <path id="Trazado_1673" data-name="Trazado 1673" d="M157.984,177.448h-13.12c-.293,0-.539.433-.548.969s.223.969.517.969h13.119c.293,0,.539-.435.548-.969s-.223-.969-.516-.969" transform="translate(-16.77 -20.62)" fill="#2e3433"/>
    <path id="Trazado_1674" data-name="Trazado 1674" d="M166.924,177.448h-5.2c-.293,0-.54.433-.548.969s.223.969.518.969h5.2c.293,0,.539-.435.548-.969s-.223-.969-.518-.969" transform="translate(-18.729 -20.62)" fill="#2e3433"/>
    <path id="Trazado_1675" data-name="Trazado 1675" d="M186.056,164.636H169.872a.46.46,0,0,0-.458.451l-.016,1.037a.44.44,0,0,0,.443.45h16.183a.459.459,0,0,0,.458-.45l.016-1.037a.44.44,0,0,0-.442-.451" transform="translate(-19.685 -19.131)" fill="#2e3433"/>
    <path id="Trazado_1676" data-name="Trazado 1676" d="M158.192,164.636h-13.12c-.293,0-.539.434-.549.969s.224.969.518.969H158.16c.294,0,.54-.432.548-.969s-.223-.969-.516-.969" transform="translate(-16.794 -19.131)" fill="#2e3433"/>
    <path id="Trazado_1677" data-name="Trazado 1677" d="M167.133,164.636h-5.2c-.293,0-.539.434-.548.969s.223.969.517.969h5.2c.294,0,.54-.432.549-.969s-.222-.969-.517-.969" transform="translate(-18.753 -19.131)" fill="#2e3433"/>
    <path id="Trazado_1678" data-name="Trazado 1678" d="M206.234,174.9l-.544.575c-.181.19-.163.124-.255.164a.343.343,0,0,1-.333-.137l-3.539-5.329a2.2,2.2,0,0,0-.133-.178,1.7,1.7,0,0,0-2.351-.282,1.634,1.634,0,0,0-.117,2.329l2.2,2.584,1.1,1.292.551.645.293.344a3.076,3.076,0,0,0,.564.523,2.781,2.781,0,0,0,2.781.314,2.492,2.492,0,0,0,.961-.819l.461-.645,1.843-2.576,7.374-10.305-8.687,9.2Z" transform="translate(-23.07 -18.988)" fill="#d8143b"/>
    <path id="Trazado_1679" data-name="Trazado 1679" d="M271.126,199.422l-.544.575c-.182.191-.163.125-.255.164a.345.345,0,0,1-.333-.137l-3.539-5.329a2.093,2.093,0,0,0-.133-.177,1.693,1.693,0,0,0-2.35-.283,1.636,1.636,0,0,0-.118,2.33l2.2,2.583,1.1,1.292.551.645.294.346a3.034,3.034,0,0,0,.564.521,2.776,2.776,0,0,0,2.78.315,2.485,2.485,0,0,0,.961-.819l.461-.644,1.844-2.577,7.373-10.305-8.685,9.2Z" transform="translate(-30.611 -21.837)" fill="#d8143b"/>
    <path id="Trazado_1680" data-name="Trazado 1680" d="M292.226,202.355l13.7,2.944,3.17-13.738-13.7-2.945Z" transform="translate(-33.958 -21.918)" fill="#f5b015"/>
    <path id="Trazado_1681" data-name="Trazado 1681" d="M302.6,191.3a.805.805,0,0,0-.807.787.774.774,0,0,0,.774.794.806.806,0,0,0,.807-.786.775.775,0,0,0-.774-.795" transform="translate(-35.07 -22.23)"/>
    <path id="Trazado_1682" data-name="Trazado 1682" d="M230.418,139.879l4.164,13.738,13.489-2.944-4.164-13.737Z" transform="translate(-26.775 -15.912)" fill="#f5b015"/>
    <path id="Trazado_1683" data-name="Trazado 1683" d="M238.883,139.62a.714.714,0,0,0-.717.795.88.88,0,0,0,.864.786.711.711,0,0,0,.717-.793.882.882,0,0,0-.864-.787" transform="translate(-27.675 -16.224)"/>
    <path id="Trazado_1684" data-name="Trazado 1684" d="M299.7,89.061l4.164,13.738,13.488-2.944-4.164-13.737Z" transform="translate(-34.826 -10.007)" fill="#f5b015"/>
    <path id="Trazado_1685" data-name="Trazado 1685" d="M308.166,88.8a.712.712,0,0,0-.717.795.881.881,0,0,0,.864.786.712.712,0,0,0,.717-.794.881.881,0,0,0-.864-.787" transform="translate(-35.726 -10.319)"/>
    <path id="Trazado_1686" data-name="Trazado 1686" d="M210.66,200.552l.537.789-.711.483-.518-.76a2.73,2.73,0,0,1-2.112.47l.2-1.065a1.944,1.944,0,0,0,1.407-.34l-.868-1.274-.245.125a2.036,2.036,0,0,1-1.259.239,1.584,1.584,0,0,1-1.025-.734,1.8,1.8,0,0,1,.437-2.5l-.431-.634.711-.484.427.627a2.487,2.487,0,0,1,1.78-.368l-.2,1.035a1.7,1.7,0,0,0-1.1.252l.834,1.225.3-.141a2.067,2.067,0,0,1,1.226-.258,1.68,1.68,0,0,1,1.107.793,1.839,1.839,0,0,1-.5,2.523m-3.482-3.781a.755.755,0,0,0-.191,1.037.585.585,0,0,0,.392.259,1.01,1.01,0,0,0,.6-.119Zm2.6,1.621a1.033,1.033,0,0,0-.625.157l.825,1.211c.389-.337.477-.706.242-1.051a.675.675,0,0,0-.443-.317" transform="translate(-23.908 -22.644)" fill="#d8143b"/>
    <path id="Trazado_1687" data-name="Trazado 1687" d="M204.3,189.243a.393.393,0,0,1-.179.513l-1.669,1.1a.39.39,0,0,1-.541-.038l-.643-.978a.391.391,0,0,1,.179-.513l1.668-1.1a.39.39,0,0,1,.541.038Z" transform="translate(-23.383 -21.862)" fill="#f5b015"/>
    <path id="Trazado_1688" data-name="Trazado 1688" d="M211.1,202.705a5.732,5.732,0,1,1-6.3-9.577.955.955,0,0,0-1.049-1.6,7.641,7.641,0,1,0,8.4,12.766.954.954,0,1,0-1.049-1.594" transform="translate(-23.277 -22.239)" fill="#d8143b"/>
    <rect id="Rectángulo_345" data-name="Rectángulo 345" width="1.226" height="1.181" transform="translate(190.07 171.398) rotate(-33.323)" fill="#f5b015"/>
    <path id="Trazado_1689" data-name="Trazado 1689" d="M214.865,194.732a.59.59,0,1,0,.169-.818.59.59,0,0,0-.169.818" transform="translate(-24.957 -22.522)" fill="#f5b015"/>
    <path id="Trazado_1690" data-name="Trazado 1690" d="M215.982,194a.59.59,0,1,0,.169-.818.589.589,0,0,0-.169.818" transform="translate(-25.087 -22.437)" fill="#f5b015"/>
    <rect id="Rectángulo_346" data-name="Rectángulo 346" width="1.226" height="1.181" transform="matrix(0.337, -0.941, 0.941, 0.337, 187.173, 169.352)" fill="#f5b015"/>
    <path id="Trazado_1691" data-name="Trazado 1691" d="M212.139,192.311a.59.59,0,1,0-.357-.755.59.59,0,0,0,.357.755" transform="translate(-24.606 -22.214)" fill="#f5b015"/>
    <path id="Trazado_1692" data-name="Trazado 1692" d="M212.589,191.053a.59.59,0,1,0-.357-.755.59.59,0,0,0,.357.755" transform="translate(-24.658 -22.068)" fill="#f5b015"/>
    <rect id="Rectángulo_347" data-name="Rectángulo 347" width="1.181" height="1.226" transform="matrix(0.998, -0.069, 0.069, 0.998, 183.504, 167.852)" fill="#f5b015"/>
    <path id="Trazado_1693" data-name="Trazado 1693" d="M208.355,191.759a.59.59,0,1,0-.63-.548.591.591,0,0,0,.63.548" transform="translate(-24.138 -22.146)" fill="#f5b015"/>
    <path id="Trazado_1694" data-name="Trazado 1694" d="M208.263,190.427a.59.59,0,1,0-.63-.548.591.591,0,0,0,.63.548" transform="translate(-24.127 -21.991)" fill="#f5b015"/>
    <rect id="Rectángulo_348" data-name="Rectángulo 348" width="1.226" height="1.181" transform="translate(191.374 174.519) rotate(-1.942)" fill="#f5b015"/>
    <path id="Trazado_1695" data-name="Trazado 1695" d="M215.9,198.075a.59.59,0,1,0,.57-.61.59.59,0,0,0-.57.61" transform="translate(-25.089 -22.946)" fill="#f5b015"/>
    <path id="Trazado_1696" data-name="Trazado 1696" d="M217.238,198.029a.59.59,0,1,0,.57-.61.59.59,0,0,0-.57.61" transform="translate(-25.244 -22.941)" fill="#f5b015"/>
    <rect id="Rectángulo_349" data-name="Rectángulo 349" width="1.181" height="1.226" transform="translate(190.146 178.978) rotate(-64.063)" fill="#f5b015"/>
    <path id="Trazado_1697" data-name="Trazado 1697" d="M214.841,201.578a.591.591,0,1,0,.789-.273.591.591,0,0,0-.789.273" transform="translate(-24.958 -23.385)" fill="#f5b015"/>
    <path id="Trazado_1698" data-name="Trazado 1698" d="M216.043,202.162a.591.591,0,1,0,.789-.273.591.591,0,0,0-.789.273" transform="translate(-25.098 -23.453)" fill="#f5b015"/>
    <path id="Trazado_1699" data-name="Trazado 1699" d="M273.52,150.436l-.22.929-.837-.2.212-.9a2.732,2.732,0,0,1-1.773-1.242l.923-.57a1.945,1.945,0,0,0,1.2.81l.354-1.5-.257-.1a2.031,2.031,0,0,1-1.026-.768,1.577,1.577,0,0,1-.15-1.252,1.8,1.8,0,0,1,2.143-1.365l.177-.747.838.2-.175.738a2.491,2.491,0,0,1,1.472,1.066l-.9.55a1.7,1.7,0,0,0-.925-.64l-.341,1.442.3.125a2.068,2.068,0,0,1,1.018.731,1.68,1.68,0,0,1,.162,1.351,1.839,1.839,0,0,1-2.2,1.335m.441-5.122a.756.756,0,0,0-.894.559.587.587,0,0,0,.073.464,1.012,1.012,0,0,0,.492.361Zm.557,3.012a1.025,1.025,0,0,0-.537-.354l-.338,1.426c.511.06.844-.125.94-.53a.673.673,0,0,0-.065-.541" transform="translate(-31.48 -16.68)" fill="#d8143b"/>
    <path id="Trazado_1700" data-name="Trazado 1700" d="M277.839,138.163a.392.392,0,0,1-.5.213l-1.935-.491a.39.39,0,0,1-.337-.425l.287-1.136a.392.392,0,0,1,.5-.213l1.935.491a.391.391,0,0,1,.338.425Z" transform="translate(-31.963 -15.815)" fill="#f5b015"/>
    <path id="Trazado_1701" data-name="Trazado 1701" d="M271.726,152.459a5.732,5.732,0,0,1,2.818-11.112.955.955,0,0,0,.469-1.851,7.641,7.641,0,1,0-3.757,14.813.955.955,0,0,0,.469-1.851" transform="translate(-30.851 -16.183)" fill="#d8143b"/>
    <rect id="Rectángulo_350" data-name="Rectángulo 350" width="1.181" height="1.226" transform="translate(248.793 132.958) rotate(-75.774)" fill="#f5b015"/>
    <path id="Trazado_1702" data-name="Trazado 1702" d="M281.031,149.57a.59.59,0,1,0,.718-.427.591.591,0,0,0-.718.427" transform="translate(-32.654 -17.329)" fill="#f5b015"/>
    <path id="Trazado_1703" data-name="Trazado 1703" d="M282.326,149.9a.59.59,0,1,0,.718-.426.592.592,0,0,0-.718.426" transform="translate(-32.805 -17.367)" fill="#f5b015"/>
    <rect id="Rectángulo_351" data-name="Rectángulo 351" width="1.226" height="1.181" transform="translate(248.639 128.295) rotate(-22.738)" fill="#f5b015"/>
    <path id="Trazado_1704" data-name="Trazado 1704" d="M280.977,145.924a.59.59,0,1,0,.316-.772.59.59,0,0,0-.316.772" transform="translate(-32.645 -16.862)" fill="#f5b015"/>
    <path id="Trazado_1705" data-name="Trazado 1705" d="M282.209,145.408a.59.59,0,1,0,.316-.772.59.59,0,0,0-.316.772" transform="translate(-32.788 -16.802)" fill="#f5b015"/>
    <rect id="Rectángulo_352" data-name="Rectángulo 352" width="1.226" height="1.181" transform="matrix(0.69, -0.724, 0.724, 0.69, 246.425, 125.462)" fill="#f5b015"/>
    <path id="Trazado_1706" data-name="Trazado 1706" d="M278.832,142.759a.59.59,0,1,0-.02-.835.592.592,0,0,0,.02.835" transform="translate(-32.38 -16.471)" fill="#f5b015"/>
    <path id="Trazado_1707" data-name="Trazado 1707" d="M279.753,141.792a.59.59,0,1,0-.02-.835.591.591,0,0,0,.02.835" transform="translate(-32.487 -16.358)" fill="#f5b015"/>
    <rect id="Rectángulo_353" data-name="Rectángulo 353" width="1.181" height="1.226" transform="matrix(0.715, -0.699, 0.699, 0.715, 246.815, 135.707)" fill="#f5b015"/>
    <path id="Trazado_1708" data-name="Trazado 1708" d="M279.263,152.591a.59.59,0,1,0,.835.009.591.591,0,0,0-.835-.009" transform="translate(-32.431 -17.712)" fill="#f5b015"/>
    <path id="Trazado_1709" data-name="Trazado 1709" d="M280.2,153.546a.59.59,0,1,0,.835.009.591.591,0,0,0-.835-.009" transform="translate(-32.539 -17.823)" fill="#f5b015"/>
    <rect id="Rectángulo_354" data-name="Rectángulo 354" width="1.181" height="1.226" transform="translate(243.539 136.983) rotate(-16.502)" fill="#f5b015"/>
    <path id="Trazado_1710" data-name="Trazado 1710" d="M275.96,154.172a.59.59,0,1,0,.734.4.59.59,0,0,0-.734-.4" transform="translate(-32.018 -17.912)" fill="#f5b015"/>
    <path id="Trazado_1711" data-name="Trazado 1711" d="M276.339,155.453a.59.59,0,1,0,.734.4.59.59,0,0,0-.734-.4" transform="translate(-32.062 -18.061)" fill="#f5b015"/>
    <path id="Trazado_1712" data-name="Trazado 1712" d="M287.91,54.709a4.575,4.575,0,0,0-4.244,3.756,3.456,3.456,0,0,0,.667,2.81,3.012,3.012,0,0,0,2.37,1.076,4.574,4.574,0,0,0,4.246-3.757,3.453,3.453,0,0,0-.667-2.808,3.021,3.021,0,0,0-2.372-1.076" transform="translate(-32.956 -6.357)" fill="#2e3433"/>
    <path id="Trazado_1713" data-name="Trazado 1713" d="M300.692,54.709a4.574,4.574,0,0,0-4.245,3.757,3.448,3.448,0,0,0,.667,2.809,3.015,3.015,0,0,0,2.371,1.076,4.569,4.569,0,0,0,4.243-3.756,3.444,3.444,0,0,0-.665-2.809,3.017,3.017,0,0,0-2.371-1.076" transform="translate(-34.441 -6.357)" fill="#2e3433"/>
    <path id="Trazado_1714" data-name="Trazado 1714" d="M307.425,46.045c-.026-.251-.07-.486-.108-.732a12.421,12.421,0,0,0-.467-1.357,13.2,13.2,0,0,0-1.407-2.594c-.039-.055-.087-.105-.127-.159-.2-.272-.415-.541-.646-.8l-.006-.007c-.207-.233-.428-.46-.657-.681-.093-.089-.19-.174-.285-.261q-.265-.241-.551-.472c-.095-.077-.189-.155-.287-.229-.289-.22-.588-.435-.9-.637-.214-.133-.427-.246-.641-.363v0a13.255,13.255,0,0,0-16.825,3.432,12.4,12.4,0,0,0-.6,14.152,5.78,5.78,0,0,0,2.24,2.368,2,2,0,0,0,2.313-.573c.746-.991.157-1.9-.625-2.9a8.23,8.23,0,0,1-1.443-2.824,9.011,9.011,0,0,1,5.626-10.825,9.18,9.18,0,0,1,6.87.247l0,0a8.459,8.459,0,0,1,1.964,1.207,7.549,7.549,0,0,1,.666.616c.038.04.076.08.112.119.171.184.331.38.486.582.049.065.1.13.147.2a7.474,7.474,0,0,1,.4.635c.038.068.081.132.118.2a7.935,7.935,0,0,1,.417.917,9.981,9.981,0,0,1-.235,5.11h4.122a12.572,12.572,0,0,0,.337-4.378" transform="translate(-32.766 -4.193)" fill="#fff"/>
    <path id="Trazado_1715" data-name="Trazado 1715" d="M307.425,46.045c-.026-.251-.07-.486-.108-.732a12.421,12.421,0,0,0-.467-1.357,13.2,13.2,0,0,0-1.407-2.594c-.039-.055-.087-.105-.127-.159-.2-.272-.415-.541-.646-.8l-.006-.007c-.207-.233-.428-.46-.657-.681-.093-.089-.19-.174-.285-.261q-.265-.241-.551-.472c-.095-.077-.189-.155-.287-.229-.289-.22-.588-.435-.9-.637-.214-.133-.427-.246-.641-.363v0a13.255,13.255,0,0,0-16.825,3.432,12.4,12.4,0,0,0-.6,14.152,5.78,5.78,0,0,0,2.24,2.368,2,2,0,0,0,2.313-.573c.746-.991.157-1.9-.625-2.9a8.23,8.23,0,0,1-1.443-2.824,9.011,9.011,0,0,1,5.626-10.825,9.18,9.18,0,0,1,6.87.247l0,0a8.459,8.459,0,0,1,1.964,1.207,7.549,7.549,0,0,1,.666.616c.038.04.076.08.112.119.171.184.331.38.486.582.049.065.1.13.147.2a7.474,7.474,0,0,1,.4.635c.038.068.081.132.118.2a7.935,7.935,0,0,1,.417.917,9.981,9.981,0,0,1-.235,5.11h4.122A12.572,12.572,0,0,0,307.425,46.045Z" transform="translate(-32.766 -4.193)" fill="none" stroke="#2e3433" stroke-miterlimit="10" stroke-width="1"/>
    <path id="Trazado_1716" data-name="Trazado 1716" d="M319.978,45.314h.047a12.237,12.237,0,0,0-5.34-7.2,13.243,13.243,0,0,0-17.465,3.069,12.4,12.4,0,0,0-.6,14.153A5.779,5.779,0,0,0,298.86,57.7a1.994,1.994,0,0,0,2.314-.573c.747-.99.159-1.9-.623-2.894a8.238,8.238,0,0,1-1.445-2.824,8.537,8.537,0,0,1,.812-6.7,7.952,7.952,0,0,0,.675-.855,8.139,8.139,0,0,1,1.74-1.811,6.533,6.533,0,0,1,.545-.384,8.648,8.648,0,0,1,3.262-1.266,9.272,9.272,0,0,1,8.725,3.546,9.175,9.175,0,0,1,1.762,6.483h3.9a12.631,12.631,0,0,0-.552-5.107" transform="translate(-34.243 -4.191)" fill="#fff"/>
    <path id="Trazado_1717" data-name="Trazado 1717" d="M319.978,45.314h.047a12.237,12.237,0,0,0-5.34-7.2,13.243,13.243,0,0,0-17.465,3.069,12.4,12.4,0,0,0-.6,14.153A5.779,5.779,0,0,0,298.86,57.7a1.994,1.994,0,0,0,2.314-.573c.747-.99.159-1.9-.623-2.894a8.238,8.238,0,0,1-1.445-2.824,8.537,8.537,0,0,1,.812-6.7,7.952,7.952,0,0,0,.675-.855,8.139,8.139,0,0,1,1.74-1.811,6.533,6.533,0,0,1,.545-.384,8.648,8.648,0,0,1,3.262-1.266,9.272,9.272,0,0,1,8.725,3.546,9.175,9.175,0,0,1,1.762,6.483h3.9A12.631,12.631,0,0,0,319.978,45.314Z" transform="translate(-34.243 -4.191)" fill="none" stroke="#2e3433" stroke-miterlimit="10" stroke-width="1"/>
    <path id="Trazado_1718" data-name="Trazado 1718" d="M130.749,54.709a4.571,4.571,0,0,0-4.243,3.756,3.452,3.452,0,0,0,.666,2.81,3.015,3.015,0,0,0,2.372,1.076,4.573,4.573,0,0,0,4.244-3.757,3.447,3.447,0,0,0-.667-2.808,3.018,3.018,0,0,0-2.371-1.076" transform="translate(-14.693 -6.357)" fill="#2e3433"/>
    <path id="Trazado_1719" data-name="Trazado 1719" d="M143.531,54.709a4.576,4.576,0,0,0-4.246,3.757,3.449,3.449,0,0,0,.668,2.809,3.015,3.015,0,0,0,2.371,1.076,4.569,4.569,0,0,0,4.243-3.756,3.447,3.447,0,0,0-.665-2.809,3.021,3.021,0,0,0-2.372-1.076" transform="translate(-16.178 -6.357)" fill="#2e3433"/>
    <path id="Trazado_1720" data-name="Trazado 1720" d="M150.26,46.045c-.021-.25-.069-.484-.106-.729h0a12.238,12.238,0,0,0-2.632-4.9c-.007-.008-.012-.017-.019-.024-.21-.238-.436-.468-.671-.693-.084-.081-.173-.159-.261-.239-.179-.162-.364-.32-.555-.475-.1-.082-.205-.165-.311-.246-.276-.209-.561-.413-.863-.606l-.029-.02c-.013-.009-.028-.015-.043-.024-.2-.123-.394-.23-.594-.34l0,0a13.252,13.252,0,0,0-16.826,3.431,12.4,12.4,0,0,0-.6,14.152,5.761,5.761,0,0,0,2.24,2.368,1.993,1.993,0,0,0,2.312-.573c.747-.991.159-1.9-.623-2.9a8.2,8.2,0,0,1-1.444-2.824,9.012,9.012,0,0,1,5.626-10.825,9.183,9.183,0,0,1,6.872.247l0,0a8.409,8.409,0,0,1,1.964,1.206l0,0a8,8,0,0,1,.643.595c.051.054.1.108.153.163.154.167.3.344.438.526.064.083.128.164.188.251.124.175.235.361.346.55.056.095.115.186.167.285a7.746,7.746,0,0,1,.359.791c.015.038.035.071.049.109a9.961,9.961,0,0,1-.235,5.107h4.117a12.294,12.294,0,0,0,.337-4.378" transform="translate(-14.504 -4.193)" fill="#fff"/>
    <path id="Trazado_1721" data-name="Trazado 1721" d="M150.26,46.045c-.021-.25-.069-.484-.106-.729h0a12.238,12.238,0,0,0-2.632-4.9c-.007-.008-.012-.017-.019-.024-.21-.238-.436-.468-.671-.693-.084-.081-.173-.159-.261-.239-.179-.162-.364-.32-.555-.475-.1-.082-.205-.165-.311-.246-.276-.209-.561-.413-.863-.606l-.029-.02c-.013-.009-.028-.015-.043-.024-.2-.123-.394-.23-.594-.34l0,0a13.252,13.252,0,0,0-16.826,3.431,12.4,12.4,0,0,0-.6,14.152,5.761,5.761,0,0,0,2.24,2.368,1.993,1.993,0,0,0,2.312-.573c.747-.991.159-1.9-.623-2.9a8.2,8.2,0,0,1-1.444-2.824,9.012,9.012,0,0,1,5.626-10.825,9.183,9.183,0,0,1,6.872.247l0,0a8.409,8.409,0,0,1,1.964,1.206l0,0a8,8,0,0,1,.643.595c.051.054.1.108.153.163.154.167.3.344.438.526.064.083.128.164.188.251.124.175.235.361.346.55.056.095.115.186.167.285a7.746,7.746,0,0,1,.359.791c.015.038.035.071.049.109a9.961,9.961,0,0,1-.235,5.107h4.117A12.294,12.294,0,0,0,150.26,46.045Z" transform="translate(-14.504 -4.193)" fill="none" stroke="#2e3433" stroke-miterlimit="10" stroke-width="1"/>
    <path id="Trazado_1722" data-name="Trazado 1722" d="M162.82,45.314h.044a12.243,12.243,0,0,0-5.341-7.2,13.243,13.243,0,0,0-17.465,3.069,12.4,12.4,0,0,0-.6,14.153A5.77,5.77,0,0,0,141.7,57.7a1.993,1.993,0,0,0,2.313-.573c.747-.99.159-1.9-.624-2.894a8.253,8.253,0,0,1-1.445-2.824,8.547,8.547,0,0,1,.818-6.712,7.884,7.884,0,0,0,.668-.846,7.934,7.934,0,0,1,1.746-1.811,6.374,6.374,0,0,1,.544-.384,8.652,8.652,0,0,1,3.263-1.266,9.124,9.124,0,0,1,10.487,10.028h3.9a12.648,12.648,0,0,0-.552-5.107" transform="translate(-15.98 -4.191)" fill="#fff"/>
    <path id="Trazado_1723" data-name="Trazado 1723" d="M162.82,45.314h.044a12.243,12.243,0,0,0-5.341-7.2,13.243,13.243,0,0,0-17.465,3.069,12.4,12.4,0,0,0-.6,14.153A5.77,5.77,0,0,0,141.7,57.7a1.993,1.993,0,0,0,2.313-.573c.747-.99.159-1.9-.624-2.894a8.253,8.253,0,0,1-1.445-2.824,8.547,8.547,0,0,1,.818-6.712,7.884,7.884,0,0,0,.668-.846,7.934,7.934,0,0,1,1.746-1.811,6.374,6.374,0,0,1,.544-.384,8.652,8.652,0,0,1,3.263-1.266,9.124,9.124,0,0,1,10.487,10.028h3.9A12.648,12.648,0,0,0,162.82,45.314Z" transform="translate(-15.98 -4.191)" fill="none" stroke="#2e3433" stroke-miterlimit="10" stroke-width="1"/>
    <path id="Trazado_1724" data-name="Trazado 1724" d="M141.735,102.235s-40.355,13.557-34.863,60.081-2.417,103.214-2.417,103.214h23s40.977-55.244,10.781-96.637,3.5-66.659,3.5-66.659" transform="translate(-12.138 -11.88)" fill="#f5b015"/>
    <path id="Trazado_1725" data-name="Trazado 1725" d="M103.781,265.221c.079-.566,7.833-57.152,2.415-103.063-5.484-46.464,34.854-60.575,35.263-60.711l3.481-1.17-2.938,2.2c-.332.248-32.881,25.383-3.372,65.836,30.1,41.267-10.372,96.783-10.784,97.339l-.178.239H103.686Zm33.894-96.206c-24.949-34.2-6.424-57.786.951-65.088-9.364,4.428-35.706,20.378-31.255,58.092,5.116,43.348-1.466,96.139-2.328,102.693h22.027c2.857-4,39.2-56.5,10.606-95.7" transform="translate(-12.049 -11.652)" fill="#131313"/>
    <path id="Trazado_1726" data-name="Trazado 1726" d="M138.54,105.515c-7.343,6.062-28.7,28.09-5.685,64.554,27.351,43.325-17.238,95.7-17.238,95.7l-11.043-.745c-.072.564-.118.891-.118.891h23s40.977-55.244,10.781-96.637c-24.232-33.222-7.327-56.041.3-63.761" transform="translate(-12.138 -12.261)" fill="#131313"/>
    <path id="Trazado_1727" data-name="Trazado 1727" d="M102.344,231.185c2.154-41.287.489-46.446-15.562-60.08s-38.666-36.049-38.666-36.049c15.407,30.5,15.1,44.367,17.994,66.807,2.251,17.407,28.4,52.153,40.019,66.866-2.574-5.966-4.859-17.047-3.785-37.545" transform="translate(-5.591 -15.694)" fill="#f5b015"/>
    <path id="Trazado_1728" data-name="Trazado 1728" d="M105.38,268.7c-11.31-14.324-37.863-49.539-40.141-67.157-.4-3.109-.741-6.056-1.069-8.9C62.136,175.03,60.53,161.117,47.3,134.931l-1.641-3.249,2.585,2.562c.226.224,22.784,22.554,38.633,36.018,16.431,13.957,17.9,19.618,15.769,60.562-1.106,21.088,1.423,31.913,3.738,37.279Zm-3.912-37.942c2.109-40.414.673-45.985-15.353-59.6-12.757-10.837-29.84-27.4-36.188-33.611C61.813,161.917,63.38,175.5,65.344,192.509c.328,2.842.667,5.782,1.069,8.886,2.1,16.234,25.417,47.992,37.6,63.648-2.464-8-3.32-19.5-2.545-34.282" transform="translate(-5.306 -15.302)" fill="#131313"/>
    <path id="Trazado_1729" data-name="Trazado 1729" d="M100.359,220.308c-8.012,34.3,9.024,57.349,9.024,57.349h16.795c-.057-11.822.79-23.159,6.356-34.625a12.714,12.714,0,0,1,1.023-1.7c-2.367-1.108-5-2.23-7.933-3.356-31.015-11.914-17.254-51.966-25.264-17.665" transform="translate(-11.413 -24.022)" fill="#131313"/>
    <path id="Trazado_1730" data-name="Trazado 1730" d="M141.31,235.281c-16.351,9.885-8.656,46.381-8.656,46.381l15.984-.255s-3.708-11.792,6.16-25.719,17.413-9.444,17.413-9.444-14.549-20.845-30.9-10.962" transform="translate(-15.205 -27.031)" fill="#131313"/>
    <path id="Trazado_1731" data-name="Trazado 1731" d="M51.545,207.878c-28.625,0-44.635,17.251-44.635,17.251s11.142-5.663,31.078-4.927S56.474,237.867,72.5,253.681s29.372,18.075,29.372,18.075S80.649,241.066,65.1,220.2c-2.738-3.675-.072-12.324-13.557-12.324" transform="translate(-0.803 -24.156)" fill="#131313"/>
    <path id="Trazado_1732" data-name="Trazado 1732" d="M14.883,233.313a2.487,2.487,0,0,0-.144.475s.045-.171.144-.475" transform="translate(-1.713 -27.112)" fill="#faf9fc"/>
    <path id="Trazado_1733" data-name="Trazado 1733" d="M74.026,225.986c-5.343-7.19.2-24.852-33.892-20.746-31.143,3.753-38.463,22.229-39.5,25.4.786-2.048,5.77-10.4,35.8-17.186,34.506-7.806,16.227,10.062,31.838,21.361S96.62,267.271,96.62,267.271s8.833,14.789,6.777,2.463-24.031-36.562-29.37-43.748" transform="translate(-0.074 -23.778)" fill="#f5b015"/>
    <path id="Trazado_1734" data-name="Trazado 1734" d="M96.04,267.5c-.126-.21-12.851-21.18-28.184-32.278-6.085-4.4-7.2-9.86-8.089-14.242-.683-3.356-1.223-6.007-3.579-7.528-3.086-2-9.345-1.835-19.694.506C6.348,220.773,1.733,229.165,1.114,230.778L0,230.383c1.19-3.648,8.712-22.039,39.99-25.807,26.659-3.212,29.585,6.8,31.933,14.854a19.742,19.742,0,0,0,2.5,6.126c1.1,1.48,2.97,3.76,5.133,6.4,8.487,10.354,22.692,27.684,24.346,37.6.581,3.481.377,5.133-.681,5.521a1.043,1.043,0,0,1-.37.064c-1.945,0-5.063-4.711-6.816-7.646M73.478,226.261a20.463,20.463,0,0,1-2.689-6.5c-2.34-8.017-4.991-17.1-30.657-14.012-23.268,2.8-33.048,13.781-36.9,20.42,4.111-3.691,13.155-8.88,33-13.367,10.827-2.451,17.177-2.558,20.6-.347,2.773,1.792,3.386,4.8,4.1,8.286.9,4.4,1.913,9.386,7.623,13.519C84.076,245.5,96.925,266.676,97.054,266.89c2.337,3.913,5.081,7.223,5.756,7.085.006,0,.558-.452-.071-4.221-1.6-9.608-15.682-26.785-24.095-37.048-2.263-2.759-4.05-4.94-5.167-6.445" transform="translate(0 -23.701)" fill="#131313"/>
    <path id="Trazado_1735" data-name="Trazado 1735" d="M189.412,246.907c-17.96-30.571-36.627-27.085-48.619-19.2-17.013,11.2-10.993,52.118-10.993,52.118l2.612.628s-.191-8.016.132-21.843,5.556-33.812,29.311-8.391,54.844,27.97,54.844,27.97-9.325-.713-27.287-31.286" transform="translate(-14.963 -25.826)" fill="#f5b015"/>
    <path id="Trazado_1736" data-name="Trazado 1736" d="M216.56,278.7c-.675-.059-31.721-3.01-55.22-28.155-8.91-9.535-15.879-13.432-20.723-11.59-6.469,2.464-7.445,14.521-7.564,19.59-.318,13.652-.133,21.736-.131,21.816l.018.769-3.749-.9-.058-.4c-.248-1.685-5.878-41.424,11.253-52.7,7.565-4.978,15.142-6.628,22.521-4.909,9.732,2.267,18.794,10.442,26.934,24.3,17.43,29.666,26.707,30.982,26.822,31h0l-.094,1.18-.011,0m-75.525-50.576c-15.623,10.279-11.338,46.92-10.787,51.144l1.476.354c-.037-2.324-.118-9.817.146-21.1.125-5.308,1.185-17.948,8.325-20.669,5.336-2.029,12.74,1.967,22.01,11.889,18.318,19.6,41.28,25.538,50.429,27.194-4.378-2.857-12.368-10.323-23.815-29.807-7.97-13.566-16.779-21.555-26.183-23.747a23.742,23.742,0,0,0-7.213-.558,30.389,30.389,0,0,0-14.389,5.3" transform="translate(-14.88 -25.747)" fill="#131313"/>
    <path id="Trazado_1737" data-name="Trazado 1737" d="M150.583,204.766c-4.9-3.6-9.883-2.983-13.729-1.38a16.432,16.432,0,0,1-14.815-1.355c-16.415-9.935-17.672,3.722-17.672,3.722l.445,3.7a.186.186,0,0,1,.024.123c1.183,6.851,5.031,21.1,21.494,27.434,2.932,1.132,28.763,12.324,28.763,12.324-3.5-14.173,5.548-37.169-4.509-44.565" transform="translate(-12.128 -23.056)" fill="#f5b015"/>
    <path id="Trazado_1738" data-name="Trazado 1738" d="M154.779,249.8c-.258-.112-25.854-11.2-28.741-12.315-11.928-4.59-19.482-14.21-21.852-27.82l-.492-3.978.006-.063c.019-.207.511-5.077,4.461-7.069,3.374-1.706,8.12-.728,14.106,2.9a15.937,15.937,0,0,0,14.282,1.314c5.146-2.143,10.092-1.643,14.306,1.449v0c6.312,4.642,5.451,14.759,4.54,25.469-.581,6.819-1.18,13.87.193,19.429l.286,1.16Zm-4.624-44.631c-3.917-2.875-8.342-3.318-13.151-1.312a17.124,17.124,0,0,1-15.349-1.395c-5.612-3.4-9.969-4.355-12.955-2.857-3.154,1.587-3.751,5.548-3.816,6.071l.424,3.529a.4.4,0,0,1,.032.193c2.281,13.213,9.586,22.544,21.124,26.983,2.605,1.006,22.768,9.728,27.723,11.873-1.087-5.537-.52-12.206.03-18.669.882-10.371,1.715-20.167-4.063-24.417Z" transform="translate(-12.05 -22.977)" fill="#131313"/>
  </g>
</svg>
