<svg id="Grupo_679" data-name="Grupo 679" xmlns="http://www.w3.org/2000/svg" xmlns:xlink="http://www.w3.org/1999/xlink" width="322.82" height="370.372" style="transform:scale(.9)" viewBox="0 0 322.82 313.372">
  <defs>
    <clipPath id="clip-path">
      <rect id="Rectángulo_422" data-name="Rectángulo 422" width="322.82" height="313.372" fill="none"/>
    </clipPath>
  </defs>
  <g id="Grupo_531" data-name="Grupo 531" clip-path="url(#clip-path)">
    <path id="Trazado_2041" data-name="Trazado 2041" d="M195.589,1.9C139.807,13.686,148.116,78.842,52.081,115.4-50.849,154.593,11.493,302.436,128.6,310.853c116.561,8.377,170.316-44.18,182.281-144.061,9-75.105-32.4-182.4-115.295-164.89" transform="translate(0 0)" fill="#fff"/>
    <path id="Trazado_2042" data-name="Trazado 2042" d="M68.7,102.05c25.017-8.6,62.937-48.771,49.224-93.768S-5.156,127.428,68.7,102.05" transform="translate(-4.22 -0.042)" fill="#fff"/>
    <path id="Trazado_2043" data-name="Trazado 2043" d="M126.265,254.143h-2.336v-1.559h.779v-.779h1.557Z" transform="translate(-12.078 -24.54)" fill="#2e3433"/>
    <path id="Trazado_2044" data-name="Trazado 2044" d="M33.117,254.225h3.148V252.67H33.117Zm6.309,0h3.149V252.67H39.426Zm6.3,0h3.161V252.67H45.724Zm6.309,0h3.15V252.67h-3.15Zm6.3,0h3.162V252.67H58.33Zm6.31,0h3.148V252.67H64.64Zm6.309,0H74.1V252.67H70.949Zm6.3,0h3.162V252.67H77.247Zm6.31,0H86.7V252.67H83.557Zm6.3,0h3.162V252.67H89.854Zm6.31,0h3.148V252.67H96.163Zm6.309,0h3.149V252.67h-3.149Zm6.3,0h3.162V252.67H108.77Z" transform="translate(-3.227 -24.624)" fill="#2e3433"/>
    <path id="Trazado_2045" data-name="Trazado 2045" d="M29.371,254.143H27.034v-2.338h1.557v.779h.78Z" transform="translate(-2.635 -24.54)" fill="#2e3433"/>
    <path id="Trazado_2046" data-name="Trazado 2046" d="M27.029,164.144H28.6v-3.149H27.029Zm0,6.31H28.6v-3.162H27.029Zm0,6.3H28.6V173.6H27.029Zm0,6.31H28.6v-3.148H27.029Zm0,6.31H28.6v-3.162H27.029Zm0,6.3H28.6v-3.149H27.029Zm0,6.31H28.6v-3.149H27.029Zm0,6.3H28.6v-3.149H27.029Zm0,6.31H28.6v-3.148H27.029Zm0,6.31H28.6v-3.162H27.029Zm0,6.3H28.6v-3.149H27.029Zm0,6.311H28.6v-3.149H27.029Zm0,6.309H28.6v-3.162H27.029Z" transform="translate(-2.634 -15.69)" fill="#2e3433"/>
    <path id="Trazado_2047" data-name="Trazado 2047" d="M28.591,157.248H27.034v-2.337h2.337v1.558h-.78Z" transform="translate(-2.635 -15.097)" fill="#2e3433"/>
    <path id="Trazado_2048" data-name="Trazado 2048" d="M33.117,156.464h3.148v-1.555H33.117Zm6.309,0h3.149v-1.555H39.426Zm6.3,0h3.161v-1.555H45.724Zm6.309,0h3.15v-1.555h-3.15Zm6.3,0h3.162v-1.555H58.33Zm6.31,0h3.148v-1.555H64.64Zm6.309,0H74.1v-1.555H70.949Zm6.3,0h3.162v-1.555H77.247Zm6.31,0H86.7v-1.555H83.557Zm6.309,0h3.149v-1.555H89.865Zm6.3,0h3.148v-1.555H96.163Zm6.309,0h3.149v-1.555h-3.149Zm6.3,0h3.162v-1.555H108.77Z" transform="translate(-3.227 -15.097)" fill="#2e3433"/>
    <path id="Trazado_2049" data-name="Trazado 2049" d="M126.265,157.248h-1.557v-.779h-.779v-1.558h2.336Z" transform="translate(-12.078 -15.097)" fill="#2e3433"/>
    <path id="Trazado_2050" data-name="Trazado 2050" d="M124.791,164.144h1.556v-3.149h-1.556Zm0,6.31h1.556v-3.162h-1.556Zm0,6.3h1.556V173.6h-1.556Zm0,6.31h1.556v-3.148h-1.556Zm0,6.31h1.556v-3.162h-1.556Zm0,6.3h1.556v-3.149h-1.556Zm0,6.31h1.556v-3.149h-1.556Zm0,6.3h1.556v-3.149h-1.556Zm0,6.31h1.556v-3.148h-1.556Zm0,6.31h1.556v-3.162h-1.556Zm0,6.3h1.556v-3.149h-1.556Zm0,6.311h1.556v-3.149h-1.556Zm0,6.309h1.556v-3.162h-1.556Z" transform="translate(-12.162 -15.69)" fill="#2e3433"/>
    <path id="Trazado_2051" data-name="Trazado 2051" d="M99.732,227.88,77.349,174l-.026-.051H70.032l-.026.051L47.356,227.88H43.187v1.491h13.6V227.88H50.121l6.845-16.953h17.6l6.488,16.953H74.748v1.491h29.076V227.88ZM57.769,209.192l8.349-20.561,7.738,20.561Z" transform="translate(-4.209 -16.952)" fill="#f5b015"/>
    <path id="Trazado_2052" data-name="Trazado 2052" d="M99.732,227.88,77.349,174l-.026-.051H70.032l-.026.051L47.356,227.88H43.187v1.491h13.6V227.88H50.121l6.845-16.953h17.6l6.488,16.953H74.748v1.491h29.076V227.88ZM57.769,209.192l8.349-20.561,7.738,20.561Z" transform="translate(-4.209 -16.952)" fill="none" stroke="#2e3433" stroke-miterlimit="10" stroke-width="1"/>
    <rect id="Rectángulo_413" data-name="Rectángulo 413" width="6.157" height="6.157" transform="translate(22.098 225.746)" fill="#2e3433"/>
    <path id="Trazado_2053" data-name="Trazado 2053" d="M23.979,256.682H31.04V249.62H23.979Zm6.17-.9H24.884v-5.252h5.265Z" transform="translate(-2.337 -24.327)" fill="#2e3433"/>
    <rect id="Rectángulo_414" data-name="Rectángulo 414" width="6.157" height="6.157" transform="translate(22.098 181.629)" fill="#2e3433"/>
    <path id="Trazado_2054" data-name="Trazado 2054" d="M23.979,207.8H31.04v-7.062H23.979Zm6.17-.905H24.884v-5.252h5.265Z" transform="translate(-2.337 -19.563)" fill="#2e3433"/>
    <rect id="Rectángulo_415" data-name="Rectángulo 415" width="6.157" height="6.157" transform="translate(22.098 137.514)" fill="#2e3433"/>
    <path id="Trazado_2055" data-name="Trazado 2055" d="M23.979,158.92H31.04v-7.062H23.979Zm6.17-.905H24.884v-5.252h5.265Z" transform="translate(-2.337 -14.799)" fill="#2e3433"/>
    <rect id="Rectángulo_416" data-name="Rectángulo 416" width="6.157" height="6.157" transform="translate(110.331 225.746)" fill="#2e3433"/>
    <path id="Trazado_2056" data-name="Trazado 2056" d="M121.741,256.682H128.8V249.62h-7.061Zm6.156-.9h-5.252v-5.252H127.9Z" transform="translate(-11.864 -24.327)" fill="#2e3433"/>
    <rect id="Rectángulo_417" data-name="Rectángulo 417" width="6.157" height="6.157" transform="translate(110.331 181.629)" fill="#2e3433"/>
    <path id="Trazado_2057" data-name="Trazado 2057" d="M121.741,207.8H128.8v-7.062h-7.061Zm6.156-.905h-5.252v-5.252H127.9Z" transform="translate(-11.864 -19.563)" fill="#2e3433"/>
    <rect id="Rectángulo_418" data-name="Rectángulo 418" width="6.157" height="6.157" transform="translate(110.331 137.514)" fill="#2e3433"/>
    <path id="Trazado_2058" data-name="Trazado 2058" d="M121.741,158.92H128.8v-7.062h-7.061Zm6.156-.905h-5.252v-5.252H127.9Z" transform="translate(-11.864 -14.799)" fill="#2e3433"/>
    <rect id="Rectángulo_419" data-name="Rectángulo 419" width="6.159" height="6.157" transform="translate(66.214 137.514)" fill="#2e3433"/>
    <path id="Trazado_2059" data-name="Trazado 2059" d="M72.86,158.92h7.062v-7.062H72.86Zm6.17-.905H73.765v-5.252H79.03Z" transform="translate(-7.101 -14.799)" fill="#2e3433"/>
    <rect id="Rectángulo_420" data-name="Rectángulo 420" width="6.159" height="6.157" transform="translate(66.214 225.746)" fill="#2e3433"/>
    <path id="Trazado_2060" data-name="Trazado 2060" d="M72.86,256.682h7.062V249.62H72.86Zm6.17-.9H73.765v-5.252H79.03Z" transform="translate(-7.101 -24.327)" fill="#2e3433"/>
    <path id="Trazado_2061" data-name="Trazado 2061" d="M116.649,221.822s.029,49.321-78.171,111.187H200.026l29.179-70.158Z" transform="translate(-3.75 -21.618)" fill="#fff"/>
    <path id="Trazado_2062" data-name="Trazado 2062" d="M116.649,221.822s.029,49.321-78.171,111.187H200.026l29.179-70.158Z" transform="translate(-3.75 -21.618)" fill="none" stroke="#2e3433" stroke-linecap="round" stroke-linejoin="round" stroke-width="1"/>
    <path id="Trazado_2063" data-name="Trazado 2063" d="M132.739,243.328s-30.337-12.46-23.295-50.922,8.127-54.717,1.083-78.011,37.381-21.669,44.965,37.922,20.045,74.218-22.753,91.012" transform="translate(-10.563 -9.789)" fill="#fff"/>
    <path id="Trazado_2064" data-name="Trazado 2064" d="M132.739,243.328s-30.337-12.46-23.295-50.922,8.127-54.717,1.083-78.011,37.381-21.669,44.965,37.922S175.537,226.535,132.739,243.328Z" transform="translate(-10.563 -9.789)" fill="none" stroke="#2e3433" stroke-linecap="round" stroke-linejoin="round" stroke-width="1"/>
    <path id="Trazado_2065" data-name="Trazado 2065" d="M132.4,253.883c-.31-.127-30.774-13.119-23.713-51.686l1.358.249c-6.855,37.441,22.58,50.038,22.879,50.161Z" transform="translate(-10.489 -19.705)" fill="#2e3433"/>
    <path id="Trazado_2066" data-name="Trazado 2066" d="M156.566,160.184a19.038,19.038,0,0,1-1.552,6.858,16.715,16.715,0,0,1-4.1,5.855,16.44,16.44,0,0,1-2.975,2.083,15.665,15.665,0,0,1-6.976,1.483,10.377,10.377,0,0,1-1.759-.179c-.582-.075-1.16-.168-1.73-.27,1.173-.126,2.326-.043,3.458-.228a18.179,18.179,0,0,0,3.312-.7,16.763,16.763,0,0,0,3.079-1.259,16.138,16.138,0,0,0,2.668-1.957,19.243,19.243,0,0,0,4.058-5.292,31.075,31.075,0,0,0,2.521-6.394" transform="translate(-13.397 -15.611)" fill="#2e3433"/>
    <path id="Trazado_2067" data-name="Trazado 2067" d="M287.431,30.118l-91.44,9.142c-9.267,0-18.115,7.54-19.721,16.808L130.251,269.4c-1.548,8.931,6.512,24.443,20.621,24.443l99.981.032c9.267,0,18.115-7.541,19.721-16.807l38.3-221c1.606-9.268-4.935-25.95-21.437-25.95" transform="translate(-12.675 -2.935)" fill="#2e3433"/>
    <path id="Trazado_2068" data-name="Trazado 2068" d="M287.444,30.118H188.461c-9.268,0-18.115,7.54-19.721,16.809l-38.3,221c-1.547,8.93,4.185,16.254,12.9,16.776l99.98.032c9.268,0,18.116-7.541,19.721-16.807l38.3-221c1.606-9.269-4.628-16.809-13.9-16.809" transform="translate(-12.688 -2.935)" fill="#fff"/>
    <path id="Trazado_2069" data-name="Trazado 2069" d="M287.444,30.118H188.461c-9.268,0-18.115,7.54-19.721,16.809l-38.3,221c-1.547,8.93,4.185,16.254,12.9,16.776l99.98.032c9.268,0,18.116-7.541,19.721-16.807l38.3-221C302.945,37.658,296.711,30.118,287.444,30.118Z" transform="translate(-12.688 -2.935)" fill="none" stroke="#2e3433" stroke-miterlimit="10" stroke-width="1"/>
    <path id="Trazado_2070" data-name="Trazado 2070" d="M287.206,34.257H188.223c-7.22,0-14.087,5.853-15.339,13.073l-38.295,221c-1.251,7.22,3.588,13.073,10.807,13.073H244.38c7.22,0,14.088-5.853,15.339-13.073l38.3-221c1.251-7.22-3.588-13.073-10.808-13.073" transform="translate(-13.097 -3.339)" fill="#fff"/>
    <path id="Trazado_2071" data-name="Trazado 2071" d="M287.206,34.257H188.223c-7.22,0-14.087,5.853-15.339,13.073l-38.295,221c-1.251,7.22,3.588,13.073,10.807,13.073H244.38c7.22,0,14.088-5.853,15.339-13.073l38.3-221C299.265,40.11,294.427,34.257,287.206,34.257Z" transform="translate(-13.097 -3.339)" fill="none" stroke="#2e3433" stroke-miterlimit="10" stroke-width="1"/>
    <path id="Trazado_2072" data-name="Trazado 2072" d="M262.237,36.671H231.421a1.543,1.543,0,0,0-1.46,1.245,1.019,1.019,0,0,0,1.029,1.246h30.816a1.545,1.545,0,0,0,1.461-1.246,1.02,1.02,0,0,0-1.03-1.245" transform="translate(-22.409 -3.574)" fill="#2e3433"/>
    <path id="Trazado_2073" data-name="Trazado 2073" d="M270.488,153.99H168.341a3.019,3.019,0,0,1-3.047-3.7l2.4-14.734a4.607,4.607,0,0,1,4.352-3.7H274.194a3.02,3.02,0,0,1,3.047,3.7l-2.4,14.734a4.607,4.607,0,0,1-4.352,3.7" transform="translate(-16.103 -12.85)" fill="#dbe0e6"/>
    <path id="Trazado_2074" data-name="Trazado 2074" d="M270.488,153.99H168.341a3.019,3.019,0,0,1-3.047-3.7l2.4-14.734a4.607,4.607,0,0,1,4.352-3.7H274.194a3.02,3.02,0,0,1,3.047,3.7l-2.4,14.734A4.607,4.607,0,0,1,270.488,153.99Z" transform="translate(-16.103 -12.85)" fill="none" stroke="#2e3433" stroke-miterlimit="10" stroke-width="1"/>
    <path id="Trazado_2075" data-name="Trazado 2075" d="M258.654,203.9H130.269a3.794,3.794,0,0,1-3.83-4.65l3.017-18.518a5.789,5.789,0,0,1,5.47-4.651H263.312a3.794,3.794,0,0,1,3.829,4.651l-3.017,18.518a5.789,5.789,0,0,1-5.469,4.65" transform="translate(-12.315 -17.16)" fill="#dbe0e6"/>
    <path id="Trazado_2076" data-name="Trazado 2076" d="M258.654,203.9H130.269a3.794,3.794,0,0,1-3.83-4.65l3.017-18.518a5.789,5.789,0,0,1,5.47-4.651H263.312a3.794,3.794,0,0,1,3.829,4.651l-3.017,18.518A5.789,5.789,0,0,1,258.654,203.9Z" transform="translate(-12.315 -17.16)" fill="none" stroke="#2e3433" stroke-miterlimit="10" stroke-width="1"/>
    <path id="Trazado_2077" data-name="Trazado 2077" d="M243.337,71.015l-.081,1.366-1.168-.078.078-1.317a3.639,3.639,0,0,1-2.66-1.328l1.107-1.028a2.583,2.583,0,0,0,1.794.854l.132-2.207-.366-.073a2.728,2.728,0,0,1-1.552-.838,2.355,2.355,0,0,1-.488-1.734,2.512,2.512,0,0,1,2.561-2.45l.065-1.1,1.168.078-.065,1.086a3.321,3.321,0,0,1,2.218,1.151l-1.08.994a2.265,2.265,0,0,0-1.387-.681l-.126,2.122.435.1a2.75,2.75,0,0,1,1.531.787,2.5,2.5,0,0,1,.527,1.871,2.552,2.552,0,0,1-2.641,2.42m-.582-7.347a1.051,1.051,0,0,0-1.069,1.006.867.867,0,0,0,.206.638,1.34,1.34,0,0,0,.742.392Zm1.437,4.123a1.373,1.373,0,0,0-.8-.372l-.125,2.1c.7-.039,1.1-.38,1.138-.977a1.006,1.006,0,0,0-.211-.749" transform="translate(-23.341 -5.953)" fill="#d8143b"/>
    <path id="Trazado_2078" data-name="Trazado 2078" d="M246.133,52.928a.533.533,0,0,1-.62.421l-2.706-.226a.545.545,0,0,1-.55-.52l.126-1.674a.533.533,0,0,1,.62-.421l2.706.226a.544.544,0,0,1,.549.52Z" transform="translate(-23.609 -4.922)" fill="#f5b015"/>
    <path id="Trazado_2079" data-name="Trazado 2079" d="M241.606,74.276a8.107,8.107,0,0,1-7.154-8.844,7.944,7.944,0,0,1,8.386-7.546,1.323,1.323,0,0,0,1.4-1.256,1.351,1.351,0,0,0-1.191-1.473,10.59,10.59,0,0,0-11.179,10.059c-.453,6.024,3.825,11.312,9.537,11.79a1.324,1.324,0,0,0,1.4-1.256,1.35,1.35,0,0,0-1.191-1.473" transform="translate(-22.593 -5.372)" fill="#d8143b"/>
    <path id="Trazado_2080" data-name="Trazado 2080" d="M255.24,68.983l-1.662-.139.126-1.689,1.662.139Z" transform="translate(-24.713 -6.545)" fill="#f5b015"/>
    <path id="Trazado_2081" data-name="Trazado 2081" d="M252.777,67.933a.833.833,0,0,0,.737.911.817.817,0,0,0,.864-.777.834.834,0,0,0-.737-.911.816.816,0,0,0-.863.777" transform="translate(-24.634 -6.544)" fill="#f5b015"/>
    <path id="Trazado_2082" data-name="Trazado 2082" d="M254.55,68.081a.834.834,0,0,0,.737.911.817.817,0,0,0,.864-.777.834.834,0,0,0-.737-.911.817.817,0,0,0-.864.777" transform="translate(-24.807 -6.559)" fill="#f5b015"/>
    <path id="Trazado_2083" data-name="Trazado 2083" d="M254.434,62.149l-1.407.943-.862-1.43,1.408-.943Z" transform="translate(-24.575 -5.917)" fill="#f5b015"/>
    <path id="Trazado_2084" data-name="Trazado 2084" d="M251.891,62.909a.779.779,0,0,0,1.108.261A.875.875,0,0,0,253.246,62a.778.778,0,0,0-1.108-.261.875.875,0,0,0-.247,1.169" transform="translate(-24.536 -6.004)" fill="#f5b015"/>
    <path id="Trazado_2085" data-name="Trazado 2085" d="M253.391,61.9a.779.779,0,0,0,1.108.261.875.875,0,0,0,.247-1.169.778.778,0,0,0-1.108-.261.875.875,0,0,0-.247,1.169" transform="translate(-24.682 -5.906)" fill="#f5b015"/>
    <path id="Trazado_2086" data-name="Trazado 2086" d="M250.421,57.248l-.93,1.459-1.333-.945.93-1.459Z" transform="translate(-24.184 -5.487)" fill="#f5b015"/>
    <path id="Trazado_2087" data-name="Trazado 2087" d="M248.37,59.041a.778.778,0,0,0,1.115-.23.876.876,0,0,0-.218-1.175.778.778,0,0,0-1.115.23.876.876,0,0,0,.218,1.175" transform="translate(-24.17 -5.603)" fill="#f5b015"/>
    <path id="Trazado_2088" data-name="Trazado 2088" d="M249.362,57.484a.778.778,0,0,0,1.115-.23.876.876,0,0,0-.218-1.175.778.778,0,0,0-1.115.23.876.876,0,0,0,.218,1.175" transform="translate(-24.267 -5.451)" fill="#f5b015"/>
    <path id="Trazado_2089" data-name="Trazado 2089" d="M252.689,74.747l-1.35-1.032.942-1.372,1.35,1.032Z" transform="translate(-24.494 -7.05)" fill="#f5b015"/>
    <path id="Trazado_2090" data-name="Trazado 2090" d="M251.137,72.523a.879.879,0,0,0,.179,1.183.777.777,0,0,0,1.122-.189.877.877,0,0,0-.18-1.182.776.776,0,0,0-1.121.188" transform="translate(-24.46 -7.034)" fill="#f5b015"/>
    <path id="Trazado_2091" data-name="Trazado 2091" d="M252.578,73.624a.878.878,0,0,0,.179,1.182.777.777,0,0,0,1.122-.189.877.877,0,0,0-.18-1.182.776.776,0,0,0-1.121.189" transform="translate(-24.6 -7.141)" fill="#f5b015"/>
    <path id="Trazado_2092" data-name="Trazado 2092" d="M247.534,78.236l-.736-1.578,1.44-.748.736,1.579Z" transform="translate(-24.052 -7.398)" fill="#f5b015"/>
    <path id="Trazado_2093" data-name="Trazado 2093" d="M247.163,75.488a.869.869,0,0,0-.366,1.134.785.785,0,0,0,1.075.386.868.868,0,0,0,.366-1.134.784.784,0,0,0-1.075-.386" transform="translate(-24.044 -7.348)" fill="#f5b015"/>
    <path id="Trazado_2094" data-name="Trazado 2094" d="M247.949,77.171a.869.869,0,0,0-.366,1.134.785.785,0,0,0,1.075.386.868.868,0,0,0,.366-1.134.784.784,0,0,0-1.075-.386" transform="translate(-24.12 -7.512)" fill="#f5b015"/>
    <path id="Trazado_2095" data-name="Trazado 2095" d="M225.76,97.681H182.542a1.475,1.475,0,0,1-1.472-1.922,2.576,2.576,0,0,1,2.373-1.922h43.217a1.474,1.474,0,0,1,1.471,1.922,2.575,2.575,0,0,1-2.372,1.922" transform="translate(-17.641 -9.145)" fill="#2e3433"/>
    <path id="Trazado_2096" data-name="Trazado 2096" d="M240.1,108.642H179.974a1.475,1.475,0,0,1-1.472-1.922,2.576,2.576,0,0,1,2.373-1.922H241a1.474,1.474,0,0,1,1.471,1.922,2.575,2.575,0,0,1-2.372,1.922" transform="translate(-17.391 -10.213)" fill="#2e3433"/>
    <path id="Trazado_2097" data-name="Trazado 2097" d="M258.8,119.095H177.525a1.475,1.475,0,0,1-1.472-1.922,2.575,2.575,0,0,1,2.373-1.922H259.7a1.474,1.474,0,0,1,1.47,1.922,2.575,2.575,0,0,1-2.371,1.922" transform="translate(-17.152 -11.232)" fill="#2e3433"/>
    <path id="Trazado_2098" data-name="Trazado 2098" d="M219.828,234.217H159.7a1.475,1.475,0,0,1-1.472-1.922,2.576,2.576,0,0,1,2.373-1.922h60.127A1.474,1.474,0,0,1,222.2,232.3a2.575,2.575,0,0,1-2.372,1.922" transform="translate(-15.415 -22.451)" fill="#2e3433"/>
    <path id="Trazado_2099" data-name="Trazado 2099" d="M238.53,244.67H157.252a1.476,1.476,0,0,1-1.472-1.922,2.577,2.577,0,0,1,2.373-1.922H239.43a1.474,1.474,0,0,1,1.471,1.922,2.576,2.576,0,0,1-2.371,1.922" transform="translate(-15.177 -23.47)" fill="#2e3433"/>
    <path id="Trazado_2100" data-name="Trazado 2100" d="M328.232,125.56s26.055-12.913,2.706-39.428-45.272-11.506-44.149.693.955,20.232,19.24,27.035c0,0-17.729,2.332-18.464,16.478A27.208,27.208,0,0,0,297,152.307s-15.73-1.3-19.236,5.383-.3,24.064,14.793,31.484c0,0-17.956,4.514-10.224,24.123S294.2,226.515,294.2,226.515l-4.46,26.111s33.778-9.72,28.492-49.805c0,0,22.566-15.961,2.556-36.639,0,0,32.465-18.984,7.441-40.622" transform="translate(-26.943 -6.959)" fill="#fff"/>
    <path id="Trazado_2101" data-name="Trazado 2101" d="M328.232,125.56s26.055-12.913,2.706-39.428-45.272-11.506-44.149.693.955,20.232,19.24,27.035c0,0-17.729,2.332-18.464,16.478A27.208,27.208,0,0,0,297,152.307s-15.73-1.3-19.236,5.383-.3,24.064,14.793,31.484c0,0-17.956,4.514-10.224,24.123S294.2,226.515,294.2,226.515l-4.46,26.111s33.778-9.72,28.492-49.805c0,0,22.566-15.961,2.556-36.639C320.792,166.182,353.257,147.2,328.232,125.56Z" transform="translate(-26.943 -6.959)" fill="none" stroke="#2e3433" stroke-linecap="round" stroke-linejoin="round" stroke-width="1"/>
    <path id="Trazado_2102" data-name="Trazado 2102" d="M300.359,161.433a29.416,29.416,0,0,1,12.358,3.257,26.265,26.265,0,0,1,5.37,3.6,20.422,20.422,0,0,1,4.141,4.908,42.1,42.1,0,0,0-4.811-4.063,40.049,40.049,0,0,0-5.326-3.215,56.262,56.262,0,0,0-5.72-2.515c-1.965-.719-3.956-1.405-6.011-1.971" transform="translate(-29.272 -15.733)" fill="#2e3433"/>
    <path id="Trazado_2103" data-name="Trazado 2103" d="M296.319,202.109a29.438,29.438,0,0,1,12.358,3.258,26.241,26.241,0,0,1,5.369,3.6,20.465,20.465,0,0,1,4.142,4.908,42.28,42.28,0,0,0-4.811-4.064,40.222,40.222,0,0,0-5.328-3.213,56.074,56.074,0,0,0-5.72-2.515c-1.965-.72-3.955-1.406-6.011-1.972" transform="translate(-28.878 -19.697)" fill="#2e3433"/>
    <path id="Trazado_2104" data-name="Trazado 2104" d="M309.223,118.445a29.432,29.432,0,0,1,12.358,3.257,26.227,26.227,0,0,1,5.37,3.6,20.4,20.4,0,0,1,4.141,4.907,42.362,42.362,0,0,0-4.811-4.063,40.322,40.322,0,0,0-5.328-3.214,56.263,56.263,0,0,0-5.719-2.515c-1.966-.719-3.956-1.405-6.011-1.971" transform="translate(-30.136 -11.543)" fill="#2e3433"/>
    <path id="Trazado_2105" data-name="Trazado 2105" d="M65.308,90.836a3.578,3.578,0,1,1-3.579-3.578,3.579,3.579,0,0,1,3.579,3.578" transform="translate(-5.667 -8.504)" fill="#f5b015"/>
    <path id="Trazado_2106" data-name="Trazado 2106" d="M37.433,292.715a3.578,3.578,0,1,1-3.579-3.578,3.579,3.579,0,0,1,3.579,3.578" transform="translate(-2.951 -28.178)" fill="#f5b015"/>
    <path id="Trazado_2107" data-name="Trazado 2107" d="M104.036,131.363a3.578,3.578,0,1,1-3.578-3.578,3.578,3.578,0,0,1,3.578,3.578" transform="translate(-9.442 -12.453)" fill="#f5b015"/>
    <path id="Trazado_2108" data-name="Trazado 2108" d="M239.186,13.952a3.577,3.577,0,1,1-3.579-3.578,3.579,3.579,0,0,1,3.579,3.578" transform="translate(-22.613 -1.011)" fill="#f5b015"/>
    <path id="Trazado_2109" data-name="Trazado 2109" d="M339.827,225.14a3.577,3.577,0,1,1-3.578-3.578,3.578,3.578,0,0,1,3.578,3.578" transform="translate(-32.421 -21.592)" fill="#f5b015"/>
    <path id="Trazado_2110" data-name="Trazado 2110" d="M105.1,96.036a2.357,2.357,0,1,1-2.357-2.356,2.357,2.357,0,0,1,2.357,2.356" transform="translate(-9.783 -9.13)" fill="#f5b015"/>
    <rect id="Rectángulo_421" data-name="Rectángulo 421" width="313.627" height="2.193" transform="translate(9.193 311.179)" fill="#131313"/>
    <path id="Trazado_2111" data-name="Trazado 2111" d="M70.585,59.7,63.57,54.019l-8.929,1.486,5.677-7.016-1.486-8.928,7.016,5.677,8.928-1.486-6.092,6.9Z" transform="translate(-5.325 -3.855)" fill="#f5b015"/>
    <path id="Trazado_2112" data-name="Trazado 2112" d="M194.325,13.5l-.045-4.941L190.544,5.3l4.941-.045,3.255-3.737.044,4.941,3.737,3.255-5.037-.171Z" transform="translate(-18.57 -0.148)" fill="#f5b015"/>
    <path id="Trazado_2113" data-name="Trazado 2113" d="M339.816,197.06l1.208-6.228-3.868-5.05,6.228,1.208,5.05-3.868-1.208,6.227,3.868,5.051-6.294-1.5Z" transform="translate(-32.858 -17.846)" fill="#f5b015"/>
    <path id="Trazado_2114" data-name="Trazado 2114" d="M99.4,54.615l3.6-.962,1.671-3.339.962,3.6,3.339,1.671-3.6.963L103.7,59.881l-.824-3.707Z" transform="translate(-9.687 -4.903)" fill="#f5b015"/>
  </g>
</svg>
