<svg xmlns="http://www.w3.org/2000/svg" xmlns:xlink="http://www.w3.org/1999/xlink" width="400.381" height="242.956" viewBox="0 0 400.381 342.956">
  <defs>
    <clipPath id="clip-path">
      <rect id="Rectángulo_159" data-name="Rectángulo 159" width="400.381" height="337.956" transform="translate(0 108)" fill="none"/>
    </clipPath>
    <clipPath id="clip-path-2">
      <path id="Trazado_816" data-name="Trazado 816" d="M138.487,177.16c-31.146,69.782.283,151.888,70.064,183.035s151.888-.282,183.035-70.064a17.311,17.311,0,0,0-31.616-14.112A103.961,103.961,0,0,1,170.1,191.272a17.311,17.311,0,0,0-31.616-14.112" transform="translate(-126.457 -166.905)" fill="none"/>
    </clipPath>
    <clipPath id="clip-path-3">
      <rect id="Rectángulo_162" data-name="Rectángulo 162" width="400.381" height="342.956" transform="translate(0 108)" fill="none"/>
    </clipPath>
    <clipPath id="clip-path-4">
      <path id="Trazado_870" data-name="Trazado 870" d="M111.692,316.047l-.088,60.861a6.916,6.916,0,0,0,6.906,6.928l65.028.094a6.915,6.915,0,0,0,6.927-6.907l.089-60.861a6.915,6.915,0,0,0-6.906-6.927l-65.028-.094h-.012a6.915,6.915,0,0,0-6.916,6.906" transform="translate(-111.604 -309.141)" fill="none"/>
    </clipPath>
    <clipPath id="clip-path-5">
      <rect id="Rectángulo_188" data-name="Rectángulo 188" width="400.381" height="335.956" transform="translate(0 111)" fill="none"/>
    </clipPath>
    <clipPath id="clip-path-6">
      <rect id="Rectángulo_189" data-name="Rectángulo 189" width="25.041" height="19.212" fill="none"/>
    </clipPath>
  </defs>
  <g id="Grupo_593" data-name="Grupo 593" transform="translate(0 -108)">
    <g id="Grupo_284" data-name="Grupo 284">
      <g id="Grupo_283" data-name="Grupo 283" clip-path="url(#clip-path)">
        <path id="Trazado_785" data-name="Trazado 785" d="M241.892,197.675c16.674,19.177,79.29,40.551,86.96,5.108s-136.181-61.722-86.96-5.108" transform="translate(-33.427 -23.777)" fill="#fff"/>
        <path id="Trazado_786" data-name="Trazado 786" d="M206.2,195.025c63.808,84.577,99.141,33.2,140.455,90.234C402.4,362.207,294.795,462.119,191.5,446.495,108.963,434.01,54.47,370.522,49.263,293.713,41.911,185.223,155.834,128.269,206.2,195.025" transform="translate(-7.061 -24.014)" fill="#fff"/>
        <path id="Trazado_787" data-name="Trazado 787" d="M90.472,327.28a8.716,8.716,0,0,1,.756.956c-.219-.417-.429-.829-.638-1.24-.031.063-.062.166-.117.284" transform="translate(-13.057 -47.194)" fill="#96999e"/>
        <path id="Trazado_788" data-name="Trazado 788" d="M111.216,286.6c-.7.276-11.641,3.508-13.752,3.658s-7.114-.868-10.215-.783-6.33,5.75-8.042,5.788c0,0,1.533,4.724,5.769,5.7a10.238,10.238,0,0,0-3.875.359l-.111-.33s-4.99-17.726-6-19.1c4.562.232,13.3-2.577,18.691-7.669a16.355,16.355,0,0,1,11.982-4.405c-14.2-9.224-23.429-.092-23.429-.092-6.874,7.395-7.448,10.629-7.359,11.718-.624-2.548-1.266-5.34-1.894-8.374,1.577-.96,10.666-7.061,18.554-22.9,7.27-14.619,10.917-19.476,11.77-20.481-1.65,1.673-13.434,13.14-17.25,16.976A47.551,47.551,0,0,0,72.8,272.244c-.676-3.3-1.332-6.905-1.959-10.764.01-.035.021-.068.021-.068s8.333-10.8,11.284-17.09,6.322-15.335,7.027-16.414,6.135-8.958,6.691-9.556-3.4-.087-10.417,8.933-11.6,16.361-13.488,26.5c-.774,4.211-1.1,6.232-1.207,7.159q-.825-5.156-1.539-10.957l.335-.515s9.147-11.2,10.219-19.794c1.542-12.354,9.289-25.272,9.289-25.272s-2.161.712-7.29,9.507c.773-2.141,1.681-4.644,2.787-7.594,2.312-6.133,7.757-17.822,7.7-18.145-.1-.241-3.188,4.6-12.241,18.95s-11.9,30.676-11.9,30.676-.055.16-.11.374q-.394-4.6-.672-9.524c.029.062.086-.045.188-.548.311-1.526,7.209-13.74,8.967-17.177s3.548-10.267,4.747-14.364c1.195-4.079,7.143-15.317,7.143-15.317s-.692.084-4.587,6.083-6.8,12.213-10.752,21.351a97.583,97.583,0,0,0-5.717,18.993s-.015.24-.02.487c-.369-6.565-.587-13.544-.6-20.964a21.474,21.474,0,0,0-.165,2.793c-.32-1.527-1.37-4.8-4.727-11.355-4.066-7.952-9.3-13.414-10.646-16.072-.443-.859,3.255,9.239,5.638,15.071a32.72,32.72,0,0,0,3.912,7.111c1.885,2.535,4.812,5.9,5.8,6.37-.046,2.155-.058,5.14.006,8.735-4.228-13.522-11.831-18.736-14.878-21.786a22.361,22.361,0,0,1-4.128-5.244s-2.864-5.65,2.644,7.778c7.387,17.97,14.911,19.884,16.38,20.094.063,2.985.177,6.385.359,10.074-1.668-3.753-7.024-14.769-14.288-19.242-9.021-5.566-9.706-14.094-9.78-11.309-.075,3.245,3.2,9.2,3.2,9.2s4.73,9.335,8.151,12.589c3.347,3.169,5.242,5.712,12.771,9.785.173,3.128.393,6.467.68,9.949-2.778-6.157-5.7-10.851-20.555-18.974-2.29-1.243-3.686-1.191-7.591-6.914-.471-.69.614,2.677,1.591,4.9,8.588,19.391,24.056,21.739,26.647,21.992.31,3.6.688,7.347,1.165,11.173-1.8-2.161-6.009-6.971-9.931-9.6-5.167-3.449-9.632-1.928-14.511-2.693a30.447,30.447,0,0,1-9.9-3.965c4.964,15.652,33.053,17.94,34.541,17.784.457,3.582.994,7.231,1.625,10.885l-.051-.006c-1.523-1.891-25.735-12.985-25.735-12.985,1.48,6.005,8.754,11.433,11.863,13.154,6.058,3.352,12.833,1.477,14.137,1.055.563,3.186,1.195,6.378,1.9,9.531-2.558-1.7-9-3.918-14.008-5.988-6.09-2.5-7.841-6.579-7.841-6.579s1.28,14.071,14.958,17.322c2.454.575,5.813-2.351,7.239-3.263.649,2.787,1.355,5.551,2.134,8.262a5.218,5.218,0,0,1-3.1-.1c-3.513-1.256-10.175-1.812-10.175-1.812s-2.776-1.465-13.1,3.17c0,0-5.811,1.159-7.61.066s-4.16-2.826-4.005-2.067c0,0,3.694,12.726,25.462,10.672,2.854-.269,11.965-5.828,12.834-8.89a119.714,119.714,0,0,0,5.252,14.565,12.5,12.5,0,0,0,1.54,3.327l-.312-.139s-3.691,2.762-8.283,6.915-4.888,6.37-6.136,8.214c-1.2,1.771-5.69,1.5-6,1.477.282.157,3.282,1.7,5.578,1.124,2.4-.591,6.264-3.107,9.5-7.031a44.226,44.226,0,0,0,5.523-9.77c.049.13.114.3.2.511,0,0-1.175,12.427,5.827,15.644,8.217,3.779,3.494,1.662,10.652,3.231,0,0-6.936-2.573-10.258-9.211a83.869,83.869,0,0,0-5.43-9.342l-.28-.8c1.758,2.3,4.8,4.651,10,5.466,9.707,1.511,12.039-1.686,15.567-.994-2.632-.954-7.634-2.852-9.548-4.2s-7.411-4.817-12.669-5.716a10.766,10.766,0,0,0,5.391-1.52c9.462-5.112,15.027-10.634,18.726-12.009,0,0,1.46-1.285.761-1.009M68.071,238.911a2.148,2.148,0,0,0,.353-.418c2.374-3.333,4.162-5.913,5.5-7.942a91.968,91.968,0,0,0-4.738,19.188q-.625-5.174-1.118-10.827M83.155,307.2a8.833,8.833,0,0,0-.756-.956c.055-.118.086-.222.117-.284.21.411.419.823.638,1.24" transform="translate(-4.985 -26.158)" fill="#96999e"/>
        <path id="Trazado_789" data-name="Trazado 789" d="M32.382,244.417c3.1.715,5.055,7.664,5.831,10.747a12.036,12.036,0,0,1-.729,7.208c-1.295,3.332-5.474,7.339-7.308,8.748-1.753,1.347-2.607-.557-4.421-1.824a11.178,11.178,0,0,1-3.784-5.328c-1.536-4.032-1.6-8.98,1.176-12.28,2.047-2.431,6.14-7.985,9.236-7.272" transform="translate(-3.018 -35.266)" fill="#96999e"/>
        <path id="Trazado_790" data-name="Trazado 790" d="M28.973,271.916a3.637,3.637,0,0,1-2.254-1.294,11.877,11.877,0,0,0-1.262-1.064,11.471,11.471,0,0,1-3.929-5.514c-1.421-3.729-1.841-9.019,1.244-12.68.224-.266.472-.57.742-.9,2.346-2.866,5.89-7.186,8.89-6.507,2.363.546,4.425,4.26,6.13,11.041a12.406,12.406,0,0,1-.744,7.452c-1.343,3.453-5.591,7.5-7.438,8.92a2.257,2.257,0,0,1-1.379.544m2.77-27.228c-2.463,0-5.653,3.9-7.609,6.286-.272.331-.523.638-.749.906-2.861,3.4-2.448,8.363-1.108,11.879a10.7,10.7,0,0,0,3.638,5.143,12.6,12.6,0,0,1,1.349,1.133c1.1,1.023,1.633,1.445,2.6.7,1.718-1.319,5.91-5.311,7.178-8.575a11.614,11.614,0,0,0,.714-6.966c-1.579-6.283-3.544-10-5.532-10.454a2.1,2.1,0,0,0-.481-.053" transform="translate(-2.951 -35.199)" fill="#2e3433"/>
        <path id="Trazado_791" data-name="Trazado 791" d="M8.752,291.8a13.774,13.774,0,0,1,3.465-1.091,12.917,12.917,0,0,1,9.22,2.594,38.36,38.36,0,0,1,6.914,6.93l.418,1.845a23.124,23.124,0,0,1-13.651,5.857,10.038,10.038,0,0,1-3.3-.2c-2.644-.7-4.539-2.964-6.131-5.189-1.092-1.528-5.336-3.846-5.213-5.721.174-2.663,5.842-3.945,8.28-5.029" transform="translate(-0.068 -41.94)" fill="#96999e"/>
        <path id="Trazado_792" data-name="Trazado 792" d="M13.873,308.321a8.787,8.787,0,0,1-2.227-.259c-2.742-.72-4.675-2.994-6.354-5.343a12.427,12.427,0,0,0-2-1.839c-1.66-1.347-3.376-2.74-3.285-4.141.153-2.334,3.692-3.6,6.537-4.616.747-.267,1.452-.519,1.981-.754a13.974,13.974,0,0,1,3.566-1.121A13.194,13.194,0,0,1,21.6,292.91a38.667,38.667,0,0,1,6.99,7l.062.074.491,2.168-.174.157a23.438,23.438,0,0,1-13.891,5.959c-.365.028-.773.051-1.207.051M8.847,292.1c-.555.246-1.275.5-2.037.775-2.485.888-5.888,2.1-6.006,3.912-.065.988,1.628,2.363,2.99,3.466a12.749,12.749,0,0,1,2.149,2c1.592,2.226,3.41,4.377,5.906,5.034a9.826,9.826,0,0,0,3.17.185,22.643,22.643,0,0,0,13.238-5.6l-.344-1.52a37.632,37.632,0,0,0-6.776-6.786,12.422,12.422,0,0,0-8.926-2.525A13.232,13.232,0,0,0,8.847,292.1" transform="translate(0 -41.873)" fill="#2e3433"/>
        <path id="Trazado_793" data-name="Trazado 793" d="M42.628,280.423c2.588-1.394,6.791-2.936,8.875-.863,1.432,1.423,1.029,4.637.645,6.619-.75,3.866-3.552,7.088-6.858,9.229s-7.114,3.35-10.87,4.537l-.691-.166a18.208,18.208,0,0,1,8.9-19.355" transform="translate(-4.814 -40.202)" fill="#96999e"/>
        <path id="Trazado_794" data-name="Trazado 794" d="M34.368,300.291l-1.044-.252-.054-.246A18.65,18.65,0,0,1,42.371,280c1.979-1.064,6.851-3.276,9.348-.793,1.173,1.166,1.427,3.514.756,6.978-.706,3.64-3.2,7.01-7.034,9.49-3.375,2.183-7.234,3.4-10.967,4.583ZM34,299.378l.337.081A43.463,43.463,0,0,0,45,295c3.593-2.327,6.028-5.6,6.683-8.969.769-3.968.134-5.593-.535-6.258-2.173-2.161-6.981.167-8.4.933A17.836,17.836,0,0,0,34,299.378" transform="translate(-4.747 -40.133)" fill="#2e3433"/>
        <path id="Trazado_795" data-name="Trazado 795" d="M51.735,313.041a11.653,11.653,0,0,1,3.24-3.481,8.191,8.191,0,0,1,7.052-.374,9.018,9.018,0,0,1,5.539,11.588,14.068,14.068,0,0,1-6.78,8.008,26.451,26.451,0,0,1-10.277,2.926l-.841-.991c-1.055-3.477-2.121-7.135-1.379-10.694a19.743,19.743,0,0,1,3.446-6.981" transform="translate(-6.934 -44.535)" fill="#96999e"/>
        <path id="Trazado_796" data-name="Trazado 796" d="M50.272,332.062l-1.056-1.3c-1.017-3.35-2.169-7.147-1.388-10.892a20.214,20.214,0,0,1,3.508-7.128,11.911,11.911,0,0,1,3.359-3.595,8.574,8.574,0,0,1,7.4-.408,9.417,9.417,0,0,1,5.785,12.076,14.483,14.483,0,0,1-6.969,8.245,26.67,26.67,0,0,1-10.432,2.974Zm-.312-1.609.649.767a25.685,25.685,0,0,0,9.912-2.855,13.678,13.678,0,0,0,6.591-7.771,8.617,8.617,0,0,0-5.293-11.1,7.777,7.777,0,0,0-6.7.338A11.251,11.251,0,0,0,52,313.2a19.517,19.517,0,0,0-3.382,6.835c-.733,3.516.363,7.178,1.346,10.416" transform="translate(-6.866 -44.467)" fill="#2e3433"/>
        <path id="Trazado_797" data-name="Trazado 797" d="M21.92,329.239c4.044-1.72,8.421-2.991,12.708-2.024s13,7.442,10.288,8.953c-3.08,1.715-11.979,7.411-15.5,7.475-2.89.053-11.379-3.063-11.773-3.964-.915-2.09,1.109-9.09,4.283-10.439" transform="translate(-2.514 -47.177)" fill="#96999e"/>
        <path id="Trazado_798" data-name="Trazado 798" d="M29.282,343.977c-2.846,0-11.563-3.025-12.08-4.206-.528-1.207-.21-3.781.775-6.26.559-1.406,1.784-3.887,3.718-4.709,3.554-1.511,8.236-3.111,12.952-2.047,3.8.857,10.727,5.706,11.1,8.287a1.312,1.312,0,0,1-.7,1.407c-.561.312-1.317.758-2.2,1.278-4.184,2.467-10.508,6.194-13.494,6.249h-.068m2.189-16.764a24.705,24.705,0,0,0-9.461,2.327c-1.217.517-2.415,2.072-3.287,4.266-.883,2.223-1.221,4.649-.786,5.643.477.687,8.38,3.724,11.325,3.724h.074c2.774-.05,9.239-3.86,13.1-6.137.888-.524,1.65-.972,2.215-1.287a.514.514,0,0,0,.3-.593c-.293-2.031-6.855-6.8-10.48-7.619a13.624,13.624,0,0,0-3-.324" transform="translate(-2.446 -47.109)" fill="#2e3433"/>
        <path id="Trazado_799" data-name="Trazado 799" d="M75.541,336.138a6.336,6.336,0,0,1,4.427,1.484c1.974,1.862,1.876,5.018,1.26,7.66a29.421,29.421,0,0,1-9.737,15.792l-1.06.2a32.363,32.363,0,0,1-4.657-11.109,15.676,15.676,0,0,1-.393-4.712,10.657,10.657,0,0,1,10.16-9.312" transform="translate(-9.429 -48.513)" fill="#96999e"/>
        <path id="Trazado_800" data-name="Trazado 800" d="M70.176,361.647l-.147-.222a32.988,32.988,0,0,1-4.715-11.248,16.373,16.373,0,0,1-.4-4.833A11.079,11.079,0,0,1,75.47,335.67a6.824,6.824,0,0,1,4.705,1.593c2.2,2.077,1.964,5.519,1.376,8.042a29.76,29.76,0,0,1-9.871,16.01l-.08.067Zm5.3-25.176a10.249,10.249,0,0,0-9.764,8.95,14.942,14.942,0,0,0,.386,4.591,32.175,32.175,0,0,0,4.454,10.75l.694-.131a28.943,28.943,0,0,0,9.524-15.508c.54-2.318.78-5.461-1.144-7.277a6,6,0,0,0-4.149-1.374" transform="translate(-9.362 -48.445)" fill="#2e3433"/>
        <path id="Trazado_801" data-name="Trazado 801" d="M46.258,355.778a17.213,17.213,0,0,1,4.237-.809,14.606,14.606,0,0,1,8.373,2.874c2.492,1.669,4.705,3.724,7.177,5.422l-.309.267c-.723,3.578-4.411,5.643-7.766,7.08-4.1,1.754-8.9,3.266-12.86,1.226a12.106,12.106,0,0,1-4.77-5.1,7.957,7.957,0,0,1-1.232-5.5c.712-3.073,4.121-4.59,7.149-5.465" transform="translate(-5.626 -51.23)" fill="#96999e"/>
        <path id="Trazado_802" data-name="Trazado 802" d="M49.323,373.145a9.61,9.61,0,0,1-4.464-1.017,12.268,12.268,0,0,1-4.937-5.262c-1.239-2.241-1.654-4.132-1.272-5.78.6-2.606,3.034-4.489,7.429-5.76a17.793,17.793,0,0,1,4.337-.825,15.029,15.029,0,0,1,8.608,2.943c1.308.876,2.554,1.869,3.759,2.828,1.1.88,2.246,1.788,3.423,2.6l.428.294-.6.519c-.837,3.739-4.693,5.828-7.973,7.233a23.111,23.111,0,0,1-8.736,2.231m1.4-17.847q-.144,0-.288.005a17.039,17.039,0,0,0-4.138.793c-4.091,1.182-6.338,2.873-6.871,5.17-.335,1.448.055,3.152,1.193,5.211a11.5,11.5,0,0,0,4.6,4.937c3.873,2,8.724.388,12.518-1.237,3.139-1.345,6.833-3.332,7.532-6.791l.05-.154c-1.047-.744-2.06-1.55-3.042-2.333-1.193-.95-2.426-1.932-3.707-2.79a14.374,14.374,0,0,0-7.849-2.812" transform="translate(-5.558 -51.163)" fill="#2e3433"/>
        <path id="Trazado_803" data-name="Trazado 803" d="M83.261,373.017a20.472,20.472,0,0,1,3.068-7.448,12.2,12.2,0,0,1,12.657-4.409c2.284.616,4.5,2.1,5.241,4.343.973,2.961-.856,6.049-2.655,8.593-2.582,3.651-5.81,7.538-10.264,7.953a16.123,16.123,0,0,1-3.715-.23q-1.74-.241-3.478-.484l-.669-.213a10.489,10.489,0,0,1-.8-4.314,18.285,18.285,0,0,1,.612-3.789" transform="translate(-11.928 -52.069)" fill="#96999e"/>
        <path id="Trazado_804" data-name="Trazado 804" d="M90.4,382.418a21.044,21.044,0,0,1-2.926-.272l-3.478-.483-.913-.286-.071-.171a10.954,10.954,0,0,1-.827-4.48,18.681,18.681,0,0,1,.624-3.872,20.782,20.782,0,0,1,3.135-7.591,12.541,12.541,0,0,1,13.084-4.557,7.625,7.625,0,0,1,5.517,4.6c1.011,3.083-.8,6.254-2.71,8.95-2.806,3.969-6.027,7.7-10.554,8.121-.3.027-.59.039-.881.039m-6.717-1.692.49.157,3.411.468a15.672,15.672,0,0,0,3.624.228c4.2-.391,7.278-3.973,9.973-7.785,1.793-2.533,3.5-5.493,2.6-8.236a6.837,6.837,0,0,0-4.965-4.08,11.729,11.729,0,0,0-12.23,4.26,20.1,20.1,0,0,0-3,7.3,18.055,18.055,0,0,0-.6,3.706,10.13,10.13,0,0,0,.7,3.977" transform="translate(-11.86 -52.001)" fill="#2e3433"/>
        <path id="Trazado_805" data-name="Trazado 805" d="M61.42,383a23.55,23.55,0,0,1,19,2.447l-1.923.473a7.222,7.222,0,0,1-1.568,6.987,18.485,18.485,0,0,1-6.089,4.3c-2.978,1.5-6.449,2.855-9.557,1.647-2.553-.991-4.193-3.495-5.274-6.012a8.072,8.072,0,0,1-.847-4.112c.372-2.973,3.4-4.859,6.262-5.736" transform="translate(-7.955 -55.133)" fill="#96999e"/>
        <path id="Trazado_806" data-name="Trazado 806" d="M63.8,399.66a7.481,7.481,0,0,1-2.732-.5c-2.248-.872-4.1-2.968-5.5-6.228a8.429,8.429,0,0,1-.877-4.319c.331-2.649,2.778-4.918,6.542-6.07a23.956,23.956,0,0,1,19.325,2.489l.813.5-2.428.6a7.787,7.787,0,0,1-1.779,6.959A18.928,18.928,0,0,1,70.95,397.5,16.623,16.623,0,0,1,63.8,399.66m4.267-17.319a22.556,22.556,0,0,0-6.6.975c-1.295.4-5.55,1.955-5.981,5.4a7.717,7.717,0,0,0,.818,3.9c1.311,3.055,3.011,5,5.051,5.8,2.975,1.155,6.337-.176,9.232-1.632a18.243,18.243,0,0,0,5.961-4.2,6.821,6.821,0,0,0,1.5-6.586l-.163-.424,1.406-.347a23.188,23.188,0,0,0-11.229-2.884" transform="translate(-7.888 -55.066)" fill="#2e3433"/>
        <path id="Trazado_807" data-name="Trazado 807" d="M8.951,298.91c3.47.2,6.966,1.388,10.368,2.093a44.162,44.162,0,0,0,10.5.871.285.285,0,0,1,.071.566c-3.345.858-6.88.241-10.206-.442-3.565-.732-7.477-1.254-10.858-2.6a.256.256,0,0,1,.129-.488" transform="translate(-1.251 -43.14)" fill="#2e3433"/>
        <path id="Trazado_808" data-name="Trazado 808" d="M34.609,298.864c3-.591,5.426-4.339,7.355-6.554,1.592-1.829,3.047-3.792,4.774-5.494.24-.236.552.145.4.394a63.646,63.646,0,0,1-7.3,8.736c-1.475,1.6-2.837,3.4-5.162,3.432a.259.259,0,0,1-.065-.513" transform="translate(-4.964 -41.384)" fill="#2e3433"/>
        <path id="Trazado_809" data-name="Trazado 809" d="M60.564,315.582c.315-.243.812.211.514.512a29,29,0,0,0-6.792,9.488c-.937,2.282-1.361,5.084-3.272,6.78-.117.1-.25-.046-.218-.168,1.61-6.019,4.746-12.717,9.768-16.611" transform="translate(-7.33 -45.536)" fill="#2e3433"/>
        <path id="Trazado_810" data-name="Trazado 810" d="M22.641,338.943A22.143,22.143,0,0,1,33.026,336.1c4.425.027,8.031,1.122,12.228-1.054.275-.143.537.309.273.478a12.584,12.584,0,0,1-8.607,1.817,23.856,23.856,0,0,0-6.967-.049c-2.44.461-4.724,1.5-7.112,2.149a.266.266,0,0,1-.2-.494" transform="translate(-3.245 -48.351)" fill="#2e3433"/>
        <path id="Trazado_811" data-name="Trazado 811" d="M72.705,350.906a26.139,26.139,0,0,1,3.935-9.086.139.139,0,0,1,.239.136c-1.545,4.532-3.474,8.676-4.17,13.488-.317,2.184.058,5.643-2.61,6.365a.3.3,0,0,1-.292-.51c2.544-2.034,2.107-7.386,2.9-10.392" transform="translate(-10.058 -49.325)" fill="#2e3433"/>
        <path id="Trazado_812" data-name="Trazado 812" d="M44.074,364.569a30.751,30.751,0,0,1,9.376-1.152c3.763.1,9.044,2.474,12.5.715.226-.115.44.253.223.392-2.769,1.766-5.717.55-8.741.113a36.816,36.816,0,0,0-13.145.744c-.464.1-.676-.678-.212-.812" transform="translate(-6.324 -52.448)" fill="#2e3433"/>
        <path id="Trazado_813" data-name="Trazado 813" d="M100.959,366.752c.2-.1.377.216.193.339-6.876,4.573-14.475,7.6-18,15.633-.233.531-1.069.189-.834-.341,3.542-7.995,11.226-11.79,18.637-15.631" transform="translate(-11.875 -52.928)" fill="#2e3433"/>
        <path id="Trazado_814" data-name="Trazado 814" d="M61.2,391.858c3.154-1.311,6.426-2.249,9.58-3.638a23.9,23.9,0,0,1,8.905-2.488.324.324,0,0,1,.08.642,41.888,41.888,0,0,0-10.489,3.653c-2.468,1.112-5.238,2.546-8,2.4-.306-.016-.331-.462-.072-.568" transform="translate(-8.807 -55.67)" fill="#2e3433"/>
        <path id="Trazado_815" data-name="Trazado 815" d="M33.468,259.483a85.518,85.518,0,0,0-.873,29.1c1.7,10.8,5.927,20.838,11.535,30.169C54.675,336.3,69.282,351.228,78,369.9c4.339,9.3,7.1,19.279,6.547,29.607-.018.33-.578.335-.585,0-.911-43.383-45.705-68.244-52.894-109.671a71.839,71.839,0,0,1,1.065-30.71c.2-.767,1.484-.418,1.339.356" transform="translate(-4.316 -37.336)" fill="#2e3433"/>
      </g>
    </g>
    <g id="Grupo_286" data-name="Grupo 286" transform="translate(108.799 144.002)">
      <g id="Grupo_285" data-name="Grupo 285" clip-path="url(#clip-path-2)">
        <line id="Línea_81" data-name="Línea 81" x1="122.185" y1="319.194" transform="translate(-55.862 -56.362)" fill="none" stroke="#f3ad13" stroke-miterlimit="10" stroke-width="8"/>
        <line id="Línea_82" data-name="Línea 82" x1="122.185" y1="319.194" transform="translate(-44.143 -60.848)" fill="none" stroke="#f3ad13" stroke-miterlimit="10" stroke-width="8"/>
        <line id="Línea_83" data-name="Línea 83" x1="122.185" y1="319.194" transform="translate(-32.424 -65.334)" fill="none" stroke="#f3ad13" stroke-miterlimit="10" stroke-width="8"/>
        <line id="Línea_84" data-name="Línea 84" x1="122.185" y1="319.194" transform="translate(-20.706 -69.82)" fill="none" stroke="#f3ad13" stroke-miterlimit="10" stroke-width="8"/>
        <line id="Línea_85" data-name="Línea 85" x1="122.185" y1="319.194" transform="translate(-8.987 -74.306)" fill="none" stroke="#f3ad13" stroke-miterlimit="10" stroke-width="8"/>
        <line id="Línea_86" data-name="Línea 86" x1="122.185" y1="319.194" transform="translate(2.732 -78.792)" fill="none" stroke="#f3ad13" stroke-miterlimit="10" stroke-width="8"/>
        <line id="Línea_87" data-name="Línea 87" x1="122.185" y1="319.194" transform="translate(14.45 -83.277)" fill="none" stroke="#f3ad13" stroke-miterlimit="10" stroke-width="8"/>
        <line id="Línea_88" data-name="Línea 88" x1="122.185" y1="319.194" transform="translate(26.169 -87.763)" fill="none" stroke="#f3ad13" stroke-miterlimit="10" stroke-width="8"/>
        <line id="Línea_89" data-name="Línea 89" x1="122.185" y1="319.194" transform="translate(37.888 -92.249)" fill="none" stroke="#f3ad13" stroke-miterlimit="10" stroke-width="8"/>
        <line id="Línea_90" data-name="Línea 90" x1="122.185" y1="319.194" transform="translate(49.606 -96.735)" fill="none" stroke="#f3ad13" stroke-miterlimit="10" stroke-width="8"/>
        <line id="Línea_91" data-name="Línea 91" x1="122.185" y1="319.194" transform="translate(61.325 -101.221)" fill="none" stroke="#f3ad13" stroke-miterlimit="10" stroke-width="8"/>
        <line id="Línea_92" data-name="Línea 92" x1="122.185" y1="319.194" transform="translate(73.044 -105.707)" fill="none" stroke="#f3ad13" stroke-miterlimit="10" stroke-width="8"/>
        <line id="Línea_93" data-name="Línea 93" x1="122.185" y1="319.194" transform="translate(84.762 -110.192)" fill="none" stroke="#f3ad13" stroke-miterlimit="10" stroke-width="8"/>
        <line id="Línea_94" data-name="Línea 94" x1="122.185" y1="319.194" transform="translate(96.481 -114.678)" fill="none" stroke="#f3ad13" stroke-miterlimit="10" stroke-width="8"/>
        <line id="Línea_95" data-name="Línea 95" x1="122.185" y1="319.194" transform="translate(108.2 -119.164)" fill="none" stroke="#f3ad13" stroke-miterlimit="10" stroke-width="8"/>
        <line id="Línea_96" data-name="Línea 96" x1="122.185" y1="319.194" transform="translate(119.918 -123.65)" fill="none" stroke="#f3ad13" stroke-miterlimit="10" stroke-width="8"/>
        <line id="Línea_97" data-name="Línea 97" x1="122.185" y1="319.194" transform="translate(131.637 -128.136)" fill="none" stroke="#f3ad13" stroke-miterlimit="10" stroke-width="8"/>
        <line id="Línea_98" data-name="Línea 98" x1="122.185" y1="319.194" transform="translate(143.356 -132.621)" fill="none" stroke="#f3ad13" stroke-miterlimit="10" stroke-width="8"/>
        <line id="Línea_99" data-name="Línea 99" x1="122.185" y1="319.194" transform="translate(155.075 -137.107)" fill="none" stroke="#f3ad13" stroke-miterlimit="10" stroke-width="8"/>
        <line id="Línea_100" data-name="Línea 100" x1="122.185" y1="319.194" transform="translate(166.793 -141.593)" fill="none" stroke="#f3ad13" stroke-miterlimit="10" stroke-width="8"/>
      </g>
    </g>
    <g id="Grupo_288" data-name="Grupo 288">
      <g id="Grupo_287" data-name="Grupo 287" clip-path="url(#clip-path-3)">
        <path id="Trazado_817" data-name="Trazado 817" d="M87.917,284.331a1.87,1.87,0,1,1-1.87-1.87,1.87,1.87,0,0,1,1.87,1.87" transform="translate(-12.149 -40.766)" fill="#f5b015"/>
        <path id="Trazado_818" data-name="Trazado 818" d="M327.823,205.566a1.36,1.36,0,1,1-1.361-1.36,1.36,1.36,0,0,1,1.361,1.36" transform="translate(-46.92 -29.472)" fill="#f5b015"/>
        <path id="Trazado_819" data-name="Trazado 819" d="M289.812,203.032a1.36,1.36,0,1,1-1.36-1.361,1.36,1.36,0,0,1,1.36,1.361" transform="translate(-41.435 -29.106)" fill="#f5b015"/>
        <path id="Trazado_820" data-name="Trazado 820" d="M138.174,340.729a1.36,1.36,0,1,1-1.36-1.361,1.36,1.36,0,0,1,1.36,1.361" transform="translate(-19.549 -48.979)" fill="#f5b015"/>
        <path id="Trazado_821" data-name="Trazado 821" d="M242.7,220.34a2.72,2.72,0,1,1-2.72-2.719,2.721,2.721,0,0,1,2.72,2.719" transform="translate(-34.242 -31.408)" fill="#f5b015"/>
        <path id="Trazado_822" data-name="Trazado 822" d="M218.846,180a2.72,2.72,0,1,1-2.719-2.72,2.719,2.719,0,0,1,2.719,2.72" transform="translate(-30.8 -25.585)" fill="#f5b015"/>
        <path id="Trazado_823" data-name="Trazado 823" d="M383.136,314.333a2.72,2.72,0,1,1-2.719-2.72,2.72,2.72,0,0,1,2.719,2.72" transform="translate(-54.511 -44.973)" fill="#f5b015"/>
        <path id="Trazado_824" data-name="Trazado 824" d="M69.726,203.923H61.42V157.576h45.066v8.279H69.726Z" transform="translate(-8.864 -22.742)" fill="#2e3433"/>
        <path id="Trazado_825" data-name="Trazado 825" d="M400.778,203.923h-8.306V165.854h-36.76v-8.279h45.066Z" transform="translate(-51.338 -22.742)" fill="#2e3433"/>
        <path id="Trazado_826" data-name="Trazado 826" d="M106.486,474.68H61.42V428.332h8.306V466.4h36.76Z" transform="translate(-8.864 -61.819)" fill="#2e3433"/>
        <path id="Trazado_827" data-name="Trazado 827" d="M400.778,474.68H355.712V466.4h36.76V428.332h8.306Z" transform="translate(-51.338 -61.819)" fill="#2e3433"/>
        <path id="Trazado_828" data-name="Trazado 828" d="M331.99,402.685H98.515A14.325,14.325,0,0,1,84.19,388.36V256.073a14.325,14.325,0,0,1,14.325-14.325H331.99a14.325,14.325,0,0,1,14.325,14.325V388.36a14.325,14.325,0,0,1-14.325,14.325" transform="translate(-12.151 -34.89)" fill="#fff"/>
        <path id="Trazado_875" data-name="Trazado 875" d="M9.92,0H252.205a9.92,9.92,0,0,1,9.92,9.92v141.1a9.92,9.92,0,0,1-9.92,9.92H9.92A9.92,9.92,0,0,1,0,151.017V9.92A9.92,9.92,0,0,1,9.92,0Z" transform="translate(72.039 206.858)" fill="#fff" stroke="#2e3433" stroke-linecap="round" stroke-width="2"/>
        <path id="Trazado_829" data-name="Trazado 829" d="M346.315,266.8H84.19V256.073a14.325,14.325,0,0,1,14.325-14.325H331.99a14.325,14.325,0,0,1,14.325,14.325Z" transform="translate(-12.151 -37.853)" fill="#f5b015"/>
        <path id="Trazado_830" data-name="Trazado 830" d="M346.315,266.8H84.19V256.073a14.325,14.325,0,0,1,14.325-14.325H331.99a14.325,14.325,0,0,1,14.325,14.325Z" transform="translate(-12.151 -37.853)" fill="none" stroke="#2e3433" stroke-miterlimit="10" stroke-width="2"/>
        <path id="Trazado_831" data-name="Trazado 831" d="M316.166,306.142H224.029a1.822,1.822,0,1,1,0-3.643h92.137a1.822,1.822,0,0,1,0,3.643" transform="translate(-32.07 -43.658)" fill="#2e3433"/>
        <path id="Trazado_832" data-name="Trazado 832" d="M300.135,327.433H224.029a1.822,1.822,0,1,1,0-3.644h76.106a1.822,1.822,0,0,1,0,3.644" transform="translate(-32.07 -46.731)" fill="#2e3433"/>
        <path id="Trazado_833" data-name="Trazado 833" d="M336.219,316.594H224.029a1.822,1.822,0,1,1,0-3.644h112.19a1.822,1.822,0,0,1,0,3.644" transform="translate(-32.07 -45.166)" fill="#2e3433"/>
        <path id="Trazado_834" data-name="Trazado 834" d="M316.166,338.392H224.029a1.822,1.822,0,1,1,0-3.643h92.137a1.822,1.822,0,0,1,0,3.643" transform="translate(-32.07 -48.312)" fill="#2e3433"/>
        <path id="Trazado_835" data-name="Trazado 835" d="M336.219,348.845H224.029a1.822,1.822,0,1,1,0-3.644h112.19a1.822,1.822,0,0,1,0,3.644" transform="translate(-32.07 -49.821)" fill="#2e3433"/>
        <path id="Trazado_836" data-name="Trazado 836" d="M118.39,382.722a7.615,7.615,0,0,1-7.6-7.627l.088-70.9a7.628,7.628,0,0,1,7.617-7.6l65.039.094a7.615,7.615,0,0,1,7.6,7.628l-.089,70.9a7.625,7.625,0,0,1-7.614,7.6Z" transform="translate(-15.989 -42.805)" fill="#f5d84c"/>
        <path id="Trazado_837" data-name="Trazado 837" d="M118.372,297.171h.011l65.028.095a6.916,6.916,0,0,1,6.907,6.927l-.089,70.9A6.915,6.915,0,0,1,183.312,382h-.01l-65.029-.094a6.915,6.915,0,0,1-6.906-6.927l.087-70.9a6.919,6.919,0,0,1,6.917-6.907m0-1.4a8.328,8.328,0,0,0-8.315,8.3l-.087,70.9a8.313,8.313,0,0,0,8.3,8.327l65.03.094a8.328,8.328,0,0,0,8.326-8.3l.089-70.9a8.325,8.325,0,0,0-8.3-8.327l-65.029-.095Z" transform="translate(-15.871 -42.687)" fill="#2e3433"/>
      </g>
    </g>
    <g id="Grupo_290" data-name="Grupo 290" transform="translate(95.497 264.524)">
      <g id="Grupo_289" data-name="Grupo 289" clip-path="url(#clip-path-4)">
        <path id="Trazado_838" data-name="Trazado 838" d="M189.091,438.775A48.611,48.611,0,0,0,188,449.853c.022,6.49,5.932,11.795,10.308,19.712a22.978,22.978,0,0,0,3.255,4.41c8.622,9.406,27.732,18,48.536,18.17,14.456.142,23.734-43,26.19-66.2,1.815-16.946-.756-23.712-3.873-28.243-2.431-3.53-6.943,5.732-6.943,5.732-5.416-2.553-16.045,50.744-23.288,48.05-4.8-1.783-8.717-5.44-17.113-13.052-1.331-1.206-17.618-42.751-28.485-49.781-10.8-7-7.5,50.127-7.5,50.127" transform="translate(-122.63 -320.53)" fill="#fff"/>
        <path id="Trazado_839" data-name="Trazado 839" d="M250.07,492.63H250c-22.246-.184-40.974-9.645-48.961-18.358a23.533,23.533,0,0,1-3.335-4.524,81.6,81.6,0,0,0-4.574-7.126c-3.109-4.482-5.792-8.353-5.808-12.866a49.666,49.666,0,0,1,1.088-11.132c-.164-2.885-2.506-46.535,4.93-50.859a3.133,3.133,0,0,1,3.47.3c8.375,5.419,19.863,30.874,25.384,43.106,1.546,3.427,2.883,6.388,3.194,6.75l.916.828c7.644,6.934,11.482,10.414,15.992,12.092a1.078,1.078,0,0,0,.89-.079c3.376-1.616,7.7-14.576,11.511-26.012,4.313-12.933,7.113-20.863,9.645-21.947a1.568,1.568,0,0,1,.722-.136c.792-1.537,3.412-6.263,5.807-6.442a2.086,2.086,0,0,1,1.931,1.048c3.011,4.378,5.839,11.2,3.974,28.636-2.737,25.826-12.4,66.721-26.7,66.725m-55.311-104.09a1.644,1.644,0,0,0-.838.231c-5.738,3.337-5.084,37.133-4.348,49.873l0,.089-.022.086a48.689,48.689,0,0,0-1.073,10.932c.015,4.152,2.6,7.885,5.6,12.208a82.828,82.828,0,0,1,4.636,7.225,22.315,22.315,0,0,0,3.175,4.3c7.821,8.534,26.214,17.8,48.112,17.981h.064c12.818.005,22.65-38.376,25.542-65.682,1.825-17.056-.883-23.652-3.774-27.853-.36-.525-.679-.564-.885-.548-1.537.115-3.917,3.867-5.054,6.205l-.252.517-.519-.246a.369.369,0,0,0-.334.013c-2.232.955-5.826,11.734-9,21.244-4.076,12.224-8.291,24.863-12.112,26.694a2.237,2.237,0,0,1-1.8.119c-4.721-1.754-8.614-5.285-16.37-12.32l-.933-.846c-.371-.337-1.029-1.738-3.455-7.115-5.475-12.132-16.868-37.375-24.955-42.608a2.646,2.646,0,0,0-1.413-.5" transform="translate(-122.531 -320.432)" fill="#2e3433"/>
        <path id="Trazado_840" data-name="Trazado 840" d="M189.886,432.979s-13.206-1.942-11.637,4.473c1.814,7.46,10.922,29.993,19.446,37.914,15.376-3.9,39.679-45.281,30.935-55.367-13.315-15.361-25.574-29.278-37.569-33.5-12.12-4.242-1.175,46.476-1.175,46.476" transform="translate(-121.204 -320.27)" fill="#f5d84c"/>
        <path id="Trazado_841" data-name="Trazado 841" d="M197.432,475.909l-.232-.216c-8.666-8.054-17.795-30.714-19.615-38.2a3.571,3.571,0,0,1,.727-3.442c2.268-2.493,8.476-2.09,10.738-1.847-1.223-5.872-8.041-40.165-1.683-45.779a3.584,3.584,0,0,1,3.789-.571c12.42,4.368,25.331,19.26,37.817,33.663,2.541,2.932,2.651,8.412.315,15.85-4.983,15.879-20.519,37.668-31.549,40.465Zm-11.7-42.721c-2.541,0-5.376.351-6.555,1.646a2.438,2.438,0,0,0-.456,2.38c1.78,7.324,10.612,29.32,19.042,37.406,10.669-3.034,25.569-24.152,30.418-39.6,2.175-6.931,2.145-12.164-.085-14.737-12.387-14.288-25.194-29.062-37.323-33.328a2.457,2.457,0,0,0-2.631.346c-5.231,4.617-.172,34.381,2.219,45.459l.178.821-.832-.121a29.261,29.261,0,0,0-3.975-.269" transform="translate(-121.105 -320.171)" fill="#2e3433"/>
        <path id="Trazado_842" data-name="Trazado 842" d="M207.563,521.506c-.53,1.653-43.8,11.644-57.068,13.685a235.757,235.757,0,0,1-43.343,2.392c-9.43-.458-16.219-1.653-17.134-3.553-1.865-4.009,1.936-39.264,1.162-65.228-.141-4.183-.213-8.406-.247-12.594-.247-27.019,1.512-52.948,7.6-57.628,1.336-1.055,2.885-2.147,4.606-3.308a87.125,87.125,0,0,1,8.937-5.346,83.939,83.939,0,0,1,18.4-7.1,76.345,76.345,0,0,1,36.727-.564.034.034,0,0,0,.034.034,74.6,74.6,0,0,1,10.135,3.027c.809.278,1.619.6,2.46.913,11.54,4.642,9.889,29.764,8.023,50.838-.842,9.779-1.721,18.68-1.372,24.241a48.917,48.917,0,0,0,.7,5.558c2.6,15.517,18.434,43.346,20.372,54.638" transform="translate(-108.414 -319.409)" fill="#e4e6eb"/>
        <path id="Trazado_843" data-name="Trazado 843" d="M115.609,538.224c-2.959,0-5.835-.061-8.573-.187-7.355-.356-16.378-1.315-17.6-3.862-.947-2.036-.591-10.282.12-24.682.612-12.393,1.373-27.817.988-40.765-.128-3.823-.21-7.947-.248-12.607-.216-23.583.964-52.8,7.814-58.065,1.2-.946,2.671-2,4.633-3.328a88.247,88.247,0,0,1,8.99-5.38,84.416,84.416,0,0,1,18.521-7.149,76.923,76.923,0,0,1,36.984-.566l.424.122a75.846,75.846,0,0,1,9.816,2.961c.578.2,1.175.426,1.782.657l.677.256c11.519,4.633,10.453,27.933,8.375,51.4l-.274,3.158c-.756,8.631-1.406,16.086-1.1,21a47.605,47.605,0,0,0,.695,5.488c1.4,8.347,6.777,20.56,11.52,31.337,4.09,9.293,7.954,18.069,8.855,23.313l.021.133-.041.128c-.741,2.315-48.056,12.6-57.5,14.057a237.882,237.882,0,0,1-34.876,2.584M149.9,380.744a76.537,76.537,0,0,0-19.375,2.514,83.194,83.194,0,0,0-18.286,7.058,86.638,86.638,0,0,0-8.882,5.315c-1.942,1.311-3.4,2.353-4.578,3.287-5,3.841-7.689,24.685-7.391,57.192.039,4.651.119,8.766.247,12.582.386,12.993-.376,28.441-.99,40.854-.59,11.953-1.1,22.276-.222,24.16.576,1.2,5.259,2.685,16.664,3.238a234.21,234.21,0,0,0,43.232-2.386c13.107-2.016,53.3-11.315,56.56-13.337-.968-5.149-4.738-13.714-8.725-22.773-4.77-10.834-10.175-23.113-11.594-31.583a48.464,48.464,0,0,1-.71-5.607c-.315-5,.339-12.495,1.1-21.17l.274-3.157c2.041-23.06,3.129-45.936-7.681-50.285l-.67-.254c-.6-.226-1.183-.448-1.764-.649a74.8,74.8,0,0,0-10.019-3H166.6l-.008-.14a76.235,76.235,0,0,0-16.693-1.863" transform="translate(-108.321 -319.317)" fill="#2e3433"/>
        <path id="Trazado_844" data-name="Trazado 844" d="M166.036,366.458v11.286s2.665,4.894,0,5.426c-5.861,1.176-14.327-5.419-14.327-5.419V360.522Z" transform="translate(-117.392 -316.557)" fill="#fff"/>
        <path id="Trazado_845" data-name="Trazado 845" d="M164.458,383.719c-5.819,0-12.854-5.422-13.177-5.674l-.211-.163V359.565l15.421,6.391V377.47c.359.688,1.7,3.46.962,5.047a1.877,1.877,0,0,1-1.4,1.053,8.233,8.233,0,0,1-1.592.15m-12.294-6.378c1.328.986,8.626,6.167,13.673,5.155a.779.779,0,0,0,.625-.442c.431-.919-.383-3.055-1-4.185l-.067-.122v-11.06L152.163,361.2Z" transform="translate(-117.3 -316.418)" fill="#2e3433"/>
        <path id="Trazado_846" data-name="Trazado 846" d="M152.348,369.279v-4.343s5.547,5.02,12.584,5.419c0,0-6.737,2.827-12.584-1.076" transform="translate(-117.484 -317.194)" fill="#2e3433"/>
        <path id="Trazado_847" data-name="Trazado 847" d="M107.789,411.8c-7.387,9.5-9.745,27.823-15.9,38.165-.773,1.3-.321,8.926-.953,10.262.034,4.187.107,8.41.247,12.594.774,25.964-3.027,61.218-1.161,65.227.914,1.9,7.7,3.1,17.134,3.553,1.687-3.023.982-6.472.7-9.778-.529-6.4-1.126-12.809-1.69-19.209-1.2-13.793-2.57-27.128.282-40.813,2.92-14.073,4.629-16,7.535-30.056,3.519-17-3.175-32.771-3.349-33.092,1.019-1.721-1.509,1.421-2.846,3.146" transform="translate(-108.413 -323.432)" fill="#2e3433"/>
        <path id="Trazado_848" data-name="Trazado 848" d="M167.94,332.926s5.42,10.989,6.774,21.228c.964,7.27-12.342,16.859-23.181,6.624s-7.83-25.9-7.83-25.9Z" transform="translate(-116.181 -312.574)" fill="#fff"/>
        <path id="Trazado_849" data-name="Trazado 849" d="M161.873,365.7a15.745,15.745,0,0,1-10.8-4.619c-10.93-10.323-8.021-26.237-7.99-26.4l.078-.408,25.022-2.019.164.333c.056.111,5.476,11.187,6.826,21.4.486,3.662-2.287,7.815-6.745,10.1a14.312,14.312,0,0,1-6.549,1.616m-17.786-30.4c-.363,2.507-1.8,15.989,7.734,24.987,4.758,4.493,10.779,5.55,16.1,2.824,3.99-2.04,6.58-5.816,6.162-8.977-1.2-9.044-5.659-18.813-6.563-20.724Z" transform="translate(-116.093 -312.477)" fill="#2e3433"/>
        <path id="Trazado_850" data-name="Trazado 850" d="M140.433,347.263c-.078-.071-.138-.49-.318-.957a7.518,7.518,0,0,1,1.534-7.649,1.974,1.974,0,0,1,2.678-.229c.035,0,.057-.018.089-.021,3.087-.234,3.087,3.513,3.514,5.574.71,3.455,2.855,7.6,1.775,11.182a4.433,4.433,0,0,1-5.518,3.143c-2.979-.875-2.665-3.644-3.678-5.924-.6-1.358-1.064-2.317-.673-3.849a6.422,6.422,0,0,1,.6-1.271" transform="translate(-115.651 -313.308)" fill="#2e3433"/>
        <path id="Trazado_851" data-name="Trazado 851" d="M168.082,319.182c-2.061.142-3.482.975-5.363,1.7-3.172,1.224-5.85,1.217-9.143,1.273-4.053.067-7.922.367-11.016,3.278-4.889,4.6-6.407,15.549-3.422,22.141a3.787,3.787,0,0,0,1.954,3.257,4.429,4.429,0,0,0,6.1-1.76c1.891-3.222.786-7.758.91-11.287.025-.794.165-1.81.169-2.791,9.321,1.627,21.84,3.261,28.046-3.392,6.377-6.834-.549-12.938-8.238-12.419" transform="translate(-115.357 -310.586)" fill="#2e3433"/>
        <path id="Trazado_852" data-name="Trazado 852" d="M203.142,393.6s-6.394-6.023-12.32-7.025-5.378,21.331-5.378,21.331l8.654,9.206,8.392-.456s.541-.947,1.068.1,3.489,4.918,3.946,4.461,2.508-2.552,2.508-2.552-.685-8.341-.731-8.66-6.139-16.4-6.139-16.4" transform="translate(-122.259 -320.312)" fill="#e4e6eb"/>
        <path id="Trazado_853" data-name="Trazado 853" d="M153.546,524.724c27.11,1.489,54.542-66.133,54.542-66.133l-10.171-6.865s-23.072,34.234-38.855,32.1c-2.865-.388-22.333-21.511-23.3-32.062-.418-4.705-.693-9.53-.865-13.653A43.786,43.786,0,0,0,124.3,410.8c-6.377-7.231-8.12-7.889-14.449-10-8.8-2.952-22.658,9.4-22.569,18.679.172,17.845,8.282,44.558,8.486,45.435,7.855,31.574,30.578,58.319,57.78,59.815" transform="translate(-108.093 -322.305)" fill="#fff"/>
        <path id="Trazado_854" data-name="Trazado 854" d="M149.12,524.669c-24.133-3.764-45.914-27.615-53.9-59.725-.021-.081-.1-.356-.227-.805-5.235-18.324-8.173-34.213-8.274-44.74-.048-5.05,3.906-11.339,9.839-15.652,4.77-3.465,9.645-4.736,13.364-3.489,6.554,2.189,8.342,2.978,14.657,10.142a44.4,44.4,0,0,1,10.716,27.608c.2,4.817.5,9.531.864,13.632.925,10.075,20.135,31.2,22.876,31.627l.011,0c15.311,2.072,38.162-31.55,38.392-31.892l.269-.4,10.9,7.355-.146.361c-1.124,2.774-27.874,67.923-55.017,66.433-1.444-.08-2.887-.234-4.317-.456M108.314,400.856c-3.234-.5-7.226.789-11.191,3.67-5.6,4.072-9.488,10.184-9.444,14.863.1,10.443,3.027,26.241,8.238,44.485.135.475.218.765.238.845,8.359,33.6,31.936,58.04,57.336,59.445,25.448,1.4,51.7-60.153,53.922-65.472l-9.449-6.378c-2.764,4.023-23.892,33.958-39.047,31.908l-.018,0c-3.267-.507-22.744-22.079-23.7-32.493-.365-4.117-.665-8.844-.867-13.676a43.44,43.44,0,0,0-10.474-27.009c-6.387-7.244-8.05-7.8-14.242-9.868a7.817,7.817,0,0,0-1.3-.315" transform="translate(-108.012 -322.224)" fill="#2e3433"/>
        <path id="Trazado_855" data-name="Trazado 855" d="M140.047,455.4c-.388-4.337-3.187-31.936-16.373-46.356-6-6.56-18.6-13.591-27.4-6.632-14.1,11.149-14.5,41.218-9.589,65.8,17.68,4.643,36.951-.755,53.363-12.816" transform="translate(-107.596 -322.187)" fill="#f5d84c"/>
        <path id="Trazado_856" data-name="Trazado 856" d="M91.41,469.624a48.93,48.93,0,0,1-4.922-1.027l-.291-.076-.06-.3c-4.662-23.327-4.9-54.68,9.763-66.275,9.275-7.334,22.129.207,28.055,6.685,13.009,14.229,16.023,41.346,16.495,46.637l.025.271-.218.16c-15.566,11.442-33.091,16.38-48.847,13.921m-4.387-1.882c16.544,4.236,35.622-.37,52.444-12.655-.541-5.828-3.626-32.028-16.222-45.8-6.111-6.681-18.45-13.139-26.748-6.579-14.262,11.277-14.026,42.009-9.474,65.036" transform="translate(-107.52 -322.1)" fill="#2e3433"/>
        <path id="Trazado_857" data-name="Trazado 857" d="M236.712,425.028a24.489,24.489,0,0,0-6.628,6.681,11.359,11.359,0,0,0-.872.791,11.87,11.87,0,0,0-.424-1.148c-1.151-2.26-4.082-4.81-6.762-3.308-2.827,1.589-1.024,5.482-.538,7.846a22.229,22.229,0,0,1,.4,8.488c-.762,2.655-2.356,4.951-3.679,7.365-.943,1.727-2.865,4.295-2.108,6.423.6,1.693,3.074,3.689,4.688,4.441,2.023.945,4.007.1,5.865-.843a20.832,20.832,0,0,0,4.349-3.052c2.66-1.866,5.136-4.054,6.413-7.1a11.965,11.965,0,0,0,.609-2.017,16.3,16.3,0,0,0,6.392-6.287,1.989,1.989,0,0,0-1.2-2.912,3.707,3.707,0,0,0,.3-1.867,2.8,2.8,0,0,0-1.025-1.794,6.582,6.582,0,0,0,.074-1.948,5.378,5.378,0,0,0-3.6-4.556,26.107,26.107,0,0,1,9.548-2.179,2.13,2.13,0,0,0,1.7-3.222c-2.316-4.58-10.282-1.874-13.5.2" transform="translate(-126.661 -325.476)" fill="#fff"/>
        <path id="Trazado_858" data-name="Trazado 858" d="M221.817,463.364a4.842,4.842,0,0,1-1.311-.4c-1.642-.765-4.272-2.83-4.939-4.717-.706-1.989.581-4.162,1.617-5.908.189-.321.37-.625.524-.906.328-.6.673-1.192,1.017-1.783a24.8,24.8,0,0,0,2.62-5.485,22.249,22.249,0,0,0-.411-8.258c-.086-.424-.216-.9-.354-1.4-.637-2.314-1.509-5.481,1.129-6.963a3.977,3.977,0,0,1,3.176-.321,7.786,7.786,0,0,1,4.252,3.83,3.843,3.843,0,0,1,.205.5,3.935,3.935,0,0,1,.311-.264,24.9,24.9,0,0,1,6.715-6.745h0c2.329-1.5,7.375-3.512,11.017-2.525a4.8,4.8,0,0,1,3.176,2.511,2.806,2.806,0,0,1-.017,2.663,2.525,2.525,0,0,1-2.078,1.256,27.087,27.087,0,0,0-8.4,1.7,5.941,5.941,0,0,1,2.895,4.491,6.813,6.813,0,0,1-.035,1.836,3.164,3.164,0,0,1,.987,1.911,3.952,3.952,0,0,1-.175,1.671,2.656,2.656,0,0,1,1.216,1.372,2.365,2.365,0,0,1-.2,2.033,16.746,16.746,0,0,1-6.388,6.365,11.839,11.839,0,0,1-.586,1.886c-1.417,3.382-4.261,5.685-6.581,7.313a21.3,21.3,0,0,1-4.408,3.087,8.36,8.36,0,0,1-4.975,1.253m2.305-35.333a2.95,2.95,0,0,0-1.941.351c-1.836,1.032-1.414,3.174-.673,5.867.144.523.28,1.018.37,1.461a23.116,23.116,0,0,1,.4,8.676,25.571,25.571,0,0,1-2.724,5.745c-.341.585-.681,1.17-1.006,1.761-.157.291-.344.605-.541.936-.932,1.573-2.092,3.531-1.535,5.094s2.955,3.477,4.438,4.167c1.817.848,3.614.087,5.445-.837a20.535,20.535,0,0,0,4.241-2.978c2.262-1.592,4.972-3.779,6.293-6.934a11.535,11.535,0,0,0,.584-1.936l.048-.211.191-.1a15.836,15.836,0,0,0,6.205-6.105,1.4,1.4,0,0,0,.135-1.218,1.776,1.776,0,0,0-1.077-1l-.479-.166.191-.47a3.208,3.208,0,0,0,.27-1.628,2.309,2.309,0,0,0-.865-1.49l-.2-.178.046-.266a6.042,6.042,0,0,0,.071-1.8,4.9,4.9,0,0,0-3.274-4.162l-1.129-.372,1.072-.518a26.1,26.1,0,0,1,9.724-2.226,1.564,1.564,0,0,0,1.307-.772,1.852,1.852,0,0,0-.007-1.753,3.866,3.866,0,0,0-2.569-2.016c-3.144-.853-7.891.89-10.242,2.405A24,24,0,0,0,230.4,431.9l-.117.118a3.771,3.771,0,0,0-.484.431c-.115.111-.228.223-.353.33l-.519.447-.244-.639c-.057-.149-.107-.3-.157-.454a4.229,4.229,0,0,0-.246-.647,6.838,6.838,0,0,0-3.672-3.346,3.573,3.573,0,0,0-.484-.112" transform="translate(-126.579 -325.394)" fill="#2e3433"/>
        <path id="Trazado_859" data-name="Trazado 859" d="M216.169,459.076a77.866,77.866,0,0,1-3.217,7.3c-1.234,2.158,5.314,6.447,5.314,6.447l5.484-2.176,1.263-2.531s-.359-.982,1.262-2.1-1.051-7.32-1.051-7.32l-3.4-.994s-.7-.643-2.08.2a8.845,8.845,0,0,1-2.3,1.218c-.228-.007-1.271-.044-1.271-.044" transform="translate(-126.209 -330.548)" fill="#fff"/>
        <path id="Trazado_860" data-name="Trazado 860" d="M273.423,404.636c-1.758-6.07-.848-17.138.523-20.042a5.273,5.273,0,0,1,2.931-2.991c1.926-.687,4.491-.454,6.451-.208,1.135.144,2.285.536,2.3,2.117a3.274,3.274,0,0,1-1.979,2.828c-2.087.974-3.459,0-4.942,3.38-.424.968-.651,2.029-1.126,2.979-.244.494-.5,1.117-.762,1.81,1.526-1.263,3.469-1.525,5.648.082,3.848,2.836,5.334,6.06,5.578,9.585a1.889,1.889,0,0,1,1.42,2.194c-.626,3.15-1.313,6.281-2.126,9.388-.419,1.6-.711,4.268-2.027,5.481-2,1.847-7.627,1.136-9.892.346-2.421-.839-4.107.247-3.986-2.351.1-2.152,2.312-11.6,1.991-14.6" transform="translate(-134.67 -319.534)" fill="#fff"/>
        <path id="Trazado_861" data-name="Trazado 861" d="M280.781,422.858a19.329,19.329,0,0,1-5.636-.85,8.108,8.108,0,0,0-1.96-.374c-1.229-.12-2.5-.246-2.392-2.519.038-.827.348-2.543.743-4.715.638-3.525,1.432-7.906,1.255-9.754-1.73-6.045-.9-17.265.566-20.379A5.752,5.752,0,0,1,276.6,381c1.968-.7,4.492-.513,6.7-.236a2.7,2.7,0,0,1,2.778,2.656,3.822,3.822,0,0,1-2.3,3.328,7.808,7.808,0,0,1-1.786.55c-1.174.252-1.949.419-2.885,2.554-.181.413-.325.846-.47,1.28a12.657,12.657,0,0,1-.667,1.721c-.042.086-.086.176-.129.272a4.983,4.983,0,0,1,4.851.936,13.1,13.1,0,0,1,5.77,9.632,2.392,2.392,0,0,1,1.44,2.693c-.7,3.542-1.4,6.625-2.134,9.421-.086.33-.168.707-.253,1.108-.341,1.587-.766,3.563-1.932,4.639-1.058.979-2.911,1.309-4.808,1.309m-.844-41.256a8.97,8.97,0,0,0-2.968.422,4.737,4.737,0,0,0-2.621,2.711c-1.229,2.606-2.252,13.58-.491,19.655l.017.094c.212,1.977-.6,6.488-1.262,10.112-.371,2.048-.691,3.816-.725,4.57-.059,1.236.165,1.258,1.4,1.381a9.175,9.175,0,0,1,2.214.429c2.241.78,7.568,1.408,9.341-.231.911-.839,1.3-2.627,1.605-4.064.09-.418.175-.811.264-1.155.726-2.776,1.42-5.837,2.119-9.355a1.34,1.34,0,0,0-1.031-1.56l-.371-.1-.027-.386c-.261-3.765-1.965-6.683-5.357-9.185-1.788-1.317-3.462-1.35-4.976-.1l-1.583,1.31.723-1.924a19.879,19.879,0,0,1,.785-1.86,12.206,12.206,0,0,0,.608-1.582c.154-.464.31-.927.5-1.373,1.161-2.648,2.375-2.908,3.659-3.183a6.869,6.869,0,0,0,1.554-.473,2.712,2.712,0,0,0,1.662-2.327c-.007-.985-.5-1.412-1.82-1.58a26.361,26.361,0,0,0-3.228-.241" transform="translate(-134.578 -319.441)" fill="#2e3433"/>
        <path id="Trazado_862" data-name="Trazado 862" d="M281.9,362.817l11,.64-.123,1.664-5.577-.275-3.973-.181a2.727,2.727,0,0,0-2.629,2.7l-2.154,29.635a2.576,2.576,0,0,0,2.218,2.942l9.545.516-.257,3.49-11.012-.445a2.577,2.577,0,0,1-2.218-2.94l2.546-35.052a2.728,2.728,0,0,1,2.631-2.7" transform="translate(-135.434 -316.887)" fill="#2e3433"/>
        <path id="Trazado_863" data-name="Trazado 863" d="M280.771,365.627l-2.55,35.048a2.61,2.61,0,0,0,2.057,2.928c.055.005.11.01.165.012l16.075.79a2.721,2.721,0,0,0,2.628-2.7l2.548-35.048a2.573,2.573,0,0,0-2.218-2.94l-16.075-.792a1.235,1.235,0,0,0-.168,0,2.757,2.757,0,0,0-2.463,2.7" transform="translate(-135.65 -316.903)" fill="#96999e"/>
        <path id="Trazado_864" data-name="Trazado 864" d="M296.53,404.877c-.045,0-.091,0-.135,0l-16.074-.791c-.057,0-.126-.008-.193-.015a3.182,3.182,0,0,1-2.565-3.531l2.55-35.048a3.335,3.335,0,0,1,3.01-3.227,1.324,1.324,0,0,1,.211,0l16.075.791a2.747,2.747,0,0,1,1.926.948,3.538,3.538,0,0,1,.828,2.6l-2.548,35.047a3.312,3.312,0,0,1-3.085,3.228m-13.251-41.483a2.208,2.208,0,0,0-2.039,2.179l-2.55,35.048a2.06,2.06,0,0,0,1.566,2.326l16.195.8a2.159,2.159,0,0,0,2.036-2.177l2.548-35.048a2.4,2.4,0,0,0-.549-1.768,1.607,1.607,0,0,0-1.133-.566Z" transform="translate(-135.554 -316.807)" fill="#2e3433"/>
        <path id="Trazado_865" data-name="Trazado 865" d="M292.933,366.161a1.672,1.672,0,1,1-1.771,1.566,1.672,1.672,0,0,1,1.771-1.566" transform="translate(-137.518 -317.37)" fill="#2e3433"/>
        <path id="Trazado_866" data-name="Trazado 866" d="M298.852,398.33c-.747-.45-1.87-1.734-1.2-2.849a1.249,1.249,0,0,1,.294-.333,4.629,4.629,0,0,1-1.667-.679c-1.088-.727-2.4-2.539-.8-3.8a5.037,5.037,0,0,1,2.187-.934,3.55,3.55,0,0,1-1.662-3.146c-.009-2.209,1.564-2.665,3.19-2.654-1.319-.856-3.087-2.477-1.344-3.986.975-.845,2.626-1.036,3.744-1.241a18.84,18.84,0,0,1,4.816-.246.517.517,0,0,1,.17.045.6.6,0,0,1,.66.1c1.293,1.151,2.191,3.584.154,4.888a8.7,8.7,0,0,1-1.7.827c1.406.374,2.482,1.134,2.225,2.734-.275,1.688-1.869,2.6-3.559,3.072a.674.674,0,0,1,.076.073,2.634,2.634,0,0,1,.695,2.458,3.052,3.052,0,0,1-1.811,1.505.555.555,0,0,1,.3.4c.435,2.951-2.539,5.109-4.773,3.768" transform="translate(-138.034 -319.138)" fill="#fff"/>
        <path id="Trazado_867" data-name="Trazado 867" d="M300.223,399.2a3.366,3.366,0,0,1-1.745-.49,3.667,3.667,0,0,1-1.6-2.06,2.007,2.007,0,0,1,.085-1.272,4.816,4.816,0,0,1-1.076-.542,3.883,3.883,0,0,1-1.784-2.772,2.266,2.266,0,0,1,.952-1.915,4.933,4.933,0,0,1,1.38-.756,4.19,4.19,0,0,1-1.062-2.89,3.079,3.079,0,0,1,.812-2.286,3.03,3.03,0,0,1,1.5-.78,3.3,3.3,0,0,1-1.189-2.082,2.278,2.278,0,0,1,.912-1.909A7.353,7.353,0,0,1,301,378.148l.411-.072a19.177,19.177,0,0,1,4.953-.253.626.626,0,0,1,.128.015,1.16,1.16,0,0,1,1.022.267,4.448,4.448,0,0,1,1.534,3.458,2.953,2.953,0,0,1-1.445,2.3c-.184.119-.379.232-.583.34a2.587,2.587,0,0,1,1.354,2.848c-.239,1.471-1.345,2.594-3.216,3.277a2.649,2.649,0,0,1,.4,2.434,3.075,3.075,0,0,1-1.5,1.525.734.734,0,0,1,.019.105,4.2,4.2,0,0,1-1.811,4.159,3.687,3.687,0,0,1-2.041.643m-1.181-1.426a2.4,2.4,0,0,0,2.615-.127,3.124,3.124,0,0,0,1.335-3.093l-.97-.548,1-.432c.869-.366,1.336-.736,1.514-1.2.241-.624-.116-1.212-.609-1.913.007.014-.026-.02-.051-.047l-.617-.659.87-.241c1.308-.362,2.919-1.114,3.166-2.633.117-.729.015-1.628-1.827-2.119l-1.681-.447,1.634-.6a8.054,8.054,0,0,0,1.595-.773,1.879,1.879,0,0,0,.943-1.467,3.4,3.4,0,0,0-1.167-2.55l-.2.092-.277-.092a17.7,17.7,0,0,0-4.7.225l-.424.074a6.6,6.6,0,0,0-3.062,1.041,1.242,1.242,0,0,0-.536,1.008c.042.615.707,1.382,1.821,2.1l1.572,1.018-1.872-.012a3.1,3.1,0,0,0-2.147.6,2.013,2.013,0,0,0-.493,1.506,3.009,3.009,0,0,0,1.41,2.684l1.136.732-1.325.267a4.49,4.49,0,0,0-1.954.827,1.2,1.2,0,0,0-.539,1.014,2.843,2.843,0,0,0,1.3,1.906,4.016,4.016,0,0,0,1.474.6l1.131.234-.9.728a.706.706,0,0,0-.168.187.9.9,0,0,0-.1.713,2.621,2.621,0,0,0,1.105,1.388" transform="translate(-137.942 -319.045)" fill="#2e3433"/>
        <path id="Trazado_868" data-name="Trazado 868" d="M273.559,411.626s-2.679,7.543-3.325,9.378-.546,10.024-.546,10.024l9.032,2.078,5.077-3.8s3.11-3.833,3.11-3.934.894-4.663.894-4.663l.277-2.382s.069-5.012.218-6-7.394-.754-7.543-.922-7.195.228-7.195.228" transform="translate(-134.419 -323.893)" fill="#fff"/>
        <path id="Trazado_869" data-name="Trazado 869" d="M99.426,402.366s6.947-7.08,11.489-8.5,22.309,6.635,22.309,6.635l6.591,27.845-2.113.935s-.935-.668-.8.489-17.23,8.048-17.633,8.343-15.791-17.842-16.859-21.136-2.984-14.606-2.984-14.606" transform="translate(-109.846 -321.344)" fill="#e4e6eb"/>
      </g>
    </g>
    <g id="Grupo_292" data-name="Grupo 292">
      <g id="Grupo_291" data-name="Grupo 291" clip-path="url(#clip-path-5)">
        <rect id="Rectángulo_163" data-name="Rectángulo 163" width="1.641" height="17.303" transform="translate(191.318 313.157)" fill="#2e3433"/>
        <rect id="Rectángulo_164" data-name="Rectángulo 164" width="0.839" height="17.303" transform="translate(198.992 313.157)" fill="#2e3433"/>
        <rect id="Rectángulo_165" data-name="Rectángulo 165" width="1.737" height="17.303" transform="translate(241.253 313.157)" fill="#2e3433"/>
        <rect id="Rectángulo_166" data-name="Rectángulo 166" width="1.737" height="17.303" transform="translate(252.294 313.157)" fill="#2e3433"/>
        <rect id="Rectángulo_167" data-name="Rectángulo 167" width="0.63" height="17.303" transform="translate(201.708 313.157)" fill="#2e3433"/>
        <rect id="Rectángulo_168" data-name="Rectángulo 168" width="0.63" height="17.303" transform="translate(238.562 313.157)" fill="#2e3433"/>
        <rect id="Rectángulo_169" data-name="Rectángulo 169" width="0.63" height="17.303" transform="translate(255.526 313.157)" fill="#2e3433"/>
        <rect id="Rectángulo_170" data-name="Rectángulo 170" width="0.63" height="17.303" transform="translate(287.157 313.157)" fill="#2e3433"/>
        <rect id="Rectángulo_171" data-name="Rectángulo 171" width="0.63" height="17.303" transform="translate(270.893 313.157)" fill="#2e3433"/>
        <rect id="Rectángulo_172" data-name="Rectángulo 172" width="0.748" height="17.303" transform="translate(277.139 313.157)" fill="#2e3433"/>
        <rect id="Rectángulo_173" data-name="Rectángulo 173" width="0.63" height="17.303" transform="translate(218.643 313.157)" fill="#2e3433"/>
        <rect id="Rectángulo_174" data-name="Rectángulo 174" width="0.905" height="17.303" transform="translate(235.775 313.157)" fill="#2e3433"/>
        <rect id="Rectángulo_175" data-name="Rectángulo 175" width="2.76" height="17.303" transform="translate(195.271 313.157)" fill="#2e3433"/>
        <rect id="Rectángulo_176" data-name="Rectángulo 176" width="2.76" height="17.303" transform="translate(227.126 313.157)" fill="#2e3433"/>
        <rect id="Rectángulo_177" data-name="Rectángulo 177" width="3.208" height="17.303" transform="translate(231.453 313.157)" fill="#2e3433"/>
        <rect id="Rectángulo_178" data-name="Rectángulo 178" width="3.581" height="17.303" transform="translate(266.173 313.157)" fill="#2e3433"/>
        <rect id="Rectángulo_179" data-name="Rectángulo 179" width="5.371" height="17.303" transform="translate(279.601 313.157)" fill="#2e3433"/>
        <rect id="Rectángulo_180" data-name="Rectángulo 180" width="2.611" height="17.303" transform="translate(272.142 313.157)" fill="#2e3433"/>
        <rect id="Rectángulo_181" data-name="Rectángulo 181" width="4.998" height="17.303" transform="translate(244.658 313.157)" fill="#2e3433"/>
        <rect id="Rectángulo_182" data-name="Rectángulo 182" width="6.043" height="17.303" transform="translate(209.595 313.157)" fill="#2e3433"/>
        <rect id="Rectángulo_183" data-name="Rectángulo 183" width="1.902" height="17.303" transform="translate(204.299 313.157)" fill="#2e3433"/>
        <rect id="Rectángulo_184" data-name="Rectángulo 184" width="1.902" height="17.303" transform="translate(221.308 313.157)" fill="#2e3433"/>
        <rect id="Rectángulo_185" data-name="Rectángulo 185" width="1.902" height="17.303" transform="translate(258.265 313.157)" fill="#2e3433"/>
        <rect id="Rectángulo_186" data-name="Rectángulo 186" width="1.902" height="17.303" transform="translate(289.971 313.157)" fill="#2e3433"/>
        <rect id="Rectángulo_187" data-name="Rectángulo 187" width="1.902" height="17.303" transform="translate(261.399 313.157)" fill="#2e3433"/>
        <path id="Trazado_871" data-name="Trazado 871" d="M390.887,252.751a19.737,19.737,0,1,1-19.737-19.737,19.737,19.737,0,0,1,19.737,19.737" transform="translate(-50.717 -33.63)" fill="#96999e"/>
        <path id="Trazado_872" data-name="Trazado 872" d="M390.887,252.751a19.737,19.737,0,1,1-19.737-19.737A19.737,19.737,0,0,1,390.887,252.751Z" transform="translate(-50.717 -33.63)" fill="none" stroke="#2e3433" stroke-linecap="round" stroke-linejoin="round" stroke-width="1"/>
      </g>
    </g>
    <g id="Grupo_294" data-name="Grupo 294" transform="translate(308.178 211.155)">
      <g id="Grupo_293" data-name="Grupo 293" clip-path="url(#clip-path-6)">
        <path id="Trazado_873" data-name="Trazado 873" d="M373.154,261.476a2.226,2.226,0,0,1,0,3.093l-1.725,1.726a2.226,2.226,0,0,1-3.093,0l-7.554-7.618a2.226,2.226,0,0,1,0-3.093l1.725-1.723a2.226,2.226,0,0,1,3.093,0Z" transform="translate(-360.157 -247.703)" fill="#fff"/>
        <path id="Trazado_874" data-name="Trazado 874" d="M380.749,247.395a2.226,2.226,0,0,1,3.093,0l1.725,1.725a2.226,2.226,0,0,1,0,3.093l-13.086,13.026a2.228,2.228,0,0,1-3.093,0l-1.724-1.726a2.226,2.226,0,0,1,0-3.093Z" transform="translate(-361.15 -246.77)" fill="#fff"/>
      </g>
    </g>
  </g>
</svg>
