<svg xmlns="http://www.w3.org/2000/svg" xmlns:xlink="http://www.w3.org/1999/xlink" width="379.598" height="455.939" style="transform:scale(1)" viewBox="0 0 379.598 355.939">
  <defs>
    <clipPath id="clip-path">
      <rect id="Rectángulo_320" data-name="Rectángulo 320" width="379.598" height="355.939" transform="translate(0 128)" fill="none"/>
    </clipPath>
    <clipPath id="clip-path-2">
      <rect id="Rectángulo_303" data-name="Rectángulo 303" width="379.598" height="349.939" transform="translate(0 129)" fill="none"/>
    </clipPath>
    <clipPath id="clip-path-3">
      <path id="Trazado_1318" data-name="Trazado 1318" d="M97.652,212.955C83.794,284.343,130.6,353.691,201.983,367.549s140.736-32.943,154.594-104.33a16.474,16.474,0,0,0-32.344-6.278A98.931,98.931,0,1,1,130,219.233a16.474,16.474,0,1,0-32.344-6.278" transform="translate(-95.221 -199.618)" fill="none"/>
    </clipPath>
    <clipPath id="clip-path-4">
      <path id="Trazado_1327" data-name="Trazado 1327" d="M163.266,251.333v250.4H338.822l-1.691-250.4Z" transform="translate(-163.266 -251.333)" fill="none"/>
    </clipPath>
    <clipPath id="clip-path-5">
      <rect id="Rectángulo_307" data-name="Rectángulo 307" width="104.839" height="118.704" fill="none"/>
    </clipPath>
    <clipPath id="clip-path-6">
      <rect id="Rectángulo_308" data-name="Rectángulo 308" width="379.598" height="351.939" transform="translate(0 132)" fill="none"/>
    </clipPath>
    <clipPath id="clip-path-7">
      <rect id="Rectángulo_309" data-name="Rectángulo 309" width="28.922" height="22.191" fill="none"/>
    </clipPath>
    <clipPath id="clip-path-8">
      <rect id="Rectángulo_316" data-name="Rectángulo 316" width="379.598" height="354.939" transform="translate(0 127)" fill="none"/>
    </clipPath>
    <clipPath id="clip-path-9">
      <rect id="Rectángulo_310" data-name="Rectángulo 310" width="84.166" height="126.146" fill="none"/>
    </clipPath>
    <clipPath id="clip-path-10">
      <path id="Trazado_1362" data-name="Trazado 1362" d="M69.849,342.474c-10.661,3.429-32.921,6.262-33.9,18.757s-1.637,18.5-2.291,37.428,2.9,24.1,4.722,40.339,2.738,16.218,1.633,35.442,3.957,44.916,3.957,44.916H155.374l6.137-16.921L180.5,485.057l19.088-51.709s11.362-32.583,13.882-35.955S215.33,369.4,215.33,369.4s-25.306.651-34.835,5.661-37.118,4.622-37.118,4.622l-27.2-14.406s-31.421-23.111-44.095-23.114a7.285,7.285,0,0,0-2.23.309" transform="translate(-33.575 -342.165)" fill="none"/>
    </clipPath>
    <clipPath id="clip-path-11">
      <rect id="Rectángulo_319" data-name="Rectángulo 319" width="379.598" height="350.939" transform="translate(0 130)" fill="none"/>
    </clipPath>
  </defs>
  <g id="Grupo_674" data-name="Grupo 674" transform="translate(0 -128)">
    <g id="Grupo_401" data-name="Grupo 401" clip-path="url(#clip-path)">
      <g id="Grupo_380" data-name="Grupo 380">
        <g id="Grupo_379" data-name="Grupo 379" clip-path="url(#clip-path-2)">
          <path id="Trazado_1316" data-name="Trazado 1316" d="M115.468,284.635c24.529-6.019,71.885-51.643,44.048-74.535s-116.46,92.3-44.048,74.535" transform="translate(-16.278 -38.458)" fill="#fff"/>
          <path id="Trazado_1317" data-name="Trazado 1317" d="M99.766,291.649c103.759-17.946,74.417-72.529,143.6-83.116,93.35-14.287,132.737,126.236,71.971,210.425-48.559,67.275-129.444,86.575-199.7,56.259-99.229-42.824-97.775-169.4-15.878-183.569" transform="translate(-7.368 -38.541)" fill="#fff"/>
        </g>
      </g>
      <g id="Grupo_382" data-name="Grupo 382" transform="translate(77.537 162.545)">
        <g id="Grupo_381" data-name="Grupo 381" clip-path="url(#clip-path-3)">
          <line id="Línea_141" data-name="Línea 141" x1="181.942" y1="269.597" transform="translate(-74.837 -33.809)" fill="none" stroke="#f3ad13" stroke-miterlimit="10" stroke-width="8"/>
          <line id="Línea_142" data-name="Línea 142" x1="181.942" y1="269.597" transform="translate(-64.939 -40.488)" fill="none" stroke="#f3ad13" stroke-miterlimit="10" stroke-width="8"/>
          <line id="Línea_143" data-name="Línea 143" x1="181.942" y1="269.597" transform="translate(-55.041 -47.168)" fill="none" stroke="#f3ad13" stroke-miterlimit="10" stroke-width="8"/>
          <line id="Línea_144" data-name="Línea 144" x1="181.942" y1="269.597" transform="translate(-45.143 -53.848)" fill="none" stroke="#f3ad13" stroke-miterlimit="10" stroke-width="8"/>
          <line id="Línea_145" data-name="Línea 145" x1="181.942" y1="269.597" transform="translate(-35.246 -60.527)" fill="none" stroke="#f3ad13" stroke-miterlimit="10" stroke-width="8"/>
          <line id="Línea_146" data-name="Línea 146" x1="181.942" y1="269.597" transform="translate(-25.348 -67.207)" fill="none" stroke="#f3ad13" stroke-miterlimit="10" stroke-width="8"/>
          <line id="Línea_147" data-name="Línea 147" x1="181.942" y1="269.597" transform="translate(-15.45 -73.887)" fill="none" stroke="#f3ad13" stroke-miterlimit="10" stroke-width="8"/>
          <line id="Línea_148" data-name="Línea 148" x1="181.942" y1="269.597" transform="translate(-5.552 -80.566)" fill="none" stroke="#f3ad13" stroke-miterlimit="10" stroke-width="8"/>
          <line id="Línea_149" data-name="Línea 149" x1="181.942" y1="269.597" transform="translate(4.345 -87.246)" fill="none" stroke="#f3ad13" stroke-miterlimit="10" stroke-width="8"/>
          <line id="Línea_150" data-name="Línea 150" x1="181.942" y1="269.597" transform="translate(14.243 -93.926)" fill="none" stroke="#f3ad13" stroke-miterlimit="10" stroke-width="8"/>
          <line id="Línea_151" data-name="Línea 151" x1="181.942" y1="269.597" transform="translate(24.141 -100.605)" fill="none" stroke="#f3ad13" stroke-miterlimit="10" stroke-width="8"/>
          <line id="Línea_152" data-name="Línea 152" x1="181.942" y1="269.597" transform="translate(34.039 -107.285)" fill="none" stroke="#f3ad13" stroke-miterlimit="10" stroke-width="8"/>
          <line id="Línea_153" data-name="Línea 153" x1="181.942" y1="269.597" transform="translate(43.937 -113.965)" fill="none" stroke="#f3ad13" stroke-miterlimit="10" stroke-width="8"/>
          <line id="Línea_154" data-name="Línea 154" x1="181.942" y1="269.597" transform="translate(53.834 -120.645)" fill="none" stroke="#f3ad13" stroke-miterlimit="10" stroke-width="8"/>
          <line id="Línea_155" data-name="Línea 155" x1="181.942" y1="269.597" transform="translate(63.732 -127.324)" fill="none" stroke="#f3ad13" stroke-miterlimit="10" stroke-width="8"/>
          <line id="Línea_156" data-name="Línea 156" x1="181.942" y1="269.597" transform="translate(73.63 -134.004)" fill="none" stroke="#f3ad13" stroke-miterlimit="10" stroke-width="8"/>
          <line id="Línea_157" data-name="Línea 157" x1="181.942" y1="269.597" transform="translate(83.528 -140.684)" fill="none" stroke="#f3ad13" stroke-miterlimit="10" stroke-width="8"/>
          <line id="Línea_158" data-name="Línea 158" x1="181.942" y1="269.597" transform="translate(93.426 -147.363)" fill="none" stroke="#f3ad13" stroke-miterlimit="10" stroke-width="8"/>
          <line id="Línea_159" data-name="Línea 159" x1="181.942" y1="269.597" transform="translate(103.323 -154.043)" fill="none" stroke="#f3ad13" stroke-miterlimit="10" stroke-width="8"/>
          <line id="Línea_160" data-name="Línea 160" x1="181.942" y1="269.597" transform="translate(113.221 -160.723)" fill="none" stroke="#f3ad13" stroke-miterlimit="10" stroke-width="8"/>
        </g>
      </g>
      <g id="Grupo_387" data-name="Grupo 387" transform="translate(132.944 204.655)">
        <g id="Grupo_386" data-name="Grupo 386" clip-path="url(#clip-path-4)">
          <path id="Trazado_1319" data-name="Trazado 1319" d="M334.382,277.973V542.016A20.105,20.105,0,0,1,314.3,562.1H261.48v-.039H194.837a20.111,20.111,0,0,1-18.884-20.042V277.973a20.108,20.108,0,0,1,20.087-20.079H314.3a20.1,20.1,0,0,1,20.087,20.079" transform="translate(-165.622 -252.552)" fill="#2e3433"/>
          <path id="Trazado_1320" data-name="Trazado 1320" d="M325.1,277.973V542.016A20.105,20.105,0,0,1,305.017,562.1H252.2v-.039H185.559a20.112,20.112,0,0,1-18.884-20.042V277.973a20.109,20.109,0,0,1,20.087-20.079H305.017A20.1,20.1,0,0,1,325.1,277.973" transform="translate(-163.899 -252.552)" fill="#dbe0e6"/>
          <path id="Trazado_1321" data-name="Trazado 1321" d="M325.1,277.973V542.016A20.105,20.105,0,0,1,305.017,562.1H252.2v-.039H185.559a20.112,20.112,0,0,1-18.884-20.042V277.973a20.109,20.109,0,0,1,20.087-20.079H305.017A20.1,20.1,0,0,1,325.1,277.973Z" transform="translate(-163.899 -252.552)" fill="none" stroke="#2e3433" stroke-miterlimit="10" stroke-width="1"/>
          <path id="Trazado_1322" data-name="Trazado 1322" d="M321.659,278.989V543.037a15.617,15.617,0,0,1-15.622,15.615H187.778a15.616,15.616,0,0,1-15.615-15.615V278.989a15.616,15.616,0,0,1,15.615-15.615H306.037a15.617,15.617,0,0,1,15.622,15.615" transform="translate(-164.918 -253.569)" fill="#fff"/>
          <path id="Trazado_1323" data-name="Trazado 1323" d="M321.659,278.989V543.037a15.617,15.617,0,0,1-15.622,15.615H187.778a15.616,15.616,0,0,1-15.615-15.615V278.989a15.616,15.616,0,0,1,15.615-15.615H306.037A15.617,15.617,0,0,1,321.659,278.989Z" transform="translate(-164.918 -253.569)" fill="none" stroke="#2e3433" stroke-miterlimit="10" stroke-width="1"/>
          <path id="Trazado_1324" data-name="Trazado 1324" d="M278.092,266.569H241.276a1.487,1.487,0,1,0,0,2.975h36.817a1.487,1.487,0,1,0,0-2.975" transform="translate(-177.478 -254.163)" fill="#2e3433"/>
          <rect id="Rectángulo_304" data-name="Rectángulo 304" width="6.977" height="0.883" transform="translate(20.855 28.612) rotate(-45.002)" fill="#2e3433"/>
          <rect id="Rectángulo_305" data-name="Rectángulo 305" width="0.884" height="6.977" transform="matrix(0.707, -0.707, 0.707, 0.707, 20.854, 24.303)" fill="#2e3433"/>
          <rect id="Rectángulo_306" data-name="Rectángulo 306" width="7.914" height="0.884" transform="translate(134.807 27.644)" fill="#2e3433"/>
          <g id="Grupo_385" data-name="Grupo 385" transform="translate(38.011 54.102)" opacity="0.2">
            <g id="Grupo_384" data-name="Grupo 384">
              <g id="Grupo_383" data-name="Grupo 383" clip-path="url(#clip-path-5)">
                <path id="Trazado_1325" data-name="Trazado 1325" d="M312.939,363.029l1.846-11.664H294.9l6.849-33.591H289.863l-6.84,33.591H251.8l6.841-33.591h-11.8L240,351.366H218.138l-1.846,11.664h21.341l-5.82,28.423H211.8l-1.854,11.671h19.5l-6.842,33.356h11.8l6.849-33.356H272.4l-6.771,33.356h11.8l6.848-33.356h22.889l1.853-11.671H286.634l5.907-28.423ZM274.76,391.453H243.617l5.82-28.423h31.221Z" transform="translate(-209.947 -317.775)" fill="#101c3a"/>
              </g>
            </g>
          </g>
          <path id="Trazado_1326" data-name="Trazado 1326" d="M301.662,357.984l1.846-11.663H283.621l6.849-33.591H278.586l-6.841,33.591h-31.22l6.842-33.591H235.561l-6.84,33.591H206.862l-1.847,11.663h21.341l-5.82,28.423H200.524l-1.854,11.671h19.5l-6.842,33.356h11.8l6.85-33.356h31.141l-6.771,33.356h11.8L273,398.079h22.888l1.853-11.671H275.358l5.907-28.423Zm-38.178,28.423H232.34l5.82-28.423h31.221Z" transform="translate(-169.841 -262.736)" fill="#f5b015"/>
        </g>
      </g>
      <g id="Grupo_389" data-name="Grupo 389">
        <g id="Grupo_388" data-name="Grupo 388" clip-path="url(#clip-path-6)">
          <path id="Trazado_1328" data-name="Trazado 1328" d="M99.679,339.94a1.78,1.78,0,1,1-1.779-1.779,1.78,1.78,0,0,1,1.779,1.779" transform="translate(-17.851 -62.803)" fill="#f5b015"/>
          <path id="Trazado_1329" data-name="Trazado 1329" d="M340.884,234.386a1.294,1.294,0,1,1-1.295-1.294,1.295,1.295,0,0,1,1.295,1.294" transform="translate(-62.828 -43.29)" fill="#f5b015"/>
          <path id="Trazado_1330" data-name="Trazado 1330" d="M282.219,243.858a1.294,1.294,0,1,1-1.294-1.295,1.294,1.294,0,0,1,1.294,1.295" transform="translate(-51.933 -45.049)" fill="#f5b015"/>
          <path id="Trazado_1331" data-name="Trazado 1331" d="M149.986,396.364a1.294,1.294,0,1,1-1.294-1.295,1.294,1.294,0,0,1,1.294,1.295" transform="translate(-27.375 -73.372)" fill="#f5b015"/>
          <path id="Trazado_1332" data-name="Trazado 1332" d="M165.426,241.311a2.588,2.588,0,1,1-2.589-2.588,2.589,2.589,0,0,1,2.589,2.588" transform="translate(-29.762 -44.336)" fill="#f5b015"/>
          <path id="Trazado_1333" data-name="Trazado 1333" d="M305.842,221.8a2.588,2.588,0,1,1-2.588-2.589,2.588,2.588,0,0,1,2.588,2.589" transform="translate(-55.84 -40.712)" fill="#f5b015"/>
          <path id="Trazado_1334" data-name="Trazado 1334" d="M394.815,369.9a2.588,2.588,0,1,1-2.588-2.589,2.588,2.588,0,0,1,2.588,2.589" transform="translate(-72.364 -68.218)" fill="#f5b015"/>
          <path id="Trazado_1335" data-name="Trazado 1335" d="M367.558,265.628a22.8,22.8,0,1,1-22.8-22.8,22.8,22.8,0,0,1,22.8,22.8" transform="translate(-59.795 -45.099)" fill="#96999e"/>
          <circle id="Elipse_27" data-name="Elipse 27" cx="22.797" cy="22.797" r="22.797" transform="translate(255.181 232.866) rotate(-67.5)" fill="none" stroke="#2e3433" stroke-linecap="round" stroke-linejoin="round" stroke-width="1"/>
        </g>
      </g>
      <g id="Grupo_391" data-name="Grupo 391" transform="translate(270.811 211.327)">
        <g id="Grupo_390" data-name="Grupo 390" clip-path="url(#clip-path-7)">
          <path id="Trazado_1336" data-name="Trazado 1336" d="M347.589,276.892a2.572,2.572,0,0,1,0,3.573l-1.993,1.993a2.572,2.572,0,0,1-3.573,0l-8.725-8.8a2.571,2.571,0,0,1,0-3.572l1.993-1.991a2.572,2.572,0,0,1,3.573,0Z" transform="translate(-332.577 -260.984)" fill="#fff"/>
          <path id="Trazado_1337" data-name="Trazado 1337" d="M356.765,260.248a2.571,2.571,0,0,1,3.572,0l1.993,1.993a2.573,2.573,0,0,1,0,3.573l-15.115,15.045a2.572,2.572,0,0,1-3.572,0l-1.992-1.993a2.571,2.571,0,0,1,0-3.572Z" transform="translate(-334.128 -259.526)" fill="#fff"/>
        </g>
      </g>
      <g id="Grupo_396" data-name="Grupo 396">
        <g id="Grupo_395" data-name="Grupo 395" clip-path="url(#clip-path-8)">
          <g id="Grupo_394" data-name="Grupo 394" transform="translate(136.262 330.123)" opacity="0.3" style="mix-blend-mode: multiply;isolation: isolate">
            <g id="Grupo_393" data-name="Grupo 393">
              <g id="Grupo_392" data-name="Grupo 392" clip-path="url(#clip-path-9)">
                <path id="Trazado_1338" data-name="Trazado 1338" d="M248.938,405.573c-3.457,1.335-10.9,3.3-14.75,5.5a.323.323,0,0,0-.1.068c-2.906,1.129-10.851,8.9-11.932,10.773-1.61,2.808-.177,2.209-3.466,9.653-.068.226-.127.452-.2.677l-.02-.01c-.6.953-1.238,1.974-1.915,3.073a1.372,1.372,0,0,0-.2.325c-1.9,3.1-4.046,6.727-6.216,10.448s-4.36,7.572-6.373,11.127c-1.159,1.8-2.317,3.614-3.457,5.41-3.182-5.311-16.518-27.212-25.7-36.02-.168-.167-.344-.3-.521-.462a18,18,0,0,0-6.756-5.224V531.562h28.872c-1.611-6.053-3.418-17.61-5.294-28.894.314-.933.638-1.9.953-2.878a60.876,60.876,0,0,0,13.218,3.1,11.239,11.239,0,0,0,4.851.177h.1a1.7,1.7,0,0,0,.413-.107c3.81-.942,7.346-4.184,9.732-10.783,4.654-12.884,8.288-38.152,9.762-49.554a21.967,21.967,0,0,0,1.973-2.6s7.611-5.745,10.989-7.572,2.309-4.9,1.532-7.443,0-3.516-2.062-5.568a13.419,13.419,0,0,1-2.906-4.724,38.89,38.89,0,0,0,11.048-6.433c2.366-2.19-.07-3.3-1.582-2.711" transform="translate(-167.341 -405.417)" fill="#b3b3b3"/>
              </g>
            </g>
          </g>
          <rect id="Rectángulo_311" data-name="Rectángulo 311" width="95.375" height="2.358" transform="translate(166.348 412.952)" fill="#2e3433"/>
          <rect id="Rectángulo_312" data-name="Rectángulo 312" width="30.379" height="2.357" transform="translate(166.349 404.66)" fill="#2e3433"/>
          <rect id="Rectángulo_313" data-name="Rectángulo 313" width="21.265" height="2.357" transform="translate(209.872 404.66)" fill="#2e3433"/>
          <rect id="Rectángulo_314" data-name="Rectángulo 314" width="63.686" height="2.358" transform="translate(166.349 396.367)" fill="#2e3433"/>
          <rect id="Rectángulo_315" data-name="Rectángulo 315" width="31.443" height="2.358" transform="translate(238.575 396.367)" fill="#2e3433"/>
        </g>
      </g>
      <g id="Grupo_398" data-name="Grupo 398" transform="translate(27.34 278.618)">
        <g id="Grupo_397" data-name="Grupo 397" clip-path="url(#clip-path-10)">
          <path id="Trazado_1339" data-name="Trazado 1339" d="M75.416,377.421c-1.763-8.092,6.547-9.942,6.547-9.942-12.925-20.954-25.571-4.2-27.539,4.087-2.571,10.83,1.731,30.066,7.407,31.314l1.252-1.675,1.723,2.47c3.33,1.521,11.671,2.681,13.831,1.74,0,0-3.112-27.5-3.22-27.993" transform="translate(-37.306 -344.986)" fill="#2e3433"/>
          <path id="Trazado_1340" data-name="Trazado 1340" d="M108.244,407.673l1.016,15.611c-.708,1.528-6.913,1.679-18.216-2.468l.911-14.342a114.743,114.743,0,0,0,16.289,1.2" transform="translate(-44.249 -354.108)" fill="#fff"/>
          <path id="Trazado_1341" data-name="Trazado 1341" d="M108.244,407.673l1.016,15.611c-.708,1.528-6.913,1.679-18.216-2.468l.911-14.342A114.743,114.743,0,0,0,108.244,407.673Z" transform="translate(-44.249 -354.108)" fill="none" stroke="#2e3433" stroke-linecap="round" stroke-miterlimit="10" stroke-width="1"/>
          <path id="Trazado_1342" data-name="Trazado 1342" d="M110.365,408.958l.451,6.927c-8.4,2.98-8.777-8.389-8.761-8.381,4.236,1.467,7.136,1.986,8.31,1.453" transform="translate(-46.293 -354.3)" fill="#2e3433"/>
          <path id="Trazado_1343" data-name="Trazado 1343" d="M92.818,398c-.984-1.4-3.788-26.046.682-28.69,1.885-1.109,14.874-1.394,16.777-1.769,4.356-.858,6.554,10.04,7.828,16.3,1.43,7.022.412,20.352-7.921,21.933a8.994,8.994,0,0,1-2.9-.012,25.639,25.639,0,0,1-7.25-2.405" transform="translate(-44.248 -346.868)" fill="#fff"/>
          <path id="Trazado_1344" data-name="Trazado 1344" d="M92.818,398c-.984-1.4-3.788-26.046.682-28.69,1.885-1.109,14.874-1.394,16.777-1.769,4.356-.858,6.554,10.04,7.828,16.3,1.43,7.022.412,20.352-7.921,21.933a8.994,8.994,0,0,1-2.9-.012,25.639,25.639,0,0,1-7.25-2.405" transform="translate(-44.248 -346.868)" fill="none" stroke="#2e3433" stroke-linecap="round" stroke-miterlimit="10" stroke-width="1"/>
          <path id="Trazado_1345" data-name="Trazado 1345" d="M90.634,402.223a51.349,51.349,0,0,1,4.8-2.861c1.537-4.858,4.778-14.919,6.009-17.384,1.219-2.444,6.265,9.872,6.265,9.872,1.795-8-.557-15.011,2.559-17.356,3.332-2.507,6.314-15.532-7.76-12.757-7.618,1.5-17.917-2.26-22.847,8.207-6.887,14.624,11.662,27.815,10.976,32.28" transform="translate(-41.849 -345.728)" fill="#2e3433"/>
          <path id="Trazado_1346" data-name="Trazado 1346" d="M107.155,387.893a4.5,4.5,0,1,1-6.109-1.762,4.5,4.5,0,0,1,6.109,1.762" transform="translate(-45.674 -350.226)" fill="#fff"/>
          <path id="Trazado_1347" data-name="Trazado 1347" d="M103.925,393.543a3.287,3.287,0,0,1-1.459-.084l.226-.8c.014,0,1.362.357,1.6-.325.07-.2.072-.2-.259-.411a1.763,1.763,0,0,1-.985-1.664,2.873,2.873,0,0,1,.493-1.533c.29-.489.358-.607-.314-1.17a.7.7,0,0,0-.607-.173l-.007,0c-.883.173-1.888,1.7-2.2,2.269l-.73-.4c.134-.247,1.351-2.407,2.771-2.687l.014,0a1.522,1.522,0,0,1,1.295.353c1.125.943.9,1.544.5,2.23a2.072,2.072,0,0,0-.378,1.116.967.967,0,0,0,.6.956,1.071,1.071,0,0,1,.6,1.39,1.426,1.426,0,0,1-1.153.932" transform="translate(-45.853 -350.406)" fill="#2e3433"/>
          <path id="Trazado_1348" data-name="Trazado 1348" d="M66.047,451.185C62.354,470.312,64.324,487.1,85.329,516.3l-.814.585C63.3,487.389,61.318,470.391,65.063,451Z" transform="translate(-39.14 -362.377)" fill="#fff"/>
          <path id="Trazado_1349" data-name="Trazado 1349" d="M105.369,502.056c5.052-.164,22.778-.615,26.345,5.27s26,231.831,26,231.831a189.111,189.111,0,0,1-64.954,2.419c-7.6-36.623-8.9-189.724-8.9-189.724-15.72-17.276-10.8-31.1-5.643-39.653s21.536-9.959,27.151-10.143" transform="translate(-40.936 -371.845)" fill="#425fec"/>
          <path id="Trazado_1350" data-name="Trazado 1350" d="M91.831,552.526s-18.581-24.954,1.813-50.055c4.492-5.528,30.863-11.027,36.33-4.8,7.03,8,10.766,16.637,10.766,37.3,0,18.752-19.022,140.664-35.178,173.507s-40.769,48.543-49.752,50.27-36.278,5.961-36.278-30.057c0-13.033-.068-22.03-.154-28.2a32.912,32.912,0,0,1,8.257-22.262c17.278-19.558,55.26-69.918,64.195-125.7" transform="translate(-30.938 -370.533)" fill="#425fec"/>
          <path id="Trazado_1351" data-name="Trazado 1351" d="M145.741,516.551l1,.047c-.024.529-2.705,53.381-17.644,98.343-26.673,80.27-57.057,116.675-57.36,117.034l-.765-.649c.3-.356,30.571-36.636,57.175-116.7,14.9-44.829,17.57-97.548,17.6-98.075" transform="translate(-40.521 -374.552)" fill="#2e3433"/>
          <path id="Trazado_1352" data-name="Trazado 1352" d="M164.328,544.107c0,13.289-9,74.382-19.671,121.706l-.976-.221c10.654-47.266,19.644-108.239,19.644-121.485Z" transform="translate(-54.024 -379.67)" fill="#f0e3dd"/>
          <path id="Trazado_1353" data-name="Trazado 1353" d="M91.585,516.52l.918.4c-9.093,20.705,4.325,39.133,4.461,39.316l.126.17-.033.209c-7.506,46.859-35.43,89.115-51.406,110.134l-.8-.607c15.9-20.913,43.663-62.922,51.182-109.484-1.373-1.966-13.3-19.989-4.45-40.142" transform="translate(-35.67 -374.546)" fill="#2e3433"/>
          <path id="Trazado_1354" data-name="Trazado 1354" d="M224.868,405.574c-3.45,1.335-10.9,3.3-14.751,5.5a.429.429,0,0,0-.092.068c-2.9,1.133-10.852,8.9-11.933,10.775-1.615,2.8-.175,2.211-3.462,9.648-.073.229-.133.452-.2.678l-.02,0c-.6.943-1.243,1.974-1.918,3.073a1.406,1.406,0,0,0-.2.32h0c-3.8,6.206-8.576,14.475-12.588,21.569-1.952,3.036-3.91,6.095-5.739,9.089-2.574-2.98-4.659-5.094-4.659-5.094-4.733-3.549-26.261,13.913-19.552,25.809,5.554,9.853,21.7,14.822,31.262,15.886a11.279,11.279,0,0,0,4.857.177l.1-.006a1.341,1.341,0,0,0,.412-.106c3.812-.94,7.343-4.18,9.728-10.783,4.657-12.884,8.289-38.147,9.767-49.55a23.336,23.336,0,0,0,1.976-2.6s7.609-5.748,10.982-7.572,2.309-4.9,1.537-7.442,0-3.519-2.063-5.572a13.334,13.334,0,0,1-2.911-4.722,38.74,38.74,0,0,0,11.046-6.432c2.373-2.187-.062-3.3-1.58-2.712" transform="translate(-54.914 -353.912)" fill="#fff"/>
          <path id="Trazado_1355" data-name="Trazado 1355" d="M224.868,405.574c-3.45,1.335-10.9,3.3-14.751,5.5a.429.429,0,0,0-.092.068c-2.9,1.133-10.852,8.9-11.933,10.775-1.615,2.8-.175,2.211-3.462,9.648-.073.229-.133.452-.2.678l-.02,0c-.6.943-1.243,1.974-1.918,3.073a1.406,1.406,0,0,0-.2.32h0c-3.8,6.206-8.576,14.475-12.588,21.569-1.952,3.036-3.91,6.095-5.739,9.089-2.574-2.98-4.659-5.094-4.659-5.094-4.733-3.549-26.261,13.913-19.552,25.809,5.554,9.853,21.7,14.822,31.262,15.886a11.279,11.279,0,0,0,4.857.177l.1-.006a1.341,1.341,0,0,0,.412-.106c3.812-.94,7.343-4.18,9.728-10.783,4.657-12.884,8.289-38.147,9.767-49.55a23.336,23.336,0,0,0,1.976-2.6s7.609-5.748,10.982-7.572,2.309-4.9,1.537-7.442,0-3.519-2.063-5.572a13.334,13.334,0,0,1-2.911-4.722,38.74,38.74,0,0,0,11.046-6.432C228.821,406.1,226.386,404.987,224.868,405.574Z" transform="translate(-54.914 -353.912)" fill="none" stroke="#2e3433" stroke-linecap="round" stroke-miterlimit="10" stroke-width="1"/>
          <path id="Trazado_1356" data-name="Trazado 1356" d="M187.2,494.668l-.948-.064a22.879,22.879,0,0,0-4.53-14.782l.731-.607a23.419,23.419,0,0,1,4.746,15.453" transform="translate(-61.09 -367.618)" fill="#2e3433"/>
          <path id="Trazado_1357" data-name="Trazado 1357" d="M146.609,505.13c3.72-11.031,8.1-25.743,10.1-38.865,0,0-15.905-27.148-26.4-37.209-.169-.161-.344-.3-.515-.458-8.828-10.933-23.779-5.829-23.779-5.829a30.825,30.825,0,0,0-3.166-3.735c-1.667-1.617-17.117,2.53-20.749,2.957S76.13,427.8,76.13,427.8a4.656,4.656,0,0,0-2.876,1.014,11.961,11.961,0,0,0-4.558,2.7c-10.954,10.552-15.611,30.115-.463,59.409C65.584,511.4,39.472,594.409,39.472,594.409c5.3,3.325,11.972,5.879,19.439,7.828l8.547-11.5,1.674,13.721c38.156,6.862,88.373,1.674,88.373,1.674,3-6.4-3.417-55.967-10.9-101" transform="translate(-34.671 -356.372)" fill="#f5b015"/>
          <path id="Trazado_1358" data-name="Trazado 1358" d="M146.609,505.13c3.72-11.031,8.1-25.743,10.1-38.865,0,0-15.905-27.148-26.4-37.209-.169-.161-.344-.3-.515-.458-8.828-10.933-23.779-5.829-23.779-5.829a30.825,30.825,0,0,0-3.166-3.735c-1.667-1.617-17.117,2.53-20.749,2.957S76.13,427.8,76.13,427.8a4.656,4.656,0,0,0-2.876,1.014,11.961,11.961,0,0,0-4.558,2.7c-10.954,10.552-15.611,30.115-.463,59.409C65.584,511.4,39.472,594.409,39.472,594.409c5.3,3.325,11.972,5.879,19.439,7.828l8.547-11.5,1.674,13.721c38.156,6.862,88.373,1.674,88.373,1.674C160.506,599.736,154.088,550.167,146.609,505.13Z" transform="translate(-34.671 -356.372)" fill="none" stroke="#2e3433" stroke-miterlimit="10" stroke-width="1"/>
          <path id="Trazado_1359" data-name="Trazado 1359" d="M165.04,472.238l-.291.958c-.76-.23-18.667-5.728-24.464-13.831l.813-.583c5.6,7.825,23.758,13.4,23.942,13.455" transform="translate(-53.394 -363.823)" fill="#2e3433"/>
          <path id="Trazado_1360" data-name="Trazado 1360" d="M153.617,531.15l-.726.69c-.348-.367-34.9-36.959-44.245-62.313l.939-.347c9.272,25.16,43.687,61.605,44.033,61.97" transform="translate(-47.517 -365.754)" fill="#2e3433"/>
          <rect id="Rectángulo_317" data-name="Rectángulo 317" width="1.002" height="15.761" transform="translate(30.759 101.527) rotate(-5.878)" fill="#2e3433"/>
          <path id="Trazado_1361" data-name="Trazado 1361" d="M73.475,504.856,62.442,548.173l-.971-.246,11.034-43.319Z" transform="translate(-38.756 -372.334)" fill="#2e3433"/>
        </g>
      </g>
      <g id="Grupo_400" data-name="Grupo 400">
        <g id="Grupo_399" data-name="Grupo 399" clip-path="url(#clip-path-11)">
          <rect id="Rectángulo_318" data-name="Rectángulo 318" width="313.181" height="1.703" transform="translate(26.4 455.055)" fill="#2e3433"/>
        </g>
      </g>
    </g>
  </g>
</svg>
