<svg id="Grupo_681" data-name="Grupo 681" xmlns="http://www.w3.org/2000/svg" xmlns:xlink="http://www.w3.org/1999/xlink" width="367.471" height="249.879" viewBox="0 0 367.471 249.879">
  <defs>
    <clipPath id="clip-path">
      <rect id="Rectángulo_355" data-name="Rectángulo 355" width="367.471" height="249.879" fill="none"/>
    </clipPath>
  </defs>
  <g id="Grupo_428" data-name="Grupo 428" clip-path="url(#clip-path)">
    <path id="Trazado_1578" data-name="Trazado 1578" d="M315.439,10.795c-45.54-19.418-72.1,31.055-158.614,9.2C64.1-3.437,34.754,132.764,113.837,197.111c78.713,64.046,143.131,53.461,201.417-11.6,43.827-48.925,67.859-145.857.185-174.713" transform="translate(-10.044 -0.922)" fill="#fff"/>
    <path id="Trazado_1579" data-name="Trazado 1579" d="M308.977,260.616a9.855,9.855,0,0,0-1.293.461c.459-.267.905-.536,1.351-.8-.008.078-.039.2-.058.341" transform="translate(-45.381 -38.388)" fill="#96999e"/>
    <path id="Trazado_1580" data-name="Trazado 1580" d="M288.748,204.831c2.709,3.525,4.718,12.127,10.695,22.666a12.119,12.119,0,0,0,4.237,4.677c-5.557-2.288-12.879-2.268-15.514-2.123s-8.548-1.034-11.632-1.7c3.782,1.451,4.1,5.9,14.268,10.262,5.453,2.332,9.761,1.9,12.814.762l-.743.592A94.477,94.477,0,0,0,292.1,245.64c-7.141,4.349-15.3,2.657-15.3,2.657,7.773,2.784,2,1.98,12.1,3.287,8.61,1.118,14.922-11.45,14.922-11.45.211-.147.375-.272.5-.365-.343,2.174-1.174,8.085-.57,12.631.742,5.682,2.926,10.395,4.864,12.4,1.848,1.922,5.633,2.245,6,2.263-.3-.165-4.755-2.587-4.842-5-.088-2.507.966-4.812-.945-11.512s-3.773-11.556-3.773-11.556l-.379-.055a14.1,14.1,0,0,0,3.46-2.256,134.854,134.854,0,0,0,13.726-10.764c-1,3.442,4.373,14.2,6.937,16.164,19.554,14.983,30.694,5.043,30.694,5.043.6-.633-2.686-.381-5.061-.422s-7.226-4.615-7.226-4.615c-7.083-10.6-10.609-10.864-10.609-10.864s-6.693-3.454-10.8-4.355a5.9,5.9,0,0,1-3.023-1.755c2.367-2.124,4.692-4.34,6.98-6.613.818,1.724,2.273,6.527,4.96,7.445,15,5.079,24.644-7.588,24.644-7.588s-4.11,2.841-11.422,1.589c-6.02-1.02-13.5-2.751-16.956-2.662,2.563-2.586,5.076-5.257,7.518-7.962.993,1.183,6.34,7.026,14.129,7.45,4,.216,14.189-.614,19.2-5.462,0,0-29.753-3.893-32.339-3a.508.508,0,0,0-.052-.026c2.788-3.111,5.483-6.273,8.063-9.42,1.328,1.039,29.514,15.657,43.616,3.684,0,0-6.707.061-11.827-2.138s-8.47-6.313-15.465-6.11c-5.315.16-12.212,2.234-15.222,3.221,2.743-3.367,5.344-6.717,7.8-9.97,2.623,1.308,18.8,8.32,38.6-5.057,2.263-1.539,5.314-4.1,4.45-3.728-7.151,3.128-8.453,2.243-11.382,2.061-19.046-1.135-24.639,1.6-30.975,5.818,2.358-3.153,4.565-6.207,6.6-9.091,9.626.615,12.956-.679,18.048-1.7,5.212-1.061,15.313-7.143,15.313-7.143s6.685-3.725,8.555-6.869c1.593-2.7-4.161,5.03-16.1,4.947-9.611-.076-21.315,7.239-25.152,9.823,2.382-3.412,4.523-6.589,6.37-9.4,1.528.679,9.856,3.353,27.659-9.384,13.292-9.526,7.176-5.844,7.176-5.844a25.2,25.2,0,0,1-7.078,2.537c-4.734,1.089-15.111,1.519-27.238,11.9,2.213-3.394,3.986-6.251,5.232-8.336,1.225.139,6.032-1.321,9.347-2.613a36.843,36.843,0,0,0,7.99-4.448c5.763-4.143,15.335-11.571,14.4-11.016-2.881,1.73-11.141,3.818-19.779,8.976-7.129,4.253-10.087,6.748-11.3,8.014a24.1,24.1,0,0,0,1.512-2.766c-4.448,7.078-8.832,13.611-13.111,19.658.142-.239.272-.477.272-.477a109.964,109.964,0,0,0,5.9-21.551c1.691-11.09,2.639-18.749,2.507-26.817s-.74-8.552-.74-8.552-1.044,14.287-2.344,18.9c-1.305,4.628-3.677,12.228-4.061,16.553s-1.1,20.121-1.714,21.764c-.2.542-.213.678-.148.636q-3.211,4.533-6.338,8.69c.076-.236.118-.423.118-.423S366,165.332,365.955,146.2s-.109-25.585-.35-25.416c-.252.274-2.047,14.691-3.507,21.928-.709,3.477-1.34,6.412-1.882,8.918.365-11.465-1.272-13.438-1.272-13.438s-.332,16.968-6.25,29.685c-4.118,8.848-2.085,25.012-2.085,25.012l.013.692q-4.152,5.11-8.024,9.54c.451-.951,1.351-3.073,3.13-7.557,4.266-10.811,4.283-20.552,2.976-33.371s-4.775-15.665-4.6-14.76.635,11.685.673,13.126-2.18,12.111-3.11,19.875.549,23.066.549,23.066-.01.037-.02.078c-2.906,3.309-5.691,6.361-8.309,9.1a53.585,53.585,0,0,0,2.654-32.348c-1.349-5.945-5.741-23.942-6.315-26.527.214,1.471.79,8.288-1.014,26.595-1.945,19.843,3.083,31.1,4.014,32.965-2.413,2.521-4.7,4.8-6.817,6.862.737-.987,2.123-4.419-.016-15.591,0,0-3.348-14.239-22.424-13.928a18.442,18.442,0,0,1,8.8,11.375c2.1,8.086,8.761,16,13.257,18.5-1.785.706-17.153,14.644-17.153,14.644l-.3.248a11.536,11.536,0,0,0-3.485-2.662c4.629,1.6,8.919-1.991,8.919-1.991-1.611-1.059-1.3-8.412-4.216-10.336s-8.3-3.945-10.222-5.363-10.439-11.037-10.941-11.719.123,1.418.123,1.418m62.05-11.468a103.515,103.515,0,0,0,6.955-21.152c.066,2.74.229,6.272.5,10.875a2.411,2.411,0,0,0,.088.611q-3.845,5.106-7.545,9.666m-46.357,45.706c-.008.078-.039.2-.058.341a9.937,9.937,0,0,0-1.293.46c.459-.266.905-.535,1.351-.8" transform="translate(-40.786 -17.181)" fill="#96999e"/>
    <rect id="Rectángulo_344" data-name="Rectángulo 344" width="296.24" height="2.072" transform="translate(48.451 244.393)" fill="#131313"/>
    <path id="Trazado_1581" data-name="Trazado 1581" d="M313.461.059l-.153.014,1.267,12.553,10.041-7.217-.341-.552a11.958,11.958,0,0,0-10.813-4.8" transform="translate(-46.21 0)" fill="#f5b015"/>
    <path id="Trazado_1582" data-name="Trazado 1582" d="M50.787,131.793a3.379,3.379,0,1,1-3.38-3.379,3.38,3.38,0,0,1,3.38,3.379" transform="translate(-6.494 -18.94)" fill="#f5b015"/>
    <path id="Trazado_1583" data-name="Trazado 1583" d="M88.861,161.845a2.315,2.315,0,1,1-2.315-2.315,2.315,2.315,0,0,1,2.315,2.315" transform="translate(-12.423 -23.529)" fill="#f5b015"/>
    <path id="Trazado_1584" data-name="Trazado 1584" d="M212.758,4.207A3.379,3.379,0,1,1,209.378.828a3.38,3.38,0,0,1,3.379,3.379" transform="translate(-30.383 -0.122)" fill="#f5b015"/>
    <path id="Trazado_1585" data-name="Trazado 1585" d="M359.735,41.306a2.226,2.226,0,1,1-2.226-2.226,2.226,2.226,0,0,1,2.226,2.226" transform="translate(-52.401 -5.764)" fill="#f5b015"/>
    <path id="Trazado_1586" data-name="Trazado 1586" d="M359.417,53.161c-2.984,1.059-4.135,8.16-4.552,11.3a11.968,11.968,0,0,0,1.54,7.054c1.659,3.151,6.249,6.643,8.225,7.829,1.889,1.135,2.517-.847,4.17-2.306a11.156,11.156,0,0,0,3.141-5.7c1.063-4.165.568-9.071-2.558-12.021-2.3-2.174-6.983-7.208-9.967-6.15" transform="translate(-52.328 -7.819)" fill="#96999e"/>
    <path id="Trazado_1587" data-name="Trazado 1587" d="M365.384,80a2.59,2.59,0,0,1-1.029-.382c-1.988-1.194-6.652-4.719-8.373-7.986a12.356,12.356,0,0,1-1.582-7.292c.917-6.9,2.537-10.814,4.815-11.622,2.883-1.02,6.888,2.858,9.536,5.429.3.3.586.569.838.806,3.468,3.274,3.654,8.558,2.671,12.411a11.439,11.439,0,0,1-3.264,5.9,11.79,11.79,0,0,0-1.13,1.2c-.7.818-1.422,1.658-2.482,1.535M360.57,53.366a2.394,2.394,0,0,0-1.089.1c-1.916.68-3.44,4.577-4.289,10.975a11.564,11.564,0,0,0,1.5,6.813c1.627,3.089,6.228,6.563,8.078,7.674,1.042.625,1.517.148,2.493-.989a12.5,12.5,0,0,1,1.207-1.274,10.68,10.68,0,0,0,3.019-5.5c.927-3.632.771-8.6-2.446-11.632-.254-.241-.539-.516-.845-.814-2.027-1.968-5.229-5.076-7.625-5.353" transform="translate(-52.259 -7.75)" fill="#2e3433"/>
    <path id="Trazado_1588" data-name="Trazado 1588" d="M386.418,97.584a13.744,13.744,0,0,0-3.553-.687,12.867,12.867,0,0,0-8.832,3.613,38.212,38.212,0,0,0-6.058,7.644l-.2,1.872a23.037,23.037,0,0,0,14.176,4.25,9.995,9.995,0,0,0,3.246-.569c2.538-.988,4.157-3.449,5.48-5.831.908-1.637,4.846-4.413,4.511-6.254-.474-2.617-6.229-3.243-8.766-4.038" transform="translate(-54.243 -14.29)" fill="#96999e"/>
    <path id="Trazado_1589" data-name="Trazado 1589" d="M378.348,114.469a23.353,23.353,0,0,1-10.882-4.188l-.189-.136.239-2.2.054-.081a38.511,38.511,0,0,1,6.125-7.723,13.156,13.156,0,0,1,9.114-3.714,13.946,13.946,0,0,1,3.656.705c.549.172,1.276.341,2.045.521,2.932.683,6.581,1.534,7,3.827.25,1.377-1.292,2.951-2.782,4.472A12.341,12.341,0,0,0,390.95,108c-1.4,2.517-3.053,4.986-5.685,6.009a10.441,10.441,0,0,1-3.376.6,23.058,23.058,0,0,1-3.542-.136m-10.227-4.7a22.552,22.552,0,0,0,13.738,4.041,9.692,9.692,0,0,0,3.118-.542c2.395-.932,3.951-3.267,5.275-5.653a12.758,12.758,0,0,1,1.9-2.218c1.222-1.248,2.743-2.8,2.567-3.771-.323-1.777-3.83-2.594-6.391-3.192-.783-.182-1.525-.355-2.1-.536a13.232,13.232,0,0,0-3.45-.669,12.371,12.371,0,0,0-8.549,3.511,37.477,37.477,0,0,0-5.938,7.487Z" transform="translate(-54.17 -14.221)" fill="#2e3433"/>
    <path id="Trazado_1590" data-name="Trazado 1590" d="M352.886,90.176c-2.72-1.086-7.054-2.136-8.883.153-1.255,1.571-.493,4.707.113,6.624,1.181,3.743,4.32,6.613,7.835,8.357s7.422,2.51,11.274,3.258l.666-.243a18.14,18.14,0,0,0-11-18.149" transform="translate(-50.637 -13.122)" fill="#96999e"/>
    <path id="Trazado_1591" data-name="Trazado 1591" d="M363.188,108.911l-.108-.021c-3.828-.744-7.786-1.514-11.375-3.292-4.073-2.02-6.928-5.072-8.039-8.595-1.058-3.353-1.072-5.706-.043-6.993,2.189-2.74,7.265-1.1,9.343-.275a18.582,18.582,0,0,1,11.255,18.56l-.026.25ZM348.472,89.356c-1.636-.189-3.3-.009-4.226,1.152-.586.733-1.031,2.413.182,6.254,1.03,3.265,3.812,6.225,7.632,8.119a43.289,43.289,0,0,0,11.064,3.2l.324-.118a17.378,17.378,0,0,0-14.975-18.61" transform="translate(-50.569 -13.051)" fill="#2e3433"/>
    <path id="Trazado_1592" data-name="Trazado 1592" d="M347.493,123.519a11.637,11.637,0,0,0-3.6-3.078,8.157,8.157,0,0,0-7.024.43,8.984,8.984,0,0,0-4.168,12.1,14.017,14.017,0,0,0,7.619,7.158,26.372,26.372,0,0,0,10.5,1.731l.72-1.077c.65-3.562,1.291-7.3.153-10.741a19.657,19.657,0,0,0-4.2-6.521" transform="translate(-48.952 -17.674)" fill="#96999e"/>
    <path id="Trazado_1593" data-name="Trazado 1593" d="M346.262,141.97a22.521,22.521,0,0,1-6.168-1.544,14.431,14.431,0,0,1-7.833-7.371,9.382,9.382,0,0,1,4.356-12.609,8.543,8.543,0,0,1,7.375-.436,11.865,11.865,0,0,1,3.731,3.176h0a20.155,20.155,0,0,1,4.28,6.658c1.2,3.618.488,7.507-.137,10.938l-.061.151-.838,1.251-.21,0a35.951,35.951,0,0,1-4.5-.217m-4.492-21.76a8.578,8.578,0,0,0-4.792.949A8.587,8.587,0,0,0,333,132.745a13.622,13.622,0,0,0,7.406,6.944,25.612,25.612,0,0,0,10.134,1.7l.558-.832c.606-3.316,1.275-7.065.151-10.462a19.483,19.483,0,0,0-4.125-6.384h0a11.251,11.251,0,0,0-3.471-2.98,6.05,6.05,0,0,0-1.881-.523" transform="translate(-48.882 -17.605)" fill="#2e3433"/>
    <path id="Trazado_1594" data-name="Trazado 1594" d="M377.572,136.283c-4.2-1.244-8.674-2.005-12.807-.562s-12.026,8.84-9.168,10.027c3.244,1.349,12.7,5.978,16.2,5.642,2.866-.276,10.915-4.324,11.2-5.26.667-2.172-2.13-8.872-5.425-9.847" transform="translate(-52.357 -19.902)" fill="#96999e"/>
    <path id="Trazado_1595" data-name="Trazado 1595" d="M370.543,151.687c-3.317-.383-8.959-2.894-12.852-4.625-.929-.413-1.726-.768-2.316-1.015a1.305,1.305,0,0,1-.855-1.312c.075-2.6,6.383-8.183,10.045-9.461,4.545-1.587,9.363-.536,13.051.556,2.008.594,3.5,2.91,4.213,4.236,1.258,2.344,1.866,4.856,1.48,6.112-.381,1.238-8.8,5.276-11.548,5.54a5.859,5.859,0,0,1-1.218-.032M371.9,135.4a15.813,15.813,0,0,0-7.071.627c-3.5,1.22-9.45,6.686-9.509,8.73a.512.512,0,0,0,.363.552c.6.247,1.4.6,2.334,1.02,4.083,1.817,10.916,4.852,13.668,4.592,2.861-.275,10.464-4.239,10.869-5,.31-1.015-.3-3.379-1.428-5.481-1.111-2.071-2.473-3.474-3.735-3.847a32.665,32.665,0,0,0-5.492-1.2" transform="translate(-52.288 -19.832)" fill="#2e3433"/>
    <path id="Trazado_1596" data-name="Trazado 1596" d="M327.058,149.181a6.308,6.308,0,0,0-4.214,1.971c-1.743,2.066-1.286,5.179-.378,7.725A29.319,29.319,0,0,0,333.9,173.4l1.072.076a32.273,32.273,0,0,0,3.35-11.525,15.617,15.617,0,0,0-.147-4.708,10.615,10.615,0,0,0-11.112-8.065" transform="translate(-47.442 -21.995)" fill="#96999e"/>
    <path id="Trazado_1597" data-name="Trazado 1597" d="M333.695,173.726l-.087-.056a29.647,29.647,0,0,1-11.586-14.727c-.869-2.431-1.494-5.812.448-8.116a6.677,6.677,0,0,1,4.477-2.112,11.038,11.038,0,0,1,11.546,8.379,16.323,16.323,0,0,1,.153,4.829,32.918,32.918,0,0,1-3.391,11.669l-.12.235Zm-4.7-24.2a8.9,8.9,0,0,0-1.964-.012,5.9,5.9,0,0,0-3.95,1.831c-1.7,2.014-1.1,5.1-.307,7.333a28.856,28.856,0,0,0,11.186,14.27l.7.049a32.073,32.073,0,0,0,3.189-11.146,14.841,14.841,0,0,0-.14-4.588,10.282,10.282,0,0,0-8.715-7.738" transform="translate(-47.373 -21.926)" fill="#2e3433"/>
    <path id="Trazado_1598" data-name="Trazado 1598" d="M356.587,165.386a17.173,17.173,0,0,0-4.286-.321,14.557,14.557,0,0,0-7.962,3.8c-2.277,1.935-4.235,4.219-6.488,6.182l.335.228c1.122,3.46,5.006,5.085,8.491,6.127,4.253,1.272,9.178,2.224,12.868-.245a12.058,12.058,0,0,0,4.142-5.59,7.931,7.931,0,0,0,.6-5.58c-1.054-2.96-4.6-4.075-7.7-4.6" transform="translate(-49.83 -24.34)" fill="#96999e"/>
    <path id="Trazado_1599" data-name="Trazado 1599" d="M351.8,182.893a31.588,31.588,0,0,1-5.347-1.18c-3.406-1.018-7.459-2.649-8.712-6.255l-.652-.445.39-.34c1.073-.933,2.1-1.962,3.092-2.958,1.085-1.086,2.205-2.211,3.4-3.226a14.828,14.828,0,0,1,8.187-3.889,17.677,17.677,0,0,1,4.386.325c4.494.758,7.113,2.347,8.007,4.858.565,1.589.368,3.508-.6,5.866a12.206,12.206,0,0,1-4.29,5.769,11.475,11.475,0,0,1-7.858,1.476m-13.409-7.959.024.016.042.13c1.085,3.344,4.966,4.893,8.226,5.868,3.939,1.176,8.923,2.218,12.531-.194a11.453,11.453,0,0,0,3.995-5.411c.894-2.167,1.087-3.9.589-5.293-.787-2.213-3.2-3.632-7.386-4.338a17.106,17.106,0,0,0-4.186-.317,14.067,14.067,0,0,0-7.736,3.7c-1.17.994-2.28,2.107-3.353,3.182-.883.887-1.794,1.8-2.746,2.655" transform="translate(-49.717 -24.271)" fill="#2e3433"/>
    <path id="Trazado_1600" data-name="Trazado 1600" d="M322.606,186.717a20.4,20.4,0,0,0-3.881-7.024,12.15,12.15,0,0,0-13.028-2.928c-2.191.869-4.221,2.585-4.7,4.893-.626,3.041,1.534,5.889,3.6,8.2,2.971,3.321,6.605,6.8,11.061,6.708a16.124,16.124,0,0,0,3.652-.649l3.387-.874.639-.287a10.481,10.481,0,0,0,.3-4.361,18.154,18.154,0,0,0-1.036-3.681" transform="translate(-44.379 -25.955)" fill="#96999e"/>
    <path id="Trazado_1601" data-name="Trazado 1601" d="M314.382,196.839c-3.962-.459-7.211-3.5-10.144-6.783-2.193-2.453-4.349-5.385-3.7-8.551a7.6,7.6,0,0,1,4.939-5.183,12.5,12.5,0,0,1,13.468,3.026,20.743,20.743,0,0,1,3.965,7.159,18.8,18.8,0,0,1,1.056,3.762,10.914,10.914,0,0,1-.31,4.528l-.051.178-.808.363-3.452.9a16.38,16.38,0,0,1-3.743.66,8.935,8.935,0,0,1-1.223-.056m-3.135-20.468a11.336,11.336,0,0,0-5.472.693,6.816,6.816,0,0,0-4.452,4.6c-.58,2.818,1.449,5.553,3.51,7.857,3.1,3.467,6.544,6.662,10.755,6.575a15.742,15.742,0,0,0,3.56-.636l3.388-.875.4-.185a10.11,10.11,0,0,0,.239-4.019,18.032,18.032,0,0,0-1.014-3.6,20.02,20.02,0,0,0-3.8-6.889,11.578,11.578,0,0,0-7.117-3.523" transform="translate(-44.31 -25.884)" fill="#2e3433"/>
    <path id="Trazado_1602" data-name="Trazado 1602" d="M344.825,194.165a23.467,23.467,0,0,0-18.526,4.577l1.956.251a7.2,7.2,0,0,0,2.344,6.738,18.436,18.436,0,0,0,6.515,3.57c3.118,1.144,6.708,2.094,9.647.546,2.415-1.271,3.755-3.934,4.539-6.549a8.04,8.04,0,0,0,.373-4.166c-.706-2.9-3.912-4.424-6.848-4.967" transform="translate(-48.126 -28.583)" fill="#96999e"/>
    <path id="Trazado_1603" data-name="Trazado 1603" d="M341.76,210.912a22.013,22.013,0,0,1-4.954-1.305,18.89,18.89,0,0,1-6.653-3.655,7.763,7.763,0,0,1-2.551-6.687l-2.471-.316.749-.589a23.855,23.855,0,0,1,18.845-4.656c3.858.713,6.536,2.681,7.164,5.266a8.372,8.372,0,0,1-.378,4.375c-1.014,3.384-2.607,5.667-4.735,6.787a8.468,8.468,0,0,1-5.016.781M327.152,198.4l1.43.183-.113.437a6.8,6.8,0,0,0,2.234,6.35,18.2,18.2,0,0,0,6.378,3.484c3.03,1.112,6.507,2.049,9.322.567,1.932-1.016,3.391-3.139,4.343-6.31a7.68,7.68,0,0,0,.367-3.956c-.818-3.362-5.207-4.424-6.532-4.668a23.061,23.061,0,0,0-17.429,3.913" transform="translate(-47.954 -28.514)" fill="#2e3433"/>
    <path id="Trazado_1604" data-name="Trazado 1604" d="M388.01,104.431c-3.411.6-6.737,2.164-10.026,3.248a44.027,44.027,0,0,1-10.29,2.052.284.284,0,0,0-.005.568c3.407.47,6.837-.541,10.051-1.6,3.447-1.13,7.258-2.09,10.453-3.8a.255.255,0,0,0-.184-.468" transform="translate(-54.191 -15.402)" fill="#2e3433"/>
    <path id="Trazado_1605" data-name="Trazado 1605" d="M363.937,107.5c-3.033-.246-5.863-3.679-8.024-5.654-1.783-1.629-3.447-3.407-5.349-4.9-.264-.207-.529.207-.347.434a63.479,63.479,0,0,0,8.213,7.82c1.643,1.418,3.194,3.043,5.5,2.812a.258.258,0,0,0,.006-.515" transform="translate(-51.645 -14.291)" fill="#2e3433"/>
    <path id="Trazado_1606" data-name="Trazado 1606" d="M340.507,127.058c-.339-.205-.779.3-.451.564a28.912,28.912,0,0,1,7.8,8.621c1.186,2.153,1.924,4.879,4.008,6.34.129.09.242-.075.2-.191-2.276-5.775-6.141-12.049-11.553-15.334" transform="translate(-50.138 -18.733)" fill="#2e3433"/>
    <path id="Trazado_1607" data-name="Trazado 1607" d="M378.618,146.114a22.063,22.063,0,0,0-10.6-1.64c-4.377.529-7.822,2.021-12.223.344-.288-.11-.5.366-.216.5a12.538,12.538,0,0,0,8.725.823,23.7,23.7,0,0,1,6.89-.839c2.468.178,4.847.943,7.283,1.32a.265.265,0,0,0,.142-.511" transform="translate(-52.425 -21.291)" fill="#2e3433"/>
    <path id="Trazado_1608" data-name="Trazado 1608" d="M332.978,163.446a26.055,26.055,0,0,0-4.925-8.548.139.139,0,0,0-.222.163c2.043,4.31,4.423,8.193,5.657,12.877.561,2.126.582,5.592,3.305,6a.3.3,0,0,0,.231-.539c-2.749-1.725-2.922-7.072-4.047-9.957" transform="translate(-48.35 -22.839)" fill="#2e3433"/>
    <path id="Trazado_1609" data-name="Trazado 1609" d="M360.376,173.786a30.639,30.639,0,0,0-9.411-.076c-3.714.522-8.672,3.474-12.291,2.125-.237-.088-.407.3-.176.413,2.94,1.434,5.72-.1,8.665-.88a36.7,36.7,0,0,1,13.1-.754c.471.046.592-.747.118-.829" transform="translate(-49.909 -25.573)" fill="#2e3433"/>
    <path id="Trazado_1610" data-name="Trazado 1610" d="M304.764,182.663c-.205-.078-.349.257-.153.357,7.326,3.747,15.19,5.878,19.586,13.432.291.5,1.08.066.788-.431-4.413-7.511-12.448-10.4-20.22-13.358" transform="translate(-44.914 -26.939)" fill="#2e3433"/>
    <path id="Trazado_1611" data-name="Trazado 1611" d="M347.04,203.053c-3.27-.94-6.616-1.5-9.9-2.514a23.8,23.8,0,0,0-9.1-1.454.323.323,0,0,0-.007.645,41.7,41.7,0,0,1,10.8,2.426c2.569.821,5.475,1.926,8.2,1.469.3-.052.275-.5.007-.572" transform="translate(-48.338 -29.356)" fill="#2e3433"/>
    <path id="Trazado_1612" data-name="Trazado 1612" d="M356.073,68.1a85.232,85.232,0,0,1,4.165,28.7c-.46,10.881-3.5,21.3-8,31.171-8.447,18.564-21.212,35-27.718,54.472-3.24,9.7-4.842,19.889-3.122,30.049.055.325.61.266.579-.068-4.019-43.045,37.5-72.735,39.914-114.556a71.591,71.591,0,0,0-4.537-30.277c-.29-.735-1.517-.246-1.286.5" transform="translate(-47.301 -9.916)" fill="#2e3433"/>
    <path id="Trazado_1613" data-name="Trazado 1613" d="M316.973,215.432a7,7,0,0,1-.084,1.129,8.712,8.712,0,0,1-4.537,6.35,8.206,8.206,0,0,1-2.935.93,6.767,6.767,0,0,1-.931.061H117.08l-.744-153.208-.061-12.172a6.759,6.759,0,0,1,6.6-6.212H310.4a5.847,5.847,0,0,1,5.991,5.923l.288,77.016.144,39.261.036,9.681Z" transform="translate(-17.149 -7.715)" fill="#2e3433"/>
    <path id="Trazado_1614" data-name="Trazado 1614" d="M310.437,61.133V61.3l-.111,13.646-.452,56.581-.376,48.039-.072,7.868-.252,33.079-.02,1.87-.026,2.756v.33H114.34l.789-70.8.893-80.057.026-2.627.123-10.858Z" transform="translate(-16.864 -9.017)" fill="#f5b015"/>
    <path id="Trazado_1615" data-name="Trazado 1615" d="M310.437,61.133V61.3l-.111,13.646-.452,56.581-.376,48.039-.072,7.868-.252,33.079-.02,1.87-.026,2.756v.33H114.34l.789-70.8.893-80.057.026-2.627.123-10.858Z" transform="translate(-16.864 -9.017)" fill="none" stroke="#2e3433" stroke-miterlimit="10" stroke-width="1"/>
    <path id="Trazado_1616" data-name="Trazado 1616" d="M301.446,63.93l0,.146-.095,11.816-1.038,130.338H120.374L121.827,75.6l.13-11.674Z" transform="translate(-17.754 -9.429)" fill="#fff"/>
    <path id="Trazado_1617" data-name="Trazado 1617" d="M143.428,219.816H130.711a1.777,1.777,0,0,0-1.771,1.743,1.709,1.709,0,0,0,1.714,1.743h12.718a1.777,1.777,0,0,0,1.771-1.743,1.709,1.709,0,0,0-1.714-1.743" transform="translate(-19.017 -32.421)" fill="#2e3433"/>
    <path id="Trazado_1618" data-name="Trazado 1618" d="M171.939,219.816H159.223a1.776,1.776,0,0,0-1.771,1.743,1.708,1.708,0,0,0,1.714,1.743h12.717a1.776,1.776,0,0,0,1.771-1.743,1.709,1.709,0,0,0-1.714-1.743" transform="translate(-23.223 -32.421)" fill="#2e3433"/>
    <path id="Trazado_1619" data-name="Trazado 1619" d="M200.451,219.816H187.734a1.776,1.776,0,0,0-1.771,1.743,1.709,1.709,0,0,0,1.714,1.743h12.717a1.776,1.776,0,0,0,1.772-1.743,1.709,1.709,0,0,0-1.714-1.743" transform="translate(-27.428 -32.421)" fill="#2e3433"/>
    <path id="Trazado_1620" data-name="Trazado 1620" d="M228.963,219.816H216.245a1.777,1.777,0,0,0-1.772,1.743,1.71,1.71,0,0,0,1.714,1.743h12.719a1.777,1.777,0,0,0,1.771-1.743,1.709,1.709,0,0,0-1.714-1.743" transform="translate(-31.633 -32.421)" fill="#2e3433"/>
    <path id="Trazado_1621" data-name="Trazado 1621" d="M257.474,219.816H244.757a1.778,1.778,0,0,0-1.772,1.743A1.709,1.709,0,0,0,244.7,223.3h12.718a1.779,1.779,0,0,0,1.772-1.743,1.71,1.71,0,0,0-1.715-1.743" transform="translate(-35.838 -32.421)" fill="#2e3433"/>
    <path id="Trazado_1622" data-name="Trazado 1622" d="M285.985,219.816H273.268a1.778,1.778,0,0,0-1.771,1.743,1.71,1.71,0,0,0,1.715,1.743H285.93a1.775,1.775,0,0,0,1.769-1.743,1.708,1.708,0,0,0-1.714-1.743" transform="translate(-40.043 -32.421)" fill="#2e3433"/>
    <path id="Trazado_1623" data-name="Trazado 1623" d="M314.5,219.816H301.78a1.778,1.778,0,0,0-1.772,1.743,1.708,1.708,0,0,0,1.714,1.743h12.719a1.778,1.778,0,0,0,1.772-1.743,1.709,1.709,0,0,0-1.714-1.743" transform="translate(-44.248 -32.421)" fill="#2e3433"/>
    <path id="Trazado_1624" data-name="Trazado 1624" d="M274.58,117.933l-1.615-3.787-1.737,3.787-3.789.412,2.943,2.594-.968,4.2,3.408-2.182,3.338,2.182-.831-4.2,3.026-2.594Z" transform="translate(-39.445 -16.836)" fill="#d8143b"/>
    <path id="Trazado_1625" data-name="Trazado 1625" d="M308.483,168.255l-1.615-3.786-1.739,3.786-3.788.411,2.943,2.6-.968,4.2,3.409-2.182,3.337,2.182-.832-4.2,3.027-2.6Z" transform="translate(-44.445 -24.258)" fill="#d8143b"/>
    <path id="Trazado_1626" data-name="Trazado 1626" d="M192.168,196.453h.8l1.885-113.905-.8-.068Z" transform="translate(-28.343 -12.165)" fill="#2e3433"/>
    <path id="Trazado_1627" data-name="Trazado 1627" d="M224.024,196.453h.8l1.882-113.905-.8-.068Z" transform="translate(-33.041 -12.165)" fill="#2e3433"/>
    <path id="Trazado_1628" data-name="Trazado 1628" d="M255.881,196.453h.8l1.884-113.905-.8-.068Z" transform="translate(-37.74 -12.165)" fill="#2e3433"/>
    <path id="Trazado_1629" data-name="Trazado 1629" d="M287.735,196.453h.8l1.884-113.905-.8-.068Z" transform="translate(-42.438 -12.165)" fill="#2e3433"/>
    <path id="Trazado_1630" data-name="Trazado 1630" d="M130.124,134.1H294.111l-.057-.8H130.067Z" transform="translate(-19.184 -19.661)" fill="#2e3433"/>
    <path id="Trazado_1631" data-name="Trazado 1631" d="M131.224,108.086h163.91l-.056-.8H131.167Z" transform="translate(-19.346 -15.824)" fill="#2e3433"/>
    <path id="Trazado_1632" data-name="Trazado 1632" d="M129.71,159.672H293.7l-.057-.8H129.653Z" transform="translate(-19.123 -23.432)" fill="#2e3433"/>
    <path id="Trazado_1633" data-name="Trazado 1633" d="M129.295,185.239H293.281l-.058-.8H129.237Z" transform="translate(-19.061 -27.203)" fill="#2e3433"/>
    <path id="Trazado_1634" data-name="Trazado 1634" d="M128.88,210.808H292.866l-.057-.8H128.822Z" transform="translate(-19 -30.974)" fill="#2e3433"/>
    <path id="Trazado_1635" data-name="Trazado 1635" d="M247.661,119.916H234.842a1.2,1.2,0,0,0-1.2,1.178,1.155,1.155,0,0,0,1.159,1.178h12.819a1.2,1.2,0,0,0,1.2-1.178,1.156,1.156,0,0,0-1.16-1.178" transform="translate(-34.46 -17.686)" fill="#2e3433"/>
    <path id="Trazado_1636" data-name="Trazado 1636" d="M246.66,194.173H232.847a.578.578,0,0,0-.576.568.555.555,0,0,0,.558.568h13.812a.58.58,0,0,0,.578-.568.558.558,0,0,0-.56-.568" transform="translate(-34.258 -28.639)" fill="#2e3433"/>
    <path id="Trazado_1637" data-name="Trazado 1637" d="M246.606,197.473H232.794a.579.579,0,0,0-.578.569.557.557,0,0,0,.559.568h13.813a.578.578,0,0,0,.576-.568.556.556,0,0,0-.558-.569" transform="translate(-34.25 -29.125)" fill="#2e3433"/>
    <path id="Trazado_1638" data-name="Trazado 1638" d="M246.553,200.775H232.74a.578.578,0,0,0-.577.568.557.557,0,0,0,.559.568h13.813a.579.579,0,0,0,.576-.568.557.557,0,0,0-.558-.568" transform="translate(-34.242 -29.612)" fill="#2e3433"/>
    <path id="Trazado_1639" data-name="Trazado 1639" d="M177.368,138.83H146.841c-.285,0-.52.419-.529.934s.216.934.5.934h30.527c.284,0,.52-.419.529-.934s-.216-.934-.5-.934" transform="translate(-21.58 -20.476)" fill="#2e3433"/>
    <path id="Trazado_1640" data-name="Trazado 1640" d="M156.507,143.36h-9.737c-.285,0-.522.419-.53.934s.215.934.5.934h9.739c.284,0,.521-.419.529-.934s-.215-.934-.5-.934" transform="translate(-21.569 -21.144)" fill="#2e3433"/>
    <path id="Trazado_1641" data-name="Trazado 1641" d="M174.549,143.36H160.515c-.284,0-.521.419-.529.934s.216.934.5.934H174.52c.283,0,.52-.419.529-.934s-.215-.934-.5-.934" transform="translate(-23.596 -21.144)" fill="#2e3433"/>
    <path id="Trazado_1642" data-name="Trazado 1642" d="M175.513,168.723H144.986c-.283,0-.521.418-.529.934s.215.934.5.934h30.526c.284,0,.521-.417.529-.934s-.215-.934-.5-.934" transform="translate(-21.306 -24.885)" fill="#2e3433"/>
    <path id="Trazado_1643" data-name="Trazado 1643" d="M141.042,173.253h-5.337c-.283,0-.52.419-.529.934s.216.936.5.936h5.336c.285,0,.521-.419.53-.936s-.215-.934-.5-.934" transform="translate(-19.937 -25.553)" fill="#2e3433"/>
    <path id="Trazado_1644" data-name="Trazado 1644" d="M154.651,173.253h-9.738c-.284,0-.52.419-.529.934s.217.936.5.936h9.737c.285,0,.521-.419.529-.936s-.215-.934-.5-.934" transform="translate(-21.295 -25.553)" fill="#2e3433"/>
    <path id="Trazado_1645" data-name="Trazado 1645" d="M172.695,173.253H158.66c-.284,0-.52.419-.529.934s.215.936.5.936h14.033c.284,0,.521-.419.529-.936s-.216-.934-.5-.934" transform="translate(-23.323 -25.553)" fill="#2e3433"/>
    <path id="Trazado_1646" data-name="Trazado 1646" d="M142.824,147.891h-5.336c-.284,0-.521.419-.529.933s.215.935.5.935h5.337c.284,0,.52-.419.529-.935s-.215-.933-.5-.933" transform="translate(-20.2 -21.813)" fill="#2e3433"/>
    <path id="Trazado_1647" data-name="Trazado 1647" d="M174.179,147.891H146.564a.393.393,0,0,0-.391.385l-.018,1.1a.378.378,0,0,0,.379.385H174.15a.393.393,0,0,0,.39-.385l.018-1.1a.378.378,0,0,0-.379-.385" transform="translate(-21.556 -21.813)" fill="#2e3433"/>
    <path id="Trazado_1648" data-name="Trazado 1648" d="M142.751,152.42h-5.337c-.285,0-.521.418-.529.934s.215.934.5.934h5.337c.283,0,.521-.418.529-.934s-.215-.934-.5-.934" transform="translate(-20.189 -22.481)" fill="#2e3433"/>
    <path id="Trazado_1649" data-name="Trazado 1649" d="M159.276,152.42H146.621c-.284,0-.52.418-.529.934s.215.934.5.934h12.654c.285,0,.521-.418.529-.934s-.214-.934-.5-.934" transform="translate(-21.547 -22.481)" fill="#2e3433"/>
    <path id="Trazado_1650" data-name="Trazado 1650" d="M168.5,152.42h-5.018c-.284,0-.521.418-.529.934s.215.934.5.934h5.018c.284,0,.521-.418.529-.934s-.215-.934-.5-.934" transform="translate(-24.034 -22.481)" fill="#2e3433"/>
    <path id="Trazado_1651" data-name="Trazado 1651" d="M158.038,116.063H148.3c-.284,0-.521.419-.529.934s.216.934.5.934h9.737c.285,0,.521-.419.529-.934s-.214-.934-.5-.934" transform="translate(-21.795 -17.118)" fill="#2e3433"/>
    <path id="Trazado_1652" data-name="Trazado 1652" d="M176.081,116.063H162.047c-.284,0-.521.419-.529.934s.215.934.5.934H176.05c.285,0,.521-.419.529-.934s-.216-.934-.5-.934" transform="translate(-23.822 -17.118)" fill="#2e3433"/>
    <path id="Trazado_1653" data-name="Trazado 1653" d="M144.356,120.593H139.02c-.283,0-.521.419-.529.935s.215.934.5.934h5.337c.285,0,.521-.418.529-.934s-.215-.935-.5-.935" transform="translate(-20.426 -17.786)" fill="#2e3433"/>
    <path id="Trazado_1654" data-name="Trazado 1654" d="M175.711,120.593H148.1a.394.394,0,0,0-.392.386l-.018,1.1a.378.378,0,0,0,.379.384H175.68a.393.393,0,0,0,.392-.384l.018-1.1a.379.379,0,0,0-.379-.386" transform="translate(-21.782 -17.786)" fill="#2e3433"/>
    <path id="Trazado_1655" data-name="Trazado 1655" d="M144.283,125.123h-5.337c-.285,0-.521.418-.529.934s.215.934.5.934h5.337c.283,0,.52-.418.529-.934s-.215-.934-.5-.934" transform="translate(-20.415 -18.454)" fill="#2e3433"/>
    <path id="Trazado_1656" data-name="Trazado 1656" d="M160.808,125.123H148.152c-.283,0-.52.418-.529.934s.215.934.5.934h12.655c.284,0,.521-.418.529-.934s-.215-.934-.5-.934" transform="translate(-21.773 -18.454)" fill="#2e3433"/>
    <path id="Trazado_1657" data-name="Trazado 1657" d="M170.029,125.123h-5.017c-.285,0-.522.418-.53.934s.215.934.5.934H170c.284,0,.522-.418.529-.934s-.215-.934-.5-.934" transform="translate(-24.26 -18.454)" fill="#2e3433"/>
    <path id="Trazado_1658" data-name="Trazado 1658" d="M158.6,89.929h-9.738c-.283,0-.52.419-.529.934s.215.934.5.934h9.738c.284,0,.52-.419.529-.934s-.215-.934-.5-.934" transform="translate(-21.878 -13.264)" fill="#2e3433"/>
    <path id="Trazado_1659" data-name="Trazado 1659" d="M176.648,89.929H162.614c-.283,0-.521.419-.529.934s.215.934.5.934h14.034c.284,0,.52-.419.529-.934s-.216-.934-.5-.934" transform="translate(-23.906 -13.264)" fill="#2e3433"/>
    <path id="Trazado_1660" data-name="Trazado 1660" d="M144.922,94.459h-5.336c-.284,0-.521.419-.529.935s.214.933.5.933h5.336c.285,0,.521-.418.529-.933s-.215-.935-.5-.935" transform="translate(-20.51 -13.932)" fill="#2e3433"/>
    <path id="Trazado_1661" data-name="Trazado 1661" d="M176.278,94.459H148.663a.392.392,0,0,0-.391.386l-.018,1.1a.378.378,0,0,0,.379.384h27.614a.4.4,0,0,0,.393-.384l.017-1.1a.378.378,0,0,0-.379-.386" transform="translate(-21.866 -13.932)" fill="#2e3433"/>
    <path id="Trazado_1662" data-name="Trazado 1662" d="M144.849,98.989h-5.337c-.284,0-.521.418-.529.934s.216.934.5.934h5.337c.284,0,.521-.418.529-.934s-.215-.934-.5-.934" transform="translate(-20.499 -14.6)" fill="#2e3433"/>
    <path id="Trazado_1663" data-name="Trazado 1663" d="M161.374,98.989H148.719c-.283,0-.52.418-.529.934s.215.934.5.934h12.655c.285,0,.521-.418.529-.934s-.215-.934-.5-.934" transform="translate(-21.857 -14.6)" fill="#2e3433"/>
    <path id="Trazado_1664" data-name="Trazado 1664" d="M170.6,98.989h-5.017c-.285,0-.522.418-.529.934s.215.934.5.934h5.017c.285,0,.522-.418.529-.934s-.214-.934-.5-.934" transform="translate(-24.343 -14.6)" fill="#2e3433"/>
    <path id="Trazado_1665" data-name="Trazado 1665" d="M155.8,193.179h-9.738c-.284,0-.52.419-.529.935s.217.934.5.934h9.737c.283,0,.521-.418.529-.934s-.215-.935-.5-.935" transform="translate(-21.465 -28.492)" fill="#2e3433"/>
    <path id="Trazado_1666" data-name="Trazado 1666" d="M173.846,193.179H159.812c-.285,0-.52.419-.529.935s.215.934.5.934h14.034c.284,0,.521-.418.529-.934s-.215-.935-.5-.935" transform="translate(-23.493 -28.492)" fill="#2e3433"/>
    <path id="Trazado_1667" data-name="Trazado 1667" d="M142.122,197.71h-5.338c-.283,0-.52.419-.529.934s.215.934.5.934h5.337c.285,0,.522-.419.529-.934s-.216-.934-.5-.934" transform="translate(-20.096 -29.16)" fill="#2e3433"/>
    <path id="Trazado_1668" data-name="Trazado 1668" d="M173.477,197.71H145.861a.393.393,0,0,0-.391.385l-.018,1.1a.378.378,0,0,0,.379.385h27.615a.394.394,0,0,0,.392-.385l.017-1.1a.377.377,0,0,0-.379-.385" transform="translate(-21.453 -29.16)" fill="#2e3433"/>
    <path id="Trazado_1669" data-name="Trazado 1669" d="M142.047,202.24h-5.337c-.283,0-.519.419-.529.934s.215.934.5.934h5.338c.283,0,.519-.419.528-.934s-.216-.934-.5-.934" transform="translate(-20.086 -29.829)" fill="#2e3433"/>
    <path id="Trazado_1670" data-name="Trazado 1670" d="M158.574,202.24H145.918c-.283,0-.52.419-.529.934s.216.934.5.934h12.654c.284,0,.52-.419.529-.934s-.215-.934-.5-.934" transform="translate(-21.443 -29.829)" fill="#2e3433"/>
    <path id="Trazado_1671" data-name="Trazado 1671" d="M167.794,202.24h-5.018c-.285,0-.521.419-.529.934s.216.934.5.934h5.018c.285,0,.521-.419.53-.934s-.215-.934-.5-.934" transform="translate(-23.93 -29.829)" fill="#2e3433"/>
    <path id="Trazado_1672" data-name="Trazado 1672" d="M140.975,177.448h-5.337c-.284,0-.521.418-.529.934s.215.934.5.934h5.338c.284,0,.52-.419.529-.934s-.215-.934-.5-.934" transform="translate(-19.927 -26.172)" fill="#2e3433"/>
    <path id="Trazado_1673" data-name="Trazado 1673" d="M157.5,177.448H144.845c-.283,0-.52.418-.529.934s.215.934.5.934h12.655c.283,0,.52-.419.529-.934s-.215-.934-.5-.934" transform="translate(-21.285 -26.172)" fill="#2e3433"/>
    <path id="Trazado_1674" data-name="Trazado 1674" d="M166.72,177.448H161.7c-.283,0-.521.418-.529.934s.215.934.5.934h5.018c.283,0,.52-.419.529-.934s-.215-.934-.5-.934" transform="translate(-23.772 -26.172)" fill="#2e3433"/>
    <path id="Trazado_1675" data-name="Trazado 1675" d="M185.466,164.636H169.855a.444.444,0,0,0-.442.435l-.015,1a.425.425,0,0,0,.427.434h15.61a.442.442,0,0,0,.442-.434l.015-1a.425.425,0,0,0-.426-.435" transform="translate(-24.985 -24.282)" fill="#2e3433"/>
    <path id="Trazado_1676" data-name="Trazado 1676" d="M157.708,164.636H145.052c-.283,0-.52.419-.529.934s.216.934.5.934h12.655c.284,0,.521-.417.529-.934s-.215-.934-.5-.934" transform="translate(-21.316 -24.282)" fill="#2e3433"/>
    <path id="Trazado_1677" data-name="Trazado 1677" d="M166.929,164.636H161.91c-.283,0-.52.419-.529.934s.215.934.5.934H166.9c.284,0,.521-.417.529-.934s-.214-.934-.5-.934" transform="translate(-23.802 -24.282)" fill="#2e3433"/>
    <path id="Trazado_1678" data-name="Trazado 1678" d="M205.962,174.5l-.524.555c-.175.183-.158.119-.246.158a.331.331,0,0,1-.321-.132l-3.413-5.141a2.122,2.122,0,0,0-.128-.171,1.635,1.635,0,0,0-2.268-.272,1.576,1.576,0,0,0-.113,2.246l2.124,2.493,1.061,1.246.531.622.283.332a2.967,2.967,0,0,0,.544.5,2.683,2.683,0,0,0,2.683.3,2.4,2.4,0,0,0,.927-.79l.445-.622,1.777-2.485,7.113-9.94-8.379,8.876Z" transform="translate(-29.282 -24.1)" fill="#d8143b"/>
    <path id="Trazado_1679" data-name="Trazado 1679" d="M270.854,199.015l-.524.555c-.176.184-.157.12-.246.158a.332.332,0,0,1-.321-.132l-3.413-5.141a2.017,2.017,0,0,0-.129-.171,1.633,1.633,0,0,0-2.267-.273,1.579,1.579,0,0,0-.114,2.247l2.124,2.492L267.023,200l.531.622.284.333a2.928,2.928,0,0,0,.544.5,2.677,2.677,0,0,0,2.682.3,2.4,2.4,0,0,0,.927-.79l.445-.621,1.778-2.486,7.112-9.94-8.378,8.875Z" transform="translate(-38.853 -27.716)" fill="#d8143b"/>
    <path id="Trazado_1680" data-name="Trazado 1680" d="M292.226,201.869l13.216,2.84,3.058-13.251-13.216-2.841Z" transform="translate(-43.101 -27.819)" fill="#f5b015"/>
    <path id="Trazado_1681" data-name="Trazado 1681" d="M302.574,191.3a.777.777,0,0,0-.778.759.747.747,0,0,0,.747.766.777.777,0,0,0,.778-.758.747.747,0,0,0-.747-.766" transform="translate(-44.512 -28.215)"/>
    <path id="Trazado_1682" data-name="Trazado 1682" d="M230.418,139.775l4.016,13.251,13.011-2.84-4.016-13.251Z" transform="translate(-33.984 -20.197)" fill="#f5b015"/>
    <path id="Trazado_1683" data-name="Trazado 1683" d="M238.858,139.62a.688.688,0,0,0-.691.766.849.849,0,0,0,.834.758.686.686,0,0,0,.691-.765.85.85,0,0,0-.834-.76" transform="translate(-35.127 -20.593)"/>
    <path id="Trazado_1684" data-name="Trazado 1684" d="M299.7,88.956l4.016,13.251,13.011-2.84-4.016-13.251Z" transform="translate(-44.203 -12.702)" fill="#f5b015"/>
    <path id="Trazado_1685" data-name="Trazado 1685" d="M308.141,88.8a.687.687,0,0,0-.691.766.849.849,0,0,0,.834.758.687.687,0,0,0,.691-.766.85.85,0,0,0-.834-.759" transform="translate(-45.345 -13.097)"/>
    <path id="Trazado_1686" data-name="Trazado 1686" d="M210.486,200.351l.518.761-.685.466-.5-.733a2.633,2.633,0,0,1-2.038.454l.194-1.027a1.875,1.875,0,0,0,1.357-.328l-.837-1.229-.236.121a1.964,1.964,0,0,1-1.215.231,1.528,1.528,0,0,1-.989-.708,1.741,1.741,0,0,1,.422-2.415l-.416-.611.686-.467.412.6a2.4,2.4,0,0,1,1.717-.355l-.2,1a1.637,1.637,0,0,0-1.057.243l.8,1.182.286-.136a1.994,1.994,0,0,1,1.182-.249,1.621,1.621,0,0,1,1.068.765,1.774,1.774,0,0,1-.48,2.434m-3.359-3.647a.729.729,0,0,0-.184,1,.565.565,0,0,0,.379.25.974.974,0,0,0,.578-.115Zm2.506,1.564a1,1,0,0,0-.6.152l.8,1.168c.375-.325.46-.681.234-1.014a.651.651,0,0,0-.427-.306" transform="translate(-30.345 -28.741)" fill="#d8143b"/>
    <path id="Trazado_1687" data-name="Trazado 1687" d="M204.195,189.2a.379.379,0,0,1-.173.494l-1.61,1.058a.377.377,0,0,1-.522-.037l-.621-.944a.377.377,0,0,1,.173-.494l1.609-1.058a.376.376,0,0,1,.522.037Z" transform="translate(-29.679 -27.749)" fill="#f5b015"/>
    <path id="Trazado_1688" data-name="Trazado 1688" d="M210.721,202.3a5.529,5.529,0,1,1-6.077-9.238.921.921,0,0,0-1.012-1.539,7.37,7.37,0,1,0,8.1,12.314.92.92,0,1,0-1.012-1.538" transform="translate(-29.544 -28.226)" fill="#d8143b"/>
    <rect id="Rectángulo_345" data-name="Rectángulo 345" width="1.182" height="1.139" transform="translate(183.341 165.33) rotate(-33.323)" fill="#f5b015"/>
    <path id="Trazado_1689" data-name="Trazado 1689" d="M214.862,194.7a.569.569,0,1,0,.163-.789.569.569,0,0,0-.163.789" transform="translate(-31.676 -28.586)" fill="#f5b015"/>
    <path id="Trazado_1690" data-name="Trazado 1690" d="M215.979,193.965a.569.569,0,1,0,.163-.789.568.568,0,0,0-.163.789" transform="translate(-31.841 -28.478)" fill="#f5b015"/>
    <rect id="Rectángulo_346" data-name="Rectángulo 346" width="1.183" height="1.139" transform="matrix(0.337, -0.941, 0.941, 0.337, 180.547, 163.357)" fill="#f5b015"/>
    <path id="Trazado_1691" data-name="Trazado 1691" d="M212.125,192.271a.57.57,0,1,0-.344-.728.569.569,0,0,0,.344.728" transform="translate(-31.231 -28.195)" fill="#f5b015"/>
    <path id="Trazado_1692" data-name="Trazado 1692" d="M212.575,191.013a.57.57,0,1,0-.344-.728.569.569,0,0,0,.344.728" transform="translate(-31.297 -28.009)" fill="#f5b015"/>
    <rect id="Rectángulo_347" data-name="Rectángulo 347" width="1.139" height="1.183" transform="matrix(0.998, -0.069, 0.069, 0.998, 177.008, 161.91)" fill="#f5b015"/>
    <path id="Trazado_1693" data-name="Trazado 1693" d="M208.333,191.717a.57.57,0,1,0-.608-.529.57.57,0,0,0,.608.529" transform="translate(-30.637 -28.109)" fill="#f5b015"/>
    <path id="Trazado_1694" data-name="Trazado 1694" d="M208.241,190.385a.57.57,0,1,0-.608-.529.57.57,0,0,0,.608.529" transform="translate(-30.624 -27.912)" fill="#f5b015"/>
    <rect id="Rectángulo_348" data-name="Rectángulo 348" width="1.183" height="1.139" transform="translate(184.599 168.341) rotate(-1.942)" fill="#f5b015"/>
    <path id="Trazado_1695" data-name="Trazado 1695" d="M215.9,198.053a.569.569,0,1,0,.55-.588.57.57,0,0,0-.55.588" transform="translate(-31.844 -29.124)" fill="#f5b015"/>
    <path id="Trazado_1696" data-name="Trazado 1696" d="M217.238,198.007a.569.569,0,1,0,.55-.588.569.569,0,0,0-.55.588" transform="translate(-32.041 -29.117)" fill="#f5b015"/>
    <rect id="Rectángulo_349" data-name="Rectángulo 349" width="1.139" height="1.183" transform="translate(183.415 172.642) rotate(-64.063)" fill="#f5b015"/>
    <path id="Trazado_1697" data-name="Trazado 1697" d="M214.839,201.566a.57.57,0,1,0,.761-.263.57.57,0,0,0-.761.263" transform="translate(-31.678 -29.682)" fill="#f5b015"/>
    <path id="Trazado_1698" data-name="Trazado 1698" d="M216.041,202.15a.57.57,0,1,0,.761-.263.57.57,0,0,0-.761.263" transform="translate(-31.856 -29.768)" fill="#f5b015"/>
    <path id="Trazado_1699" data-name="Trazado 1699" d="M273.427,150.192l-.212.9-.807-.191.2-.864a2.635,2.635,0,0,1-1.71-1.2l.89-.55a1.876,1.876,0,0,0,1.159.781l.342-1.448-.248-.093a1.959,1.959,0,0,1-.99-.741,1.522,1.522,0,0,1-.145-1.208,1.74,1.74,0,0,1,2.067-1.317l.171-.72.808.191-.169.712a2.4,2.4,0,0,1,1.42,1.028l-.869.53a1.637,1.637,0,0,0-.893-.617l-.329,1.391.292.12a2,2,0,0,1,.982.705,1.62,1.62,0,0,1,.156,1.3,1.774,1.774,0,0,1-2.12,1.288m.425-4.94a.729.729,0,0,0-.862.54.566.566,0,0,0,.071.448.975.975,0,0,0,.475.349Zm.537,2.905a.989.989,0,0,0-.518-.342l-.326,1.375c.493.058.814-.12.906-.512a.649.649,0,0,0-.062-.522" transform="translate(-39.956 -21.171)" fill="#d8143b"/>
    <path id="Trazado_1700" data-name="Trazado 1700" d="M277.74,138.09a.378.378,0,0,1-.482.205l-1.866-.473a.377.377,0,0,1-.325-.41l.277-1.1a.378.378,0,0,1,.482-.205l1.866.474a.377.377,0,0,1,.326.41Z" transform="translate(-40.569 -20.073)" fill="#f5b015"/>
    <path id="Trazado_1701" data-name="Trazado 1701" d="M271.506,151.991a5.529,5.529,0,0,1,2.719-10.719.921.921,0,0,0,.453-1.785,7.371,7.371,0,1,0-3.624,14.289.921.921,0,0,0,.453-1.785" transform="translate(-39.158 -20.54)" fill="#d8143b"/>
    <rect id="Rectángulo_350" data-name="Rectángulo 350" width="1.139" height="1.183" transform="translate(239.985 128.251) rotate(-75.774)" fill="#f5b015"/>
    <path id="Trazado_1702" data-name="Trazado 1702" d="M281.03,149.555a.569.569,0,1,0,.692-.412.57.57,0,0,0-.692.412" transform="translate(-41.447 -21.995)" fill="#f5b015"/>
    <path id="Trazado_1703" data-name="Trazado 1703" d="M282.325,149.883a.569.569,0,1,0,.692-.411.571.571,0,0,0-.692.411" transform="translate(-41.638 -22.043)" fill="#f5b015"/>
    <rect id="Rectángulo_351" data-name="Rectángulo 351" width="1.183" height="1.14" transform="translate(239.837 123.753) rotate(-22.738)" fill="#f5b015"/>
    <path id="Trazado_1704" data-name="Trazado 1704" d="M280.975,145.9a.569.569,0,1,0,.305-.745.569.569,0,0,0-.305.745" transform="translate(-41.435 -21.402)" fill="#f5b015"/>
    <path id="Trazado_1705" data-name="Trazado 1705" d="M282.207,145.379a.569.569,0,1,0,.305-.745.569.569,0,0,0-.305.745" transform="translate(-41.616 -21.326)" fill="#f5b015"/>
    <rect id="Rectángulo_352" data-name="Rectángulo 352" width="1.182" height="1.139" transform="matrix(0.69, -0.724, 0.724, 0.69, 237.702, 121.02)" fill="#f5b015"/>
    <path id="Trazado_1706" data-name="Trazado 1706" d="M278.825,142.723a.57.57,0,1,0-.02-.806.571.571,0,0,0,.02.806" transform="translate(-41.098 -20.905)" fill="#f5b015"/>
    <path id="Trazado_1707" data-name="Trazado 1707" d="M279.746,141.756a.57.57,0,1,0-.02-.806.571.571,0,0,0,.02.806" transform="translate(-41.234 -20.763)" fill="#f5b015"/>
    <rect id="Rectángulo_353" data-name="Rectángulo 353" width="1.139" height="1.182" transform="matrix(0.715, -0.699, 0.699, 0.715, 238.078, 130.903)" fill="#f5b015"/>
    <path id="Trazado_1708" data-name="Trazado 1708" d="M279.256,152.585a.569.569,0,1,0,.806.009.57.57,0,0,0-.806-.009" transform="translate(-41.163 -22.481)" fill="#f5b015"/>
    <path id="Trazado_1709" data-name="Trazado 1709" d="M280.19,153.54a.569.569,0,1,0,.806.009.57.57,0,0,0-.806-.009" transform="translate(-41.3 -22.622)" fill="#f5b015"/>
    <rect id="Rectángulo_354" data-name="Rectángulo 354" width="1.139" height="1.183" transform="translate(234.918 132.134) rotate(-16.502)" fill="#f5b015"/>
    <path id="Trazado_1710" data-name="Trazado 1710" d="M275.945,154.171a.569.569,0,1,0,.708.384.569.569,0,0,0-.708-.384" transform="translate(-40.639 -22.735)" fill="#f5b015"/>
    <path id="Trazado_1711" data-name="Trazado 1711" d="M276.324,155.452a.569.569,0,1,0,.708.384.569.569,0,0,0-.708-.384" transform="translate(-40.695 -22.924)" fill="#f5b015"/>
    <path id="Trazado_1712" data-name="Trazado 1712" d="M287.758,54.709a4.413,4.413,0,0,0-4.094,3.623,3.334,3.334,0,0,0,.644,2.71,2.905,2.905,0,0,0,2.286,1.037,4.412,4.412,0,0,0,4.1-3.624,3.331,3.331,0,0,0-.644-2.708,2.914,2.914,0,0,0-2.288-1.038" transform="translate(-41.829 -8.069)" fill="#2e3433"/>
    <path id="Trazado_1713" data-name="Trazado 1713" d="M300.54,54.709a4.412,4.412,0,0,0-4.095,3.624,3.326,3.326,0,0,0,.644,2.709,2.908,2.908,0,0,0,2.287,1.037,4.408,4.408,0,0,0,4.093-3.623,3.322,3.322,0,0,0-.642-2.709,2.91,2.91,0,0,0-2.287-1.038" transform="translate(-43.714 -8.069)" fill="#2e3433"/>
    <path id="Trazado_1714" data-name="Trazado 1714" d="M306.524,45.692c-.026-.242-.067-.469-.1-.706a11.99,11.99,0,0,0-.45-1.309,12.728,12.728,0,0,0-1.357-2.5c-.038-.053-.084-.1-.123-.153-.2-.263-.4-.522-.623-.772l-.006-.007c-.2-.225-.413-.443-.633-.657-.089-.086-.183-.168-.275-.251q-.256-.233-.532-.455c-.091-.074-.182-.149-.277-.221-.279-.212-.567-.419-.873-.615-.206-.129-.412-.237-.618-.35v0A12.786,12.786,0,0,0,284.422,41a11.96,11.96,0,0,0-.577,13.651,5.575,5.575,0,0,0,2.161,2.284,1.925,1.925,0,0,0,2.231-.552c.72-.956.152-1.837-.6-2.793a7.94,7.94,0,0,1-1.392-2.724,8.692,8.692,0,0,1,5.427-10.442,8.855,8.855,0,0,1,6.627.238l0,0a8.16,8.16,0,0,1,1.894,1.165,7.284,7.284,0,0,1,.642.594c.037.038.073.077.108.115.165.177.32.367.469.562.047.063.1.125.142.19a7.2,7.2,0,0,1,.385.612c.037.066.078.127.113.194a7.649,7.649,0,0,1,.4.884,9.627,9.627,0,0,1-.227,4.929H306.2a12.128,12.128,0,0,0,.325-4.223" transform="translate(-41.589 -5.322)" fill="#fff"/>
    <path id="Trazado_1715" data-name="Trazado 1715" d="M306.524,45.692c-.026-.242-.067-.469-.1-.706a11.99,11.99,0,0,0-.45-1.309,12.728,12.728,0,0,0-1.357-2.5c-.038-.053-.084-.1-.123-.153-.2-.263-.4-.522-.623-.772l-.006-.007c-.2-.225-.413-.443-.633-.657-.089-.086-.183-.168-.275-.251q-.256-.233-.532-.455c-.091-.074-.182-.149-.277-.221-.279-.212-.567-.419-.873-.615-.206-.129-.412-.237-.618-.35v0A12.786,12.786,0,0,0,284.422,41a11.96,11.96,0,0,0-.577,13.651,5.575,5.575,0,0,0,2.161,2.284,1.925,1.925,0,0,0,2.231-.552c.72-.956.152-1.837-.6-2.793a7.94,7.94,0,0,1-1.392-2.724,8.692,8.692,0,0,1,5.427-10.442,8.855,8.855,0,0,1,6.627.238l0,0a8.16,8.16,0,0,1,1.894,1.165,7.284,7.284,0,0,1,.642.594c.037.038.073.077.108.115.165.177.32.367.469.562.047.063.1.125.142.19a7.2,7.2,0,0,1,.385.612c.037.066.078.127.113.194a7.649,7.649,0,0,1,.4.884,9.627,9.627,0,0,1-.227,4.929H306.2A12.128,12.128,0,0,0,306.524,45.692Z" transform="translate(-41.589 -5.322)" fill="none" stroke="#2e3433" stroke-miterlimit="10" stroke-width="1"/>
    <path id="Trazado_1716" data-name="Trazado 1716" d="M319.083,44.986h.045a11.8,11.8,0,0,0-5.151-6.945A12.774,12.774,0,0,0,297.131,41a11.96,11.96,0,0,0-.578,13.652,5.574,5.574,0,0,0,2.159,2.283,1.923,1.923,0,0,0,2.232-.552c.72-.955.153-1.836-.6-2.792a7.947,7.947,0,0,1-1.394-2.724,8.235,8.235,0,0,1,.783-6.466,7.672,7.672,0,0,0,.651-.824,7.85,7.85,0,0,1,1.679-1.747,6.3,6.3,0,0,1,.526-.371,8.342,8.342,0,0,1,3.147-1.221,8.944,8.944,0,0,1,8.416,3.42,8.85,8.85,0,0,1,1.7,6.253h3.765a12.185,12.185,0,0,0-.533-4.927" transform="translate(-43.463 -5.32)" fill="#fff"/>
    <path id="Trazado_1717" data-name="Trazado 1717" d="M319.083,44.986h.045a11.8,11.8,0,0,0-5.151-6.945A12.774,12.774,0,0,0,297.131,41a11.96,11.96,0,0,0-.578,13.652,5.574,5.574,0,0,0,2.159,2.283,1.923,1.923,0,0,0,2.232-.552c.72-.955.153-1.836-.6-2.792a7.947,7.947,0,0,1-1.394-2.724,8.235,8.235,0,0,1,.783-6.466,7.672,7.672,0,0,0,.651-.824,7.85,7.85,0,0,1,1.679-1.747,6.3,6.3,0,0,1,.526-.371,8.342,8.342,0,0,1,3.147-1.221,8.944,8.944,0,0,1,8.416,3.42,8.85,8.85,0,0,1,1.7,6.253h3.765A12.185,12.185,0,0,0,319.083,44.986Z" transform="translate(-43.463 -5.32)" fill="none" stroke="#2e3433" stroke-miterlimit="10" stroke-width="1"/>
    <path id="Trazado_1718" data-name="Trazado 1718" d="M130.6,54.709a4.409,4.409,0,0,0-4.093,3.623,3.33,3.33,0,0,0,.642,2.71,2.908,2.908,0,0,0,2.288,1.037,4.411,4.411,0,0,0,4.094-3.624,3.325,3.325,0,0,0-.644-2.708,2.911,2.911,0,0,0-2.287-1.038" transform="translate(-18.65 -8.069)" fill="#2e3433"/>
    <path id="Trazado_1719" data-name="Trazado 1719" d="M143.378,54.709a4.414,4.414,0,0,0-4.1,3.624,3.326,3.326,0,0,0,.645,2.709,2.908,2.908,0,0,0,2.287,1.037,4.408,4.408,0,0,0,4.093-3.623,3.325,3.325,0,0,0-.641-2.709,2.914,2.914,0,0,0-2.288-1.038" transform="translate(-20.534 -8.069)" fill="#2e3433"/>
    <path id="Trazado_1720" data-name="Trazado 1720" d="M149.359,45.692c-.02-.241-.067-.467-.1-.7h0a11.805,11.805,0,0,0-2.539-4.723c-.007-.008-.012-.016-.019-.023-.2-.229-.42-.452-.647-.668-.081-.078-.167-.153-.251-.23q-.258-.234-.535-.459c-.1-.079-.2-.159-.3-.237-.266-.2-.541-.4-.832-.585l-.028-.02c-.013-.009-.027-.014-.042-.023-.188-.118-.38-.222-.573-.328l0,0A12.783,12.783,0,0,0,127.261,41a11.959,11.959,0,0,0-.577,13.651,5.557,5.557,0,0,0,2.16,2.284,1.923,1.923,0,0,0,2.23-.552c.72-.956.153-1.837-.6-2.793a7.913,7.913,0,0,1-1.393-2.724,8.693,8.693,0,0,1,5.427-10.442,8.858,8.858,0,0,1,6.629.239l0,0a8.111,8.111,0,0,1,1.894,1.164l0,0a7.718,7.718,0,0,1,.62.574c.049.052.1.1.147.157.148.161.287.332.423.507.061.08.124.159.182.242.119.169.227.349.333.53.054.091.111.179.161.275a7.478,7.478,0,0,1,.346.763c.014.037.033.068.047.1a9.608,9.608,0,0,1-.227,4.927h3.971a11.858,11.858,0,0,0,.325-4.223" transform="translate(-18.409 -5.322)" fill="#fff"/>
    <path id="Trazado_1721" data-name="Trazado 1721" d="M149.359,45.692c-.02-.241-.067-.467-.1-.7h0a11.805,11.805,0,0,0-2.539-4.723c-.007-.008-.012-.016-.019-.023-.2-.229-.42-.452-.647-.668-.081-.078-.167-.153-.251-.23q-.258-.234-.535-.459c-.1-.079-.2-.159-.3-.237-.266-.2-.541-.4-.832-.585l-.028-.02c-.013-.009-.027-.014-.042-.023-.188-.118-.38-.222-.573-.328l0,0A12.783,12.783,0,0,0,127.261,41a11.959,11.959,0,0,0-.577,13.651,5.557,5.557,0,0,0,2.16,2.284,1.923,1.923,0,0,0,2.23-.552c.72-.956.153-1.837-.6-2.793a7.913,7.913,0,0,1-1.393-2.724,8.693,8.693,0,0,1,5.427-10.442,8.858,8.858,0,0,1,6.629.239l0,0a8.111,8.111,0,0,1,1.894,1.164l0,0a7.718,7.718,0,0,1,.62.574c.049.052.1.1.147.157.148.161.287.332.423.507.061.08.124.159.182.242.119.169.227.349.333.53.054.091.111.179.161.275a7.478,7.478,0,0,1,.346.763c.014.037.033.068.047.1a9.608,9.608,0,0,1-.227,4.927h3.971A11.858,11.858,0,0,0,149.359,45.692Z" transform="translate(-18.409 -5.322)" fill="none" stroke="#2e3433" stroke-miterlimit="10" stroke-width="1"/>
    <path id="Trazado_1722" data-name="Trazado 1722" d="M161.924,44.986h.043a11.809,11.809,0,0,0-5.152-6.945A12.774,12.774,0,0,0,139.969,41a11.96,11.96,0,0,0-.577,13.652,5.565,5.565,0,0,0,2.16,2.283,1.922,1.922,0,0,0,2.231-.552c.72-.955.153-1.836-.6-2.792a7.961,7.961,0,0,1-1.394-2.724,8.244,8.244,0,0,1,.789-6.475,7.6,7.6,0,0,0,.645-.816,7.653,7.653,0,0,1,1.684-1.747,6.148,6.148,0,0,1,.525-.371,8.345,8.345,0,0,1,3.147-1.221,8.8,8.8,0,0,1,10.116,9.673h3.765a12.2,12.2,0,0,0-.533-4.927" transform="translate(-20.283 -5.32)" fill="#fff"/>
    <path id="Trazado_1723" data-name="Trazado 1723" d="M161.924,44.986h.043a11.809,11.809,0,0,0-5.152-6.945A12.774,12.774,0,0,0,139.969,41a11.96,11.96,0,0,0-.577,13.652,5.565,5.565,0,0,0,2.16,2.283,1.922,1.922,0,0,0,2.231-.552c.72-.955.153-1.836-.6-2.792a7.961,7.961,0,0,1-1.394-2.724,8.244,8.244,0,0,1,.789-6.475,7.6,7.6,0,0,0,.645-.816,7.653,7.653,0,0,1,1.684-1.747,6.148,6.148,0,0,1,.525-.371,8.345,8.345,0,0,1,3.147-1.221,8.8,8.8,0,0,1,10.116,9.673h3.765A12.2,12.2,0,0,0,161.924,44.986Z" transform="translate(-20.283 -5.32)" fill="none" stroke="#2e3433" stroke-miterlimit="10" stroke-width="1"/>
    <path id="Trazado_1724" data-name="Trazado 1724" d="M140.416,102.235s-38.926,13.077-33.629,57.954-2.332,99.56-2.332,99.56h22.19s39.527-53.289,10.4-93.216,3.372-64.3,3.372-64.3" transform="translate(-15.406 -15.079)" fill="#f5b015"/>
    <path id="Trazado_1725" data-name="Trazado 1725" d="M103.777,259.382c.076-.546,7.556-55.128,2.329-99.415-5.29-44.819,33.62-58.43,34.014-58.561l3.358-1.129-2.834,2.126c-.321.24-31.717,24.484-3.252,63.505,29.037,39.806-10.005,93.357-10.4,93.893l-.171.23H103.686Zm32.694-92.8c-24.065-32.992-6.2-55.74.917-62.784-9.032,4.271-34.442,19.656-30.149,56.035,4.935,41.813-1.414,92.736-2.246,99.057h21.247c2.756-3.858,37.813-54.5,10.23-92.309" transform="translate(-15.293 -14.79)" fill="#131313"/>
    <path id="Trazado_1726" data-name="Trazado 1726" d="M137.333,105.515c-7.083,5.847-27.689,27.1-5.484,62.269,26.383,41.791-16.627,92.31-16.627,92.31l-10.652-.719c-.069.544-.114.859-.114.859h22.19s39.527-53.289,10.4-93.216c-23.374-32.046-7.067-54.057.288-61.5" transform="translate(-15.406 -15.562)" fill="#131313"/>
    <path id="Trazado_1727" data-name="Trazado 1727" d="M100.424,227.782c2.078-39.826.471-44.8-15.011-57.953s-37.3-34.773-37.3-34.773c14.862,29.423,14.563,42.8,17.357,64.442,2.171,16.791,27.4,50.307,38.6,64.5-2.483-5.754-4.687-16.443-3.651-36.215" transform="translate(-7.097 -19.919)" fill="#f5b015"/>
    <path id="Trazado_1728" data-name="Trazado 1728" d="M103.266,263.853c-10.91-13.817-36.522-47.786-38.72-64.78-.387-3-.714-5.841-1.032-8.587C61.553,173.5,60,160.075,47.246,134.816l-1.583-3.134,2.494,2.471c.218.216,21.978,21.756,37.266,34.743,15.849,13.463,17.271,18.923,15.21,58.418-1.066,20.342,1.373,30.783,3.605,35.959Zm-3.773-36.6c2.034-38.984.65-44.357-14.81-57.488C72.378,159.313,55.9,143.34,49.776,137.345c11.465,23.5,12.977,36.6,14.871,53.011.316,2.742.644,5.577,1.031,8.571,2.025,15.66,24.517,46.293,36.27,61.4-2.377-7.717-3.2-18.811-2.455-33.068" transform="translate(-6.735 -19.422)" fill="#131313"/>
    <path id="Trazado_1729" data-name="Trazado 1729" d="M100.283,219.827c-7.728,33.084,8.7,55.318,8.7,55.318h16.2c-.055-11.4.762-22.339,6.131-33.4a12.263,12.263,0,0,1,.986-1.642c-2.283-1.069-4.823-2.151-7.652-3.237-29.917-11.493-16.644-50.127-24.37-17.04" transform="translate(-14.486 -30.49)" fill="#131313"/>
    <path id="Trazado_1730" data-name="Trazado 1730" d="M140.94,235.187c-15.772,9.535-8.349,44.739-8.349,44.739l15.418-.246s-3.576-11.374,5.942-24.809,16.8-9.11,16.8-9.11-14.034-20.107-29.807-10.574" transform="translate(-19.298 -34.31)" fill="#131313"/>
    <path id="Trazado_1731" data-name="Trazado 1731" d="M49.965,207.878c-27.612,0-43.055,16.64-43.055,16.64s10.748-5.463,29.978-4.753,17.832,17.04,33.287,32.294,28.332,17.435,28.332,17.435-20.469-29.6-35.464-49.729c-2.641-3.545-.07-11.887-13.077-11.887" transform="translate(-1.019 -30.66)" fill="#131313"/>
    <path id="Trazado_1732" data-name="Trazado 1732" d="M14.878,233.313a2.4,2.4,0,0,0-.139.459s.043-.165.139-.459" transform="translate(-2.174 -34.411)" fill="#faf9fc"/>
    <path id="Trazado_1733" data-name="Trazado 1733" d="M71.428,225.23c-5.153-6.935.2-23.973-32.692-20.012-30.041,3.62-37.1,21.442-38.1,24.5C1.394,227.747,6.2,219.7,35.17,213.145c33.285-7.529,15.653,9.706,30.711,20.605s27.341,31.3,27.341,31.3,8.52,14.265,6.537,2.376-23.181-35.267-28.331-42.2" transform="translate(-0.094 -30.181)" fill="#f5b015"/>
    <path id="Trazado_1734" data-name="Trazado 1734" d="M92.64,265.25c-.122-.2-12.4-20.43-27.187-31.135-5.87-4.249-6.941-9.511-7.8-13.738-.659-3.237-1.18-5.794-3.453-7.262-2.977-1.926-9.014-1.77-19,.488-29.078,6.576-33.53,14.671-34.127,16.227L0,229.448c1.147-3.519,8.4-21.259,38.574-24.893,25.715-3.1,28.538,6.563,30.8,14.328a19.044,19.044,0,0,0,2.415,5.91c1.061,1.428,2.864,3.627,4.951,6.173,8.187,9.987,21.889,26.7,23.484,36.273.56,3.358.364,4.951-.656,5.326a1.006,1.006,0,0,1-.357.061c-1.876,0-4.884-4.544-6.575-7.375M70.877,225.471a19.739,19.739,0,0,1-2.594-6.269c-2.257-7.733-4.814-16.5-29.572-13.516-22.444,2.7-31.878,13.293-35.593,19.7,3.966-3.56,12.69-8.565,31.833-12.893,10.443-2.364,16.569-2.467,19.868-.335,2.675,1.729,3.266,4.632,3.951,7.993.864,4.243,1.845,9.054,7.353,13.041,14.978,10.84,27.372,31.267,27.5,31.473,2.254,3.774,4.9,6.968,5.552,6.834.006,0,.538-.436-.068-4.072-1.546-9.268-15.127-25.837-23.242-35.736-2.182-2.661-3.906-4.766-4.984-6.216" transform="translate(0 -30.082)" fill="#131313"/>
    <path id="Trazado_1735" data-name="Trazado 1735" d="M187.265,246.034c-17.324-29.489-35.331-26.126-46.9-18.517-16.411,10.8-10.6,50.273-10.6,50.273l2.52.605s-.184-7.732.127-21.07,5.36-32.615,28.273-8.094,52.9,26.98,52.9,26.98-8.995-.688-26.321-30.179" transform="translate(-18.992 -32.78)" fill="#f5b015"/>
    <path id="Trazado_1736" data-name="Trazado 1736" d="M213.426,276.68c-.651-.057-30.6-2.9-53.265-27.158-8.594-9.2-15.317-12.956-19.99-11.18-6.24,2.377-7.182,14.007-7.3,18.9-.307,13.169-.129,20.967-.126,21.043l.017.742-3.616-.869-.056-.382c-.24-1.626-5.67-39.958,10.854-50.833,7.3-4.8,14.606-6.394,21.724-4.735,9.388,2.187,18.129,10.072,25.98,23.44,16.813,28.615,25.761,29.886,25.873,29.9h0l-.09,1.138-.011,0m-72.851-48.786c-15.07,9.916-10.937,45.259-10.4,49.333l1.424.342c-.036-2.242-.113-9.47.141-20.356.12-5.12,1.143-17.313,8.031-19.938,5.147-1.957,12.289,1.9,21.231,11.468,17.67,18.909,39.819,24.634,48.644,26.231-4.223-2.756-11.93-9.957-22.972-28.752-7.688-13.086-16.185-20.792-25.256-22.906a22.9,22.9,0,0,0-6.957-.538,29.314,29.314,0,0,0-13.88,5.116" transform="translate(-18.886 -32.68)" fill="#131313"/>
    <path id="Trazado_1737" data-name="Trazado 1737" d="M148.947,204.541c-4.731-3.471-9.534-2.877-13.243-1.332a15.85,15.85,0,0,1-14.291-1.307c-15.834-9.583-17.047,3.59-17.047,3.59l.429,3.567a.179.179,0,0,1,.023.118c1.142,6.609,4.852,20.352,20.733,26.463,2.829,1.092,27.745,11.887,27.745,11.887-3.376-13.671,5.351-35.853-4.349-42.987" transform="translate(-15.393 -29.264)" fill="#f5b015"/>
    <path id="Trazado_1738" data-name="Trazado 1738" d="M152.971,247.952c-.249-.108-24.938-10.8-27.724-11.879-11.505-4.427-18.793-13.707-21.078-26.835l-.475-3.837.006-.061c.019-.2.493-4.9,4.3-6.819,3.255-1.645,7.833-.7,13.607,2.794a15.372,15.372,0,0,0,13.777,1.268c4.964-2.067,9.735-1.585,13.8,1.4v0c6.089,4.477,5.258,14.236,4.379,24.568-.56,6.578-1.138,13.379.186,18.742l.276,1.118ZM148.51,204.9c-3.778-2.773-8.047-3.2-12.685-1.265a16.518,16.518,0,0,1-14.806-1.345c-5.413-3.275-9.616-4.2-12.5-2.756-3.043,1.531-3.618,5.352-3.681,5.856l.409,3.4a.388.388,0,0,1,.031.186c2.2,12.745,9.246,21.746,20.376,26.028,2.513.97,21.962,9.384,26.742,11.453-1.049-5.341-.5-11.774.029-18.008.851-10,1.655-19.453-3.919-23.552Z" transform="translate(-15.294 -29.164)" fill="#131313"/>
  </g>
</svg>
