<svg xmlns="http://www.w3.org/2000/svg" xmlns:xlink="http://www.w3.org/1999/xlink" width="360.567" height="327.533" viewBox="0 0 360.567 327.533">
  <defs>
    <clipPath id="clip-path">
      <rect id="Rectángulo_145" data-name="Rectángulo 145" width="360.567" height="327.533" transform="translate(0 -23)" fill="none"/>
    </clipPath>
    <clipPath id="clip-path-2">
      <rect id="Rectángulo_151" data-name="Rectángulo 151" width="299.899" height="270.988" fill="none"/>
    </clipPath>
  </defs>
  <g id="Grupo_588" data-name="Grupo 588" transform="translate(0 23)">
    <g id="Grupo_265" data-name="Grupo 265" transform="translate(0 0)">
      <g id="Grupo_264" data-name="Grupo 264" clip-path="url(#clip-path)">
        <path id="Trazado_604" data-name="Trazado 604" d="M269.064,43.661c-45.108-19.233-71.418,30.76-157.109,9.11C20.109,29.564-8.958,164.473,69.375,228.209c77.966,63.439,141.773,52.954,199.506-11.493,43.411-48.46,67.215-144.472.183-173.055" transform="translate(-3.745 -6.093)" fill="#fff"/>
        <path id="Trazado_605" data-name="Trazado 605" d="M304.919,260.861a9.71,9.71,0,0,0-1.282.457c.455-.264.9-.531,1.339-.795-.008.077-.04.193-.057.338" transform="translate(-47.24 -40.533)" fill="#96999e"/>
        <path id="Trazado_606" data-name="Trazado 606" d="M284.585,204.24c2.684,3.492,4.673,12.012,10.593,22.451a12.01,12.01,0,0,0,4.2,4.632c-5.5-2.266-12.756-2.246-15.366-2.1s-8.468-1.024-11.522-1.682c3.746,1.437,4.057,5.843,14.132,10.165,5.4,2.31,9.669,1.886,12.692.755l-.736.586a93.577,93.577,0,0,0-10.67,5.617c-7.074,4.308-15.157,2.632-15.157,2.632,7.7,2.758,1.978,1.962,11.987,3.256,8.529,1.107,14.781-11.341,14.781-11.341.209-.145.372-.269.494-.361-.339,2.153-1.163,8.008-.565,12.511.735,5.628,2.9,10.3,4.818,12.279,1.832,1.9,5.58,2.224,5.94,2.242-.3-.164-4.71-2.562-4.8-4.95-.088-2.483.956-4.766-.936-11.4s-3.738-11.446-3.738-11.446l-.376-.054a13.97,13.97,0,0,0,3.427-2.234,133.67,133.67,0,0,0,13.6-10.662c-.991,3.41,4.331,14.066,6.87,16.011,19.368,14.841,30.4,5,30.4,5,.6-.627-2.661-.377-5.013-.418s-7.156-4.572-7.156-4.572c-7.017-10.5-10.51-10.76-10.51-10.76s-6.63-3.422-10.7-4.314a5.844,5.844,0,0,1-3-1.739c2.344-2.1,4.648-4.3,6.913-6.55.81,1.707,2.251,6.465,4.913,7.374,14.862,5.031,24.41-7.516,24.41-7.516s-4.071,2.814-11.313,1.574c-5.963-1.01-13.371-2.725-16.795-2.637,2.537-2.562,5.027-5.208,7.447-7.886.983,1.172,6.279,6.959,13.995,7.379,3.961.214,14.054-.608,19.014-5.41,0,0-29.472-3.856-32.033-2.97a.537.537,0,0,0-.051-.025c2.76-3.081,5.43-6.213,7.986-9.331,1.316,1.029,29.234,15.509,43.2,3.649,0,0-6.644.06-11.715-2.118s-8.389-6.253-15.319-6.052c-5.265.159-12.1,2.212-15.077,3.19,2.717-3.335,5.294-6.653,7.721-9.875,2.6,1.3,18.617,8.241,38.23-5.009,2.242-1.524,5.263-4.066,4.408-3.693-7.083,3.1-8.373,2.222-11.275,2.041-18.865-1.124-24.405,1.587-30.681,5.762,2.336-3.123,4.522-6.148,6.538-9,9.535.608,12.833-.673,17.877-1.686,5.162-1.05,15.167-7.075,15.167-7.075s6.622-3.69,8.474-6.8c1.578-2.677-4.122,4.982-15.949,4.9-9.521-.075-21.114,7.17-24.914,9.729,2.358-3.379,4.479-6.526,6.309-9.314,1.513.673,9.762,3.321,27.4-9.3,13.167-9.436,7.108-5.788,7.108-5.788a24.957,24.957,0,0,1-7.011,2.513c-4.688,1.078-14.966,1.5-26.978,11.787,2.191-3.362,3.948-6.192,5.181-8.257,1.214.138,5.975-1.308,9.258-2.588a36.463,36.463,0,0,0,7.914-4.406c5.709-4.1,15.189-11.461,14.261-10.911-2.852,1.713-11.034,3.781-19.591,8.891-7.061,4.213-9.991,6.684-11.2,7.938a23.906,23.906,0,0,0,1.5-2.74c-4.406,7.01-8.748,13.482-12.986,19.471.142-.236.269-.473.269-.473a108.961,108.961,0,0,0,5.848-21.347c1.674-10.985,2.613-18.571,2.483-26.562s-.733-8.47-.733-8.47-1.034,14.152-2.322,18.718c-1.293,4.584-3.642,12.112-4.022,16.4s-1.087,19.93-1.7,21.557c-.2.537-.211.671-.147.63q-3.18,4.49-6.278,8.608c.076-.234.117-.419.117-.419s6.967-17.113,6.922-36.06-.108-25.342-.347-25.175c-.25.271-2.027,14.552-3.474,21.72-.7,3.444-1.327,6.351-1.865,8.833.361-11.357-1.259-13.311-1.259-13.311s-.329,16.807-6.191,29.4c-4.079,8.764-2.065,24.774-2.065,24.774l.013.686q-4.111,5.061-7.948,9.45c.447-.942,1.338-3.044,3.1-7.485,4.226-10.708,4.242-20.357,2.948-33.054s-4.729-15.516-4.558-14.62.63,11.574.666,13-2.158,12-3.08,19.686.544,22.847.544,22.847l-.02.078c-2.879,3.278-5.637,6.3-8.231,9.018a53.079,53.079,0,0,0,2.629-32.042c-1.336-5.888-5.686-23.714-6.255-26.274.211,1.457.783,8.209-1,26.342-1.927,19.655,3.054,30.809,3.975,32.652-2.391,2.5-4.652,4.757-6.752,6.8.73-.978,2.1-4.377-.016-15.443,0,0-3.316-14.1-22.211-13.8a18.267,18.267,0,0,1,8.721,11.267c2.08,8.009,8.679,15.844,13.132,18.327-1.768.7-16.991,14.5-16.991,14.5l-.3.246a11.416,11.416,0,0,0-3.452-2.636c4.586,1.588,8.834-1.973,8.834-1.973-1.6-1.049-1.284-8.332-4.176-10.238s-8.225-3.908-10.125-5.312-10.34-10.932-10.836-11.608.121,1.4.121,1.4m61.461-11.359a102.532,102.532,0,0,0,6.889-20.952c.066,2.714.227,6.212.5,10.772a2.428,2.428,0,0,0,.087.605q-3.807,5.058-7.473,9.574M300.13,238.153c-.008.077-.04.193-.058.338a9.84,9.84,0,0,0-1.281.456c.454-.263.9-.53,1.339-.794" transform="translate(-42.394 -18.162)" fill="#96999e"/>
        <path id="Trazado_607" data-name="Trazado 607" d="M192.468,109.888a4.572,4.572,0,0,1,.767-9.112" transform="translate(-29.293 -15.676)" fill="#fff"/>
        <path id="Trazado_608" data-name="Trazado 608" d="M192.468,109.888a4.572,4.572,0,0,1,.767-9.112" transform="translate(-29.293 -15.676)" fill="none" stroke="#2e3433" stroke-linecap="round" stroke-linejoin="round" stroke-width="1"/>
        <rect id="Rectángulo_144" data-name="Rectángulo 144" width="293.429" height="2.052" transform="translate(10.814 269.863)" fill="#131313"/>
        <path id="Trazado_609" data-name="Trazado 609" d="M269.432,32.967l-.152.014,1.255,12.434,9.946-7.149-.338-.546a11.844,11.844,0,0,0-10.711-4.753" transform="translate(-41.895 -5.12)" fill="#f5b015"/>
        <path id="Trazado_610" data-name="Trazado 610" d="M6.695,164.67a3.347,3.347,0,1,1-3.348-3.347,3.348,3.348,0,0,1,3.348,3.347" transform="translate(0 -25.099)" fill="#f5b015"/>
        <path id="Trazado_611" data-name="Trazado 611" d="M44.789,194.732a2.293,2.293,0,1,1-2.293-2.293,2.293,2.293,0,0,1,2.293,2.293" transform="translate(-6.255 -29.94)" fill="#f5b015"/>
        <path id="Trazado_612" data-name="Trazado 612" d="M168.666,37.084a3.347,3.347,0,1,1-3.347-3.347,3.348,3.348,0,0,1,3.347,3.347" transform="translate(-25.2 -5.249)" fill="#f5b015"/>
        <path id="Trazado_613" data-name="Trazado 613" d="M315.665,74.194a2.205,2.205,0,1,1-2.206-2.2,2.2,2.2,0,0,1,2.206,2.2" transform="translate(-48.426 -11.2)" fill="#f5b015"/>
        <path id="Trazado_614" data-name="Trazado 614" d="M371.491,11.239c-2.815,1.381-3.14,8.5-3.192,11.635a11.861,11.861,0,0,0,2.318,6.765c1.991,2.912,6.906,5.825,8.985,6.768,1.989.9,2.381-1.121,3.84-2.744a11.049,11.049,0,0,0,2.441-5.97c.572-4.22-.475-8.99-3.886-11.537-2.511-1.876-7.691-6.3-10.506-4.916" transform="translate(-57.3 -1.708)" fill="#96999e"/>
        <path id="Trazado_615" data-name="Trazado 615" d="M380.421,36.953a2.569,2.569,0,0,1-1.056-.258c-2.092-.949-7.083-3.885-9.148-6.9A12.236,12.236,0,0,1,367.83,22.8c.117-6.9,1.265-10.93,3.414-11.984,2.721-1.332,7.1,2.028,10,4.256.333.256.64.492.916.7,3.786,2.828,4.57,8.005,4.041,11.908a11.335,11.335,0,0,1-2.539,6.181,11.646,11.646,0,0,0-.975,1.305c-.6.885-1.211,1.794-2.267,1.794M372.651,11.3a2.373,2.373,0,0,0-1.06.226c-1.808.887-2.863,4.894-2.971,11.286a11.451,11.451,0,0,0,2.25,6.534c1.951,2.853,6.875,5.748,8.822,6.63,1.1.5,1.51-.026,2.34-1.257a12.48,12.48,0,0,1,1.043-1.392,10.565,10.565,0,0,0,2.343-5.758c.5-3.679-.22-8.546-3.731-11.167-.278-.208-.589-.446-.925-.7-2.218-1.7-5.723-4.4-8.111-4.4" transform="translate(-57.227 -1.635)" fill="#2e3433"/>
        <path id="Trazado_616" data-name="Trazado 616" d="M403.307,52.071a13.607,13.607,0,0,0-3.574-.272,12.749,12.749,0,0,0-8.279,4.561,37.854,37.854,0,0,0-5.09,8.212l.013,1.865A22.811,22.811,0,0,0,400.81,69a9.9,9.9,0,0,0,3.129-.929c2.385-1.261,3.7-3.867,4.728-6.362.708-1.713,4.265-4.893,3.726-6.668-.765-2.521-6.5-2.481-9.086-2.975" transform="translate(-60.111 -8.055)" fill="#96999e"/>
        <path id="Trazado_617" data-name="Trazado 617" d="M397.3,69.591a23.13,23.13,0,0,1-11.184-2.88l-.2-.112-.015-2.192.044-.086a38.157,38.157,0,0,1,5.147-8.3,13.036,13.036,0,0,1,8.546-4.692,13.84,13.84,0,0,1,3.678.277c.56.107,1.294.191,2.071.28,2.962.338,6.649.759,7.319,2.968.4,1.327-.934,3.05-2.228,4.718a12.282,12.282,0,0,0-1.511,2.216c-1.089,2.635-2.435,5.254-4.909,6.56a10.309,10.309,0,0,1-3.254.97,22.743,22.743,0,0,1-3.5.269m-10.6-3.462a22.336,22.336,0,0,0,13.978,2.411,9.589,9.589,0,0,0,3.005-.887c2.25-1.19,3.515-3.665,4.546-6.163a12.638,12.638,0,0,1,1.618-2.4c1.061-1.367,2.38-3.068,2.1-4-.52-1.712-4.064-2.117-6.651-2.413-.793-.09-1.542-.176-2.13-.288a13.051,13.051,0,0,0-3.471-.266,12.253,12.253,0,0,0-8.012,4.429,37.138,37.138,0,0,0-4.99,8.042Z" transform="translate(-60.038 -7.982)" fill="#2e3433"/>
        <path id="Trazado_618" data-name="Trazado 618" d="M369.029,48.775c-2.8-.758-7.184-1.3-8.723,1.162-1.056,1.688.051,4.687.865,6.5,1.588,3.547,5,6.015,8.661,7.33s7.589,1.625,11.464,1.923l.628-.315a17.97,17.97,0,0,0-12.9-16.6" transform="translate(-55.99 -7.489)" fill="#96999e"/>
        <path id="Trazado_619" data-name="Trazado 619" d="M381.3,66.023l-.11-.008c-3.85-.3-7.833-.6-11.567-1.946-4.238-1.523-7.395-4.2-8.888-7.541-1.424-3.179-1.706-5.492-.84-6.876,1.842-2.945,7.023-1.915,9.162-1.334A18.406,18.406,0,0,1,382.247,65.3l0,.248ZM364.6,48.458c-1.631,0-3.247.367-4.027,1.615-.493.788-.74,2.492.891,6.133,1.386,3.1,4.459,5.691,8.433,7.12a42.94,42.94,0,0,0,11.252,1.892l.3-.153A17.212,17.212,0,0,0,364.6,48.458" transform="translate(-55.917 -7.415)" fill="#2e3433"/>
        <path id="Trazado_620" data-name="Trazado 620" d="M367.554,82.4a11.534,11.534,0,0,0-3.894-2.619A8.077,8.077,0,0,0,356.8,81a8.9,8.9,0,0,0-2.724,12.378,13.888,13.888,0,0,0,8.312,6.174,26.126,26.126,0,0,0,10.532.507l.586-1.142c.234-3.579.437-7.332-1.074-10.586a19.484,19.484,0,0,0-4.876-5.937" transform="translate(-54.884 -12.361)" fill="#96999e"/>
        <path id="Trazado_621" data-name="Trazado 621" d="M368.447,100.681a22.283,22.283,0,0,1-6.245-.817,14.3,14.3,0,0,1-8.546-6.36,9.3,9.3,0,0,1,2.85-12.9,8.46,8.46,0,0,1,7.207-1.268,11.757,11.757,0,0,1,4.033,2.7h0a19.937,19.937,0,0,1,4.969,6.064c1.591,3.423,1.336,7.33,1.11,10.777l-.043.155-.681,1.327-.207.026a35.5,35.5,0,0,1-4.448.3m-6.9-20.9a8.49,8.49,0,0,0-4.606,1.479,8.5,8.5,0,0,0-2.6,11.853,13.5,13.5,0,0,0,8.078,5.989,25.4,25.4,0,0,0,10.165.519l.453-.882c.218-3.332.451-7.1-1.043-10.311a19.3,19.3,0,0,0-4.785-5.811h0a11.145,11.145,0,0,0-3.754-2.536,6,6,0,0,0-1.912-.3" transform="translate(-54.81 -12.289)" fill="#2e3433"/>
        <path id="Trazado_622" data-name="Trazado 622" d="M398.864,91.518c-4.272-.746-8.763-.985-12.665.905s-10.826,10.068-7.878,10.911c3.345.958,13.175,4.436,16.577,3.707,2.788-.6,10.249-5.5,10.425-6.451.41-2.213-3.1-8.487-6.458-9.072" transform="translate(-58.749 -14.153)" fill="#96999e"/>
        <path id="Trazado_623" data-name="Trazado 623" d="M393.705,107.462c-3.308,0-9.145-1.827-13.172-3.087-.961-.3-1.786-.559-2.394-.734a1.292,1.292,0,0,1-.991-1.194c-.222-2.564,5.349-8.779,8.806-10.453,4.292-2.079,9.152-1.594,12.906-.939,2.043.356,3.775,2.463,4.627,3.688,1.5,2.162,2.389,4.565,2.152,5.845-.234,1.261-8.057,6.193-10.732,6.765a5.821,5.821,0,0,1-1.2.108m-.521-16.178a15.656,15.656,0,0,0-6.885,1.423c-3.3,1.6-8.537,7.655-8.363,9.672a.507.507,0,0,0,.421.5c.614.176,1.444.436,2.413.739,4.225,1.322,11.294,3.531,13.972,2.961,2.784-.6,9.813-5.362,10.125-6.156.19-1.034-.681-3.291-2.028-5.229-1.33-1.912-2.83-3.137-4.114-3.361a32.388,32.388,0,0,0-5.539-.551" transform="translate(-58.676 -14.079)" fill="#2e3433"/>
        <path id="Trazado_624" data-name="Trazado 624" d="M350.235,110.318a6.255,6.255,0,0,0-3.922,2.419c-1.479,2.232-.676,5.242.508,7.644a29.043,29.043,0,0,0,12.9,12.992l1.063-.048a31.931,31.931,0,0,0,1.984-11.721,15.438,15.438,0,0,0-.681-4.616,10.515,10.515,0,0,0-11.852-6.669" transform="translate(-53.755 -17.129)" fill="#96999e"/>
        <path id="Trazado_625" data-name="Trazado 625" d="M359.562,133.7l-.092-.046a29.369,29.369,0,0,1-13.078-13.171c-1.131-2.293-2.132-5.549-.483-8.037a6.616,6.616,0,0,1,4.166-2.586,10.931,10.931,0,0,1,12.314,6.929,16.179,16.179,0,0,1,.7,4.734,32.584,32.584,0,0,1-2.008,11.867l-.091.246Zm-7.381-23.281a8.793,8.793,0,0,0-1.934.212,5.84,5.84,0,0,0-3.679,2.252c-1.442,2.174-.506,5.143.533,7.25A28.589,28.589,0,0,0,359.733,132.9l.7-.031a31.775,31.775,0,0,0,1.868-11.33,14.688,14.688,0,0,0-.659-4.5,10.186,10.186,0,0,0-9.457-6.622" transform="translate(-53.682 -17.056)" fill="#2e3433"/>
        <path id="Trazado_626" data-name="Trazado 626" d="M381.405,122.839a17.021,17.021,0,0,0-4.253.172,14.434,14.434,0,0,0-7.4,4.641c-2.02,2.164-3.687,4.635-5.68,6.822l.356.187c1.5,3.277,5.5,4.433,9.051,5.062,4.33.766,9.284,1.143,12.633-1.706a11.942,11.942,0,0,0,3.44-5.973,7.859,7.859,0,0,0-.049-5.558c-1.374-2.792-4.99-3.486-8.1-3.647" transform="translate(-56.643 -19.103)" fill="#96999e"/>
        <path id="Trazado_627" data-name="Trazado 627" d="M378.686,140.592a31.265,31.265,0,0,1-5.395-.552c-3.467-.614-7.641-1.756-9.285-5.163l-.692-.363.345-.379c.949-1.04,1.843-2.17,2.706-3.263.944-1.192,1.919-2.426,2.979-3.562a14.684,14.684,0,0,1,7.612-4.758,17.5,17.5,0,0,1,4.353-.18c4.508.234,7.266,1.5,8.432,3.867.737,1.5.762,3.41.074,5.841a12.1,12.1,0,0,1-3.564,6.165,11.365,11.365,0,0,1-7.563,2.347m-14.1-6.3.025.014.057.123c1.447,3.167,5.442,4.248,8.762,4.837,4.009.709,9.032,1.167,12.307-1.618a11.358,11.358,0,0,0,3.315-5.779c.632-2.234.625-3.959-.024-5.275-1.027-2.088-3.565-3.209-7.762-3.427a16.9,16.9,0,0,0-4.155.166,13.93,13.93,0,0,0-7.19,4.524c-1.038,1.111-2,2.332-2.936,3.512-.768.974-1.56,1.974-2.4,2.925" transform="translate(-56.525 -19.031)" fill="#2e3433"/>
        <path id="Trazado_628" data-name="Trazado 628" d="M349.988,147.974a20.225,20.225,0,0,0-4.619-6.469,12.034,12.034,0,0,0-13.153-1.4c-2.057,1.1-3.858,3.024-4.062,5.349-.27,3.064,2.179,5.62,4.48,7.661,3.3,2.929,7.274,5.941,11.647,5.34a15.925,15.925,0,0,0,3.52-1.054l3.233-1.246.6-.355a10.353,10.353,0,0,0-.2-4.325,17.977,17.977,0,0,0-1.438-3.5" transform="translate(-51.052 -21.59)" fill="#96999e"/>
        <path id="Trazado_629" data-name="Trazado 629" d="M343.052,158.858c-3.952,0-7.5-2.628-10.754-5.519-2.438-2.163-4.892-4.8-4.611-7.992a7.526,7.526,0,0,1,4.269-5.663,12.376,12.376,0,0,1,13.6,1.445,20.53,20.53,0,0,1,4.716,6.592,18.566,18.566,0,0,1,1.468,3.582,10.812,10.812,0,0,1,.21,4.49l-.03.182-.753.449-3.295,1.276a16.23,16.23,0,0,1-3.607,1.076,8.789,8.789,0,0,1-1.21.084m-5.415-19.782a11.221,11.221,0,0,0-5.305,1.305,6.753,6.753,0,0,0-3.857,5.034c-.249,2.839,2.059,5.3,4.349,7.33,3.447,3.059,7.2,5.81,11.331,5.245a15.6,15.6,0,0,0,3.43-1.031l3.233-1.246.377-.228a10.031,10.031,0,0,0-.223-3.981,17.849,17.849,0,0,0-1.409-3.426,19.846,19.846,0,0,0-4.523-6.346,11.468,11.468,0,0,0-7.4-2.657" transform="translate(-50.979 -21.515)" fill="#2e3433"/>
        <path id="Trazado_630" data-name="Trazado 630" d="M372.926,152.787a23.246,23.246,0,0,0-17.707,6.613l1.954.024a7.131,7.131,0,0,0,3.074,6.364,18.284,18.284,0,0,0,6.818,2.771c3.2.771,6.838,1.3,9.554-.562,2.232-1.526,3.247-4.3,3.72-6.961a7.957,7.957,0,0,0-.108-4.142c-1.024-2.774-4.353-3.908-7.3-4.107" transform="translate(-55.265 -23.763)" fill="#96999e"/>
        <path id="Trazado_631" data-name="Trazado 631" d="M371.82,169.589a21.8,21.8,0,0,1-5.023-.719,18.715,18.715,0,0,1-6.962-2.838,7.692,7.692,0,0,1-3.271-6.29l-2.467-.03.669-.665a23.629,23.629,0,0,1,18.012-6.728c3.878.263,6.736,1.894,7.648,4.366a8.3,8.3,0,0,1,.127,4.349c-.613,3.444-1.92,5.873-3.886,7.216a8.388,8.388,0,0,1-4.847,1.339m-15.8-10.645,1.428.017-.061.444a6.734,6.734,0,0,0,2.921,5.993,18.048,18.048,0,0,0,6.672,2.7c3.108.748,6.637,1.274,9.238-.5,1.784-1.219,2.979-3.475,3.554-6.7a7.6,7.6,0,0,0-.09-3.936c-1.187-3.215-5.627-3.759-6.959-3.849a22.846,22.846,0,0,0-16.7,5.835" transform="translate(-55.091 -23.69)" fill="#2e3433"/>
        <path id="Trazado_632" data-name="Trazado 632" d="M405.5,58.586c-3.289.974-6.383,2.9-9.495,4.337a43.593,43.593,0,0,1-9.891,3.191.282.282,0,0,0,.059.56c3.407.074,6.666-1.311,9.708-2.714,3.263-1.5,6.9-2.884,9.852-4.935a.252.252,0,0,0-.234-.439" transform="translate(-60.035 -9.113)" fill="#2e3433"/>
        <path id="Trazado_633" data-name="Trazado 633" d="M381.883,64.725c-3.012.1-6.188-2.953-8.539-4.649-1.94-1.4-3.78-2.961-5.821-4.209-.284-.174-.5.263-.292.466a62.883,62.883,0,0,0,8.972,6.759c1.778,1.208,3.49,2.631,5.732,2.141a.255.255,0,0,0-.052-.507" transform="translate(-57.122 -8.686)" fill="#2e3433"/>
        <path id="Trazado_634" data-name="Trazado 634" d="M361,86.926c-.357-.163-.732.386-.379.608a28.624,28.624,0,0,1,8.656,7.593c1.412,1.984,2.448,4.582,4.665,5.783.137.073.231-.1.172-.21-2.9-5.424-7.414-11.156-13.114-13.773" transform="translate(-56.083 -13.519)" fill="#2e3433"/>
        <path id="Trazado_635" data-name="Trazado 635" d="M400.837,101.162a21.847,21.847,0,0,0-10.618-.406c-4.246,1.019-7.465,2.879-11.987,1.73a.275.275,0,0,0-.155.52,12.42,12.42,0,0,0,8.679-.185,23.475,23.475,0,0,1,6.684-1.609c2.45-.106,4.876.376,7.317.469a.263.263,0,0,0,.081-.518" transform="translate(-58.797 -15.601)" fill="#2e3433"/>
        <path id="Trazado_636" data-name="Trazado 636" d="M357.642,123.869a25.793,25.793,0,0,0-5.82-7.85c-.122-.1-.279.056-.2.185,2.5,4.008,5.285,7.558,7.033,12.026.795,2.028,1.21,5.437,3.936,5.532a.3.3,0,0,0,.166-.556c-2.9-1.384-3.682-6.626-5.116-9.337" transform="translate(-54.703 -18.045)" fill="#2e3433"/>
        <path id="Trazado_637" data-name="Trazado 637" d="M385.951,130.694a30.352,30.352,0,0,0-9.268,1c-3.595.936-8.137,4.405-11.851,3.491a.225.225,0,0,0-.127.426c3.057,1.077,5.617-.753,8.426-1.852a36.323,36.323,0,0,1,12.8-2.233c.468-.008.5-.8.021-.829" transform="translate(-56.721 -20.327)" fill="#2e3433"/>
        <path id="Trazado_638" data-name="Trazado 638" d="M331.881,146.276c-.211-.054-.314.292-.111.368,7.634,2.852,15.616,4.054,20.8,10.987.343.459,1.071-.057.725-.514-5.2-6.887-13.432-8.811-21.416-10.841" transform="translate(-51.6 -22.757)" fill="#2e3433"/>
        <path id="Trazado_639" data-name="Trazado 639" d="M376.04,161.605c-3.325-.552-6.68-.719-10.022-1.347a23.568,23.568,0,0,0-9.116-.394.319.319,0,0,0,.067.634,41.323,41.323,0,0,1,10.9,1.158c2.622.515,5.606,1.271,8.231.512.29-.085.214-.518-.058-.563" transform="translate(-55.485 -24.825)" fill="#2e3433"/>
        <path id="Trazado_640" data-name="Trazado 640" d="M372.144,25.846a84.433,84.433,0,0,1,7.368,27.769c.786,10.759-1.022,21.356-4.318,31.581-6.2,19.228-16.886,36.852-21.07,56.754-2.084,9.913-2.5,20.121.35,29.921.092.313.631.193.562-.133-8.856-41.9,28.614-75.838,26.229-117.262A70.912,70.912,0,0,0,373.352,25.2c-.369-.691-1.52-.069-1.208.643" transform="translate(-54.834 -3.874)" fill="#2e3433"/>
      </g>
    </g>
    <g id="Grupo_267" data-name="Grupo 267" transform="translate(21.284 -0.001)">
      <g id="Grupo_266" data-name="Grupo 266" clip-path="url(#clip-path-2)">
        <path id="Trazado_641" data-name="Trazado 641" d="M125.808,215.521s-1.444,151.5-3.534,177.189.192,82.149,2.281,89.605c0,0,13.048-2.373,18.8-8.078,9.383-9.3,18.2-5.246,18.2-5.246,7.1,0,3.521-16.5,1.85-24.789s5.64-10.771,2.506-34.592,15.5-95.789,10.274-136.182-12.572-55.835-12.572-55.835Z" transform="translate(-40.179 -33.53)" fill="#2e3433"/>
        <path id="Trazado_642" data-name="Trazado 642" d="M96.229,482.972C109.6,463.5,127.914,329.5,126.03,229.258H82.578s-14.133,67.583-20.4,109.011-10.283,58.383-5.225,70.541-4.13,30.83-7.4,50.3c-1.672,9.943-1.89,16.783,5.05,13.782,7.751-3.351,13.636,10.081,41.628,10.081" transform="translate(-28.841 -35.667)" fill="#2e3433"/>
        <path id="Trazado_643" data-name="Trazado 643" d="M130.272,291.458l-.479-.9a34.236,34.236,0,0,1,20.952-2.836l-.2,1a33.787,33.787,0,0,0-20.272,2.737" transform="translate(-41.478 -44.671)"/>
        <path id="Trazado_644" data-name="Trazado 644" d="M133.539,345.011l-1.01-.16c.019-.119,1.908-12.047,4.385-30.489s3.541-25.631,3.552-25.7l1.012.149c-.01.071-1.072,7.245-3.55,25.688s-4.37,30.394-4.389,30.512" transform="translate(-41.903 -44.909)"/>
        <path id="Trazado_645" data-name="Trazado 645" d="M129.086,118.7c7.426-2.168,66.272-36.109,128.439-49.626,0,0-3.064,74.132-11.352,105.136,0,0-104.845-22.343-114.063-29.289-14.573-10.977-13.427-23.181-3.025-26.221" transform="translate(-40.144 -10.745)" fill="#f5b015"/>
        <path id="Trazado_646" data-name="Trazado 646" d="M129.086,118.7c7.426-2.168,66.272-36.109,128.439-49.626,0,0-3.064,74.132-11.352,105.136,0,0-104.845-22.343-114.063-29.289C117.537,133.939,118.683,121.735,129.086,118.7Z" transform="translate(-40.144 -10.745)" fill="none" stroke="#2e3433" stroke-miterlimit="10" stroke-width="1"/>
        <path id="Trazado_647" data-name="Trazado 647" d="M211.026,168.259s-22.781-8.85-21.593-36.165.345-38.858-6.967-55.4,24.4-15.39,35.694,26.931,21.594,52.709-7.134,64.635" transform="translate(-49.504 -10.39)" fill="#fff"/>
        <path id="Trazado_648" data-name="Trazado 648" d="M211.026,168.259s-22.781-8.85-21.593-36.165.345-38.858-6.967-55.4,24.4-15.39,35.694,26.931S239.754,156.332,211.026,168.259Z" transform="translate(-49.504 -10.39)" fill="none" stroke="#2e3433" stroke-linecap="round" stroke-linejoin="round" stroke-width="1"/>
        <path id="Trazado_649" data-name="Trazado 649" d="M212.234,180.746c-.231-.09-23.094-9.293-21.905-36.644l.979.042c-1.158,26.657,21.057,35.6,21.282,35.687Z" transform="translate(-50.889 -22.419)" fill="#312113"/>
        <path id="Trazado_650" data-name="Trazado 650" d="M220.313,112.132a20.548,20.548,0,0,1-2.841,5.175,20.809,20.809,0,0,1-4.194,4.236,15.385,15.385,0,0,1-5.409,2.562,13.634,13.634,0,0,1-5.912.1c.494-.031.982-.054,1.467-.065l.725-.022c.241-.031.479-.082.717-.122.475-.081.951-.141,1.419-.23l1.376-.4a17.763,17.763,0,0,0,5.035-2.615,26.412,26.412,0,0,0,4.18-3.923,36.139,36.139,0,0,0,3.437-4.7" transform="translate(-52.705 -17.445)" fill="#2e3433"/>
        <path id="Trazado_651" data-name="Trazado 651" d="M318.917,6.707,249.3,13.655c-7.043,0-13.874,5.729-15.226,12.774L196.059,188.552c-1.3,6.787,4.6,18.574,15.322,18.574l75.98.024c7.043,0,13.874-5.73,15.227-12.774L334.838,26.428c1.354-7.044-3.379-19.721-15.921-19.721" transform="translate(-51.76 -1.043)" fill="#2e3433"/>
        <path id="Trazado_652" data-name="Trazado 652" d="M318.936,6.707H243.714c-7.043,0-13.875,5.73-15.227,12.774L196.237,187.429c-1.3,6.787,2.95,12.352,9.562,12.749l75.979.025c7.043,0,13.875-5.732,15.227-12.774l32.25-167.949c1.353-7.043-3.277-12.774-10.32-12.774" transform="translate(-51.779 -1.043)" fill="#dbe0e6"/>
        <path id="Trazado_653" data-name="Trazado 653" d="M318.936,6.707H243.714c-7.043,0-13.875,5.73-15.227,12.774L196.237,187.429c-1.3,6.787,2.95,12.352,9.562,12.749l75.979.025c7.043,0,13.875-5.732,15.227-12.774l32.25-167.949C330.608,12.437,325.978,6.707,318.936,6.707Z" transform="translate(-51.779 -1.043)" fill="none" stroke="#2e3433" stroke-miterlimit="10" stroke-width="1"/>
        <path id="Trazado_654" data-name="Trazado 654" d="M318.923,10.068H243.7A12.616,12.616,0,0,0,231.858,20L199.607,187.952c-1.054,5.487,2.54,9.935,8.027,9.935h75.222a12.616,12.616,0,0,0,11.842-9.935L326.95,20c1.054-5.487-2.54-9.935-8.027-9.935" transform="translate(-52.311 -1.566)" fill="#fff"/>
        <path id="Trazado_655" data-name="Trazado 655" d="M318.923,10.068H243.7A12.616,12.616,0,0,0,231.858,20L199.607,187.952c-1.054,5.487,2.54,9.935,8.027,9.935h75.222a12.616,12.616,0,0,0,11.842-9.935L326.95,20C328,14.516,324.41,10.068,318.923,10.068Z" transform="translate(-52.311 -1.566)" fill="none" stroke="#2e3433" stroke-linecap="round" stroke-linejoin="round" stroke-width="1"/>
        <path id="Trazado_656" data-name="Trazado 656" d="M305.525,12.029H282.108a1.2,1.2,0,0,0-1.128.947.758.758,0,0,0,.764.946h23.418a1.2,1.2,0,0,0,1.128-.946.76.76,0,0,0-.765-.947" transform="translate(-64.997 -1.871)" fill="#312113"/>
        <path id="Trazado_657" data-name="Trazado 657" d="M336.435,14.418a.612.612,0,0,0-.583.473l-.232,1.209a.387.387,0,0,0,.4.473.612.612,0,0,0,.583-.473l.232-1.209a.387.387,0,0,0-.4-.473" transform="translate(-73.499 -2.242)" fill="#312113"/>
        <path id="Trazado_658" data-name="Trazado 658" d="M337.935,14.418h0a.612.612,0,0,0-.583.473L337.12,16.1a.387.387,0,0,0,.4.473.612.612,0,0,0,.583-.473l.233-1.209a.388.388,0,0,0-.4-.473" transform="translate(-73.733 -2.242)" fill="#312113"/>
        <path id="Trazado_659" data-name="Trazado 659" d="M339.436,14.418h0a.612.612,0,0,0-.583.473l-.232,1.209a.387.387,0,0,0,.4.473.613.613,0,0,0,.583-.473l.232-1.209a.387.387,0,0,0-.4-.473" transform="translate(-73.966 -2.242)" fill="#312113"/>
        <path id="Trazado_660" data-name="Trazado 660" d="M340.936,14.418h0a.612.612,0,0,0-.583.473L340.12,16.1a.388.388,0,0,0,.4.473.612.612,0,0,0,.583-.473l.232-1.209a.387.387,0,0,0-.4-.473" transform="translate(-74.2 -2.242)" fill="#312113"/>
        <path id="Trazado_661" data-name="Trazado 661" d="M341.612,16.228h.492l.252-1.309h-.492Z" transform="translate(-74.433 -2.32)" fill="#312113"/>
        <path id="Trazado_662" data-name="Trazado 662" d="M331.4,16.2a.4.4,0,0,0-.383.312.255.255,0,0,0,.263.312.4.4,0,0,0,.384-.312.255.255,0,0,0-.264-.312" transform="translate(-72.783 -2.519)" fill="#312113"/>
        <path id="Trazado_663" data-name="Trazado 663" d="M331.475,15.187a1.745,1.745,0,0,0-.891.256.221.221,0,0,0-.088.322.214.214,0,0,0,.274.025,1.227,1.227,0,0,1,.624-.179.9.9,0,0,1,.555.179.234.234,0,0,0,.284-.025.207.207,0,0,0,.035-.322,1.277,1.277,0,0,0-.793-.256" transform="translate(-72.697 -2.362)" fill="#312113"/>
        <path id="Trazado_664" data-name="Trazado 664" d="M331.541,14.225a2.782,2.782,0,0,0-1.546.494.2.2,0,1,0,.215.328,2.259,2.259,0,0,1,1.249-.4,1.608,1.608,0,0,1,1.1.4.231.231,0,0,0,.3-.012.209.209,0,0,0,.041-.316,1.979,1.979,0,0,0-1.356-.494" transform="translate(-72.607 -2.212)" fill="#312113"/>
        <path id="Trazado_665" data-name="Trazado 665" d="M252.624,13.683a1.75,1.75,0,0,1,.013.915,2.474,2.474,0,0,1-.345.911,1.049,1.049,0,0,1-.907.516.651.651,0,0,1-.672-.422,1.743,1.743,0,0,1-.024-.947,2.567,2.567,0,0,1,.275-.79,1.063,1.063,0,0,1,.955-.615.67.67,0,0,1,.705.432m-.7,1.8a1.923,1.923,0,0,0,.33-.871,2.033,2.033,0,0,0,.028-.757.357.357,0,0,0-.4-.3.6.6,0,0,0-.509.282,2.165,2.165,0,0,0-.3.831,1.941,1.941,0,0,0-.035.664c.046.255.182.383.41.383a.628.628,0,0,0,.482-.234" transform="translate(-60.279 -2.061)" fill="#312113"/>
        <path id="Trazado_666" data-name="Trazado 666" d="M255.268,13.683a1.759,1.759,0,0,1,.013.915,2.49,2.49,0,0,1-.345.911,1.05,1.05,0,0,1-.907.516.652.652,0,0,1-.673-.422,1.745,1.745,0,0,1-.023-.947,2.567,2.567,0,0,1,.275-.79,1.063,1.063,0,0,1,.955-.615.671.671,0,0,1,.705.432m-.7,1.8a1.914,1.914,0,0,0,.329-.871,2,2,0,0,0,.028-.757.357.357,0,0,0-.4-.3.6.6,0,0,0-.509.282,2.167,2.167,0,0,0-.3.831,1.941,1.941,0,0,0-.035.664c.046.255.182.383.41.383a.627.627,0,0,0,.482-.234" transform="translate(-60.69 -2.061)" fill="#312113"/>
        <path id="Trazado_667" data-name="Trazado 667" d="M256.028,15.963h.41l-.079.411h-.41Z" transform="translate(-61.105 -2.483)" fill="#312113"/>
        <path id="Trazado_668" data-name="Trazado 668" d="M259.233,13.683a1.741,1.741,0,0,1,.013.915,2.473,2.473,0,0,1-.345.911,1.049,1.049,0,0,1-.907.516.651.651,0,0,1-.672-.422,1.752,1.752,0,0,1-.024-.947,2.611,2.611,0,0,1,.275-.79,1.064,1.064,0,0,1,.955-.615.669.669,0,0,1,.705.432m-.7,1.8a1.913,1.913,0,0,0,.33-.871,2.032,2.032,0,0,0,.028-.757.357.357,0,0,0-.4-.3.6.6,0,0,0-.509.282,2.167,2.167,0,0,0-.3.831,1.926,1.926,0,0,0-.036.664c.046.255.182.383.41.383a.627.627,0,0,0,.481-.234" transform="translate(-61.307 -2.061)" fill="#312113"/>
        <path id="Trazado_669" data-name="Trazado 669" d="M261.878,13.683a1.749,1.749,0,0,1,.013.915,2.474,2.474,0,0,1-.345.911,1.05,1.05,0,0,1-.907.516.651.651,0,0,1-.672-.422,1.752,1.752,0,0,1-.024-.947,2.568,2.568,0,0,1,.275-.79,1.064,1.064,0,0,1,.955-.615.671.671,0,0,1,.705.432m-.7,1.8a1.913,1.913,0,0,0,.33-.871,2.034,2.034,0,0,0,.028-.757.357.357,0,0,0-.4-.3.6.6,0,0,0-.509.282,2.165,2.165,0,0,0-.3.831,1.942,1.942,0,0,0-.035.664c.046.255.182.383.41.383a.627.627,0,0,0,.482-.234" transform="translate(-61.719 -2.061)" fill="#312113"/>
        <path id="Trazado_670" data-name="Trazado 670" d="M358.427,91.878s19.145-5.482,3.427-27.124-31.983-14.139-31.64-5.482-.08,14.234,12.757,21.448c0,0-12.784-.77-13.845,8.993s5.924,16.592,5.924,16.592-11.216-3.03-13.979,1.154-1.126,16.736,9.4,23.949c0,0-13.028.722-8.231,15.438s8,10.82,8,10.82L326.9,175.107s23.726-2.051,21.455-30.713c0,0,16.762-8.079,3.214-25.2,0,0,23.965-8.849,6.862-27.316" transform="translate(-71.052 -7.878)" fill="#fff"/>
        <path id="Trazado_671" data-name="Trazado 671" d="M358.427,91.878s19.145-5.482,3.427-27.124-31.983-14.139-31.64-5.482-.08,14.234,12.757,21.448c0,0-12.784-.77-13.845,8.993s5.924,16.592,5.924,16.592-11.216-3.03-13.979,1.154-1.126,16.736,9.4,23.949c0,0-13.028.722-8.231,15.438s8,10.82,8,10.82L326.9,175.107s23.726-2.051,21.455-30.713c0,0,16.762-8.079,3.214-25.2C351.565,119.194,375.529,110.345,358.427,91.878Z" transform="translate(-71.052 -7.878)" fill="none" stroke="#2e3433" stroke-linecap="round" stroke-linejoin="round" stroke-width="1"/>
        <path id="Trazado_672" data-name="Trazado 672" d="M340.446,117.017a24.376,24.376,0,0,1,8.8,3.957,22.31,22.31,0,0,1,3.661,3.212,17.313,17.313,0,0,1,2.753,3.988,38.319,38.319,0,0,0-3.295-3.449,35.753,35.753,0,0,0-3.684-2.951c-1.284-.914-2.624-1.75-4-2.542-1.382-.775-2.783-1.532-4.241-2.216" transform="translate(-74.252 -18.205)" fill="#2e3433"/>
        <path id="Trazado_673" data-name="Trazado 673" d="M335.712,146.746a24.368,24.368,0,0,1,8.8,3.958,22.337,22.337,0,0,1,3.661,3.211,17.286,17.286,0,0,1,2.753,3.988,38.331,38.331,0,0,0-3.295-3.449,35.754,35.754,0,0,0-3.684-2.951c-1.283-.915-2.624-1.75-4-2.542-1.382-.774-2.783-1.531-4.242-2.216" transform="translate(-73.515 -22.83)" fill="#2e3433"/>
        <path id="Trazado_674" data-name="Trazado 674" d="M348.965,86.263a24.381,24.381,0,0,1,8.8,3.957,22.383,22.383,0,0,1,3.661,3.212,17.268,17.268,0,0,1,2.753,3.988,38.209,38.209,0,0,0-3.295-3.449A35.753,35.753,0,0,0,357.2,91.02c-1.283-.915-2.624-1.75-4-2.542-1.382-.775-2.783-1.532-4.242-2.216" transform="translate(-75.577 -13.42)" fill="#2e3433"/>
        <path id="Trazado_675" data-name="Trazado 675" d="M275.015,111.115,305.081,73.3c4.073-5.121,1.545-11.741-4.482-11.741h-46.93c-6.027,0-10.866,6.619-8.582,11.741l16.863,37.815c2.162,4.845,9.213,4.845,13.065,0" transform="translate(-59.326 -9.577)" fill="#d3001b"/>
        <path id="Trazado_676" data-name="Trazado 676" d="M268.3,112.749a3.8,3.8,0,0,1-3.66-2.182L247.777,72.753a5.255,5.255,0,0,1,.681-5.007,6.942,6.942,0,0,1,5.663-3.285h46.93a3.753,3.753,0,0,1,3.608,2.07,5.418,5.418,0,0,1-1.044,5.695L273.548,110.04a6.869,6.869,0,0,1-5.249,2.709M254.12,65.441a5.953,5.953,0,0,0-4.84,2.838,4.3,4.3,0,0,0-.608,4.074l16.864,37.814a2.812,2.812,0,0,0,2.764,1.6,5.883,5.883,0,0,0,4.481-2.339l30.066-37.814a4.458,4.458,0,0,0,.928-4.659,2.786,2.786,0,0,0-2.725-1.515Z" transform="translate(-59.777 -10.028)" fill="#fff"/>
        <path id="Trazado_677" data-name="Trazado 677" d="M274.043,92.779h4.882l6.033-23.64h-8.7Z" transform="translate(-63.92 -10.756)" fill="#fff"/>
        <path id="Trazado_678" data-name="Trazado 678" d="M271.605,109.088h4.882l2.907-5.737H270.7Z" transform="translate(-63.4 -16.079)" fill="#fff"/>
        <path id="Trazado_679" data-name="Trazado 679" d="M104.94,127.873c-3.216.44-10.722,1.419-15.645,3.672s-7.051,3.628-8.553,23.654-.052,76.578-2.222,92.6c0,0,19.265-2.082,24.6,2.592s25.421-.558,39.05-6.509a92.193,92.193,0,0,0,23.113-14.685s-17.794-77.668-24.3-89.016-18.044-14.767-36.047-12.306" transform="translate(-33.501 -19.776)" fill="#f5b015"/>
        <path id="Trazado_680" data-name="Trazado 680" d="M104.94,127.873c-3.216.44-10.722,1.419-15.645,3.672s-7.051,3.628-8.553,23.654-.052,76.578-2.222,92.6c0,0,19.265-2.082,24.6,2.592s25.421-.558,39.05-6.509a92.193,92.193,0,0,0,23.113-14.685s-17.794-77.668-24.3-89.016S122.942,125.411,104.94,127.873Z" transform="translate(-33.501 -19.776)" fill="none" stroke="#2e3433" stroke-miterlimit="10" stroke-width="1"/>
        <path id="Trazado_681" data-name="Trazado 681" d="M124.736,116.944l-.026,12.42c-.759.96-5.988,3.656-15.194.055l.037-17.43a151.04,151.04,0,0,0,15.183,4.955" transform="translate(-38.323 -17.423)" fill="#fff"/>
        <path id="Trazado_682" data-name="Trazado 682" d="M124.736,116.944l-.026,12.42c-.759.96-5.988,3.656-15.194.055l.037-17.43A151.04,151.04,0,0,0,124.736,116.944Z" transform="translate(-38.323 -17.423)" fill="none" stroke="#2e3433" stroke-linecap="round" stroke-linejoin="round" stroke-width="1"/>
        <path id="Trazado_683" data-name="Trazado 683" d="M123.864,124.141c-4.32,1.482-10.757,1.012-14.331-2.254l.022-9.9a137.169,137.169,0,0,0,15.181,5.739l-.013,6.179a7.348,7.348,0,0,0-.86.233" transform="translate(-38.326 -17.423)" fill="#2e3433"/>
        <path id="Trazado_684" data-name="Trazado 684" d="M123.9,120.439c-4.372-.04-12.333-6.011-14.092-10.014-.627-1.426-.284-5.117-.28-7.033.015-6.9,3.773-10.923,8.225-12.484,1.876-.654,7.882-.508,9.606-.149,5.683,1.2,6.507,6.685,6.529,12.49.027,6.511-2.282,17.26-9.989,17.19" transform="translate(-38.309 -14.072)" fill="#fff"/>
        <path id="Trazado_685" data-name="Trazado 685" d="M123.9,120.439c-4.372-.04-12.333-6.011-14.092-10.014-.627-1.426-.284-5.117-.28-7.033.015-6.9,3.773-10.923,8.225-12.484,1.876-.654,7.882-.508,9.606-.149,5.683,1.2,6.507,6.685,6.529,12.49C133.911,109.761,131.6,120.509,123.9,120.439Z" transform="translate(-38.309 -14.072)" fill="none" stroke="#2e3433" stroke-linecap="round" stroke-linejoin="round" stroke-width="1"/>
        <path id="Trazado_686" data-name="Trazado 686" d="M130.619,111.666l-.255-.947c1.218-.328,2.623-.986,2.773-1.444.012-.032.027-.08-.06-.192a9.389,9.389,0,0,1-1.532-7.113l.024-.117.073-.092a4.5,4.5,0,0,1,4.951-1.246l-.315.929a3.561,3.561,0,0,0-3.8.848,8.442,8.442,0,0,0,1.363,6.183,1.141,1.141,0,0,1,.222,1.108c-.4,1.206-2.944,1.946-3.449,2.081" transform="translate(-41.567 -15.594)" fill="#2e3433"/>
        <path id="Trazado_687" data-name="Trazado 687" d="M114.411,92.2c3.922,4.173,15.291-1.015,18.107,3.131,3,4.421,9.87-7.194,2.315-12.663-6.57-4.756-11.035-.668-17.365,1s-8.313-.941-12.236,4.483-.626,15.491,3,21.332c1.59,2.559-1.5-10.274,3.171-10.608s3-6.677,3-6.677" transform="translate(-37.381 -12.514)" fill="#2e3433"/>
        <path id="Trazado_688" data-name="Trazado 688" d="M112.155,183.891A16.464,16.464,0,0,0,110.522,178a20.916,20.916,0,0,0-5.45-7.841c-2.961-2.562-9.227-2.169-16.633-.285l-.019-.074c-.07.019-2,.545-5.012,1.487,1.636-8.676,2.274-14.974,2.782-19.036,1-8.011,3.356-23.1-4.672-19.359-13.357,6.234-29.98,14.777-39.552,43.724s-8.01,44.056-1.168,49.063c2.087,1.527,3.292,2.413,8.92,3.521a29.978,29.978,0,0,0,9.351-.4A96.754,96.754,0,0,0,94.256,215.57l.359-.693a52.346,52.346,0,0,0,8.361-6.223c8.18-7.65,10.386-16.91,9.179-24.762" transform="translate(-26.765 -20.583)" fill="#f5b015"/>
        <path id="Trazado_689" data-name="Trazado 689" d="M112.155,183.891A16.464,16.464,0,0,0,110.522,178a20.916,20.916,0,0,0-5.45-7.841c-2.961-2.562-9.227-2.169-16.633-.285l-.019-.074c-.07.019-2,.545-5.012,1.487,1.636-8.676,2.274-14.974,2.782-19.036,1-8.011,3.356-23.1-4.672-19.359-13.357,6.234-29.98,14.777-39.552,43.724s-8.01,44.056-1.168,49.063c2.087,1.527,3.292,2.413,8.92,3.521a29.978,29.978,0,0,0,9.351-.4A96.754,96.754,0,0,0,94.256,215.57l.359-.693a52.346,52.346,0,0,0,8.361-6.223C111.156,201,113.362,191.743,112.155,183.891Z" transform="translate(-26.765 -20.583)" fill="none" stroke="#2e3433" stroke-miterlimit="10" stroke-width="1"/>
        <path id="Trazado_690" data-name="Trazado 690" d="M35.979,149.982l48.693-32.761a1.21,1.21,0,0,1,1.719.394l37.648,64.395a1.209,1.209,0,0,1-.5,1.691L71.106,210.062a1.208,1.208,0,0,1-1.587-.469l-33.909-58a1.21,1.21,0,0,1,.369-1.614" transform="translate(-26.799 -18.205)" fill="#dbe0e6"/>
        <path id="Trazado_691" data-name="Trazado 691" d="M35.979,149.982l48.693-32.761a1.21,1.21,0,0,1,1.719.394l37.648,64.395a1.209,1.209,0,0,1-.5,1.691L71.106,210.062a1.208,1.208,0,0,1-1.587-.469l-33.909-58A1.21,1.21,0,0,1,35.979,149.982Z" transform="translate(-26.799 -18.205)" fill="none" stroke="#2e3433" stroke-miterlimit="10" stroke-width="1"/>
        <path id="Trazado_692" data-name="Trazado 692" d="M114.984,182.286l-43.5,29.268a1.446,1.446,0,0,1-2.054-.469L35.723,153.43a1.444,1.444,0,0,1,.6-2.02l46.841-23.552a1.446,1.446,0,0,1,1.9.562l30.365,51.938a1.446,1.446,0,0,1-.441,1.929" transform="translate(-26.812 -19.868)" fill="#fff"/>
        <path id="Trazado_693" data-name="Trazado 693" d="M114.984,182.286l-43.5,29.268a1.446,1.446,0,0,1-2.054-.469L35.723,153.43a1.444,1.444,0,0,1,.6-2.02l46.841-23.552a1.446,1.446,0,0,1,1.9.562l30.365,51.938A1.446,1.446,0,0,1,114.984,182.286Z" transform="translate(-26.812 -19.868)" fill="none" stroke="#2e3433" stroke-miterlimit="10" stroke-width="1"/>
        <path id="Trazado_694" data-name="Trazado 694" d="M39.1,165.548a1.905,1.905,0,0,1-.639-.111,2.721,2.721,0,0,1-1.57-1.767,2.418,2.418,0,0,1,.057-1.933,5.788,5.788,0,0,1,3-2.375l.33.924a4.9,4.9,0,0,0-2.436,1.865,1.447,1.447,0,0,0-.028,1.172,1.858,1.858,0,0,0,.979,1.189.873.873,0,0,0,.689-.033l.495.846a1.754,1.754,0,0,1-.871.222" transform="translate(-26.998 -24.793)" fill="#2e3433"/>
        <path id="Trazado_695" data-name="Trazado 695" d="M44.052,174.008a1.91,1.91,0,0,1-.64-.111,2.72,2.72,0,0,1-1.569-1.767A2.418,2.418,0,0,1,41.9,170.2a5.788,5.788,0,0,1,3-2.375l.33.924a4.883,4.883,0,0,0-2.436,1.865,1.446,1.446,0,0,0-.029,1.172,1.86,1.86,0,0,0,.979,1.189.855.855,0,0,0,.69-.033l.495.846a1.754,1.754,0,0,1-.871.222" transform="translate(-27.767 -26.109)" fill="#2e3433"/>
        <path id="Trazado_696" data-name="Trazado 696" d="M49,182.469a1.912,1.912,0,0,1-.642-.111,2.72,2.72,0,0,1-1.568-1.767,2.416,2.416,0,0,1,.057-1.932,5.782,5.782,0,0,1,3-2.374l.329.924a4.886,4.886,0,0,0-2.436,1.864,1.45,1.45,0,0,0-.028,1.172,1.854,1.854,0,0,0,.978,1.188.858.858,0,0,0,.691-.032l.494.846a1.75,1.75,0,0,1-.87.222" transform="translate(-28.537 -27.426)" fill="#2e3433"/>
        <path id="Trazado_697" data-name="Trazado 697" d="M53.944,190.928a1.9,1.9,0,0,1-.639-.111,2.721,2.721,0,0,1-1.57-1.767,2.412,2.412,0,0,1,.057-1.932,5.785,5.785,0,0,1,3-2.375l.33.924a4.893,4.893,0,0,0-2.437,1.865,1.45,1.45,0,0,0-.028,1.172,1.854,1.854,0,0,0,.98,1.189.862.862,0,0,0,.689-.033l.495.846a1.754,1.754,0,0,1-.871.222" transform="translate(-29.306 -28.742)" fill="#2e3433"/>
        <path id="Trazado_698" data-name="Trazado 698" d="M58.891,199.388a1.918,1.918,0,0,1-.641-.111,2.722,2.722,0,0,1-1.568-1.767,2.412,2.412,0,0,1,.057-1.932,5.788,5.788,0,0,1,3-2.375l.33.923a4.892,4.892,0,0,0-2.436,1.866,1.447,1.447,0,0,0-.029,1.172,1.857,1.857,0,0,0,.979,1.189.868.868,0,0,0,.69-.033l.495.846a1.756,1.756,0,0,1-.871.222" transform="translate(-30.076 -30.058)" fill="#fff"/>
        <path id="Trazado_699" data-name="Trazado 699" d="M63.837,207.848a1.889,1.889,0,0,1-.64-.111,2.718,2.718,0,0,1-1.569-1.767,2.412,2.412,0,0,1,.056-1.932,5.792,5.792,0,0,1,3-2.375l.33.924a4.889,4.889,0,0,0-2.437,1.864,1.449,1.449,0,0,0-.028,1.173,1.862,1.862,0,0,0,.979,1.189.862.862,0,0,0,.69-.033l.494.846a1.753,1.753,0,0,1-.871.221" transform="translate(-30.845 -31.374)" fill="#fff"/>
        <path id="Trazado_700" data-name="Trazado 700" d="M68.783,216.308a1.909,1.909,0,0,1-.64-.111,2.725,2.725,0,0,1-1.569-1.767,2.416,2.416,0,0,1,.057-1.932,5.786,5.786,0,0,1,3-2.375l.329.924a4.887,4.887,0,0,0-2.436,1.865,1.446,1.446,0,0,0-.029,1.172,1.86,1.86,0,0,0,.979,1.189.857.857,0,0,0,.69-.034l.495.847a1.752,1.752,0,0,1-.871.222" transform="translate(-31.615 -32.69)" fill="#fff"/>
        <path id="Trazado_701" data-name="Trazado 701" d="M73.729,224.768a1.881,1.881,0,0,1-.639-.111,2.719,2.719,0,0,1-1.57-1.766,2.415,2.415,0,0,1,.057-1.932,5.784,5.784,0,0,1,2.994-2.375l.33.923a4.89,4.89,0,0,0-2.436,1.865,1.45,1.45,0,0,0-.028,1.172,1.862,1.862,0,0,0,.979,1.189.854.854,0,0,0,.69-.034l.495.847a1.763,1.763,0,0,1-.871.221" transform="translate(-32.385 -34.007)" fill="#fff"/>
        <path id="Trazado_702" data-name="Trazado 702" d="M79.182,162.928l.708,1.039-.937.638-.682-1a3.6,3.6,0,0,1-2.783.62l.266-1.4a2.556,2.556,0,0,0,1.854-.448l-1.143-1.679-.323.165a2.684,2.684,0,0,1-1.659.316,2.084,2.084,0,0,1-1.351-.967,2.377,2.377,0,0,1,.577-3.3l-.568-.835.936-.638.562.826a3.28,3.28,0,0,1,2.345-.485l-.266,1.364a2.238,2.238,0,0,0-1.444.332l1.1,1.614.39-.185a2.723,2.723,0,0,1,1.615-.339,2.212,2.212,0,0,1,1.458,1.044,2.424,2.424,0,0,1-.654,3.324m-4.589-4.981a1,1,0,0,0-.252,1.366.77.77,0,0,0,.518.34,1.325,1.325,0,0,0,.789-.157Zm3.423,2.136a1.355,1.355,0,0,0-.822.208l1.087,1.6c.512-.444.628-.931.319-1.385a.89.89,0,0,0-.583-.418" transform="translate(-32.595 -24.182)" fill="#d8143b"/>
        <path id="Trazado_703" data-name="Trazado 703" d="M70.529,147.615a.514.514,0,0,1-.236.675l-2.2,1.446a.516.516,0,0,1-.714-.051l-.848-1.289a.514.514,0,0,1,.236-.675l2.2-1.446a.516.516,0,0,1,.714.051Z" transform="translate(-31.627 -22.739)" fill="#f5b015"/>
        <path id="Trazado_704" data-name="Trazado 704" d="M79.432,165.552a7.552,7.552,0,1,1-8.3-12.617,1.258,1.258,0,1,0-1.382-2.1,10.067,10.067,0,1,0,11.066,16.82,1.257,1.257,0,1,0-1.382-2.1" transform="translate(-31.431 -23.434)" fill="#d8143b"/>
        <rect id="Rectángulo_146" data-name="Rectángulo 146" width="1.615" height="1.556" transform="matrix(0.835, -0.55, 0.55, 0.835, 50.956, 130.169)" fill="#f5b015"/>
        <path id="Trazado_705" data-name="Trazado 705" d="M85.276,155.2a.778.778,0,1,0,.222-1.077.778.778,0,0,0-.222,1.077" transform="translate(-34.532 -23.957)" fill="#f5b015"/>
        <path id="Trazado_706" data-name="Trazado 706" d="M86.815,154.183a.778.778,0,1,0,.222-1.077.778.778,0,0,0-.222,1.077" transform="translate(-34.771 -23.8)" fill="#f5b015"/>
        <rect id="Rectángulo_147" data-name="Rectángulo 147" width="1.615" height="1.556" transform="matrix(0.337, -0.941, 0.941, 0.337, 47.14, 127.475)" fill="#f5b015"/>
        <path id="Trazado_707" data-name="Trazado 707" d="M81.5,151.844a.778.778,0,1,0-.47-.994.778.778,0,0,0,.47.994" transform="translate(-33.884 -23.388)" fill="#f5b015"/>
        <path id="Trazado_708" data-name="Trazado 708" d="M82.118,150.11a.778.778,0,1,0-.47-.995.779.779,0,0,0,.47.995" transform="translate(-33.98 -23.118)" fill="#f5b015"/>
        <rect id="Rectángulo_148" data-name="Rectángulo 148" width="1.556" height="1.615" transform="matrix(0.998, -0.069, 0.069, 0.998, 42.306, 125.498)" fill="#f5b015"/>
        <path id="Trazado_709" data-name="Trazado 709" d="M76.266,151.081a.778.778,0,1,0-.83-.722.777.777,0,0,0,.83.722" transform="translate(-33.021 -23.263)" fill="#f5b015"/>
        <path id="Trazado_710" data-name="Trazado 710" d="M76.139,149.243a.778.778,0,1,0-.83-.722.776.776,0,0,0,.83.722" transform="translate(-33.001 -22.977)" fill="#f5b015"/>
        <rect id="Rectángulo_149" data-name="Rectángulo 149" width="1.615" height="1.556" transform="matrix(0.999, -0.034, 0.034, 0.999, 52.675, 134.282)" fill="#f5b015"/>
        <path id="Trazado_711" data-name="Trazado 711" d="M86.713,159.824a.778.778,0,1,0,.751-.8.777.777,0,0,0-.751.8" transform="translate(-34.775 -24.74)" fill="#f5b015"/>
        <path id="Trazado_712" data-name="Trazado 712" d="M88.554,159.761a.778.778,0,1,0,.751-.8.777.777,0,0,0-.751.8" transform="translate(-35.062 -24.73)" fill="#f5b015"/>
        <rect id="Rectángulo_150" data-name="Rectángulo 150" width="1.556" height="1.615" transform="matrix(0.437, -0.899, 0.899, 0.437, 51.057, 140.157)" fill="#f5b015"/>
        <path id="Trazado_713" data-name="Trazado 713" d="M85.246,164.672a.778.778,0,1,0,1.039-.36.777.777,0,0,0-1.039.36" transform="translate(-34.535 -25.551)" fill="#f5b015"/>
        <path id="Trazado_714" data-name="Trazado 714" d="M86.9,165.477a.778.778,0,1,0,1.039-.36.778.778,0,0,0-1.039.36" transform="translate(-34.792 -25.676)" fill="#f5b015"/>
        <path id="Trazado_715" data-name="Trazado 715" d="M130.23,114.423a2.337,2.337,0,0,1-1.627.71c-1.251.167-4.089.709-4.047,2.711s3.588,2.628,4.381.375,1.294-3.8,1.294-3.8" transform="translate(-40.663 -17.801)" fill="#2e3433"/>
        <path id="Trazado_716" data-name="Trazado 716" d="M121.274,102.143l-.48-.855c2.045-1.151,3.735-1.548,5.027-1.171a2.321,2.321,0,0,1,1.414,1.012l-.864.464.431-.232-.426.241c-.358-.6-1.885-1.271-5.1.54" transform="translate(-40.078 -15.554)" fill="#2e3433"/>
        <path id="Trazado_717" data-name="Trazado 717" d="M123.2,105.131a1.075,1.075,0,1,0,1.354-1,1.207,1.207,0,0,0-1.354,1" transform="translate(-40.444 -16.196)" fill="#2e3433"/>
        <path id="Trazado_718" data-name="Trazado 718" d="M133.39,105.131a1.075,1.075,0,1,0,1.354-1,1.205,1.205,0,0,0-1.354,1" transform="translate(-42.029 -16.196)" fill="#2e3433"/>
        <path id="Trazado_719" data-name="Trazado 719" d="M113.8,105.748a4.249,4.249,0,1,1-3.878-4.589,4.248,4.248,0,0,1,3.878,4.589" transform="translate(-37.67 -15.735)" fill="#fff"/>
        <path id="Trazado_720" data-name="Trazado 720" d="M109.751,108.7a2.9,2.9,0,0,1-1.314-.4l.465-.784a1.65,1.65,0,0,0,.989.252.259.259,0,0,0,.17-.145c.068-.128.068-.128-.152-.361a1.811,1.811,0,0,1-.58-1.709,3.454,3.454,0,0,1,.65-1.427c.357-.524.357-.524-.017-.786-.716-.5-2.088.7-2.512,1.162l-.672-.616c.223-.242,2.217-2.339,3.708-1.292,1.11.779.59,1.542.246,2.046a2.622,2.622,0,0,0-.5,1.061.936.936,0,0,0,.345.937,1.1,1.1,0,0,1,.295,1.41,1.169,1.169,0,0,1-.73.6,1.429,1.429,0,0,1-.386.051" transform="translate(-37.897 -15.917)" fill="#2e3433"/>
        <path id="Trazado_721" data-name="Trazado 721" d="M49.682,193.159c12.676-7.222,47.6-23.61,56.031-16.314s12.149,25.5-2.114,38.839-46.2,22.494-57.333,18.95-18.711-28.87,3.416-41.475" transform="translate(-26.8 -27.228)" fill="#f5b015"/>
        <path id="Trazado_722" data-name="Trazado 722" d="M105.979,193.1c0,7.051,3.867,12.766,8.637,12.766s8.636-5.715,8.636-12.766-3.867-12.767-8.636-12.767-8.637,5.715-8.637,12.767" transform="translate(-37.773 -28.056)" fill="#312113"/>
        <path id="Trazado_723" data-name="Trazado 723" d="M53.333,194.218l-.6-.775c12.581-9.721,38.153-16.665,38.409-16.734l.255.947c-.255.068-25.639,6.963-38.065,16.562" transform="translate(-29.489 -27.492)" fill="#2e3433"/>
        <path id="Trazado_724" data-name="Trazado 724" d="M132.254,174.113s-3.442-.813-5.757-1.188-3.88,0-6.7,2.754-10.138,5.82-10.826,9.637-2.749,16.532,7.509,19.65,26.159-4.068,20.464-7.948c0,0,6.445-2.253,1.877-7.134,0,0,5.444-5.257-.5-7.824,0,0,6.571-7.7-6.071-7.948" transform="translate(-38.139 -26.884)" fill="#fff"/>
        <path id="Trazado_725" data-name="Trazado 725" d="M132.254,174.113s-3.442-.813-5.757-1.188-3.88,0-6.7,2.754-10.138,5.82-10.826,9.637-2.749,16.532,7.509,19.65,26.159-4.068,20.464-7.948c0,0,6.445-2.253,1.877-7.134,0,0,5.444-5.257-.5-7.824C138.324,182.06,144.9,174.363,132.254,174.113Z" transform="translate(-38.139 -26.884)" fill="none" stroke="#2e3433" stroke-linecap="round" stroke-linejoin="round" stroke-width="1"/>
        <path id="Trazado_726" data-name="Trazado 726" d="M142.255,183.666a17.214,17.214,0,0,1-4.336.437,17.008,17.008,0,0,1-4.321-.541,19.356,19.356,0,0,1,8.657.1" transform="translate(-42.07 -28.49)" fill="#2e3433"/>
        <path id="Trazado_727" data-name="Trazado 727" d="M142.3,192.99a24.966,24.966,0,0,1-5.807.629,27.434,27.434,0,0,1-2.917-.155,14.432,14.432,0,0,1-2.884-.579c1.961-.185,3.87-.236,5.8-.246a40.334,40.334,0,0,1,5.807.35" transform="translate(-41.617 -29.97)" fill="#2e3433"/>
        <path id="Trazado_728" data-name="Trazado 728" d="M140.835,201.541a6.4,6.4,0,0,1-1.814.985,9.649,9.649,0,0,1-1.995.5,7.949,7.949,0,0,1-4.071-.405c.688-.142,1.343-.2,2-.3s1.3-.165,1.939-.267c1.294-.168,2.566-.389,3.945-.519" transform="translate(-41.97 -31.355)" fill="#2e3433"/>
      </g>
    </g>
    <g id="Grupo_269" data-name="Grupo 269" transform="translate(0 0)">
      <path id="Trazado_729" data-name="Trazado 729" d="M310.6,135.144s-38.557,12.953-33.31,57.4-2.309,98.615-2.309,98.615h21.979s39.151-52.783,10.3-92.331,3.34-63.689,3.34-63.689" transform="translate(-42.781 -21.026)" fill="#f5b015"/>
      <path id="Trazado_730" data-name="Trazado 730" d="M274.3,290.781c.075-.54,7.484-54.605,2.307-98.471-5.24-44.394,33.3-57.876,33.691-58.006l3.326-1.118-2.807,2.106c-.318.237-31.415,24.252-3.221,62.9,28.762,39.428-9.91,92.471-10.3,93l-.17.228H274.207Zm32.383-91.919c-23.837-32.679-6.138-55.211.909-62.188-8.947,4.231-34.115,19.47-29.863,55.5,4.888,41.416-1.4,91.856-2.224,98.117h21.045c2.73-3.822,37.454-53.98,10.133-91.433" transform="translate(-42.662 -20.721)" fill="#131313"/>
      <path id="Trazado_731" data-name="Trazado 731" d="M307.542,138.424c-7.016,5.792-27.426,26.838-5.432,61.678,26.132,41.394-16.47,91.434-16.47,91.434l-10.551-.712c-.068.539-.113.851-.113.851h21.979s39.151-52.783,10.3-92.331c-23.151-31.742-7-53.544.286-60.92" transform="translate(-42.781 -21.536)" fill="#131313"/>
      <path id="Trazado_732" data-name="Trazado 732" d="M270.449,259.811c2.058-39.448.467-44.377-14.869-57.4s-36.943-34.443-36.943-34.443c14.721,29.143,14.424,42.391,17.192,63.83,2.151,16.632,27.135,49.829,38.236,63.887-2.459-5.7-4.643-16.287-3.617-35.872" transform="translate(-34.016 -26.132)" fill="#f5b015"/>
      <path id="Trazado_733" data-name="Trazado 733" d="M273.241,295.508c-10.806-13.686-36.177-47.332-38.353-64.165-.383-2.971-.708-5.786-1.021-8.506-1.944-16.83-3.477-30.123-16.115-55.142l-1.567-3.1,2.47,2.448c.216.214,21.769,21.55,36.912,34.413,15.7,13.335,17.107,18.744,15.065,57.864-1.056,20.149,1.359,30.491,3.571,35.618ZM269.5,259.256c2.014-38.614.643-43.936-14.67-56.942-12.187-10.354-28.51-26.175-34.576-32.113,11.356,23.278,12.854,36.254,14.73,52.508.314,2.716.638,5.524,1.021,8.49,2.005,15.511,24.285,45.854,35.926,60.812-2.354-7.644-3.171-18.633-2.431-32.754" transform="translate(-33.635 -25.607)" fill="#131313"/>
      <path id="Trazado_734" data-name="Trazado 734" d="M270.784,252.612c-7.655,32.77,8.622,54.793,8.622,54.793h16.047c-.055-11.295.755-22.127,6.072-33.083a12.146,12.146,0,0,1,.978-1.626c-2.261-1.059-4.778-2.13-7.58-3.206-29.633-11.384-16.486-49.651-24.139-16.878" transform="translate(-41.811 -37.282)" fill="#131313"/>
      <path id="Trazado_735" data-name="Trazado 735" d="M311.365,268.072c-15.623,9.445-8.27,44.314-8.27,44.314l15.272-.244s-3.542-11.266,5.886-24.573,16.637-9.023,16.637-9.023-13.9-19.917-29.524-10.474" transform="translate(-46.887 -41.312)" fill="#131313"/>
      <path id="Trazado_736" data-name="Trazado 736" d="M220.078,240.787c-27.35,0-42.647,16.482-42.647,16.482s10.646-5.411,29.693-4.708,17.663,16.878,32.971,31.987,28.063,17.269,28.063,17.269-20.275-29.322-35.128-49.257c-2.616-3.511-.069-11.775-12.953-11.775" transform="translate(-27.605 -37.462)" fill="#131313"/>
      <path id="Trazado_737" data-name="Trazado 737" d="M185.4,266.222a2.352,2.352,0,0,0-.138.454s.043-.164.138-.454" transform="translate(-28.822 -41.419)" fill="#faf9fc"/>
      <path id="Trazado_738" data-name="Trazado 738" d="M241.278,257.943c-5.1-6.869.2-23.745-32.382-19.822-29.756,3.585-36.749,21.239-37.739,24.272.751-1.957,5.513-9.932,34.207-16.421,32.969-7.458,15.5,9.614,30.419,20.41s27.081,31.006,27.081,31.006,8.439,14.13,6.475,2.353-22.961-34.933-28.062-41.8" transform="translate(-26.629 -36.956)" fill="#f5b015"/>
      <path id="Trazado_739" data-name="Trazado 739" d="M262.281,297.577c-.121-.2-12.279-20.236-26.929-30.84-5.814-4.209-6.875-9.42-7.728-13.608-.653-3.206-1.169-5.74-3.42-7.193-2.949-1.908-8.929-1.753-18.816.483-28.8,6.514-33.212,14.532-33.8,16.073l-1.065-.377c1.137-3.486,8.323-21.057,38.208-24.657,25.471-3.069,28.267,6.5,30.511,14.192a18.862,18.862,0,0,0,2.392,5.854c1.051,1.414,2.837,3.592,4.9,6.114,8.109,9.892,21.681,26.451,23.261,35.928.555,3.326.361,4.9-.65,5.275a1,1,0,0,1-.354.061c-1.859,0-4.838-4.5-6.512-7.305m-21.556-39.4a19.55,19.55,0,0,1-2.57-6.21c-2.236-7.66-4.768-16.34-29.291-13.387-22.231,2.678-31.575,13.167-35.255,19.51,3.928-3.526,12.569-8.484,31.531-12.771,10.344-2.342,16.412-2.444,19.679-.332,2.65,1.712,3.235,4.588,3.913,7.917.856,4.2,1.827,8.968,7.283,12.917,14.836,10.738,27.113,30.97,27.236,31.174,2.233,3.738,4.855,6.9,5.5,6.769.006,0,.533-.432-.068-4.033-1.531-9.18-14.983-25.592-23.021-35.4-2.162-2.636-3.869-4.72-4.936-6.158" transform="translate(-26.529 -36.853)" fill="#131313"/>
      <path id="Trazado_740" data-name="Trazado 740" d="M357.231,278.717c-17.159-29.209-35-25.878-46.453-18.341-16.256,10.7-10.5,49.8-10.5,49.8l2.5.6s-.182-7.659.126-20.87,5.309-32.306,28.005-8.017,52.4,26.724,52.4,26.724-8.909-.681-26.071-29.892" transform="translate(-46.564 -39.698)" fill="#f5b015"/>
      <path id="Trazado_741" data-name="Trazado 741" d="M383.137,309.067c-.645-.057-30.308-2.876-52.759-26.9-8.513-9.11-15.172-12.833-19.8-11.074-6.181,2.354-7.113,13.874-7.227,18.717-.3,13.044-.128,20.768-.125,20.844l.017.735-3.582-.86-.056-.378c-.237-1.61-5.616-39.579,10.751-50.35,7.228-4.756,14.467-6.333,21.517-4.69,9.3,2.166,17.957,9.977,25.734,23.217,16.654,28.344,25.517,29.6,25.627,29.615h0l-.09,1.127-.011,0m-72.16-48.323c-14.927,9.821-10.833,44.829-10.306,48.865l1.41.339c-.035-2.221-.112-9.38.139-20.163.119-5.072,1.132-17.148,7.954-19.748,5.1-1.939,12.172,1.88,21.029,11.359,17.5,18.729,39.441,24.4,48.182,25.982-4.183-2.73-11.817-9.863-22.754-28.479-7.615-12.962-16.031-20.595-25.017-22.689a22.712,22.712,0,0,0-6.891-.533,29.035,29.035,0,0,0-13.748,5.067" transform="translate(-46.453 -39.592)" fill="#131313"/>
      <path id="Trazado_742" data-name="Trazado 742" d="M319.045,237.392c-4.685-3.438-9.443-2.85-13.117-1.319a15.7,15.7,0,0,1-14.155-1.295c-15.683-9.492-16.885,3.556-16.885,3.556l.425,3.533a.177.177,0,0,1,.023.117c1.131,6.546,4.806,20.159,20.536,26.212,2.8,1.082,27.482,11.775,27.482,11.775-3.344-13.541,5.3-35.513-4.308-42.579" transform="translate(-42.768 -35.989)" fill="#f5b015"/>
      <path id="Trazado_743" data-name="Trazado 743" d="M323.024,280.386c-.247-.107-24.7-10.7-27.461-11.766-11.4-4.385-18.614-13.577-20.878-26.581l-.47-3.8.006-.06c.018-.2.488-4.851,4.262-6.755,3.224-1.63,7.758-.7,13.478,2.767a15.226,15.226,0,0,0,13.646,1.256c4.917-2.048,9.642-1.57,13.669,1.385v0c6.031,4.435,5.208,14.1,4.338,24.334-.555,6.516-1.127,13.252.184,18.564l.274,1.108Zm-4.418-42.642c-3.742-2.747-7.97-3.17-12.565-1.253a16.359,16.359,0,0,1-14.665-1.333c-5.362-3.243-9.525-4.16-12.377-2.729-3.014,1.517-3.584,5.3-3.646,5.8l.405,3.372a.385.385,0,0,1,.03.184c2.179,12.624,9.159,21.539,20.182,25.781,2.489.961,21.754,9.294,26.488,11.344-1.039-5.29-.5-11.662.029-17.837.843-9.909,1.639-19.269-3.882-23.329Z" transform="translate(-42.662 -35.884)" fill="#131313"/>
      <rect id="Rectángulo_152" data-name="Rectángulo 152" width="360.567" height="298.533" fill="none"/>
    </g>
  </g>
</svg>
