<svg id="Grupo_262" data-name="Grupo 262" xmlns="http://www.w3.org/2000/svg" xmlns:xlink="http://www.w3.org/1999/xlink" width="350.528" height="350.348" viewBox="0 0 313.617 343.799">
  <defs>
    <clipPath id="clip-path">
      <rect id="Rectángulo_63" data-name="Rectángulo 63" width="313.617" height="337.799" fill="none"/>
    </clipPath>
    <clipPath id="clip-path-2">
      <path id="Trazado_370" data-name="Trazado 370" d="M99.349,114.528l-54.63,56.486L99.349,326H293.255V114.528Z" transform="translate(-44.719 -114.528)" fill="none"/>
    </clipPath>
    <clipPath id="clip-path-3">
      <rect id="Rectángulo_73" data-name="Rectángulo 73" width="313.617" height="343.799" fill="none"/>
    </clipPath>
  </defs>
  <g id="Grupo_39" data-name="Grupo 39">
    <g id="Grupo_38" data-name="Grupo 38" clip-path="url(#clip-path)">
      <path id="Trazado_345" data-name="Trazado 345" d="M191.242,47.042c-48.44,10.235-41.224,66.814-124.618,98.564-89.383,34.031-35.246,162.414,66.449,169.722,101.219,7.275,147.9-38.365,158.289-125.1,7.814-65.219-28.137-158.394-100.12-143.187" transform="translate(-3.155 -6.694)" fill="#fff"/>
    </g>
  </g>
  <g id="Grupo_41" data-name="Grupo 41" transform="translate(38.124 97.639)">
    <g id="Grupo_40" data-name="Grupo 40" clip-path="url(#clip-path-2)">
      <path id="Trazado_346" data-name="Trazado 346" d="M306.2,139.675V415.863a21.036,21.036,0,0,1-21.009,21.009h-55.25v-.042H160.228a21.032,21.032,0,0,1-19.749-20.967V139.675a21.036,21.036,0,0,1,21.009-21.009h123.7A21.029,21.029,0,0,1,306.2,139.675" transform="translate(-58.84 -115.138)" fill="#dbe0e6"/>
      <path id="Trazado_347" data-name="Trazado 347" d="M306.2,139.675V415.863a21.036,21.036,0,0,1-21.009,21.009h-55.25v-.042H160.228a21.032,21.032,0,0,1-19.749-20.967V139.675a21.036,21.036,0,0,1,21.009-21.009h123.7A21.029,21.029,0,0,1,306.2,139.675Z" transform="translate(-58.84 -115.138)" fill="none" stroke="#2e3433" stroke-miterlimit="10" stroke-width="1"/>
      <path id="Trazado_348" data-name="Trazado 348" d="M302.335,140.477v276.2a16.337,16.337,0,0,1-16.341,16.334h-123.7a16.334,16.334,0,0,1-16.333-16.334v-276.2a16.334,16.334,0,0,1,16.333-16.333h123.7a16.336,16.336,0,0,1,16.341,16.333" transform="translate(-59.649 -115.946)" fill="#fff"/>
      <path id="Trazado_349" data-name="Trazado 349" d="M302.335,140.477v276.2a16.337,16.337,0,0,1-16.341,16.334h-123.7a16.334,16.334,0,0,1-16.333-16.334v-276.2a16.334,16.334,0,0,1,16.333-16.333h123.7A16.336,16.336,0,0,1,302.335,140.477Z" transform="translate(-59.649 -115.946)" fill="none" stroke="#2e3433" stroke-miterlimit="10" stroke-width="1"/>
      <path id="Trazado_350" data-name="Trazado 350" d="M253.59,127.336H215.079a1.556,1.556,0,1,0,0,3.112H253.59a1.556,1.556,0,1,0,0-3.112" transform="translate(-69.612 -116.417)" fill="#101c3a"/>
      <rect id="Rectángulo_64" data-name="Rectángulo 64" width="7.298" height="0.924" transform="matrix(0.707, -0.708, 0.708, 0.707, 100.549, 27.872)" fill="#101c3a"/>
      <rect id="Rectángulo_65" data-name="Rectángulo 65" width="0.924" height="7.298" transform="translate(100.548 23.363) rotate(-45)" fill="#101c3a"/>
      <rect id="Rectángulo_66" data-name="Rectángulo 66" width="8.278" height="0.924" transform="translate(219.744 26.857)" fill="#361e4d"/>
      <path id="Trazado_351" data-name="Trazado 351" d="M271.357,401.244c-10.674-19.973-30.653-51.207-40.28-69.223-1.209-2.264-7.961-16.839-7.961-16.839a42,42,0,0,0,5.88-7.86,13.028,13.028,0,0,0,2.7-6.2c1.716-9.733,2.888-13.679,6.607-18.578s-6.951-8.423-13.99,5.029c-1.618,3.093-3.084,5.594-4.284,7.715A217.428,217.428,0,0,1,200.559,279s-18.8,15.851-7.366,30.934a62.062,62.062,0,0,1,6.368,10.029h0l3.6,10.743c4.764,22.59,14.97,74.812,24.288,94.72,17.946,38.352,55.221-3.01,43.907-24.187" transform="translate(-66.07 -138.659)" fill="#fff"/>
      <path id="Trazado_352" data-name="Trazado 352" d="M271.357,401.244c-10.674-19.973-30.653-51.207-40.28-69.223-1.209-2.264-7.961-16.839-7.961-16.839a42,42,0,0,0,5.88-7.86,13.028,13.028,0,0,0,2.7-6.2c1.716-9.733,2.888-13.679,6.607-18.578s-6.951-8.423-13.99,5.029c-1.618,3.093-3.084,5.594-4.284,7.715A217.428,217.428,0,0,1,200.559,279s-18.8,15.851-7.366,30.934a62.062,62.062,0,0,1,6.368,10.029h0l3.6,10.743c4.764,22.59,14.97,74.812,24.288,94.72C245.4,463.783,282.671,422.421,271.357,401.244Z" transform="translate(-66.07 -138.659)" fill="none" stroke="#2e3433" stroke-linecap="round" stroke-linejoin="round" stroke-width="1"/>
      <path id="Trazado_353" data-name="Trazado 353" d="M185.275,308.92c-4.116,3.672-10.6,9.621-10.444,14.964s20.674,2.649,20.674,2.649l49.522-74.814-31.065-6.16s-24.571,59.689-28.687,63.362" transform="translate(-63.906 -133.851)" fill="#2e3433"/>
      <rect id="Rectángulo_67" data-name="Rectángulo 67" width="67.646" height="1.027" transform="translate(131.354 183.423) rotate(-57.393)" fill="#fff"/>
      <path id="Trazado_354" data-name="Trazado 354" d="M260.94,219.386l-82.932-81.751-45.924,89.58,114.17,20.821c4.457,2.285,11.358-2.276,15.414-10.189s3.731-16.177-.727-18.462" transform="translate(-57.602 -117.936)" fill="#f5b015"/>
      <path id="Trazado_355" data-name="Trazado 355" d="M260.94,219.386l-82.932-81.751-45.924,89.58,114.17,20.821c4.457,2.285,11.358-2.276,15.414-10.189S265.4,221.671,260.94,219.386Z" transform="translate(-57.602 -117.936)" fill="none" stroke="#2e3433" stroke-miterlimit="10" stroke-width="1"/>
      <path id="Trazado_356" data-name="Trazado 356" d="M278.408,231.716,267.79,221.249c.29,8.019-1.429,24.046-17.254,36.713l13.185,2.4c4.457,2.285,11.358-2.276,15.414-10.189s3.731-16.177-.727-18.462" transform="translate(-75.07 -130.266)" fill="#2e3433"/>
      <path id="Trazado_357" data-name="Trazado 357" d="M175.238,133.144a23.456,23.456,0,0,0-9.223-2.511c-15.957-1.042-34.72,13.092-45.634,34.374-13.652,26.635-10.95,54.369,6.151,63.144a23.463,23.463,0,0,0,9.224,2.511c15.957,1.042,34.72-13.1,45.634-34.378,13.655-26.638,10.95-54.372-6.152-63.14" transform="translate(-54.594 -116.895)" fill="#d39416"/>
      <path id="Trazado_358" data-name="Trazado 358" d="M175.238,133.144a23.456,23.456,0,0,0-9.223-2.511c-15.957-1.042-34.72,13.092-45.634,34.374-13.652,26.635-10.95,54.369,6.151,63.144a23.463,23.463,0,0,0,9.224,2.511c15.957,1.042,34.72-13.1,45.634-34.378C195.045,169.646,192.34,141.913,175.238,133.144Z" transform="translate(-54.594 -116.895)" fill="none" stroke="#2e3433" stroke-miterlimit="10" stroke-width="1"/>
      <path id="Trazado_359" data-name="Trazado 359" d="M174.079,137.448c-14.955-7.667-37.153,5.771-49.581,30.013s-10.38,50.11,4.574,57.777,37.153-5.771,49.582-30.014,10.38-50.11-4.575-57.776" transform="translate(-55.285 -117.59)" fill="#96999e"/>
      <path id="Trazado_360" data-name="Trazado 360" d="M174.079,137.448c-14.955-7.667-37.153,5.771-49.581,30.013s-10.38,50.11,4.574,57.777,37.153-5.771,49.582-30.014S189.034,145.114,174.079,137.448Z" transform="translate(-55.285 -117.59)" fill="none" stroke="#2e3433" stroke-linecap="round" stroke-linejoin="round" stroke-width="1"/>
      <path id="Trazado_361" data-name="Trazado 361" d="M129.47,225.922c-.234-.109-.465-.221-.694-.338-15.166-7.775-17.31-33.983-4.783-58.422s35.077-37.995,50.226-30.221c15.166,7.775,17.31,33.982,4.783,58.421-12.339,24.069-34.379,37.583-49.532,30.56m43.649-88.453c-14.687-6.807-36.169,6.518-48.273,30.129-12.288,23.97-10.329,49.6,4.366,57.134,14.643,7.546,36.65-5.836,48.938-29.805s10.329-49.6-4.367-57.133c-.218-.113-.442-.222-.664-.325" transform="translate(-55.207 -117.51)" fill="#101c3a"/>
      <path id="Trazado_362" data-name="Trazado 362" d="M170.061,182.985l-7.333,16.135,14.82,15.606a77.167,77.167,0,0,0,7.938-12.462,75.553,75.553,0,0,0,5.807-14.93l-20.316-4.36Z" transform="translate(-62.121 -124.622)" fill="#2e3433"/>
      <path id="Trazado_363" data-name="Trazado 363" d="M170.64,182.924c-2.51-1.286-6.4,1.282-8.68,5.737s-2.1,9.111.409,10.4,6.4-1.282,8.68-5.738,2.1-9.11-.409-10.4" transform="translate(-61.772 -124.565)" fill="#fff"/>
      <path id="Trazado_364" data-name="Trazado 364" d="M170.64,182.924c-2.51-1.286-6.4,1.282-8.68,5.737s-2.1,9.111.409,10.4,6.4-1.282,8.68-5.738S173.15,184.211,170.64,182.924Z" transform="translate(-61.772 -124.565)" fill="none" stroke="#2e3433" stroke-miterlimit="10" stroke-width="1"/>
      <rect id="Rectángulo_68" data-name="Rectángulo 68" width="2.009" height="19.731" transform="translate(60.064 11.504) rotate(-38.986)" fill="#101c3a"/>
      <rect id="Rectángulo_69" data-name="Rectángulo 69" width="37.69" height="2.009" transform="translate(16.05 86.927) rotate(-5.061)" fill="#101c3a"/>
      <rect id="Rectángulo_70" data-name="Rectángulo 70" width="2.009" height="14.326" transform="translate(38.047 61.878) rotate(-76.854)" fill="#101c3a"/>
      <rect id="Rectángulo_71" data-name="Rectángulo 71" width="2.009" height="35.431" transform="matrix(0.39, -0.921, 0.921, 0.39, 21.222, 45.095)" fill="#101c3a"/>
      <path id="Trazado_365" data-name="Trazado 365" d="M193.244,280.193c-9.312,1.674-4.09,11.075-4.09,11.075-7.935,2.167-4.711,9.383-4.711,9.383-1.917.876-2.957,1.916-2.877,5.6.64,3.037,5.42,5.9,10.18,2.208s1-7.42,1-7.42c4.8.372,8.115-3.436,8.229-5.589.107-2.113-3.786-4.052-3.942-4.129a7.773,7.773,0,0,0,5.514-4.027c1.836-3.5-1.942-6.585-2.13-6.739a9.025,9.025,0,0,0,4.878-.135c1.675-.641,2.881-1.188,3.795-3.057,1.76-3.6-1.161-10.378-10.768-7.26s-5.079,10.091-5.079,10.091" transform="translate(-64.899 -137.352)" fill="#fff"/>
      <path id="Trazado_366" data-name="Trazado 366" d="M193.244,280.193c-9.312,1.674-4.09,11.075-4.09,11.075-7.935,2.167-4.711,9.383-4.711,9.383-1.917.876-2.957,1.916-2.877,5.6.64,3.037,5.42,5.9,10.18,2.208s1-7.42,1-7.42c4.8.372,8.115-3.436,8.229-5.589.107-2.113-3.786-4.052-3.942-4.129a7.773,7.773,0,0,0,5.514-4.027c1.836-3.5-1.942-6.585-2.13-6.739a9.025,9.025,0,0,0,4.878-.135c1.675-.641,2.881-1.188,3.795-3.057,1.76-3.6-1.161-10.378-10.768-7.26S193.244,280.193,193.244,280.193Z" transform="translate(-64.899 -137.352)" fill="none" stroke="#2e3433" stroke-linecap="round" stroke-linejoin="round" stroke-width="1"/>
      <path id="Trazado_367" data-name="Trazado 367" d="M236.556,301.089c1.715-9.733,2.888-13.679,6.606-18.578s-8.155-8.987-13.989,5.029c-2.529,6.077-3.642,9.384-6.686,14.058" transform="translate(-70.934 -138.624)" fill="#fff"/>
      <path id="Trazado_368" data-name="Trazado 368" d="M236.556,301.089c1.715-9.733,2.888-13.679,6.606-18.578s-8.155-8.987-13.989,5.029c-2.529,6.077-3.642,9.384-6.686,14.058" transform="translate(-70.934 -138.624)" fill="none" stroke="#2e3433" stroke-miterlimit="10" stroke-width="1"/>
      <path id="Trazado_369" data-name="Trazado 369" d="M233.689,295.272a5.684,5.684,0,0,1-3.368-6.07" transform="translate(-72.08 -140.287)" fill="none" stroke="#2e3433" stroke-linecap="round" stroke-linejoin="round" stroke-width="1"/>
    </g>
  </g>
  <g id="Grupo_43" data-name="Grupo 43">
    <g id="Grupo_42" data-name="Grupo 42" clip-path="url(#clip-path-3)">
      <path id="Trazado_371" data-name="Trazado 371" d="M238.228,8.359l-.154.014,1.268,12.554,10.041-7.218-.342-.552a11.958,11.958,0,0,0-10.813-4.8" transform="translate(-35.108 -1.224)" fill="#f5b015"/>
      <path id="Trazado_372" data-name="Trazado 372" d="M29.3,214.71l-15.05,4.622,0,.005.238.945a14.383,14.383,0,0,0,5.841,7.806Z" transform="translate(-2.101 -31.663)" fill="#f5b015"/>
      <path id="Trazado_373" data-name="Trazado 373" d="M201.5,9.479a3.379,3.379,0,1,1-3.38-3.379,3.38,3.38,0,0,1,3.38,3.379" transform="translate(-28.719 -0.9)" fill="#f5b015"/>
      <path id="Trazado_374" data-name="Trazado 374" d="M99.874,245.9a3.379,3.379,0,1,1-3.379-3.379,3.38,3.38,0,0,1,3.379,3.379" transform="translate(-13.731 -35.763)" fill="#f5b015"/>
      <path id="Trazado_375" data-name="Trazado 375" d="M207.833,80.109a3.379,3.379,0,1,1-3.379-3.379,3.38,3.38,0,0,1,3.379,3.379" transform="translate(-29.652 -11.315)" fill="#f5b015"/>
      <path id="Trazado_376" data-name="Trazado 376" d="M354.81,117.209a2.226,2.226,0,1,1-2.226-2.226,2.226,2.226,0,0,1,2.226,2.226" transform="translate(-51.666 -16.956)" fill="#f5b015"/>
      <path id="Trazado_377" data-name="Trazado 377" d="M162.9,49.863A34.569,34.569,0,1,1,146.442,3.83,34.569,34.569,0,0,1,162.9,49.863" transform="translate(-14.316 -0.074)" fill="#f5b015"/>
      <path id="Trazado_378" data-name="Trazado 378" d="M162.9,49.863A34.569,34.569,0,1,1,146.442,3.83,34.569,34.569,0,0,1,162.9,49.863Z" transform="translate(-14.316 -0.074)" fill="none" stroke="#2e3433" stroke-miterlimit="10" stroke-width="1"/>
      <path id="Trazado_379" data-name="Trazado 379" d="M150.745,27.241a10.5,10.5,0,0,0-12.539-.681,10.582,10.582,0,0,0-12.16-4.782A11.869,11.869,0,0,0,118.3,36.113C119.886,42.26,132.168,55.8,132.168,55.8s16.448-7.25,20.252-12.3a11.956,11.956,0,0,0-1.675-16.254" transform="translate(-17.389 -3.145)" fill="#fff"/>
      <path id="Trazado_380" data-name="Trazado 380" d="M65.3,298.212l-35.828-17.2a1.339,1.339,0,0,1,.158-2.488l.026-.006L92.7,262.549l.028-.006a1.339,1.339,0,0,1,1.321,2.113l-23.1,31.877c-1.51,2.095-3.769,2.667-5.647,1.679" transform="translate(-4.232 -38.711)" fill="#f5b015"/>
      <path id="Trazado_381" data-name="Trazado 381" d="M54.984,300.676,40.413,321.458a1.329,1.329,0,0,1-2.377-.436l-8.009-31.627a1.329,1.329,0,0,1,1.864-1.524l22.579,10.845a1.329,1.329,0,0,1,.513,1.961" transform="translate(-4.422 -42.431)" fill="#f5b015"/>
      <path id="Trazado_382" data-name="Trazado 382" d="M105.978,310.237c-.019.179-.206.344-.5.466L43.127,326.492c-.32.035-.564-.022-.665-.171-.117-.172-.064-.432.127-.765.057-.1.139-.209.227-.332l15.762-22.48a1.828,1.828,0,0,1,2.276-.6l5.586,2.679a6.277,6.277,0,0,0,7.814-1.979l3.8-5.239a1.825,1.825,0,0,1,2.284-.56l24.8,12.391c.136.066.261.126.358.184.326.2.5.4.476.612" transform="translate(-6.253 -43.777)" fill="#f5b015"/>
      <path id="Trazado_383" data-name="Trazado 383" d="M104.608,269.872l7.919,31.275a1.329,1.329,0,0,1-1.882,1.514L88.193,291.448a1.33,1.33,0,0,1-.483-1.97l14.533-20.058a1.329,1.329,0,0,1,2.365.453" transform="translate(-12.897 -39.649)" fill="#f5b015"/>
      <rect id="Rectángulo_72" data-name="Rectángulo 72" width="296.249" height="2.072" transform="translate(17.369 309.109)" fill="#131313"/>
      <path id="Trazado_384" data-name="Trazado 384" d="M308.069,101.955l-39.916-8.779a5.982,5.982,0,0,1-4.558-7.127l8.779-39.916a5.982,5.982,0,0,1,7.128-4.558l39.916,8.779a5.982,5.982,0,0,1,4.558,7.127L315.2,97.4a5.983,5.983,0,0,1-7.128,4.558" transform="translate(-38.851 -6.11)" fill="#f5b015"/>
      <path id="Trazado_385" data-name="Trazado 385" d="M308.069,101.955l-39.916-8.779a5.982,5.982,0,0,1-4.558-7.127l8.779-39.916a5.982,5.982,0,0,1,7.128-4.558l39.916,8.779a5.982,5.982,0,0,1,4.558,7.127L315.2,97.4A5.983,5.983,0,0,1,308.069,101.955Z" transform="translate(-38.851 -6.11)" fill="none" stroke="#2e3433" stroke-miterlimit="10" stroke-width="1"/>
      <path id="Trazado_386" data-name="Trazado 386" d="M307.381,68.515a9.217,9.217,0,0,1-10.767,7.406,9.321,9.321,0,0,1-6.838-11.207,9.216,9.216,0,0,1,10.766-7.407,9.321,9.321,0,0,1,6.84,11.208" transform="translate(-42.7 -8.422)" fill="#fff"/>
      <path id="Trazado_387" data-name="Trazado 387" d="M281.1,89.056c1.454-6.892,6.836-6.209,13.355-4.8s11.708,3.007,10.253,9.9Z" transform="translate(-41.453 -12.289)" fill="#fff"/>
      <path id="Trazado_388" data-name="Trazado 388" d="M72.627,76.927,7.478,91.249A9.258,9.258,0,0,0,.743,102.481l9.678,43.171a9.384,9.384,0,0,0,10.909,7.38l45.547-10.2L92.4,153.808l-5.924-15.1a9.257,9.257,0,0,0,6.736-11.231L83.537,84.306a9.387,9.387,0,0,0-10.91-7.38" transform="translate(-0.074 -11.315)" fill="#f5b015"/>
      <path id="Trazado_389" data-name="Trazado 389" d="M72.627,76.927,7.478,91.249A9.258,9.258,0,0,0,.743,102.481l9.678,43.171a9.384,9.384,0,0,0,10.909,7.38l45.547-10.2L92.4,153.808l-5.924-15.1a9.257,9.257,0,0,0,6.736-11.231L83.537,84.306A9.387,9.387,0,0,0,72.627,76.927Z" transform="translate(-0.074 -11.315)" fill="none" stroke="#2e3433" stroke-miterlimit="10" stroke-width="1"/>
      <path id="Trazado_390" data-name="Trazado 390" d="M31.945,124.39a5.581,5.581,0,1,0-4.275,6.635,5.58,5.58,0,0,0,4.275-6.635" transform="translate(-3.083 -17.694)" fill="#fff"/>
      <path id="Trazado_391" data-name="Trazado 391" d="M56.833,119.009a5.581,5.581,0,1,0-4.275,6.634,5.581,5.581,0,0,0,4.275-6.634" transform="translate(-6.753 -16.901)" fill="#fff"/>
      <path id="Trazado_392" data-name="Trazado 392" d="M81.721,113.628a5.581,5.581,0,1,0-4.275,6.634,5.581,5.581,0,0,0,4.275-6.634" transform="translate(-10.423 -16.107)" fill="#fff"/>
    </g>
  </g>
</svg>
