<svg xmlns="http://www.w3.org/2000/svg" xmlns:xlink="http://www.w3.org/1999/xlink" width="410.368" height="379.351" viewBox="0 0 410.368 379.351">
  <defs>
    <clipPath id="clip-path">
      <rect id="Rectángulo_423" data-name="Rectángulo 423" width="410.368" height="379.351" transform="translate(0 136)" fill="none"/>
    </clipPath>
    <clipPath id="clip-path-2">
      <path id="Trazado_2116" data-name="Trazado 2116" d="M100.075,219.184C88.147,296.691,141.5,369.447,219.005,381.374S369.269,339.95,381.2,262.442a17.765,17.765,0,0,0-35.116-5.4,106.686,106.686,0,0,1-210.89-32.452,17.764,17.764,0,1,0-35.115-5.4" transform="translate(-98.407 -204.119)" fill="none"/>
    </clipPath>
    <clipPath id="clip-path-3">
      <path id="Trazado_2145" data-name="Trazado 2145" d="M117.609,247.8,61.34,335.651l56.269,159.632h203.43V247.8Z" transform="translate(-61.34 -247.803)" fill="none"/>
    </clipPath>
    <clipPath id="clip-path-4">
      <rect id="Rectángulo_432" data-name="Rectángulo 432" width="14.848" height="11.392" fill="none"/>
    </clipPath>
    <clipPath id="clip-path-11">
      <rect id="Rectángulo_437" data-name="Rectángulo 437" width="410.368" height="353.351" transform="translate(0 149)" fill="none"/>
    </clipPath>
  </defs>
  <g id="Grupo_709" data-name="Grupo 709" transform="translate(0 -136)">
    <g id="Grupo_534" data-name="Grupo 534">
      <g id="Grupo_533" data-name="Grupo 533" clip-path="url(#clip-path)">
        <path id="Trazado_2115" data-name="Trazado 2115" d="M368.745,344.537c-23.594-45.207-77.713-22.349-132.349-96.256C177.836,169.067,65.516,258.392,86.49,361.293c20.873,102.417,79.1,136.053,168.014,122.29,66.859-10.349,149.3-71.866,114.242-139.046" transform="translate(-10.229 -26.565)" fill="#fff"/>
      </g>
    </g>
    <g id="Grupo_536" data-name="Grupo 536" transform="translate(86.412 179.237)">
      <g id="Grupo_535" data-name="Grupo 535" clip-path="url(#clip-path-2)">
        <line id="Línea_245" data-name="Línea 245" x1="207.405" y1="282.844" transform="translate(-83.579 -32.484)" fill="none" stroke="#f3ad13" stroke-miterlimit="10" stroke-width="8"/>
        <line id="Línea_246" data-name="Línea 246" x1="207.405" y1="282.844" transform="translate(-73.195 -40.099)" fill="none" stroke="#f3ad13" stroke-miterlimit="10" stroke-width="8"/>
        <line id="Línea_247" data-name="Línea 247" x1="207.405" y1="282.844" transform="translate(-62.811 -47.713)" fill="none" stroke="#f3ad13" stroke-miterlimit="10" stroke-width="8"/>
        <line id="Línea_248" data-name="Línea 248" x1="207.405" y1="282.844" transform="translate(-52.427 -55.328)" fill="none" stroke="#f3ad13" stroke-miterlimit="10" stroke-width="8"/>
        <line id="Línea_249" data-name="Línea 249" x1="207.405" y1="282.844" transform="translate(-42.043 -62.942)" fill="none" stroke="#f3ad13" stroke-miterlimit="10" stroke-width="8"/>
        <line id="Línea_250" data-name="Línea 250" x1="207.405" y1="282.844" transform="translate(-31.659 -70.557)" fill="none" stroke="#f3ad13" stroke-miterlimit="10" stroke-width="8"/>
        <line id="Línea_251" data-name="Línea 251" x1="207.405" y1="282.844" transform="translate(-21.274 -78.171)" fill="none" stroke="#f3ad13" stroke-miterlimit="10" stroke-width="8"/>
        <line id="Línea_252" data-name="Línea 252" x1="207.405" y1="282.844" transform="translate(-10.89 -85.786)" fill="none" stroke="#f3ad13" stroke-miterlimit="10" stroke-width="8"/>
        <line id="Línea_253" data-name="Línea 253" x1="207.405" y1="282.844" transform="translate(-0.506 -93.4)" fill="none" stroke="#f3ad13" stroke-miterlimit="10" stroke-width="8"/>
        <line id="Línea_254" data-name="Línea 254" x1="207.405" y1="282.844" transform="translate(9.878 -101.015)" fill="none" stroke="#f3ad13" stroke-miterlimit="10" stroke-width="8"/>
        <line id="Línea_255" data-name="Línea 255" x1="207.405" y1="282.844" transform="translate(20.262 -108.629)" fill="none" stroke="#f3ad13" stroke-miterlimit="10" stroke-width="8"/>
        <line id="Línea_256" data-name="Línea 256" x1="207.405" y1="282.844" transform="translate(30.646 -116.244)" fill="none" stroke="#f3ad13" stroke-miterlimit="10" stroke-width="8"/>
        <line id="Línea_257" data-name="Línea 257" x1="207.405" y1="282.844" transform="translate(41.03 -123.858)" fill="none" stroke="#f3ad13" stroke-miterlimit="10" stroke-width="8"/>
        <line id="Línea_258" data-name="Línea 258" x1="207.405" y1="282.844" transform="translate(51.415 -131.473)" fill="none" stroke="#f3ad13" stroke-miterlimit="10" stroke-width="8"/>
        <line id="Línea_259" data-name="Línea 259" x1="207.405" y1="282.844" transform="translate(61.799 -139.087)" fill="none" stroke="#f3ad13" stroke-miterlimit="10" stroke-width="8"/>
        <line id="Línea_260" data-name="Línea 260" x1="207.405" y1="282.844" transform="translate(72.183 -146.702)" fill="none" stroke="#f3ad13" stroke-miterlimit="10" stroke-width="8"/>
        <line id="Línea_261" data-name="Línea 261" x1="207.405" y1="282.844" transform="translate(82.567 -154.316)" fill="none" stroke="#f3ad13" stroke-miterlimit="10" stroke-width="8"/>
        <line id="Línea_262" data-name="Línea 262" x1="207.405" y1="282.844" transform="translate(92.951 -161.931)" fill="none" stroke="#f3ad13" stroke-miterlimit="10" stroke-width="8"/>
        <line id="Línea_263" data-name="Línea 263" x1="207.405" y1="282.844" transform="translate(103.335 -169.545)" fill="none" stroke="#f3ad13" stroke-miterlimit="10" stroke-width="8"/>
        <line id="Línea_264" data-name="Línea 264" x1="207.405" y1="282.844" transform="translate(113.72 -177.16)" fill="none" stroke="#f3ad13" stroke-miterlimit="10" stroke-width="8"/>
      </g>
    </g>
    <g id="Grupo_538" data-name="Grupo 538" transform="translate(53.863 217.596)">
      <g id="Grupo_537" data-name="Grupo 537" clip-path="url(#clip-path-3)">
        <path id="Trazado_2117" data-name="Trazado 2117" d="M327.788,280.337V564.808a21.667,21.667,0,0,1-21.639,21.639H249.242V586.4h-71.8a21.663,21.663,0,0,1-20.341-21.6V280.337A21.667,21.667,0,0,1,178.738,258.7H306.149a21.66,21.66,0,0,1,21.639,21.639" transform="translate(-73.013 -249.131)" fill="#dbe0e6"/>
        <path id="Trazado_2118" data-name="Trazado 2118" d="M327.788,280.337V564.808a21.667,21.667,0,0,1-21.639,21.639H249.242V586.4h-71.8a21.663,21.663,0,0,1-20.341-21.6V280.337A21.667,21.667,0,0,1,178.738,258.7H306.149A21.66,21.66,0,0,1,327.788,280.337Z" transform="translate(-73.013 -249.131)" fill="none" stroke="#2e3433" stroke-miterlimit="10" stroke-width="1"/>
        <path id="Trazado_2119" data-name="Trazado 2119" d="M323.364,281v284.48A16.827,16.827,0,0,1,306.532,582.3H179.123A16.824,16.824,0,0,1,162.3,565.479V281a16.823,16.823,0,0,1,16.823-16.823h127.41A16.826,16.826,0,0,1,323.364,281" transform="translate(-73.647 -249.799)" fill="#fff"/>
        <path id="Trazado_2120" data-name="Trazado 2120" d="M323.364,281v284.48A16.827,16.827,0,0,1,306.532,582.3H179.123A16.824,16.824,0,0,1,162.3,565.479V281a16.823,16.823,0,0,1,16.823-16.823h127.41A16.826,16.826,0,0,1,323.364,281Z" transform="translate(-73.647 -249.799)" fill="none" stroke="#2e3433" stroke-miterlimit="10" stroke-width="1"/>
        <path id="Trazado_2121" data-name="Trazado 2121" d="M271.412,267.368H231.747a1.6,1.6,0,0,0,0,3.205h39.666a1.6,1.6,0,1,0,0-3.205" transform="translate(-81.917 -250.188)" fill="#2e3433"/>
        <rect id="Rectángulo_424" data-name="Rectángulo 424" width="7.517" height="0.952" transform="matrix(0.707, -0.708, 0.708, 0.707, 103.564, 34.641)" fill="#2e3433"/>
        <rect id="Rectángulo_425" data-name="Rectángulo 425" width="0.952" height="7.517" transform="translate(103.563 29.997) rotate(-45)" fill="#2e3433"/>
        <rect id="Rectángulo_426" data-name="Rectángulo 426" width="8.526" height="0.952" transform="translate(226.333 33.596)" fill="#361e4d"/>
        <path id="Trazado_2122" data-name="Trazado 2122" d="M254.337,325.6l.033,2.082-1.877.03-.033-2.007a5.957,5.957,0,0,1-4.414-1.676l1.646-1.7a4.236,4.236,0,0,0,2.973,1.068l-.054-3.364-.6-.065a4.436,4.436,0,0,1-2.583-1.074,3.451,3.451,0,0,1-.99-2.568,3.938,3.938,0,0,1,3.8-4.039l-.027-1.674,1.877-.03.027,1.654a5.433,5.433,0,0,1,3.686,1.465l-1.61,1.644a3.712,3.712,0,0,0-2.3-.855l.053,3.234.708.1a4.508,4.508,0,0,1,2.545,1,3.665,3.665,0,0,1,1.068,2.772c.036,2.267-1.614,3.689-3.933,4.005m-1.815-11.07a1.648,1.648,0,0,0-1.59,1.661,1.277,1.277,0,0,0,.406.941,2.19,2.19,0,0,0,1.235.5Zm2.794,6.071a2.254,2.254,0,0,0-1.328-.462l.052,3.2c1.113-.148,1.718-.716,1.7-1.626a1.474,1.474,0,0,0-.427-1.109" transform="translate(-84.099 -255.455)" fill="#d8143b"/>
        <path id="Trazado_2123" data-name="Trazado 2123" d="M256.614,297.4a.853.853,0,0,1-.941.719h-4.355a.853.853,0,0,1-.942-.719v-2.554a.853.853,0,0,1,.942-.719h4.355a.853.853,0,0,1,.941.719Z" transform="translate(-84.383 -253.45)" fill="#f5b015"/>
        <path id="Trazado_2124" data-name="Trazado 2124" d="M251.628,330.409a12.509,12.509,0,0,1,0-25.018,2.083,2.083,0,1,0,0-4.166,16.675,16.675,0,0,0,0,33.349,2.083,2.083,0,1,0,0-4.166" transform="translate(-82.503 -254.315)" fill="#d8143b"/>
        <rect id="Rectángulo_427" data-name="Rectángulo 427" width="2.676" height="2.577" transform="translate(184.092 62.249)" fill="#f5b015"/>
        <path id="Trazado_2125" data-name="Trazado 2125" d="M269.546,319.98a1.289,1.289,0,1,0,1.288-1.287,1.288,1.288,0,0,0-1.288,1.287" transform="translate(-86.72 -256.444)" fill="#f5b015"/>
        <path id="Trazado_2126" data-name="Trazado 2126" d="M272.48,319.98a1.289,1.289,0,1,0,1.288-1.287,1.288,1.288,0,0,0-1.288,1.287" transform="translate(-87.078 -256.444)" fill="#f5b015"/>
        <rect id="Rectángulo_428" data-name="Rectángulo 428" width="2.676" height="2.577" transform="translate(181.265 55.046) rotate(-36.956)" fill="#f5b015"/>
        <path id="Trazado_2127" data-name="Trazado 2127" d="M267.461,312.243a1.289,1.289,0,1,0,.255-1.8,1.288,1.288,0,0,0-.255,1.8" transform="translate(-86.434 -255.407)" fill="#f5b015"/>
        <path id="Trazado_2128" data-name="Trazado 2128" d="M269.806,310.478a1.289,1.289,0,1,0,.255-1.8,1.288,1.288,0,0,0-.255,1.8" transform="translate(-86.72 -255.191)" fill="#f5b015"/>
        <rect id="Rectángulo_429" data-name="Rectángulo 429" width="2.675" height="2.577" transform="translate(175.063 50.241) rotate(-60.616)" fill="#f5b015"/>
        <path id="Trazado_2129" data-name="Trazado 2129" d="M261.184,306.66a1.288,1.288,0,1,0-.491-1.755,1.289,1.289,0,0,0,.491,1.755" transform="translate(-85.621 -254.684)" fill="#f5b015"/>
        <path id="Trazado_2130" data-name="Trazado 2130" d="M262.623,304.1a1.288,1.288,0,1,0-.491-1.755,1.289,1.289,0,0,0,.491,1.755" transform="translate(-85.796 -254.372)" fill="#f5b015"/>
        <rect id="Rectángulo_430" data-name="Rectángulo 430" width="2.578" height="2.676" transform="translate(181.384 71.705) rotate(-58.611)" fill="#f5b015"/>
        <path id="Trazado_2131" data-name="Trazado 2131" d="M267.413,327.371a1.288,1.288,0,1,0,1.771-.428,1.288,1.288,0,0,0-1.771.428" transform="translate(-86.437 -257.427)" fill="#f5b015"/>
        <path id="Trazado_2132" data-name="Trazado 2132" d="M269.918,328.9a1.288,1.288,0,1,0,1.771-.428,1.288,1.288,0,0,0-1.771.428" transform="translate(-86.742 -257.613)" fill="#f5b015"/>
        <rect id="Rectángulo_431" data-name="Rectángulo 431" width="2.577" height="2.675" transform="matrix(0.86, -0.511, 0.511, 0.86, 175.14, 76.161)" fill="#f5b015"/>
        <path id="Trazado_2133" data-name="Trazado 2133" d="M261.232,332.522a1.289,1.289,0,1,0,1.766.45,1.288,1.288,0,0,0-1.766-.45" transform="translate(-85.63 -258.108)" fill="#f5b015"/>
        <path id="Trazado_2134" data-name="Trazado 2134" d="M262.731,335.044a1.289,1.289,0,1,0,1.766.45,1.288,1.288,0,0,0-1.766-.45" transform="translate(-85.813 -258.416)" fill="#f5b015"/>
        <path id="Trazado_2135" data-name="Trazado 2135" d="M276.753,366.847h-58.5a1.869,1.869,0,1,1,0-3.739h58.5a1.869,1.869,0,1,1,0,3.739" transform="translate(-80.24 -261.859)" fill="#2e3433"/>
        <path id="Trazado_2136" data-name="Trazado 2136" d="M260.3,404.279H218.254a1.869,1.869,0,1,1,0-3.739H260.3a1.869,1.869,0,0,1,0,3.739" transform="translate(-80.24 -266.421)" fill="#2e3433"/>
        <path id="Trazado_2137" data-name="Trazado 2137" d="M297.33,377.3H218.254a1.87,1.87,0,1,1,0-3.74H297.33a1.87,1.87,0,0,1,0,3.74" transform="translate(-80.24 -263.133)" fill="#2e3433"/>
        <path id="Trazado_2138" data-name="Trazado 2138" d="M260.3,509.02H218.254a1.869,1.869,0,1,1,0-3.739H260.3a1.869,1.869,0,1,1,0,3.739" transform="translate(-80.24 -279.189)" fill="#2e3433"/>
        <path id="Trazado_2139" data-name="Trazado 2139" d="M297.33,498.182H218.254a1.87,1.87,0,1,1,0-3.74H297.33a1.87,1.87,0,0,1,0,3.74" transform="translate(-80.24 -277.868)" fill="#2e3433"/>
        <path id="Trazado_2140" data-name="Trazado 2140" d="M276.753,415.24h-58.5a1.869,1.869,0,1,1,0-3.739h58.5a1.869,1.869,0,1,1,0,3.739" transform="translate(-80.24 -267.758)" fill="#2e3433"/>
        <path id="Trazado_2141" data-name="Trazado 2141" d="M297.33,425.693H218.254a1.87,1.87,0,1,1,0-3.74H297.33a1.87,1.87,0,0,1,0,3.74" transform="translate(-80.24 -269.032)" fill="#2e3433"/>
        <path id="Trazado_2142" data-name="Trazado 2142" d="M276.753,454.658h-58.5a1.869,1.869,0,1,1,0-3.739h58.5a1.869,1.869,0,1,1,0,3.739" transform="translate(-80.24 -272.563)" fill="#2e3433"/>
        <path id="Trazado_2143" data-name="Trazado 2143" d="M297.33,465.111H218.254a1.87,1.87,0,1,1,0-3.74H297.33a1.87,1.87,0,0,1,0,3.74" transform="translate(-80.24 -273.837)" fill="#2e3433"/>
        <path id="Trazado_2144" data-name="Trazado 2144" d="M200.733,369.567a11.7,11.7,0,1,1-11.7-11.7,11.7,11.7,0,0,1,11.7,11.7" transform="translate(-75.479 -261.219)" fill="#96999e"/>
        <circle id="Elipse_35" data-name="Elipse 35" cx="11.702" cy="11.702" r="11.702" transform="translate(99.474 117.048) rotate(-76.717)" fill="none" stroke="#2e3433" stroke-linecap="round" stroke-linejoin="round" stroke-width="1"/>
      </g>
    </g>
    <g id="Grupo_540" data-name="Grupo 540" transform="translate(160.148 321.22)">
      <g id="Grupo_539" data-name="Grupo 539" clip-path="url(#clip-path-4)">
        <path id="Trazado_2146" data-name="Trazado 2146" d="M190.086,374.434a1.32,1.32,0,0,1,0,1.834l-1.023,1.023a1.32,1.32,0,0,1-1.834,0l-4.478-4.517a1.319,1.319,0,0,1,0-1.833l1.023-1.022a1.319,1.319,0,0,1,1.833,0Z" transform="translate(-182.38 -366.267)" fill="#fff"/>
        <path id="Trazado_2147" data-name="Trazado 2147" d="M194.486,366.183a1.32,1.32,0,0,1,1.834,0l1.023,1.023a1.321,1.321,0,0,1,0,1.834l-7.759,7.723a1.322,1.322,0,0,1-1.834,0l-1.022-1.023a1.32,1.32,0,0,1,0-1.834Z" transform="translate(-182.865 -365.812)" fill="#fff"/>
      </g>
    </g>
    <g id="Grupo_542" data-name="Grupo 542" transform="translate(53.863 217.596)">
      <g id="Grupo_541" data-name="Grupo 541" clip-path="url(#clip-path-3)">
        <path id="Trazado_2148" data-name="Trazado 2148" d="M200.733,411.613a11.7,11.7,0,1,1-11.7-11.7,11.7,11.7,0,0,1,11.7,11.7" transform="translate(-75.479 -266.345)" fill="#96999e"/>
        <circle id="Elipse_36" data-name="Elipse 36" cx="11.702" cy="11.702" r="11.702" transform="translate(99.474 153.969) rotate(-76.717)" fill="none" stroke="#2e3433" stroke-linecap="round" stroke-linejoin="round" stroke-width="1"/>
      </g>
    </g>
    <g id="Grupo_544" data-name="Grupo 544" transform="translate(160.148 358.141)">
      <g id="Grupo_543" data-name="Grupo 543" clip-path="url(#clip-path-4)">
        <path id="Trazado_2150" data-name="Trazado 2150" d="M190.086,416.48a1.32,1.32,0,0,1,0,1.834l-1.023,1.023a1.32,1.32,0,0,1-1.834,0l-4.478-4.517a1.319,1.319,0,0,1,0-1.833l1.023-1.022a1.319,1.319,0,0,1,1.833,0Z" transform="translate(-182.38 -408.314)" fill="#fff"/>
        <path id="Trazado_2151" data-name="Trazado 2151" d="M194.486,408.229a1.32,1.32,0,0,1,1.834,0l1.023,1.023a1.321,1.321,0,0,1,0,1.834l-7.759,7.723a1.322,1.322,0,0,1-1.834,0l-1.022-1.023a1.32,1.32,0,0,1,0-1.834Z" transform="translate(-182.865 -407.859)" fill="#fff"/>
      </g>
    </g>
    <g id="Grupo_546" data-name="Grupo 546" transform="translate(53.863 217.596)">
      <g id="Grupo_545" data-name="Grupo 545" clip-path="url(#clip-path-3)">
        <path id="Trazado_2152" data-name="Trazado 2152" d="M200.733,456.662a11.7,11.7,0,1,1-11.7-11.7,11.7,11.7,0,0,1,11.7,11.7" transform="translate(-75.479 -271.836)" fill="#96999e"/>
        <circle id="Elipse_37" data-name="Elipse 37" cx="11.702" cy="11.702" r="11.702" transform="translate(99.474 193.527) rotate(-76.717)" fill="none" stroke="#2e3433" stroke-linecap="round" stroke-linejoin="round" stroke-width="1"/>
      </g>
    </g>
    <g id="Grupo_548" data-name="Grupo 548" transform="translate(160.148 397.698)">
      <g id="Grupo_547" data-name="Grupo 547" clip-path="url(#clip-path-4)">
        <path id="Trazado_2154" data-name="Trazado 2154" d="M190.086,461.53a1.32,1.32,0,0,1,0,1.834l-1.023,1.023a1.32,1.32,0,0,1-1.834,0l-4.478-4.517a1.319,1.319,0,0,1,0-1.833l1.023-1.022a1.319,1.319,0,0,1,1.833,0Z" transform="translate(-182.38 -453.362)" fill="#fff"/>
        <path id="Trazado_2155" data-name="Trazado 2155" d="M194.486,453.279a1.321,1.321,0,0,1,1.834,0l1.023,1.023a1.321,1.321,0,0,1,0,1.834l-7.759,7.723a1.321,1.321,0,0,1-1.834,0l-1.022-1.023a1.32,1.32,0,0,1,0-1.834Z" transform="translate(-182.865 -452.907)" fill="#fff"/>
      </g>
    </g>
    <g id="Grupo_550" data-name="Grupo 550" transform="translate(53.863 217.596)">
      <g id="Grupo_549" data-name="Grupo 549" clip-path="url(#clip-path-3)">
        <path id="Trazado_2156" data-name="Trazado 2156" d="M200.733,498.709a11.7,11.7,0,1,1-11.7-11.7,11.7,11.7,0,0,1,11.7,11.7" transform="translate(-75.479 -276.962)" fill="#96999e"/>
        <circle id="Elipse_38" data-name="Elipse 38" cx="11.702" cy="11.702" r="11.702" transform="translate(101.85 210.045)" fill="none" stroke="#2e3433" stroke-linecap="round" stroke-linejoin="round" stroke-width="1"/>
      </g>
    </g>
    <g id="Grupo_552" data-name="Grupo 552" transform="translate(160.148 434.62)">
      <g id="Grupo_551" data-name="Grupo 551" clip-path="url(#clip-path-4)">
        <path id="Trazado_2158" data-name="Trazado 2158" d="M190.086,503.576a1.32,1.32,0,0,1,0,1.834l-1.023,1.023a1.32,1.32,0,0,1-1.834,0l-4.478-4.517a1.319,1.319,0,0,1,0-1.833l1.023-1.022a1.319,1.319,0,0,1,1.833,0Z" transform="translate(-182.38 -495.409)" fill="#fff"/>
        <path id="Trazado_2159" data-name="Trazado 2159" d="M194.486,495.325a1.32,1.32,0,0,1,1.834,0l1.023,1.023a1.321,1.321,0,0,1,0,1.834l-7.759,7.723a1.322,1.322,0,0,1-1.834,0l-1.022-1.023a1.32,1.32,0,0,1,0-1.834Z" transform="translate(-182.865 -494.954)" fill="#fff"/>
      </g>
    </g>
    <g id="Grupo_554" data-name="Grupo 554">
      <g id="Grupo_553" data-name="Grupo 553" clip-path="url(#clip-path-11)">
        <path id="Trazado_2160" data-name="Trazado 2160" d="M133.768,275.6a3.481,3.481,0,1,1-3.482-3.481,3.482,3.482,0,0,1,3.482,3.481" transform="translate(-15.458 -33.171)" fill="#f5b015"/>
        <path id="Trazado_2161" data-name="Trazado 2161" d="M105.893,477.476A3.481,3.481,0,1,1,102.411,474a3.482,3.482,0,0,1,3.482,3.481" transform="translate(-12.06 -57.78)" fill="#f5b015"/>
        <path id="Trazado_2162" data-name="Trazado 2162" d="M158.542,413.059a3.481,3.481,0,1,1-3.481-3.481,3.481,3.481,0,0,1,3.481,3.481" transform="translate(-18.477 -49.927)" fill="#f5b015"/>
        <path id="Trazado_2163" data-name="Trazado 2163" d="M220.184,221.758a3.48,3.48,0,1,1-3.481-3.481,3.481,3.481,0,0,1,3.481,3.481" transform="translate(-25.992 -26.608)" fill="#f5b015"/>
        <path id="Trazado_2164" data-name="Trazado 2164" d="M408.287,409.9a3.48,3.48,0,1,1-3.481-3.481,3.481,3.481,0,0,1,3.481,3.481" transform="translate(-48.921 -49.542)" fill="#f5b015"/>
        <path id="Trazado_2165" data-name="Trazado 2165" d="M287.656,246.159a2.293,2.293,0,1,1-2.293-2.293,2.293,2.293,0,0,1,2.293,2.293" transform="translate(-34.506 -29.727)" fill="#f5b015"/>
        <path id="Trazado_2166" data-name="Trazado 2166" d="M127.635,331.361l-7.978-9.309-12.293-.209,9.31-7.978.208-12.293,7.978,9.31,12.293.209-9.836,7.723Z" transform="translate(-13.088 -36.761)" fill="#f5b015"/>
        <path id="Trazado_2167" data-name="Trazado 2167" d="M307.8,230.688l-6.826-5.523-8.687,1.446,5.523-6.826-1.446-8.686,6.826,5.523,8.686-1.446-5.927,6.716Z" transform="translate(-35.63 -25.733)" fill="#f5b015"/>
        <path id="Trazado_2168" data-name="Trazado 2168" d="M242.708,217.741l-.044-4.807-3.635-3.166,4.807-.044L247,206.09l.043,4.807,3.635,3.166-4.9-.166Z" transform="translate(-29.137 -25.122)" fill="#f5b015"/>
        <path id="Trazado_2169" data-name="Trazado 2169" d="M339.728,239.29l-.02-2.271-1.718-1.5,2.27-.02,1.5-1.718.02,2.272,1.717,1.5-2.316-.079Z" transform="translate(-41.201 -28.498)" fill="#f5b015"/>
        <path id="Trazado_2170" data-name="Trazado 2170" d="M408.4,381.542l1.175-6.059-3.764-4.913,6.059,1.175,4.913-3.764-1.175,6.058,3.764,4.914-6.124-1.463Z" transform="translate(-49.468 -44.857)" fill="#f5b015"/>
        <path id="Trazado_2171" data-name="Trazado 2171" d="M168.051,239.357l3.5-.936,1.625-3.248.936,3.5,3.248,1.625-3.5.937-1.625,3.247-.8-3.606Z" transform="translate(-20.485 -28.667)" fill="#f5b015"/>
        <path id="Trazado_2172" data-name="Trazado 2172" d="M194.147,323.049l-8.158-8.158,8.158-8.159" transform="translate(-22.672 -37.39)" fill="none" stroke="#d8143b" stroke-linecap="round" stroke-miterlimit="10" stroke-width="5"/>
        <path id="Trazado_2173" data-name="Trazado 2173" d="M280.427,410.8s-13.894,4.071-24.493,7.567c-8.277-15.314-18.723-34.883-20.32-45.292-2.619-9.88-.646-11-1.593-14.951-.636-2.651-7.454-14.84-10.551-17.24a.585.585,0,0,0-.086-.116c-3.865-4.028-13.146-9.447-16.831-12.284-1.621-1.25-3.947-.375-1.866,3.108,2.511,4.2,7.531,9.033,11.027,11.686a16.758,16.758,0,0,1-5.191,4.657c-3.215,1.742-3.032,5.52-4.868,8.305s.511,7.164,3.929,10.564,12.994,2.211,12.152,10.651l.013,0c-1.592,16.224-.563,57.834,6.406,72.576,2.977,6.3,8.756,9.476,14.947,10.11,12.982,2.89,36.9.916,55.543-7.072,20.267-8.683,8.035-48.191-18.218-42.266" transform="translate(-24.851 -39.976)" fill="#fff"/>
        <path id="Trazado_2174" data-name="Trazado 2174" d="M280.427,410.8s-13.894,4.071-24.493,7.567c-8.277-15.314-18.723-34.883-20.32-45.292-2.619-9.88-.646-11-1.593-14.951-.636-2.651-7.454-14.84-10.551-17.24a.585.585,0,0,0-.086-.116c-3.865-4.028-13.146-9.447-16.831-12.284-1.621-1.25-3.947-.375-1.866,3.108,2.511,4.2,7.531,9.033,11.027,11.686a16.758,16.758,0,0,1-5.191,4.657c-3.215,1.742-3.032,5.52-4.868,8.305s.511,7.164,3.929,10.564,12.994,2.211,12.152,10.651l.013,0c-1.592,16.224-.563,57.834,6.406,72.576,2.977,6.3,8.756,9.476,14.947,10.11,12.982,2.89,36.9.916,55.543-7.072C318.912,444.384,306.68,404.875,280.427,410.8Z" transform="translate(-24.851 -39.976)" fill="none" stroke="#2e3433" stroke-linecap="round" stroke-linejoin="round" stroke-width="1"/>
        <path id="Trazado_2175" data-name="Trazado 2175" d="M267.483,429.713l20.923-6.123-.3-1.027-20.629,6.107Z" transform="translate(-32.605 -51.51)" fill="#101c3a"/>
        <path id="Trazado_2176" data-name="Trazado 2176" d="M358.813,421.94c3.145,6.438,4.464,15.15-8.53,26.755s-44.012,23.718-69.366,28.289c0,0-21.731-32.907-7.258-56.469,0,0,43.761-9.361,58.132-11.09s23.554,5.413,27.022,12.515" transform="translate(-32.753 -49.877)" fill="#f5b015"/>
        <path id="Trazado_2177" data-name="Trazado 2177" d="M358.813,421.94c3.145,6.438,4.464,15.15-8.53,26.755s-44.012,23.718-69.366,28.289c0,0-21.731-32.907-7.258-56.469,0,0,43.761-9.361,58.132-11.09S355.345,414.839,358.813,421.94Z" transform="translate(-32.753 -49.877)" fill="none" stroke="#2e3433" stroke-miterlimit="10" stroke-width="1"/>
        <path id="Trazado_2178" data-name="Trazado 2178" d="M304.668,519.43c-.005-.4-.526-39.646,2.357-58.059l-1.156-.182c-2.9,18.511-2.375,57.862-2.371,58.258Z" transform="translate(-36.991 -56.218)" fill="#fff"/>
        <path id="Trazado_2179" data-name="Trazado 2179" d="M407.291,469.482c4.038-13.456,1.233-34.05-3.255-46.141a15.535,15.535,0,0,0-6.182-7.67c-5.143-6.074-15.372-12.785-36.063-13.419-13.695-.42-23.018,4.219-28.361,5.847-.465.141-.943.3-1.428.459-.071.008-.141.013-.212.022-14.371,1.728-58.132,11.089-58.132,11.089-14.474,23.562,7.258,56.47,7.258,56.47a191.954,191.954,0,0,0,20.221-4.871c-1.031,19.472-1.5,37.149-1.5,37.149,60.78,25.252,89.92,17.14,111.008,10.226-.8-16.365-2.043-33.732-3.358-49.161" transform="translate(-32.753 -49.031)" fill="#f5b015"/>
        <path id="Trazado_2180" data-name="Trazado 2180" d="M407.291,469.482c4.038-13.456,1.233-34.05-3.255-46.141a15.535,15.535,0,0,0-6.182-7.67c-5.143-6.074-15.372-12.785-36.063-13.419-13.695-.42-23.018,4.219-28.361,5.847-.465.141-.943.3-1.428.459-.071.008-.141.013-.212.022-14.371,1.728-58.132,11.089-58.132,11.089-14.474,23.562,7.258,56.47,7.258,56.47a191.954,191.954,0,0,0,20.221-4.871c-1.031,19.472-1.5,37.149-1.5,37.149,60.78,25.252,89.92,17.14,111.008,10.226C409.85,502.278,408.605,484.911,407.291,469.482Z" transform="translate(-32.753 -49.031)" fill="none" stroke="#2e3433" stroke-miterlimit="10" stroke-width="1"/>
        <path id="Trazado_2181" data-name="Trazado 2181" d="M340.145,481.255l1.211.519c.09-.21,9.115-21.132,14.311-27.491l-1.02-.833c-5.312,6.5-14.129,26.938-14.5,27.805" transform="translate(-41.463 -55.275)" fill="#2e3433"/>
        <path id="Trazado_2182" data-name="Trazado 2182" d="M344.185,481.609a4.805,4.805,0,0,0-3.885,2.427,7.606,7.606,0,0,0-.75,1.717,1.347,1.347,0,0,0-.053.231c-2.428,9.833,20.331,47.36,36.065,45.815.217-.018.433-.036.624-.07l.016-.01a.119.119,0,0,0,.068,0c.019-.037.037-.061.056-.1,17.715-28.267-30.362-49.234-32.142-50.01" transform="translate(-41.363 -58.708)" fill="#2e3433"/>
        <path id="Trazado_2183" data-name="Trazado 2183" d="M366.721,513.585c-4.964-17.612-28.8-28.391-28.8-28.391l-9.332,13.579a30.768,30.768,0,0,0-9.131-.723l-45.1,3.171c-.6-.164-6.252-1.553-19.893.427-14.468,2.1-15.893,6.653-18.482,18.064s3.585,5.348,5.184,2.909c.934-1.427,2.174-5.022,3.823-7.629-.14.465-.27.957-.385,1.487-.983,4.557-2.365,15.9,2.51,18.478s2.8-8.212,2.8-8.212,1.808,7.29,3.694,6.468,3.309-5.756,2.208-10.061a33.867,33.867,0,0,1-.71-4.887,12.477,12.477,0,0,0,13.047,1.246c.686-.326,3.9-.025,7.023.589,0,0,35.015,16.34,55.464,21.691,8.77,2.3,16.284-2.66,24.8-11.082Z" transform="translate(-28.69 -59.145)" fill="#fff"/>
        <path id="Trazado_2184" data-name="Trazado 2184" d="M366.721,513.585c-4.964-17.612-28.8-28.391-28.8-28.391l-9.332,13.579a30.768,30.768,0,0,0-9.131-.723l-45.1,3.171c-.6-.164-6.252-1.553-19.893.427-14.468,2.1-15.893,6.653-18.482,18.064s3.585,5.348,5.184,2.909c.934-1.427,2.174-5.022,3.823-7.629-.14.465-.27.957-.385,1.487-.983,4.557-2.365,15.9,2.51,18.478s2.8-8.212,2.8-8.212,1.808,7.29,3.694,6.468,3.309-5.756,2.208-10.061a33.867,33.867,0,0,1-.71-4.887,12.477,12.477,0,0,0,13.047,1.246c.686-.326,3.9-.025,7.023.589,0,0,35.015,16.34,55.464,21.691,8.77,2.3,16.284-2.66,24.8-11.082Z" transform="translate(-28.69 -59.145)" fill="none" stroke="#2e3433" stroke-linecap="round" stroke-linejoin="round" stroke-width="1"/>
        <path id="Trazado_2185" data-name="Trazado 2185" d="M381.681,534.129l-.87-1.18c.137-.1,13.78-10.3,31.752-36.49l1.209.828c-18.133,26.425-31.955,36.741-32.091,36.841" transform="translate(-46.421 -60.518)" fill="#2e3433"/>
        <path id="Trazado_2186" data-name="Trazado 2186" d="M378.557,369.97c.7-10.957-18.207-11.6-18.207-11.6,22.055-22.112,38.087-.875,42.319,9.591,5.535,13.681,3.734,39.753-3.455,42.52l-1.973-1.945-1.767,3.581c-4.06,2.659-14.76,5.844-17.779,5.042,0,0,.818-46.509.861-47.185" transform="translate(-43.926 -42.504)" fill="#2e3433"/>
        <path id="Trazado_2187" data-name="Trazado 2187" d="M343.3,386.509l.077,19.312c1.118,1.627,7.149,5.968,22.249-4.089l-.112-23.687a200.721,200.721,0,0,1-22.214,8.464" transform="translate(-41.848 -46.083)" fill="#fff"/>
        <path id="Trazado_2188" data-name="Trazado 2188" d="M343.3,386.509l.077,19.312c1.118,1.627,7.149,5.968,22.249-4.089l-.112-23.687A200.721,200.721,0,0,1,343.3,386.509Z" transform="translate(-41.848 -46.083)" fill="none" stroke="#2e3433" stroke-linecap="round" stroke-linejoin="round" stroke-width="1"/>
        <path id="Trazado_2189" data-name="Trazado 2189" d="M343.329,387.848l.046,8.937c11.795.178,12.03-11.626,12.009-11.609a16.858,16.858,0,0,1-12.055,2.672" transform="translate(-41.851 -46.953)" fill="#2e3433"/>
        <path id="Trazado_2190" data-name="Trazado 2190" d="M364.577,380.906c1.6-1.467,3.38-6.43,3.663-9.08.873-8.31,1.907-15.741-2.892-20.215-2.026-1.879-12.012-5.546-14.257-6.524-5.144-2.24-8.382,5.81-11.651,13.19-3.668,8.28-8.258,23.31,1.6,27.521,2.786,1.191,7.532,1,12.146,0" transform="translate(-40.85 -42.019)" fill="#fff"/>
        <path id="Trazado_2191" data-name="Trazado 2191" d="M364.577,380.906c1.6-1.467,3.38-6.43,3.663-9.08.873-8.31,1.907-15.741-2.892-20.215-2.026-1.879-12.012-5.546-14.257-6.524-5.144-2.24-8.382,5.81-11.651,13.19-3.668,8.28-8.258,23.31,1.6,27.521,2.786,1.191,7.532,1,12.146,0" transform="translate(-40.85 -42.019)" fill="none" stroke="#2e3433" stroke-linecap="round" stroke-linejoin="round" stroke-width="1"/>
        <path id="Trazado_2192" data-name="Trazado 2192" d="M343.77,372.659l.616-.769c-.965-.775-2.363-2.229-2.3-2.89.005-.048.013-.14.195-.236,3.851-2.056,5.258-7.511,5.317-7.743l.052-.205-.113-.177a6.889,6.889,0,0,0-5.191-2.786l-.085.983A6.079,6.079,0,0,1,346.578,361c-.3,1.008-1.705,5.266-4.765,6.9a1.25,1.25,0,0,0-.71,1.015c-.134,1.428,2.2,3.375,2.667,3.75" transform="translate(-41.579 -43.622)" fill="#2e3433"/>
        <path id="Trazado_2193" data-name="Trazado 2193" d="M361.7,329.185c9,3.918,15.527,9.318,21.182,19.751,5.681,10.487-15.548,32.893-18.058,34.584a2.94,2.94,0,0,1-.92.442l5.2-11.93-5.675-4.953c.89-3.335,2.587-3.874,3.639-6.289,2.96-6.8-10.056-13.912-18.74-16.955-6.794-2.381-3.242-21.888,13.377-14.649" transform="translate(-42.064 -39.932)" fill="#2e3433"/>
        <path id="Trazado_2194" data-name="Trazado 2194" d="M367.271,372.327a5.681,5.681,0,1,0,8.017-.52,5.68,5.68,0,0,0-8.017.52" transform="translate(-44.598 -45.151)" fill="#fff"/>
        <path id="Trazado_2195" data-name="Trazado 2195" d="M371.23,379.4a3.692,3.692,0,0,0,1.512.272l-.028-.985c-.014,0-1.473,0-1.584-.723a.354.354,0,0,1,0-.155,1.873,1.873,0,0,1,.3-.115,1.818,1.818,0,0,0,1.414-1.514,3.111,3.111,0,0,0-.214-1.723c-.2-.567-.235-.655.513-1.026a.685.685,0,0,1,.606-.025c.913.407,1.667,2.256,1.87,2.886l.939-.3c-.094-.291-.952-2.85-2.406-3.484l-.018-.007a1.664,1.664,0,0,0-1.429.048c-1.419.7-1.293,1.431-1,2.242a2.189,2.189,0,0,1,.174,1.21c-.1.538-.362.627-.758.759a1.138,1.138,0,0,0-.957,1.355,1.671,1.671,0,0,0,1.076,1.286" transform="translate(-45.119 -45.39)" fill="#2e3433"/>
        <path id="Trazado_2196" data-name="Trazado 2196" d="M339.889,376.8s3.544,4.535,8.415,3.279c0,0-4,4.136-6.667,3.026s-1.748-6.3-1.748-6.3" transform="translate(-41.414 -45.932)" fill="#2e3433"/>
        <path id="Trazado_2197" data-name="Trazado 2197" d="M353.713,362.58c.1-.073,2.484-1.747,6.839,1.364l.573-.8c-4.991-3.563-7.885-1.439-8.006-1.348Z" transform="translate(-43.045 -44.015)" fill="#2e3433"/>
        <path id="Trazado_2198" data-name="Trazado 2198" d="M355.447,368.07a1.916,1.916,0,1,1-.991-2.521,1.915,1.915,0,0,1,.991,2.521" transform="translate(-42.881 -44.541)" fill="#2e3433"/>
        <path id="Trazado_2199" data-name="Trazado 2199" d="M343.409,362.828a1.916,1.916,0,1,1-.991-2.521,1.916,1.916,0,0,1,.991,2.521" transform="translate(-41.414 -43.902)" fill="#2e3433"/>
        <path id="Trazado_2200" data-name="Trazado 2200" d="M354.4,421.584c4.485-1.047,9.282-3.727,13.928-9.181l-.907-.774c-15.451,18.136-32.106,4.573-32.811,3.986l-.764.915c.128.108,9.375,7.66,20.555,5.054" transform="translate(-40.696 -50.177)" fill="#2e3433"/>
        <path id="Trazado_2201" data-name="Trazado 2201" d="M143.39,354.6s-38.087,12.795-32.9,56.7-2.28,97.412-2.28,97.412h21.711s38.673-52.139,10.175-91.2,3.3-62.912,3.3-62.912" transform="translate(-13.19 -43.225)" fill="#f4cc08"/>
        <path id="Trazado_2202" data-name="Trazado 2202" d="M107.564,507.775c.075-.535,7.393-53.939,2.279-97.271-5.176-43.851,32.9-57.169,33.281-57.3l3.285-1.1-2.773,2.08c-.313.234-31.031,23.956-3.181,62.136,28.411,38.946-9.789,91.342-10.178,91.866l-.168.226H107.475Zm31.988-90.516c-23.546-32.28-6.063-54.538.9-61.429-8.838,4.179-33.7,19.232-29.5,54.827,4.829,40.911-1.384,90.735-2.2,96.919h20.788c2.7-3.775,37-53.321,10.009-90.317" transform="translate(-13.101 -42.921)" fill="#131313"/>
        <path id="Trazado_2203" data-name="Trazado 2203" d="M140.373,357.713c-6.931,5.722-27.092,26.511-5.366,60.925,25.814,40.89-16.269,90.319-16.269,90.319l-10.422-.7c-.068.532-.112.84-.112.84h21.711s38.673-52.139,10.175-91.2c-22.868-31.354-6.914-52.89.283-60.176" transform="translate(-13.19 -43.605)" fill="#131313"/>
        <path id="Trazado_2204" data-name="Trazado 2204" d="M105.868,476.172c2.033-38.967.461-43.836-14.687-56.7s-36.493-34.023-36.493-34.023C69.229,414.236,68.937,427.32,71.671,448.5c2.124,16.429,26.8,49.222,37.77,63.108-2.43-5.63-4.586-16.089-3.573-35.434" transform="translate(-6.666 -46.986)" fill="#f4cc08"/>
        <path id="Trazado_2205" data-name="Trazado 2205" d="M108.718,511.562c-10.675-13.517-35.735-46.754-37.886-63.381-.378-2.935-.7-5.716-1.009-8.4-1.919-16.624-3.434-29.755-15.917-54.469l-1.548-3.067L54.8,384.66c.213.212,21.5,21.287,36.462,33.994,15.506,13.172,16.9,18.515,14.881,57.157-1.043,19.9,1.343,30.119,3.527,35.184Zm-3.692-35.809c1.99-38.142.636-43.4-14.49-56.249-12.041-10.227-28.163-25.855-34.155-31.72C67.6,410.777,69.079,423.6,70.932,439.65c.311,2.683.631,5.457,1.01,8.386,1.98,15.322,23.988,45.294,35.486,60.071-2.324-7.55-3.131-18.406-2.4-32.354" transform="translate(-6.382 -46.595)" fill="#131313"/>
        <path id="Trazado_2206" data-name="Trazado 2206" d="M104.3,466.69c-7.561,32.37,8.517,54.125,8.517,54.125h15.851c-.054-11.157.745-21.857,6-32.679a11.967,11.967,0,0,1,.966-1.607c-2.234-1.045-4.72-2.1-7.488-3.166-29.271-11.245-16.284-49.045-23.845-16.672" transform="translate(-12.468 -55.326)" fill="#131313"/>
        <path id="Trazado_2207" data-name="Trazado 2207" d="M143.15,480.86c-15.433,9.329-8.169,43.774-8.169,43.774l15.086-.242s-3.5-11.129,5.813-24.274,16.435-8.913,16.435-8.913-13.732-19.674-29.164-10.346" transform="translate(-16.246 -58.311)" fill="#131313"/>
        <path id="Trazado_2208" data-name="Trazado 2208" d="M57.672,454.622c-27.017,0-42.126,16.281-42.126,16.281s10.516-5.345,29.33-4.65,17.447,16.673,32.569,31.6,27.722,17.059,27.722,17.059-20.028-28.964-34.7-48.656c-2.583-3.468-.068-11.63-12.795-11.63" transform="translate(-1.895 -55.418)" fill="#131313"/>
        <path id="Trazado_2209" data-name="Trazado 2209" d="M23.118,478.783a2.281,2.281,0,0,0-.136.449s.042-.162.136-.449" transform="translate(-2.801 -58.363)" fill="#faf9fc"/>
        <path id="Trazado_2210" data-name="Trazado 2210" d="M78.851,471.692c-5.042-6.786.192-23.456-31.987-19.58-29.393,3.541-36.3,20.98-37.279,23.976.742-1.933,5.446-9.811,33.789-16.22,32.567-7.367,15.315,9.5,30.049,20.16s26.751,30.629,26.751,30.629,8.335,13.957,6.4,2.324-22.68-34.507-27.719-41.289" transform="translate(-1.169 -55.042)" fill="#f4cc08"/>
        <path id="Trazado_2211" data-name="Trazado 2211" d="M99.623,510.867c-.12-.2-12.129-19.99-26.6-30.464-5.744-4.157-6.791-9.305-7.634-13.442-.645-3.167-1.155-5.669-3.378-7.1-2.913-1.884-8.82-1.732-18.587.477-28.45,6.435-32.806,14.354-33.391,15.877l-1.051-.373c1.122-3.443,8.222-20.8,37.742-24.356,25.16-3.031,27.922,6.422,30.138,14.019a18.616,18.616,0,0,0,2.364,5.782c1.038,1.4,2.8,3.548,4.844,6.04,8.01,9.772,21.417,26.128,22.977,35.49.549,3.286.356,4.845-.642,5.211a.978.978,0,0,1-.349.061c-1.836,0-4.779-4.447-6.432-7.216m-21.294-38.92a19.327,19.327,0,0,1-2.539-6.134c-2.208-7.567-4.71-16.141-28.933-13.225-21.96,2.646-31.19,13.006-34.825,19.273,3.88-3.483,12.415-8.38,31.146-12.616,10.218-2.312,16.211-2.414,19.439-.327,2.617,1.691,3.2,4.531,3.865,7.82.846,4.152,1.8,8.858,7.193,12.759,14.655,10.607,26.782,30.593,26.9,30.794,2.206,3.693,4.8,6.818,5.433,6.687.005,0,.526-.428-.068-3.984-1.512-9.067-14.8-25.28-22.739-34.965-2.136-2.6-3.822-4.664-4.877-6.083" transform="translate(-1.095 -54.964)" fill="#131313"/>
        <path id="Trazado_2212" data-name="Trazado 2212" d="M188.535,491.544c-16.95-28.853-34.568-25.562-45.887-18.117-16.057,10.566-10.375,49.189-10.375,49.189l2.466.593s-.18-7.566.125-20.616,5.244-31.911,27.664-7.919,51.761,26.4,51.761,26.4-8.8-.673-25.753-29.528" transform="translate(-16.005 -57.082)" fill="#f4cc08"/>
        <path id="Trazado_2213" data-name="Trazado 2213" d="M214.152,521.549c-.637-.056-29.937-2.841-52.114-26.573-8.41-9-14.987-12.676-19.56-10.939-6.105,2.326-7.026,13.7-7.138,18.489-.3,12.884-.126,20.514-.125,20.59l.018.725-3.539-.85-.054-.373c-.234-1.591-5.549-39.1,10.62-49.737,7.14-4.7,14.29-6.256,21.254-4.633,9.186,2.14,17.739,9.856,25.42,22.934,16.45,28,25.205,29.242,25.315,29.254h0l-.088,1.113h-.011m-71.279-47.734c-14.744,9.7-10.7,44.282-10.18,48.268l1.393.335c-.035-2.193-.112-9.265.138-19.917.117-5.01,1.119-16.939,7.857-19.507,5.036-1.915,12.023,1.856,20.772,11.22,17.289,18.5,38.96,24.1,47.595,25.665-4.132-2.7-11.673-9.743-22.476-28.132-7.522-12.8-15.837-20.344-24.712-22.412a22.416,22.416,0,0,0-6.808-.526,28.672,28.672,0,0,0-13.58,5.005" transform="translate(-15.922 -57.003)" fill="#131313"/>
        <path id="Trazado_2214" data-name="Trazado 2214" d="M151.74,451.626c-4.628-3.4-9.327-2.815-12.957-1.3a15.507,15.507,0,0,1-13.982-1.279c-15.492-9.376-16.679,3.512-16.679,3.512l.419,3.49a.171.171,0,0,1,.023.115c1.117,6.466,4.747,19.914,20.286,25.893,2.767,1.069,27.146,11.63,27.146,11.63-3.3-13.376,5.235-35.079-4.256-42.059" transform="translate(-13.18 -54.321)" fill="#f4cc08"/>
        <path id="Trazado_2215" data-name="Trazado 2215" d="M155.7,494.12c-.243-.105-24.4-10.57-27.125-11.622-11.257-4.332-18.387-13.411-20.624-26.257l-.464-3.755.005-.059c.018-.195.482-4.792,4.21-6.672,3.185-1.61,7.664-.688,13.313,2.733a15.041,15.041,0,0,0,13.48,1.241c4.857-2.022,9.525-1.55,13.5,1.368v0c5.957,4.38,5.145,13.928,4.285,24.038-.548,6.436-1.113,13.09.182,18.336l.27,1.095ZM151.332,452c-3.7-2.713-7.873-3.131-12.412-1.237a16.163,16.163,0,0,1-14.486-1.317c-5.3-3.2-9.409-4.11-12.226-2.7-2.978,1.5-3.54,5.237-3.6,5.73l.4,3.331a.4.4,0,0,1,.03.183c2.153,12.47,9.047,21.275,19.936,25.466,2.459.949,21.489,9.181,26.165,11.205-1.026-5.226-.491-11.52.028-17.62.832-9.788,1.619-19.033-3.835-23.044Z" transform="translate(-13.102 -54.244)" fill="#131313"/>
        <rect id="Rectángulo_436" data-name="Rectángulo 436" width="256.923" height="2.134" transform="translate(69.229 465.076)" fill="#131313"/>
        <path id="Trazado_2216" data-name="Trazado 2216" d="M366.721,513.585c-4.964-17.612-28.8-28.391-28.8-28.391l-9.332,13.579a30.768,30.768,0,0,0-9.131-.723l-45.1,3.171c-.6-.164-6.252-1.553-19.893.427-14.468,2.1-15.893,6.653-18.482,18.064s3.585,5.348,5.184,2.909c.934-1.427,2.174-5.022,3.823-7.629-.14.465-.27.957-.385,1.487-.983,4.557-2.365,15.9,2.51,18.478s2.8-8.212,2.8-8.212,1.808,7.29,3.694,6.468,3.309-5.756,2.208-10.061a33.867,33.867,0,0,1-.71-4.887,12.477,12.477,0,0,0,13.047,1.246c.686-.326,3.9-.025,7.023.589,0,0,35.015,16.34,55.464,21.691,8.77,2.3,16.284-2.66,24.8-11.082Z" transform="translate(-28.69 -59.145)" fill="#fff"/>
        <path id="Trazado_2217" data-name="Trazado 2217" d="M366.721,513.585c-4.964-17.612-28.8-28.391-28.8-28.391l-9.332,13.579a30.768,30.768,0,0,0-9.131-.723l-45.1,3.171c-.6-.164-6.252-1.553-19.893.427-14.468,2.1-15.893,6.653-18.482,18.064s3.585,5.348,5.184,2.909c.934-1.427,2.174-5.022,3.823-7.629-.14.465-.27.957-.385,1.487-.983,4.557-2.365,15.9,2.51,18.478s2.8-8.212,2.8-8.212,1.808,7.29,3.694,6.468,3.309-5.756,2.208-10.061a33.867,33.867,0,0,1-.71-4.887,12.477,12.477,0,0,0,13.047,1.246c.686-.326,3.9-.025,7.023.589,0,0,35.015,16.34,55.464,21.691,8.77,2.3,16.284-2.66,24.8-11.082Z" transform="translate(-28.69 -59.145)" fill="none" stroke="#2e3433" stroke-linecap="round" stroke-linejoin="round" stroke-width="1"/>
      </g>
    </g>
  </g>
</svg>
