<svg id="Grupo_602" data-name="Grupo 602" xmlns="http://www.w3.org/2000/svg" xmlns:xlink="http://www.w3.org/1999/xlink" width="311.158" height="293" viewBox="0 0 311.158 293">
  <defs>
    <clipPath id="clip-path">
      <rect id="Rectángulo_205" data-name="Rectángulo 205" width="311.158" height="293" fill="none"/>
    </clipPath>
    <clipPath id="clip-path-2">
      <path id="Trazado_901" data-name="Trazado 901" d="M95.092,29.878,40.219,115.547,95.092,271.22H293.477V29.878Z" transform="translate(-40.219 -29.878)" fill="none"/>
    </clipPath>
    <clipPath id="clip-path-4">
      <rect id="Rectángulo_199" data-name="Rectángulo 199" width="45.544" height="46.223" fill="none"/>
    </clipPath>
    <clipPath id="clip-path-6">
      <rect id="Rectángulo_202" data-name="Rectángulo 202" width="246.766" height="189.203" fill="none"/>
    </clipPath>
  </defs>
  <g id="Grupo_320" data-name="Grupo 320" clip-path="url(#clip-path)">
    <g id="Grupo_305" data-name="Grupo 305">
      <path id="Trazado_877" data-name="Trazado 877" d="M298.717,123.472C275.708,79.386,222.931,101.677,169.65,29.6,112.541-47.647,3.007,39.464,23.461,139.812,43.816,239.689,100.6,272.491,187.308,259.069c65.2-10.093,145.6-70.084,111.409-135.6" transform="translate(-3.01)" fill="#fff"/>
      <rect id="Rectángulo_190" data-name="Rectángulo 190" width="311.158" height="292" fill="none"/>
    </g>
    <g id="Grupo_307" data-name="Grupo 307" transform="translate(34.44 25.585)">
      <g id="Grupo_306" data-name="Grupo 306" clip-path="url(#clip-path-2)">
        <path id="Trazado_878" data-name="Trazado 878" d="M302.435,61.875V339.292a21.129,21.129,0,0,1-21.1,21.1h-55.5v-.042H155.816a21.126,21.126,0,0,1-19.837-21.06V61.875a21.129,21.129,0,0,1,21.1-21.1H281.332a21.122,21.122,0,0,1,21.1,21.1" transform="translate(-53.977 -31.443)" fill="#dbe0e6"/>
        <path id="Trazado_879" data-name="Trazado 879" d="M302.435,61.875V339.292a21.129,21.129,0,0,1-21.1,21.1h-55.5v-.042H155.816a21.126,21.126,0,0,1-19.837-21.06V61.875a21.129,21.129,0,0,1,21.1-21.1H281.332A21.122,21.122,0,0,1,302.435,61.875Z" transform="translate(-53.977 -31.443)" fill="none" stroke="#2e3433" stroke-miterlimit="10" stroke-width="1"/>
        <path id="Trazado_880" data-name="Trazado 880" d="M298.53,62.656V340.081a16.409,16.409,0,0,1-16.414,16.406H157.866a16.407,16.407,0,0,1-16.405-16.406V62.656a16.406,16.406,0,0,1,16.405-16.405h124.25A16.409,16.409,0,0,1,298.53,62.656" transform="translate(-54.765 -32.23)" fill="#fff"/>
        <path id="Trazado_881" data-name="Trazado 881" d="M298.53,62.656V340.081a16.409,16.409,0,0,1-16.414,16.406H157.866a16.407,16.407,0,0,1-16.405-16.406V62.656a16.406,16.406,0,0,1,16.405-16.405h124.25A16.409,16.409,0,0,1,298.53,62.656Z" transform="translate(-54.765 -32.23)" fill="none" stroke="#2e3433" stroke-miterlimit="10" stroke-width="1"/>
        <path id="Trazado_882" data-name="Trazado 882" d="M249.268,49.443H210.586a1.563,1.563,0,1,0,0,3.126h38.682a1.563,1.563,0,1,0,0-3.126" transform="translate(-64.472 -32.689)" fill="#2e3433"/>
        <rect id="Rectángulo_191" data-name="Rectángulo 191" width="7.331" height="0.929" transform="matrix(0.707, -0.708, 0.708, 0.707, 100.996, 33.782)" fill="#2e3433"/>
        <rect id="Rectángulo_192" data-name="Rectángulo 192" width="0.929" height="7.331" transform="translate(100.995 29.253) rotate(-45)" fill="#2e3433"/>
        <rect id="Rectángulo_193" data-name="Rectángulo 193" width="8.315" height="0.928" transform="translate(220.721 32.763)" fill="#361e4d"/>
        <path id="Trazado_883" data-name="Trazado 883" d="M232.576,122.263l.049,3.007-2.711.044-.047-2.9a8.6,8.6,0,0,1-6.377-2.421l2.377-2.456a6.121,6.121,0,0,0,4.3,1.542l-.079-4.86-.861-.093a6.415,6.415,0,0,1-3.731-1.552,4.988,4.988,0,0,1-1.43-3.71c-.05-3.088,2.008-5.4,5.492-5.836l-.039-2.417,2.712-.044.039,2.39a7.847,7.847,0,0,1,5.325,2.116l-2.325,2.375a5.362,5.362,0,0,0-3.323-1.237l.075,4.672,1.023.145a6.5,6.5,0,0,1,3.675,1.445,5.3,5.3,0,0,1,1.542,4c.052,3.275-2.332,5.328-5.682,5.784m-2.62-15.99a2.381,2.381,0,0,0-2.3,2.4,1.846,1.846,0,0,0,.586,1.361,3.169,3.169,0,0,0,1.785.724Zm4.035,8.77a3.258,3.258,0,0,0-1.917-.667l.074,4.618c1.607-.214,2.481-1.034,2.46-2.349a2.133,2.133,0,0,0-.617-1.6" transform="translate(-66.551 -40.035)" fill="#d8143b"/>
        <path id="Trazado_884" data-name="Trazado 884" d="M235.951,80.93a1.232,1.232,0,0,1-1.36,1.038H228.3a1.232,1.232,0,0,1-1.36-1.038V77.239A1.232,1.232,0,0,1,228.3,76.2h6.291a1.232,1.232,0,0,1,1.36,1.038Z" transform="translate(-67.046 -36.534)" fill="#f5b015"/>
        <path id="Trazado_885" data-name="Trazado 885" d="M228.184,128.871a18.068,18.068,0,1,1,0-36.137,3.009,3.009,0,0,0,0-6.017,24.086,24.086,0,1,0,0,48.172,3.009,3.009,0,0,0,0-6.017" transform="translate(-63.765 -38.044)" fill="#d8143b"/>
        <rect id="Rectángulo_194" data-name="Rectángulo 194" width="3.865" height="3.723" transform="translate(186.039 70.829)" fill="#f5b015"/>
        <path id="Trazado_886" data-name="Trazado 886" d="M255.336,114.45a1.861,1.861,0,1,0,1.861-1.861,1.861,1.861,0,0,0-1.861,1.861" transform="translate(-71.126 -41.762)" fill="#f5b015"/>
        <path id="Trazado_887" data-name="Trazado 887" d="M259.682,114.45a1.861,1.861,0,1,0,1.861-1.861,1.861,1.861,0,0,0-1.861,1.861" transform="translate(-71.751 -41.762)" fill="#f5b015"/>
        <rect id="Rectángulo_195" data-name="Rectángulo 195" width="3.865" height="3.723" transform="matrix(0.799, -0.601, 0.601, 0.799, 181.955, 60.425)" fill="#f5b015"/>
        <path id="Trazado_888" data-name="Trazado 888" d="M252.238,102.959a1.861,1.861,0,1,0,.368-2.607,1.862,1.862,0,0,0-.368,2.607" transform="translate(-70.627 -39.95)" fill="#f5b015"/>
        <path id="Trazado_889" data-name="Trazado 889" d="M255.711,100.346a1.861,1.861,0,1,0,.368-2.607,1.862,1.862,0,0,0-.368,2.607" transform="translate(-71.126 -39.574)" fill="#f5b015"/>
        <rect id="Rectángulo_196" data-name="Rectángulo 196" width="3.865" height="3.723" transform="matrix(0.491, -0.871, 0.871, 0.491, 172.996, 53.484)" fill="#f5b015"/>
        <path id="Trazado_890" data-name="Trazado 890" d="M242.925,94.678a1.861,1.861,0,1,0-.709-2.535,1.861,1.861,0,0,0,.709,2.535" transform="translate(-69.207 -38.688)" fill="#f5b015"/>
        <path id="Trazado_891" data-name="Trazado 891" d="M245.057,90.891a1.861,1.861,0,1,0-.709-2.535,1.861,1.861,0,0,0,.709,2.535" transform="translate(-69.513 -38.144)" fill="#f5b015"/>
        <rect id="Rectángulo_197" data-name="Rectángulo 197" width="3.723" height="3.864" transform="translate(182.127 84.487) rotate(-58.603)" fill="#f5b015"/>
        <path id="Trazado_892" data-name="Trazado 892" d="M252.169,125.42a1.861,1.861,0,1,0,2.559-.619,1.862,1.862,0,0,0-2.559.619" transform="translate(-70.632 -43.477)" fill="#f5b015"/>
        <path id="Trazado_893" data-name="Trazado 893" d="M255.879,127.684a1.861,1.861,0,1,0,2.559-.619,1.862,1.862,0,0,0-2.559.619" transform="translate(-71.165 -43.802)" fill="#f5b015"/>
        <rect id="Rectángulo_198" data-name="Rectángulo 198" width="3.723" height="3.865" transform="translate(173.107 90.924) rotate(-30.731)" fill="#f5b015"/>
        <path id="Trazado_894" data-name="Trazado 894" d="M243,133.065a1.861,1.861,0,1,0,2.551.649,1.861,1.861,0,0,0-2.551-.649" transform="translate(-69.223 -44.666)" fill="#f5b015"/>
        <path id="Trazado_895" data-name="Trazado 895" d="M245.219,136.8a1.861,1.861,0,1,0,2.551.649,1.861,1.861,0,0,0-2.551-.649" transform="translate(-69.542 -45.203)" fill="#f5b015"/>
        <path id="Trazado_896" data-name="Trazado 896" d="M260.811,161.218H168.6a1.823,1.823,0,1,1,0-3.646h92.207a1.823,1.823,0,1,1,0,3.646" transform="translate(-58.403 -48.225)" fill="#2e3433"/>
        <path id="Trazado_897" data-name="Trazado 897" d="M244.768,182.508H168.6a1.823,1.823,0,1,1,0-3.646h76.164a1.823,1.823,0,0,1,0,3.646" transform="translate(-58.403 -51.283)" fill="#2e3433"/>
        <path id="Trazado_898" data-name="Trazado 898" d="M280.879,171.67H168.6a1.824,1.824,0,1,1,0-3.647H280.879a1.824,1.824,0,0,1,0,3.647" transform="translate(-58.403 -49.726)" fill="#2e3433"/>
        <path id="Trazado_899" data-name="Trazado 899" d="M260.811,193.468H168.6a1.823,1.823,0,1,1,0-3.646h92.207a1.823,1.823,0,1,1,0,3.646" transform="translate(-58.403 -52.858)" fill="#2e3433"/>
        <path id="Trazado_900" data-name="Trazado 900" d="M280.879,203.921H168.6a1.824,1.824,0,1,1,0-3.647H280.879a1.824,1.824,0,0,1,0,3.647" transform="translate(-58.403 -54.36)" fill="#2e3433"/>
      </g>
    </g>
    <g id="Grupo_315" data-name="Grupo 315">
      <g id="Grupo_314" data-name="Grupo 314" clip-path="url(#clip-path)">
        <path id="Trazado_902" data-name="Trazado 902" d="M342.989,148.164l-.154.015,1.272,12.609,10.086-7.25-.343-.554a12.011,12.011,0,0,0-10.862-4.82" transform="translate(-49.257 -21.279)" fill="#f5b015"/>
        <path id="Trazado_903" data-name="Trazado 903" d="M100.043,97.117,84.926,101.76l0,.005.239.95a14.447,14.447,0,0,0,5.867,7.84Z" transform="translate(-12.202 -13.953)" fill="#f5b015"/>
        <path id="Trazado_904" data-name="Trazado 904" d="M70.629,57.586a3.394,3.394,0,1,1-3.4-3.394,3.4,3.4,0,0,1,3.4,3.394" transform="translate(-9.172 -7.786)" fill="#f5b015"/>
        <path id="Trazado_905" data-name="Trazado 905" d="M42.755,259.465a3.394,3.394,0,1,1-3.4-3.394,3.4,3.4,0,0,1,3.4,3.394" transform="translate(-5.167 -36.791)" fill="#f5b015"/>
        <path id="Trazado_906" data-name="Trazado 906" d="M95.4,195.047a3.394,3.394,0,1,1-3.394-3.394,3.395,3.395,0,0,1,3.394,3.394" transform="translate(-12.732 -27.536)" fill="#f5b015"/>
        <path id="Trazado_907" data-name="Trazado 907" d="M130.016,26.918a3.394,3.394,0,1,1-3.394-3.394,3.395,3.395,0,0,1,3.394,3.394" transform="translate(-17.705 -3.38)" fill="#f5b015"/>
        <path id="Trazado_908" data-name="Trazado 908" d="M345.149,191.89a3.394,3.394,0,1,1-3.394-3.394,3.395,3.395,0,0,1,3.394,3.394" transform="translate(-48.615 -27.082)" fill="#f5b015"/>
        <path id="Trazado_909" data-name="Trazado 909" d="M110.547,62.849a2.236,2.236,0,1,1-2.236-2.236,2.236,2.236,0,0,1,2.236,2.236" transform="translate(-15.24 -8.709)" fill="#f5b015"/>
        <path id="Trazado_910" data-name="Trazado 910" d="M221.967,19.848a2.236,2.236,0,1,1-2.236-2.236,2.236,2.236,0,0,1,2.236,2.236" transform="translate(-31.249 -2.53)" fill="#f5b015"/>
        <path id="Trazado_911" data-name="Trazado 911" d="M76.332,2.414,10.893,16.8A9.3,9.3,0,0,0,4.128,28.081l9.721,43.362a9.426,9.426,0,0,0,10.958,7.413l45.75-10.25L96.2,79.637,90.245,64.472A9.3,9.3,0,0,0,97.011,53.19L87.29,9.826A9.428,9.428,0,0,0,76.332,2.414" transform="translate(-0.558 -0.318)" fill="#f5b015"/>
        <path id="Trazado_912" data-name="Trazado 912" d="M76.332,2.414,10.893,16.8A9.3,9.3,0,0,0,4.128,28.081l9.721,43.362a9.426,9.426,0,0,0,10.958,7.413l45.75-10.25L96.2,79.637,90.245,64.472A9.3,9.3,0,0,0,97.011,53.19L87.29,9.826A9.428,9.428,0,0,0,76.332,2.414Z" transform="translate(-0.558 -0.318)" fill="none" stroke="#2e3433" stroke-miterlimit="10" stroke-width="1"/>
        <path id="Trazado_913" data-name="Trazado 913" d="M35.378,49.9a5.606,5.606,0,1,0-4.294,6.664A5.606,5.606,0,0,0,35.378,49.9" transform="translate(-3.49 -6.533)" fill="#fff"/>
        <path id="Trazado_914" data-name="Trazado 914" d="M60.266,44.515a5.606,5.606,0,1,0-4.294,6.664,5.606,5.606,0,0,0,4.294-6.664" transform="translate(-7.066 -5.76)" fill="#fff"/>
        <path id="Trazado_915" data-name="Trazado 915" d="M85.154,39.134A5.606,5.606,0,1,0,80.859,45.8a5.606,5.606,0,0,0,4.294-6.664" transform="translate(-10.642 -4.987)" fill="#fff"/>
        <path id="Trazado_916" data-name="Trazado 916" d="M251.158,220.447l-2.2-3.139-5.409,3.912,2.2,3.141a3.274,3.274,0,0,0,4.617.777,3.4,3.4,0,0,0,.789-4.69" transform="translate(-34.993 -31.222)" fill="#96999e"/>
        <path id="Trazado_917" data-name="Trazado 917" d="M247.573,225.826a3.471,3.471,0,0,1-2.038-1.4l-2.316-3.307,5.742-4.153,2.317,3.311a3.613,3.613,0,0,1-.836,4.976,3.477,3.477,0,0,1-2.628.618c-.081-.013-.162-.03-.242-.049m-3.783-4.607,2.083,2.976a3.068,3.068,0,0,0,4.328.727,3.2,3.2,0,0,0,.742-4.4l-2.078-2.969Z" transform="translate(-34.945 -31.173)" fill="#2e3433"/>
        <path id="Trazado_918" data-name="Trazado 918" d="M210.339,172.175l3.755,5.361,3.991-2.89-3.709-5.3Z" transform="translate(-30.221 -24.332)" fill="#96999e"/>
        <path id="Trazado_919" data-name="Trazado 919" d="M214,177.778l-3.992-5.7,4.374-3.06,3.944,5.631Zm-3.418-5.6,3.516,5.022,3.658-2.649-3.476-4.962Z" transform="translate(-30.173 -24.284)" fill="#2e3433"/>
        <g id="Grupo_310" data-name="Grupo 310" transform="translate(144.934 102.705)" opacity="0.3" style="mix-blend-mode: screen;isolation: isolate">
          <g id="Grupo_309" data-name="Grupo 309">
            <g id="Grupo_308" data-name="Grupo 308" clip-path="url(#clip-path-4)">
              <path id="Trazado_920" data-name="Trazado 920" d="M210.608,129.6a23.381,23.381,0,0,1-5.429,32.244,22.509,22.509,0,0,1-31.741-5.341,23.38,23.38,0,0,1,5.43-32.243,22.508,22.508,0,0,1,31.74,5.34" transform="translate(-169.251 -119.937)" fill="#fff"/>
            </g>
          </g>
        </g>
        <path id="Trazado_921" data-name="Trazado 921" d="M209.165,174.246l1.155,1.649a1.1,1.1,0,0,0,1.558.262l5.478-3.965a1.147,1.147,0,0,0,.267-1.584l-1.153-1.649Z" transform="translate(-30.052 -24.275)" fill="#96999e"/>
        <path id="Trazado_922" data-name="Trazado 922" d="M210.871,176.491a1.311,1.311,0,0,1-.768-.526l-1.272-1.815,7.638-5.528,1.274,1.821a1.357,1.357,0,0,1-.314,1.869l-5.478,3.966a1.314,1.314,0,0,1-.992.233c-.03-.005-.06-.011-.089-.019m-1.469-2.245,1.039,1.483a.909.909,0,0,0,.588.374.9.9,0,0,0,.681-.16l5.479-3.965a.944.944,0,0,0,.219-1.3l-1.035-1.479Z" transform="translate(-30.004 -24.227)" fill="#2e3433"/>
        <path id="Trazado_923" data-name="Trazado 923" d="M213.3,126.442a26.611,26.611,0,0,0-37.526-6.315,27.642,27.642,0,0,0-6.418,38.118,26.61,26.61,0,0,0,37.524,6.312,27.637,27.637,0,0,0,6.42-38.115m-40.54,29.341a23.361,23.361,0,0,1,5.424-32.217A22.492,22.492,0,0,1,209.9,128.9a23.36,23.36,0,0,1-5.425,32.216,22.487,22.487,0,0,1-31.714-5.335" transform="translate(-23.621 -16.526)" fill="#f5b015"/>
        <path id="Trazado_924" data-name="Trazado 924" d="M213.3,126.442a26.611,26.611,0,0,0-37.526-6.315,27.642,27.642,0,0,0-6.418,38.118,26.61,26.61,0,0,0,37.524,6.312A27.637,27.637,0,0,0,213.3,126.442Zm-40.54,29.341a23.361,23.361,0,0,1,5.424-32.217A22.492,22.492,0,0,1,209.9,128.9a23.36,23.36,0,0,1-5.425,32.216A22.487,22.487,0,0,1,172.759,155.783Z" transform="translate(-23.621 -16.526)" fill="none" stroke="#2e3433" stroke-miterlimit="10" stroke-width="1"/>
        <path id="Trazado_925" data-name="Trazado 925" d="M213.45,181.22l23.62,33.743a4.9,4.9,0,0,0,6.914,1.164,5.093,5.093,0,0,0,1.183-7.024l-23.619-33.743a1.748,1.748,0,0,0-2.465-.414l-5.211,3.771a1.816,1.816,0,0,0-.422,2.5" transform="translate(-30.621 -25.087)" fill="#2e3433"/>
        <g id="Grupo_313" data-name="Grupo 313" transform="translate(144.934 102.705)" opacity="0.5">
          <g id="Grupo_312" data-name="Grupo 312">
            <g id="Grupo_311" data-name="Grupo 311" clip-path="url(#clip-path-4)">
              <path id="Trazado_926" data-name="Trazado 926" d="M210.608,129.6a23.381,23.381,0,0,1-5.429,32.244,22.509,22.509,0,0,1-31.741-5.341,23.38,23.38,0,0,1,5.43-32.243,22.508,22.508,0,0,1,31.74,5.34" transform="translate(-169.251 -119.937)" fill="#cfe0fa"/>
            </g>
          </g>
        </g>
      </g>
    </g>
    <g id="Grupo_317" data-name="Grupo 317" transform="translate(0 77.705)">
      <g id="Grupo_316" data-name="Grupo 316" clip-path="url(#clip-path-6)">
        <path id="Trazado_927" data-name="Trazado 927" d="M63.844,170.586s-13.082-1.006-22.888-1.569c1.606-11.024,3.635-22.834,6.421-29.449.253-.608.506-1.175.779-1.691,2.957-7.543,4.739-7.33,5.984-10.307.84-1.985,2.2-12.971,1.337-15.958a.2.2,0,0,0,0-.111c-.577-4.384-3.969-12.2-4.992-15.734-.455-1.559-2.349-2.1-2.652,1.1A38.515,38.515,0,0,0,49.4,109.506a13.245,13.245,0,0,1-5.5.547c-2.876-.395-4.526,2.106-7.006,3.027s-3.027,4.81-2.441,8.586,7.27,7.5,2.785,12.5h.01q-.577.653-1.215,1.4c-9.062,10.621-26.356,35.862-28.7,47.982C6,190.457,9.944,196.257,15.453,199.394l-.257.325c9.748,6.908,31.322,13.422,50.261,12.738,20.059-.729,22.635-38.291-1.612-41.872" transform="translate(-1.016 -91.287)" fill="#fff"/>
        <path id="Trazado_928" data-name="Trazado 928" d="M63.844,170.586s-13.082-1.006-22.888-1.569c1.606-11.024,3.635-22.834,6.421-29.449.253-.608.506-1.175.779-1.691,2.957-7.543,4.739-7.33,5.984-10.307.84-1.985,2.2-12.971,1.337-15.958a.2.2,0,0,0,0-.111c-.577-4.384-3.969-12.2-4.992-15.734-.455-1.559-2.349-2.1-2.652,1.1A38.515,38.515,0,0,0,49.4,109.506a13.245,13.245,0,0,1-5.5.547c-2.876-.395-4.526,2.106-7.006,3.027s-3.027,4.81-2.441,8.586,7.27,7.5,2.785,12.5h.01q-.577.653-1.215,1.4c-9.062,10.621-26.356,35.862-28.7,47.982C6,190.457,9.944,196.257,15.453,199.394l-.257.325c9.748,6.908,31.322,13.422,50.261,12.738C85.516,211.729,88.092,174.166,63.844,170.586Z" transform="translate(-1.016 -91.287)" fill="none" stroke="#2e3433" stroke-linecap="round" stroke-linejoin="round" stroke-width="1"/>
        <path id="Trazado_929" data-name="Trazado 929" d="M51.044,345.243c-2.408,10.124-3.563,77.3,1.686,88.015,3.74,7.634,45.856,26.556,49.759,5.29,3.428-18.676,13.606-81.08,12.722-92.193-.854-10.729-56.935-31.527-64.168-1.112" transform="translate(-7.042 -125.031)" fill="#fc721a"/>
        <path id="Trazado_930" data-name="Trazado 930" d="M119.941,320.433c-.478-7.137-25.282-19.016-44.108-17.292L70.4,369.286a101.369,101.369,0,0,1,7.859,11.967c7.469,16.387,14.258,27.794,31.118,32.321,4.7-32.47,11.131-84.643,10.563-93.141" transform="translate(-10.115 -121.235)" fill="#2e3433"/>
        <path id="Trazado_931" data-name="Trazado 931" d="M73.807,333.248c1.535,10.293,34.308,95.071,43.169,103.059,6.314,5.692,29.638,7.047,41.509-11.024s-19.753-104.912-24.711-114.9c-4.788-9.641-64.58-8.057-59.967,22.862" transform="translate(-10.568 -121.549)" fill="#fc721a"/>
        <path id="Trazado_932" data-name="Trazado 932" d="M210.338,275.294c-.492-8.051-3.923-12.595-3.957-12.64l.764-.587c.147.193,3.644,4.824,4.154,13.168Z" transform="translate(-29.652 -115.358)" fill="#d17f80"/>
        <path id="Trazado_933" data-name="Trazado 933" d="M233.416,201.3s2.654-4.217-2.173-4.925c0,0,.717-5.477-3.843-4.236,0,0,.249-7.382-7.079-1.775,0,0-2.333,1.1-3.826,1.94s-2.214,1.766-2.569,4.617-2.381,9.272-1.038,11.763l.009.015c-2.059,6.767-8.736,28.77-11.166,34.967-1.033,2.25-1.914,5.661-2.882,8.09-5.246-7.284-11.22-15.154-11.22-15.154-15.226-17.626-44.06,3.583-34.419,20.051,9.1,15.542,27.547,27.866,38.062,32.165a10.074,10.074,0,0,0,1.615.692s5.355,2.995,17.837,2.939a5.053,5.053,0,0,0,2.2-.493,17.561,17.561,0,0,0,8.853-12.142c2.389-11.446,1.79-57.323,1.683-64.362a10.577,10.577,0,0,0,1.815-.541c7.273-2.887,13.163-13.986,8.148-13.611" transform="translate(-21.735 -104.754)" fill="#fff"/>
        <path id="Trazado_934" data-name="Trazado 934" d="M233.416,201.3s2.654-4.217-2.173-4.925c0,0,.717-5.477-3.843-4.236,0,0,.249-7.382-7.079-1.775,0,0-2.333,1.1-3.826,1.94s-2.214,1.766-2.569,4.617-2.381,9.272-1.038,11.763l.009.015c-2.059,6.767-8.736,28.77-11.166,34.967-1.033,2.25-1.914,5.661-2.882,8.09-5.246-7.284-11.22-15.154-11.22-15.154-15.226-17.626-44.06,3.583-34.419,20.051,9.1,15.542,27.547,27.866,38.062,32.165a10.074,10.074,0,0,0,1.615.692s5.355,2.995,17.837,2.939a5.053,5.053,0,0,0,2.2-.493,17.561,17.561,0,0,0,8.853-12.142c2.389-11.446,1.79-57.323,1.683-64.362a10.577,10.577,0,0,0,1.815-.541C232.54,212.026,238.43,200.926,233.416,201.3Z" transform="translate(-21.735 -104.754)" fill="none" stroke="#2e3433" stroke-linecap="round" stroke-linejoin="round" stroke-width="1"/>
        <path id="Trazado_935" data-name="Trazado 935" d="M239.333,192.79a13,13,0,0,0-2.706,1.664,12.844,12.844,0,0,0-2.281,2.214,14.5,14.5,0,0,0,4.987-3.878" transform="translate(-33.67 -105.405)" fill="#1f191a"/>
        <path id="Trazado_936" data-name="Trazado 936" d="M243.547,197.754a30.5,30.5,0,0,0-3.468,2.448c-1.1.885-2.165,1.78-3.205,2.772a10.618,10.618,0,0,0,1.9-.988,19.6,19.6,0,0,0,1.734-1.24,18.6,18.6,0,0,0,3.035-2.992" transform="translate(-34.033 -106.118)" fill="#1f191a"/>
        <path id="Trazado_937" data-name="Trazado 937" d="M246.59,203.494c-.721.7-1.345,1.412-2.008,2.1-.322.35-.655.688-.987,1.033s-.677.682-1.008,1.072a5.845,5.845,0,0,0,2.5-1.627,7.11,7.11,0,0,0,.91-1.193,4.767,4.767,0,0,0,.593-1.382" transform="translate(-34.854 -106.943)" fill="#1f191a"/>
        <path id="Trazado_938" data-name="Trazado 938" d="M146.983,204.864a28.338,28.338,0,0,0-6.648-4.731c-.527-.478-1.064-.943-1.625-1.38-10.529-8.186-12.951-7.912-20.48-13.247-2.574-1.826-7.98-1.455-14.307.528-16-3.406-47.942-8.492-47.942-8.492C35.958,192.8,43.618,227.88,43.618,227.88a93.005,93.005,0,0,0,19.247,5.434c-3.33,12.173-5.275,25.236-11.4,54.623C41.771,334.4,38.6,345.01,38.6,345.01c60.794,32.67,109.071-2.172,109.071-2.172,4.986-8.831,1.748-32.012,4.118-66.561,8.727-4.092,28.373-15.294,29.958-33.8,0,0-25.645-29.023-34.759-37.617" transform="translate(-5.545 -103.214)" fill="#f5b015"/>
        <path id="Trazado_939" data-name="Trazado 939" d="M146.983,204.864a28.338,28.338,0,0,0-6.648-4.731c-.527-.478-1.064-.943-1.625-1.38-10.529-8.186-12.951-7.912-20.48-13.247-2.574-1.826-7.98-1.455-14.307.528-16-3.406-47.942-8.492-47.942-8.492C35.958,192.8,43.618,227.88,43.618,227.88a93.005,93.005,0,0,0,19.247,5.434c-3.33,12.173-5.275,25.236-11.4,54.623C41.771,334.4,38.6,345.01,38.6,345.01c60.794,32.67,109.071-2.172,109.071-2.172,4.986-8.831,1.748-32.012,4.118-66.561,8.727-4.092,28.373-15.294,29.958-33.8C181.742,242.48,156.1,213.457,146.983,204.864Z" transform="translate(-5.545 -103.214)" fill="none" stroke="#2e3433" stroke-miterlimit="10" stroke-width="1"/>
        <path id="Trazado_940" data-name="Trazado 940" d="M149.168,154.05c-.946-7.274-.67-18.414-9.235-16.841-2.19.4-12.352,1.519-14.6,2.636-5.336,2.662-3.387,10.875-4.767,18.343-.405,2.216-.194,6.511.653,8.459l-2.182-.2-3.495,14.293s8.865,10.848,18.986,6.888l3.533-11.876a12.217,12.217,0,0,0,4.54.486c6.23-1.332,7.631-14.022,6.568-22.184" transform="translate(-16.6 -97.398)" fill="#fff"/>
        <path id="Trazado_941" data-name="Trazado 941" d="M149.168,154.05c-.946-7.274-.67-18.414-9.235-16.841-2.19.4-12.352,1.519-14.6,2.636-5.336,2.662-3.387,10.875-4.767,18.343-.405,2.216-.194,6.511.653,8.459l-2.182-.2-3.495,14.293s8.865,10.848,18.986,6.888l3.533-11.876a12.217,12.217,0,0,0,4.54.486C148.83,174.9,150.231,162.212,149.168,154.05Z" transform="translate(-16.6 -97.398)" fill="none" stroke="#2e3433" stroke-linecap="round" stroke-linejoin="round" stroke-width="1"/>
        <path id="Trazado_942" data-name="Trazado 942" d="M138.377,188.9a32.782,32.782,0,0,0-2.882-13.038l6.23,2.148Z" transform="translate(-19.467 -102.972)" fill="#2e3433"/>
        <path id="Trazado_943" data-name="Trazado 943" d="M147.983,166.4c.317-1.979,2.87-6.619-1.412-7.274s-7.5-8.638-6.649-10.956,1.324-8.485,1.324-8.485,2.407-1,3.187-1.386c7.149-3.513-1.46-20.668-1.46-20.668s-6.652,6.684-12.016,7.856-2.174,4.72-10.774,6.7-12.931,5.415-12.423,15.165,6.984,17.125,9.2,17.84a3.372,3.372,0,0,1,.779.371,6.164,6.164,0,0,0,7.015-.043c1.309-.963,2.969-2.143,5.057-3.567a9.038,9.038,0,0,0,2.934-3.367,6.471,6.471,0,0,1-5.178-3.629c-1.591-3.088-.736-6.7,1.909-8.061s6.082.034,7.673,3.122a7.189,7.189,0,0,1,.748,2.387c1.468,5.272-1.44,11-3.238,15.729-2.16,5.678,6.805,7.416,10.316,6.051,5.267-2.047,2.559-4.952,3.013-7.781" transform="translate(-15.477 -94.606)" fill="#2e3433"/>
        <path id="Trazado_944" data-name="Trazado 944" d="M139.11,160.879a1.555,1.555,0,0,1-.442.37,1.3,1.3,0,0,1-1.151.044,1.541,1.541,0,0,1-.962-1.565,1.881,1.881,0,0,0-.728-1.551,3.926,3.926,0,0,0-1.556-.714c-.841-.234-1.794-.5-1.612-2.157a1.911,1.911,0,0,1,.74-1.33c1.232-.977,3.605-.7,3.706-.687l-.113.919a4.965,4.965,0,0,0-3.019.494,1.014,1.014,0,0,0-.393.7c-.1.876.124.936.94,1.165a4.721,4.721,0,0,1,1.9.892,2.766,2.766,0,0,1,1.061,2.19c.041.51.065.649.387.781a.382.382,0,0,0,.357,0c.354-.194.593-.941.656-1.275l.91.168a3.688,3.688,0,0,1-.678,1.548" transform="translate(-19.057 -99.723)" fill="#2e3433"/>
        <path id="Trazado_945" data-name="Trazado 945" d="M69.577,220.69a20.371,20.371,0,0,0,2.762,4.142c.282.137.418-1.021.418-1.021a18.84,18.84,0,0,1-2.292-3.52Z" transform="translate(-9.997 -109.356)" fill="#131313"/>
        <path id="Trazado_946" data-name="Trazado 946" d="M41.845,216.447a71.8,71.8,0,0,0,1.368,15.567l.057.245.231.1a118.365,118.365,0,0,0,19.68,5.695l.086-.971a119.336,119.336,0,0,1-19.157-5.528c-.382-1.845-2.641-13.711-.16-25.489l-.953-.2a57.391,57.391,0,0,0-1.152,10.587" transform="translate(-6.01 -107.283)" fill="#131313"/>
        <path id="Trazado_947" data-name="Trazado 947" d="M162.084,264.7a21.168,21.168,0,0,1-21.193-12.262l.833-.406a20.244,20.244,0,0,0,20.227,11.751Z" transform="translate(-20.243 -113.917)" fill="#131313"/>
        <path id="Trazado_948" data-name="Trazado 948" d="M174.025,282.06a68.2,68.2,0,0,1-13.189,6.834l-.225.08-.2-.137c-.246-.171-24.646-17.459-32.76-40.615l.873-.306c7.632,21.78,29.893,38.337,32.221,40.022,1.675-.634,12.349-4.867,20.535-12.86l.647.661a54.433,54.433,0,0,1-7.907,6.32" transform="translate(-18.341 -113.325)" fill="#131313"/>
        <path id="Trazado_949" data-name="Trazado 949" d="M62.027,260.108l-.768-.1a162.719,162.719,0,0,1,13.123-44.6l.7.342a161.858,161.858,0,0,0-13.051,44.361" transform="translate(-8.801 -108.654)" fill="#131313"/>
      </g>
    </g>
    <g id="Grupo_319" data-name="Grupo 319">
      <rect id="Rectángulo_203" data-name="Rectángulo 203" width="297.566" height="2.081" transform="translate(13.592 266.928)" fill="#131313"/>
      <rect id="Rectángulo_204" data-name="Rectángulo 204" width="311.158" height="290" fill="none"/>
    </g>
  </g>
</svg>
