<svg xmlns="http://www.w3.org/2000/svg" xmlns:xlink="http://www.w3.org/1999/xlink" width="293.387" height="314.4" viewBox="0 0 293.387 314.4">
  <defs>
    <clipPath id="clip-path">
      <rect id="Rectángulo_254" data-name="Rectángulo 254" width="293.387" height="314.4" fill="none"/>
    </clipPath>
    <clipPath id="clip-path-2">
      <rect id="Rectángulo_206" data-name="Rectángulo 206" width="293.387" height="315.4" fill="none"/>
    </clipPath>
    <clipPath id="clip-path-3">
      <rect id="Rectángulo_214" data-name="Rectángulo 214" width="171.986" height="247.603" fill="none"/>
    </clipPath>
    <clipPath id="clip-path-4">
      <path id="Trazado_1031" data-name="Trazado 1031" d="M78.449,63.975l-54.1,84.465,54.1,153.488h195.6V63.975Z" transform="translate(-24.346 -63.975)" fill="none"/>
    </clipPath>
    <clipPath id="clip-path-5">
      <rect id="Rectángulo_243" data-name="Rectángulo 243" width="80.959" height="24.75" fill="none"/>
    </clipPath>
    <clipPath id="clip-path-6">
      <rect id="Rectángulo_249" data-name="Rectángulo 249" width="80.959" height="24.751" fill="none"/>
    </clipPath>
    <clipPath id="clip-path-7">
      <rect id="Rectángulo_253" data-name="Rectángulo 253" width="293.387" height="316.4" fill="none"/>
    </clipPath>
    <clipPath id="clip-path-8">
      <rect id="Rectángulo_251" data-name="Rectángulo 251" width="73.394" height="44.827" fill="none"/>
    </clipPath>
  </defs>
  <g id="Grupo_339" data-name="Grupo 339" clip-path="url(#clip-path)">
    <g id="Grupo_323" data-name="Grupo 323">
      <g id="Grupo_322" data-name="Grupo 322" clip-path="url(#clip-path-2)">
        <path id="Trazado_950" data-name="Trazado 950" d="M220.139,39.279c-49.248-3.625-58.021,52.586-146.726,59.885C-21.66,106.988-5.386,245,90.023,280.2c94.962,35.033,152.34,4.247,186.344-75.974,25.568-60.321,16.957-159.56-56.228-164.948" transform="translate(-1.519 -6.09)" fill="#fff"/>
        <path id="Trazado_951" data-name="Trazado 951" d="M97.613,86.7c22.884-1.129,64.106-25.424,63.53-66.164S30.054,90.036,97.613,86.7" transform="translate(-12.177 -1.789)" fill="#fff"/>
      </g>
    </g>
    <g id="Grupo_325" data-name="Grupo 325" transform="translate(19.117 44.397)">
      <g id="Grupo_324" data-name="Grupo 324" clip-path="url(#clip-path-3)">
        <path id="Trazado_952" data-name="Trazado 952" d="M148.125,278.977c.794,24.9,1.874,90.788,3.525,130.145.421,10.035.335,37.252.335,37.252-26.633,11.556-44.018,10.32-44.018,10.32S88.617,272.8,94.117,258.837c4.543-11.534,53.1-8.322,54.008,20.14" transform="translate(-33.617 -83.726)" fill="#96999e"/>
        <path id="Trazado_953" data-name="Trazado 953" d="M148.125,278.977c.794,24.9,1.874,90.788,3.525,130.145.421,10.035.335,37.252.335,37.252-26.633,11.556-44.018,10.32-44.018,10.32S88.617,272.8,94.117,258.837C98.66,247.3,147.216,250.515,148.125,278.977Z" transform="translate(-33.617 -83.726)" fill="none" stroke="#2e3433" stroke-miterlimit="10" stroke-width="1"/>
        <path id="Trazado_954" data-name="Trazado 954" d="M112.614,304.6c1.436,5.437-3.376,11.281-5.416,15.819-3.135,6.972-.189,13.947-1.491,21.218-1.234,6.895-5.892,12.609-6.639,19.7-.809,7.684-4.418,35.463-4.69,35.861-1.287-10.537-1.57-12.988-3.178-27.138-2.036-17.908-5.243-46.34-5.351-68.857,2.391,1,4.965,1.428,7.067,2.111,6.73,2.187,13.106,3.364,19.7,1.291" transform="translate(-32.483 -91.294)" fill="#2e3433"/>
        <path id="Trazado_955" data-name="Trazado 955" d="M98.289,276.372c-1.814,24.905-11.456,99.355-11.251,140.255.048,9.693,1.761,37.478,1.761,37.478-29.489,7.188-46.036.9-46.036.9s-6.167-55.4-7.784-92.27c-1.28-29.16-2.268-86.249,4.7-100.212,5.751-11.534,60.688-14.611,58.616,13.851" transform="translate(-24.421 -83.971)" fill="#96999e"/>
        <path id="Trazado_956" data-name="Trazado 956" d="M98.289,276.372c-1.814,24.905-11.456,99.355-11.251,140.255.048,9.693,1.761,37.478,1.761,37.478-29.489,7.188-46.036.9-46.036.9s-6.167-55.4-7.784-92.27c-1.28-29.16-2.268-86.249,4.7-100.212C45.424,250.988,100.362,247.911,98.289,276.372Z" transform="translate(-24.421 -83.971)" fill="none" stroke="#2e3433" stroke-miterlimit="10" stroke-width="1"/>
        <rect id="Rectángulo_207" data-name="Rectángulo 207" width="1.005" height="1.502" transform="translate(19.068 226.236) rotate(-0.241)" fill="#fff"/>
        <rect id="Rectángulo_208" data-name="Rectángulo 208" width="1.005" height="3.079" transform="matrix(1, -0.013, 0.013, 1, 19.164, 239.029)" fill="#2e3433"/>
        <rect id="Rectángulo_209" data-name="Rectángulo 209" width="1.005" height="3.078" transform="translate(19.262 246.216) rotate(-1.012)" fill="#2e3433"/>
        <rect id="Rectángulo_210" data-name="Rectángulo 210" width="1.005" height="3.082" transform="translate(19.097 231.835) rotate(-0.433)" fill="#2e3433"/>
        <path id="Trazado_957" data-name="Trazado 957" d="M41.221,322.038l-1,0,0-1.5h1.006Z" transform="translate(-25.378 -94.305)" fill="#fff"/>
        <rect id="Rectángulo_211" data-name="Rectángulo 211" width="1.005" height="3.078" transform="translate(15.029 246.216) rotate(-1.012)" fill="#2e3433"/>
        <rect id="Rectángulo_212" data-name="Rectángulo 212" width="1.005" height="3.079" transform="matrix(1, -0.013, 0.013, 1, 14.931, 239.029)" fill="#2e3433"/>
        <rect id="Rectángulo_213" data-name="Rectángulo 213" width="1.005" height="3.082" transform="translate(14.864 231.835) rotate(-0.433)" fill="#2e3433"/>
        <path id="Trazado_958" data-name="Trazado 958" d="M185.011,101.888c-2.994-3.967-28.1-4.23-28.472,4.05l-4.966,32.1s-39.832-11.706-45.5-13.857A34.636,34.636,0,0,0,95.478,121.8a43.085,43.085,0,0,0-19.95-2.945c-6.642.621-25.658,2.325-35.082,20.925-6.153,12.143-13.733,156.517-13.733,156.517S89.4,309.521,146.329,283.943c0,0-13.805-68.865-24.377-112.471,18.793,6.829,43.168,12.473,57.49,7.806,8.414-2.741,10.881-70.353,5.569-77.39" transform="translate(-23.276 -59.843)" fill="#f5b015"/>
        <path id="Trazado_959" data-name="Trazado 959" d="M185.011,101.888c-2.994-3.967-28.1-4.23-28.472,4.05l-4.966,32.1s-39.832-11.706-45.5-13.857A34.636,34.636,0,0,0,95.478,121.8a43.085,43.085,0,0,0-19.95-2.945c-6.642.621-25.658,2.325-35.082,20.925-6.153,12.143-13.733,156.517-13.733,156.517S89.4,309.521,146.329,283.943c0,0-13.805-68.865-24.377-112.471,18.793,6.829,43.168,12.473,57.49,7.806C187.856,176.537,190.322,108.925,185.011,101.888Z" transform="translate(-23.276 -59.843)" fill="none" stroke="#2e3433" stroke-miterlimit="10" stroke-width="1"/>
        <path id="Trazado_960" data-name="Trazado 960" d="M103.6,219.484s-25.8,18.05-50.3,2.252c-20.545-13.251-11.015-61.457-8.549-68.93,0,0-.728,67.078,58.845,66.678" transform="translate(-25.407 -68.189)" fill="#2e3433"/>
        <path id="Trazado_961" data-name="Trazado 961" d="M108.424,92.2c-.642-7.537-3.172-13.084-10.681-14.047-2.278-.286-7.249-.865-9.617.182-3.007,1.337-4.787,3.942-6.067,7.237-.284.043-.57.076-.85.133a14.7,14.7,0,0,0-3.051.949,14.032,14.032,0,0,0-2.717,1.555,13.884,13.884,0,0,1,5.9-1.2c.066,0,.132.01.2.012-.437,1.324-.819,2.734-1.179,4.206a5.322,5.322,0,1,0-1.608,10.226c.132-.01.259-.03.388-.05.011.114.028.22.04.331l-.016,0-4.238,14.973c6.445,10,18.927,7.253,18.927,7.253l1.552-8.446a11.271,11.271,0,0,0,3.825.53c10.02-.722,9.921-15.392,9.2-23.849" transform="translate(-30.484 -56.499)" fill="#fff"/>
        <path id="Trazado_962" data-name="Trazado 962" d="M108.424,92.2c-.642-7.537-3.172-13.084-10.681-14.047-2.278-.286-7.249-.865-9.617.182-3.007,1.337-4.787,3.942-6.067,7.237-.284.043-.57.076-.85.133a14.7,14.7,0,0,0-3.051.949,14.032,14.032,0,0,0-2.717,1.555,13.884,13.884,0,0,1,5.9-1.2c.066,0,.132.01.2.012-.437,1.324-.819,2.734-1.179,4.206a5.322,5.322,0,1,0-1.608,10.226c.132-.01.259-.03.388-.05.011.114.028.22.04.331l-.016,0-4.238,14.973c6.445,10,18.927,7.253,18.927,7.253l1.552-8.446a11.271,11.271,0,0,0,3.825.53C109.246,115.323,109.146,100.653,108.424,92.2Z" transform="translate(-30.484 -56.499)" fill="none" stroke="#2e3433" stroke-linecap="round" stroke-linejoin="round" stroke-width="1"/>
        <path id="Trazado_963" data-name="Trazado 963" d="M72.818,86.329a4.13,4.13,0,1,0,4.444,3.792,4.13,4.13,0,0,0-4.444-3.792" transform="translate(-29.862 -57.836)" fill="#2e3433"/>
        <path id="Trazado_964" data-name="Trazado 964" d="M72.918,62.225a7.183,7.183,0,1,0,8.725,5.2,7.183,7.183,0,0,0-8.725-5.2" transform="translate(-29.626 -54.051)" fill="#2e3433"/>
        <path id="Trazado_965" data-name="Trazado 965" d="M69.059,74.335a5.13,5.13,0,1,0,6.232,3.716,5.13,5.13,0,0,0-6.232-3.716" transform="translate(-29.266 -55.946)" fill="#2e3433"/>
        <path id="Trazado_966" data-name="Trazado 966" d="M90.938,53.691a11.186,11.186,0,1,0,12.034,10.27,11.186,11.186,0,0,0-12.034-10.27" transform="translate(-31.671 -52.751)" fill="#2e3433"/>
        <path id="Trazado_967" data-name="Trazado 967" d="M90.821,53.174a11.625,11.625,0,0,0,.908,23.213q.46,0,.925-.036a11.625,11.625,0,1,0-1.833-23.177M99.913,71.74a10.748,10.748,0,1,1,2.54-7.825,10.676,10.676,0,0,1-2.54,7.825" transform="translate(-31.59 -52.67)" fill="#fff"/>
        <path id="Trazado_968" data-name="Trazado 968" d="M107.447,67.714a5.229,5.229,0,1,0,5.625,4.8,5.228,5.228,0,0,0-5.625-4.8" transform="translate(-35.096 -54.937)" fill="#2e3433"/>
        <path id="Trazado_969" data-name="Trazado 969" d="M107.579,93.889l-.06.088-.013.1c-.023.182-.524,4.5,2.261,7.5.139.15.117.241.106.29-.151.62-1.809,1.47-2.938,1.875l.295.825c.529-.189,3.18-1.2,3.495-2.492a1.147,1.147,0,0,0-.315-1.093c-2.27-2.443-2.1-6.009-2.044-6.682a3.982,3.982,0,0,1,4.154-1.307l.214-.85a4.874,4.874,0,0,0-5.154,1.746" transform="translate(-35.766 -58.717)" fill="#2e3433"/>
        <path id="Trazado_970" data-name="Trazado 970" d="M75.572,96.24l.5.719c.669-.464,2.758-1.594,3.565-.708.473.521.382.605-.2,1.152a4.2,4.2,0,0,0-1.155,1.517,2.155,2.155,0,0,0,.228,2.132c.236.4.24.441.073.637a.45.45,0,0,1-.34.176A2.256,2.256,0,0,1,77,101.25l-.6.636a3.083,3.083,0,0,0,1.807.859l.078,0a1.333,1.333,0,0,0,.963-.483,1.258,1.258,0,0,0,.015-1.651,1.3,1.3,0,0,1-.171-1.358,3.444,3.444,0,0,1,.941-1.2c.553-.515,1.31-1.221.257-2.382-1.483-1.635-4.584.485-4.714.577" transform="translate(-30.883 -59.195)" fill="#2e3433"/>
        <path id="Trazado_971" data-name="Trazado 971" d="M100.151,112.049l.258-.838c.04.012,4.059,2.2,7.939.587l.149.864c-3.94,2.039-8.17-.559-8.345-.613" transform="translate(-34.71 -61.712)" fill="#2e3433"/>
        <path id="Trazado_972" data-name="Trazado 972" d="M96.608,93.985l.462.744c4.186-2.6,5.578-.859,5.592-.841l.711-.512c-.073-.1-1.825-2.459-6.765.61" transform="translate(-34.159 -58.786)" fill="#2e3433"/>
        <path id="Trazado_973" data-name="Trazado 973" d="M99.846,95.721a1.38,1.38,0,1,0,1.484,1.267,1.379,1.379,0,0,0-1.484-1.267" transform="translate(-34.465 -59.3)" fill="#2e3433"/>
        <path id="Trazado_974" data-name="Trazado 974" d="M110.643,94.867a1.38,1.38,0,1,0,1.484,1.266,1.38,1.38,0,0,0-1.484-1.266" transform="translate(-36.146 -59.167)" fill="#2e3433"/>
        <path id="Trazado_975" data-name="Trazado 975" d="M77.188,80.226a2.59,2.59,0,0,1-1.914,4.3l.01.876a3.465,3.465,0,0,0,2.561-5.756Z" transform="translate(-30.837 -56.798)" fill="#fff"/>
        <path id="Trazado_976" data-name="Trazado 976" d="M112.544,64.283a5.163,5.163,0,0,0-6.08,3.518l.837.257a4.288,4.288,0,0,1,7.728-1.023l.741-.467a5.13,5.13,0,0,0-3.226-2.285" transform="translate(-35.693 -54.385)" fill="#fff"/>
        <path id="Trazado_977" data-name="Trazado 977" d="M84.815,113.889c1.4,5.266,4.595,11.228,11.8,10.659l.611-3.408a34.515,34.515,0,0,1-12.411-7.252" transform="translate(-32.322 -62.129)" fill="#2e3433"/>
        <path id="Trazado_978" data-name="Trazado 978" d="M79.712,105.692c-.128.019-.256.04-.388.051a5.3,5.3,0,0,1-2.623-.462c1.083,2.505,1.9,4.2,1.9,4.2l1.572-3.63Z" transform="translate(-31.059 -60.789)" fill="#2e3433"/>
        <path id="Trazado_979" data-name="Trazado 979" d="M90.109,71.381c-8.849,0-19.641,3.987-19.649,11.011,0,2.81,1.158,6.888,2.546,10.76a5.307,5.307,0,0,1,6.954-2.914c1.391.4,2.687,2.375,2.687,2.375s2.08-.294,1.628-6.009c-.334-4.221,7.86-5.762,12.386-4,5.6,2.177,6-4.418,9.939,1.682,1.548-10.271-7.06-12.9-16.491-12.9" transform="translate(-30.087 -55.511)" fill="#2e3433"/>
        <path id="Trazado_980" data-name="Trazado 980" d="M98.5,70.77a5.161,5.161,0,0,0-3.316,1.38l.6.642a4.289,4.289,0,0,1,7.208,2.97l.875-.034A5.164,5.164,0,0,0,98.5,70.77" transform="translate(-33.936 -55.415)" fill="#fff"/>
        <path id="Trazado_981" data-name="Trazado 981" d="M141.755,308.581l.4.92c-16.764,7.291-35.334,10.889-52.423,12.486a271.234,271.234,0,0,1-58.68-1.028l.152-.994c.624.1,62.97,9.3,110.549-11.385" transform="translate(-23.952 -92.443)" fill="#201030"/>
        <path id="Trazado_982" data-name="Trazado 982" d="M87.845,256.636l47.5-3.975c-.437,8.918,9.236,26.326,9.236,26.326-34.723,14.668-74.189,7.39-74.189,7.39,16-13.744,17.45-29.741,17.45-29.741" transform="translate(-30.077 -83.736)" fill="#f5b015"/>
        <path id="Trazado_983" data-name="Trazado 983" d="M87.019,256.537l.987.184c-.041.215-4.192,21.679-18.581,30.983l-.546-.844c14.022-9.066,18.1-30.112,18.14-30.323" transform="translate(-29.841 -84.34)" fill="#2e3433"/>
        <path id="Trazado_984" data-name="Trazado 984" d="M159.35,280.016l-.66.758c-9.562-8.346-12.637-29.887-12.763-30.8l.995-.138c.031.22,3.152,22.084,12.429,30.18" transform="translate(-41.837 -83.296)" fill="#201030"/>
        <path id="Trazado_985" data-name="Trazado 985" d="M139.224,185.522c-1.2-6.344-5.537-23.691-5.581-23.865l.925-.232c.044.175,4.384,17.549,5.592,23.919Z" transform="translate(-39.925 -69.531)" fill="#201030"/>
      </g>
    </g>
    <g id="Grupo_333" data-name="Grupo 333" transform="translate(20.555 54.014)">
      <g id="Grupo_332" data-name="Grupo 332" clip-path="url(#clip-path-4)">
        <path id="Trazado_986" data-name="Trazado 986" d="M284.223,95.676V369.2A20.833,20.833,0,0,1,263.417,390H208.7v-.041H139.663A20.829,20.829,0,0,1,120.105,369.2V95.676A20.833,20.833,0,0,1,140.911,74.87H263.417a20.826,20.826,0,0,1,20.806,20.806" transform="translate(-39.256 -65.671)" fill="#dbe0e6"/>
        <path id="Trazado_987" data-name="Trazado 987" d="M284.223,95.676V369.2A20.833,20.833,0,0,1,263.417,390H208.7v-.041H139.663A20.829,20.829,0,0,1,120.105,369.2V95.676A20.833,20.833,0,0,1,140.911,74.87H263.417A20.826,20.826,0,0,1,284.223,95.676Z" transform="translate(-39.256 -65.671)" fill="none" stroke="#2e3433" stroke-miterlimit="10" stroke-width="1"/>
        <path id="Trazado_988" data-name="Trazado 988" d="M280.452,96.522v273.53a16.179,16.179,0,0,1-16.184,16.176H141.763a16.177,16.177,0,0,1-16.175-16.176V96.522a16.176,16.176,0,0,1,16.175-16.175H264.268a16.178,16.178,0,0,1,16.184,16.175" transform="translate(-40.109 -66.524)" fill="#fff"/>
        <path id="Trazado_989" data-name="Trazado 989" d="M280.452,96.522v273.53a16.179,16.179,0,0,1-16.184,16.176H141.763a16.177,16.177,0,0,1-16.175-16.176V96.522a16.176,16.176,0,0,1,16.175-16.175H264.268A16.178,16.178,0,0,1,280.452,96.522Z" transform="translate(-40.109 -66.524)" fill="none" stroke="#2e3433" stroke-miterlimit="10" stroke-width="1"/>
        <path id="Trazado_990" data-name="Trazado 990" d="M232.83,83.539H194.691a1.541,1.541,0,1,0,0,3.082H232.83a1.541,1.541,0,1,0,0-3.082" transform="translate(-50.629 -67.021)" fill="#2e3433"/>
        <rect id="Rectángulo_215" data-name="Rectángulo 215" width="7.228" height="0.916" transform="matrix(0.707, -0.708, 0.708, 0.707, 99.578, 33.307)" fill="#2e3433"/>
        <rect id="Rectángulo_216" data-name="Rectángulo 216" width="0.916" height="7.228" transform="translate(99.576 28.842) rotate(-45)" fill="#2e3433"/>
        <rect id="Rectángulo_217" data-name="Rectángulo 217" width="8.198" height="0.915" transform="translate(217.621 32.302)" fill="#361e4d"/>
        <path id="Trazado_991" data-name="Trazado 991" d="M157.358,156.38l.017,1.033-.932.015-.016-1a2.959,2.959,0,0,1-2.191-.832l.816-.844a2.1,2.1,0,0,0,1.477.53l-.027-1.67-.3-.032a2.207,2.207,0,0,1-1.282-.533,1.712,1.712,0,0,1-.491-1.275,1.955,1.955,0,0,1,1.887-2.006l-.013-.83.932-.015.014.822a2.693,2.693,0,0,1,1.83.727l-.8.816a1.846,1.846,0,0,0-1.142-.425l.026,1.606.351.05a2.236,2.236,0,0,1,1.263.5,1.82,1.82,0,0,1,.53,1.375,1.994,1.994,0,0,1-1.953,1.988m-.9-5.495a.819.819,0,0,0-.79.824.635.635,0,0,0,.2.468,1.081,1.081,0,0,0,.613.248Zm1.386,3.013a1.123,1.123,0,0,0-.659-.23l.025,1.587c.552-.073.853-.355.845-.807a.732.732,0,0,0-.212-.55" transform="translate(-44.57 -77.202)" fill="#d8143b"/>
        <path id="Trazado_992" data-name="Trazado 992" d="M158.535,142.056a.423.423,0,0,1-.467.356h-2.162a.424.424,0,0,1-.468-.356v-1.268a.424.424,0,0,1,.468-.357h2.162a.423.423,0,0,1,.467.357Z" transform="translate(-44.757 -75.879)" fill="#f5b015"/>
        <path id="Trazado_993" data-name="Trazado 993" d="M155.754,158.583a6.209,6.209,0,1,1,0-12.418,1.034,1.034,0,1,0,0-2.068,8.277,8.277,0,0,0,0,16.553,1.034,1.034,0,1,0,0-2.068" transform="translate(-43.518 -76.45)" fill="#d8143b"/>
        <rect id="Rectángulo_218" data-name="Rectángulo 218" width="1.328" height="1.279" transform="translate(119.665 75.261)" fill="#f5b015"/>
        <path id="Trazado_994" data-name="Trazado 994" d="M165.335,153.753a.64.64,0,1,0,.64-.64.64.64,0,0,0-.64.64" transform="translate(-46.298 -77.854)" fill="#f5b015"/>
        <path id="Trazado_995" data-name="Trazado 995" d="M166.85,153.753a.64.64,0,1,0,.64-.64.64.64,0,0,0-.64.64" transform="translate(-46.534 -77.854)" fill="#f5b015"/>
        <rect id="Rectángulo_219" data-name="Rectángulo 219" width="1.328" height="1.279" transform="translate(118.262 71.685) rotate(-36.965)" fill="#f5b015"/>
        <path id="Trazado_996" data-name="Trazado 996" d="M164.254,149.743a.64.64,0,1,0,.127-.9.64.64,0,0,0-.127.9" transform="translate(-46.11 -77.17)" fill="#f5b015"/>
        <path id="Trazado_997" data-name="Trazado 997" d="M165.464,148.832a.64.64,0,1,0,.127-.9.64.64,0,0,0-.127.9" transform="translate(-46.298 -77.028)" fill="#f5b015"/>
        <rect id="Rectángulo_220" data-name="Rectángulo 220" width="1.328" height="1.279" transform="translate(115.184 69.3) rotate(-60.616)" fill="#f5b015"/>
        <path id="Trazado_998" data-name="Trazado 998" d="M161,146.854a.639.639,0,1,0-.244-.871.64.64,0,0,0,.244.871" transform="translate(-45.573 -76.693)" fill="#f5b015"/>
        <path id="Trazado_999" data-name="Trazado 999" d="M161.748,145.534a.639.639,0,1,0-.244-.871.64.64,0,0,0,.244.871" transform="translate(-45.689 -76.487)" fill="#f5b015"/>
        <rect id="Rectángulo_221" data-name="Rectángulo 221" width="1.279" height="1.328" transform="translate(118.321 79.955) rotate(-58.625)" fill="#f5b015"/>
        <path id="Trazado_1000" data-name="Trazado 1000" d="M164.23,157.581a.639.639,0,1,0,.879-.213.639.639,0,0,0-.879.213" transform="translate(-46.111 -78.502)" fill="#f5b015"/>
        <path id="Trazado_1001" data-name="Trazado 1001" d="M165.523,158.37a.639.639,0,1,0,.879-.213.639.639,0,0,0-.879.213" transform="translate(-46.313 -78.625)" fill="#f5b015"/>
        <rect id="Rectángulo_222" data-name="Rectángulo 222" width="1.28" height="1.328" transform="translate(115.222 82.166) rotate(-30.739)" fill="#f5b015"/>
        <path id="Trazado_1002" data-name="Trazado 1002" d="M161.03,160.249a.639.639,0,1,0,.876.223.639.639,0,0,0-.876-.223" transform="translate(-45.579 -78.951)" fill="#f5b015"/>
        <path id="Trazado_1003" data-name="Trazado 1003" d="M161.8,161.551a.639.639,0,1,0,.876.223.639.639,0,0,0-.876-.223" transform="translate(-45.7 -79.154)" fill="#f5b015"/>
        <path id="Trazado_1004" data-name="Trazado 1004" d="M157.358,235.119l.017,1.033-.932.015-.016-1a2.958,2.958,0,0,1-2.191-.832l.816-.844a2.1,2.1,0,0,0,1.477.53l-.027-1.67-.3-.032a2.207,2.207,0,0,1-1.282-.533,1.712,1.712,0,0,1-.491-1.275,1.955,1.955,0,0,1,1.887-2.006l-.013-.83.932-.015.014.822a2.693,2.693,0,0,1,1.83.727l-.8.816a1.846,1.846,0,0,0-1.142-.425l.026,1.606.351.05a2.236,2.236,0,0,1,1.263.5,1.82,1.82,0,0,1,.53,1.375,1.994,1.994,0,0,1-1.953,1.988m-.9-5.5a.82.82,0,0,0-.79.825.635.635,0,0,0,.2.468,1.081,1.081,0,0,0,.613.248Zm1.386,3.014a1.124,1.124,0,0,0-.659-.23l.025,1.587c.552-.073.853-.355.845-.807a.732.732,0,0,0-.212-.551" transform="translate(-44.57 -89.461)" fill="#d8143b"/>
        <path id="Trazado_1005" data-name="Trazado 1005" d="M158.535,220.8a.423.423,0,0,1-.467.356h-2.162a.424.424,0,0,1-.468-.356v-1.268a.424.424,0,0,1,.468-.357h2.162a.423.423,0,0,1,.467.357Z" transform="translate(-44.757 -88.139)" fill="#f5b015"/>
        <path id="Trazado_1006" data-name="Trazado 1006" d="M155.754,237.322a6.209,6.209,0,1,1,0-12.418,1.034,1.034,0,1,0,0-2.068,8.277,8.277,0,0,0,0,16.553,1.034,1.034,0,1,0,0-2.068" transform="translate(-43.518 -88.71)" fill="#d8143b"/>
        <rect id="Rectángulo_223" data-name="Rectángulo 223" width="1.328" height="1.279" transform="translate(119.665 141.74)" fill="#f5b015"/>
        <path id="Trazado_1007" data-name="Trazado 1007" d="M165.335,232.492a.64.64,0,1,0,.64-.64.64.64,0,0,0-.64.64" transform="translate(-46.298 -90.114)" fill="#f5b015"/>
        <path id="Trazado_1008" data-name="Trazado 1008" d="M166.85,232.492a.64.64,0,1,0,.64-.64.64.64,0,0,0-.64.64" transform="translate(-46.534 -90.114)" fill="#f5b015"/>
        <rect id="Rectángulo_224" data-name="Rectángulo 224" width="1.328" height="1.279" transform="translate(118.262 138.165) rotate(-36.965)" fill="#f5b015"/>
        <path id="Trazado_1009" data-name="Trazado 1009" d="M164.254,228.482a.64.64,0,1,0,.127-.9.64.64,0,0,0-.127.9" transform="translate(-46.11 -89.429)" fill="#f5b015"/>
        <path id="Trazado_1010" data-name="Trazado 1010" d="M165.464,227.571a.64.64,0,1,0,.127-.9.64.64,0,0,0-.127.9" transform="translate(-46.298 -89.288)" fill="#f5b015"/>
        <rect id="Rectángulo_225" data-name="Rectángulo 225" width="1.328" height="1.279" transform="translate(115.184 135.78) rotate(-60.616)" fill="#f5b015"/>
        <path id="Trazado_1011" data-name="Trazado 1011" d="M161,225.593a.639.639,0,1,0-.244-.871.64.64,0,0,0,.244.871" transform="translate(-45.573 -88.953)" fill="#f5b015"/>
        <path id="Trazado_1012" data-name="Trazado 1012" d="M161.748,224.273a.639.639,0,1,0-.244-.871.64.64,0,0,0,.244.871" transform="translate(-45.689 -88.747)" fill="#f5b015"/>
        <rect id="Rectángulo_226" data-name="Rectángulo 226" width="1.279" height="1.328" transform="translate(118.321 146.434) rotate(-58.625)" fill="#f5b015"/>
        <path id="Trazado_1013" data-name="Trazado 1013" d="M164.23,236.322a.639.639,0,1,0,.879-.213.639.639,0,0,0-.879.213" transform="translate(-46.111 -90.762)" fill="#f5b015"/>
        <path id="Trazado_1014" data-name="Trazado 1014" d="M165.523,237.111a.639.639,0,1,0,.879-.213.639.639,0,0,0-.879.213" transform="translate(-46.313 -90.885)" fill="#f5b015"/>
        <rect id="Rectángulo_227" data-name="Rectángulo 227" width="1.28" height="1.328" transform="translate(115.222 148.646) rotate(-30.739)" fill="#f5b015"/>
        <path id="Trazado_1015" data-name="Trazado 1015" d="M161.03,238.988a.639.639,0,1,0,.876.223.639.639,0,0,0-.876-.223" transform="translate(-45.579 -91.211)" fill="#f5b015"/>
        <path id="Trazado_1016" data-name="Trazado 1016" d="M161.8,240.29a.639.639,0,1,0,.876.223.639.639,0,0,0-.876-.223" transform="translate(-45.7 -91.413)" fill="#f5b015"/>
        <path id="Trazado_1017" data-name="Trazado 1017" d="M186.336,154.2l-13.11-11.239,15.861-.047Z" transform="translate(-47.527 -76.266)" fill="#f5b015"/>
        <path id="Trazado_1018" data-name="Trazado 1018" d="M261.654,163.619h-66.66a12.375,12.375,0,0,1,0-24.751h66.66a12.375,12.375,0,0,1,0,24.751" transform="translate(-48.989 -75.636)" fill="#f5b015"/>
        <rect id="Rectángulo_228" data-name="Rectángulo 228" width="72.514" height="1.681" transform="translate(142.23 80.402)" fill="#fff"/>
        <rect id="Rectángulo_229" data-name="Rectángulo 229" width="10.004" height="1.681" transform="translate(142.229 74.489)" fill="#fff"/>
        <rect id="Rectángulo_230" data-name="Rectángulo 230" width="48.11" height="1.681" transform="translate(156.562 74.489)" fill="#fff"/>
        <rect id="Rectángulo_231" data-name="Rectángulo 231" width="62.08" height="1.681" transform="translate(142.229 68.577)" fill="#fff"/>
        <rect id="Rectángulo_232" data-name="Rectángulo 232" width="10.355" height="1.681" transform="translate(207.12 68.577)" fill="#fff"/>
        <path id="Trazado_1019" data-name="Trazado 1019" d="M186.336,232.719l-13.11-11.238,15.861-.048Z" transform="translate(-47.527 -88.491)" fill="#f5b015"/>
        <path id="Trazado_1020" data-name="Trazado 1020" d="M250.257,242.135H194.994a12.375,12.375,0,1,1,0-24.75h55.263a12.375,12.375,0,1,1,0,24.75" transform="translate(-48.989 -87.861)" fill="#f5b015"/>
        <rect id="Rectángulo_233" data-name="Rectángulo 233" width="61.118" height="1.681" transform="translate(142.229 146.694)" fill="#f4f4f4"/>
        <rect id="Rectángulo_234" data-name="Rectángulo 234" width="10.004" height="1.681" transform="translate(142.229 140.781)" fill="#f4f4f4"/>
        <rect id="Rectángulo_235" data-name="Rectángulo 235" width="36.713" height="1.681" transform="translate(156.562 140.781)" fill="#f4f4f4"/>
        <rect id="Rectángulo_236" data-name="Rectángulo 236" width="50.682" height="1.681" transform="translate(142.23 134.868)" fill="#f4f4f4"/>
        <rect id="Rectángulo_237" data-name="Rectángulo 237" width="10.355" height="1.681" transform="translate(195.724 134.868)" fill="#f4f4f4"/>
        <g id="Grupo_328" data-name="Grupo 328" transform="translate(124.057 95.842)" opacity="0.6">
          <g id="Grupo_327" data-name="Grupo 327">
            <g id="Grupo_326" data-name="Grupo 326" clip-path="url(#clip-path-5)">
              <path id="Trazado_1021" data-name="Trazado 1021" d="M251.134,192.827l13.11-11.238-15.861-.048Z" transform="translate(-183.286 -178.122)" fill="#96999e"/>
              <path id="Trazado_1022" data-name="Trazado 1022" d="M183.656,202.242h48.278a12.375,12.375,0,1,0,0-24.751H183.656a12.375,12.375,0,0,0,0,24.751" transform="translate(-171.281 -177.492)" fill="#96999e"/>
              <rect id="Rectángulo_238" data-name="Rectángulo 238" width="54.132" height="1.681" transform="translate(10.296 17.17)" fill="#fff"/>
              <rect id="Rectángulo_239" data-name="Rectángulo 239" width="10.004" height="1.681" transform="translate(54.424 11.257)" fill="#fff"/>
              <rect id="Rectángulo_240" data-name="Rectángulo 240" width="29.728" height="1.681" transform="translate(20.368 11.257)" fill="#fff"/>
              <rect id="Rectángulo_241" data-name="Rectángulo 241" width="43.698" height="1.681" transform="translate(20.731 5.344)" fill="#fff"/>
              <rect id="Rectángulo_242" data-name="Rectángulo 242" width="10.355" height="1.681" transform="translate(7.565 5.344)" fill="#fff"/>
            </g>
          </g>
        </g>
        <path id="Trazado_1023" data-name="Trazado 1023" d="M269.189,189.195A10.614,10.614,0,1,0,279.8,178.581a10.614,10.614,0,0,0-10.614,10.614" transform="translate(-62.468 -81.819)" fill="#96999e"/>
        <path id="Trazado_1024" data-name="Trazado 1024" d="M277.548,187.526a3.728,3.728,0,0,0,3.61,3.861,3.769,3.769,0,0,0,3.676-3.833,3.729,3.729,0,0,0-3.61-3.862,3.771,3.771,0,0,0-3.676,3.834" transform="translate(-63.77 -82.615)" fill="#fff"/>
        <path id="Trazado_1025" data-name="Trazado 1025" d="M285.744,198.048c.025-2.85-2.161-3.047-4.86-3.058s-4.886.171-4.91,3.021Z" transform="translate(-63.525 -84.374)" fill="#fff"/>
        <g id="Grupo_331" data-name="Grupo 331" transform="translate(124.057 165.746)" opacity="0.6">
          <g id="Grupo_330" data-name="Grupo 330">
            <g id="Grupo_329" data-name="Grupo 329" clip-path="url(#clip-path-6)">
              <path id="Trazado_1026" data-name="Trazado 1026" d="M251.134,275.622l13.11-11.239-15.861-.048Z" transform="translate(-183.286 -260.917)" fill="#96999e"/>
              <path id="Trazado_1027" data-name="Trazado 1027" d="M183.656,285.038h48.278a12.375,12.375,0,1,0,0-24.751H183.656a12.375,12.375,0,0,0,0,24.751" transform="translate(-171.281 -260.287)" fill="#96999e"/>
              <rect id="Rectángulo_244" data-name="Rectángulo 244" width="54.132" height="1.68" transform="translate(10.296 17.171)" fill="#fff"/>
              <rect id="Rectángulo_245" data-name="Rectángulo 245" width="10.004" height="1.681" transform="translate(54.424 11.257)" fill="#fff"/>
              <rect id="Rectángulo_246" data-name="Rectángulo 246" width="29.728" height="1.681" transform="translate(20.368 11.257)" fill="#fff"/>
              <rect id="Rectángulo_247" data-name="Rectángulo 247" width="43.698" height="1.681" transform="translate(20.731 5.344)" fill="#fff"/>
              <rect id="Rectángulo_248" data-name="Rectángulo 248" width="10.355" height="1.681" transform="translate(7.565 5.344)" fill="#fff"/>
            </g>
          </g>
        </g>
        <path id="Trazado_1028" data-name="Trazado 1028" d="M269.189,271.99A10.614,10.614,0,1,0,279.8,261.376a10.614,10.614,0,0,0-10.614,10.614" transform="translate(-62.468 -94.71)" fill="#96999e"/>
        <path id="Trazado_1029" data-name="Trazado 1029" d="M277.548,270.321a3.727,3.727,0,0,0,3.61,3.861,3.77,3.77,0,0,0,3.676-3.834,3.728,3.728,0,0,0-3.61-3.861,3.771,3.771,0,0,0-3.676,3.834" transform="translate(-63.77 -95.506)" fill="#fff"/>
        <path id="Trazado_1030" data-name="Trazado 1030" d="M285.744,280.843c.025-2.849-2.161-3.048-4.86-3.058s-4.886.171-4.91,3.021Z" transform="translate(-63.525 -97.265)" fill="#fff"/>
      </g>
    </g>
    <g id="Grupo_338" data-name="Grupo 338">
      <g id="Grupo_337" data-name="Grupo 337" clip-path="url(#clip-path-7)">
        <path id="Trazado_1032" data-name="Trazado 1032" d="M327.114,182.259l-.152.014,1.255,12.432,9.944-7.148-.338-.546a11.843,11.843,0,0,0-10.709-4.753" transform="translate(-50.908 -28.369)" fill="#f5b015"/>
        <path id="Trazado_1033" data-name="Trazado 1033" d="M54.661,91.635a3.347,3.347,0,1,1-3.348-3.347,3.348,3.348,0,0,1,3.348,3.347" transform="translate(-7.468 -13.746)" fill="#f5b015"/>
        <path id="Trazado_1034" data-name="Trazado 1034" d="M13.813,256.045a3.347,3.347,0,1,1-3.348-3.347,3.348,3.348,0,0,1,3.348,3.347" transform="translate(-1.108 -39.345)" fill="#f5b015"/>
        <path id="Trazado_1035" data-name="Trazado 1035" d="M31.832,152.943a3.346,3.346,0,1,1-3.347-3.347,3.347,3.347,0,0,1,3.347,3.347" transform="translate(-3.914 -23.292)" fill="#f5b015"/>
        <path id="Trazado_1036" data-name="Trazado 1036" d="M329.181,225.939a3.346,3.346,0,1,1-3.347-3.347,3.347,3.347,0,0,1,3.347,3.347" transform="translate(-50.211 -34.658)" fill="#f5b015"/>
        <path id="Trazado_1037" data-name="Trazado 1037" d="M206.031,53.912a2.2,2.2,0,1,1-2.2-2.2,2.2,2.2,0,0,1,2.2,2.2" transform="translate(-31.393 -8.051)" fill="#f5b015"/>
        <rect id="Rectángulo_250" data-name="Rectángulo 250" width="293.387" height="2.052" transform="translate(0 291.967)" fill="#131313"/>
        <path id="Trazado_1038" data-name="Trazado 1038" d="M30.1,84.8,26.987,90.32h0l.332.21a5.774,5.774,0,0,0,3.866.663Z" transform="translate(-4.202 -13.204)" fill="#f5b015"/>
        <path id="Trazado_1039" data-name="Trazado 1039" d="M203.294,14.479a1.188,1.188,0,1,1-1.188-1.187,1.187,1.187,0,0,1,1.188,1.187" transform="translate(-31.283 -2.07)" fill="#dbe0e6"/>
        <path id="Trazado_1040" data-name="Trazado 1040" d="M25.566,179.037a1.188,1.188,0,1,1-1.188-1.187,1.187,1.187,0,0,1,1.188,1.187" transform="translate(-3.611 -27.691)" fill="#dbe0e6"/>
        <path id="Trazado_1041" data-name="Trazado 1041" d="M324.581,171.717a1.187,1.187,0,1,1-1.187-1.187,1.187,1.187,0,0,1,1.187,1.187" transform="translate(-50.168 -26.552)" fill="#dbe0e6"/>
        <path id="Trazado_1042" data-name="Trazado 1042" d="M238.067,50.654l-.079-.014-1.094,6.607,6.146-2.3-.1-.33a6.348,6.348,0,0,0-4.875-3.959" transform="translate(-36.884 -7.885)" fill="#f5b015"/>
        <g id="Grupo_336" data-name="Grupo 336" transform="translate(101.416 156.293)" opacity="0.3">
          <g id="Grupo_335" data-name="Grupo 335">
            <g id="Grupo_334" data-name="Grupo 334" clip-path="url(#clip-path-8)">
              <path id="Trazado_1043" data-name="Trazado 1043" d="M191.477,204.8a29.162,29.162,0,0,1-6.562-7.042,9.97,9.97,0,0,0-2.984,2.92c-1.166,1.862-2.016,1.456-3.751,2.449s-3.824,2.287-5.722.117-.859-7.791-4.34-4.1a51.633,51.633,0,0,1-4.51,4.123,12.643,12.643,0,0,1,1.166,4.384c.163,4.709-5.848,8.027-9.048,8.84-5.161,1.311-29.107,11.01-35.607,13.451V193.783l28.149-8.668.144.452a9.44,9.44,0,0,1,8.994,5.425,35.052,35.052,0,0,0,7.15-3.128c5.5-2.712,9.853-2.342,12.176-1.618,1.564.479,8.587,5.025,9.907,6.969a.382.382,0,0,1,.063.054c2.26,2.468,4.945,7.611,6.5,9.916.686,1.022.279,2.992-1.727,1.618" transform="translate(-120.119 -185.115)" fill="#2e3433"/>
            </g>
          </g>
        </g>
        <path id="Trazado_1044" data-name="Trazado 1044" d="M175.61,196.825c1.83-1.045,2.725-.622,3.954-2.579a10.61,10.61,0,0,1,3.146-3.086,30.77,30.77,0,0,0,6.925,7.426c2.112,1.454,2.546-.628,1.823-1.7-1.64-2.438-4.471-7.86-6.856-10.46a.426.426,0,0,0-.069-.059c-1.388-2.05-8.8-6.842-10.447-7.349-2.454-.757-7.049-1.152-12.841,1.707-9.309,5.909-40.7,10.707-44.253,12.887-11.423,7-1.722,26.177,10.723,22.65,9.914-2.811,30.225-16.14,37.286-23.642l0,.008c3.668-3.908,2.564,2.024,4.57,4.316s4.2.926,6.035-.118" transform="translate(-17.425 -27.787)" fill="#fff"/>
        <path id="Trazado_1045" data-name="Trazado 1045" d="M175.61,196.825c1.83-1.045,2.725-.622,3.954-2.579a10.61,10.61,0,0,1,3.146-3.086,30.77,30.77,0,0,0,6.925,7.426c2.112,1.454,2.546-.628,1.823-1.7-1.64-2.438-4.471-7.86-6.856-10.46a.426.426,0,0,0-.069-.059c-1.388-2.05-8.8-6.842-10.447-7.349-2.454-.757-7.049-1.152-12.841,1.707-9.309,5.909-40.7,10.707-44.253,12.887-11.423,7-1.722,26.177,10.723,22.65,9.914-2.811,30.225-16.14,37.286-23.642l0,.008c3.668-3.908,2.564,2.024,4.57,4.316S173.78,197.869,175.61,196.825Z" transform="translate(-17.425 -27.787)" fill="none" stroke="#2e3433" stroke-linecap="round" stroke-linejoin="round" stroke-width="1"/>
        <path id="Trazado_1046" data-name="Trazado 1046" d="M77.024,145.94c3.068,5.229,16.351,38.154,16.351,38.154l40.569-12.485a9.95,9.95,0,0,1,9.647,6.053c2.817,6.687,7.437,12.5,7.606,17.233.177,4.967-6.163,8.459-9.538,9.317-5.987,1.521-35.927,13.737-39.009,14.709C61.5,231.894,51.956,180.188,48,167.324c-9.747-31.736,17.209-41.513,29.019-21.384" transform="translate(-7.15 -21.09)" fill="#f5b015"/>
        <path id="Trazado_1047" data-name="Trazado 1047" d="M72.677,138.009l.535-.85a25.814,25.814,0,0,1,8.411,8.793c2.9,4.939,14.575,33.749,16.209,37.793l40.13-12.35.3.96L97.246,184.977l-.171-.429c-.133-.328-13.3-32.951-16.317-38.088a24.816,24.816,0,0,0-8.081-8.451" transform="translate(-11.316 -21.356)" fill="#2e3433"/>
        <path id="Trazado_1048" data-name="Trazado 1048" d="M183.683,72.591s-1.761-3.11-4.878.542-1.123,6.175.373,5.751,2.487-.584,3.207-3.127c0,0,.4,2.263,2.151,2.038a3.911,3.911,0,0,0,2.646-1.731s-.057,2.084.789,2.39,2.968-.507,3.783-2.648c0,0,.674,2.243,3.04.788s1.551-1.852,1.551-1.852l3.248-.01s-1.418-4.192-6.325-2.591c0,0-2.114-2.585-4.532.5,0,0-2.551-3.81-5.055-.05" transform="translate(-27.584 -11.044)" fill="#fff"/>
        <path id="Trazado_1049" data-name="Trazado 1049" d="M183.683,72.591s-1.761-3.11-4.878.542-1.123,6.175.373,5.751,2.487-.584,3.207-3.127c0,0,.4,2.263,2.151,2.038a3.911,3.911,0,0,0,2.646-1.731s-.057,2.084.789,2.39,2.968-.507,3.783-2.648c0,0,.674,2.243,3.04.788s1.551-1.852,1.551-1.852l3.248-.01s-1.418-4.192-6.325-2.591c0,0-2.114-2.585-4.532.5C188.738,72.641,186.186,68.831,183.683,72.591Z" transform="translate(-27.584 -11.044)" fill="none" stroke="#2e3433" stroke-linecap="round" stroke-linejoin="round" stroke-width="1"/>
        <path id="Trazado_1050" data-name="Trazado 1050" d="M189.075,76.265c.052-.284.121-.561.2-.836a8.391,8.391,0,0,1,.273-.807,6.134,6.134,0,0,1,.365-.767,6.329,6.329,0,0,1,.474-.713,3.249,3.249,0,0,0-.57.654,4.179,4.179,0,0,0-.4.773,4.582,4.582,0,0,0-.335,1.7" transform="translate(-29.439 -11.388)" fill="#2e3433"/>
        <path id="Trazado_1051" data-name="Trazado 1051" d="M194.462,75.841c.052-.283.121-.561.2-.836a8.4,8.4,0,0,1,.273-.807,5.912,5.912,0,0,1,.365-.767,6.113,6.113,0,0,1,.474-.713,3.251,3.251,0,0,0-.571.654,4.177,4.177,0,0,0-.4.773,4.586,4.586,0,0,0-.335,1.7" transform="translate(-30.278 -11.322)" fill="#2e3433"/>
        <path id="Trazado_1052" data-name="Trazado 1052" d="M183.349,76.071c.052-.284.121-.561.2-.836a8.087,8.087,0,0,1,.273-.807,5.851,5.851,0,0,1,.365-.767,6.108,6.108,0,0,1,.474-.713,3.249,3.249,0,0,0-.57.654,4.126,4.126,0,0,0-.4.773,4.6,4.6,0,0,0-.335,1.7" transform="translate(-28.547 -11.358)" fill="#2e3433"/>
        <rect id="Rectángulo_252" data-name="Rectángulo 252" width="270.432" height="1.898" transform="translate(18.006 291.999)" fill="#131313"/>
        <path id="Trazado_1053" data-name="Trazado 1053" d="M342.6,83.2a1.992,1.992,0,1,1,1.219,2.539A1.993,1.993,0,0,1,342.6,83.2" transform="translate(-53.325 -12.746)" fill="#f5b015"/>
        <path id="Trazado_1054" data-name="Trazado 1054" d="M18.754,197.065a1.992,1.992,0,1,1,1.219,2.539,1.993,1.993,0,0,1-1.219-2.539" transform="translate(-2.902 -30.476)" fill="#f5b015"/>
        <path id="Trazado_1055" data-name="Trazado 1055" d="M93.843,1.035a1.547,1.547,0,1,1,.947,1.972,1.547,1.547,0,0,1-.947-1.972" transform="translate(-14.598 0)" fill="#dbe0e6"/>
        <path id="Trazado_1056" data-name="Trazado 1056" d="M143.567,44.52a3.094,3.094,0,1,1,1.895,3.945,3.094,3.094,0,0,1-1.895-3.945" transform="translate(-22.326 -6.61)" fill="#f5b015"/>
        <path id="Trazado_1057" data-name="Trazado 1057" d="M267.058,53.246a2.436,2.436,0,1,1,1.492,3.106,2.436,2.436,0,0,1-1.492-3.106" transform="translate(-41.559 -8.037)" fill="#f5b015"/>
      </g>
    </g>
  </g>
</svg>
