<svg xmlns="http://www.w3.org/2000/svg" xmlns:xlink="http://www.w3.org/1999/xlink" width="48" height="47" viewBox="0 0 48 47">
  <defs>
    <clipPath id="clip-path">
      <rect id="Rectángulo_74" data-name="Rectángulo 74" width="25" height="33" transform="translate(-1.096 -1.562)" fill="#e00520"/>
    </clipPath>
  </defs>
  <g id="Grupo_177" data-name="Grupo 177" transform="translate(0.36 -0.255)">
    <g id="Trazado_596" data-name="Trazado 596" transform="translate(-0.36 0.255)" fill="#fff">
      <path d="M 24 46 C 20.89199066162109 46 17.87767028808594 45.40427017211914 15.04074954986572 44.22935104370117 C 12.30146026611328 43.09487152099609 9.841449737548828 41.47087860107422 7.729060173034668 39.40250015258789 C 5.61814022064209 37.33554840087891 3.961119890213013 34.92934036254883 2.804049968719482 32.25070953369141 C 1.606969952583313 29.47945976257324 1 26.5352897644043 1 23.5 C 1 20.4647102355957 1.606969952583313 17.52054023742676 2.804049968719482 14.74929046630859 C 3.961119890213013 12.07065963745117 5.61814022064209 9.664449691772461 7.729060173034668 7.597499847412109 C 9.841449737548828 5.529119968414307 12.30146026611328 3.905129909515381 15.04074954986572 2.770649909973145 C 17.87767028808594 1.595729947090149 20.89199066162109 1 24 1 C 27.10800933837891 1 30.12232971191406 1.595729947090149 32.95925140380859 2.770649909973145 C 35.69853973388672 3.905129909515381 38.15855026245117 5.529119968414307 40.27093887329102 7.597499847412109 C 42.38185882568359 9.664449691772461 44.03887939453125 12.07065963745117 45.19594955444336 14.74929046630859 C 46.39302825927734 17.52054023742676 47 20.4647102355957 47 23.5 C 47 26.5352897644043 46.39302825927734 29.47945976257324 45.19594955444336 32.25070953369141 C 44.03887939453125 34.92934036254883 42.38185882568359 37.33554840087891 40.27093887329102 39.40250015258789 C 38.15855026245117 41.47087860107422 35.69853973388672 43.09487152099609 32.95925140380859 44.22935104370117 C 30.12232971191406 45.40427017211914 27.10800933837891 46 24 46 Z" stroke="none"/>
      <path d="M 24 2 C 21.02396011352539 2 18.13837051391602 2.57012939453125 15.42338943481445 3.694549560546875 C 12.80271148681641 4.779911041259766 10.44934844970703 6.333450317382812 8.428691864013672 8.31201171875 C 6.41094970703125 10.2877082824707 4.827419281005859 12.58694076538086 3.722068786621094 15.14583969116211 C 2.579391479492188 17.7911491394043 2 20.60190010070801 2 23.5 C 2 26.39809989929199 2.579391479492188 29.2088508605957 3.722068786621094 31.85416030883789 C 4.827419281005859 34.41305923461914 6.41094970703125 36.71228790283203 8.428691864013672 38.68798828125 C 10.44934844970703 40.66654968261719 12.80271148681641 42.22008895874023 15.42338943481445 43.30545043945312 C 18.13837051391602 44.42987060546875 21.02396011352539 45 24 45 C 26.97603988647461 45 29.86162948608398 44.42987060546875 32.57661056518555 43.30545043945312 C 35.19728851318359 42.22008895874023 37.55065155029297 40.66654968261719 39.57131195068359 38.68798828125 C 41.58905029296875 36.71228790283203 43.17258071899414 34.41305923461914 44.27793121337891 31.85416030883789 C 45.42060852050781 29.2088508605957 46 26.39809989929199 46 23.5 C 46 20.60190010070801 45.42060852050781 17.7911491394043 44.27793121337891 15.14583969116211 C 43.17258071899414 12.58694076538086 41.58905029296875 10.2877082824707 39.57131195068359 8.31201171875 C 37.55065155029297 6.333450317382812 35.19728851318359 4.779911041259766 32.57661056518555 3.694549560546875 C 29.86162948608398 2.57012939453125 26.97603988647461 2 24 2 M 24 0 C 37.25482940673828 0 48 10.52130889892578 48 23.5 C 48 36.47869110107422 37.25482940673828 47 24 47 C 10.74517059326172 47 0 36.47869110107422 0 23.5 C 0 10.52130889892578 10.74517059326172 0 24 0 Z" stroke="none" fill="#e00520"/>
    </g>
    <g id="Grupo_46" data-name="Grupo 46" transform="translate(12.735 8.817)">
      <g id="Grupo_45" data-name="Grupo 45" transform="translate(0 0)" clip-path="url(#clip-path)">
        <path id="Trazado_393" data-name="Trazado 393" d="M71.347,0A7.347,7.347,0,1,1,64,7.347,7.347,7.347,0,0,1,71.347,0" transform="translate(-60.152 0)" fill="#e00520"/>
        <path id="Trazado_394" data-name="Trazado 394" d="M11.02,298.667A11.033,11.033,0,0,0,0,309.687a1.224,1.224,0,0,0,1.224,1.224H20.816a1.224,1.224,0,0,0,1.224-1.224,11.032,11.032,0,0,0-11.02-11.02" transform="translate(0.175 -281.525)" fill="#e00520"/>
      </g>
    </g>
  </g>
</svg>
