<svg xmlns="http://www.w3.org/2000/svg" xmlns:xlink="http://www.w3.org/1999/xlink" width="352.404" height="353.01" viewBox="0 0 352.404 353.01">
  <defs>
    <clipPath id="clip-path">
      <rect id="Rectángulo_302" data-name="Rectángulo 302" width="352.404" height="353.01" transform="translate(89 125)" fill="none"/>
    </clipPath>
    <clipPath id="clip-path-2">
      <rect id="Rectángulo_287" data-name="Rectángulo 287" width="441.404" height="615.01" fill="none"/>
    </clipPath>
    <clipPath id="clip-path-3">
      <path id="Trazado_1185" data-name="Trazado 1185" d="M368.039,166.914a17.761,17.761,0,0,0-13.379,21.224,106.541,106.541,0,0,1-207.809,47.106,17.741,17.741,0,1,0-34.6,7.843c17.313,76.376,93.529,124.424,169.9,107.111s124.423-93.529,107.11-169.9a17.73,17.73,0,0,0-21.224-13.38" transform="translate(-111.806 -166.473)" fill="none"/>
    </clipPath>
    <clipPath id="clip-path-5">
      <rect id="Rectángulo_294" data-name="Rectángulo 294" width="260.463" height="230.066" fill="none"/>
    </clipPath>
    <clipPath id="clip-path-6">
      <rect id="Rectángulo_292" data-name="Rectángulo 292" width="10.692" height="7.695" fill="none"/>
    </clipPath>
    <clipPath id="clip-path-7">
      <rect id="Rectángulo_293" data-name="Rectángulo 293" width="10.693" height="7.695" fill="none"/>
    </clipPath>
  </defs>
  <g id="Grupo_673" data-name="Grupo 673" transform="translate(-89 -125)">
    <g id="Grupo_377" data-name="Grupo 377" clip-path="url(#clip-path)">
      <g id="Grupo_362" data-name="Grupo 362">
        <g id="Grupo_361" data-name="Grupo 361" clip-path="url(#clip-path-2)">
          <path id="Trazado_1183" data-name="Trazado 1183" d="M299.66,481.952c47.315-19.792,29.02-75.975,107.745-124.43,84.377-51.934,4.432-172.11-100.478-159.863C202.51,209.847,163.839,265.33,170.052,355.611c4.672,67.886,59.294,155.751,129.607,126.341" transform="translate(-20.854 -24.224)" fill="#fff"/>
          <path id="Trazado_1184" data-name="Trazado 1184" d="M426.025,395.274c-20.663,11.8-47.423,53.68-27.74,91.141s88.745-125.983,27.74-91.141" transform="translate(-48.18 -48.052)" fill="#fff"/>
        </g>
      </g>
      <g id="Grupo_364" data-name="Grupo 364" transform="translate(98.043 145.981)">
        <g id="Grupo_363" data-name="Grupo 363" clip-path="url(#clip-path-3)">
          <line id="Línea_121" data-name="Línea 121" x1="296.297" y1="186.79" transform="translate(-96.172 63.669)" fill="none" stroke="#f3ad13" stroke-miterlimit="10" stroke-width="8"/>
          <line id="Línea_122" data-name="Línea 122" x1="296.297" y1="186.79" transform="translate(-89.315 52.791)" fill="none" stroke="#f3ad13" stroke-miterlimit="10" stroke-width="8"/>
          <line id="Línea_123" data-name="Línea 123" x1="296.297" y1="186.791" transform="translate(-82.457 41.913)" fill="none" stroke="#f3ad13" stroke-miterlimit="10" stroke-width="8"/>
          <line id="Línea_124" data-name="Línea 124" x1="296.297" y1="186.791" transform="translate(-75.599 31.034)" fill="none" stroke="#f3ad13" stroke-miterlimit="10" stroke-width="8"/>
          <line id="Línea_125" data-name="Línea 125" x1="296.298" y1="186.791" transform="translate(-68.742 20.156)" fill="none" stroke="#f3ad13" stroke-miterlimit="10" stroke-width="8"/>
          <line id="Línea_126" data-name="Línea 126" x1="296.297" y1="186.791" transform="translate(-61.884 9.278)" fill="none" stroke="#f3ad13" stroke-miterlimit="10" stroke-width="8"/>
          <line id="Línea_127" data-name="Línea 127" x1="296.297" y1="186.791" transform="translate(-55.026 -1.6)" fill="none" stroke="#f3ad13" stroke-miterlimit="10" stroke-width="8"/>
          <line id="Línea_128" data-name="Línea 128" x1="296.298" y1="186.791" transform="translate(-48.169 -12.478)" fill="none" stroke="#f3ad13" stroke-miterlimit="10" stroke-width="8"/>
          <line id="Línea_129" data-name="Línea 129" x1="296.297" y1="186.79" transform="translate(-41.311 -23.355)" fill="none" stroke="#f3ad13" stroke-miterlimit="10" stroke-width="8"/>
          <line id="Línea_130" data-name="Línea 130" x1="296.297" y1="186.79" transform="translate(-34.453 -34.233)" fill="none" stroke="#f3ad13" stroke-miterlimit="10" stroke-width="8"/>
          <line id="Línea_131" data-name="Línea 131" x1="296.298" y1="186.79" transform="translate(-27.596 -45.111)" fill="none" stroke="#f3ad13" stroke-miterlimit="10" stroke-width="8"/>
          <line id="Línea_132" data-name="Línea 132" x1="296.297" y1="186.79" transform="translate(-20.737 -55.989)" fill="none" stroke="#f3ad13" stroke-miterlimit="10" stroke-width="8"/>
          <line id="Línea_133" data-name="Línea 133" x1="296.297" y1="186.791" transform="translate(-13.88 -66.868)" fill="none" stroke="#f3ad13" stroke-miterlimit="10" stroke-width="8"/>
          <line id="Línea_134" data-name="Línea 134" x1="296.297" y1="186.791" transform="translate(-7.022 -77.746)" fill="none" stroke="#f3ad13" stroke-miterlimit="10" stroke-width="8"/>
          <line id="Línea_135" data-name="Línea 135" x1="296.297" y1="186.791" transform="translate(-0.164 -88.624)" fill="none" stroke="#f3ad13" stroke-miterlimit="10" stroke-width="8"/>
          <line id="Línea_136" data-name="Línea 136" x1="296.297" y1="186.791" transform="translate(6.693 -99.502)" fill="none" stroke="#f3ad13" stroke-miterlimit="10" stroke-width="8"/>
          <line id="Línea_137" data-name="Línea 137" x1="296.297" y1="186.791" transform="translate(13.551 -110.38)" fill="none" stroke="#f3ad13" stroke-miterlimit="10" stroke-width="8"/>
          <line id="Línea_138" data-name="Línea 138" x1="296.298" y1="186.791" transform="translate(20.408 -121.258)" fill="none" stroke="#f3ad13" stroke-miterlimit="10" stroke-width="8"/>
          <line id="Línea_139" data-name="Línea 139" x1="296.297" y1="186.791" transform="translate(27.266 -132.136)" fill="none" stroke="#f3ad13" stroke-miterlimit="10" stroke-width="8"/>
          <line id="Línea_140" data-name="Línea 140" x1="296.297" y1="186.791" transform="translate(34.124 -143.014)" fill="none" stroke="#f3ad13" stroke-miterlimit="10" stroke-width="8"/>
        </g>
      </g>
      <g id="Grupo_366" data-name="Grupo 366">
        <g id="Grupo_365" data-name="Grupo 365" clip-path="url(#clip-path-2)">
          <path id="Trazado_1186" data-name="Trazado 1186" d="M482.994,363.36l-.158.015,1.3,12.912,10.328-7.424-.351-.567a12.3,12.3,0,0,0-11.123-4.936" transform="translate(-59.435 -44.72)" fill="#f5b015"/>
          <path id="Trazado_1187" data-name="Trazado 1187" d="M210.793,272.862a3.476,3.476,0,1,1-3.477-3.476,3.477,3.477,0,0,1,3.477,3.476" transform="translate(-25.092 -33.16)" fill="#f5b015"/>
          <path id="Trazado_1188" data-name="Trazado 1188" d="M169.945,437.271a3.476,3.476,0,1,1-3.477-3.476,3.477,3.477,0,0,1,3.477,3.476" transform="translate(-20.064 -53.398)" fill="#f5b015"/>
          <path id="Trazado_1189" data-name="Trazado 1189" d="M187.964,334.17a3.476,3.476,0,1,1-3.476-3.476,3.476,3.476,0,0,1,3.476,3.476" transform="translate(-22.282 -40.707)" fill="#f5b015"/>
          <path id="Trazado_1190" data-name="Trazado 1190" d="M485.313,407.166a3.476,3.476,0,1,1-3.476-3.476,3.476,3.476,0,0,1,3.476,3.476" transform="translate(-58.884 -49.692)" fill="#f5b015"/>
          <path id="Trazado_1191" data-name="Trazado 1191" d="M362.075,235.1a2.29,2.29,0,1,1-2.29-2.29,2.29,2.29,0,0,1,2.29,2.29" transform="translate(-44.006 -28.657)" fill="#f5b015"/>
          <path id="Trazado_1192" data-name="Trazado 1192" d="M186.1,265.9l-3.236,5.729,0,0,.345.217a6,6,0,0,0,4.015.688Z" transform="translate(-22.509 -32.731)" fill="#f5b015"/>
          <path id="Trazado_1193" data-name="Trazado 1193" d="M359.26,195.623a1.233,1.233,0,1,1-1.234-1.233,1.233,1.233,0,0,1,1.234,1.233" transform="translate(-43.919 -23.928)" fill="#dbe0e6"/>
          <path id="Trazado_1194" data-name="Trazado 1194" d="M181.532,360.181a1.233,1.233,0,1,1-1.234-1.233,1.233,1.233,0,0,1,1.234,1.233" transform="translate(-22.042 -44.185)" fill="#dbe0e6"/>
          <path id="Trazado_1195" data-name="Trazado 1195" d="M480.548,352.86a1.233,1.233,0,1,1-1.233-1.233,1.233,1.233,0,0,1,1.233,1.233" transform="translate(-58.849 -43.283)" fill="#dbe0e6"/>
          <path id="Trazado_1196" data-name="Trazado 1196" d="M393.986,231.751l-.082-.014-1.136,6.863,6.384-2.394-.1-.343a6.594,6.594,0,0,0-5.063-4.112" transform="translate(-48.348 -28.526)" fill="#f5b015"/>
          <path id="Trazado_1197" data-name="Trazado 1197" d="M498.475,264.348a2.069,2.069,0,1,1,1.266,2.637,2.069,2.069,0,0,1-1.266-2.637" transform="translate(-61.345 -32.369)" fill="#f5b015"/>
          <path id="Trazado_1198" data-name="Trazado 1198" d="M174.633,378.215a2.069,2.069,0,1,1,1.266,2.637,2.07,2.07,0,0,1-1.266-2.637" transform="translate(-21.482 -46.386)" fill="#f5b015"/>
          <path id="Trazado_1199" data-name="Trazado 1199" d="M249.72,182.173a1.607,1.607,0,1,1,.984,2.048,1.607,1.607,0,0,1-.984-2.048" transform="translate(-30.728 -22.292)" fill="#dbe0e6"/>
          <path id="Trazado_1200" data-name="Trazado 1200" d="M299.447,225.7a3.214,3.214,0,1,1,1.968,4.1,3.214,3.214,0,0,1-1.968-4.1" transform="translate(-36.838 -27.518)" fill="#f5b015"/>
          <path id="Trazado_1201" data-name="Trazado 1201" d="M422.938,234.406a2.53,2.53,0,1,1,1.549,3.227,2.53,2.53,0,0,1-1.549-3.227" transform="translate(-52.044 -28.646)" fill="#f5b015"/>
          <path id="Trazado_1202" data-name="Trazado 1202" d="M467.167,215.166V349.759a7.111,7.111,0,0,1-7.115,7.106H264.365a7.108,7.108,0,0,1-7.106-7.106V215.166a4.885,4.885,0,0,1,4.88-4.88H462.278a4.948,4.948,0,0,1,1.842.355,4.89,4.89,0,0,1,3.047,4.525" transform="translate(-31.667 -25.885)" fill="#fff"/>
          <path id="Trazado_1203" data-name="Trazado 1203" d="M459.925,357.643H264.238a8.02,8.02,0,0,1-8.012-8.01V215.039a5.792,5.792,0,0,1,5.786-5.785H462.151a5.891,5.891,0,0,1,2.181.421,5.775,5.775,0,0,1,3.613,5.364V349.633a8.023,8.023,0,0,1-8.019,8.01M262.012,211.064a3.98,3.98,0,0,0-3.975,3.975V349.633a6.208,6.208,0,0,0,6.2,6.2H459.925a6.213,6.213,0,0,0,6.21-6.2V215.039a3.97,3.97,0,0,0-2.484-3.686,4.028,4.028,0,0,0-1.5-.289Z" transform="translate(-31.54 -25.758)" fill="#2e3433"/>
          <path id="Trazado_1204" data-name="Trazado 1204" d="M465.129,344.757H389.17a2.751,2.751,0,0,1-2.751-2.751V260.9a2.752,2.752,0,0,1,2.751-2.752h75.959a2.751,2.751,0,0,1,2.751,2.752v81.109a2.751,2.751,0,0,1-2.751,2.751" transform="translate(-47.566 -31.776)" fill="#dbe0e6"/>
          <path id="Rectángulo_288" data-name="Rectángulo 288" d="M3.137,0H78.324a3.137,3.137,0,0,1,3.137,3.137V83.473a3.138,3.138,0,0,1-3.138,3.138H3.137A3.137,3.137,0,0,1,0,83.474V3.137A3.137,3.137,0,0,1,3.137,0Z" transform="translate(338.853 226.369)" fill="none" stroke="#2e3433" stroke-miterlimit="10" stroke-width="1"/>
          <path id="Trazado_1205" data-name="Trazado 1205" d="M458.088,289.923H399.542a2.8,2.8,0,0,0-2.656,3.491l.574,2.271,2.2,8.666,4.606,18.193a2.807,2.807,0,0,0,2.722,2.114h43.72a2.8,2.8,0,0,0,2.715-2.114l2.245-8.862,3.131-12.346,2.01-7.922a2.8,2.8,0,0,0-2.721-3.491m-39.008,24.555a4.18,4.18,0,0,1-.131.946,3.4,3.4,0,0,1-.176.516,3.9,3.9,0,0,1-2.082,2.095,4.135,4.135,0,0,1-.724.228,3.926,3.926,0,0,1-2.395-.254,3.916,3.916,0,0,1-2.323-3.583V300.155a3.313,3.313,0,0,1,.052-.62,3.992,3.992,0,0,1,.5-1.384,3.945,3.945,0,0,1,3.367-1.912,3.845,3.845,0,0,1,1.527.314c.091.039.176.078.267.124a3.724,3.724,0,0,1,.973.711,3.936,3.936,0,0,1,1.136,2.44c.006.111.013.216.013.326Zm13.951-.053a3.791,3.791,0,0,1-.281,1.45.184.184,0,0,1-.025.065,1.157,1.157,0,0,1-.053.118,3.887,3.887,0,0,1-1.932,1.931.615.615,0,0,1-.1.046,3.857,3.857,0,0,1-1.528.306,4.2,4.2,0,0,1-.5-.025c-.1-.013-.2-.033-.307-.053a3.914,3.914,0,0,1-3.112-3.837V300.155a4.11,4.11,0,0,1,.143-1.064,4.309,4.309,0,0,1,.405-.94c.078-.124.156-.241.241-.359l.169-.209a4.167,4.167,0,0,1,.549-.516,3.884,3.884,0,0,1,2.407-.829,3.813,3.813,0,0,1,2.467.881,2.216,2.216,0,0,1,.3.267,3.693,3.693,0,0,1,.515.633,4.31,4.31,0,0,1,.327.62,3.92,3.92,0,0,1,.306,1.514ZM444.1,318.2a3.862,3.862,0,0,1-1.031.137h-.078a3.905,3.905,0,0,1-3.288-1.912,3.857,3.857,0,0,1-.548-2V300.155a3.878,3.878,0,0,1,.548-2,3.928,3.928,0,0,1,1.99-1.664,4.034,4.034,0,0,1,1.377-.248,3.971,3.971,0,0,1,1.528.307,4.015,4.015,0,0,1,1.154.757l.085.085a3.88,3.88,0,0,1,1.149,2.767v14.271a4.014,4.014,0,0,1-.228,1.319,3.958,3.958,0,0,1-2.16,2.29,4.541,4.541,0,0,1-.5.169" transform="translate(-48.844 -35.688)" fill="#2e3433"/>
          <path id="Trazado_1206" data-name="Trazado 1206" d="M433.166,289.782a1.14,1.14,0,0,1-.3.041A1.125,1.125,0,0,1,431.78,289l-.46-1.641-4.292-15.055a1.286,1.286,0,0,0-1.234-.935h-5.966a.94.94,0,0,0-.906,1.186l4.033,14.8h-2.328l-3.873-14.214a3.187,3.187,0,0,1,3.074-4.022h5.966a3.543,3.543,0,0,1,3.4,2.574l4.463,15.662.289,1.032a1.124,1.124,0,0,1-.778,1.386" transform="translate(-51.286 -33.128)" fill="#2e3433"/>
          <path id="Trazado_1207" data-name="Trazado 1207" d="M470.1,325.736a8.826,8.826,0,1,1-8.826-8.825,8.826,8.826,0,0,1,8.826,8.825" transform="translate(-55.694 -39.01)" fill="#f5b015"/>
          <path id="Trazado_1208" data-name="Trazado 1208" d="M470.1,325.736a8.826,8.826,0,1,1-8.826-8.825A8.826,8.826,0,0,1,470.1,325.736Z" transform="translate(-55.694 -39.01)" fill="none" stroke="#2e3433" stroke-miterlimit="10" stroke-width="1"/>
          <path id="Trazado_1209" data-name="Trazado 1209" d="M460.948,325.446a1.85,1.85,0,0,1-1.222-1.781,2.084,2.084,0,0,1,.673-1.592,3.213,3.213,0,0,1,3.821,0,2.076,2.076,0,0,1,.679,1.592,1.883,1.883,0,0,1-.312,1.067,1.985,1.985,0,0,1-.875.714,2.3,2.3,0,0,1,1.09.84,2.223,2.223,0,0,1,.373,1.276,2.6,2.6,0,0,1-.76,1.939,2.767,2.767,0,0,1-2.026.747,3.057,3.057,0,0,1-1.956-.617,2.41,2.41,0,0,1-.923-2,2.471,2.471,0,0,1,.347-1.285,2.232,2.232,0,0,1,1.093-.9m.189,2.027a1.516,1.516,0,0,0,.349,1.064,1.135,1.135,0,0,0,.873.382,1.1,1.1,0,0,0,.846-.367,1.519,1.519,0,0,0,.335-1.061,1.373,1.373,0,0,0-.341-.973,1.127,1.127,0,0,0-.863-.367,1.032,1.032,0,0,0-.9.417,1.526,1.526,0,0,0-.3.9m.153-3.691a1.032,1.032,0,0,0,.28.77,1.007,1.007,0,0,0,.743.276,1.019,1.019,0,0,0,.752-.28,1.036,1.036,0,0,0,.282-.773.959.959,0,0,0-1.017-1.022,1.025,1.025,0,0,0-.758.281,1.013,1.013,0,0,0-.282.747" transform="translate(-56.563 -39.568)" fill="#2e3433"/>
          <path id="Trazado_1210" data-name="Trazado 1210" d="M360.315,344.757H284.356a2.751,2.751,0,0,1-2.751-2.751V260.9a2.752,2.752,0,0,1,2.751-2.752h75.959a2.751,2.751,0,0,1,2.751,2.752v81.109a2.751,2.751,0,0,1-2.751,2.751" transform="translate(-34.664 -31.776)" fill="#dbe0e6"/>
          <path id="Rectángulo_289" data-name="Rectángulo 289" d="M3.137,0H78.324a3.137,3.137,0,0,1,3.137,3.137V83.473a3.138,3.138,0,0,1-3.138,3.138H3.137A3.137,3.137,0,0,1,0,83.474V3.137A3.137,3.137,0,0,1,3.137,0Z" transform="translate(246.941 226.369)" fill="none" stroke="#2e3433" stroke-miterlimit="10" stroke-width="1"/>
          <path id="Trazado_1211" data-name="Trazado 1211" d="M353.274,289.923H294.728a2.8,2.8,0,0,0-2.656,3.491l.574,2.271,2.2,8.666,4.606,18.193a2.807,2.807,0,0,0,2.722,2.114h43.72a2.8,2.8,0,0,0,2.715-2.114l2.245-8.862,3.131-12.346,2.01-7.922a2.8,2.8,0,0,0-2.721-3.491m-39.008,24.555a4.177,4.177,0,0,1-.131.946,3.394,3.394,0,0,1-.176.516,3.9,3.9,0,0,1-2.082,2.095,4.138,4.138,0,0,1-.724.228,3.926,3.926,0,0,1-2.395-.254,3.916,3.916,0,0,1-2.323-3.583V300.155a3.316,3.316,0,0,1,.052-.62,3.993,3.993,0,0,1,.5-1.384,3.945,3.945,0,0,1,3.367-1.912,3.846,3.846,0,0,1,1.527.314c.091.039.176.078.267.124a3.725,3.725,0,0,1,.973.711,3.936,3.936,0,0,1,1.136,2.44c.006.111.013.216.013.326Zm13.951-.053a3.79,3.79,0,0,1-.281,1.45.185.185,0,0,1-.025.065,1.131,1.131,0,0,1-.053.118,3.886,3.886,0,0,1-1.932,1.931.612.612,0,0,1-.1.046,3.857,3.857,0,0,1-1.528.306,4.2,4.2,0,0,1-.5-.025c-.1-.013-.2-.033-.307-.053a3.914,3.914,0,0,1-3.112-3.837V300.155a4.114,4.114,0,0,1,.143-1.064,4.313,4.313,0,0,1,.405-.94c.078-.124.156-.241.241-.359l.169-.209a4.162,4.162,0,0,1,.549-.516,3.884,3.884,0,0,1,2.407-.829,3.813,3.813,0,0,1,2.467.881,2.217,2.217,0,0,1,.3.267,3.7,3.7,0,0,1,.515.633,4.3,4.3,0,0,1,.327.62,3.92,3.92,0,0,1,.306,1.514Zm11.067,3.779a3.863,3.863,0,0,1-1.031.137h-.078a3.905,3.905,0,0,1-3.288-1.912,3.858,3.858,0,0,1-.548-2V300.155a3.879,3.879,0,0,1,.548-2,3.928,3.928,0,0,1,1.99-1.664,4.034,4.034,0,0,1,1.377-.248,3.971,3.971,0,0,1,1.528.307,4.014,4.014,0,0,1,1.154.757l.085.085a3.88,3.88,0,0,1,1.149,2.767v14.271a4.011,4.011,0,0,1-.228,1.319,3.958,3.958,0,0,1-2.16,2.29,4.545,4.545,0,0,1-.5.169" transform="translate(-35.942 -35.688)" fill="#2e3433"/>
          <path id="Trazado_1212" data-name="Trazado 1212" d="M328.352,289.782a1.151,1.151,0,0,1-.305.041,1.126,1.126,0,0,1-1.082-.819l-.46-1.641-4.291-15.055a1.287,1.287,0,0,0-1.235-.935h-5.966a.941.941,0,0,0-.906,1.186l4.033,14.8h-2.328l-3.872-14.214a3.187,3.187,0,0,1,3.074-4.022h5.966a3.542,3.542,0,0,1,3.4,2.574l4.463,15.662.29,1.032a1.125,1.125,0,0,1-.778,1.386" transform="translate(-38.384 -33.128)" fill="#2e3433"/>
          <path id="Trazado_1213" data-name="Trazado 1213" d="M365.286,325.736a8.826,8.826,0,1,1-8.826-8.825,8.826,8.826,0,0,1,8.826,8.825" transform="translate(-42.792 -39.01)" fill="#f5b015"/>
          <path id="Trazado_1214" data-name="Trazado 1214" d="M365.286,325.736a8.826,8.826,0,1,1-8.826-8.825A8.826,8.826,0,0,1,365.286,325.736Z" transform="translate(-42.792 -39.01)" fill="none" stroke="#2e3433" stroke-miterlimit="10" stroke-width="1"/>
          <path id="Trazado_1215" data-name="Trazado 1215" d="M356.133,325.446a1.85,1.85,0,0,1-1.222-1.781,2.084,2.084,0,0,1,.673-1.592,3.213,3.213,0,0,1,3.821,0,2.076,2.076,0,0,1,.679,1.592,1.883,1.883,0,0,1-.312,1.067,1.984,1.984,0,0,1-.875.714,2.3,2.3,0,0,1,1.09.84,2.223,2.223,0,0,1,.373,1.276,2.6,2.6,0,0,1-.76,1.939,2.767,2.767,0,0,1-2.026.747,3.057,3.057,0,0,1-1.956-.617,2.41,2.41,0,0,1-.923-2,2.47,2.47,0,0,1,.347-1.285,2.231,2.231,0,0,1,1.093-.9m.189,2.027a1.516,1.516,0,0,0,.349,1.064,1.135,1.135,0,0,0,.873.382,1.1,1.1,0,0,0,.846-.367,1.519,1.519,0,0,0,.335-1.061,1.373,1.373,0,0,0-.341-.973,1.127,1.127,0,0,0-.863-.367,1.032,1.032,0,0,0-.9.417,1.526,1.526,0,0,0-.3.9m.153-3.691a1.033,1.033,0,0,0,.28.77,1.007,1.007,0,0,0,.743.276,1.019,1.019,0,0,0,.752-.28,1.036,1.036,0,0,0,.282-.773.959.959,0,0,0-1.017-1.022,1.025,1.025,0,0,0-.758.281,1.013,1.013,0,0,0-.282.747" transform="translate(-43.661 -39.568)" fill="#2e3433"/>
        </g>
      </g>
      <g id="Grupo_374" data-name="Grupo 374" transform="translate(139.725 232.701)">
        <g id="Grupo_373" data-name="Grupo 373" clip-path="url(#clip-path-5)">
          <path id="Trazado_1216" data-name="Trazado 1216" d="M395.354,407.192l40.22,71.626,5.845,7.576-28.27,14.685-34.421-87.812,7.922-1.87Z" transform="translate(-186.345 -282.824)" fill="#dbe0e6"/>
          <path id="Trazado_1217" data-name="Trazado 1217" d="M395.354,407.192l40.22,71.626,5.845,7.576-28.27,14.685-34.421-87.812,7.922-1.87Z" transform="translate(-186.345 -282.824)" fill="none" stroke="#2e3433" stroke-miterlimit="10" stroke-width="1"/>
          <path id="Trazado_1218" data-name="Trazado 1218" d="M405.037,501.928l-62.866,32.658-1.994-16.876L312.841,452.1l20.378-13.4,1-.65,24.019-15.792c.682,1.018-.542-.867,0,0l1.094-.726c-.531-.856.673,1.008,0,0l11.283-7.414,34.37,73.4Z" transform="translate(-178.234 -283.677)" fill="#dbe0e6"/>
          <path id="Trazado_1219" data-name="Trazado 1219" d="M405.037,501.928l-62.866,32.658-1.994-16.876L312.841,452.1l20.378-13.4,1-.65,24.019-15.792c.682,1.018-.542-.867,0,0l1.094-.726c-.531-.856.673,1.008,0,0l11.283-7.414,34.37,73.4Z" transform="translate(-178.234 -283.677)" fill="none" stroke="#2e3433" stroke-miterlimit="10" stroke-width="1"/>
          <path id="Trazado_1220" data-name="Trazado 1220" d="M387.161,411.588,427.8,491.031l-14.653,10.588-.052-14.4-34.369-73.41Z" transform="translate(-186.345 -283.365)" fill="#2e3433"/>
          <path id="Trazado_1221" data-name="Trazado 1221" d="M333.455,450.555a2.071,2.071,0,0,1-.737,2.789,1.974,1.974,0,0,1-2.694-.854,2.07,2.07,0,0,1,.73-2.794,1.976,1.976,0,0,1,2.7.859" transform="translate(-180.317 -288.026)" fill="#2e3433"/>
          <path id="Trazado_1222" data-name="Trazado 1222" d="M366.927,430.782a2.706,2.706,0,0,1-1.02,3.537,2.382,2.382,0,0,1-3.313-1.092,2.71,2.71,0,0,1,1.01-3.547,2.383,2.383,0,0,1,3.323,1.1" transform="translate(-184.323 -285.555)" fill="#2e3433"/>
          <path id="Trazado_1223" data-name="Trazado 1223" d="M262.964,347.787c6.781,3.884,11.337,16.164-6.8,34.354a288.281,288.281,0,0,1-36.806,30.944c-18.69-17.972-44.912-22.867-44.912-22.867,34.761-38.105,72.272-51.734,88.516-42.431" transform="translate(-161.199 -275.165)" fill="#f5b015"/>
          <path id="Trazado_1224" data-name="Trazado 1224" d="M262.964,347.787c6.781,3.884,11.337,16.164-6.8,34.354a288.281,288.281,0,0,1-36.806,30.944c-18.69-17.972-44.912-22.867-44.912-22.867C209.209,352.113,246.72,338.484,262.964,347.787Z" transform="translate(-161.199 -275.165)" fill="none" stroke="#2e3433" stroke-linecap="round" stroke-linejoin="round" stroke-width="1"/>
          <path id="Trazado_1225" data-name="Trazado 1225" d="M198.455,404.6c12.513,6.2,21.89,12.765,20.945,14.671s-11.853-1.57-24.366-7.765-21.89-12.764-20.946-14.672,11.853,1.571,24.367,7.765" transform="translate(-161.147 -281.484)" fill="#2e3433"/>
          <path id="Trazado_1226" data-name="Trazado 1226" d="M258.5,419.949c5.023-8.323,17.015-9.7,22.48-9.876,4.919-.16,22.174-.6,25.648,5.13s25.312,220.764,25.312,220.764A184.138,184.138,0,0,1,268.7,638.32c-7.4-35.655-4.709-179.768-4.709-179.768-15.305-16.817-10.518-30.28-5.494-38.6" transform="translate(-170.945 -283.169)" fill="#2e3433"/>
          <path id="Trazado_1227" data-name="Trazado 1227" d="M270.988,459.7s-18.089-24.295,1.766-48.731c4.372-5.382,30.047-10.735,35.37-4.677,6.844,7.789,10.481,16.2,10.481,36.317,0,18.256-18.518,132-34.246,163.98s-39.692,47.259-48.438,48.941-35.319,5.8-35.319-29.264c0-12.687-.066-21.445-.15-27.455a32.039,32.039,0,0,1,8.039-21.673c16.822-19.04,53.8-63.129,62.5-117.438" transform="translate(-164.399 -282.383)" fill="#2e3433"/>
          <path id="Trazado_1228" data-name="Trazado 1228" d="M319.914,423.17l.926.05c-.025.465-2.634,47.024-17.179,90.794-25.964,78.144-55.543,113.58-55.839,113.929l-.709-.6c.3-.348,29.767-35.669,55.668-113.622,14.5-43.65,17.109-90.088,17.133-90.552" transform="translate(-170.144 -284.791)" fill="#fff"/>
          <path id="Trazado_1229" data-name="Trazado 1229" d="M332.906,448.083c0,12.869-8.837,67.791-19.15,113.542l-.9-.2c10.3-45.7,19.126-100.515,19.126-113.338Z" transform="translate(-178.236 -287.858)" fill="#fff"/>
          <path id="Trazado_1230" data-name="Trazado 1230" d="M268.61,421.639l.79.488c-12.855,20.794,4.583,39.286,4.76,39.471l.161.167-.037.229c-7.394,46.168-36.2,84.061-50.041,102.272l-.74-.562c13.776-18.121,42.416-55.794,49.829-101.634-1.772-1.962-17.285-20.107-4.722-40.431" transform="translate(-167.237 -284.602)" fill="#fff"/>
          <path id="Trazado_1231" data-name="Trazado 1231" d="M285.271,338.7c-.944,1.391-6.053,7.453-18.955-1.054V314.426a170.954,170.954,0,0,0,18.955,7.12Z" transform="translate(-172.507 -271.405)" fill="#fff"/>
          <path id="Trazado_1232" data-name="Trazado 1232" d="M285.271,338.7c-.944,1.391-6.053,7.453-18.955-1.054V314.426a170.954,170.954,0,0,0,18.955,7.12Z" transform="translate(-172.507 -271.405)" fill="none" stroke="#2e3433" stroke-linecap="round" stroke-linejoin="round" stroke-width="1"/>
          <path id="Trazado_1233" data-name="Trazado 1233" d="M266.1,337.841l-.142-.094v-23.89l.451.212a172.537,172.537,0,0,0,18.917,7.1l.22.07v17.485l-.054.081a8.639,8.639,0,0,1-7.363,3.522c-2.948,0-6.888-1.1-12.029-4.49m18.814-16.134a180.427,180.427,0,0,1-18.324-6.858v22.558c12.338,8.068,17.322,2.542,18.324,1.126Z" transform="translate(-172.463 -271.335)" fill="#2e3433"/>
          <path id="Trazado_1234" data-name="Trazado 1234" d="M286.491,328.186V335.8c-10.046.2-10.295-9.853-10.276-9.839a14.361,14.361,0,0,0,10.276,2.227" transform="translate(-173.726 -272.825)" fill="#2e3433"/>
          <path id="Trazado_1235" data-name="Trazado 1235" d="M257.651,343.575s2.27-5.24,5.809-5.657,18.578-4.452,20.2-2.878a34.483,34.483,0,0,1,3.759,5s23.162-1.062,31.617,10.97c6.283,8.94,6.879,45.344,1.545,56.717,0,0-35.619-10.59-65.665,7.4,0,0-8.906-40.949-9.125-49.66-.164-6.55,3.375-19.4,11.859-21.9" transform="translate(-169.98 -273.898)" fill="#f5b015"/>
          <path id="Trazado_1236" data-name="Trazado 1236" d="M257.651,343.575s2.27-5.24,5.809-5.657,18.578-4.452,20.2-2.878a34.483,34.483,0,0,1,3.759,5s23.162-1.062,31.617,10.97c6.283,8.94,6.879,45.344,1.545,56.717,0,0-35.619-10.59-65.665,7.4,0,0-8.906-40.949-9.125-49.66C245.628,358.92,249.167,346.075,257.651,343.575Z" transform="translate(-169.98 -273.898)" fill="none" stroke="#2e3433" stroke-linecap="round" stroke-linejoin="round" stroke-width="1"/>
          <path id="Trazado_1237" data-name="Trazado 1237" d="M281.958,427.637c-1.52,12.327,3.979,19.551,4.214,19.851l.083.107,8.46,3,10.41-9.272-.05-.258c-1.233-6.406.324-17.313.339-17.422l.067-.46-.461-.065c-11.367-1.6-22.7,4.108-22.813,4.167l-.219.112Zm.892.363c1.591-.761,11.528-5.268,21.582-4.029-.288,2.162-1.366,11.125-.317,17l-9.606,8.559-7.68-2.721c-.658-.92-5.253-7.815-3.979-18.813" transform="translate(-174.4 -284.749)" fill="#fff"/>
          <path id="Trazado_1238" data-name="Trazado 1238" d="M264.033,429.316l.589.11-.253.543a24.173,24.173,0,0,0-.16,17.219l.076.205-4.425,7.569-.8-.469,4.2-7.191a25.017,25.017,0,0,1,.027-17.162,17.973,17.973,0,0,0-8.461,1.471l-.389-.842c.2-.094,5.034-2.3,9.592-1.452" transform="translate(-171.046 -285.523)" fill="#fff"/>
          <path id="Trazado_1239" data-name="Trazado 1239" d="M257.619,470.115c-3.19-3.558-14.776-8.872-14.776-8.872s11.34,3.553,12.109,2.269c.44-.734,1.131-4.743,1.642-8.041.366-2.361-1.521-3.823-3.737-4.717-2.682-1.083-4.556-2.15-4.992-2.763a6.742,6.742,0,0,1-.739-4.8c2.2-6.732-12.449-12.27-13.588-12.69-1.233-.879-12.317-8.773-22.661-15.907,1.336-.9,2.251-1.532,2.4-1.606a130.519,130.519,0,0,0-14.512-8.255,116.717,116.717,0,0,0-17.966-7.359,131.087,131.087,0,0,0-4.036,15.289c-.027.131-.053.262-.076.394-.013.073-.028.143-.041.216l.01.007c-.708,4.58,1.258,9.414,7.57,12.028,2.737,1.133,36.324,10.67,45.828,16.374l0,.016s5.762,4.962,4.3,11.01c-1.511,6.252,4.82,10.694,4.82,10.694s11.233,8.866,16.843,8.527c1.224-.074,2.429-.894,1.61-1.806" transform="translate(-161.453 -281.615)" fill="#fff"/>
          <path id="Trazado_1240" data-name="Trazado 1240" d="M257.619,470.115c-3.19-3.558-14.776-8.872-14.776-8.872s11.34,3.553,12.109,2.269c.44-.734,1.131-4.743,1.642-8.041.366-2.361-1.521-3.823-3.737-4.717-2.682-1.083-4.556-2.15-4.992-2.763a6.742,6.742,0,0,1-.739-4.8c2.2-6.732-12.449-12.27-13.588-12.69-1.233-.879-12.317-8.773-22.661-15.907,1.336-.9,2.251-1.532,2.4-1.606a130.519,130.519,0,0,0-14.512-8.255,116.717,116.717,0,0,0-17.966-7.359,131.087,131.087,0,0,0-4.036,15.289c-.027.131-.053.262-.076.394-.013.073-.028.143-.041.216l.01.007c-.708,4.58,1.258,9.414,7.57,12.028,2.737,1.133,36.324,10.67,45.828,16.374l0,.016s5.762,4.962,4.3,11.01c-1.511,6.252,4.82,10.694,4.82,10.694s11.233,8.866,16.843,8.527C257.233,471.848,258.438,471.028,257.619,470.115Z" transform="translate(-161.453 -281.615)" fill="none" stroke="#2e3433" stroke-linecap="round" stroke-linejoin="round" stroke-width="1"/>
          <path id="Trazado_1241" data-name="Trazado 1241" d="M255.018,459.843l10.96,4.051c-4.233-.438-10.96-4.051-10.96-4.051" transform="translate(-171.117 -289.305)" fill="#2e3433"/>
          <path id="Trazado_1242" data-name="Trazado 1242" d="M251.967,464.956l13.173,3.466c-4.257-.027-13.173-3.466-13.173-3.466" transform="translate(-170.741 -289.935)" fill="#2e3433"/>
          <rect id="Rectángulo_291" data-name="Rectángulo 291" width="0.928" height="26.461" transform="translate(78.252 102.176) rotate(-12.276)" fill="#2e3433"/>
          <path id="Trazado_1243" data-name="Trazado 1243" d="M269.634,283.641s-6.026,23.225-5.672,26.682c.125,1.216,4.794,114.262,4.794,114.262-2.369,2.7-11.893,1.269-15.779-1.913l-2.145-5.8-1.282,4.352c-6.517-2.1,10.485-94.822,10.485-94.822-12.538-14.991-13.3-39.622,9.6-42.757" transform="translate(-170.26 -267.616)" fill="#2e3433"/>
          <path id="Trazado_1244" data-name="Trazado 1244" d="M267.08,314.834c-1.147-1.57-.909-8.126-.194-10.407,2.259-7.148,4.071-13.631,9.621-15.591,2.34-.82,11.06-2.805,13.209-2.342,4.1.882,5.668,9.864,5.712,17.106.05,8.124-1.557,22.131-11.174,22.064a13.58,13.58,0,0,1-9.212-3.73" transform="translate(-172.503 -267.958)" fill="#fff"/>
          <path id="Trazado_1245" data-name="Trazado 1245" d="M267.08,314.834c-1.147-1.57-.909-8.126-.194-10.407,2.259-7.148,4.071-13.631,9.621-15.591,2.34-.82,11.06-2.805,13.209-2.342,4.1.882,5.668,9.864,5.712,17.106.05,8.124-1.557,22.131-11.174,22.064a13.58,13.58,0,0,1-9.212-3.73" transform="translate(-172.503 -267.958)" fill="none" stroke="#2e3433" stroke-linecap="round" stroke-linejoin="round" stroke-width="1"/>
          <path id="Trazado_1246" data-name="Trazado 1246" d="M293.568,312.421c.014-.04.035-.108-.072-.243-2.437-3.079-1.638-8.08-1.6-8.291l.032-.2.164-.111a6.215,6.215,0,0,1,5.287-.435l-.3.88a5.414,5.414,0,0,0-4.3.225c-.12.951-.478,4.925,1.443,7.352a1.145,1.145,0,0,1,.227,1.11c-.406,1.232-3.032,2-3.554,2.143l-.243-.9c1.067-.291,2.731-.979,2.915-1.538" transform="translate(-175.503 -269.97)" fill="#2e3433"/>
          <path id="Trazado_1247" data-name="Trazado 1247" d="M280.376,279.768c16.263,0,14.4,19.419,14.4,19.419a55.8,55.8,0,0,0-3.244-9.108c-4.667-.878-18.653,2.383-19.1,10.834-.367,6.906-10.425.25-10.425.25-.846-5.667.681-21.4,18.374-21.4" transform="translate(-171.954 -267.139)" fill="#2e3433"/>
          <path id="Trazado_1248" data-name="Trazado 1248" d="M267.774,312.323a5.1,5.1,0,1,1,3.3-6.408" transform="translate(-171.868 -269.921)" fill="#fff"/>
          <path id="Trazado_1249" data-name="Trazado 1249" d="M267.774,312.323a5.1,5.1,0,1,1,3.3-6.408" transform="translate(-171.868 -269.921)" fill="none" stroke="#2e3433" stroke-linecap="round" stroke-linejoin="round" stroke-width="1"/>
          <path id="Trazado_1250" data-name="Trazado 1250" d="M266.083,303.736h.018a1.52,1.52,0,0,1,1.174.56c.924,1.1.537,1.684.02,2.233a1.906,1.906,0,0,0-.571.923c-.108.466.062.62.345.873a1.038,1.038,0,0,1,.305,1.485,1.516,1.516,0,0,1-1.363.683,3.326,3.326,0,0,1-1.35-.32l.395-.839c.013,0,1.193.521,1.534-.019.039-.061.051-.1.056-.1a1.424,1.424,0,0,0-.2-.2,1.65,1.65,0,0,1-.629-1.772,2.816,2.816,0,0,1,.8-1.35c.368-.39.415-.44-.054-1a.583.583,0,0,0-.474-.229h-.01c-.764,0-1.965,1.038-2.545,1.7l-.7-.613c.181-.206,1.81-2.012,3.242-2.012" transform="translate(-172.08 -270.089)" fill="#2e3433"/>
          <path id="Trazado_1251" data-name="Trazado 1251" d="M286.942,319.913l-.067.926c-.3-.022-7.333-.58-9.051-5.685l.88-.3c1.521,4.516,8.171,5.051,8.238,5.055" transform="translate(-173.924 -271.458)" fill="#2e3433"/>
          <path id="Trazado_1252" data-name="Trazado 1252" d="M287.155,302.445l-.809.456c-.055-.095-1.417-2.315-6.09-1.318l-.194-.908c5.4-1.144,7.025,1.65,7.092,1.77" transform="translate(-174.199 -269.678)" fill="#2e3433"/>
          <path id="Trazado_1253" data-name="Trazado 1253" d="M302.795,301.8c-1.752,3.255-1.222,4.344-.211,5.632l-.73.573c-1.357-1.733-1.711-3.237.124-6.645,1.287-2.39-3.011-6.113-4.776-7.346l.531-.762c.287.2,7,4.946,5.061,8.547" transform="translate(-176.309 -268.799)" fill="#2e3433"/>
          <path id="Trazado_1254" data-name="Trazado 1254" d="M282.915,305.084A1.719,1.719,0,1,1,281.2,306.8a1.719,1.719,0,0,1,1.719-1.719" transform="translate(-174.339 -270.255)" fill="#2e3433"/>
          <path id="Trazado_1255" data-name="Trazado 1255" d="M294.71,305.084a1.719,1.719,0,1,1-1.719,1.719,1.718,1.718,0,0,1,1.719-1.719" transform="translate(-175.791 -270.255)" fill="#2e3433"/>
          <path id="Trazado_1256" data-name="Trazado 1256" d="M266.4,330.509l1.416,2.4a12.415,12.415,0,0,1-6.247,1.849,5.993,5.993,0,0,1-.887-.055l.437-2.75a8.783,8.783,0,0,0,5.282-1.442" transform="translate(-171.814 -273.385)" fill="#f5b015"/>
          <path id="Trazado_1257" data-name="Trazado 1257" d="M266.4,330.509l1.416,2.4a12.415,12.415,0,0,1-6.247,1.849,5.993,5.993,0,0,1-.887-.055l.437-2.75A8.783,8.783,0,0,0,266.4,330.509Z" transform="translate(-171.814 -273.385)" fill="none" stroke="#2e3433" stroke-linecap="round" stroke-linejoin="round" stroke-width="1"/>
          <path id="Trazado_1258" data-name="Trazado 1258" d="M387.7,372.028s4.048-5.325-1.491-6.766c0,0,4.7-7.61-6.374-6.125,0,0-3.116-.246-5.19-.263a4.915,4.915,0,0,0-3.377,1.036c-.016-.941-.026-1.932-.027-2.989,0-13.2-6.761-16-6.137-10.614s.144,8.812-1.68,16.675a15.409,15.409,0,0,0-.217,6.273,15.028,15.028,0,0,0-1.769,2.941.219.219,0,0,0-.093.208.041.041,0,0,1,0,.011,4.588,4.588,0,0,0-.347,1.508c0,.018,0,.039,0,.057-3.847,9.1-37.769,37.148-38.623,38.12-6.562,7.484-7.835,11.769-2.107,18.553,2.357,2.792,8.37,6.446,15.951,2.49,10.332-5.389,25.279-29.815,32.848-45.389.031,0,.06.011.091.016,9.381,1.343,23.362-6.634,17.865-9.256,0,0,5.326-2.837.679-6.485" transform="translate(-178.7 -275.011)" fill="#fff"/>
          <path id="Trazado_1259" data-name="Trazado 1259" d="M387.7,372.028s4.048-5.325-1.491-6.766c0,0,4.7-7.61-6.374-6.125,0,0-3.116-.246-5.19-.263a4.915,4.915,0,0,0-3.377,1.036c-.016-.941-.026-1.932-.027-2.989,0-13.2-6.761-16-6.137-10.614s.144,8.812-1.68,16.675a15.409,15.409,0,0,0-.217,6.273,15.028,15.028,0,0,0-1.769,2.941.219.219,0,0,0-.093.208.041.041,0,0,1,0,.011,4.588,4.588,0,0,0-.347,1.508c0,.018,0,.039,0,.057-3.847,9.1-37.769,37.148-38.623,38.12-6.562,7.484-7.835,11.769-2.107,18.553,2.357,2.792,8.37,6.446,15.951,2.49,10.332-5.389,25.279-29.815,32.848-45.389.031,0,.06.011.091.016,9.381,1.343,23.362-6.634,17.865-9.256C387.022,378.512,392.348,375.676,387.7,372.028Z" transform="translate(-178.7 -275.011)" fill="none" stroke="#2e3433" stroke-linecap="round" stroke-linejoin="round" stroke-width="1"/>
          <path id="Trazado_1260" data-name="Trazado 1260" d="M394.914,368.275a17.577,17.577,0,0,0-7.576,1.075,15.516,15.516,0,0,0,3.846-.12,15.694,15.694,0,0,0,3.73-.955" transform="translate(-187.405 -278.025)" fill="#2e3433"/>
          <path id="Trazado_1261" data-name="Trazado 1261" d="M396.251,376.023a36.738,36.738,0,0,0-5.119.488c-1.686.268-3.347.568-5.036.985a12.94,12.94,0,0,0,2.6.108,24.208,24.208,0,0,0,2.569-.26,22.523,22.523,0,0,0,4.99-1.32" transform="translate(-187.252 -278.987)" fill="#2e3433"/>
          <path id="Trazado_1262" data-name="Trazado 1262" d="M396.022,383.439c-1.183.308-2.264.675-3.373,1-.548.174-1.1.328-1.659.491s-1.122.31-1.7.521a7.1,7.1,0,0,0,3.608-.205,8.668,8.668,0,0,0,1.674-.707,5.732,5.732,0,0,0,1.455-1.1" transform="translate(-187.644 -279.9)" fill="#2e3433"/>
          <path id="Trazado_1263" data-name="Trazado 1263" d="M301.394,345.765c10.5-3.592,19.664-.548,25.24,8.369,7.505,12,14.819,51.933,14.819,51.933-9.563,22.711-33.4,28.66-33.4,28.66-12.528-21.859-19.309-47.862-21.327-62.7" transform="translate(-175.02 -275.081)" fill="#f5b015"/>
          <path id="Trazado_1264" data-name="Trazado 1264" d="M301.394,345.765c10.5-3.592,19.664-.548,25.24,8.369,7.505,12,14.819,51.933,14.819,51.933-9.563,22.711-33.4,28.66-33.4,28.66-12.528-21.859-19.309-47.862-21.327-62.7" transform="translate(-175.02 -275.081)" fill="none" stroke="#2e3433" stroke-miterlimit="10" stroke-width="1"/>
          <path id="Trazado_1265" data-name="Trazado 1265" d="M336.884,395.769l-.479.8c-.661-.4-16.244-9.86-19.78-18.884l.865-.338c3.421,8.73,19.235,18.332,19.395,18.427" transform="translate(-178.7 -279.15)" fill="#2e3433"/>
          <path id="Trazado_1266" data-name="Trazado 1266" d="M323.567,346.823l-.549.748a17.672,17.672,0,0,0-9.41-2.921l.005-.928a18.271,18.271,0,0,1,9.954,3.1" transform="translate(-178.329 -275.011)" fill="#2e3433"/>
          <g id="Grupo_369" data-name="Grupo 369" transform="translate(105.928 34.291)" opacity="0.4">
            <g id="Grupo_368" data-name="Grupo 368">
              <g id="Grupo_367" data-name="Grupo 367" clip-path="url(#clip-path-6)">
                <path id="Trazado_1267" data-name="Trazado 1267" d="M285.208,304.49c2.949-.211,5.462,1.331,5.614,3.445s-2.116,4-5.065,4.21-5.461-1.33-5.613-3.444,2.116-4,5.064-4.211" transform="translate(-280.137 -304.471)" fill="#f5b015"/>
              </g>
            </g>
          </g>
          <g id="Grupo_372" data-name="Grupo 372" transform="translate(118.309 34.291)" opacity="0.4">
            <g id="Grupo_371" data-name="Grupo 371">
              <g id="Grupo_370" data-name="Grupo 370" clip-path="url(#clip-path-7)">
                <path id="Trazado_1268" data-name="Trazado 1268" d="M299.328,304.49c2.948-.211,5.462,1.331,5.614,3.445s-2.116,4-5.065,4.21-5.461-1.33-5.613-3.444,2.116-4,5.064-4.211" transform="translate(-294.256 -304.471)" fill="#f5b015"/>
              </g>
            </g>
          </g>
          <path id="Trazado_1269" data-name="Trazado 1269" d="M294.528,307.542a.309.309,0,0,1-.372.494,1.287,1.287,0,0,0-1.87.111.309.309,0,1,1-.481-.387,1.892,1.892,0,0,1,2.724-.218" transform="translate(-175.636 -270.499)" fill="#2e3433"/>
          <path id="Trazado_1270" data-name="Trazado 1270" d="M271.931,306.27a16.2,16.2,0,0,1,7.825,1.33.309.309,0,0,1-.1.585.3.3,0,0,1-.166-.03,15.866,15.866,0,0,0-7.491-1.271.309.309,0,0,1-.063-.615" transform="translate(-173.164 -270.395)" fill="#2e3433"/>
          <path id="Trazado_1271" data-name="Trazado 1271" d="M365.681,422.544l-1.094.726c-.542-.867.682,1.018,0,0l1.094-.726c.673,1.008-.531-.857,0,0" transform="translate(-184.586 -284.685)" fill="#2e3433"/>
          <path id="Trazado_1272" data-name="Trazado 1272" d="M363.512,420.193l-1.094.726c-3.729-5.56-9.408-12.747-15.228-15.955-.119-.564-.239-1.149-.368-1.756,6.513,3.067,12.734,11.013,16.691,16.985" transform="translate(-182.417 -282.334)" fill="#2e3433"/>
          <path id="Trazado_1273" data-name="Trazado 1273" d="M363.233,429.857a.639.639,0,0,1-.813-.239c-.086-.152-6.244-10.46-13.71-17.115v-.011c-.109-.509-.228-1.127-.369-1.832,8.086,6.634,14.73,17.765,15.121,18.426a.543.543,0,0,1-.228.77" transform="translate(-182.604 -283.251)" fill="#2e3433"/>
        </g>
      </g>
      <g id="Grupo_376" data-name="Grupo 376">
        <g id="Grupo_375" data-name="Grupo 375" clip-path="url(#clip-path-2)">
          <path id="Trazado_1274" data-name="Trazado 1274" d="M180.811,241.594h35.295l46.965-32.46H237.457a10.2,10.2,0,0,0-6.828,2.6Z" transform="translate(-22.257 -25.743)" fill="#f5b015"/>
          <path id="Trazado_1275" data-name="Trazado 1275" d="M180.811,241.594h35.295l46.965-32.46H237.457a10.2,10.2,0,0,0-6.828,2.6Z" transform="translate(-22.257 -25.743)" fill="none" stroke="#2e3433" stroke-miterlimit="10" stroke-width="1"/>
          <path id="Trazado_1276" data-name="Trazado 1276" d="M268.025,209.134h29.659l-41.328,32.46h-35.3Z" transform="translate(-27.211 -25.743)" fill="#ce8c06"/>
          <path id="Trazado_1277" data-name="Trazado 1277" d="M268.025,209.134h29.659l-41.328,32.46h-35.3Z" transform="translate(-27.211 -25.743)" fill="none" stroke="#2e3433" stroke-miterlimit="10" stroke-width="1"/>
          <path id="Trazado_1278" data-name="Trazado 1278" d="M261.311,241.594h35.3l40.311-32.46h-34.28Z" transform="translate(-32.166 -25.743)" fill="#f5b015"/>
          <path id="Trazado_1279" data-name="Trazado 1279" d="M261.311,241.594h35.3l40.311-32.46h-34.28Z" transform="translate(-32.166 -25.743)" fill="none" stroke="#2e3433" stroke-miterlimit="10" stroke-width="1"/>
          <path id="Trazado_1280" data-name="Trazado 1280" d="M178.289,258.371c-1.409,7.868,5.822,14.2,16.024,13.828,9.555-.351,18.006-6.764,19.342-14.218l2.119-11.83h-35.3Z" transform="translate(-21.925 -30.3)" fill="#f5b015"/>
          <path id="Trazado_1281" data-name="Trazado 1281" d="M178.289,258.371c-1.409,7.868,5.822,14.2,16.024,13.828,9.555-.351,18.006-6.764,19.342-14.218l2.119-11.83h-35.3Z" transform="translate(-21.925 -30.3)" fill="none" stroke="#2e3433" stroke-miterlimit="10" stroke-width="1"/>
          <path id="Trazado_1282" data-name="Trazado 1282" d="M218.368,259.216c-1.286,7.178,5.09,13,14.241,13h2.156c9.151,0,17.612-5.82,18.9-13L256,246.15h-35.3Z" transform="translate(-26.86 -30.3)" fill="#ce8c06"/>
          <path id="Trazado_1283" data-name="Trazado 1283" d="M218.368,259.216c-1.286,7.178,5.09,13,14.241,13h2.156c9.151,0,17.612-5.82,18.9-13L256,246.15h-35.3Z" transform="translate(-26.86 -30.3)" fill="none" stroke="#2e3433" stroke-miterlimit="10" stroke-width="1"/>
          <path id="Trazado_1284" data-name="Trazado 1284" d="M258.618,259.216c-1.286,7.178,5.09,13,14.241,13h2.155c9.151,0,17.613-5.819,18.9-13l2.341-13.066h-35.3Z" transform="translate(-31.814 -30.3)" fill="#f5b015"/>
          <path id="Trazado_1285" data-name="Trazado 1285" d="M258.618,259.216c-1.286,7.178,5.09,13,14.241,13h2.155c9.151,0,17.613-5.819,18.9-13l2.341-13.066h-35.3Z" transform="translate(-31.814 -30.3)" fill="none" stroke="#2e3433" stroke-miterlimit="10" stroke-width="1"/>
          <path id="Trazado_1286" data-name="Trazado 1286" d="M457.522,241.594H422.227l34.071-32.46h29.043c2.535,0,6.123,2.269.315,7.544Z" transform="translate(-51.974 -25.743)" fill="#f5b015"/>
          <path id="Trazado_1287" data-name="Trazado 1287" d="M457.522,241.594H422.227l34.071-32.46h29.043c2.535,0,6.123,2.269.315,7.544Z" transform="translate(-51.974 -25.743)" fill="none" stroke="#2e3433" stroke-miterlimit="10" stroke-width="1"/>
          <path id="Trazado_1288" data-name="Trazado 1288" d="M451.345,209.134l-34.072,32.46h-35.3l33.785-32.46Z" transform="translate(-47.019 -25.743)" fill="#ce8c06"/>
          <path id="Trazado_1289" data-name="Trazado 1289" d="M451.345,209.134l-34.072,32.46h-35.3l33.785-32.46Z" transform="translate(-47.019 -25.743)" fill="none" stroke="#2e3433" stroke-miterlimit="10" stroke-width="1"/>
          <path id="Trazado_1290" data-name="Trazado 1290" d="M377.021,241.594h-35.3l37.6-32.46H410.8Z" transform="translate(-42.065 -25.743)" fill="#f5b015"/>
          <path id="Trazado_1291" data-name="Trazado 1291" d="M377.021,241.594h-35.3l37.6-32.46H410.8Z" transform="translate(-42.065 -25.743)" fill="none" stroke="#2e3433" stroke-miterlimit="10" stroke-width="1"/>
          <path id="Trazado_1292" data-name="Trazado 1292" d="M341.861,209.134h32.514l-37.6,32.46H301.476Z" transform="translate(-37.11 -25.743)" fill="#ce8c06"/>
          <path id="Trazado_1293" data-name="Trazado 1293" d="M341.861,209.134h32.514l-37.6,32.46H301.476Z" transform="translate(-37.11 -25.743)" fill="none" stroke="#2e3433" stroke-miterlimit="10" stroke-width="1"/>
          <path id="Trazado_1294" data-name="Trazado 1294" d="M455.01,258.371c-1.41,7.868-10.911,14.2-20.979,13.828-9.429-.351-15.582-6.764-14.246-14.218l2.119-11.83H457.2Z" transform="translate(-51.651 -30.3)" fill="#f5b015"/>
          <path id="Trazado_1295" data-name="Trazado 1295" d="M455.01,258.371c-1.41,7.868-10.911,14.2-20.979,13.828-9.429-.351-15.582-6.764-14.246-14.218l2.119-11.83H457.2Z" transform="translate(-51.651 -30.3)" fill="none" stroke="#2e3433" stroke-miterlimit="10" stroke-width="1"/>
          <path id="Trazado_1296" data-name="Trazado 1296" d="M414.579,259.216c-1.286,7.178-9.748,13-18.9,13h-2.155c-9.151,0-15.527-5.82-14.241-13l2.34-13.066h35.3Z" transform="translate(-46.668 -30.3)" fill="#ce8c06"/>
          <path id="Trazado_1297" data-name="Trazado 1297" d="M414.579,259.216c-1.286,7.178-9.748,13-18.9,13h-2.155c-9.151,0-15.527-5.82-14.241-13l2.34-13.066h35.3Z" transform="translate(-46.668 -30.3)" fill="none" stroke="#2e3433" stroke-miterlimit="10" stroke-width="1"/>
          <path id="Trazado_1298" data-name="Trazado 1298" d="M374.329,259.216c-1.286,7.178-9.748,13-18.9,13h-2.155c-9.15,0-15.527-5.819-14.241-13l2.34-13.066h35.3Z" transform="translate(-41.713 -30.3)" fill="#f5b015"/>
          <path id="Trazado_1299" data-name="Trazado 1299" d="M374.329,259.216c-1.286,7.178-9.748,13-18.9,13h-2.155c-9.15,0-15.527-5.819-14.241-13l2.34-13.066h35.3Z" transform="translate(-41.713 -30.3)" fill="none" stroke="#2e3433" stroke-miterlimit="10" stroke-width="1"/>
          <path id="Trazado_1300" data-name="Trazado 1300" d="M334.079,259.216c-1.286,7.178-9.748,13-18.9,13h-2.155c-9.151,0-15.527-5.82-14.241-13l2.34-13.066h35.3Z" transform="translate(-36.758 -30.3)" fill="#ce8c06"/>
          <path id="Trazado_1301" data-name="Trazado 1301" d="M334.079,259.216c-1.286,7.178-9.748,13-18.9,13h-2.155c-9.151,0-15.527-5.82-14.241-13l2.34-13.066h35.3Z" transform="translate(-36.758 -30.3)" fill="none" stroke="#2e3433" stroke-miterlimit="10" stroke-width="1"/>
          <path id="Trazado_1302" data-name="Trazado 1302" d="M371.373,489.529l1.134,2.237-2.016,1.022-1.094-2.156a7.168,7.168,0,0,1-5.663.513l.886-2.708a5.109,5.109,0,0,0,3.782-.412l-1.833-3.614-.68.244a5.352,5.352,0,0,1-3.363.2A4.16,4.16,0,0,1,360.1,482.6c-1.165-2.3-.467-4.783,1.986-6.379l-.911-1.8,2.017-1.023.9,1.777a6.545,6.545,0,0,1,4.763-.358l-.876,2.629a4.465,4.465,0,0,0-2.942.287l1.762,3.473.82-.265a5.424,5.424,0,0,1,3.282-.259,4.414,4.414,0,0,1,2.618,2.438c1.235,2.436.2,4.844-2.147,6.409m-7.8-11.028a1.986,1.986,0,0,0-.846,2.638,1.537,1.537,0,0,0,.936.805,2.632,2.632,0,0,0,1.6-.109Zm6.226,5.1a2.71,2.71,0,0,0-1.681.2l1.742,3.434c1.128-.747,1.483-1.68.987-2.658a1.777,1.777,0,0,0-1.047-.976" transform="translate(-44.259 -58.273)" fill="#d8143b"/>
          <path id="Trazado_1303" data-name="Trazado 1303" d="M358.6,457.812a1.028,1.028,0,0,1-.64,1.274l-4.716,2.3a1.026,1.026,0,0,1-1.4-.282l-1.348-2.767a1.028,1.028,0,0,1,.641-1.274l4.715-2.3a1.026,1.026,0,0,1,1.4.281Z" transform="translate(-43.136 -55.961)" fill="#f5b015"/>
          <path id="Trazado_1304" data-name="Trazado 1304" d="M371.494,495.34a15.063,15.063,0,1,1-13.19-27.085,2.508,2.508,0,0,0-2.2-4.51,20.08,20.08,0,1,0,17.584,36.1,2.508,2.508,0,0,0-2.2-4.51" transform="translate(-42.446 -57.054)" fill="#d8143b"/>
          <rect id="Rectángulo_295" data-name="Rectángulo 295" width="3.222" height="3.104" transform="matrix(0.899, -0.438, 0.438, 0.899, 337.952, 415.408)" fill="#f5b015"/>
          <path id="Trazado_1305" data-name="Trazado 1305" d="M384.581,475.757a1.552,1.552,0,1,0,.716-2.075,1.552,1.552,0,0,0-.716,2.075" transform="translate(-47.321 -58.288)" fill="#f5b015"/>
          <path id="Trazado_1306" data-name="Trazado 1306" d="M387.762,474.208a1.552,1.552,0,1,0,.716-2.075,1.551,1.551,0,0,0-.716,2.075" transform="translate(-47.712 -58.098)" fill="#f5b015"/>
          <rect id="Rectángulo_296" data-name="Rectángulo 296" width="3.222" height="3.104" transform="translate(331.094 409.1) rotate(-62.932)" fill="#f5b015"/>
          <path id="Trazado_1307" data-name="Trazado 1307" d="M378.234,468.467a1.552,1.552,0,1,0-.675-2.088,1.552,1.552,0,0,0,.675,2.088" transform="translate(-46.455 -57.305)" fill="#f5b015"/>
          <path id="Trazado_1308" data-name="Trazado 1308" d="M379.844,465.316a1.552,1.552,0,1,0-.675-2.088,1.552,1.552,0,0,0,.675,2.088" transform="translate(-46.653 -56.917)" fill="#f5b015"/>
          <rect id="Rectángulo_297" data-name="Rectángulo 297" width="3.222" height="3.104" transform="translate(321.846 407.169) rotate(-86.598)" fill="#f5b015"/>
          <path id="Trazado_1309" data-name="Trazado 1309" d="M368.48,465.73a1.552,1.552,0,1,0-1.457-1.641,1.553,1.553,0,0,0,1.457,1.641" transform="translate(-45.178 -56.947)" fill="#f5b015"/>
          <path id="Trazado_1310" data-name="Trazado 1310" d="M368.691,462.2a1.552,1.552,0,1,0-1.457-1.641,1.551,1.551,0,0,0,1.457,1.641" transform="translate(-45.204 -56.512)" fill="#f5b015"/>
          <rect id="Rectángulo_298" data-name="Rectángulo 298" width="3.104" height="3.222" transform="translate(340.006 427.072) rotate(-84.566)" fill="#f5b015"/>
          <path id="Trazado_1311" data-name="Trazado 1311" d="M386.17,484.9a1.552,1.552,0,1,0,1.692-1.4,1.552,1.552,0,0,0-1.692,1.4" transform="translate(-47.535 -59.515)" fill="#f5b015"/>
          <path id="Trazado_1312" data-name="Trazado 1312" d="M389.693,485.231a1.551,1.551,0,1,0,1.691-1.4,1.551,1.551,0,0,0-1.691,1.4" transform="translate(-47.968 -59.556)" fill="#f5b015"/>
          <rect id="Rectángulo_299" data-name="Rectángulo 299" width="3.104" height="3.222" transform="translate(335.596 435.189) rotate(-56.704)" fill="#f5b015"/>
          <path id="Trazado_1313" data-name="Trazado 1313" d="M382.189,493.744a1.552,1.552,0,1,0,2.148-.445,1.55,1.55,0,0,0-2.148.445" transform="translate(-47.014 -60.691)" fill="#f5b015"/>
          <path id="Trazado_1314" data-name="Trazado 1314" d="M385.146,495.687a1.552,1.552,0,1,0,2.148-.445,1.55,1.55,0,0,0-2.148.445" transform="translate(-47.378 -60.93)" fill="#f5b015"/>
          <path id="Trazado_1315" data-name="Trazado 1315" d="M214.877,416.583s-2.91-1.7-5.874-3.016" transform="translate(-25.727 -50.908)" fill="none" stroke="#2e3433" stroke-miterlimit="10" stroke-width="1"/>
          <rect id="Rectángulo_300" data-name="Rectángulo 300" width="304.718" height="2.131" transform="translate(136.687 462.048)" fill="#131313"/>
        </g>
      </g>
    </g>
  </g>
</svg>
