<svg xmlns="http://www.w3.org/2000/svg" xmlns:xlink="http://www.w3.org/1999/xlink" width="373.535" height="385.353" viewBox="0 0 373.535 385.353">
  <defs>
    <clipPath id="clip-path">
      <rect id="Rectángulo_63" data-name="Rectángulo 63" width="302.701" height="327.133" fill="none"/>
    </clipPath>
    <clipPath id="clip-path-2">
      <path id="Trazado_370" data-name="Trazado 370" d="M97.918,114.528l-53.2,55.006,53.2,150.921H286.741V114.528Z" transform="translate(-44.719 -114.528)" fill="none"/>
    </clipPath>
    <clipPath id="clip-path-3">
      <rect id="Rectángulo_73" data-name="Rectángulo 73" width="373.535" height="385.353" transform="translate(-22 -29)" fill="none"/>
    </clipPath>
  </defs>
  <g id="Grupo_262" data-name="Grupo 262" transform="translate(43 29)">
    <g id="Grupo_39" data-name="Grupo 39" transform="translate(-1.705)">
      <g id="Grupo_38" data-name="Grupo 38" clip-path="url(#clip-path)">
        <path id="Trazado_345" data-name="Trazado 345" d="M185.33,46.99c-46.754,9.912-39.789,64.7-120.28,95.452C-21.222,175.4,31.03,299.728,129.186,306.806c97.7,7.046,142.75-37.154,152.779-121.149C289.506,122.5,254.807,32.264,185.33,46.99" transform="translate(-3.79 -7.916)" fill="#fff"/>
      </g>
    </g>
    <g id="Grupo_41" data-name="Grupo 41" transform="translate(32.723 93.267)">
      <g id="Grupo_40" data-name="Grupo 40" clip-path="url(#clip-path-2)">
        <path id="Trazado_346" data-name="Trazado 346" d="M301.855,139.124v268.95A20.484,20.484,0,0,1,281.4,428.533h-53.8v-.041H159.71a20.481,20.481,0,0,1-19.231-20.418V139.124a20.485,20.485,0,0,1,20.458-20.458H281.4a20.478,20.478,0,0,1,20.458,20.458" transform="translate(-60.98 -115.231)" fill="#dbe0e6"/>
        <path id="Trazado_347" data-name="Trazado 347" d="M301.855,139.124v268.95A20.484,20.484,0,0,1,281.4,428.533h-53.8v-.041H159.71a20.481,20.481,0,0,1-19.231-20.418V139.124a20.485,20.485,0,0,1,20.458-20.458H281.4A20.478,20.478,0,0,1,301.855,139.124Z" transform="translate(-60.98 -115.231)" fill="none" stroke="#2e3433" stroke-miterlimit="10" stroke-width="1"/>
        <path id="Trazado_348" data-name="Trazado 348" d="M298.237,140.049V409.007a15.908,15.908,0,0,1-15.913,15.906H161.866a15.906,15.906,0,0,1-15.9-15.906V140.049a15.906,15.906,0,0,1,15.9-15.9H282.324a15.908,15.908,0,0,1,15.913,15.9" transform="translate(-61.911 -116.161)" fill="#fff"/>
        <path id="Trazado_349" data-name="Trazado 349" d="M298.237,140.049V409.007a15.908,15.908,0,0,1-15.913,15.906H161.866a15.906,15.906,0,0,1-15.9-15.906V140.049a15.906,15.906,0,0,1,15.9-15.9H282.324A15.908,15.908,0,0,1,298.237,140.049Z" transform="translate(-61.911 -116.161)" fill="none" stroke="#2e3433" stroke-miterlimit="10" stroke-width="1"/>
        <path id="Trazado_350" data-name="Trazado 350" d="M252.539,127.336h-37.5a1.515,1.515,0,1,0,0,3.03h37.5a1.515,1.515,0,1,0,0-3.03" transform="translate(-73.384 -116.703)" fill="#101c3a"/>
        <rect id="Rectángulo_64" data-name="Rectángulo 64" width="7.107" height="0.9" transform="matrix(0.707, -0.708, 0.708, 0.707, 97.914, 27.141)" fill="#101c3a"/>
        <rect id="Rectángulo_65" data-name="Rectángulo 65" width="0.9" height="7.107" transform="translate(97.912 22.751) rotate(-45)" fill="#101c3a"/>
        <rect id="Rectángulo_66" data-name="Rectángulo 66" width="8.061" height="0.9" transform="translate(213.985 26.153)" fill="#361e4d"/>
        <path id="Trazado_351" data-name="Trazado 351" d="M269.212,398.018c-10.394-19.45-29.849-49.865-39.225-67.409-1.177-2.2-7.752-16.4-7.752-16.4a40.9,40.9,0,0,0,5.726-7.654,12.686,12.686,0,0,0,2.626-6.035c1.671-9.478,2.813-13.32,6.434-18.092s-6.769-8.2-13.623,4.9c-1.576,3.012-3,5.448-4.172,7.513a211.729,211.729,0,0,1-18.957-15.859s-18.311,15.436-7.173,30.123a60.437,60.437,0,0,1,6.2,9.766h0l3.507,10.461c4.639,22,14.578,72.852,23.651,92.237,17.476,37.347,53.774-2.931,42.756-23.553" transform="translate(-69.305 -142.315)" fill="#fff"/>
        <path id="Trazado_352" data-name="Trazado 352" d="M269.212,398.018c-10.394-19.45-29.849-49.865-39.225-67.409-1.177-2.2-7.752-16.4-7.752-16.4a40.9,40.9,0,0,0,5.726-7.654,12.686,12.686,0,0,0,2.626-6.035c1.671-9.478,2.813-13.32,6.434-18.092s-6.769-8.2-13.623,4.9c-1.576,3.012-3,5.448-4.172,7.513a211.729,211.729,0,0,1-18.957-15.859s-18.311,15.436-7.173,30.123a60.437,60.437,0,0,1,6.2,9.766h0l3.507,10.461c4.639,22,14.578,72.852,23.651,92.237C243.931,458.918,280.229,418.64,269.212,398.018Z" transform="translate(-69.305 -142.315)" fill="none" stroke="#2e3433" stroke-linecap="round" stroke-linejoin="round" stroke-width="1"/>
        <path id="Trazado_353" data-name="Trazado 353" d="M185,307.259c-4.008,3.576-10.32,9.369-10.171,14.571s20.132,2.579,20.132,2.579l48.224-72.853-30.25-6s-23.927,58.125-27.935,61.7" transform="translate(-66.813 -136.778)" fill="#2e3433"/>
        <rect id="Rectángulo_67" data-name="Rectángulo 67" width="65.873" height="1" transform="translate(127.911 178.616) rotate(-57.393)" fill="#fff"/>
        <path id="Trazado_354" data-name="Trazado 354" d="M257.563,217.244,176.8,137.635l-44.721,87.232,111.177,20.276c4.34,2.225,11.061-2.217,15.01-9.922s3.633-15.753-.708-17.978" transform="translate(-59.554 -118.452)" fill="#f5b015"/>
        <path id="Trazado_355" data-name="Trazado 355" d="M257.563,217.244,176.8,137.635l-44.721,87.232,111.177,20.276c4.34,2.225,11.061-2.217,15.01-9.922S261.9,219.468,257.563,217.244Z" transform="translate(-59.554 -118.452)" fill="none" stroke="#2e3433" stroke-miterlimit="10" stroke-width="1"/>
        <path id="Trazado_356" data-name="Trazado 356" d="M277.677,231.442l-10.34-10.193c.282,7.809-1.391,23.416-16.8,35.75l12.84,2.342c4.34,2.225,11.061-2.217,15.01-9.922s3.633-15.753-.708-17.978" transform="translate(-79.669 -132.65)" fill="#2e3433"/>
        <path id="Trazado_357" data-name="Trazado 357" d="M173.573,133.077a22.841,22.841,0,0,0-8.981-2.445c-15.539-1.014-33.81,12.749-44.438,33.473-13.294,25.937-10.663,52.945,5.99,61.489a22.848,22.848,0,0,0,8.982,2.445c15.539,1.014,33.81-12.753,44.438-33.477,13.3-25.94,10.663-52.947-5.991-61.486" transform="translate(-56.091 -117.254)" fill="#d39416"/>
        <path id="Trazado_358" data-name="Trazado 358" d="M173.573,133.077a22.841,22.841,0,0,0-8.981-2.445c-15.539-1.014-33.81,12.749-44.438,33.473-13.294,25.937-10.663,52.945,5.99,61.489a22.848,22.848,0,0,0,8.982,2.445c15.539,1.014,33.81-12.753,44.438-33.477C192.86,168.623,190.226,141.616,173.573,133.077Z" transform="translate(-56.091 -117.254)" fill="none" stroke="#2e3433" stroke-miterlimit="10" stroke-width="1"/>
        <path id="Trazado_359" data-name="Trazado 359" d="M172.567,137.392c-14.563-7.466-36.18,5.62-48.281,29.227s-10.108,48.8,4.454,56.263,36.18-5.62,48.282-29.228,10.108-48.8-4.455-56.262" transform="translate(-56.886 -118.054)" fill="#96999e"/>
        <path id="Trazado_360" data-name="Trazado 360" d="M172.567,137.392c-14.563-7.466-36.18,5.62-48.281,29.227s-10.108,48.8,4.454,56.263,36.18-5.62,48.282-29.228S187.129,144.857,172.567,137.392Z" transform="translate(-56.886 -118.054)" fill="none" stroke="#2e3433" stroke-linecap="round" stroke-linejoin="round" stroke-width="1"/>
        <path id="Trazado_361" data-name="Trazado 361" d="M129.113,223.533c-.227-.106-.452-.215-.676-.33-14.768-7.571-16.856-33.092-4.657-56.89s34.157-37,48.91-29.429c14.768,7.571,16.856,33.091,4.657,56.89-12.015,23.438-33.478,36.6-48.234,29.759m42.5-86.135c-14.3-6.629-35.221,6.348-47.008,29.339-11.966,23.342-10.059,48.3,4.251,55.637,14.259,7.348,35.69-5.683,47.655-29.024s10.059-48.3-4.252-55.635c-.212-.11-.43-.216-.647-.316" transform="translate(-56.796 -117.962)" fill="#101c3a"/>
        <path id="Trazado_362" data-name="Trazado 362" d="M169.868,182.985l-7.14,15.712,14.431,15.2a75.146,75.146,0,0,0,7.73-12.136,73.571,73.571,0,0,0,5.655-14.538l-19.783-4.246Z" transform="translate(-64.758 -126.151)" fill="#2e3433"/>
        <path id="Trazado_363" data-name="Trazado 363" d="M170.37,182.915c-2.444-1.253-6.229,1.249-8.453,5.586s-2.046,8.872.4,10.126,6.229-1.249,8.453-5.587,2.046-8.871-.4-10.125" transform="translate(-64.356 -126.086)" fill="#fff"/>
        <path id="Trazado_364" data-name="Trazado 364" d="M170.37,182.915c-2.444-1.253-6.229,1.249-8.453,5.586s-2.046,8.872.4,10.126,6.229-1.249,8.453-5.587S172.814,184.168,170.37,182.915Z" transform="translate(-64.356 -126.086)" fill="none" stroke="#2e3433" stroke-miterlimit="10" stroke-width="1"/>
        <rect id="Rectángulo_68" data-name="Rectángulo 68" width="1.956" height="19.214" transform="translate(58.49 11.203) rotate(-38.986)" fill="#101c3a"/>
        <rect id="Rectángulo_69" data-name="Rectángulo 69" width="36.702" height="1.957" transform="translate(15.63 84.649) rotate(-5.061)" fill="#101c3a"/>
        <rect id="Rectángulo_70" data-name="Rectángulo 70" width="1.957" height="13.951" transform="translate(37.05 60.256) rotate(-76.854)" fill="#101c3a"/>
        <rect id="Rectángulo_71" data-name="Rectángulo 71" width="1.957" height="34.502" transform="matrix(0.39, -0.921, 0.921, 0.39, 20.666, 43.913)" fill="#101c3a"/>
        <path id="Trazado_365" data-name="Trazado 365" d="M192.938,279.907c-9.068,1.63-3.983,10.785-3.983,10.785-7.727,2.11-4.588,9.137-4.588,9.137-1.866.853-2.879,1.865-2.8,5.453.623,2.957,5.277,5.748,9.913,2.15s.975-7.226.975-7.226c4.67.362,7.9-3.346,8.013-5.443.1-2.058-3.687-3.946-3.839-4.021a7.569,7.569,0,0,0,5.37-3.922c1.788-3.405-1.891-6.412-2.074-6.563a8.789,8.789,0,0,0,4.75-.131c1.631-.624,2.805-1.157,3.7-2.977,1.714-3.506-1.131-10.106-10.485-7.07s-4.945,9.826-4.945,9.826" transform="translate(-67.956 -140.811)" fill="#fff"/>
        <path id="Trazado_366" data-name="Trazado 366" d="M192.938,279.907c-9.068,1.63-3.983,10.785-3.983,10.785-7.727,2.11-4.588,9.137-4.588,9.137-1.866.853-2.879,1.865-2.8,5.453.623,2.957,5.277,5.748,9.913,2.15s.975-7.226.975-7.226c4.67.362,7.9-3.346,8.013-5.443.1-2.058-3.687-3.946-3.839-4.021a7.569,7.569,0,0,0,5.37-3.922c1.788-3.405-1.891-6.412-2.074-6.563a8.789,8.789,0,0,0,4.75-.131c1.631-.624,2.805-1.157,3.7-2.977,1.714-3.506-1.131-10.106-10.485-7.07S192.938,279.907,192.938,279.907Z" transform="translate(-67.956 -140.811)" fill="none" stroke="#2e3433" stroke-linecap="round" stroke-linejoin="round" stroke-width="1"/>
        <path id="Trazado_367" data-name="Trazado 367" d="M236.188,300.482c1.67-9.477,2.813-13.32,6.433-18.091s-7.942-8.752-13.623,4.9c-2.462,5.918-3.547,9.138-6.511,13.69" transform="translate(-74.906 -142.275)" fill="#fff"/>
        <path id="Trazado_368" data-name="Trazado 368" d="M236.188,300.482c1.67-9.477,2.813-13.32,6.433-18.091s-7.942-8.752-13.623,4.9c-2.462,5.918-3.547,9.138-6.511,13.69" transform="translate(-74.906 -142.275)" fill="none" stroke="#2e3433" stroke-miterlimit="10" stroke-width="1"/>
        <path id="Trazado_369" data-name="Trazado 369" d="M233.6,295.113a5.535,5.535,0,0,1-3.28-5.911" transform="translate(-76.226 -144.189)" fill="none" stroke="#2e3433" stroke-linecap="round" stroke-linejoin="round" stroke-width="1"/>
      </g>
    </g>
    <g id="Grupo_43" data-name="Grupo 43" transform="translate(-21)">
      <g id="Grupo_42" data-name="Grupo 42" clip-path="url(#clip-path-3)">
        <path id="Trazado_371" data-name="Trazado 371" d="M238.223,8.357l-.149.014L239.3,20.533,249,13.54l-.33-.534a11.539,11.539,0,0,0-10.446-4.649" transform="translate(-22.847 -1.445)" fill="#f5b015"/>
        <path id="Trazado_372" data-name="Trazado 372" d="M28.788,214.71l-14.54,4.478,0,0,.23.916a13.991,13.991,0,0,0,1.725,3.653,13.823,13.823,0,0,0,3.918,3.909Z" transform="translate(16.63 -37.375)" fill="#f5b015"/>
        <path id="Trazado_373" data-name="Trazado 373" d="M201.276,9.374A3.265,3.265,0,1,1,198.01,6.1a3.27,3.27,0,0,1,3.266,3.274" transform="translate(-15.205 -1.062)" fill="#f5b015"/>
        <path id="Trazado_374" data-name="Trazado 374" d="M99.645,245.79a3.265,3.265,0,1,1-3.265-3.274,3.27,3.27,0,0,1,3.265,3.274" transform="translate(2.72 -42.215)" fill="#f5b015"/>
        <path id="Trazado_375" data-name="Trazado 375" d="M207.6,80a3.264,3.264,0,1,1-3.265-3.274A3.27,3.27,0,0,1,207.6,80" transform="translate(-16.321 -13.356)" fill="#f5b015"/>
        <path id="Trazado_376" data-name="Trazado 376" d="M354.659,117.139a2.151,2.151,0,1,1-2.151-2.157,2.154,2.154,0,0,1,2.151,2.157" transform="translate(-42.651 -20.015)" fill="#f5b015"/>
        <path id="Trazado_377" data-name="Trazado 377" d="M160.67,48.323a33.414,33.414,0,1,1-15.9-44.6,33.357,33.357,0,0,1,15.9,44.6" transform="translate(2.021 -0.087)" fill="#f5b015"/>
        <path id="Trazado_378" data-name="Trazado 378" d="M160.67,48.323a33.414,33.414,0,1,1-15.9-44.6A33.357,33.357,0,0,1,160.67,48.323Z" transform="translate(2.021 -0.087)" fill="none" stroke="#2e3433" stroke-miterlimit="10" stroke-width="1"/>
        <path id="Trazado_379" data-name="Trazado 379" d="M149.632,27.057a10.126,10.126,0,0,0-12.114-.66,10.211,10.211,0,0,0-11.747-4.633,11.5,11.5,0,0,0-7.481,13.887c1.529,5.956,13.4,19.068,13.4,19.068S147.575,47.7,151.25,42.8a11.606,11.606,0,0,0-1.618-15.747" transform="translate(-1.655 -3.712)" fill="#fff"/>
        <path id="Trazado_380" data-name="Trazado 380" d="M64.057,297.1,29.444,280.43a1.3,1.3,0,0,1,.152-2.41l.026-.006,60.9-15.467.027-.006a1.3,1.3,0,0,1,1.277,2.047L69.512,295.471c-1.459,2.029-3.641,2.583-5.456,1.627" transform="translate(14.081 -45.695)" fill="#f5b015"/>
        <path id="Trazado_381" data-name="Trazado 381" d="M54.136,300.272,40.06,320.405a1.283,1.283,0,0,1-2.3-.423l-7.737-30.64a1.285,1.285,0,0,1,1.8-1.477L53.64,298.372a1.289,1.289,0,0,1,.5,1.9" transform="translate(13.854 -50.087)" fill="#f5b015"/>
        <path id="Trazado_382" data-name="Trazado 382" d="M103.822,309.82c-.018.173-.2.334-.488.452L43.1,325.567c-.309.034-.544-.021-.642-.165-.113-.167-.062-.419.123-.741.055-.094.134-.2.219-.322L58.03,302.561a1.763,1.763,0,0,1,2.2-.577l5.4,2.6a6.054,6.054,0,0,0,7.549-1.917l3.673-5.075a1.76,1.76,0,0,1,2.206-.543l23.963,12c.132.064.252.122.346.178.315.195.48.391.46.593" transform="translate(11.665 -51.675)" fill="#f5b015"/>
        <path id="Trazado_383" data-name="Trazado 383" d="M104.027,269.84l7.651,30.3a1.285,1.285,0,0,1-1.819,1.467L88.168,290.743a1.29,1.29,0,0,1-.466-1.909l14.04-19.432a1.283,1.283,0,0,1,2.285.439" transform="translate(3.718 -46.802)" fill="#f5b015"/>
        <rect id="Rectángulo_72" data-name="Rectángulo 72" width="286.204" height="2.007" transform="translate(35.923 299.463)" fill="#131313"/>
        <path id="Trazado_384" data-name="Trazado 384" d="M306.556,100.067l-38.563-8.5a5.8,5.8,0,0,1-4.4-6.9l8.481-38.671a5.779,5.779,0,0,1,6.886-4.415l38.563,8.5a5.8,5.8,0,0,1,4.4,6.9l-8.481,38.671a5.78,5.78,0,0,1-6.886,4.415" transform="translate(-27.323 -7.213)" fill="#f5b015"/>
        <path id="Trazado_385" data-name="Trazado 385" d="M306.556,100.067l-38.563-8.5a5.8,5.8,0,0,1-4.4-6.9l8.481-38.671a5.779,5.779,0,0,1,6.886-4.415l38.563,8.5a5.8,5.8,0,0,1,4.4,6.9l-8.481,38.671A5.78,5.78,0,0,1,306.556,100.067Z" transform="translate(-27.323 -7.213)" fill="none" stroke="#2e3433" stroke-miterlimit="10" stroke-width="1"/>
        <path id="Trazado_386" data-name="Trazado 386" d="M306.777,68.159a8.906,8.906,0,0,1-10.4,7.175,9.031,9.031,0,0,1-6.606-10.858,8.9,8.9,0,0,1,10.4-7.176,9.031,9.031,0,0,1,6.608,10.858" transform="translate(-31.927 -9.942)" fill="#fff"/>
        <path id="Trazado_387" data-name="Trazado 387" d="M281.1,88.878c1.405-6.677,6.6-6.015,12.9-4.652s11.311,2.913,9.906,9.591Z" transform="translate(-30.436 -14.506)" fill="#fff"/>
        <path id="Trazado_388" data-name="Trazado 388" d="M70.181,76.921,7.241,90.8A8.97,8.97,0,0,0,.735,101.677l9.35,41.824a9.067,9.067,0,0,0,10.539,7.149l44-9.886L89.287,151.4l-5.723-14.627A8.97,8.97,0,0,0,90.071,125.9L80.721,84.07a9.069,9.069,0,0,0-10.54-7.149" transform="translate(19.055 -13.357)" fill="#f5b015"/>
        <path id="Trazado_389" data-name="Trazado 389" d="M70.181,76.921,7.241,90.8A8.97,8.97,0,0,0,.735,101.677l9.35,41.824a9.067,9.067,0,0,0,10.539,7.149l44-9.886L89.287,151.4l-5.723-14.627A8.97,8.97,0,0,0,90.071,125.9L80.721,84.07A9.069,9.069,0,0,0,70.181,76.921Z" transform="translate(19.055 -13.357)" fill="none" stroke="#2e3433" stroke-miterlimit="10" stroke-width="1"/>
        <path id="Trazado_390" data-name="Trazado 390" d="M31.57,124.252a5.393,5.393,0,1,0-4.13,6.428,5.39,5.39,0,0,0,4.13-6.428" transform="translate(15.456 -20.886)" fill="#fff"/>
        <path id="Trazado_391" data-name="Trazado 391" d="M56.458,118.872a5.393,5.393,0,1,0-4.13,6.427,5.392,5.392,0,0,0,4.13-6.427" transform="translate(11.066 -19.95)" fill="#fff"/>
        <path id="Trazado_392" data-name="Trazado 392" d="M81.346,113.491a5.393,5.393,0,1,0-4.13,6.427,5.392,5.392,0,0,0,4.13-6.427" transform="translate(6.676 -19.013)" fill="#fff"/>
      </g>
    </g>
  </g>
</svg>
