<svg xmlns="http://www.w3.org/2000/svg" xmlns:xlink="http://www.w3.org/1999/xlink" width="356.008" height="349.43" viewBox="0 0 356.008 349.43">
  <defs>
    <clipPath id="clip-path">
      <rect id="Rectángulo_135" data-name="Rectángulo 135" width="356.008" height="349.43" transform="translate(0 119)" fill="none"/>
    </clipPath>
    <clipPath id="clip-path-2">
      <rect id="Rectángulo_118" data-name="Rectángulo 118" width="356.008" height="626.43" fill="none"/>
    </clipPath>
    <clipPath id="clip-path-3">
      <path id="Trazado_518" data-name="Trazado 518" d="M97.5,212.126a123.684,123.684,0,0,0,242.834,47.139A15.45,15.45,0,0,0,310,253.378a92.783,92.783,0,1,1-182.166-35.364A15.45,15.45,0,1,0,97.5,212.126" transform="translate(-95.221 -199.618)" fill="none"/>
    </clipPath>
    <clipPath id="clip-path-4">
      <path id="Trazado_525" data-name="Trazado 525" d="M163.266,251.333V486.171H327.912l-1.586-234.838Z" transform="translate(-163.266 -251.333)" fill="none"/>
    </clipPath>
    <clipPath id="clip-path-6">
      <path id="Trazado_565" data-name="Trazado 565" d="M202.207,382.569a46.661,46.661,0,1,0,46.662-46.662,46.662,46.662,0,0,0-46.662,46.662" transform="translate(-202.207 -335.907)" fill="none"/>
    </clipPath>
    <clipPath id="clip-path-8">
      <rect id="Rectángulo_124" data-name="Rectángulo 124" width="21.824" height="16.745" fill="none"/>
    </clipPath>
    <clipPath id="clip-path-10">
      <rect id="Rectángulo_125" data-name="Rectángulo 125" width="78.935" height="118.307" fill="none"/>
    </clipPath>
    <clipPath id="clip-path-11">
      <path id="Trazado_593" data-name="Trazado 593" d="M67.595,342.455c-10,3.216-30.875,5.873-31.8,17.591s-1.535,17.348-2.148,35.1,2.718,22.6,4.429,37.832,2.568,15.21,1.531,33.239,3.711,42.124,3.711,42.124H147.805l5.756-15.869,17.8-16.3,17.9-48.5s10.656-30.558,13.019-33.72,1.749-26.251,1.749-26.251-23.734.61-32.67,5.309-34.811,4.335-34.811,4.335l-25.513-13.511s-29.468-21.675-41.355-21.678a6.832,6.832,0,0,0-2.092.29" transform="translate(-33.575 -342.165)" fill="none"/>
    </clipPath>
  </defs>
  <g id="Grupo_263" data-name="Grupo 263" transform="translate(0 -119)">
    <g id="Grupo_167" data-name="Grupo 167" clip-path="url(#clip-path)">
      <g id="Grupo_145" data-name="Grupo 145">
        <g id="Grupo_144" data-name="Grupo 144" clip-path="url(#clip-path-2)">
          <path id="Trazado_516" data-name="Trazado 516" d="M113.739,279.815c23-5.645,67.418-48.434,41.31-69.9s-109.223,86.564-41.31,69.9" transform="translate(-20.713 -48.937)" fill="#fff"/>
          <path id="Trazado_517" data-name="Trazado 517" d="M96.032,286.421c97.311-16.831,69.792-68.021,134.68-77.951,87.549-13.4,124.488,118.391,67.5,197.349-45.541,63.094-121.4,81.195-187.287,52.763-93.062-40.163-91.7-158.876-14.891-172.161" transform="translate(-9.376 -49.042)" fill="#fff"/>
        </g>
      </g>
      <g id="Grupo_147" data-name="Grupo 147" transform="translate(72.718 152.444)">
        <g id="Grupo_146" data-name="Grupo 146" clip-path="url(#clip-path-3)">
          <line id="Línea_41" data-name="Línea 41" x1="170.635" y1="252.843" transform="translate(-70.186 -31.708)" fill="none" stroke="#f3ad13" stroke-miterlimit="10" stroke-width="8"/>
          <line id="Línea_42" data-name="Línea 42" x1="170.635" y1="252.843" transform="translate(-60.904 -37.972)" fill="none" stroke="#f3ad13" stroke-miterlimit="10" stroke-width="8"/>
          <line id="Línea_43" data-name="Línea 43" x1="170.635" y1="252.843" transform="translate(-51.621 -44.237)" fill="none" stroke="#f3ad13" stroke-miterlimit="10" stroke-width="8"/>
          <line id="Línea_44" data-name="Línea 44" x1="170.635" y1="252.843" transform="translate(-42.338 -50.501)" fill="none" stroke="#f3ad13" stroke-miterlimit="10" stroke-width="8"/>
          <line id="Línea_45" data-name="Línea 45" x1="170.635" y1="252.843" transform="translate(-33.055 -56.766)" fill="none" stroke="#f3ad13" stroke-miterlimit="10" stroke-width="8"/>
          <line id="Línea_46" data-name="Línea 46" x1="170.635" y1="252.843" transform="translate(-23.773 -63.031)" fill="none" stroke="#f3ad13" stroke-miterlimit="10" stroke-width="8"/>
          <line id="Línea_47" data-name="Línea 47" x1="170.635" y1="252.843" transform="translate(-14.49 -69.295)" fill="none" stroke="#f3ad13" stroke-miterlimit="10" stroke-width="8"/>
          <line id="Línea_48" data-name="Línea 48" x1="170.635" y1="252.843" transform="translate(-5.207 -75.56)" fill="none" stroke="#f3ad13" stroke-miterlimit="10" stroke-width="8"/>
          <line id="Línea_49" data-name="Línea 49" x1="170.635" y1="252.843" transform="translate(4.075 -81.824)" fill="none" stroke="#f3ad13" stroke-miterlimit="10" stroke-width="8"/>
          <line id="Línea_50" data-name="Línea 50" x1="170.635" y1="252.843" transform="translate(13.358 -88.089)" fill="none" stroke="#f3ad13" stroke-miterlimit="10" stroke-width="8"/>
          <line id="Línea_51" data-name="Línea 51" x1="170.635" y1="252.843" transform="translate(22.641 -94.353)" fill="none" stroke="#f3ad13" stroke-miterlimit="10" stroke-width="8"/>
          <line id="Línea_52" data-name="Línea 52" x1="170.635" y1="252.843" transform="translate(31.923 -100.618)" fill="none" stroke="#f3ad13" stroke-miterlimit="10" stroke-width="8"/>
          <line id="Línea_53" data-name="Línea 53" x1="170.635" y1="252.843" transform="translate(41.206 -106.883)" fill="none" stroke="#f3ad13" stroke-miterlimit="10" stroke-width="8"/>
          <line id="Línea_54" data-name="Línea 54" x1="170.635" y1="252.843" transform="translate(50.489 -113.147)" fill="none" stroke="#f3ad13" stroke-miterlimit="10" stroke-width="8"/>
          <line id="Línea_55" data-name="Línea 55" x1="170.635" y1="252.843" transform="translate(59.772 -119.412)" fill="none" stroke="#f3ad13" stroke-miterlimit="10" stroke-width="8"/>
          <line id="Línea_56" data-name="Línea 56" x1="170.635" y1="252.843" transform="translate(69.054 -125.676)" fill="none" stroke="#f3ad13" stroke-miterlimit="10" stroke-width="8"/>
          <line id="Línea_57" data-name="Línea 57" x1="170.635" y1="252.843" transform="translate(78.337 -131.941)" fill="none" stroke="#f3ad13" stroke-miterlimit="10" stroke-width="8"/>
          <line id="Línea_58" data-name="Línea 58" x1="170.635" y1="252.843" transform="translate(87.62 -138.205)" fill="none" stroke="#f3ad13" stroke-miterlimit="10" stroke-width="8"/>
          <line id="Línea_59" data-name="Línea 59" x1="170.635" y1="252.843" transform="translate(96.902 -144.47)" fill="none" stroke="#f3ad13" stroke-miterlimit="10" stroke-width="8"/>
          <line id="Línea_60" data-name="Línea 60" x1="170.635" y1="252.843" transform="translate(106.185 -150.735)" fill="none" stroke="#f3ad13" stroke-miterlimit="10" stroke-width="8"/>
        </g>
      </g>
      <g id="Grupo_149" data-name="Grupo 149" transform="translate(124.682 191.937)">
        <g id="Grupo_148" data-name="Grupo 148" clip-path="url(#clip-path-4)">
          <path id="Trazado_519" data-name="Trazado 519" d="M324.536,276.726V524.36A18.856,18.856,0,0,1,305.7,543.193H256.165v-.037h-62.5a18.861,18.861,0,0,1-17.71-18.8V276.726a18.859,18.859,0,0,1,18.838-18.832H305.7a18.854,18.854,0,0,1,18.838,18.832" transform="translate(-166.264 -252.884)" fill="#2e3433"/>
          <path id="Trazado_520" data-name="Trazado 520" d="M315.258,276.726V524.36a18.856,18.856,0,0,1-18.838,18.833H246.887v-.037h-62.5a18.862,18.862,0,0,1-17.71-18.8V276.726a18.859,18.859,0,0,1,18.838-18.832H296.42a18.854,18.854,0,0,1,18.838,18.832" transform="translate(-164.072 -252.884)" fill="#dbe0e6"/>
          <path id="Trazado_521" data-name="Trazado 521" d="M315.258,276.726V524.36a18.856,18.856,0,0,1-18.838,18.833H246.887v-.037h-62.5a18.862,18.862,0,0,1-17.71-18.8V276.726a18.859,18.859,0,0,1,18.838-18.832H296.42A18.854,18.854,0,0,1,315.258,276.726Z" transform="translate(-164.072 -252.884)" fill="none" stroke="#2e3433" stroke-miterlimit="10" stroke-width="1"/>
          <path id="Trazado_522" data-name="Trazado 522" d="M312.369,278.018V525.657A14.647,14.647,0,0,1,297.718,540.3H186.807a14.646,14.646,0,0,1-14.644-14.644V278.018a14.646,14.646,0,0,1,14.644-14.644h110.91a14.647,14.647,0,0,1,14.651,14.644" transform="translate(-165.369 -254.179)" fill="#fff"/>
          <path id="Trazado_523" data-name="Trazado 523" d="M312.369,278.018V525.657A14.647,14.647,0,0,1,297.718,540.3H186.807a14.646,14.646,0,0,1-14.644-14.644V278.018a14.646,14.646,0,0,1,14.644-14.644h110.91A14.647,14.647,0,0,1,312.369,278.018Z" transform="translate(-165.369 -254.179)" fill="none" stroke="#2e3433" stroke-miterlimit="10" stroke-width="1"/>
          <path id="Trazado_524" data-name="Trazado 524" d="M275.712,266.569H241.183a1.395,1.395,0,1,0,0,2.79h34.529a1.395,1.395,0,1,0,0-2.79" transform="translate(-181.35 -254.934)" fill="#2e3433"/>
          <rect id="Rectángulo_119" data-name="Rectángulo 119" width="6.543" height="0.828" transform="translate(19.559 26.833) rotate(-45.002)" fill="#101c3a"/>
          <rect id="Rectángulo_120" data-name="Rectángulo 120" width="0.829" height="6.543" transform="matrix(0.707, -0.707, 0.707, 0.707, 19.558, 22.792)" fill="#101c3a"/>
          <rect id="Rectángulo_121" data-name="Rectángulo 121" width="7.422" height="0.829" transform="translate(126.43 25.926)" fill="#101c3a"/>
        </g>
      </g>
      <g id="Grupo_151" data-name="Grupo 151">
        <g id="Grupo_150" data-name="Grupo 150" clip-path="url(#clip-path-2)">
          <path id="Trazado_526" data-name="Trazado 526" d="M99.458,339.83a1.669,1.669,0,1,1-1.669-1.669,1.669,1.669,0,0,1,1.669,1.669" transform="translate(-22.715 -79.915)" fill="#f5b015"/>
          <path id="Trazado_527" data-name="Trazado 527" d="M340.723,234.305a1.214,1.214,0,1,1-1.214-1.213,1.214,1.214,0,0,1,1.214,1.213" transform="translate(-79.947 -55.085)" fill="#f5b015"/>
          <path id="Trazado_528" data-name="Trazado 528" d="M282.058,243.777a1.213,1.213,0,1,1-1.213-1.214,1.214,1.214,0,0,1,1.213,1.214" transform="translate(-66.083 -57.323)" fill="#f5b015"/>
          <path id="Trazado_529" data-name="Trazado 529" d="M149.825,396.283a1.213,1.213,0,1,1-1.214-1.214,1.214,1.214,0,0,1,1.214,1.214" transform="translate(-34.834 -93.364)" fill="#f5b015"/>
          <path id="Trazado_530" data-name="Trazado 530" d="M165.1,241.15a2.427,2.427,0,1,1-2.428-2.427,2.428,2.428,0,0,1,2.428,2.427" transform="translate(-37.871 -56.416)" fill="#f5b015"/>
          <path id="Trazado_531" data-name="Trazado 531" d="M305.521,221.641a2.427,2.427,0,1,1-2.427-2.428,2.427,2.427,0,0,1,2.427,2.428" transform="translate(-71.054 -51.805)" fill="#f5b015"/>
          <path id="Trazado_532" data-name="Trazado 532" d="M394.494,369.742a2.427,2.427,0,1,1-2.427-2.428,2.427,2.427,0,0,1,2.427,2.428" transform="translate(-92.081 -86.805)" fill="#f5b015"/>
          <path id="Trazado_533" data-name="Trazado 533" d="M297.6,381.64a49.664,49.664,0,1,1-49.663-49.663A49.664,49.664,0,0,1,297.6,381.64" transform="translate(-46.857 -78.454)" fill="#f5b015"/>
          <path id="Trazado_534" data-name="Trazado 534" d="M295.53,382.569a46.662,46.662,0,1,1-46.661-46.661,46.662,46.662,0,0,1,46.661,46.661" transform="translate(-47.786 -79.383)" fill="#cfe0fa"/>
        </g>
      </g>
      <g id="Grupo_153" data-name="Grupo 153" transform="translate(154.421 256.524)">
        <g id="Grupo_152" data-name="Grupo 152" clip-path="url(#clip-path-6)">
          <path id="Trazado_535" data-name="Trazado 535" d="M276.118,465.9s3.073,18.648,9.034,26.066l-58.673.635s8.1-16.318,8.37-25.748Z" transform="translate(-207.943 -366.628)" fill="#f8a3a2"/>
          <path id="Trazado_536" data-name="Trazado 536" d="M284.674,490.959a113.039,113.039,0,0,1-31.983,5.394,113.035,113.035,0,0,1-31.981-5.394c-25.229,25.772,23.166,34.371,31.981,34.371,8.358,0,56.721-8.648,31.983-34.371" transform="translate(-204.876 -372.549)" fill="#201030"/>
          <path id="Trazado_537" data-name="Trazado 537" d="M314.861,499.778c-.777-4.846-2.7-13.988-18.38-11.658s-35.706,17.167-45.456,23.207S238.1,519.7,231.953,519.7s-6.41-5.192-11.045-5.192-4.654,4.2-6.12,6.039c-2.913,3.656-4.768,2.862-9.006,5.935-3.384,2.453-5.936-1.908-10.438,1.482a45.119,45.119,0,0,0,7.688,3.815c2.856.847,21.922-.529,31.2-.529s26.6-2.442,35.34-3.816c13.227-2.079,48.048-10.484,45.293-27.655" transform="translate(-200.585 -371.79)" fill="#425fec"/>
          <path id="Trazado_538" data-name="Trazado 538" d="M296.649,521.8c-2.756-1.011-7.689,3.921-10.6,3.779-3.275-.16-19.714-7.209-20.119-6.958-1.566.97-2.914,1.811-4.18,2.594l-3.328,16.534c8.2-.274,20.512-2.153,26.051-3.022a129,129,0,0,0,24.482-6.444c-.967-.3-9.628-5.5-12.309-6.483" transform="translate(-215.493 -379.085)" fill="#101c3a"/>
          <path id="Trazado_539" data-name="Trazado 539" d="M205.783,534.761c4.238-3.073,6.092-2.279,9.006-5.934,1.466-1.84,1.483-6.039,6.119-6.039s4.9,5.191,11.046,5.191a17.3,17.3,0,0,0,4.99-.7,17.951,17.951,0,0,0,.376,4.675c.417,1.977,1.358,5.808,2.41,7.523-2.015.033-3.886.051-5.5.051-9.274,0-28.341,1.376-31.2.529a45.074,45.074,0,0,1-7.689-3.815c4.5-3.391,7.054.971,10.439-1.482" transform="translate(-200.585 -380.071)" fill="#f8a3a2"/>
          <path id="Trazado_540" data-name="Trazado 540" d="M177.25,499.778c.777-4.846,2.7-13.988,18.38-11.658s35.707,17.167,45.456,23.207,12.927,8.371,19.072,8.371,6.41-5.192,11.046-5.192,4.652,4.2,6.119,6.039c2.914,3.656,4.768,2.862,9.007,5.935,3.383,2.453,5.935-1.908,10.437,1.482a45.117,45.117,0,0,1-7.688,3.815c-2.855.847-21.921-.529-31.2-.529s-26.6-2.442-35.34-3.816c-13.227-2.079-48.047-10.484-45.293-27.655" transform="translate(-196.273 -371.79)" fill="#425fec"/>
          <path id="Trazado_541" data-name="Trazado 541" d="M309.626,534.761c-4.238-3.073-6.092-2.279-9.005-5.934-1.466-1.84-1.484-6.039-6.12-6.039s-4.9,5.191-11.045,5.191a17.3,17.3,0,0,1-4.99-.7,17.985,17.985,0,0,1-.377,4.675c-.418,1.977-1.358,5.808-2.412,7.523,2.017.033,3.888.051,5.5.051,9.274,0,28.342,1.376,31.2.529a45.071,45.071,0,0,0,7.687-3.815c-4.5-3.391-7.053.971-10.438-1.482" transform="translate(-219.57 -380.071)" fill="#f8a3a2"/>
          <path id="Trazado_542" data-name="Trazado 542" d="M267.336,349.193c7.443,9.175,13.114,8.185,8.536,18.382s12.354,4.9,11.423,15.217-8.927,9.576-1.606,18.153-8.141,24.256-8.141,24.256h-46s-16.541-7.8-11.966-20.832-3.384-13.158,7.643-22.244c7.049-5.807.571-9.329.571-17.817,0-9.381,9.317-13.776,13.6-12.872s13.539-17.525,25.937-2.242" transform="translate(-206.124 -337.609)" fill="#2e3433"/>
          <path id="Trazado_543" data-name="Trazado 543" d="M306.313,431.822c-8.2-9.231-26.17-22.509-34.407-27.052a10.889,10.889,0,0,0-3.4-1.244c-3.223-1.123-12.737-1.738-17.163-2.993H239.278c-3.73.95-12.906,3.217-16.124,3.289a4.277,4.277,0,0,0-1.626.351,11.336,11.336,0,0,0-2.993,1.149c-8.239,4.544-23.889,17.271-32.086,26.5s-.79,22.712,10.827,17.989a131.907,131.907,0,0,0,17.806-9.625,49.656,49.656,0,0,0,1.839,5.013c3.561,10.01-5.1,25.745-5.1,25.745s36.059,14.307,66.98-.285c0,0-9.036-18.789-4.385-32.445.008-.024.015-.056.022-.08,7.193,4.638,15.334,9.357,21.044,11.677,11.617,4.723,19.025-8.759,10.827-17.989" transform="translate(-197.663 -351.18)" fill="#f5b015"/>
          <path id="Trazado_544" data-name="Trazado 544" d="M306.313,431.822c-8.2-9.231-26.17-22.509-34.407-27.052a10.889,10.889,0,0,0-3.4-1.244c-3.223-1.123-12.737-1.738-17.163-2.993H239.278c-3.73.95-12.906,3.217-16.124,3.289a4.277,4.277,0,0,0-1.626.351,11.336,11.336,0,0,0-2.993,1.149c-8.239,4.544-23.889,17.271-32.086,26.5s-.79,22.712,10.827,17.989a131.907,131.907,0,0,0,17.806-9.625,49.656,49.656,0,0,0,1.839,5.013c3.561,10.01-5.1,25.745-5.1,25.745s36.059,14.307,66.98-.285c0,0-9.036-18.789-4.385-32.445.008-.024.015-.056.022-.08,7.193,4.638,15.334,9.357,21.044,11.677C307.1,454.534,314.511,441.053,306.313,431.822Z" transform="translate(-197.663 -351.18)" fill="none" stroke="#2e3433" stroke-miterlimit="10" stroke-width="1"/>
          <path id="Trazado_545" data-name="Trazado 545" d="M223.856,470.014l-.469-.2c2.071-4.933,5.193-14.194,2.845-20.795-2.524-6.039-3.11-9.263-2.411-13.252.542-3.307.933-6.592,1.311-9.768.376-3.149.764-6.4,1.3-9.655l.5.082c-.531,3.24-.919,6.49-1.293,9.633-.38,3.182-.771,6.471-1.317,9.793-.68,3.882-.1,7.036,2.385,12.983,2.29,6.436-.286,15.066-2.85,21.175" transform="translate(-207.212 -354.917)" fill="#fff"/>
          <path id="Trazado_546" data-name="Trazado 546" d="M302.548,466.285c-1.617-6-3.025-14.682-.558-21.921,1.091-3.207.725-12.323.052-17.4l.506-.066c.677,5.124,1.04,14.35-.076,17.63-2.425,7.12-1.03,15.69.567,21.626Z" transform="translate(-225.472 -357.41)" fill="#fff"/>
          <path id="Trazado_547" data-name="Trazado 547" d="M268.483,385.567v10.5c5.012,12.963-6.177,29.146-6.177,29.146s-10.488-17.48-5.73-29.18V380.941a105.2,105.2,0,0,0,11.907,4.626" transform="translate(-214.763 -346.55)" fill="#fff"/>
          <path id="Trazado_548" data-name="Trazado 548" d="M268.483,385.567v10.5c5.012,12.963-6.177,29.146-6.177,29.146s-10.488-17.48-5.73-29.18V380.941A105.2,105.2,0,0,0,268.483,385.567Z" transform="translate(-214.763 -346.55)" fill="none" stroke="#2e3433" stroke-linecap="round" stroke-miterlimit="10" stroke-width="1"/>
          <path id="Trazado_549" data-name="Trazado 549" d="M266.618,391.382c.768-.749,1.549-3.7,2.391-3.976v-2.511a111.208,111.208,0,0,1-12.32-4.627v8.558c.584.46,1.563,3.026,2.764,3.9,2.033,1.484,4.7,1.054,7.164-1.347" transform="translate(-215.082 -346.39)" fill="#2e3433"/>
          <path id="Trazado_550" data-name="Trazado 550" d="M270.765,371.739c-.4-3.077-.562-5.2-5.505-6.877-5.286-1.792-9.956.5-11.748,5.786-.619,1.825.52,10.031,1.221,12.589.483,1.764,5.967,4.846,5.967,4.846.3.444,2.517.434,2.82-.029,0,0,5.33-3.593,5.769-4.781.926-2.5,1.595-10.624,1.476-11.535" transform="translate(-214.289 -342.608)" fill="#fff"/>
          <path id="Trazado_551" data-name="Trazado 551" d="M270.765,371.739c-.4-3.077-.562-5.2-5.505-6.877-5.286-1.792-9.956.5-11.748,5.786-.619,1.825.52,10.031,1.221,12.589.483,1.764,5.967,4.846,5.967,4.846.3.444,2.517.434,2.82-.029,0,0,5.33-3.593,5.769-4.781C270.214,380.769,270.883,372.649,270.765,371.739Z" transform="translate(-214.289 -342.608)" fill="none" stroke="#2e3433" stroke-linecap="round" stroke-miterlimit="10" stroke-width="1"/>
          <path id="Trazado_552" data-name="Trazado 552" d="M263.855,382.882l-.225-.456c.014-.007,1.375-.7,1.087-1.343a9.822,9.822,0,0,1-.5-4.651l.5.07a9.468,9.468,0,0,0,.46,4.372c.492,1.094-1.251,1.97-1.325,2.008" transform="translate(-216.723 -345.484)" fill="#2e3433"/>
          <path id="Trazado_553" data-name="Trazado 553" d="M255.994,375.141l-.284-.422a3.7,3.7,0,0,1,4.465-.131l-.33.387a3.151,3.151,0,0,0-3.851.166" transform="translate(-214.851 -344.889)" fill="#2e3433"/>
          <path id="Trazado_554" data-name="Trazado 554" d="M271.291,375.266a3.155,3.155,0,0,0-3.834-.409l-.218-.46a3.7,3.7,0,0,1,4.434.535Z" transform="translate(-217.576 -344.89)" fill="#2e3433"/>
          <path id="Trazado_555" data-name="Trazado 555" d="M262.712,387.841a8.111,8.111,0,0,1-2.354-.31l.16-.483a7.759,7.759,0,0,0,2.194.285,18.236,18.236,0,0,0,3.876-.8l.153.485a18.366,18.366,0,0,1-4.029.823" transform="translate(-215.949 -347.871)" fill="#2e3433"/>
          <path id="Trazado_556" data-name="Trazado 556" d="M258.975,363.441s8.5,6.876,14.456,8.446c0,0,1.46-13.319-14.456-8.446" transform="translate(-215.623 -342.161)" fill="#2e3433"/>
          <path id="Trazado_557" data-name="Trazado 557" d="M258.671,489.768a9.857,9.857,0,0,1-3.8-.651l.2-.468c6.528,2.736,21.3-4.681,21.443-4.758l.23.454c-.514.261-10.79,5.422-18.074,5.422" transform="translate(-214.654 -370.879)" fill="#101c3a"/>
          <path id="Trazado_558" data-name="Trazado 558" d="M262.039,519.829c-.125-.024-12.525-2.464-18.628-7.36-14.421-11.572-27.08-19.314-35.645-21.8l.142-.489c11.058,3.211,25.584,13.677,35.821,21.892,6.006,4.818,18.282,7.234,18.406,7.258Z" transform="translate(-203.521 -372.365)" fill="#f8a3a2"/>
          <path id="Trazado_559" data-name="Trazado 559" d="M263.023,485.1c-.4-.753,2-2.658,1.931-6.987s1.767-2.851,4.665-5.317,3.188-3.48,7.055-2.089,4.909,1.078,6.481-.209,15.77-13.78,21.7-20.247,23.675,3.408,11.979,13.536L278.9,480.579s-3.4.99-5.335-1.369-4.449.381-4.492,1.953,1.326,3-.06,3.535-2.3-1.53-2.3-1.53-3.018,3.187-3.689,1.93" transform="translate(-216.568 -362.44)" fill="#f8a3a2"/>
          <path id="Trazado_560" data-name="Trazado 560" d="M333.325,457.3c-7.78,6.978-14.356,10.24-29.079,17.675,0,0-6.772-7.7-8.042-13.454,0,0,16.394-16.843,22.462-21.637s20.615,12.071,14.658,17.416" transform="translate(-224.421 -360.278)" fill="#425fec"/>
          <path id="Trazado_561" data-name="Trazado 561" d="M251.109,485.1c.4-.753-2-2.658-1.931-6.987s-1.767-2.851-4.665-5.317-3.188-3.48-7.055-2.089-4.91,1.078-6.482-.209-15.769-13.78-21.7-20.247S185.6,453.657,197.3,463.786l37.93,16.794s3.4.99,5.335-1.369,4.448.381,4.492,1.953-1.326,3,.06,3.535,2.3-1.53,2.3-1.53,3.017,3.187,3.69,1.93" transform="translate(-200.125 -362.44)" fill="#f8a3a2"/>
          <path id="Trazado_562" data-name="Trazado 562" d="M186.709,457.353c7.78,6.978,14.4,10.182,29.118,17.616,0,0,6.772-7.7,8.041-13.454,0,0-16.394-16.843-22.461-21.636s-20.655,12.13-14.7,17.474" transform="translate(-198.213 -360.278)" fill="#425fec"/>
          <path id="Trazado_563" data-name="Trazado 563" d="M257.406,377.713a1.19,1.19,0,1,0,1.189-1.19,1.188,1.188,0,0,0-1.189,1.19" transform="translate(-215.252 -345.506)" fill="#2e3433"/>
          <path id="Trazado_564" data-name="Trazado 564" d="M268.23,377.713a1.19,1.19,0,1,0,1.191-1.19,1.189,1.189,0,0,0-1.191,1.19" transform="translate(-217.81 -345.506)" fill="#2e3433"/>
        </g>
      </g>
      <g id="Grupo_155" data-name="Grupo 155">
        <g id="Grupo_154" data-name="Grupo 154" clip-path="url(#clip-path-2)">
          <path id="Trazado_566" data-name="Trazado 566" d="M318.819,436.616a17.2,17.2,0,1,1-17.2-17.2,17.2,17.2,0,0,1,17.2,17.2" transform="translate(-67.214 -99.117)" fill="#96999e"/>
          <circle id="Elipse_19" data-name="Elipse 19" cx="17.202" cy="17.202" r="17.202" transform="matrix(0.23, -0.973, 0.973, 0.23, 213.709, 350.288)" fill="none" stroke="#2e3433" stroke-linecap="round" stroke-linejoin="round" stroke-width="1"/>
        </g>
      </g>
      <g id="Grupo_157" data-name="Grupo 157" transform="translate(223.722 330.555)">
        <g id="Grupo_156" data-name="Grupo 156" clip-path="url(#clip-path-8)">
          <path id="Trazado_567" data-name="Trazado 567" d="M304.281,446.344a1.94,1.94,0,0,1,0,2.7l-1.5,1.5a1.94,1.94,0,0,1-2.7,0L293.5,443.9a1.94,1.94,0,0,1,0-2.7l1.5-1.5a1.94,1.94,0,0,1,2.7,0Z" transform="translate(-292.954 -434.339)" fill="#fff"/>
          <path id="Trazado_568" data-name="Trazado 568" d="M311.623,433.392a1.94,1.94,0,0,1,2.7,0l1.5,1.5a1.94,1.94,0,0,1,0,2.7l-11.4,11.352a1.94,1.94,0,0,1-2.7,0l-1.5-1.5a1.94,1.94,0,0,1,0-2.7Z" transform="translate(-294.542 -432.847)" fill="#fff"/>
        </g>
      </g>
      <g id="Grupo_162" data-name="Grupo 162">
        <g id="Grupo_161" data-name="Grupo 161" clip-path="url(#clip-path-2)">
          <g id="Grupo_160" data-name="Grupo 160" transform="translate(127.794 309.608)" opacity="0.3" style="mix-blend-mode: multiply;isolation: isolate">
            <g id="Grupo_159" data-name="Grupo 159">
              <g id="Grupo_158" data-name="Grupo 158" clip-path="url(#clip-path-10)">
                <path id="Trazado_569" data-name="Trazado 569" d="M243.867,405.564c-3.242,1.252-10.223,3.1-13.833,5.159a.3.3,0,0,0-.092.064c-2.726,1.058-10.177,8.344-11.19,10.1-1.51,2.634-.166,2.072-3.251,9.053-.064.212-.119.424-.184.635l-.018-.009c-.562.893-1.161,1.851-1.8,2.882a1.287,1.287,0,0,0-.184.3c-1.778,2.91-3.795,6.309-5.83,9.8s-4.09,7.1-5.977,10.436c-1.087,1.685-2.173,3.389-3.242,5.074-2.984-4.981-15.491-25.521-24.1-33.782-.157-.157-.323-.286-.489-.433a16.884,16.884,0,0,0-6.336-4.9V523.723h27.078c-1.511-5.676-3.205-16.516-4.965-27.1.295-.875.6-1.779.893-2.7a57.1,57.1,0,0,0,12.4,2.91,10.541,10.541,0,0,0,4.55.166h.092a1.6,1.6,0,0,0,.387-.1c3.573-.884,6.889-3.924,9.127-10.113,4.365-12.084,7.773-35.781,9.155-46.474a20.609,20.609,0,0,0,1.85-2.44s7.138-5.388,10.306-7.1,2.165-4.6,1.436-6.981,0-3.3-1.934-5.222a12.585,12.585,0,0,1-2.726-4.43,36.473,36.473,0,0,0,10.362-6.033c2.219-2.054-.066-3.1-1.484-2.542" transform="translate(-167.341 -405.417)" fill="#b3b3b3"/>
              </g>
            </g>
          </g>
          <rect id="Rectángulo_126" data-name="Rectángulo 126" width="89.448" height="2.212" transform="translate(156.011 387.29)" fill="#101c3a"/>
          <rect id="Rectángulo_127" data-name="Rectángulo 127" width="28.491" height="2.211" transform="translate(156.012 379.512)" fill="#101c3a"/>
          <rect id="Rectángulo_128" data-name="Rectángulo 128" width="19.943" height="2.211" transform="translate(196.83 379.512)" fill="#101c3a"/>
          <rect id="Rectángulo_129" data-name="Rectángulo 129" width="59.729" height="2.212" transform="translate(156.012 371.735)" fill="#101c3a"/>
          <rect id="Rectángulo_130" data-name="Rectángulo 130" width="29.489" height="2.212" transform="translate(223.749 371.735)" fill="#101c3a"/>
        </g>
      </g>
      <g id="Grupo_164" data-name="Grupo 164" transform="translate(25.641 261.303)">
        <g id="Grupo_163" data-name="Grupo 163" clip-path="url(#clip-path-11)">
          <path id="Trazado_570" data-name="Trazado 570" d="M74.064,376.174c-1.653-7.589,6.14-9.325,6.14-9.325-12.122-19.652-23.982-3.937-25.828,3.833-2.412,10.157,1.624,28.2,6.946,29.368L62.5,398.48l1.616,2.316c3.123,1.427,10.946,2.515,12.972,1.632,0,0-2.919-25.787-3.02-26.254" transform="translate(-38.322 -345.755)" fill="#2e3433"/>
          <path id="Trazado_571" data-name="Trazado 571" d="M107.175,407.6l.953,14.64c-.664,1.433-6.484,1.575-17.084-2.315l.855-13.451a107.611,107.611,0,0,0,15.277,1.125" transform="translate(-47.157 -357.363)" fill="#fff"/>
          <path id="Trazado_572" data-name="Trazado 572" d="M107.175,407.6l.953,14.64c-.664,1.433-6.484,1.575-17.084-2.315l.855-13.451A107.611,107.611,0,0,0,107.175,407.6Z" transform="translate(-47.157 -357.363)" fill="none" stroke="#2e3433" stroke-linecap="round" stroke-miterlimit="10" stroke-width="1"/>
          <path id="Trazado_573" data-name="Trazado 573" d="M109.848,408.868l.423,6.5c-7.875,2.8-8.232-7.867-8.216-7.86,3.973,1.375,6.693,1.863,7.793,1.363" transform="translate(-49.759 -357.606)" fill="#2e3433"/>
          <path id="Trazado_574" data-name="Trazado 574" d="M92.708,396.1c-.923-1.317-3.553-24.428.639-26.907,1.768-1.04,13.95-1.307,15.734-1.66,4.085-.8,6.147,9.416,7.341,15.287,1.341,6.586.386,19.087-7.429,20.57a8.435,8.435,0,0,1-2.716-.011,24.045,24.045,0,0,1-6.8-2.256" transform="translate(-47.156 -348.15)" fill="#fff"/>
          <path id="Trazado_575" data-name="Trazado 575" d="M92.708,396.1c-.923-1.317-3.553-24.428.639-26.907,1.768-1.04,13.95-1.307,15.734-1.66,4.085-.8,6.147,9.416,7.341,15.287,1.341,6.586.386,19.087-7.429,20.57a8.435,8.435,0,0,1-2.716-.011,24.045,24.045,0,0,1-6.8-2.256" transform="translate(-47.156 -348.15)" fill="none" stroke="#2e3433" stroke-linecap="round" stroke-miterlimit="10" stroke-width="1"/>
          <path id="Trazado_576" data-name="Trazado 576" d="M89.857,399.683a48.141,48.141,0,0,1,4.5-2.684c1.442-4.556,4.481-13.992,5.635-16.3,1.143-2.293,5.876,9.259,5.876,9.259,1.683-7.5-.522-14.078,2.4-16.278,3.125-2.351,5.922-14.567-7.278-11.965-7.145,1.408-16.8-2.12-21.427,7.7C73.1,383.124,90.5,395.5,89.857,399.683" transform="translate(-44.103 -346.699)" fill="#2e3433"/>
          <path id="Trazado_577" data-name="Trazado 577" d="M106.631,387.749A4.217,4.217,0,1,1,100.9,386.1a4.216,4.216,0,0,1,5.729,1.653" transform="translate(-48.971 -352.423)" fill="#fff"/>
          <path id="Trazado_578" data-name="Trazado 578" d="M103.661,393.108a3.083,3.083,0,0,1-1.368-.079l.212-.75c.013,0,1.278.335,1.5-.3.066-.186.068-.189-.243-.386a1.654,1.654,0,0,1-.924-1.561,2.7,2.7,0,0,1,.463-1.438c.272-.459.336-.569-.295-1.1a.653.653,0,0,0-.569-.162l-.007,0c-.828.163-1.77,1.591-2.065,2.128l-.684-.373c.126-.231,1.267-2.257,2.6-2.52l.013,0a1.428,1.428,0,0,1,1.214.331c1.055.884.846,1.448.464,2.092a1.943,1.943,0,0,0-.354,1.046.907.907,0,0,0,.562.9,1,1,0,0,1,.561,1.3,1.337,1.337,0,0,1-1.081.874" transform="translate(-49.198 -352.652)" fill="#2e3433"/>
          <path id="Trazado_579" data-name="Trazado 579" d="M65.891,451.173c-3.463,17.939-1.616,33.682,18.084,61.065l-.764.548c-19.9-27.659-21.756-43.6-18.243-61.791Z" transform="translate(-40.657 -367.884)" fill="#fff"/>
          <path id="Trazado_580" data-name="Trazado 580" d="M103.37,502.051c4.738-.154,21.362-.577,24.708,4.942s24.383,217.424,24.383,217.424a177.358,177.358,0,0,1-60.918,2.269C84.414,692.339,83.2,548.753,83.2,548.753c-14.744-16.2-10.132-29.17-5.292-37.189s20.2-9.341,25.463-9.513" transform="translate(-42.941 -379.932)" fill="#425fec"/>
          <path id="Trazado_581" data-name="Trazado 581" d="M87.328,548.946S69.9,525.542,89.029,502c4.212-5.185,28.945-10.342,34.072-4.506,6.594,7.5,10.1,15.6,10.1,34.985,0,17.587-17.84,131.923-32.992,162.724s-38.235,45.527-46.66,47.146-34.023,5.591-34.023-28.189c0-12.223-.064-20.661-.144-26.449a30.866,30.866,0,0,1,7.744-20.878c16.2-18.343,51.826-65.573,60.205-117.89" transform="translate(-30.22 -378.262)" fill="#425fec"/>
          <path id="Trazado_582" data-name="Trazado 582" d="M141.095,516.551l.937.044c-.022.5-2.537,50.064-16.547,92.232-25.015,75.282-53.512,109.424-53.8,109.761l-.718-.609c.284-.334,28.671-34.359,53.622-109.448,13.97-42.044,16.478-91.486,16.5-91.98" transform="translate(-42.413 -383.376)" fill="#101c3a"/>
          <path id="Trazado_583" data-name="Trazado 583" d="M163.045,544.107c0,12.463-8.443,69.76-18.448,114.142l-.916-.207C153.673,613.714,162.1,556.53,162.1,544.107Z" transform="translate(-59.596 -389.889)" fill="#f0e3dd"/>
          <path id="Trazado_584" data-name="Trazado 584" d="M88.681,516.52l.861.379c-8.528,19.419,4.056,36.7,4.184,36.873l.118.16-.031.2C86.774,598.075,60.586,637.7,45.6,657.417l-.749-.569c14.909-19.614,40.95-59.012,48-102.68-1.288-1.844-12.474-18.747-4.173-37.648" transform="translate(-36.241 -383.369)" fill="#101c3a"/>
          <path id="Trazado_585" data-name="Trazado 585" d="M220.121,405.565c-3.236,1.252-10.218,3.094-13.835,5.159a.4.4,0,0,0-.086.064c-2.723,1.062-10.178,8.343-11.192,10.1-1.514,2.628-.164,2.073-3.247,9.048-.069.215-.124.424-.186.636l-.018,0c-.563.884-1.165,1.851-1.8,2.882a1.319,1.319,0,0,0-.184.3h0c-3.565,5.82-8.043,13.575-11.806,20.229-1.831,2.848-3.667,5.716-5.382,8.524-2.414-2.8-4.37-4.778-4.37-4.778-4.438-3.329-24.629,13.048-18.337,24.206,5.209,9.24,20.352,13.9,29.319,14.9a10.578,10.578,0,0,0,4.555.166l.091-.005a1.259,1.259,0,0,0,.386-.1c3.575-.882,6.887-3.92,9.124-10.113,4.367-12.084,7.774-35.777,9.16-46.471a21.887,21.887,0,0,0,1.853-2.44s7.136-5.391,10.3-7.1,2.166-4.6,1.441-6.979,0-3.3-1.935-5.226a12.506,12.506,0,0,1-2.73-4.429,36.331,36.331,0,0,0,10.359-6.032c2.225-2.051-.058-3.094-1.482-2.543" transform="translate(-60.729 -357.113)" fill="#fff"/>
          <path id="Trazado_586" data-name="Trazado 586" d="M220.121,405.565c-3.236,1.252-10.218,3.094-13.835,5.159a.4.4,0,0,0-.086.064c-2.723,1.062-10.178,8.343-11.192,10.1-1.514,2.628-.164,2.073-3.247,9.048-.069.215-.124.424-.186.636l-.018,0c-.563.884-1.165,1.851-1.8,2.882a1.319,1.319,0,0,0-.184.3h0c-3.565,5.82-8.043,13.575-11.806,20.229-1.831,2.848-3.667,5.716-5.382,8.524-2.414-2.8-4.37-4.778-4.37-4.778-4.438-3.329-24.629,13.048-18.337,24.206,5.209,9.24,20.352,13.9,29.319,14.9a10.578,10.578,0,0,0,4.555.166l.091-.005a1.259,1.259,0,0,0,.386-.1c3.575-.882,6.887-3.92,9.124-10.113,4.367-12.084,7.774-35.777,9.16-46.471a21.887,21.887,0,0,0,1.853-2.44s7.136-5.391,10.3-7.1,2.166-4.6,1.441-6.979,0-3.3-1.935-5.226a12.506,12.506,0,0,1-2.73-4.429,36.331,36.331,0,0,0,10.359-6.032C223.828,406.057,221.544,405.013,220.121,405.565Z" transform="translate(-60.729 -357.113)" fill="none" stroke="#2e3433" stroke-linecap="round" stroke-miterlimit="10" stroke-width="1"/>
          <path id="Trazado_587" data-name="Trazado 587" d="M186.861,493.707l-.889-.06a21.457,21.457,0,0,0-4.248-13.863l.686-.57a21.964,21.964,0,0,1,4.451,14.492" transform="translate(-68.586 -374.553)" fill="#2e3433"/>
          <path id="Trazado_588" data-name="Trazado 588" d="M139.951,499.756c3.488-10.346,7.6-24.143,9.47-36.45,0,0-14.917-25.461-24.76-34.9-.158-.151-.322-.283-.483-.429-8.279-10.254-22.3-5.466-22.3-5.466a28.911,28.911,0,0,0-2.969-3.5c-1.563-1.517-16.053,2.373-19.46,2.774s-5.6,5.448-5.6,5.448a4.366,4.366,0,0,0-2.7.951,11.216,11.216,0,0,0-4.274,2.535c-10.274,9.9-14.641,28.243-.435,55.717-2.485,19.2-26.974,97.05-26.974,97.05A65.949,65.949,0,0,0,57.7,590.828l8.016-10.784,1.57,12.869c35.785,6.435,82.881,1.57,82.881,1.57,2.814-6-3.2-52.489-10.219-94.727" transform="translate(-34.969 -360.243)" fill="#f5b015"/>
          <path id="Trazado_589" data-name="Trazado 589" d="M139.951,499.756c3.488-10.346,7.6-24.143,9.47-36.45,0,0-14.917-25.461-24.76-34.9-.158-.151-.322-.283-.483-.429-8.279-10.254-22.3-5.466-22.3-5.466a28.911,28.911,0,0,0-2.969-3.5c-1.563-1.517-16.053,2.373-19.46,2.774s-5.6,5.448-5.6,5.448a4.366,4.366,0,0,0-2.7.951,11.216,11.216,0,0,0-4.274,2.535c-10.274,9.9-14.641,28.243-.435,55.717-2.485,19.2-26.974,97.05-26.974,97.05A65.949,65.949,0,0,0,57.7,590.828l8.016-10.784,1.57,12.869c35.785,6.435,82.881,1.57,82.881,1.57C152.984,588.483,146.966,541.994,139.951,499.756Z" transform="translate(-34.969 -360.243)" fill="none" stroke="#2e3433" stroke-miterlimit="10" stroke-width="1"/>
          <path id="Trazado_590" data-name="Trazado 590" d="M163.5,471.4l-.273.9c-.713-.215-17.507-5.372-22.944-12.971l.762-.547c5.253,7.339,22.282,12.567,22.454,12.619" transform="translate(-58.793 -369.725)" fill="#2e3433"/>
          <path id="Trazado_591" data-name="Trazado 591" d="M150.822,527.3l-.681.647c-.326-.344-32.733-34.662-41.5-58.44l.881-.325c8.7,23.6,40.972,57.777,41.3,58.119" transform="translate(-51.316 -372.182)" fill="#2e3433"/>
          <rect id="Rectángulo_132" data-name="Rectángulo 132" width="0.939" height="14.781" transform="translate(28.847 95.217) rotate(-5.878)" fill="#2e3433"/>
          <path id="Trazado_592" data-name="Trazado 592" d="M72.729,504.841,62.382,545.465l-.91-.231L71.82,504.608Z" transform="translate(-40.168 -380.554)" fill="#101c3a"/>
        </g>
      </g>
      <g id="Grupo_166" data-name="Grupo 166">
        <g id="Grupo_165" data-name="Grupo 165" clip-path="url(#clip-path-2)">
          <rect id="Rectángulo_133" data-name="Rectángulo 133" width="293.719" height="1.597" transform="translate(24.759 426.776)" fill="#101c3a"/>
        </g>
      </g>
    </g>
  </g>
</svg>
