<svg xmlns="http://www.w3.org/2000/svg" xmlns:xlink="http://www.w3.org/1999/xlink" width="382.094" height="458.852" style="transform:scale(1.1)" viewBox="0 0 382.094 358.852">
  <defs>
    <clipPath id="clip-path">
      <rect id="Rectángulo_321" data-name="Rectángulo 321" width="374.094" height="352.852" transform="translate(0 151)" fill="none"/>
    </clipPath>
    <clipPath id="clip-path-2">
      <path id="Trazado_1364" data-name="Trazado 1364" d="M97.753,213.509c-14.434,74.354,34.312,146.583,108.665,161.017S353,340.215,367.436,265.861a17.158,17.158,0,0,0-33.688-6.539,103.042,103.042,0,1,1-202.307-39.273,17.158,17.158,0,1,0-33.688-6.539" transform="translate(-95.221 -199.618)" fill="none"/>
    </clipPath>
    <clipPath id="clip-path-3">
      <rect id="Rectángulo_322" data-name="Rectángulo 322" width="377.094" height="344.852" transform="translate(0 145)" fill="none"/>
    </clipPath>
    <clipPath id="clip-path-4">
      <rect id="Rectángulo_328" data-name="Rectángulo 328" width="275.508" height="245.137" fill="none"/>
    </clipPath>
    <clipPath id="clip-path-5">
      <rect id="Rectángulo_330" data-name="Rectángulo 330" width="382.094" height="323.852" transform="translate(0 155)" fill="none"/>
    </clipPath>
  </defs>
  <g id="Grupo_718" data-name="Grupo 718" transform="translate(0 -145)">
    <g id="Grupo_404" data-name="Grupo 404">
      <g id="Grupo_403" data-name="Grupo 403" clip-path="url(#clip-path)">
        <path id="Trazado_1363" data-name="Trazado 1363" d="M295.617,259.223c-45.305-19.318-71.731,30.895-157.8,9.149C45.573,245.064,16.38,380.563,95.055,444.577c78.307,63.716,142.393,53.185,200.378-11.543,43.6-48.671,67.509-145.1.184-173.812" transform="translate(-7.526 -38.686)" fill="#fff"/>
      </g>
    </g>
    <g id="Grupo_406" data-name="Grupo 406" transform="translate(80.758 169.298)">
      <g id="Grupo_405" data-name="Grupo 405" clip-path="url(#clip-path-2)">
        <line id="Línea_161" data-name="Línea 161" x1="189.501" y1="280.798" transform="translate(-77.946 -35.213)" fill="none" stroke="#f3ad13" stroke-miterlimit="10" stroke-width="8"/>
        <line id="Línea_162" data-name="Línea 162" x1="189.501" y1="280.798" transform="translate(-67.637 -42.17)" fill="none" stroke="#f3ad13" stroke-miterlimit="10" stroke-width="8"/>
        <line id="Línea_163" data-name="Línea 163" x1="189.501" y1="280.798" transform="translate(-57.328 -49.128)" fill="none" stroke="#f3ad13" stroke-miterlimit="10" stroke-width="8"/>
        <line id="Línea_164" data-name="Línea 164" x1="189.501" y1="280.798" transform="translate(-47.019 -56.085)" fill="none" stroke="#f3ad13" stroke-miterlimit="10" stroke-width="8"/>
        <line id="Línea_165" data-name="Línea 165" x1="189.501" y1="280.798" transform="translate(-36.71 -63.042)" fill="none" stroke="#f3ad13" stroke-miterlimit="10" stroke-width="8"/>
        <line id="Línea_166" data-name="Línea 166" x1="189.501" y1="280.798" transform="translate(-26.401 -69.999)" fill="none" stroke="#f3ad13" stroke-miterlimit="10" stroke-width="8"/>
        <line id="Línea_167" data-name="Línea 167" x1="189.501" y1="280.798" transform="translate(-16.092 -76.957)" fill="none" stroke="#f3ad13" stroke-miterlimit="10" stroke-width="8"/>
        <line id="Línea_168" data-name="Línea 168" x1="189.501" y1="280.798" transform="translate(-5.783 -83.914)" fill="none" stroke="#f3ad13" stroke-miterlimit="10" stroke-width="8"/>
        <line id="Línea_169" data-name="Línea 169" x1="189.501" y1="280.798" transform="translate(4.526 -90.871)" fill="none" stroke="#f3ad13" stroke-miterlimit="10" stroke-width="8"/>
        <line id="Línea_170" data-name="Línea 170" x1="189.501" y1="280.798" transform="translate(14.835 -97.828)" fill="none" stroke="#f3ad13" stroke-miterlimit="10" stroke-width="8"/>
        <line id="Línea_171" data-name="Línea 171" x1="189.501" y1="280.798" transform="translate(25.144 -104.785)" fill="none" stroke="#f3ad13" stroke-miterlimit="10" stroke-width="8"/>
        <line id="Línea_172" data-name="Línea 172" x1="189.501" y1="280.798" transform="translate(35.453 -111.743)" fill="none" stroke="#f3ad13" stroke-miterlimit="10" stroke-width="8"/>
        <line id="Línea_173" data-name="Línea 173" x1="189.501" y1="280.798" transform="translate(45.762 -118.7)" fill="none" stroke="#f3ad13" stroke-miterlimit="10" stroke-width="8"/>
        <line id="Línea_174" data-name="Línea 174" x1="189.501" y1="280.798" transform="translate(56.071 -125.657)" fill="none" stroke="#f3ad13" stroke-miterlimit="10" stroke-width="8"/>
        <line id="Línea_175" data-name="Línea 175" x1="189.501" y1="280.798" transform="translate(66.38 -132.614)" fill="none" stroke="#f3ad13" stroke-miterlimit="10" stroke-width="8"/>
        <line id="Línea_176" data-name="Línea 176" x1="189.501" y1="280.798" transform="translate(76.689 -139.572)" fill="none" stroke="#f3ad13" stroke-miterlimit="10" stroke-width="8"/>
        <line id="Línea_177" data-name="Línea 177" x1="189.501" y1="280.798" transform="translate(86.998 -146.529)" fill="none" stroke="#f3ad13" stroke-miterlimit="10" stroke-width="8"/>
        <line id="Línea_178" data-name="Línea 178" x1="189.501" y1="280.798" transform="translate(97.307 -153.486)" fill="none" stroke="#f3ad13" stroke-miterlimit="10" stroke-width="8"/>
        <line id="Línea_179" data-name="Línea 179" x1="189.501" y1="280.798" transform="translate(107.616 -160.443)" fill="none" stroke="#f3ad13" stroke-miterlimit="10" stroke-width="8"/>
        <line id="Línea_180" data-name="Línea 180" x1="189.501" y1="280.798" transform="translate(117.925 -167.4)" fill="none" stroke="#f3ad13" stroke-miterlimit="10" stroke-width="8"/>
      </g>
    </g>
    <g id="Grupo_408" data-name="Grupo 408">
      <g id="Grupo_407" data-name="Grupo 407" clip-path="url(#clip-path-3)">
        <path id="Trazado_1365" data-name="Trazado 1365" d="M292.677,516.386a9.819,9.819,0,0,0-1.287.459c.456-.265.9-.533,1.344-.8-.008.077-.039.194-.058.339" transform="translate(-44.259 -78.382)" fill="#96999e"/>
        <path id="Trazado_1366" data-name="Trazado 1366" d="M272.391,460.147c2.7,3.507,4.693,12.064,10.64,22.55a12.056,12.056,0,0,0,4.215,4.653c-5.528-2.276-12.812-2.256-15.434-2.112s-8.5-1.029-11.572-1.689c3.762,1.444,4.075,5.868,14.194,10.21,5.425,2.32,9.711,1.894,12.748.758l-.74.589a93.984,93.984,0,0,0-10.717,5.642c-7.1,4.327-15.224,2.643-15.224,2.643,7.733,2.77,1.987,1.97,12.04,3.27,8.566,1.112,14.845-11.391,14.845-11.391.209-.146.373-.271.5-.363-.341,2.163-1.168,8.044-.567,12.566.738,5.653,2.911,10.341,4.839,12.332,1.839,1.912,5.6,2.234,5.966,2.252-.3-.165-4.731-2.573-4.817-4.972-.087-2.494.961-4.787-.94-11.453s-3.754-11.5-3.754-11.5l-.377-.054a14.029,14.029,0,0,0,3.443-2.244,134.159,134.159,0,0,0,13.655-10.708c-.995,3.425,4.351,14.128,6.9,16.081,19.453,14.906,30.535,5.017,30.535,5.017.6-.629-2.672-.379-5.035-.42s-7.189-4.592-7.189-4.592c-7.047-10.546-10.555-10.807-10.555-10.807s-6.658-3.437-10.743-4.333a5.867,5.867,0,0,1-3.007-1.746c2.354-2.113,4.668-4.318,6.944-6.579.813,1.715,2.261,6.493,4.934,7.407,14.927,5.053,24.516-7.549,24.516-7.549s-4.089,2.827-11.363,1.581c-5.989-1.014-13.43-2.737-16.869-2.649,2.549-2.573,5.05-5.23,7.48-7.921.988,1.177,6.307,6.989,14.056,7.412,3.979.215,14.116-.611,19.1-5.434,0,0-29.6-3.873-32.172-2.983a.511.511,0,0,0-.052-.025c2.773-3.095,5.455-6.24,8.021-9.371,1.321,1.033,29.362,15.576,43.391,3.664,0,0-6.672.06-11.766-2.127s-8.426-6.28-15.386-6.078c-5.288.159-12.149,2.222-15.143,3.2,2.729-3.35,5.317-6.682,7.755-9.919,2.61,1.3,18.7,8.277,38.4-5.031,2.252-1.531,5.286-4.084,4.427-3.709-7.114,3.112-8.409,2.231-11.323,2.05-18.948-1.129-24.512,1.594-30.815,5.788,2.346-3.136,4.542-6.175,6.567-9.044,9.576.611,12.889-.676,17.955-1.694,5.185-1.055,15.234-7.106,15.234-7.106s6.651-3.706,8.511-6.833c1.585-2.689-4.14,5-16.02,4.922-9.562-.076-21.205,7.2-25.023,9.772,2.37-3.394,4.5-6.555,6.337-9.355,1.52.676,9.8,3.336,27.516-9.336,13.224-9.477,7.139-5.814,7.139-5.814a25.066,25.066,0,0,1-7.042,2.524c-4.71,1.083-15.033,1.511-27.1,11.839,2.2-3.376,3.966-6.219,5.2-8.293,1.219.138,6-1.314,9.3-2.6a36.653,36.653,0,0,0,7.949-4.425c5.733-4.122,15.256-11.511,14.324-10.959-2.866,1.721-11.083,3.8-19.677,8.93-7.092,4.231-10.035,6.713-11.246,7.972a23.993,23.993,0,0,0,1.5-2.752c-4.426,7.041-8.786,13.541-13.043,19.557.142-.237.271-.475.271-.475a109.38,109.38,0,0,0,5.873-21.44c1.683-11.033,2.626-18.652,2.494-26.678s-.736-8.507-.736-8.507-1.039,14.214-2.332,18.8c-1.3,4.6-3.658,12.165-4.04,16.468s-1.092,20.017-1.7,21.652c-.2.539-.212.673-.148.632q-3.195,4.51-6.306,8.646c.075-.235.118-.421.118-.421s7-17.188,6.952-36.218-.109-25.453-.349-25.285c-.251.272-2.036,14.615-3.489,21.815-.706,3.459-1.333,6.379-1.873,8.872.363-11.406-1.265-13.368-1.265-13.368s-.33,16.88-6.217,29.531c-4.1,8.8-2.075,24.883-2.075,24.883l.013.689q-4.131,5.084-7.982,9.491c.449-.946,1.344-3.057,3.114-7.518,4.244-10.755,4.261-20.446,2.961-33.2s-4.75-15.584-4.578-14.684.632,11.625.669,13.058-2.169,12.048-3.094,19.773.546,22.947.546,22.947-.01.037-.02.077c-2.891,3.292-5.662,6.329-8.266,9.057a53.309,53.309,0,0,0,2.64-32.182c-1.342-5.915-5.711-23.818-6.283-26.39.213,1.463.786,8.245-1.008,26.458-1.935,19.741,3.067,30.944,3.993,32.795-2.4,2.508-4.673,4.777-6.781,6.826.733-.982,2.112-4.4-.016-15.51,0,0-3.331-14.165-22.308-13.856a18.346,18.346,0,0,1,8.759,11.317c2.089,8.043,8.716,15.912,13.189,18.407-1.776.7-17.065,14.568-17.065,14.568l-.3.247a11.479,11.479,0,0,0-3.467-2.648c4.605,1.594,8.873-1.981,8.873-1.981-1.6-1.053-1.29-8.368-4.194-10.283s-8.261-3.925-10.169-5.335-10.385-10.98-10.885-11.659.122,1.41.122,1.41m61.73-11.409a102.98,102.98,0,0,0,6.919-21.043c.065,2.726.228,6.239.5,10.819a2.4,2.4,0,0,0,.087.608q-3.825,5.08-7.506,9.616M288,494.208c-.008.077-.039.194-.058.339a9.885,9.885,0,0,0-1.287.458c.456-.265.9-.533,1.344-.8" transform="translate(-39.527 -56.542)" fill="#96999e"/>
        <path id="Trazado_1367" data-name="Trazado 1367" d="M294.915,248.509l-.153.014,1.26,12.488,9.989-7.18-.339-.549a11.9,11.9,0,0,0-10.757-4.774" transform="translate(-44.771 -37.737)" fill="#f5b015"/>
        <path id="Trazado_1368" data-name="Trazado 1368" d="M32.206,380.227a3.362,3.362,0,1,1-3.363-3.362,3.363,3.363,0,0,1,3.363,3.362" transform="translate(-3.87 -57.241)" fill="#f5b015"/>
        <path id="Trazado_1369" data-name="Trazado 1369" d="M70.291,410.284a2.3,2.3,0,1,1-2.3-2.3,2.3,2.3,0,0,1,2.3,2.3" transform="translate(-9.977 -61.968)" fill="#f5b015"/>
        <path id="Trazado_1370" data-name="Trazado 1370" d="M194.177,252.641a3.361,3.361,0,1,1-3.362-3.362,3.362,3.362,0,0,1,3.362,3.362" transform="translate(-28.472 -37.863)" fill="#f5b015"/>
        <path id="Trazado_1371" data-name="Trazado 1371" d="M341.166,289.745a2.214,2.214,0,1,1-2.214-2.214,2.214,2.214,0,0,1,2.214,2.214" transform="translate(-51.146 -43.673)" fill="#f5b015"/>
        <path id="Trazado_1372" data-name="Trazado 1372" d="M350.017,275.512c-2.828,1.388-3.153,8.537-3.206,11.686a11.913,11.913,0,0,0,2.328,6.794c2,2.924,6.936,5.85,9.024,6.8,2,.9,2.392-1.125,3.857-2.756a11.1,11.1,0,0,0,2.452-6c.574-4.238-.477-9.029-3.9-11.588-2.522-1.885-7.725-6.324-10.552-4.938" transform="translate(-52.676 -41.807)" fill="#96999e"/>
        <path id="Trazado_1373" data-name="Trazado 1373" d="M358.988,301.34a2.58,2.58,0,0,1-1.06-.26c-2.1-.953-7.114-3.9-9.188-6.935a12.289,12.289,0,0,1-2.4-7.025c.117-6.928,1.27-10.978,3.429-12.036,2.733-1.337,7.134,2.037,10.045,4.274.334.257.643.494.92.7,3.8,2.84,4.59,8.04,4.059,11.96a11.385,11.385,0,0,1-2.55,6.208,11.7,11.7,0,0,0-.98,1.311c-.6.889-1.216,1.8-2.277,1.8m-7.8-25.769a2.383,2.383,0,0,0-1.064.227c-1.816.891-2.876,4.916-2.984,11.336A11.5,11.5,0,0,0,349.4,293.7c1.96,2.866,6.905,5.773,8.86,6.659,1.1.5,1.516-.026,2.35-1.263a12.529,12.529,0,0,1,1.047-1.4,10.611,10.611,0,0,0,2.353-5.783c.5-3.7-.221-8.583-3.747-11.216-.279-.209-.591-.448-.929-.707-2.228-1.712-5.748-4.418-8.147-4.418" transform="translate(-52.605 -41.736)" fill="#2e3433"/>
        <path id="Trazado_1374" data-name="Trazado 1374" d="M381.892,316.344a13.663,13.663,0,0,0-3.59-.273,12.8,12.8,0,0,0-8.315,4.581,38.02,38.02,0,0,0-5.112,8.248l.013,1.874a22.911,22.911,0,0,0,14.5,2.578,9.955,9.955,0,0,0,3.143-.933c2.4-1.266,3.714-3.884,4.749-6.39.711-1.721,4.284-4.915,3.743-6.7-.768-2.532-6.528-2.492-9.126-2.988" transform="translate(-55.42 -48.003)" fill="#96999e"/>
        <path id="Trazado_1375" data-name="Trazado 1375" d="M375.857,333.942a23.223,23.223,0,0,1-11.233-2.894l-.2-.111-.015-2.2.044-.086a38.279,38.279,0,0,1,5.169-8.331A13.091,13.091,0,0,1,378.2,315.6a13.871,13.871,0,0,1,3.694.279c.562.107,1.3.191,2.08.282,2.975.338,6.678.762,7.351,2.98.405,1.332-.938,3.063-2.237,4.738a12.338,12.338,0,0,0-1.518,2.225c-1.093,2.647-2.446,5.277-4.93,6.589a10.355,10.355,0,0,1-3.269.974,22.737,22.737,0,0,1-3.515.271m-10.645-3.477a22.434,22.434,0,0,0,14.039,2.421A9.632,9.632,0,0,0,382.27,332c2.26-1.2,3.531-3.681,4.566-6.19a12.716,12.716,0,0,1,1.625-2.41c1.065-1.373,2.39-3.081,2.106-4.019-.522-1.72-4.082-2.125-6.681-2.424-.8-.091-1.549-.176-2.14-.289a13.107,13.107,0,0,0-3.486-.267,12.31,12.31,0,0,0-8.048,4.448,37.294,37.294,0,0,0-5.011,8.078Z" transform="translate(-55.349 -47.932)" fill="#2e3433"/>
        <path id="Trazado_1376" data-name="Trazado 1376" d="M347.581,313.049c-2.813-.762-7.217-1.3-8.762,1.167-1.061,1.7.051,4.707.869,6.533,1.594,3.563,5.024,6.041,8.7,7.362s7.622,1.632,11.514,1.931l.63-.316a18.047,18.047,0,0,0-12.95-16.677" transform="translate(-51.397 -47.451)" fill="#96999e"/>
        <path id="Trazado_1377" data-name="Trazado 1377" d="M359.91,330.375l-.11-.008c-3.867-.3-7.867-.606-11.617-1.954-4.256-1.53-7.427-4.22-8.927-7.574-1.43-3.192-1.713-5.516-.843-6.906,1.85-2.958,7.053-1.923,9.2-1.34a18.486,18.486,0,0,1,13.245,17.055l0,.249Zm-16.78-17.642c-1.639,0-3.261.369-4.045,1.622-.494.791-.742,2.5.895,6.16,1.392,3.109,4.479,5.715,8.47,7.151a43.128,43.128,0,0,0,11.3,1.9l.306-.154a17.287,17.287,0,0,0-16.927-16.679" transform="translate(-51.326 -47.379)" fill="#2e3433"/>
        <path id="Trazado_1378" data-name="Trazado 1378" d="M346.13,346.682a11.572,11.572,0,0,0-3.911-2.63,8.112,8.112,0,0,0-6.892,1.229,8.936,8.936,0,0,0-2.736,12.432,13.949,13.949,0,0,0,8.349,6.2,26.239,26.239,0,0,0,10.578.509l.589-1.147c.235-3.594.439-7.364-1.079-10.632a19.56,19.56,0,0,0-4.9-5.963" transform="translate(-50.317 -52.208)" fill="#96999e"/>
        <path id="Trazado_1379" data-name="Trazado 1379" d="M347.03,365.047a22.379,22.379,0,0,1-6.273-.821,14.359,14.359,0,0,1-8.584-6.388,9.336,9.336,0,0,1,2.862-12.959,8.5,8.5,0,0,1,7.239-1.274,11.81,11.81,0,0,1,4.051,2.712h0a20.023,20.023,0,0,1,4.991,6.09c1.6,3.438,1.342,7.362,1.115,10.824l-.043.156-.684,1.332-.209.027a35.791,35.791,0,0,1-4.466.3M340.1,344.056a8.534,8.534,0,0,0-4.626,1.486,8.541,8.541,0,0,0-2.608,11.9,13.559,13.559,0,0,0,8.113,6.016,25.509,25.509,0,0,0,10.21.522l.455-.886c.219-3.347.453-7.128-1.047-10.356a19.386,19.386,0,0,0-4.806-5.837h0a11.179,11.179,0,0,0-3.771-2.546,6,6,0,0,0-1.92-.3" transform="translate(-50.245 -52.137)" fill="#2e3433"/>
        <path id="Trazado_1380" data-name="Trazado 1380" d="M377.469,355.793c-4.291-.749-8.8-.99-12.721.909s-10.874,10.112-7.913,10.958c3.359.962,13.232,4.455,16.649,3.723,2.8-.6,10.294-5.521,10.471-6.48.411-2.223-3.119-8.524-6.486-9.111" transform="translate(-54.091 -53.956)" fill="#96999e"/>
        <path id="Trazado_1381" data-name="Trazado 1381" d="M372.289,371.807c-3.322,0-9.185-1.835-13.23-3.1-.965-.3-1.794-.561-2.4-.737a1.3,1.3,0,0,1-1-1.2c-.223-2.575,5.372-8.817,8.844-10.5,4.311-2.088,9.192-1.6,12.963-.943,2.052.357,3.792,2.475,4.648,3.7,1.51,2.171,2.4,4.585,2.162,5.871-.235,1.266-8.093,6.22-10.779,6.8a5.846,5.846,0,0,1-1.208.109m-.523-16.249a15.725,15.725,0,0,0-6.916,1.429c-3.315,1.6-8.574,7.688-8.4,9.714a.509.509,0,0,0,.422.5c.617.176,1.45.438,2.424.742,4.243,1.328,11.343,3.546,14.033,2.974,2.8-.6,9.856-5.385,10.169-6.183.191-1.038-.684-3.305-2.037-5.252-1.336-1.92-2.842-3.151-4.132-3.376a32.534,32.534,0,0,0-5.564-.553" transform="translate(-54.019 -53.884)" fill="#2e3433"/>
        <path id="Trazado_1382" data-name="Trazado 1382" d="M328.766,374.591a6.282,6.282,0,0,0-3.939,2.43c-1.485,2.242-.679,5.265.511,7.677a29.17,29.17,0,0,0,12.957,13.049l1.068-.048a32.072,32.072,0,0,0,1.992-11.773,15.5,15.5,0,0,0-.684-4.637,10.561,10.561,0,0,0-11.9-6.7" transform="translate(-49.215 -56.862)" fill="#96999e"/>
        <path id="Trazado_1383" data-name="Trazado 1383" d="M338.138,398.077l-.092-.046A29.5,29.5,0,0,1,324.91,384.8c-1.136-2.3-2.142-5.573-.485-8.072a6.645,6.645,0,0,1,4.184-2.6,10.979,10.979,0,0,1,12.368,6.96,16.25,16.25,0,0,1,.7,4.754,32.724,32.724,0,0,1-2.017,11.919l-.092.247ZM330.724,374.7a8.834,8.834,0,0,0-1.942.213,5.866,5.866,0,0,0-3.7,2.262c-1.449,2.184-.508,5.166.535,7.282a28.714,28.714,0,0,0,12.687,12.823l.7-.031a31.916,31.916,0,0,0,1.876-11.379,14.752,14.752,0,0,0-.662-4.518,10.231,10.231,0,0,0-9.5-6.651" transform="translate(-49.144 -56.791)" fill="#2e3433"/>
        <path id="Trazado_1384" data-name="Trazado 1384" d="M359.992,387.112a17.1,17.1,0,0,0-4.272.173,14.486,14.486,0,0,0-7.434,4.661c-2.029,2.174-3.7,4.654-5.705,6.851l.358.188c1.5,3.291,5.528,4.453,9.091,5.084,4.349.77,9.325,1.148,12.689-1.713a12,12,0,0,0,3.455-6,7.893,7.893,0,0,0-.049-5.582c-1.38-2.8-5.012-3.5-8.133-3.663" transform="translate(-52.034 -58.79)" fill="#96999e"/>
        <path id="Trazado_1385" data-name="Trazado 1385" d="M357.265,404.944a31.316,31.316,0,0,1-5.419-.555c-3.482-.616-7.675-1.763-9.326-5.185l-.695-.365.346-.381c.953-1.045,1.85-2.18,2.717-3.277.948-1.2,1.927-2.437,2.992-3.577a14.748,14.748,0,0,1,7.645-4.779,17.573,17.573,0,0,1,4.372-.181c4.528.235,7.3,1.505,8.468,3.884.74,1.505.765,3.425.075,5.866a12.147,12.147,0,0,1-3.58,6.191,11.411,11.411,0,0,1-7.6,2.358M343.1,398.612l.025.014.057.124c1.454,3.181,5.466,4.267,8.8,4.858,4.027.712,9.071,1.171,12.361-1.625a11.408,11.408,0,0,0,3.33-5.8c.635-2.244.628-3.977-.024-5.3-1.031-2.1-3.581-3.223-7.8-3.443a16.976,16.976,0,0,0-4.173.166,13.991,13.991,0,0,0-7.222,4.543c-1.042,1.116-2.012,2.342-2.949,3.527-.772.978-1.567,1.983-2.41,2.938" transform="translate(-51.919 -58.719)" fill="#2e3433"/>
        <path id="Trazado_1386" data-name="Trazado 1386" d="M328.595,412.286a20.313,20.313,0,0,0-4.639-6.5,12.088,12.088,0,0,0-13.21-1.4c-2.066,1.108-3.875,3.037-4.08,5.372-.271,3.077,2.189,5.645,4.5,7.695,3.315,2.943,7.306,5.967,11.7,5.363a16,16,0,0,0,3.535-1.058l3.247-1.252.6-.356a10.4,10.4,0,0,0-.2-4.344,18.058,18.058,0,0,0-1.444-3.519" transform="translate(-46.576 -61.217)" fill="#96999e"/>
        <path id="Trazado_1387" data-name="Trazado 1387" d="M321.63,423.219c-3.969,0-7.528-2.639-10.8-5.543-2.448-2.173-4.913-4.825-4.632-8.027a7.559,7.559,0,0,1,4.288-5.687,12.431,12.431,0,0,1,13.656,1.451,20.621,20.621,0,0,1,4.737,6.62,18.664,18.664,0,0,1,1.474,3.6,10.865,10.865,0,0,1,.211,4.51l-.03.182-.756.451-3.309,1.281a16.3,16.3,0,0,1-3.623,1.081,8.823,8.823,0,0,1-1.215.084m-5.439-19.869a11.269,11.269,0,0,0-5.329,1.311,6.783,6.783,0,0,0-3.873,5.056c-.25,2.851,2.068,5.322,4.368,7.363,3.462,3.072,7.229,5.836,11.381,5.268a15.708,15.708,0,0,0,3.445-1.036l3.247-1.252.378-.229a10.075,10.075,0,0,0-.224-4,17.928,17.928,0,0,0-1.415-3.441,19.933,19.933,0,0,0-4.543-6.374,11.518,11.518,0,0,0-7.436-2.668" transform="translate(-46.505 -61.144)" fill="#2e3433"/>
        <path id="Trazado_1388" data-name="Trazado 1388" d="M351.515,417.058A23.344,23.344,0,0,0,333.73,423.7l1.963.024a7.162,7.162,0,0,0,3.087,6.392,18.376,18.376,0,0,0,6.848,2.782c3.212.775,6.868,1.3,9.6-.564,2.242-1.533,3.261-4.318,3.736-6.991a7.99,7.99,0,0,0-.109-4.16c-1.029-2.786-4.372-3.925-7.335-4.125" transform="translate(-50.69 -63.339)" fill="#96999e"/>
        <path id="Trazado_1389" data-name="Trazado 1389" d="M350.409,433.936a21.891,21.891,0,0,1-5.045-.723,18.8,18.8,0,0,1-6.993-2.851,7.725,7.725,0,0,1-3.286-6.318l-2.477-.03.672-.667a23.732,23.732,0,0,1,18.091-6.758c3.895.264,6.765,1.9,7.681,4.385a8.339,8.339,0,0,1,.127,4.368c-.616,3.459-1.929,5.9-3.9,7.249a8.431,8.431,0,0,1-4.868,1.344m-15.866-10.691,1.434.018-.061.445a6.763,6.763,0,0,0,2.934,6.019,18.127,18.127,0,0,0,6.7,2.715c3.122.751,6.666,1.28,9.278-.506,1.792-1.225,2.992-3.49,3.57-6.732a7.637,7.637,0,0,0-.091-3.953c-1.192-3.229-5.652-3.776-6.989-3.866a22.945,22.945,0,0,0-16.776,5.86" transform="translate(-50.519 -63.268)" fill="#2e3433"/>
        <path id="Trazado_1390" data-name="Trazado 1390" d="M384.1,322.857c-3.3.979-6.411,2.909-9.536,4.356a43.779,43.779,0,0,1-9.934,3.205.283.283,0,0,0,.059.562c3.422.075,6.7-1.317,9.751-2.726,3.277-1.51,6.934-2.9,9.895-4.956a.253.253,0,0,0-.235-.441" transform="translate(-55.346 -49.036)" fill="#2e3433"/>
        <path id="Trazado_1391" data-name="Trazado 1391" d="M360.459,329.036c-3.025.1-6.215-2.966-8.576-4.67-1.949-1.406-3.8-2.974-5.846-4.227-.285-.175-.5.265-.293.468a63.156,63.156,0,0,0,9.011,6.788c1.786,1.214,3.505,2.643,5.757,2.15a.256.256,0,0,0-.053-.51" transform="translate(-52.502 -48.619)" fill="#2e3433"/>
        <path id="Trazado_1392" data-name="Trazado 1392" d="M339.509,351.2c-.359-.164-.735.387-.381.61a28.739,28.739,0,0,1,8.693,7.627c1.419,1.991,2.459,4.6,4.685,5.807.137.074.232-.1.174-.211-2.91-5.447-7.446-11.205-13.171-13.833" transform="translate(-51.488 -53.338)" fill="#2e3433"/>
        <path id="Trazado_1393" data-name="Trazado 1393" d="M379.448,365.438a21.942,21.942,0,0,0-10.664-.408c-4.264,1.024-7.5,2.892-12.04,1.738-.3-.076-.449.419-.156.522a12.475,12.475,0,0,0,8.717-.186,23.576,23.576,0,0,1,6.713-1.617c2.46-.106,4.9.377,7.349.471a.264.264,0,0,0,.081-.521" transform="translate(-54.138 -55.371)" fill="#2e3433"/>
        <path id="Trazado_1394" data-name="Trazado 1394" d="M336.18,388.175a25.91,25.91,0,0,0-5.846-7.884c-.123-.1-.281.057-.2.186,2.514,4.026,5.308,7.591,7.064,12.079.8,2.037,1.215,5.461,3.954,5.556a.3.3,0,0,0,.167-.559c-2.915-1.39-3.7-6.655-5.139-9.378" transform="translate(-50.14 -57.757)" fill="#2e3433"/>
        <path id="Trazado_1395" data-name="Trazado 1395" d="M364.555,394.966a30.484,30.484,0,0,0-9.309,1c-3.61.94-8.172,4.425-11.9,3.505-.244-.059-.367.344-.127.428,3.07,1.081,5.642-.757,8.462-1.86a36.5,36.5,0,0,1,12.856-2.243c.47-.008.5-.806.021-.832" transform="translate(-52.111 -59.985)" fill="#2e3433"/>
        <path id="Trazado_1396" data-name="Trazado 1396" d="M310.394,410.548c-.212-.053-.316.293-.112.371,7.668,2.864,15.685,4.071,20.892,11.034.344.461,1.075-.058.729-.517-5.22-6.917-13.492-8.849-21.51-10.888" transform="translate(-47.111 -62.357)" fill="#2e3433"/>
        <path id="Trazado_1397" data-name="Trazado 1397" d="M354.637,425.886c-3.34-.555-6.709-.723-10.066-1.353a23.673,23.673,0,0,0-9.156-.4.32.32,0,0,0,.067.637,41.471,41.471,0,0,1,10.947,1.164c2.633.517,5.631,1.276,8.267.513.292-.086.215-.521-.059-.566" transform="translate(-50.904 -64.376)" fill="#2e3433"/>
        <path id="Trazado_1398" data-name="Trazado 1398" d="M350.741,290.122a84.78,84.78,0,0,1,7.4,27.89c.79,10.806-1.026,21.45-4.337,31.719-6.223,19.312-16.96,37.013-21.162,57-2.093,9.956-2.51,20.209.352,30.052.092.315.634.193.564-.133-8.9-42.079,28.739-76.17,26.343-117.775a71.222,71.222,0,0,0-7.947-29.4c-.371-.694-1.527-.07-1.213.645" transform="translate(-50.269 -43.922)" fill="#2e3433"/>
        <path id="Trazado_1399" data-name="Trazado 1399" d="M155.962,350.686s-38.726,13.01-33.455,57.655-2.32,99.047-2.32,99.047h22.076s39.323-53.014,10.345-92.735,3.354-63.967,3.354-63.967" transform="translate(-18.255 -53.265)" fill="#dbe0e6"/>
        <path id="Trazado_1400" data-name="Trazado 1400" d="M119.508,507.012c.075-.543,7.517-54.844,2.317-98.9-5.263-44.588,33.447-58.129,33.839-58.259L159,348.728l-2.819,2.115c-.319.238-31.553,24.358-3.236,63.178,28.888,39.6-9.953,92.875-10.349,93.409l-.17.229H119.417Zm32.525-92.321c-23.941-32.822-6.165-55.453.913-62.46-8.986,4.249-34.265,19.555-29.993,55.746,4.91,41.6-1.407,92.258-2.234,98.546h21.137c2.742-3.839,37.618-54.216,10.177-91.833" transform="translate(-18.138 -52.968)" fill="#131313"/>
        <path id="Trazado_1401" data-name="Trazado 1401" d="M152.9,353.966c-7.048,5.817-27.547,26.956-5.457,61.948,26.247,41.575-16.542,91.834-16.542,91.834l-10.6-.715c-.069.541-.114.855-.114.855h22.075s39.323-53.014,10.345-92.735c-23.253-31.881-7.03-53.778.288-61.186" transform="translate(-18.255 -53.763)" fill="#131313"/>
        <path id="Trazado_1402" data-name="Trazado 1402" d="M115.885,475.754c2.067-39.62.469-44.571-14.934-57.654s-37.1-34.594-37.1-34.594c14.785,29.271,14.487,42.576,17.268,64.11,2.16,16.7,27.254,50.047,38.4,64.166-2.47-5.725-4.663-16.358-3.632-36.029" transform="translate(-9.698 -58.25)" fill="#dbe0e6"/>
        <path id="Trazado_1403" data-name="Trazado 1403" d="M118.7,511.623c-10.853-13.745-36.334-47.539-38.52-64.445-.385-2.984-.711-5.811-1.026-8.543-1.951-16.9-3.493-30.255-16.184-55.383l-1.575-3.118,2.481,2.459c.217.215,21.864,21.644,37.074,34.564,15.767,13.393,17.182,18.826,15.132,58.117-1.061,20.237,1.365,30.624,3.587,35.773Zm-3.754-36.41c2.024-38.783.646-44.128-14.733-57.192-12.242-10.4-28.635-26.29-34.727-32.254C76.892,409.147,78.4,422.18,80.281,438.5c.315,2.728.64,5.548,1.025,8.527,2.014,15.579,24.391,46.054,36.083,61.078-2.365-7.677-3.186-18.714-2.443-32.9" transform="translate(-9.325 -57.738)" fill="#131313"/>
        <path id="Trazado_1404" data-name="Trazado 1404" d="M116,468.211c-7.688,32.914,8.659,55.033,8.659,55.033H140.78c-.055-11.344.758-22.224,6.1-33.227a12.2,12.2,0,0,1,.982-1.634c-2.271-1.064-4.8-2.14-7.613-3.22-29.763-11.433-16.558-49.868-24.245-16.952" transform="translate(-17.307 -69.136)" fill="#131313"/>
        <path id="Trazado_1405" data-name="Trazado 1405" d="M156.619,483.625c-15.691,9.486-8.306,44.508-8.306,44.508l15.339-.245s-3.558-11.316,5.911-24.681,16.71-9.062,16.71-9.062-13.962-20-29.653-10.52" transform="translate(-22.263 -73.069)" fill="#131313"/>
        <path id="Trazado_1406" data-name="Trazado 1406" d="M65.474,456.329c-27.469,0-42.833,16.554-42.833,16.554s10.692-5.435,29.823-4.728,17.74,16.952,33.115,32.127,28.186,17.345,28.186,17.345S93.4,488.177,78.484,468.155c-2.627-3.526-.07-11.826-13.01-11.826" transform="translate(-3.439 -69.311)" fill="#131313"/>
        <path id="Trazado_1407" data-name="Trazado 1407" d="M30.608,481.764a2.386,2.386,0,0,0-.138.456s.043-.165.138-.456" transform="translate(-4.628 -73.174)" fill="#faf9fc"/>
        <path id="Trazado_1408" data-name="Trazado 1408" d="M86.794,473.575c-5.127-6.9.2-23.849-32.523-19.909-29.886,3.6-36.91,21.332-37.9,24.378.754-1.965,5.537-9.976,34.356-16.492,33.113-7.491,15.572,9.656,30.552,20.5s27.2,31.142,27.2,31.142,8.476,14.191,6.5,2.364-23.061-35.086-28.184-41.981" transform="translate(-2.486 -68.817)" fill="#dbe0e6"/>
        <path id="Trazado_1409" data-name="Trazado 1409" d="M107.893,513.384c-.121-.2-12.332-20.325-27.046-30.975-5.839-4.227-6.905-9.462-7.762-13.667-.656-3.22-1.174-5.765-3.435-7.224-2.962-1.916-8.968-1.761-18.9.485-28.928,6.542-33.357,14.6-33.951,16.143l-1.069-.379c1.142-3.5,8.36-21.149,38.375-24.765,25.582-3.082,28.391,6.53,30.644,14.254a18.945,18.945,0,0,0,2.4,5.879c1.056,1.421,2.85,3.608,4.926,6.141,8.144,9.936,21.776,26.566,23.363,36.085.557,3.341.362,4.926-.653,5.3a1,1,0,0,1-.355.061c-1.867,0-4.859-4.52-6.541-7.337M86.242,473.812a19.637,19.637,0,0,1-2.581-6.237c-2.246-7.693-4.789-16.412-29.419-13.446-22.328,2.69-31.713,13.225-35.41,19.6C22.778,470.182,31.457,465.2,50.5,460.9c10.389-2.352,16.484-2.454,19.765-.333,2.661,1.72,3.249,4.608,3.93,7.952.86,4.221,1.835,9.007,7.315,12.974,14.9,10.785,27.231,31.105,27.355,31.311,2.242,3.755,4.876,6.932,5.524,6.8.006,0,.535-.434-.068-4.051-1.538-9.22-15.049-25.7-23.122-35.552-2.171-2.648-3.886-4.741-4.958-6.184" transform="translate(-2.389 -68.716)" fill="#131313"/>
        <path id="Trazado_1410" data-name="Trazado 1410" d="M202.7,494.362c-17.234-29.337-35.148-25.991-46.656-18.421-16.326,10.744-10.549,50.014-10.549,50.014l2.507.6s-.183-7.692.126-20.961,5.332-32.447,28.128-8.052,52.63,26.841,52.63,26.841-8.948-.684-26.185-30.023" transform="translate(-21.948 -71.494)" fill="#dbe0e6"/>
        <path id="Trazado_1411" data-name="Trazado 1411" d="M228.717,524.847c-.648-.057-30.44-2.889-52.99-27.018-8.55-9.15-15.238-12.89-19.887-11.122-6.208,2.365-7.145,13.935-7.259,18.8-.305,13.1-.128,20.858-.126,20.935l.017.738-3.6-.864-.056-.38c-.238-1.617-5.641-39.752,10.8-50.57,7.26-4.777,14.531-6.361,21.612-4.71,9.339,2.175,18.035,10.02,25.846,23.319C219.8,522.44,228.7,523.7,228.815,523.717h0l-.09,1.132-.011,0m-72.475-48.534c-14.992,9.864-10.88,45.025-10.351,49.078l1.416.34c-.036-2.231-.113-9.421.14-20.251.12-5.094,1.137-17.223,7.989-19.835,5.121-1.947,12.226,1.888,21.121,11.409,17.579,18.811,39.614,24.507,48.393,26.1-4.2-2.742-11.868-9.906-22.853-28.6-7.648-13.018-16.1-20.685-25.126-22.788a22.809,22.809,0,0,0-6.921-.535,29.161,29.161,0,0,0-13.808,5.089" transform="translate(-21.839 -71.391)" fill="#131313"/>
        <path id="Trazado_1412" data-name="Trazado 1412" d="M164.448,452.961c-4.705-3.454-9.484-2.862-13.175-1.325a15.769,15.769,0,0,1-14.217-1.3C121.3,440.8,120.1,453.907,120.1,453.907l.427,3.548a.178.178,0,0,1,.023.118c1.136,6.575,4.827,20.247,20.626,26.326,2.814,1.086,27.6,11.826,27.6,11.826-3.359-13.6,5.324-35.668-4.327-42.765" transform="translate(-18.241 -67.873)" fill="#dbe0e6"/>
        <path id="Trazado_1413" data-name="Trazado 1413" d="M168.448,496.145c-.248-.108-24.81-10.747-27.581-11.818-11.446-4.4-18.7-13.636-20.97-26.7l-.472-3.817.006-.06c.018-.2.49-4.872,4.28-6.784,3.238-1.637,7.792-.7,13.537,2.779a15.293,15.293,0,0,0,13.705,1.261c4.939-2.057,9.685-1.577,13.728,1.391v0c6.057,4.454,5.231,14.163,4.357,24.441-.557,6.544-1.132,13.31.185,18.645l.275,1.113Zm-4.437-42.829c-3.759-2.759-8.005-3.184-12.62-1.259a16.43,16.43,0,0,1-14.729-1.339c-5.386-3.258-9.567-4.179-12.432-2.741-3.027,1.523-3.6,5.324-3.662,5.826l.407,3.387a.386.386,0,0,1,.031.185c2.189,12.679,9.2,21.634,20.271,25.894,2.5.965,21.849,9.335,26.6,11.394-1.043-5.313-.5-11.713.029-17.916.846-9.953,1.646-19.353-3.9-23.431Z" transform="translate(-18.139 -67.771)" fill="#131313"/>
      </g>
    </g>
    <g id="Grupo_410" data-name="Grupo 410" transform="translate(57.019 208.893)">
      <g id="Grupo_409" data-name="Grupo 409" clip-path="url(#clip-path-4)">
        <path id="Trazado_1414" data-name="Trazado 1414" d="M155.5,705.534c-2.19,11.165-5.38,19.737,1.913,29.955,0,0,11.394-7.451,25.429,1.385,10.581,6.67,31.5,2.948,31.5,2.948,1.759-5.966,3.058-28.85,3.477-55.792.292-18.624.153-39.2-.544-57.463-.042-1.209-.089-2.509-.141-3.881-1.59-49.357-1.913-201.286-1.913-201.286L165,423.467s-.863,9.118-8.529,62.639c-6.426,44.956-5.242,113.191-6.723,152.765-.271,7.529-.645,14.016-1.187,19.117-3.032,28.542,6.663,35.14,7.171,44.205a13.47,13.47,0,0,1-.232,3.34" transform="translate(-79.494 -272.899)" fill="#1a120e"/>
        <path id="Trazado_1415" data-name="Trazado 1415" d="M227.824,575.527c.074.982.148,1.965.222,2.935,1.452,18.5,3.628,36.192,6.558,52.636a.956.956,0,0,0,.035.174q.716,4.028,1.5,7.956.732,3.709,1.525,7.307,4.618-1.105,9.279-2.12c3.281-.715,6.563-1.4,9.871-2.041,2.833-.558,5.666-1.092,8.525-1.6,13.4-2.42,26.989-4.357,40.614-5.978-1.574-12.312-4.466-22.823-7.365-59.566-1.172-14.841-2.529-31.315-3.9-47.493-2.4-28.256-4.82-55.6-6.246-71.662-.034-.35-.067-.689-.089-1.028-.764-8.473-1.217-13.544-1.217-13.544l-40.016-2.864-17.51-1.255q-.557,6.189-1.031,12.383a2.716,2.716,0,0,0-.026.32q-.294,3.684-.539,7.391c-.293,4.238-.562,8.487-.8,12.721-.249,4.729-.478,9.445-.659,14.147-.734,18.335-.9,36.54-.481,54.309.014.963.042,1.936.068,2.9.314,11.545.874,22.9,1.688,33.977" transform="translate(-91.321 -275.326)" fill="#1a120e"/>
        <path id="Trazado_1416" data-name="Trazado 1416" d="M340.819,362.475c-9.252-11.114-63.244-35.408-81.333-42.624a23.709,23.709,0,0,0-13-1.708c-2.734-.014-13.655.061-26.325.154-.67-.005-1.339,0-2.021,0-1.974.02-3.995.031-6.028.044-2.338.008-4.688.029-7.014.047-1.5.014-2.984.014-4.453.026-1.164,0-2.314.018-3.454.02-8.769.057-16.508.1-21.006.119-5-.718-10.764.49-16.849,5.342-15.227,12.141-59.882,51.017-65.523,64.333-8.157,19.247,14.63,54.967,46.59,45.617a18.773,18.773,0,0,0,2.145-.781c-4.333,37.523-8.321,73.851-8.321,73.851s3.874,1.21,10.076,2.989c14.259,4.084,40.841,11.178,61.119,13.444.142.015.272.03.4.046.271.029.533.059.792.078s.5.062.745.081c3.347.327,6.5.513,9.354.519,8.134.01,19.058-2.31,29.808-5.324,10.322-2.9,20.474-6.443,27.845-9.171,6.787-2.514,11.194-4.336,11.194-4.336.836-8.82-2.28-39.392-5.785-69.069l0-.012c-.193-1.739-.4-3.465-.6-5.192-.274-2.262-.548-4.514-.819-6.741-.98-8.023-1.948-15.737-2.827-22.681,11.866,10.115,24.256,18.159,33.886,18.073,33.3-.3,44.774-41.082,31.4-57.146" transform="translate(-71.015 -257.171)" fill="#f5b015"/>
        <path id="Trazado_1417" data-name="Trazado 1417" d="M340.819,362.475c-9.252-11.114-63.244-35.408-81.333-42.624a23.709,23.709,0,0,0-13-1.708c-2.734-.014-13.655.061-26.325.154-.67-.005-1.339,0-2.021,0-1.974.02-3.995.031-6.028.044-2.338.008-4.688.029-7.014.047-1.5.014-2.984.014-4.453.026-1.164,0-2.314.018-3.454.02-8.769.057-16.508.1-21.006.119-5-.718-10.764.49-16.849,5.342-15.227,12.141-59.882,51.017-65.523,64.333-8.157,19.247,14.63,54.967,46.59,45.617a18.773,18.773,0,0,0,2.145-.781c-4.333,37.523-8.321,73.851-8.321,73.851s3.874,1.21,10.076,2.989c14.259,4.084,40.841,11.178,61.119,13.444.142.015.272.03.4.046.271.029.533.059.792.078s.5.062.745.081c3.347.327,6.5.513,9.354.519,8.134.01,19.058-2.31,29.808-5.324,10.322-2.9,20.474-6.443,27.845-9.171,6.787-2.514,11.194-4.336,11.194-4.336.836-8.82-2.28-39.392-5.785-69.069l0-.012c-.193-1.739-.4-3.465-.6-5.192-.274-2.262-.548-4.514-.819-6.741-.98-8.023-1.948-15.737-2.827-22.681,11.866,10.115,24.256,18.159,33.886,18.073C342.72,419.325,354.2,378.539,340.819,362.475Z" transform="translate(-71.015 -257.171)" fill="none" stroke="#2e3433" stroke-miterlimit="10" stroke-width="1"/>
        <path id="Trazado_1418" data-name="Trazado 1418" d="M140.048,398.881c12.08,11.04,15.043,27.46,6.622,36.675s-25.042,7.736-37.122-3.3-15.044-27.461-6.62-36.675,25.04-7.736,37.12,3.3" transform="translate(-71.924 -268.058)" fill="#2e3433"/>
        <path id="Trazado_1419" data-name="Trazado 1419" d="M104.459,429.785c-7.308-10.355-8.465-26.593-1.5-34.209,8.421-9.215,25.04-7.736,37.12,3.3a34.921,34.921,0,0,1,10.867,18.374c-15.588,15.352-31.445,23.583-46.483,12.53" transform="translate(-71.951 -268.058)" fill="#fff"/>
        <path id="Trazado_1420" data-name="Trazado 1420" d="M104.459,429.785c-7.308-10.355-8.465-26.593-1.5-34.209,8.421-9.215,25.04-7.736,37.12,3.3a34.921,34.921,0,0,1,10.867,18.374C135.354,432.607,119.5,440.838,104.459,429.785Z" transform="translate(-71.951 -268.058)" fill="none" stroke="#2e3433" stroke-linecap="round" stroke-linejoin="round" stroke-width="1"/>
        <path id="Trazado_1421" data-name="Trazado 1421" d="M218.984,507.254l.493-1.091c-.135-.059-13.334-5.884-27.939-1.978l.307,1.156c14.186-3.791,27.012,1.856,27.14,1.912" transform="translate(-86.111 -285.269)" fill="#1a120e"/>
        <path id="Trazado_1422" data-name="Trazado 1422" d="M240.14,289.635A6.176,6.176,0,1,0,247.6,285.1a6.178,6.178,0,0,0-7.463,4.538" transform="translate(-93.466 -252.169)" fill="#fff"/>
        <path id="Trazado_1423" data-name="Trazado 1423" d="M240.14,289.635A6.176,6.176,0,1,0,247.6,285.1,6.178,6.178,0,0,0,240.14,289.635Z" transform="translate(-93.466 -252.169)" fill="none" stroke="#2e3433" stroke-linecap="round" stroke-linejoin="round" stroke-width="1"/>
        <path id="Trazado_1424" data-name="Trazado 1424" d="M216.721,289.578a6.176,6.176,0,1,1-7.446-4.565,6.177,6.177,0,0,1,7.446,4.565" transform="translate(-88.085 -252.157)" fill="#fff"/>
        <path id="Trazado_1425" data-name="Trazado 1425" d="M216.721,289.578a6.176,6.176,0,1,1-7.446-4.565A6.177,6.177,0,0,1,216.721,289.578Z" transform="translate(-88.085 -252.157)" fill="none" stroke="#2e3433" stroke-linecap="round" stroke-linejoin="round" stroke-width="1"/>
        <path id="Trazado_1426" data-name="Trazado 1426" d="M254.744,371.245l58.994,58.233a4.327,4.327,0,0,1,.042,6.122l-42.909,43.47a4.33,4.33,0,0,1-6.123.04l-58.994-58.234a4.328,4.328,0,0,1-.038-6.122l42.909-43.469a4.327,4.327,0,0,1,6.12-.04" transform="translate(-88.075 -265.091)" fill="#2e3433"/>
        <path id="Trazado_1427" data-name="Trazado 1427" d="M253.316,372.692l58.995,58.234a4.327,4.327,0,0,1,.042,6.121l-42.909,43.469a4.326,4.326,0,0,1-6.122.04l-58.995-58.233a4.329,4.329,0,0,1-.038-6.122L247.2,372.731a4.327,4.327,0,0,1,6.12-.04" transform="translate(-87.858 -265.311)" fill="#fff"/>
        <path id="Trazado_1428" data-name="Trazado 1428" d="M253.316,372.692l58.995,58.234a4.327,4.327,0,0,1,.042,6.121l-42.909,43.469a4.326,4.326,0,0,1-6.122.04l-58.995-58.233a4.329,4.329,0,0,1-.038-6.122L247.2,372.731A4.327,4.327,0,0,1,253.316,372.692Z" transform="translate(-87.858 -265.311)" fill="none" stroke="#2e3433" stroke-miterlimit="10" stroke-width="1"/>
        <path id="Trazado_1429" data-name="Trazado 1429" d="M208.618,437.174a1.917,1.917,0,0,1-.648.07,2.732,2.732,0,0,1-2-1.274,2.432,2.432,0,0,1-.478-1.882,5.809,5.809,0,0,1,2.238-3.119l.573.8a4.914,4.914,0,0,0-1.839,2.473,1.455,1.455,0,0,0,.3,1.14,1.869,1.869,0,0,0,1.274.879.869.869,0,0,0,.656-.222l.712.681a1.78,1.78,0,0,1-.781.455" transform="translate(-88.225 -274.352)" fill="#2e3433"/>
        <path id="Trazado_1430" data-name="Trazado 1430" d="M215.7,443.951a1.9,1.9,0,0,1-.649.07,2.733,2.733,0,0,1-2-1.273,2.43,2.43,0,0,1-.478-1.883,5.816,5.816,0,0,1,2.238-3.12l.572.8a4.914,4.914,0,0,0-1.838,2.474,1.453,1.453,0,0,0,.3,1.139,1.865,1.865,0,0,0,1.273.879.86.86,0,0,0,.657-.222l.712.681a1.781,1.781,0,0,1-.781.455" transform="translate(-89.3 -275.382)" fill="#2e3433"/>
        <path id="Trazado_1431" data-name="Trazado 1431" d="M222.776,450.728a1.926,1.926,0,0,1-.65.07,2.735,2.735,0,0,1-2-1.275,2.424,2.424,0,0,1-.478-1.881,5.816,5.816,0,0,1,2.237-3.12l.573.8a4.916,4.916,0,0,0-1.839,2.472,1.455,1.455,0,0,0,.3,1.14,1.865,1.865,0,0,0,1.272.879.862.862,0,0,0,.658-.222l.711.681a1.766,1.766,0,0,1-.78.455" transform="translate(-90.375 -276.411)" fill="#2e3433"/>
        <path id="Trazado_1432" data-name="Trazado 1432" d="M229.855,457.5a1.919,1.919,0,0,1-.648.07,2.732,2.732,0,0,1-2-1.274,2.426,2.426,0,0,1-.478-1.881,5.81,5.81,0,0,1,2.238-3.121l.572.8a4.914,4.914,0,0,0-1.838,2.474,1.455,1.455,0,0,0,.3,1.14,1.867,1.867,0,0,0,1.275.878.866.866,0,0,0,.656-.221l.712.68a1.772,1.772,0,0,1-.78.455" transform="translate(-91.451 -277.44)" fill="#2e3433"/>
        <path id="Trazado_1433" data-name="Trazado 1433" d="M252.083,479.839a1.9,1.9,0,0,1-.65.07,2.732,2.732,0,0,1-2-1.274,2.428,2.428,0,0,1-.478-1.882,5.816,5.816,0,0,1,2.238-3.12l.572.8a4.914,4.914,0,0,0-1.838,2.473,1.451,1.451,0,0,0,.3,1.14,1.864,1.864,0,0,0,1.273.879.867.867,0,0,0,.656-.222l.712.681a1.769,1.769,0,0,1-.78.455" transform="translate(-94.827 -280.833)" fill="#2e3433"/>
        <path id="Trazado_1434" data-name="Trazado 1434" d="M258.572,486.183a1.878,1.878,0,0,1-.649.07,2.733,2.733,0,0,1-2-1.273,2.425,2.425,0,0,1-.478-1.881,5.815,5.815,0,0,1,2.238-3.121l.573.8a4.914,4.914,0,0,0-1.84,2.473,1.458,1.458,0,0,0,.3,1.141,1.869,1.869,0,0,0,1.273.878.866.866,0,0,0,.657-.222l.711.681a1.76,1.76,0,0,1-.78.454" transform="translate(-95.812 -281.796)" fill="#2e3433"/>
        <path id="Trazado_1435" data-name="Trazado 1435" d="M265.37,493.147a1.9,1.9,0,0,1-.649.07,2.736,2.736,0,0,1-2-1.274,2.428,2.428,0,0,1-.478-1.882,5.82,5.82,0,0,1,2.238-3.12l.573.8a4.909,4.909,0,0,0-1.839,2.473,1.455,1.455,0,0,0,.3,1.14,1.866,1.866,0,0,0,1.273.879.864.864,0,0,0,.657-.223l.711.682a1.763,1.763,0,0,1-.78.455" transform="translate(-96.845 -282.854)" fill="#2e3433"/>
        <path id="Trazado_1436" data-name="Trazado 1436" d="M272.448,500.018a1.9,1.9,0,0,1-.648.07,2.733,2.733,0,0,1-2-1.273,2.428,2.428,0,0,1-.478-1.881,5.812,5.812,0,0,1,2.238-3.12l.572.8a4.915,4.915,0,0,0-1.838,2.473,1.454,1.454,0,0,0,.3,1.14,1.868,1.868,0,0,0,1.273.879.858.858,0,0,0,.656-.222l.712.681a1.763,1.763,0,0,1-.78.454" transform="translate(-97.92 -283.898)" fill="#2e3433"/>
        <path id="Trazado_1437" data-name="Trazado 1437" d="M255.634,421.17l1.209,1.106-1,1.091-1.167-1.066a4.693,4.693,0,0,1-3.347,1.621l-.083-1.862a3.338,3.338,0,0,0,2.219-1.125l-1.955-1.788-.36.305a3.487,3.487,0,0,1-2.011.9,2.72,2.72,0,0,1-2.006-.822,3.1,3.1,0,0,1-.256-4.361l-.973-.889,1-1.092.961.88a4.279,4.279,0,0,1,2.832-1.318l.07,1.81a2.923,2.923,0,0,0-1.734.855l1.879,1.718.44-.351a3.553,3.553,0,0,1,1.949-.916,2.887,2.887,0,0,1,2.164.888c1.317,1.205,1.239,2.918.166,4.417m-7.318-4.947a1.3,1.3,0,0,0,.091,1.809,1.007,1.007,0,0,0,.759.276,1.719,1.719,0,0,0,.954-.436Zm4.986,1.683a1.772,1.772,0,0,0-.982.51l1.858,1.7c.516-.718.519-1.371-.01-1.854a1.163,1.163,0,0,0-.866-.355" transform="translate(-94.369 -271.585)" fill="#d8143b"/>
        <path id="Trazado_1438" data-name="Trazado 1438" d="M240.077,404.365a.671.671,0,0,1-.1.927l-2.355,2.493a.672.672,0,0,1-.92.151l-1.463-1.382a.671.671,0,0,1,.1-.927l2.355-2.493a.671.671,0,0,1,.92-.15Z" transform="translate(-92.727 -270.083)" fill="#f5b015"/>
        <path id="Trazado_1439" data-name="Trazado 1439" d="M257.051,424.305a9.849,9.849,0,0,1-14.32-13.527,1.64,1.64,0,0,0-2.385-2.253,13.13,13.13,0,0,0,19.09,18.032,1.64,1.64,0,1,0-2.385-2.253" transform="translate(-92.981 -270.866)" fill="#d8143b"/>
        <rect id="Rectángulo_323" data-name="Rectángulo 323" width="2.107" height="2.029" transform="translate(164.238 137.387) rotate(-46.631)" fill="#f5b015"/>
        <path id="Trazado_1440" data-name="Trazado 1440" d="M260.886,409.656a1.015,1.015,0,1,0-.041-1.434,1.014,1.014,0,0,0,.041,1.434" transform="translate(-96.596 -270.849)" fill="#f5b015"/>
        <path id="Trazado_1441" data-name="Trazado 1441" d="M262.529,407.917a1.015,1.015,0,1,0-.041-1.434,1.014,1.014,0,0,0,.041,1.434" transform="translate(-96.845 -270.585)" fill="#f5b015"/>
        <rect id="Rectángulo_324" data-name="Rectángulo 324" width="2.107" height="2.029" transform="translate(158.587 135.111) rotate(-83.596)" fill="#f5b015"/>
        <path id="Trazado_1442" data-name="Trazado 1442" d="M255.113,406.551a1.015,1.015,0,1,0-.895-1.121,1.014,1.014,0,0,0,.895,1.121" transform="translate(-95.63 -270.336)" fill="#f5b015"/>
        <path id="Trazado_1443" data-name="Trazado 1443" d="M255.38,404.174a1.015,1.015,0,1,0-.895-1.121,1.014,1.014,0,0,0,.895,1.121" transform="translate(-95.671 -269.975)" fill="#f5b015"/>
        <rect id="Rectángulo_325" data-name="Rectángulo 325" width="2.029" height="2.107" transform="translate(151.858 134.052) rotate(-17.26)" fill="#f5b015"/>
        <path id="Trazado_1444" data-name="Trazado 1444" d="M248.274,407.148a1.015,1.015,0,1,0-1.27-.668,1.014,1.014,0,0,0,1.27.668" transform="translate(-94.529 -270.433)" fill="#f5b015"/>
        <path id="Trazado_1445" data-name="Trazado 1445" d="M247.565,404.863a1.014,1.014,0,1,0-1.27-.668,1.013,1.013,0,0,0,1.27.668" transform="translate(-94.421 -270.086)" fill="#f5b015"/>
        <rect id="Rectángulo_326" data-name="Rectángulo 326" width="2.107" height="2.03" transform="translate(167.653 142.091) rotate(-15.239)" fill="#f5b015"/>
        <path id="Trazado_1446" data-name="Trazado 1446" d="M264.082,415.074a1.014,1.014,0,1,0,.712-1.246,1.016,1.016,0,0,0-.712,1.246" transform="translate(-97.124 -271.744)" fill="#f5b015"/>
        <path id="Trazado_1447" data-name="Trazado 1447" d="M266.39,414.445a1.014,1.014,0,1,0,.712-1.246,1.016,1.016,0,0,0-.712,1.246" transform="translate(-97.475 -271.648)" fill="#f5b015"/>
        <rect id="Rectángulo_327" data-name="Rectángulo 327" width="2.029" height="2.107" transform="matrix(0.219, -0.976, 0.976, 0.219, 167.361, 150.033)" fill="#f5b015"/>
        <path id="Trazado_1448" data-name="Trazado 1448" d="M263.674,421.638a1.015,1.015,0,1,0,1.212-.768,1.014,1.014,0,0,0-1.212.768" transform="translate(-97.064 -272.815)" fill="#f5b015"/>
        <path id="Trazado_1449" data-name="Trazado 1449" d="M266.009,422.161a1.015,1.015,0,1,0,1.212-.768,1.014,1.014,0,0,0-1.212.768" transform="translate(-97.418 -272.894)" fill="#f5b015"/>
        <path id="Trazado_1450" data-name="Trazado 1450" d="M216.019,304.48l-.036,19.579c1.458,2.165,9.425,30.282,9.425,30.282s10.467-26.456,13.549-30.3l.053-28.142a207.14,207.14,0,0,1-22.99,8.585" transform="translate(-89.824 -253.836)" fill="#fff"/>
        <path id="Trazado_1451" data-name="Trazado 1451" d="M216.019,304.48l-.036,19.579c1.458,2.165,9.425,30.282,9.425,30.282s10.467-26.456,13.549-30.3l.053-28.142A207.14,207.14,0,0,1,216.019,304.48Z" transform="translate(-89.824 -253.836)" fill="none" stroke="#2e3433" stroke-linecap="round" stroke-linejoin="round" stroke-width="1"/>
        <path id="Trazado_1452" data-name="Trazado 1452" d="M220.463,316.585c-1.429-1.4-2.8-5.977-4.371-6.5l-.066-5.608a207.071,207.071,0,0,0,22.989-8.585l-.03,15.957c-1.09.857-2.924,5.637-5.168,7.27-3.8,2.761-8.771,1.951-13.354-2.537" transform="translate(-89.83 -253.836)" fill="#2e3433"/>
        <path id="Trazado_1453" data-name="Trazado 1453" d="M210.307,283.488c-1.325-9.379,1.074-14.208,10.3-17.315,9.864-3.321,18.564.967,21.888,10.831a23.534,23.534,0,0,1,.439,11.186h.016s-.494,8.36-.99,11.1a7.818,7.818,0,0,1-3.145,4.649L231.5,309.5a6.228,6.228,0,0,1-3.78,1.27l-2.587,0a6.23,6.23,0,0,1-3.848-1.341l-7.014-5.537a7.572,7.572,0,0,1-3.029-4.582c-.607-3.914-.549-13.039-.94-15.815" transform="translate(-88.91 -249.153)" fill="#fff"/>
        <path id="Trazado_1454" data-name="Trazado 1454" d="M210.307,283.488c-1.325-9.379,1.074-14.208,10.3-17.315,9.864-3.321,18.564.967,21.888,10.831a23.534,23.534,0,0,1,.439,11.186h.016s-.494,8.36-.99,11.1a7.818,7.818,0,0,1-3.145,4.649L231.5,309.5a6.228,6.228,0,0,1-3.78,1.27l-2.587,0a6.23,6.23,0,0,1-3.848-1.341l-7.014-5.537a7.572,7.572,0,0,1-3.029-4.582C210.64,295.389,210.7,286.264,210.307,283.488Z" transform="translate(-88.91 -249.153)" fill="none" stroke="#2e3433" stroke-linecap="round" stroke-linejoin="round" stroke-width="1"/>
        <path id="Trazado_1455" data-name="Trazado 1455" d="M236.27,268.236c-12.937,2.6-22.18-.124-23.2-.043s-1.572,6.223-1.8,8.991a10.3,10.3,0,0,1-1.63,4.734s.749,5.815-.461,5.224a7.6,7.6,0,0,1-3.314-4.864c-.669-2.526-.9-13.736.707-17.253s11.294-9.488,12.969-12.38,4.539-5.046,4.9-3.444a10.143,10.143,0,0,1,.154,3.152s2.319-2.342,4.165-.056,11.463,5.49,13.771,8.63,2.79,11.239,2.718,13.957-.894,5.324-1.449,9.342-2.192,1.9-2.577.467a37.156,37.156,0,0,1,.286-4.545s-2.8-7.644-3.048-9.065c-.41-2.322.018-3.293-2.2-2.847" transform="translate(-88.211 -246.661)" fill="#2e3433"/>
        <path id="Trazado_1456" data-name="Trazado 1456" d="M167.024,391.793c6.324-21.358,11.926-40.592,11.982-40.785l-1.147-.334c-.055.192-5.658,19.424-11.982,40.78Z" transform="translate(-82.213 -262.157)" fill="#2e3433"/>
        <path id="Trazado_1457" data-name="Trazado 1457" d="M337.58,381.512c-11.556,11.587-13.758,28.127-4.919,36.942s25.375,6.57,36.93-5.017,13.757-28.127,4.917-36.942-25.373-6.569-36.928,5.017" transform="translate(-106.723 -265.261)" fill="#2e3433"/>
        <path id="Trazado_1458" data-name="Trazado 1458" d="M357.682,378.281a2.785,2.785,0,0,0-.231-.291c-.115-.157-.243-.325-.371-.47-.371-.458-.762-.879-1.164-1.289a16.853,16.853,0,0,0-2.653-2.158c-.319-.215-.65-.417-.98-.607s-.682-.38-1.034-.557c-.279-.135-.572-.281-.861-.4-.182-.082-.363-.165-.556-.234-9.162-3.788-22.249-1.835-31.544,6.116-1.884,1.049-4.711,2.781-8.145,4.975-5.838,3.722-13.471,8.782-21.395,14.107-8.914,6-18.194,12.34-25.7,17.486-7.432,5.1-13.114,9.036-15.022,10.352-3.924.12-9.215,2.493-12.487,2.8-4.25.4-5.657,1.427-6.97,3.6s-3.053,5.592-3.053,5.592c-8.656,10.624,2.313,10.59,2.313,10.59-2.047,6.713,6.115,5.9,6.115,5.9.831,7.2,7.212,3.45,7.212,3.45-.785,7.428,16.3-.678,20.915-11.341a11.375,11.375,0,0,0,.746-7.312l.061.051a16.445,16.445,0,0,1,1.613-.69c.483-.184,1.012-.358,1.566-.523,5.548-1.647,14.238-2.5,24.095-3.489,4.554-.456,9.355-.939,14.217-1.543,3.882-.5,7.8-1.051,11.654-1.743.035,0,.081-.017.129-.02l.022,0c3.777-.687,7.5-1.489,11.057-2.458,9.356-2.548,17.618-6.249,23.041-11.908a24.975,24.975,0,0,0,2.666-3.331h.013c11.886-12.642,10.619-26.76,4.733-34.646" transform="translate(-90.766 -265.154)" fill="#fff"/>
        <path id="Trazado_1459" data-name="Trazado 1459" d="M357.682,378.281a2.785,2.785,0,0,0-.231-.291c-.115-.157-.243-.325-.371-.47-.371-.458-.762-.879-1.164-1.289a16.853,16.853,0,0,0-2.653-2.158c-.319-.215-.65-.417-.98-.607s-.682-.38-1.034-.557c-.279-.135-.572-.281-.861-.4-.182-.082-.363-.165-.556-.234-9.162-3.788-22.249-1.835-31.544,6.116-1.884,1.049-4.711,2.781-8.145,4.975-5.838,3.722-13.471,8.782-21.395,14.107-8.914,6-18.194,12.34-25.7,17.486-7.432,5.1-13.114,9.036-15.022,10.352-3.924.12-9.215,2.493-12.487,2.8-4.25.4-5.657,1.427-6.97,3.6s-3.053,5.592-3.053,5.592c-8.656,10.624,2.313,10.59,2.313,10.59-2.047,6.713,6.115,5.9,6.115,5.9.831,7.2,7.212,3.45,7.212,3.45-.785,7.428,16.3-.678,20.915-11.341a11.375,11.375,0,0,0,.746-7.312l.061.051a16.445,16.445,0,0,1,1.613-.69c.483-.184,1.012-.358,1.566-.523,5.548-1.647,14.238-2.5,24.095-3.489,4.554-.456,9.355-.939,14.217-1.543,3.882-.5,7.8-1.051,11.654-1.743.035,0,.081-.017.129-.02l.022,0c3.777-.687,7.5-1.489,11.057-2.458,9.356-2.548,17.618-6.249,23.041-11.908a24.975,24.975,0,0,0,2.666-3.331h.013C364.835,400.285,363.568,386.167,357.682,378.281Z" transform="translate(-90.766 -265.154)" fill="none" stroke="#2e3433" stroke-linecap="round" stroke-linejoin="round" stroke-width="1"/>
        <path id="Trazado_1460" data-name="Trazado 1460" d="M228.838,460.473a21.56,21.56,0,0,1,5.983-7.228,18.892,18.892,0,0,1-2.593,3.943,19.158,19.158,0,0,1-3.39,3.286" transform="translate(-91.776 -277.736)" fill="#d17f80"/>
        <path id="Trazado_1461" data-name="Trazado 1461" d="M236.073,467a45.1,45.1,0,0,1,3.793-5.035c1.362-1.59,2.741-3.135,4.259-4.632a15.848,15.848,0,0,1-1.552,2.781,30.2,30.2,0,0,1-1.919,2.519A27.6,27.6,0,0,1,236.073,467" transform="translate(-92.875 -278.357)" fill="#d17f80"/>
        <path id="Trazado_1462" data-name="Trazado 1462" d="M244.556,471.858c1.081-1.04,2.157-1.934,3.205-2.886.534-.461,1.05-.942,1.578-1.42s1.042-.974,1.638-1.447a8.709,8.709,0,0,1-2.53,3.638,10.521,10.521,0,0,1-1.812,1.3,7.094,7.094,0,0,1-2.08.818" transform="translate(-94.164 -279.689)" fill="#d17f80"/>
        <path id="Trazado_1463" data-name="Trazado 1463" d="M230.067,294.1l.327-1.3c-1.549-.392-3.339-1.193-3.535-1.76-.012-.031-.03-.081.066-.205,2.962-3.871,1.873-8.926,1.823-9.138l-1.3.291c.01.045.992,4.668-1.582,8.034a1.522,1.522,0,0,0-.268,1.458c.541,1.55,3.819,2.451,4.47,2.616" transform="translate(-91.272 -251.68)" fill="#2e3433"/>
        <path id="Trazado_1464" data-name="Trazado 1464" d="M240.488,282.621l.727-1.119c-4.983-3.236-8.617-.119-8.652-.087l.882,1-.441-.5.439.5c.118-.1,2.936-2.464,7.045.2" transform="translate(-92.342 -251.427)" fill="#2e3433"/>
        <path id="Trazado_1465" data-name="Trazado 1465" d="M220.819,300.815s6.426-3.706,15.694-.357c0,0-6.183,12.735-15.694.357" transform="translate(-90.558 -254.316)" fill="#2e3433"/>
        <path id="Trazado_1466" data-name="Trazado 1466" d="M220.819,300.815s6.426-3.706,15.694-.357C236.513,300.458,230.331,313.193,220.819,300.815Z" transform="translate(-90.558 -254.316)" fill="none" stroke="#2e3433" stroke-linecap="round" stroke-linejoin="round" stroke-width="1"/>
        <path id="Trazado_1467" data-name="Trazado 1467" d="M234.777,304.157c-2.269,2.455-6.246,4.755-11.394-.218,7.868-1.157,10.856.178,11.394.218" transform="translate(-90.948 -254.987)" fill="#dbe0e6"/>
        <path id="Trazado_1468" data-name="Trazado 1468" d="M221.881,302.1c-.35-.4-.7-.817-1.061-1.285,0,0,6.425-3.706,15.693-.357,0,0-.2.405-.572,1-1.072-.252-9.312-1.177-14.059.645" transform="translate(-90.559 -254.316)" fill="#fff"/>
        <path id="Trazado_1469" data-name="Trazado 1469" d="M235.8,285.579a1.7,1.7,0,0,1-.074-.247,1.659,1.659,0,1,1,3.26-.62,1.637,1.637,0,0,1-.165,1.076,11.15,11.15,0,0,0-3.021-.209" transform="translate(-92.819 -251.933)" fill="#2e3433"/>
        <path id="Trazado_1470" data-name="Trazado 1470" d="M216.891,283.231c.1-.12,2.538-2.876,6.994-.85l.555-1.217c-5.414-2.455-8.539,1.168-8.57,1.2l1.023.86-.511-.431Z" transform="translate(-89.807 -251.469)" fill="#2e3433"/>
        <path id="Trazado_1471" data-name="Trazado 1471" d="M219.7,286.079a1.511,1.511,0,0,1-.109-.233,1.659,1.659,0,1,1,3.128-.008,11.1,11.1,0,0,0-3.018.241" transform="translate(-90.357 -251.975)" fill="#2e3433"/>
        <path id="Trazado_1472" data-name="Trazado 1472" d="M295.661,392.68l1.1-.41-12.086-32.121-1.1.41Z" transform="translate(-100.09 -263.596)" fill="#2e3433"/>
        <path id="Trazado_1473" data-name="Trazado 1473" d="M147.715,402.322c-15.254,24.858-43.953,27.117-53.078,1.089-2.788-7.95-3.174-65.238-2.369-81.526l.516-.161c-2.785.506-7.721-2.324-9.176-2.794a19.912,19.912,0,0,1-4.933-6.538c-1.845-4.035-2.45-8.568.031-10.372s3.549-5.12,6.882-5.581a15.419,15.419,0,0,0,5.978-2.332c-2.153-3.416,5.391-4.4,7.419.318a.607.607,0,0,1,.037.128c1.892,3.068,6.188,20.908,5.877,23.4,0,0,31.128,46.731,36.653,74.818" transform="translate(-68.723 -253.124)" fill="#fff"/>
        <path id="Trazado_1474" data-name="Trazado 1474" d="M147.715,402.322c-15.254,24.858-43.953,27.117-53.078,1.089-2.788-7.95-3.174-65.238-2.369-81.526l.516-.161c-2.785.506-7.721-2.324-9.176-2.794a19.912,19.912,0,0,1-4.933-6.538c-1.845-4.035-2.45-8.568.031-10.372s3.549-5.12,6.882-5.581a15.419,15.419,0,0,0,5.978-2.332c-2.153-3.416,5.391-4.4,7.419.318a.607.607,0,0,1,.037.128c1.892,3.068,6.188,20.908,5.877,23.4,0,0,31.128,46.731,36.653,74.818" transform="translate(-68.723 -253.124)" fill="none" stroke="#2e3433" stroke-linecap="round" stroke-linejoin="round" stroke-width="1"/>
      </g>
    </g>
    <g id="Grupo_412" data-name="Grupo 412">
      <g id="Grupo_411" data-name="Grupo 411" clip-path="url(#clip-path-5)">
        <rect id="Rectángulo_329" data-name="Rectángulo 329" width="294.712" height="2.061" transform="translate(32.472 453.847)" fill="#131313"/>
        <path id="Trazado_1475" data-name="Trazado 1475" d="M122.572,283.431a54.308,54.308,0,0,1-29.941,26.505L80.844,297.343a55.342,55.342,0,0,0,22.341-15.407c.408-.2,12.889-7.022,19.387,1.5" transform="translate(-12.279 -42.401)" fill="#dbe0e6"/>
        <path id="Trazado_1476" data-name="Trazado 1476" d="M122.572,283.431a54.308,54.308,0,0,1-29.941,26.505L80.844,297.343a55.342,55.342,0,0,0,22.341-15.407C103.593,281.732,116.074,274.914,122.572,283.431Z" transform="translate(-12.279 -42.401)" fill="none" stroke="#2e3433" stroke-miterlimit="10" stroke-width="1"/>
        <path id="Trazado_1477" data-name="Trazado 1477" d="M105.416,282.741a62.31,62.31,0,0,1-22.084,15.521c3.337,3.566,6.612,7.46,9.948,11.027a52.228,52.228,0,0,0,28.1-24.64c-2.207-2.5-5.6-2.707-9.427-2.5h0c-3.939,1.218-5.431.029-6.531.589m.456.215c1.039-.479,2.557.5,6.3-.756,3.095.666,6.514.176,8.544,2.267a51.668,51.668,0,0,1-27.215,23.759c-1.435-1.533-2.867-3.046-4.3-4.581-1.611-1.724-3.228-3.484-4.839-5.206a64.229,64.229,0,0,0,21.508-15.484" transform="translate(-12.657 -42.846)" fill="#fff"/>
        <path id="Trazado_1478" data-name="Trazado 1478" d="M102.917,296.675c-1.631-2.508-1.5-5.5.312-7.121a4.6,4.6,0,0,1,3.883-1.013,7.078,7.078,0,0,1,4.083,2.331,7.706,7.706,0,0,1,.722.944c1.631,2.508,1.5,5.5-.311,7.118a4.592,4.592,0,0,1-3.883,1.014,7.073,7.073,0,0,1-4.083-2.33,7.781,7.781,0,0,1-.723-.944" transform="translate(-15.459 -43.815)" fill="#fff"/>
        <path id="Trazado_1479" data-name="Trazado 1479" d="M107.5,291.582l.261.641a2.6,2.6,0,0,0-1.326.623,1.025,1.025,0,0,0-.228,1.484c.357.4.861.393,1.593.131,1-.371,1.757-.445,2.322.187a1.6,1.6,0,0,1-.053,2.149l.656.734-.451.4-.629-.7a2.594,2.594,0,0,1-1.172.589l-.246-.642a2.339,2.339,0,0,0,1.135-.57.888.888,0,0,0,.213-1.314c-.337-.377-.774-.327-1.64-.023-1.021.363-1.736.321-2.314-.325a1.693,1.693,0,0,1,.045-2.26l-.675-.756.458-.409.656.734a2.827,2.827,0,0,1,1.4-.673" transform="translate(-15.947 -44.279)" fill="#96999e"/>
        <path id="Trazado_1480" data-name="Trazado 1480" d="M117.925,284.677a1.851,1.851,0,1,1-2.614-.148,1.851,1.851,0,0,1,2.614.148" transform="translate(-17.421 -43.145)" fill="#fff"/>
        <path id="Trazado_1481" data-name="Trazado 1481" d="M99.74,300.917a1.85,1.85,0,1,1-2.612-.148,1.851,1.851,0,0,1,2.612.148" transform="translate(-14.659 -45.612)" fill="#e6e6e6"/>
        <path id="Trazado_1482" data-name="Trazado 1482" d="M96.694,309.517a1.85,1.85,0,1,1-2.613-.148,1.85,1.85,0,0,1,2.613.148" transform="translate(-14.196 -46.918)" fill="#e6e6e6"/>
        <path id="Trazado_1483" data-name="Trazado 1483" d="M126.344,283.074a1.85,1.85,0,1,1-2.613-.148,1.852,1.852,0,0,1,2.613.148" transform="translate(-18.699 -42.902)" fill="#fff"/>
        <path id="Trazado_1484" data-name="Trazado 1484" d="M88.316,300.073a2.19,2.19,0,0,1-.175,3.091c-.9.8-2.124.4-2.929-.5s-1.136-1.695.026-2.112c1.137-.41,2.274-1.382,3.078-.479" transform="translate(-12.832 -45.521)" fill="#e6e6e6"/>
        <path id="Trazado_1485" data-name="Trazado 1485" d="M124.96,281.185c-.16-.014-6.252-.318-9.413,1.947a5.286,5.286,0,0,0-4.822-2.577c3.753-1.381,9.978-2.7,14.236.629" transform="translate(-16.818 -42.391)" fill="#2e3433"/>
        <path id="Trazado_1486" data-name="Trazado 1486" d="M95.7,308.635c-.231.4-6.936,12.936-17.038,9.372a54.309,54.309,0,0,1,10.523-38.577q8.381,2.04,16.761,4.078A55.318,55.318,0,0,0,95.7,308.635" transform="translate(-11.897 -42.442)" fill="#dbe0e6"/>
        <path id="Trazado_1487" data-name="Trazado 1487" d="M95.7,308.635c-.231.4-6.936,12.936-17.038,9.372a54.309,54.309,0,0,1,10.523-38.577q8.381,2.04,16.761,4.078A55.318,55.318,0,0,0,95.7,308.635Z" transform="translate(-11.897 -42.442)" fill="none" stroke="#2e3433" stroke-miterlimit="10" stroke-width="1"/>
        <path id="Trazado_1488" data-name="Trazado 1488" d="M104.1,284.454c-4.746-1.154-9.618-2.618-14.364-3.773a52.235,52.235,0,0,0-10,36.007c3.214.879,6.171-.806,9.255-3.077h0c2.628-3.178,4.528-3,5.141-4.072a62.333,62.333,0,0,1,9.97-25.085m-.96.417a64.23,64.23,0,0,0-9.509,24.737c-.606.969-2.415.98-4.86,4.086h0c-2.954,1.138-5.544,3.422-8.39,2.784a51.673,51.673,0,0,1,9.749-34.787c2.041.5,4.068.977,6.109,1.475,2.293.559,4.608,1.147,6.9,1.7" transform="translate(-12.073 -42.632)" fill="#fff"/>
        <path id="Trazado_1489" data-name="Trazado 1489" d="M84.018,304.585a4.43,4.43,0,0,1-.471-3.338,4.6,4.6,0,0,1,2.693-2.976,7.073,7.073,0,0,1,4.693-.288,6.884,6.884,0,0,1,4.29,3.181,4.437,4.437,0,0,1,.472,3.341A4.6,4.6,0,0,1,93,307.479a7.074,7.074,0,0,1-4.693.288,6.882,6.882,0,0,1-4.291-3.181" transform="translate(-12.668 -45.22)" fill="#fff"/>
        <path id="Trazado_1490" data-name="Trazado 1490" d="M88.413,301.5a2.359,2.359,0,0,0-.639,1.1c-.194.726.165,1.114.542,1.214.489.131.828-.151,1.387-.879.654-.863,1.276-1.22,2.113-.995a1.693,1.693,0,0,1,1.2,1.914l.979.263-.159.594-.952-.256a2.827,2.827,0,0,1-.8,1.329l-.571-.394a2.609,2.609,0,0,0,.768-1.247,1.024,1.024,0,0,0-.622-1.367c-.518-.139-.936.142-1.405.763-.634.858-1.226,1.335-2.044,1.115a1.6,1.6,0,0,1-1.134-1.827l-.952-.254.157-.584.913.244a2.576,2.576,0,0,1,.657-1.133Z" transform="translate(-13.082 -45.734)" fill="#96999e"/>
        <path id="Trazado_1491" data-name="Trazado 1491" d="M90.074,316.137a1.851,1.851,0,1,1-1.309-2.268,1.85,1.85,0,0,1,1.309,2.268" transform="translate(-13.129 -47.663)" fill="#e6e6e6"/>
        <path id="Trazado_1492" data-name="Trazado 1492" d="M96.389,292.588a1.851,1.851,0,1,1-1.309-2.266,1.85,1.85,0,0,1,1.309,2.266" transform="translate(-14.088 -44.087)" fill="#fff"/>
        <path id="Trazado_1493" data-name="Trazado 1493" d="M94.225,283.725a1.851,1.851,0,1,1-1.308-2.267,1.85,1.85,0,0,1,1.308,2.267" transform="translate(-13.759 -42.741)" fill="#fff"/>
        <path id="Trazado_1494" data-name="Trazado 1494" d="M83.91,322.091a1.851,1.851,0,1,1-1.309-2.267,1.851,1.851,0,0,1,1.309,2.267" transform="translate(-12.192 -48.568)" fill="#e6e6e6"/>
        <path id="Trazado_1495" data-name="Trazado 1495" d="M106.343,286.29c-.727.966-1.145,2.4-2.313,2.087a2.191,2.191,0,0,1-1.548-2.681c.314-1.168,1.557-1.5,2.725-1.187s1.879.8,1.136,1.781" transform="translate(-15.555 -43.197)" fill="#fff"/>
        <path id="Trazado_1496" data-name="Trazado 1496" d="M94.544,317.155c-2.384,3.211-6.871,7.722-12.255,7.274.142-.078,5.406-3.16,6.809-6.787a5.288,5.288,0,0,0,5.446-.487" transform="translate(-12.499 -48.172)" fill="#2e3433"/>
        <path id="Trazado_1497" data-name="Trazado 1497" d="M76.832,303.534c-3.992,1.91-.471,5.5-.471,5.5a3.068,3.068,0,0,0-.961,4.816,2.468,2.468,0,0,0-.6,2.883c.213.657,3.176,1.989,4.865-.267S79.193,313,79.193,313c2.208-.427,3.234-2.555,3.017-3.541C82,308.488,80,308.1,79.921,308.082a3.634,3.634,0,0,0,1.986-2.5c.4-1.8-1.692-2.728-1.8-2.775A3.259,3.259,0,0,0,83.541,300c.574-1.533-1.725-4.24-5.67-1.643s-1.038,5.18-1.038,5.18" transform="translate(-11.326 -45.152)" fill="#fff"/>
        <path id="Trazado_1498" data-name="Trazado 1498" d="M76.832,303.534c-3.992,1.91-.471,5.5-.471,5.5a3.068,3.068,0,0,0-.961,4.816,2.468,2.468,0,0,0-.6,2.883c.213.657,3.176,1.989,4.865-.267S79.193,313,79.193,313c2.208-.427,3.234-2.555,3.017-3.541C82,308.488,80,308.1,79.921,308.082a3.634,3.634,0,0,0,1.986-2.5c.4-1.8-1.692-2.728-1.8-2.775A3.259,3.259,0,0,0,83.541,300c.574-1.533-1.725-4.24-5.67-1.643S76.832,303.534,76.832,303.534Z" transform="translate(-11.326 -45.152)" fill="none" stroke="#2e3433" stroke-linecap="round" stroke-linejoin="round" stroke-width="1"/>
      </g>
    </g>
  </g>
</svg>
