<svg xmlns="http://www.w3.org/2000/svg" xmlns:xlink="http://www.w3.org/1999/xlink" width="409.207" height="364.137" viewBox="0 0 409.207 364.137">
  <defs>
    <clipPath id="clip-path">
      <rect id="Rectángulo_375" data-name="Rectángulo 375" width="405.207" height="357.137" transform="translate(57 89)" fill="none"/>
    </clipPath>
    <clipPath id="clip-path-2">
      <path id="Trazado_1793" data-name="Trazado 1793" d="M344.666,126.45a17.1,17.1,0,0,0-9.61,22.158,102.562,102.562,0,0,1-190.78,75.36,17.078,17.078,0,0,0-31.767,12.548c27.7,70.117,107.268,104.626,177.385,76.93s104.626-107.269,76.93-177.386a17.078,17.078,0,0,0-22.158-9.61" transform="translate(-111.314 -125.256)" fill="none"/>
    </clipPath>
    <clipPath id="clip-path-3">
      <rect id="Rectángulo_376" data-name="Rectángulo 376" width="409.207" height="358.137" transform="translate(53 82)" fill="none"/>
    </clipPath>
    <clipPath id="clip-path-4">
      <rect id="Rectángulo_377" data-name="Rectángulo 377" width="245.226" height="250.033" fill="none"/>
    </clipPath>
    <clipPath id="clip-path-5">
      <rect id="Rectángulo_381" data-name="Rectángulo 381" width="405.207" height="355.137" transform="translate(57 89)" fill="none"/>
    </clipPath>
    <clipPath id="clip-path-6">
      <rect id="Rectángulo_382" data-name="Rectángulo 382" width="31.304" height="40.8" transform="matrix(0.217, -0.976, 0.976, 0.217, 0, 30.559)" fill="none"/>
    </clipPath>
    <clipPath id="clip-path-7">
      <rect id="Rectángulo_383" data-name="Rectángulo 383" width="397.207" height="354.137" transform="translate(65 84)" fill="none"/>
    </clipPath>
    <clipPath id="clip-path-8">
      <path id="Trazado_1875" data-name="Trazado 1875" d="M356.2,346.15a7.8,7.8,0,0,0,6.114,9.184l55.353,11.1,3.069-15.3-55.353-11.1a7.794,7.794,0,0,0-9.183,6.114" transform="translate(-356.046 -339.882)" fill="none"/>
    </clipPath>
    <clipPath id="clip-path-9">
      <rect id="Rectángulo_385" data-name="Rectángulo 385" width="404.207" height="345.137" transform="translate(58 92)" fill="none"/>
    </clipPath>
  </defs>
  <g id="Grupo_693" data-name="Grupo 693" transform="translate(-53 -82)">
    <g id="Grupo_448" data-name="Grupo 448">
      <g id="Grupo_447" data-name="Grupo 447" clip-path="url(#clip-path)">
        <path id="Trazado_1792" data-name="Trazado 1792" d="M396.551,208.449c-45.094-19.228-71.4,30.751-157.061,9.107-91.818-23.2-120.875,111.668-42.567,175.385,77.942,63.419,141.73,52.937,199.445-11.489,43.4-48.445,67.194-144.428.183-173" transform="translate(-23.63 -31.783)" fill="#fff"/>
      </g>
    </g>
    <g id="Grupo_450" data-name="Grupo 450" transform="translate(93.967 105.736)">
      <g id="Grupo_449" data-name="Grupo 449" clip-path="url(#clip-path-2)">
        <line id="Línea_221" data-name="Línea 221" x1="309.344" y1="134.157" transform="translate(-92.624 113.145)" fill="none" stroke="#f3ad13" stroke-miterlimit="10" stroke-width="8"/>
        <line id="Línea_222" data-name="Línea 222" x1="309.344" y1="134.157" transform="translate(-87.698 101.788)" fill="none" stroke="#f3ad13" stroke-miterlimit="10" stroke-width="8"/>
        <line id="Línea_223" data-name="Línea 223" x1="309.344" y1="134.157" transform="translate(-82.773 90.431)" fill="none" stroke="#f3ad13" stroke-miterlimit="10" stroke-width="8"/>
        <line id="Línea_224" data-name="Línea 224" x1="309.344" y1="134.157" transform="translate(-77.848 79.074)" fill="none" stroke="#f3ad13" stroke-miterlimit="10" stroke-width="8"/>
        <line id="Línea_225" data-name="Línea 225" x1="309.344" y1="134.157" transform="translate(-72.922 67.717)" fill="none" stroke="#f3ad13" stroke-miterlimit="10" stroke-width="8"/>
        <line id="Línea_226" data-name="Línea 226" x1="309.344" y1="134.157" transform="translate(-67.997 56.36)" fill="none" stroke="#f3ad13" stroke-miterlimit="10" stroke-width="8"/>
        <line id="Línea_227" data-name="Línea 227" x1="309.344" y1="134.157" transform="translate(-63.072 45.003)" fill="none" stroke="#f3ad13" stroke-miterlimit="10" stroke-width="8"/>
        <line id="Línea_228" data-name="Línea 228" x1="309.344" y1="134.157" transform="translate(-58.146 33.646)" fill="none" stroke="#f3ad13" stroke-miterlimit="10" stroke-width="8"/>
        <line id="Línea_229" data-name="Línea 229" x1="309.344" y1="134.157" transform="translate(-53.221 22.289)" fill="none" stroke="#f3ad13" stroke-miterlimit="10" stroke-width="8"/>
        <line id="Línea_230" data-name="Línea 230" x1="309.344" y1="134.157" transform="translate(-48.295 10.932)" fill="none" stroke="#f3ad13" stroke-miterlimit="10" stroke-width="8"/>
        <line id="Línea_231" data-name="Línea 231" x1="309.344" y1="134.157" transform="translate(-43.37 -0.425)" fill="none" stroke="#f3ad13" stroke-miterlimit="10" stroke-width="8"/>
        <line id="Línea_232" data-name="Línea 232" x1="309.344" y1="134.157" transform="translate(-38.445 -11.782)" fill="none" stroke="#f3ad13" stroke-miterlimit="10" stroke-width="8"/>
        <line id="Línea_233" data-name="Línea 233" x1="309.344" y1="134.157" transform="translate(-33.519 -23.139)" fill="none" stroke="#f3ad13" stroke-miterlimit="10" stroke-width="8"/>
        <line id="Línea_234" data-name="Línea 234" x1="309.344" y1="134.157" transform="translate(-28.594 -34.496)" fill="none" stroke="#f3ad13" stroke-miterlimit="10" stroke-width="8"/>
        <line id="Línea_235" data-name="Línea 235" x1="309.344" y1="134.157" transform="translate(-23.669 -45.853)" fill="none" stroke="#f3ad13" stroke-miterlimit="10" stroke-width="8"/>
        <line id="Línea_236" data-name="Línea 236" x1="309.344" y1="134.157" transform="translate(-18.743 -57.21)" fill="none" stroke="#f3ad13" stroke-miterlimit="10" stroke-width="8"/>
        <line id="Línea_237" data-name="Línea 237" x1="309.344" y1="134.157" transform="translate(-13.818 -68.567)" fill="none" stroke="#f3ad13" stroke-miterlimit="10" stroke-width="8"/>
        <line id="Línea_238" data-name="Línea 238" x1="309.344" y1="134.157" transform="translate(-8.893 -79.924)" fill="none" stroke="#f3ad13" stroke-miterlimit="10" stroke-width="8"/>
        <line id="Línea_239" data-name="Línea 239" x1="309.344" y1="134.157" transform="translate(-3.967 -91.281)" fill="none" stroke="#f3ad13" stroke-miterlimit="10" stroke-width="8"/>
        <line id="Línea_240" data-name="Línea 240" x1="309.344" y1="134.157" transform="translate(0.958 -102.638)" fill="none" stroke="#f3ad13" stroke-miterlimit="10" stroke-width="8"/>
      </g>
    </g>
    <g id="Grupo_452" data-name="Grupo 452">
      <g id="Grupo_451" data-name="Grupo 451" clip-path="url(#clip-path-3)">
        <path id="Trazado_1794" data-name="Trazado 1794" d="M418.4,462.253a9.745,9.745,0,0,0-1.281.457c.454-.264.9-.531,1.338-.794-.008.077-.039.193-.057.338" transform="translate(-65.004 -71.984)" fill="#96999e"/>
        <path id="Trazado_1795" data-name="Trazado 1795" d="M398.065,405.607c2.683,3.49,4.672,12.008,10.59,22.444a12,12,0,0,0,4.2,4.632c-5.5-2.266-12.753-2.245-15.362-2.1s-8.464-1.024-11.518-1.682c3.745,1.438,4.056,5.842,14.128,10.163,5.4,2.31,9.666,1.885,12.689.755l-.736.586a93.54,93.54,0,0,0-10.667,5.615c-7.072,4.307-15.154,2.631-15.154,2.631,7.7,2.757,1.978,1.961,11.984,3.255,8.526,1.107,14.776-11.338,14.776-11.338.208-.145.371-.269.494-.361-.339,2.153-1.162,8.006-.565,12.507.734,5.626,6.917,4.8,5.025-1.832s-3.736-11.444-3.736-11.444l-.376-.053a13.966,13.966,0,0,0,3.426-2.234,133.409,133.409,0,0,0,13.592-10.659c-.99,3.41,4.331,14.063,6.869,16.006,19.363,14.837,30.393,4.995,30.393,4.995.6-.626-2.66-.377-5.012-.418s-7.155-4.57-7.155-4.57c-7.014-10.5-10.506-10.757-10.506-10.757s-6.628-3.421-10.693-4.314a5.839,5.839,0,0,1-2.993-1.737c2.343-2.1,4.646-4.3,6.912-6.548.809,1.707,2.25,6.463,4.911,7.372,14.857,5.029,24.4-7.514,24.4-7.514s-4.07,2.813-11.31,1.573c-5.961-1.01-13.367-2.724-16.79-2.636,2.538-2.561,5.026-5.206,7.445-7.884.983,1.172,6.278,6.958,13.99,7.378,3.961.214,14.05-.608,19.008-5.409,0,0-29.462-3.854-32.022-2.969,0,0-.017-.009-.052-.024,2.76-3.08,5.43-6.212,7.984-9.327,1.315,1.028,29.225,15.5,43.189,3.646,0,0-6.641.061-11.711-2.116s-8.387-6.251-15.314-6.05c-5.263.158-12.093,2.212-15.073,3.189,2.716-3.334,5.292-6.652,7.719-9.872,2.6,1.295,18.611,8.238,38.218-5.008,2.241-1.524,5.262-4.065,4.406-3.692-7.081,3.1-8.37,2.221-11.27,2.04-18.859-1.124-24.4,1.586-30.672,5.761,2.335-3.122,4.52-6.146,6.536-9,9.531.608,12.829-.673,17.871-1.686,5.161-1.05,15.163-7.073,15.163-7.073s6.62-3.689,8.471-6.8c1.578-2.676-4.12,4.98-15.945,4.9-9.517-.076-21.107,7.168-24.906,9.726,2.359-3.378,4.478-6.525,6.308-9.311,1.513.673,9.759,3.32,27.388-9.293,13.162-9.433,7.106-5.787,7.106-5.787a24.937,24.937,0,0,1-7.009,2.511c-4.688,1.079-14.963,1.505-26.971,11.784,2.191-3.361,3.947-6.19,5.181-8.255,1.213.138,5.972-1.307,9.255-2.586a36.453,36.453,0,0,0,7.911-4.4c5.707-4.1,15.185-11.457,14.257-10.907-2.852,1.713-11.031,3.78-19.585,8.888-7.059,4.212-9.988,6.682-11.194,7.935a23.856,23.856,0,0,0,1.5-2.739c-4.4,7.008-8.746,13.478-12.982,19.465.141-.236.269-.473.269-.473a108.869,108.869,0,0,0,5.846-21.34c1.675-10.982,2.614-18.565,2.483-26.553s-.733-8.468-.733-8.468-1.034,14.147-2.321,18.713c-1.292,4.583-3.641,12.109-4.021,16.391s-1.087,19.924-1.7,21.551c-.2.535-.211.67-.147.629q-3.179,4.489-6.276,8.605c.075-.234.117-.419.117-.419s6.965-17.108,6.92-36.05-.108-25.333-.347-25.166c-.25.27-2.027,14.547-3.473,21.713-.7,3.444-1.327,6.35-1.864,8.832.361-11.353-1.26-13.307-1.26-13.307s-.328,16.8-6.189,29.395c-4.078,8.762-2.065,24.766-2.065,24.766l.013.686q-4.111,5.06-7.945,9.447c.447-.942,1.338-3.043,3.1-7.483,4.224-10.7,4.241-20.351,2.947-33.044s-4.728-15.511-4.557-14.617.629,11.571.666,13-2.159,11.993-3.08,19.681.544,22.841.544,22.841-.01.037-.02.077c-2.878,3.277-5.636,6.3-8.228,9.015a53.061,53.061,0,0,0,2.628-32.032c-1.335-5.887-5.685-23.708-6.254-26.267.212,1.456.783,8.207-1,26.334-1.926,19.65,3.052,30.8,3.974,32.642-2.39,2.5-4.651,4.756-6.75,6.8.729-.978,2.1-4.375-.016-15.438,0,0-3.315-14.1-22.2-13.792a18.261,18.261,0,0,1,8.719,11.264c2.079,8.007,8.675,15.839,13.128,18.321-1.768.7-16.985,14.5-16.985,14.5l-.3.246a11.422,11.422,0,0,0-3.451-2.635c4.584,1.587,8.832-1.972,8.832-1.972-1.6-1.048-1.284-8.329-4.174-10.235s-8.223-3.907-10.121-5.311-10.337-10.928-10.833-11.6.121,1.4.121,1.4m61.442-11.356a102.527,102.527,0,0,0,6.887-20.945c.065,2.712.227,6.211.5,10.768a2.391,2.391,0,0,0,.087.606q-3.808,5.056-7.471,9.571m-45.9,45.257c-.008.078-.039.194-.057.338a9.8,9.8,0,0,0-1.281.455c.454-.263.9-.529,1.338-.794" transform="translate(-60.149 -49.577)" fill="#96999e"/>
        <path id="Trazado_1796" data-name="Trazado 1796" d="M320.028,274.675a4.57,4.57,0,0,1,.767-9.109" transform="translate(-49.22 -41.383)" fill="#fff"/>
        <path id="Trazado_1797" data-name="Trazado 1797" d="M320.028,274.675a4.57,4.57,0,0,1,.767-9.109" transform="translate(-49.22 -41.383)" fill="none" stroke="#2e3433" stroke-linecap="round" stroke-linejoin="round" stroke-width="1"/>
        <path id="Trazado_1798" data-name="Trazado 1798" d="M396.994,197.757l-.152.014L398.1,210.2l9.943-7.147-.338-.546a11.841,11.841,0,0,0-10.707-4.752" transform="translate(-61.843 -30.809)" fill="#f5b015"/>
        <path id="Trazado_1799" data-name="Trazado 1799" d="M134.255,329.459a3.346,3.346,0,1,1-3.347-3.346,3.347,3.347,0,0,1,3.347,3.346" transform="translate(-19.879 -50.821)" fill="#f5b015"/>
        <path id="Trazado_1800" data-name="Trazado 1800" d="M172.35,359.521a2.292,2.292,0,1,1-2.293-2.292,2.292,2.292,0,0,1,2.293,2.292" transform="translate(-26.144 -55.67)" fill="#f5b015"/>
        <path id="Trazado_1801" data-name="Trazado 1801" d="M296.226,201.872a3.346,3.346,0,1,1-3.346-3.346,3.347,3.347,0,0,1,3.346,3.346" transform="translate(-45.121 -30.938)" fill="#f5b015"/>
        <path id="Trazado_1802" data-name="Trazado 1802" d="M443.225,238.983a2.2,2.2,0,1,1-2.2-2.2,2.2,2.2,0,0,1,2.2,2.2" transform="translate(-68.385 -36.899)" fill="#f5b015"/>
        <path id="Trazado_1803" data-name="Trazado 1803" d="M501.3,214c-2.814,1.381-3.139,8.5-3.191,11.632a11.858,11.858,0,0,0,2.317,6.763c1.99,2.911,6.9,5.823,8.982,6.766,1.988.9,2.38-1.12,3.839-2.744a11.046,11.046,0,0,0,2.441-5.968c.571-4.218-.475-8.987-3.885-11.534-2.51-1.876-7.689-6.295-10.5-4.915" transform="translate(-77.625 -33.308)" fill="#96999e"/>
        <path id="Trazado_1804" data-name="Trazado 1804" d="M510.228,239.7a2.568,2.568,0,0,1-1.055-.258c-2.092-.949-7.081-3.884-9.146-6.9a12.234,12.234,0,0,1-2.386-6.992c.117-6.9,1.265-10.927,3.413-11.98,2.72-1.331,7.1,2.028,10,4.255.333.256.64.492.916.7,3.784,2.827,4.569,8,4.04,11.9a11.332,11.332,0,0,1-2.538,6.179,11.64,11.64,0,0,0-.975,1.305c-.6.885-1.21,1.793-2.267,1.793m-7.767-25.649a2.372,2.372,0,0,0-1.059.226c-1.807.886-2.863,4.893-2.97,11.283a11.447,11.447,0,0,0,2.249,6.532c1.951,2.852,6.873,5.746,8.819,6.628,1.1.5,1.509-.026,2.339-1.257a12.567,12.567,0,0,1,1.043-1.391,10.562,10.562,0,0,0,2.342-5.756c.5-3.678-.22-8.543-3.729-11.164-.278-.208-.588-.446-.924-.7-2.218-1.7-5.721-4.4-8.109-4.4" transform="translate(-77.551 -33.235)" fill="#2e3433"/>
        <path id="Trazado_1805" data-name="Trazado 1805" d="M533.112,254.83a13.6,13.6,0,0,0-3.573-.272,12.745,12.745,0,0,0-8.276,4.559,37.844,37.844,0,0,0-5.089,8.21l.013,1.865a22.8,22.8,0,0,0,14.428,2.566,9.9,9.9,0,0,0,3.128-.929c2.384-1.26,3.7-3.866,4.727-6.36.707-1.713,4.264-4.892,3.725-6.665-.765-2.52-6.5-2.48-9.083-2.974" transform="translate(-80.44 -39.666)" fill="#96999e"/>
        <path id="Trazado_1806" data-name="Trazado 1806" d="M527.1,272.344a23.115,23.115,0,0,1-11.181-2.88l-.2-.111-.015-2.192.044-.085a38.121,38.121,0,0,1,5.145-8.293,13.029,13.029,0,0,1,8.542-4.691,13.841,13.841,0,0,1,3.678.277c.56.107,1.293.191,2.071.28,2.961.338,6.647.759,7.316,2.967.4,1.326-.934,3.049-2.227,4.716a12.257,12.257,0,0,0-1.511,2.215c-1.088,2.635-2.435,5.252-4.907,6.558a10.308,10.308,0,0,1-3.253.97,22.734,22.734,0,0,1-3.5.269m-10.6-3.461a22.329,22.329,0,0,0,13.973,2.41,9.587,9.587,0,0,0,3-.887c2.25-1.189,3.514-3.664,4.545-6.161a12.628,12.628,0,0,1,1.617-2.4c1.06-1.367,2.379-3.067,2.1-4-.52-1.712-4.063-2.116-6.649-2.413-.793-.09-1.541-.176-2.13-.288a13.048,13.048,0,0,0-3.469-.266,12.254,12.254,0,0,0-8.01,4.428,37.137,37.137,0,0,0-4.988,8.04Z" transform="translate(-80.367 -39.593)" fill="#2e3433"/>
        <path id="Trazado_1807" data-name="Trazado 1807" d="M498.836,251.532c-2.8-.758-7.182-1.3-8.72,1.162-1.056,1.687.051,4.685.864,6.5,1.587,3.546,5,6.013,8.659,7.328s7.586,1.624,11.46,1.922l.628-.315a17.965,17.965,0,0,0-12.891-16.6" transform="translate(-76.312 -39.099)" fill="#96999e"/>
        <path id="Trazado_1808" data-name="Trazado 1808" d="M511.106,268.775l-.11-.008c-3.849-.3-7.83-.6-11.563-1.945-4.237-1.523-7.392-4.2-8.886-7.538-1.423-3.177-1.705-5.49-.84-6.874,1.842-2.944,7.021-1.914,9.159-1.334a18.4,18.4,0,0,1,13.183,16.975l0,.248Zm-16.7-17.559c-1.631,0-3.246.367-4.026,1.614-.493.788-.74,2.491.891,6.131,1.385,3.095,4.458,5.689,8.431,7.118a42.925,42.925,0,0,0,11.248,1.891l.3-.153a17.207,17.207,0,0,0-16.849-16.6" transform="translate(-76.239 -39.025)" fill="#2e3433"/>
        <path id="Trazado_1809" data-name="Trazado 1809" d="M497.36,285.154a11.52,11.52,0,0,0-3.892-2.618,8.078,8.078,0,0,0-6.86,1.224,8.893,8.893,0,0,0-2.723,12.374,13.881,13.881,0,0,0,8.31,6.172,26.1,26.1,0,0,0,10.528.507l.587-1.141c.234-3.578.437-7.33-1.074-10.582a19.47,19.47,0,0,0-4.876-5.935" transform="translate(-75.204 -43.98)" fill="#96999e"/>
        <path id="Trazado_1810" data-name="Trazado 1810" d="M498.253,303.432a22.276,22.276,0,0,1-6.243-.817,14.292,14.292,0,0,1-8.544-6.358,9.292,9.292,0,0,1,2.849-12.9,8.457,8.457,0,0,1,7.2-1.268,11.754,11.754,0,0,1,4.032,2.7h0a19.932,19.932,0,0,1,4.968,6.062c1.59,3.422,1.335,7.328,1.11,10.774l-.043.155-.681,1.326-.207.027a35.644,35.644,0,0,1-4.446.3m-6.9-20.893a8.494,8.494,0,0,0-4.6,1.479,8.5,8.5,0,0,0-2.6,11.849,13.5,13.5,0,0,0,8.075,5.988,25.391,25.391,0,0,0,10.162.519l.453-.882c.218-3.331.451-7.094-1.043-10.308a19.3,19.3,0,0,0-4.784-5.81h0a11.127,11.127,0,0,0-3.753-2.534,5.969,5.969,0,0,0-1.911-.3" transform="translate(-75.13 -43.907)" fill="#2e3433"/>
        <path id="Trazado_1811" data-name="Trazado 1811" d="M528.668,294.276c-4.271-.745-8.761-.985-12.662.9s-10.823,10.065-7.876,10.907c3.344.957,13.171,4.434,16.572,3.706,2.787-.6,10.245-5.5,10.422-6.449.409-2.213-3.1-8.485-6.456-9.069" transform="translate(-79.076 -45.774)" fill="#96999e"/>
        <path id="Trazado_1812" data-name="Trazado 1812" d="M523.51,310.215c-3.307,0-9.142-1.827-13.167-3.086-.962-.3-1.786-.559-2.394-.734a1.292,1.292,0,0,1-.991-1.194c-.222-2.563,5.347-8.776,8.8-10.45,4.291-2.078,9.149-1.594,12.9-.939,2.042.355,3.774,2.463,4.626,3.687,1.5,2.161,2.388,4.564,2.152,5.843-.234,1.26-8.055,6.191-10.728,6.763a5.814,5.814,0,0,1-1.2.108m-.521-16.173a15.651,15.651,0,0,0-6.883,1.422c-3.3,1.6-8.534,7.652-8.361,9.669a.507.507,0,0,0,.42.5c.614.176,1.444.436,2.413.739,4.223,1.322,11.29,3.529,13.967,2.96,2.783-.6,9.81-5.36,10.121-6.154.19-1.033-.68-3.29-2.028-5.228-1.33-1.911-2.829-3.136-4.112-3.36a32.389,32.389,0,0,0-5.539-.55" transform="translate(-79.003 -45.7)" fill="#2e3433"/>
        <path id="Trazado_1813" data-name="Trazado 1813" d="M480.043,313.076a6.249,6.249,0,0,0-3.92,2.419c-1.479,2.231-.676,5.241.507,7.641a29.035,29.035,0,0,0,12.9,12.988l1.063-.048a31.923,31.923,0,0,0,1.983-11.718,15.435,15.435,0,0,0-.68-4.615,10.512,10.512,0,0,0-11.849-6.667" transform="translate(-74.073 -48.755)" fill="#96999e"/>
        <path id="Trazado_1814" data-name="Trazado 1814" d="M489.369,336.452l-.092-.046A29.36,29.36,0,0,1,476.2,323.239c-1.13-2.293-2.132-5.547-.483-8.035a6.614,6.614,0,0,1,4.164-2.586,10.928,10.928,0,0,1,12.31,6.927,16.171,16.171,0,0,1,.7,4.732,32.57,32.57,0,0,1-2.007,11.864l-.091.246Zm-7.379-23.274a8.786,8.786,0,0,0-1.933.212,5.838,5.838,0,0,0-3.678,2.251c-1.442,2.174-.506,5.142.533,7.248a28.58,28.58,0,0,0,12.628,12.763l.7-.031A31.765,31.765,0,0,0,492.1,324.3a14.686,14.686,0,0,0-.659-4.5,10.183,10.183,0,0,0-9.454-6.62" transform="translate(-74 -48.682)" fill="#2e3433"/>
        <path id="Trazado_1815" data-name="Trazado 1815" d="M511.21,325.6a17.015,17.015,0,0,0-4.252.172,14.418,14.418,0,0,0-7.4,4.64c-2.019,2.164-3.686,4.633-5.679,6.819l.356.187c1.5,3.276,5.5,4.432,9.049,5.06,4.329.766,9.281,1.143,12.629-1.705a11.931,11.931,0,0,0,3.438-5.971,7.852,7.852,0,0,0-.048-5.556c-1.373-2.791-4.988-3.485-8.095-3.646" transform="translate(-76.966 -50.733)" fill="#96999e"/>
        <path id="Trazado_1816" data-name="Trazado 1816" d="M508.492,343.345a31.18,31.18,0,0,1-5.393-.553c-3.466-.613-7.639-1.755-9.282-5.16l-.691-.363.344-.379c.949-1.04,1.842-2.169,2.7-3.262.944-1.192,1.918-2.425,2.978-3.561a14.679,14.679,0,0,1,7.609-4.757,17.491,17.491,0,0,1,4.352-.18c4.507.234,7.264,1.5,8.429,3.866.737,1.5.761,3.409.074,5.839A12.09,12.09,0,0,1,516.053,341a11.358,11.358,0,0,1-7.561,2.347m-14.1-6.3.025.014.057.123c1.447,3.166,5.441,4.247,8.759,4.835,4.008.708,9.029,1.166,12.3-1.617a11.354,11.354,0,0,0,3.314-5.777c.632-2.234.625-3.958-.024-5.273-1.026-2.088-3.564-3.208-7.759-3.426a16.9,16.9,0,0,0-4.153.165,13.926,13.926,0,0,0-7.188,4.522c-1.037,1.111-2,2.332-2.935,3.511-.768.973-1.56,1.974-2.4,2.924" transform="translate(-76.848 -50.66)" fill="#2e3433"/>
        <path id="Trazado_1817" data-name="Trazado 1817" d="M479.792,350.729a20.218,20.218,0,0,0-4.618-6.467,12.032,12.032,0,0,0-13.149-1.4c-2.056,1.1-3.857,3.023-4.061,5.347-.27,3.063,2.179,5.619,4.478,7.659,3.3,2.929,7.272,5.94,11.643,5.338a15.918,15.918,0,0,0,3.518-1.053l3.232-1.246.6-.355a10.35,10.35,0,0,0-.2-4.324,17.967,17.967,0,0,0-1.438-3.5" transform="translate(-71.365 -53.223)" fill="#96999e"/>
        <path id="Trazado_1818" data-name="Trazado 1818" d="M472.857,361.61c-3.951,0-7.493-2.627-10.75-5.517-2.437-2.163-4.89-4.8-4.61-7.99a7.523,7.523,0,0,1,4.268-5.661,12.373,12.373,0,0,1,13.593,1.444,20.525,20.525,0,0,1,4.715,6.589,18.574,18.574,0,0,1,1.467,3.58,10.813,10.813,0,0,1,.21,4.489l-.03.181-.753.449-3.294,1.276a16.223,16.223,0,0,1-3.606,1.075,8.783,8.783,0,0,1-1.21.084m-5.414-19.776a11.218,11.218,0,0,0-5.3,1.305,6.751,6.751,0,0,0-3.855,5.033c-.249,2.838,2.058,5.3,4.347,7.328,3.446,3.058,7.195,5.809,11.328,5.243a15.6,15.6,0,0,0,3.429-1.031l3.232-1.246.376-.228a10.028,10.028,0,0,0-.223-3.98,17.847,17.847,0,0,0-1.408-3.425,19.839,19.839,0,0,0-4.521-6.344,11.464,11.464,0,0,0-7.4-2.656" transform="translate(-71.292 -53.148)" fill="#2e3433"/>
        <path id="Trazado_1819" data-name="Trazado 1819" d="M502.731,355.545a23.236,23.236,0,0,0-17.7,6.611l1.953.024a7.127,7.127,0,0,0,3.073,6.362,18.278,18.278,0,0,0,6.816,2.77c3.2.771,6.836,1.3,9.551-.561,2.231-1.525,3.246-4.3,3.719-6.958a7.954,7.954,0,0,0-.108-4.141c-1.024-2.773-4.352-3.907-7.3-4.106" transform="translate(-75.586 -55.4)" fill="#96999e"/>
        <path id="Trazado_1820" data-name="Trazado 1820" d="M501.625,372.341a21.789,21.789,0,0,1-5.021-.719,18.71,18.71,0,0,1-6.96-2.837,7.689,7.689,0,0,1-3.27-6.288l-2.466-.03.669-.664a23.622,23.622,0,0,1,18.007-6.726c3.876.263,6.734,1.893,7.646,4.364a8.3,8.3,0,0,1,.127,4.347c-.613,3.443-1.92,5.871-3.885,7.215a8.391,8.391,0,0,1-4.845,1.338M485.833,361.7l1.427.018-.061.443a6.732,6.732,0,0,0,2.92,5.991,18.045,18.045,0,0,0,6.67,2.7c3.107.748,6.635,1.274,9.235-.5,1.784-1.219,2.978-3.474,3.553-6.7a7.609,7.609,0,0,0-.089-3.935c-1.188-3.214-5.626-3.758-6.958-3.848a22.839,22.839,0,0,0-16.7,5.833" transform="translate(-75.412 -55.327)" fill="#2e3433"/>
        <path id="Trazado_1821" data-name="Trazado 1821" d="M535.307,261.344c-3.287.974-6.381,2.9-9.492,4.336a43.576,43.576,0,0,1-9.888,3.19.282.282,0,0,0,.059.56c3.406.074,6.664-1.311,9.705-2.713,3.262-1.5,6.9-2.883,9.849-4.933a.252.252,0,0,0-.234-.439" transform="translate(-80.364 -40.726)" fill="#2e3433"/>
        <path id="Trazado_1822" data-name="Trazado 1822" d="M511.689,267.48c-3.011.1-6.186-2.952-8.536-4.648-1.94-1.4-3.778-2.96-5.819-4.207-.284-.174-.5.263-.292.466a62.863,62.863,0,0,0,8.969,6.757c1.778,1.208,3.489,2.63,5.73,2.14a.255.255,0,0,0-.052-.507" transform="translate(-77.446 -40.297)" fill="#2e3433"/>
        <path id="Trazado_1823" data-name="Trazado 1823" d="M490.8,289.684c-.357-.163-.732.385-.379.607a28.617,28.617,0,0,1,8.653,7.592c1.411,1.982,2.447,4.58,4.663,5.78.137.073.23-.1.172-.21-2.9-5.421-7.412-11.153-13.11-13.768" transform="translate(-76.405 -45.139)" fill="#2e3433"/>
        <path id="Trazado_1824" data-name="Trazado 1824" d="M530.64,303.92a21.841,21.841,0,0,0-10.614-.406c-4.244,1.019-7.463,2.879-11.985,1.73-.3-.075-.446.417-.154.52a12.416,12.416,0,0,0,8.676-.185,23.471,23.471,0,0,1,6.681-1.609c2.449-.105,4.875.376,7.315.469a.262.262,0,0,0,.081-.518" transform="translate(-79.124 -47.224)" fill="#2e3433"/>
        <path id="Trazado_1825" data-name="Trazado 1825" d="M487.45,326.624a25.785,25.785,0,0,0-5.818-7.847c-.122-.1-.279.057-.2.185,2.5,4.007,5.284,7.555,7.031,12.023.794,2.028,1.21,5.436,3.935,5.53a.3.3,0,0,0,.166-.556c-2.9-1.384-3.681-6.624-5.115-9.334" transform="translate(-75.022 -49.673)" fill="#2e3433"/>
        <path id="Trazado_1826" data-name="Trazado 1826" d="M515.754,333.452a30.345,30.345,0,0,0-9.266,1c-3.593.935-8.134,4.4-11.848,3.489-.243-.059-.365.343-.127.426,3.056,1.076,5.615-.753,8.423-1.851a36.334,36.334,0,0,1,12.8-2.233c.468-.008.5-.8.021-.828" transform="translate(-77.044 -51.959)" fill="#2e3433"/>
        <path id="Trazado_1827" data-name="Trazado 1827" d="M461.692,349.034c-.211-.053-.314.292-.111.369,7.631,2.851,15.611,4.052,20.8,10.983.343.459,1.07-.057.725-.514-5.2-6.885-13.428-8.808-21.41-10.837" transform="translate(-71.915 -54.392)" fill="#2e3433"/>
        <path id="Trazado_1828" data-name="Trazado 1828" d="M505.845,364.364c-3.324-.552-6.678-.719-10.019-1.346a23.561,23.561,0,0,0-9.114-.393.319.319,0,0,0,.067.634,41.275,41.275,0,0,1,10.9,1.158c2.621.514,5.6,1.27,8.229.511.29-.085.214-.518-.058-.563" transform="translate(-75.806 -56.464)" fill="#2e3433"/>
        <path id="Trazado_1829" data-name="Trazado 1829" d="M501.948,228.6a84.388,84.388,0,0,1,7.365,27.76c.786,10.755-1.021,21.35-4.317,31.572-6.194,19.222-16.881,36.841-21.064,56.737-2.083,9.91-2.5,20.115.35,29.912.092.313.631.193.561-.133-8.854-41.883,28.605-75.815,26.22-117.226a70.89,70.89,0,0,0-7.91-29.265c-.369-.691-1.519-.069-1.207.642" transform="translate(-75.154 -35.478)" fill="#2e3433"/>
      </g>
    </g>
    <g id="Grupo_454" data-name="Grupo 454" transform="translate(69.219 160.215)">
      <g id="Grupo_453" data-name="Grupo 453" clip-path="url(#clip-path-4)">
        <path id="Trazado_1830" data-name="Trazado 1830" d="M276.12,230.654c2.4-7.042,10.953-14.059,24.292-3.492,14.2,11.249,20.086,70.554,20.5,110.14,0,0-3.892,3.168-10.364,1.533,0,0-1.866-19.5-2.228-22.471,0,0-.038,17.411-.694,20.837,0,0-5.029,2.512-8.846-1.118,0,0,4.242-65.383-7.7-82.95-11.246-16.545-17.466-15.134-14.965-22.48" transform="translate(-112.163 -194.775)" fill="#2e3433"/>
        <path id="Trazado_1831" data-name="Trazado 1831" d="M245.285,433.659s-26,29.346-31.225,74.849-13.637,81.044-13.7,109.483-1.7,69.356-8.339,80.732c0,0,36.533,15.543,79.993,9.667,0,0,.457-110.84-.379-155.987s-2.562-116.066-2.562-116.066Z" transform="translate(-99.142 -227.796)" fill="#2e3433"/>
        <path id="Trazado_1832" data-name="Trazado 1832" d="M309.29,431.685s28.444,37.04,40.836,85.962,1.156,52.088,18.535,88.223,12.917,29.635,26.47,66.015c0,0-35.4,31.851-75.132,33.815,0,0-33.8-133.067-42.468-176.4s-9.3-70.278-12.014-86.453Z" transform="translate(-110.596 -227.488)" fill="#2e3433"/>
        <path id="Trazado_1833" data-name="Trazado 1833" d="M398.55,675.936l1.1-.321c-.144-.49-14.448-49.32-28.127-71.153-9.143-14.59-10.135-23.968-11.935-40.994-.881-8.345-1.98-18.733-4.369-32.4-7.117-40.715-32.484-83.676-32.738-84.105l-.989.588c.255.427,25.515,43.212,32.595,83.715,2.382,13.628,3.478,23.994,4.358,32.323,1.818,17.195,2.819,26.667,12.1,41.483,13.6,21.7,27.856,70.375,28,70.863" transform="translate(-119.32 -229.869)" fill="#fff"/>
        <path id="Trazado_1834" data-name="Trazado 1834" d="M308.24,351.547c1.168-18.777,2.651-35.96-21.44-42.848-5.3-1.515-19.6-1.151-26.643-1.331-2.955-.076-13.642-.2-18.68,3.713a29.541,29.541,0,0,0-5.74,4.61c-9.2,9.152-23.3,37.354-33.611,57.043,6.542,5.187,2.3,28.241,15.251,32.656,6.567-3.841,14.5-11.1,21.294-19.263,3.073,22.4-7.671,44.284-7.671,44.284,40.617,32.024,86.729,9.1,86.729,9.1s-11.911-49.046-9.489-87.968" transform="translate(-100.718 -208.111)" fill="#f5b015"/>
        <path id="Trazado_1835" data-name="Trazado 1835" d="M308.24,351.547c1.168-18.777,2.651-35.96-21.44-42.848-5.3-1.515-19.6-1.151-26.643-1.331-2.955-.076-13.642-.2-18.68,3.713a29.541,29.541,0,0,0-5.74,4.61c-9.2,9.152-23.3,37.354-33.611,57.043,6.542,5.187,2.3,28.241,15.251,32.656,6.567-3.841,14.5-11.1,21.294-19.263,3.073,22.4-7.671,44.284-7.671,44.284,40.617,32.024,86.729,9.1,86.729,9.1S305.819,390.469,308.24,351.547Z" transform="translate(-100.718 -208.111)" fill="none" stroke="#2e3433" stroke-linecap="round" stroke-linejoin="round" stroke-width="1"/>
        <path id="Trazado_1836" data-name="Trazado 1836" d="M327.18,442.492l-.263-1.157c3.386-.767,5.762-1.4,6.785-1.682-1.094-4.124-11.559-52.113-9.352-87.593l.057-.914c1.062-16.951,1.978-31.589-15.105-39.19l.482-1.085c17.837,7.937,16.851,23.68,15.809,40.348l-.057.915c-2.387,38.359,9.389,87.5,9.466,87.765l.165.57-.568.166c-.028.008-2.793.811-7.417,1.857" transform="translate(-117.42 -208.661)" fill="#2e3433"/>
        <path id="Trazado_1837" data-name="Trazado 1837" d="M242.821,414.766l-1.147-.3c2.822-10.781,3.973-26.941-6.583-42.709-7.722-11.53-4.918-22.291-2.139-29.381l1.106.433c-2.683,6.843-5.392,17.219,2.018,28.287,10.8,16.134,9.63,32.654,6.745,43.67" transform="translate(-105.074 -213.571)" fill="#2e3433"/>
        <path id="Trazado_1838" data-name="Trazado 1838" d="M252.189,382.176c-.047,0-.145,0-.284,0-6.655-.05-12.081-1.729-15.69-4.857l.777-.9c3.345,2.9,8.645,4.521,14.922,4.568.172,0,.291,0,.352.007Z" transform="translate(-106.03 -218.875)" fill="#2e3433"/>
        <path id="Trazado_1839" data-name="Trazado 1839" d="M274.16,377.838c-8.5-9.374-5.142-21.931-5.107-22.058l1.144.317c-.033.121-3.209,12.064,4.842,20.943Z" transform="translate(-111.041 -215.659)" fill="#2e3433"/>
        <path id="Trazado_1840" data-name="Trazado 1840" d="M294.117,272.643c-2.968,5.119-8.327,8.613-7.7-2.359.764-13.43-38.379-19.59-23.337-30.506,22.472-16.308,42.866,12.463,31.039,32.865" transform="translate(-109.68 -196.833)" fill="#2e3433"/>
        <path id="Trazado_1841" data-name="Trazado 1841" d="M294.855,304.146c-2.731-.435-5.358-.764-7.865-1.015v-25s-5.331,7.712-19.759,12.3l-3.459,12.359c-1.629.12-2.674.226-3.014.235-6.093.15-7.565,5.7-6.736,11.738,2.013,14.693,30.121,12.305,45.439-7.359-2.436-1.335-1.161-2.71-4.6-3.258" transform="translate(-108.772 -203.558)" fill="#fff"/>
        <path id="Trazado_1842" data-name="Trazado 1842" d="M294.855,304.146c-2.731-.435-5.358-.764-7.865-1.015v-25s-5.331,7.712-19.759,12.3l-3.459,12.359c-1.629.12-2.674.226-3.014.235-6.093.15-7.565,5.7-6.736,11.738,2.013,14.693,30.121,12.305,45.439-7.359C297.022,306.069,298.3,304.694,294.855,304.146Z" transform="translate(-108.772 -203.558)" fill="none" stroke="#2e3433" stroke-linecap="round" stroke-linejoin="round" stroke-width="1"/>
        <path id="Trazado_1843" data-name="Trazado 1843" d="M268.755,294.956l-1.347,6.061c12.756-.95,14.157-9.886,14.135-9.869-5.933,3.79-11.058,3.994-12.787,3.808" transform="translate(-110.891 -205.587)" fill="#2e3433"/>
        <path id="Trazado_1844" data-name="Trazado 1844" d="M286.528,281.974s.091-8.077.14-9.4c2.323-.3,3.584-2.15,4.346-4.529,1.053-3.284.313-7.267-2.971-8.319-1.16-.371-2.622.339-3.721.62-2.235-6.769-4.733-12.418-10.28-14.377-2.866-1-13.282,2.481-15.914,3.048-5.021,1.081-7.209,6.165-7.262,15.035-.062,9.952,1.908,27.109,13.686,27.027,3.918-.027,9.73-3.169,14.412-7" transform="translate(-108.313 -198.518)" fill="#fff"/>
        <path id="Trazado_1845" data-name="Trazado 1845" d="M286.528,281.974s.091-8.077.14-9.4c2.323-.3,3.584-2.15,4.346-4.529,1.053-3.284.313-7.267-2.971-8.319-1.16-.371-2.622.339-3.721.62-2.235-6.769-4.733-12.418-10.28-14.377-2.866-1-13.282,2.481-15.914,3.048-5.021,1.081-7.209,6.165-7.262,15.035-.062,9.952,1.908,27.109,13.686,27.027,3.918-.027,9.73-3.169,14.412-7" transform="translate(-108.313 -198.518)" fill="none" stroke="#2e3433" stroke-linecap="round" stroke-linejoin="round" stroke-width="1"/>
        <path id="Trazado_1846" data-name="Trazado 1846" d="M292.512,272.844a1.905,1.905,0,0,1-1.714-.861,1.328,1.328,0,0,1,.384-1.885c.341-.308.53-.479.4-1.019a2.281,2.281,0,0,0-.686-1.106c-.65-.691-1.138-1.425.024-2.805a1.913,1.913,0,0,1,1.478-.706h.023c1.778,0,3.788,2.228,4.013,2.483l-.934.821c-.7-.8-2.159-2.06-3.076-2.06h-.013a.664.664,0,0,0-.539.262c-.544.647-.518.675-.069,1.151a3.5,3.5,0,0,1,.993,1.679,2.067,2.067,0,0,1-.785,2.223,2.385,2.385,0,0,0-.217.212c.009.011.025.042.053.087.393.625,1.8.009,1.812,0l.528,1.125a4.128,4.128,0,0,1-1.677.4" transform="translate(-114.447 -201.428)" fill="#2e3433"/>
        <path id="Trazado_1847" data-name="Trazado 1847" d="M258.835,285s6.163,2.876,11.74-.8c0,0-2.272,6.214-5.987,5.868S258.835,285,258.835,285" transform="translate(-109.555 -204.505)" fill="#2e3433"/>
        <path id="Trazado_1848" data-name="Trazado 1848" d="M266.211,264.45l-1.006-.729c.1-.137,2.488-3.352,8.935-1.2l-.393,1.18c-5.517-1.839-7.455.648-7.536.754" transform="translate(-110.548 -201.01)" fill="#2e3433"/>
        <path id="Trazado_1849" data-name="Trazado 1849" d="M273.4,268.345a2.1,2.1,0,1,1-2.1-2.105,2.105,2.105,0,0,1,2.1,2.105" transform="translate(-111.17 -201.706)" fill="#2e3433"/>
        <path id="Trazado_1850" data-name="Trazado 1850" d="M258.395,268.345a2.105,2.105,0,1,1-2.1-2.105,2.105,2.105,0,0,1,2.1,2.105" transform="translate(-108.83 -201.706)" fill="#2e3433"/>
        <path id="Trazado_1851" data-name="Trazado 1851" d="M285.875,259.425s-5.237,4.395-8.462-2.718c-3.946-8.706-17.769-7.365-23.485-6.29,0,0-.8.615-2.961,8.221,0,0-3.467-15.039,13.575-18.805,16.571-3.662,22.369,12.65,21.334,19.592" transform="translate(-108.284 -197.508)" fill="#2e3433"/>
        <path id="Trazado_1852" data-name="Trazado 1852" d="M260.313,278.14c-.645-.175-3.884-1.124-4.39-2.661a1.45,1.45,0,0,1,.285-1.409c2.325-2.935,1.91-7.732,1.763-8.939a6.614,6.614,0,0,0-5.2-.259l-.4-1.178a7.647,7.647,0,0,1,6.523.539l.22.149.044.263c.044.26,1.025,6.409-1.976,10.2-.113.143-.092.206-.078.247.21.638,2.186,1.484,3.533,1.85Z" transform="translate(-108.548 -201.236)" fill="#2e3433"/>
        <path id="Trazado_1853" data-name="Trazado 1853" d="M275.54,230.362s-2.143,2.262-.555,4.38c0,0,10.61.026,15.373,5.609,0,0,2.514-2.169,2.3-5.133,0,0-9.222-7.435-17.12-4.856" transform="translate(-111.981 -196.03)" fill="#f5b015"/>
        <path id="Trazado_1854" data-name="Trazado 1854" d="M275.54,230.362s-2.143,2.262-.555,4.38c0,0,10.61.026,15.373,5.609,0,0,2.514-2.169,2.3-5.133C292.661,235.217,283.438,227.782,275.54,230.362Z" transform="translate(-111.981 -196.03)" fill="none" stroke="#2e3433" stroke-linecap="round" stroke-linejoin="round" stroke-width="1"/>
      </g>
    </g>
    <g id="Grupo_456" data-name="Grupo 456">
      <g id="Grupo_455" data-name="Grupo 455" clip-path="url(#clip-path-5)">
        <path id="Trazado_1855" data-name="Trazado 1855" d="M321.51,369.356s-23.727-10.817-16.968-41.166,8.112-43.229,3.222-61.95,30.355-16.086,34.579,31.491,13.681,59.576-20.832,71.625" transform="translate(-47.271 -39.805)" fill="#fff"/>
        <path id="Trazado_1856" data-name="Trazado 1856" d="M321.51,369.356s-23.727-10.817-16.968-41.166,8.112-43.229,3.222-61.95,30.355-16.086,34.579,31.491S356.023,357.307,321.51,369.356Z" transform="translate(-47.271 -39.805)" fill="none" stroke="#2e3433" stroke-linecap="round" stroke-linejoin="round" stroke-width="1"/>
        <path id="Trazado_1857" data-name="Trazado 1857" d="M324.866,384.957s8.65,7.407,28.35,8.12,4.306-31.3,4.306-31.3l-15.357-6.243s-8.684,1.281-10.191,4.112-7.109,25.311-7.109,25.311" transform="translate(-50.627 -55.406)" fill="#2e3433"/>
        <path id="Trazado_1858" data-name="Trazado 1858" d="M344.924,307.4a15.13,15.13,0,0,1-1.44,5.4,13.31,13.31,0,0,1-3.438,4.529,13.015,13.015,0,0,1-2.427,1.565,12.434,12.434,0,0,1-5.588.967,8.273,8.273,0,0,1-1.393-.194c-.46-.078-.916-.169-1.367-.268.937-.064,1.85.036,2.754-.075a14.477,14.477,0,0,0,2.653-.457,13.4,13.4,0,0,0,2.486-.907,12.8,12.8,0,0,0,2.178-1.474,15.306,15.306,0,0,0,3.385-4.082,24.756,24.756,0,0,0,2.2-5" transform="translate(-51.313 -47.905)" fill="#2e3433"/>
        <path id="Trazado_1859" data-name="Trazado 1859" d="M344.924,307.4a15.13,15.13,0,0,1-1.44,5.4,13.31,13.31,0,0,1-3.438,4.529,13.015,13.015,0,0,1-2.427,1.565,12.434,12.434,0,0,1-5.588.967,8.273,8.273,0,0,1-1.393-.194c-.46-.078-.916-.169-1.367-.268.937-.064,1.85.036,2.754-.075a14.477,14.477,0,0,0,2.653-.457,13.4,13.4,0,0,0,2.486-.907,12.8,12.8,0,0,0,2.178-1.474,15.306,15.306,0,0,0,3.385-4.082A24.756,24.756,0,0,0,344.924,307.4Z" transform="translate(-51.313 -47.905)" fill="none" stroke="#2e3433" stroke-linecap="round" stroke-linejoin="round" stroke-width="1"/>
        <path id="Trazado_1860" data-name="Trazado 1860" d="M351.567,398.9c-14.108,0-27.478-8.4-27.613-8.49l.613-.963c.134.086,13.632,8.546,27.6,8.307l.02,1.141c-.208,0-.417.006-.625.006" transform="translate(-50.485 -60.691)" fill="#2e3433"/>
        <path id="Trazado_1861" data-name="Trazado 1861" d="M467.839,231.038,434.025,405.97a13.567,13.567,0,0,1-15.88,10.731l-34.991-6.764.006-.025-44.152-8.534a13.57,13.57,0,0,1-9.944-15.7l33.815-174.931a13.567,13.567,0,0,1,15.879-10.73L457.1,215.162a13.566,13.566,0,0,1,10.736,15.875" transform="translate(-51.242 -31.132)" fill="#2e3433"/>
        <path id="Trazado_1862" data-name="Trazado 1862" d="M461.54,229.82,427.726,404.752a13.566,13.566,0,0,1-15.88,10.73l-34.99-6.763.005-.025-44.152-8.534a13.569,13.569,0,0,1-9.944-15.7L356.58,209.53a13.569,13.569,0,0,1,15.879-10.73L450.8,213.945A13.566,13.566,0,0,1,461.54,229.82" transform="translate(-50.261 -30.942)" fill="#dbe0e6"/>
        <path id="Trazado_1863" data-name="Trazado 1863" d="M461.54,229.82,427.726,404.752a13.566,13.566,0,0,1-15.88,10.73l-34.99-6.763.005-.025-44.152-8.534a13.569,13.569,0,0,1-9.944-15.7L356.58,209.53a13.569,13.569,0,0,1,15.879-10.73L450.8,213.945A13.566,13.566,0,0,1,461.54,229.82Z" transform="translate(-50.261 -30.942)" fill="none" stroke="#2e3433" stroke-miterlimit="10" stroke-width="1"/>
        <path id="Trazado_1864" data-name="Trazado 1864" d="M459.141,229.8,425.325,404.739a10.54,10.54,0,0,1-12.35,8.344l-78.347-15.145a10.538,10.538,0,0,1-8.346-12.344L360.1,210.658a10.536,10.536,0,0,1,12.344-8.345l78.347,15.145a10.538,10.538,0,0,1,8.35,12.346" transform="translate(-50.817 -31.498)" fill="#fff"/>
        <path id="Trazado_1865" data-name="Trazado 1865" d="M459.141,229.8,425.325,404.739a10.54,10.54,0,0,1-12.35,8.344l-78.347-15.145a10.538,10.538,0,0,1-8.346-12.344L360.1,210.658a10.536,10.536,0,0,1,12.344-8.345l78.347,15.145A10.538,10.538,0,0,1,459.141,229.8Z" transform="translate(-50.817 -31.498)" fill="none" stroke="#2e3433" stroke-linecap="round" stroke-linejoin="round" stroke-width="1"/>
        <path id="Trazado_1866" data-name="Trazado 1866" d="M436.906,215.312,412.514,210.6a1,1,0,1,0-.381,1.97l24.391,4.715a1,1,0,1,0,.382-1.971" transform="translate(-64.099 -32.816)" fill="#2e3433"/>
        <rect id="Rectángulo_378" data-name="Rectángulo 378" width="4.707" height="0.596" transform="matrix(0.829, -0.56, 0.56, 0.829, 317.888, 183.016)" fill="#2e3433"/>
        <rect id="Rectángulo_379" data-name="Rectángulo 379" width="0.596" height="4.708" transform="matrix(0.828, -0.56, 0.56, 0.828, 318.44, 180.162)" fill="#2e3433"/>
        <rect id="Rectángulo_380" data-name="Rectángulo 380" width="0.596" height="5.34" transform="translate(393.394 197.555) rotate(-79.056)" fill="#2e3433"/>
        <path id="Trazado_1867" data-name="Trazado 1867" d="M488.655,301.061s21-9.681,3.031-31.277-35.4-7.648-35.105-.436c.393,9.732.307,16.1,14.69,21.918,0,0-14.146,1.457-15.046,12.684a21.636,21.636,0,0,0,7,17.672s-12.473-1.383-15.409,3.849-.778,19.119,11.054,25.354c0,0-14.373,3.188-8.664,18.945s9.141,10.772,9.141,10.772l-4.127,20.652s27.064-6.971,23.758-38.95c0,0,18.293-12.182,2.851-29.064,0,0,26.227-14.363,6.821-32.12" transform="translate(-69.604 -40.241)" fill="#fff"/>
        <path id="Trazado_1868" data-name="Trazado 1868" d="M488.655,301.061s21-9.681,3.031-31.277-35.4-7.648-35.105-.436c.393,9.732.307,16.1,14.69,21.918,0,0-14.146,1.457-15.046,12.684a21.636,21.636,0,0,0,7,17.672s-12.473-1.383-15.409,3.849-.778,19.119,11.054,25.354c0,0-14.373,3.188-8.664,18.945s9.141,10.772,9.141,10.772l-4.127,20.652s27.064-6.971,23.758-38.95c0,0,18.293-12.182,2.851-29.064C481.834,333.18,508.061,318.818,488.655,301.061Z" transform="translate(-69.604 -40.241)" fill="none" stroke="#2e3433" stroke-linecap="round" stroke-linejoin="round" stroke-width="1"/>
        <path id="Trazado_1869" data-name="Trazado 1869" d="M437.464,292.535a32.158,32.158,0,1,1-24.421-38.365,32.159,32.159,0,0,1,24.421,38.365" transform="translate(-58.269 -39.489)" fill="#d3001b"/>
      </g>
    </g>
    <g id="Grupo_458" data-name="Grupo 458" transform="translate(324.335 229.073)">
      <g id="Grupo_457" data-name="Grupo 457" transform="translate(0 0)" clip-path="url(#clip-path-6)">
        <path id="Trazado_1870" data-name="Trazado 1870" d="M407.427,299.722a3.628,3.628,0,0,1-1.092,4.92l-3.355,2.137a3.628,3.628,0,0,1-4.92-1.093L388.736,290.9a3.627,3.627,0,0,1,1.092-4.92l3.353-2.132a3.628,3.628,0,0,1,4.92,1.093Z" transform="translate(-384.832 -273.224)" fill="#fff"/>
        <path id="Trazado_1871" data-name="Trazado 1871" d="M423.925,280.641a3.628,3.628,0,0,1,4.92,1.092l2.135,3.354a3.628,3.628,0,0,1-1.092,4.92l-25.416,16.1a3.628,3.628,0,0,1-4.92-1.093l-2.133-3.353a3.628,3.628,0,0,1,1.092-4.92Z" transform="translate(-386.185 -272.724)" fill="#fff"/>
      </g>
    </g>
    <g id="Grupo_460" data-name="Grupo 460">
      <g id="Grupo_459" data-name="Grupo 459" clip-path="url(#clip-path-7)">
        <path id="Trazado_1872" data-name="Trazado 1872" d="M421.191,369.659l-59.858-12.008a10.339,10.339,0,0,1,4.068-20.274l59.857,12.008a10.339,10.339,0,1,1-4.067,20.274" transform="translate(-55.015 -52.544)" fill="#fff"/>
        <path id="Trazado_1873" data-name="Trazado 1873" d="M421.191,369.659l-59.858-12.008a10.339,10.339,0,0,1,4.068-20.274l59.857,12.008a10.339,10.339,0,1,1-4.067,20.274Z" transform="translate(-55.015 -52.544)" fill="none" stroke="#2e3433" stroke-linecap="round" stroke-linejoin="round" stroke-width="1"/>
        <path id="Trazado_1874" data-name="Trazado 1874" d="M417.666,366.437l-55.353-11.1a7.8,7.8,0,0,1,3.069-15.3l55.352,11.1Z" transform="translate(-55.486 -52.967)" fill="#d3001b"/>
      </g>
    </g>
    <g id="Grupo_462" data-name="Grupo 462" transform="translate(300.56 286.915)">
      <g id="Grupo_461" data-name="Grupo 461" clip-path="url(#clip-path-8)">
        <line id="Línea_241" data-name="Línea 241" y1="20.599" x2="26.621" transform="translate(42.907 7.749)" fill="none" stroke="#aa0202" stroke-miterlimit="10" stroke-width="7"/>
        <line id="Línea_242" data-name="Línea 242" y1="20.599" x2="26.621" transform="translate(28.488 3.312)" fill="none" stroke="#aa0202" stroke-miterlimit="10" stroke-width="7"/>
        <line id="Línea_243" data-name="Línea 243" y1="20.599" x2="26.621" transform="translate(11.533 1.094)" fill="none" stroke="#aa0202" stroke-miterlimit="10" stroke-width="7"/>
        <line id="Línea_244" data-name="Línea 244" y1="20.599" x2="26.621" transform="translate(-1.618 -4.135)" fill="none" stroke="#aa0202" stroke-miterlimit="10" stroke-width="7"/>
      </g>
    </g>
    <g id="Grupo_464" data-name="Grupo 464">
      <g id="Grupo_463" data-name="Grupo 463" clip-path="url(#clip-path-9)">
        <path id="Trazado_1876" data-name="Trazado 1876" d="M223.316,300.56s-38.545,12.949-33.3,57.387-2.309,98.585-2.309,98.585h21.973s39.14-52.767,10.3-92.3,3.339-63.669,3.339-63.669" transform="translate(-29.252 -46.839)" fill="#f4cc08"/>
        <path id="Trazado_1877" data-name="Trazado 1877" d="M187.028,455.48c.075-.541,7.482-54.588,2.306-98.441-5.238-44.38,33.291-57.858,33.681-57.988l3.325-1.118-2.806,2.105c-.317.236-31.406,24.244-3.22,62.883,28.753,39.416-9.907,92.442-10.3,92.973l-.17.229H186.938ZM219.4,363.874c-23.83-32.669-6.136-55.195.908-62.169-8.944,4.229-34.1,19.464-29.854,55.487,4.887,41.4-1.4,91.828-2.224,98.087h21.039c2.729-3.821,37.443-53.963,10.13-91.4" transform="translate(-29.132 -46.43)" fill="#131313"/>
        <path id="Trazado_1878" data-name="Trazado 1878" d="M220.264,303.839c-7.014,5.79-27.418,26.83-5.43,61.66,26.124,41.381-16.465,91.4-16.465,91.4l-10.548-.712c-.068.539-.113.851-.113.851h21.973s39.14-52.767,10.3-92.3c-23.145-31.732-7-53.527.285-60.9" transform="translate(-29.252 -47.35)" fill="#131313"/>
        <path id="Trazado_1879" data-name="Trazado 1879" d="M183.165,424.855c2.057-39.436.467-44.363-14.864-57.385s-36.932-34.433-36.932-34.433c14.716,29.135,14.42,42.378,17.187,63.811,2.15,16.627,27.127,49.814,38.224,63.868-2.458-5.7-4.641-16.282-3.616-35.861" transform="translate(-20.472 -51.9)" fill="#f4cc08"/>
        <path id="Trazado_1880" data-name="Trazado 1880" d="M185.954,460.539c-10.8-13.681-36.165-47.318-38.341-64.145-.383-2.97-.707-5.784-1.021-8.5-1.942-16.825-3.476-30.114-16.109-55.125l-1.568-3.1,2.469,2.447c.216.214,21.762,21.543,36.9,34.4,15.694,13.331,17.1,18.738,15.062,57.846-1.056,20.143,1.359,30.482,3.57,35.607ZM182.218,424.3c2.014-38.6.643-43.923-14.665-56.925-12.185-10.351-28.5-26.167-34.565-32.1,11.352,23.271,12.85,36.243,14.726,52.492.313,2.715.637,5.523,1.021,8.487,2,15.506,24.277,45.84,35.915,60.794-2.354-7.641-3.171-18.627-2.431-32.744" transform="translate(-20.09 -51.374)" fill="#131313"/>
        <path id="Trazado_1881" data-name="Trazado 1881" d="M183.515,418.042c-7.652,32.76,8.619,54.777,8.619,54.777h16.042c-.055-11.291.755-22.12,6.07-33.073a12.152,12.152,0,0,1,.978-1.626c-2.261-1.059-4.776-2.13-7.577-3.205-29.624-11.38-16.481-49.636-24.132-16.873" transform="translate(-28.28 -63.125)" fill="#131313"/>
        <path id="Trazado_1882" data-name="Trazado 1882" d="M224.094,433.378c-15.618,9.442-8.268,44.3-8.268,44.3l15.267-.244s-3.54-11.263,5.885-24.566,16.631-9.02,16.631-9.02-13.9-19.911-29.514-10.471" transform="translate(-33.365 -67.141)" fill="#131313"/>
        <path id="Trazado_1883" data-name="Trazado 1883" d="M132.8,405.858c-27.342,0-42.634,16.477-42.634,16.477s10.642-5.409,29.684-4.706S137.5,434.5,152.807,449.607s28.055,17.264,28.055,17.264-20.268-29.313-35.117-49.242c-2.615-3.51-.069-11.771-12.949-11.771" transform="translate(-14.051 -63.248)" fill="#131313"/>
        <path id="Trazado_1884" data-name="Trazado 1884" d="M98.129,431.293a2.391,2.391,0,0,0-.138.455s.043-.164.138-.455" transform="translate(-15.271 -67.212)" fill="#faf9fc"/>
        <path id="Trazado_1885" data-name="Trazado 1885" d="M153.987,423.008c-5.1-6.867.2-23.738-32.372-19.816-29.747,3.584-36.738,21.232-37.727,24.265.75-1.956,5.512-9.929,34.2-16.416,32.959-7.456,15.5,9.611,30.41,20.4s27.073,31,27.073,31,8.437,14.125,6.473,2.353-22.954-34.922-28.053-41.786" transform="translate(-13.073 -62.742)" fill="#f4cc08"/>
        <path id="Trazado_1886" data-name="Trazado 1886" d="M174.984,462.629c-.121-.2-12.275-20.23-26.92-30.83-5.812-4.207-6.873-9.417-7.726-13.6-.653-3.205-1.168-5.738-3.419-7.191-2.948-1.907-8.926-1.753-18.81.483-28.793,6.512-33.2,14.527-33.793,16.068l-1.064-.377c1.136-3.485,8.321-21.051,38.2-24.65,25.463-3.068,28.258,6.5,30.5,14.188a18.857,18.857,0,0,0,2.391,5.852c1.051,1.414,2.836,3.591,4.9,6.113,8.106,9.889,21.675,26.443,23.254,35.917.555,3.325.36,4.9-.65,5.274a1,1,0,0,1-.354.061c-1.858,0-4.836-4.5-6.51-7.3m-21.55-39.389a19.545,19.545,0,0,1-2.569-6.208c-2.235-7.657-4.767-16.335-29.282-13.383-22.224,2.678-31.566,13.163-35.245,19.5,3.927-3.525,12.565-8.481,31.521-12.767,10.341-2.341,16.407-2.443,19.673-.332,2.649,1.712,3.234,4.586,3.912,7.915.856,4.2,1.827,8.965,7.281,12.913,14.831,10.734,27.1,30.96,27.228,31.165,2.232,3.737,4.853,6.9,5.5,6.767.006,0,.533-.432-.068-4.032-1.53-9.177-14.979-25.584-23.014-35.386-2.161-2.635-3.868-4.719-4.935-6.156" transform="translate(-12.974 -62.638)" fill="#131313"/>
        <path id="Trazado_1887" data-name="Trazado 1887" d="M269.945,443.781c-17.154-29.2-34.985-25.87-46.439-18.335-16.25,10.694-10.5,49.781-10.5,49.781l2.5.6s-.182-7.657.126-20.863,5.307-32.3,28-8.014,52.384,26.716,52.384,26.716-8.907-.681-26.063-29.883" transform="translate(-33.041 -65.488)" fill="#f4cc08"/>
        <path id="Trazado_1888" data-name="Trazado 1888" d="M295.842,474.121c-.645-.057-30.3-2.875-52.743-26.893-8.51-9.108-15.167-12.83-19.794-11.07-6.179,2.354-7.111,13.87-7.225,18.712-.3,13.04-.127,20.761-.125,20.837l.017.734-3.581-.86-.056-.378c-.237-1.61-5.615-39.567,10.748-50.335,7.226-4.754,14.463-6.331,21.511-4.688,9.3,2.165,17.951,9.974,25.726,23.21,16.649,28.335,25.509,29.593,25.619,29.605h0l-.089,1.127-.011,0M223.7,425.813c-14.922,9.819-10.83,44.816-10.3,48.85l1.41.338c-.035-2.22-.112-9.377.139-20.157.119-5.07,1.132-17.143,7.952-19.742,5.1-1.938,12.169,1.879,21.023,11.356,17.5,18.724,39.429,24.393,48.168,25.974-4.182-2.729-11.813-9.86-22.747-28.47C261.734,431,253.32,423.373,244.338,421.28a22.705,22.705,0,0,0-6.889-.533,29.026,29.026,0,0,0-13.744,5.066" transform="translate(-32.929 -65.382)" fill="#131313"/>
        <path id="Trazado_1889" data-name="Trazado 1889" d="M231.764,402.461c-4.685-3.437-9.441-2.849-13.114-1.319a15.7,15.7,0,0,1-14.151-1.294c-15.679-9.489-16.879,3.555-16.879,3.555l.424,3.532a.173.173,0,0,1,.024.117c1.13,6.544,4.8,20.153,20.529,26.2,2.8,1.081,27.473,11.771,27.473,11.771-3.342-13.537,5.3-35.5-4.306-42.566" transform="translate(-29.238 -61.773)" fill="#f4cc08"/>
        <path id="Trazado_1890" data-name="Trazado 1890" d="M235.74,445.441c-.247-.107-24.694-10.7-27.452-11.763-11.393-4.384-18.609-13.572-20.872-26.572l-.47-3.8.006-.06c.018-.2.488-4.85,4.26-6.752,3.223-1.629,7.756-.7,13.474,2.766a15.222,15.222,0,0,0,13.642,1.255c4.916-2.047,9.639-1.569,13.664,1.384v0c6.029,4.433,5.207,14.1,4.336,24.327-.555,6.514-1.127,13.248.184,18.558l.274,1.107Zm-4.417-42.629c-3.741-2.746-7.968-3.169-12.561-1.253a16.354,16.354,0,0,1-14.661-1.333c-5.36-3.242-9.522-4.159-12.374-2.728-3.013,1.516-3.583,5.3-3.645,5.8l.405,3.371a.385.385,0,0,1,.03.184c2.179,12.62,9.156,21.533,20.176,25.773,2.489.961,21.747,9.292,26.48,11.34-1.038-5.289-.5-11.659.029-17.832.842-9.906,1.638-19.263-3.881-23.322Z" transform="translate(-29.133 -61.668)" fill="#131313"/>
        <rect id="Rectángulo_384" data-name="Rectángulo 384" width="293.339" height="2.051" transform="translate(118.492 408.889)" fill="#131313"/>
        <path id="Trazado_1891" data-name="Trazado 1891" d="M475.817,297.365s7.085-.241,17.384,9.795" transform="translate(-74.151 -46.341)" fill="#fff"/>
        <path id="Trazado_1892" data-name="Trazado 1892" d="M475.817,297.365s7.085-.241,17.384,9.795" transform="translate(-74.151 -46.341)" fill="none" stroke="#2e3433" stroke-linecap="round" stroke-linejoin="round" stroke-width="1"/>
        <path id="Trazado_1893" data-name="Trazado 1893" d="M466.292,333.325s11.347,2.268,18.6,11.559" transform="translate(-72.666 -51.945)" fill="#fff"/>
        <path id="Trazado_1894" data-name="Trazado 1894" d="M466.292,333.325s11.347,2.268,18.6,11.559" transform="translate(-72.666 -51.945)" fill="none" stroke="#2e3433" stroke-linecap="round" stroke-linejoin="round" stroke-width="1"/>
        <path id="Trazado_1895" data-name="Trazado 1895" d="M461.133,367.9s14.279-1.963,20.108,11.421" transform="translate(-71.862 -57.317)" fill="#fff"/>
        <path id="Trazado_1896" data-name="Trazado 1896" d="M461.133,367.9s14.279-1.963,20.108,11.421" transform="translate(-71.862 -57.317)" fill="none" stroke="#2e3433" stroke-linecap="round" stroke-linejoin="round" stroke-width="1"/>
      </g>
    </g>
  </g>
</svg>
