<svg xmlns="http://www.w3.org/2000/svg" xmlns:xlink="http://www.w3.org/1999/xlink" width="385.642" height="347.726" viewBox="0 0 385.642 347.726">
  <defs>
    <clipPath id="clip-path">
      <rect id="Rectángulo_286" data-name="Rectángulo 286" width="385.642" height="347.726" transform="translate(91.025 122)" fill="none"/>
    </clipPath>
    <clipPath id="clip-path-2">
      <rect id="Rectángulo_255" data-name="Rectángulo 255" width="476.667" height="549.726" fill="none"/>
    </clipPath>
    <clipPath id="clip-path-3">
      <path id="Trazado_1060" data-name="Trazado 1060" d="M349.7,166.883a16.49,16.49,0,0,0-12.421,19.7,98.914,98.914,0,1,1-192.933,43.734,16.471,16.471,0,0,0-32.127,7.283c16.073,70.908,86.834,115.517,157.743,99.443S385.475,250.213,369.4,179.3a16.465,16.465,0,0,0-19.7-12.422" transform="translate(-111.806 -166.474)" fill="none"/>
    </clipPath>
    <clipPath id="clip-path-5">
      <path id="Trazado_1087" data-name="Trazado 1087" d="M128.893,237.742V488.1H385.1l-1.691-250.354Z" transform="translate(-128.893 -237.742)" fill="none"/>
    </clipPath>
    <clipPath id="clip-path-7">
      <rect id="Rectángulo_282" data-name="Rectángulo 282" width="139.632" height="199.219" fill="none"/>
    </clipPath>
    <clipPath id="clip-path-8">
      <rect id="Rectángulo_285" data-name="Rectángulo 285" width="248.344" height="206.702" fill="none"/>
    </clipPath>
    <clipPath id="clip-path-9">
      <rect id="Rectángulo_284" data-name="Rectángulo 284" width="71.96" height="138.22" fill="none"/>
    </clipPath>
  </defs>
  <g id="Grupo_667" data-name="Grupo 667" transform="translate(-91.025 -122)">
    <g id="Grupo_359" data-name="Grupo 359" clip-path="url(#clip-path)">
      <g id="Grupo_342" data-name="Grupo 342">
        <g id="Grupo_341" data-name="Grupo 341" clip-path="url(#clip-path-2)">
          <path id="Trazado_1058" data-name="Trazado 1058" d="M440.2,444.449c-24.334,6.746-70.3,53.752-41.8,75.8s113.638-95.712,41.8-75.8" transform="translate(-72.372 -82.185)" fill="#ecf2fa"/>
          <path id="Trazado_1059" data-name="Trazado 1059" d="M403.818,391.692c-103.16,21.025-72.21,74.7-141.039,87.342-92.867,17.057-136.415-122.2-78.193-208.151,46.525-68.679,126.784-90.376,197.9-62.172C482.925,248.552,485.244,375.1,403.818,391.692" transform="translate(-29.407 -36.558)" fill="#fff"/>
        </g>
      </g>
      <g id="Grupo_344" data-name="Grupo 344" transform="translate(91.025 135.532)">
        <g id="Grupo_343" data-name="Grupo 343" clip-path="url(#clip-path-3)">
          <line id="Línea_101" data-name="Línea 101" x1="275.087" y1="173.42" transform="translate(-89.288 59.11)" fill="none" stroke="#f3ad13" stroke-miterlimit="10" stroke-width="8"/>
          <line id="Línea_102" data-name="Línea 102" x1="275.087" y1="173.419" transform="translate(-82.921 49.012)" fill="none" stroke="#f3ad13" stroke-miterlimit="10" stroke-width="8"/>
          <line id="Línea_103" data-name="Línea 103" x1="275.087" y1="173.419" transform="translate(-76.554 38.912)" fill="none" stroke="#f3ad13" stroke-miterlimit="10" stroke-width="8"/>
          <line id="Línea_104" data-name="Línea 104" x1="275.087" y1="173.419" transform="translate(-70.188 28.813)" fill="none" stroke="#f3ad13" stroke-miterlimit="10" stroke-width="8"/>
          <line id="Línea_105" data-name="Línea 105" x1="275.088" y1="173.42" transform="translate(-63.822 18.713)" fill="none" stroke="#f3ad13" stroke-miterlimit="10" stroke-width="8"/>
          <line id="Línea_106" data-name="Línea 106" x1="275.087" y1="173.42" transform="translate(-57.454 8.613)" fill="none" stroke="#f3ad13" stroke-miterlimit="10" stroke-width="8"/>
          <line id="Línea_107" data-name="Línea 107" x1="275.087" y1="173.42" transform="translate(-51.087 -1.486)" fill="none" stroke="#f3ad13" stroke-miterlimit="10" stroke-width="8"/>
          <line id="Línea_108" data-name="Línea 108" x1="275.088" y1="173.42" transform="translate(-44.721 -11.585)" fill="none" stroke="#f3ad13" stroke-miterlimit="10" stroke-width="8"/>
          <line id="Línea_109" data-name="Línea 109" x1="275.087" y1="173.42" transform="translate(-38.353 -21.685)" fill="none" stroke="#f3ad13" stroke-miterlimit="10" stroke-width="8"/>
          <line id="Línea_110" data-name="Línea 110" x1="275.087" y1="173.42" transform="translate(-31.987 -31.784)" fill="none" stroke="#f3ad13" stroke-miterlimit="10" stroke-width="8"/>
          <line id="Línea_111" data-name="Línea 111" x1="275.088" y1="173.42" transform="translate(-25.621 -41.883)" fill="none" stroke="#f3ad13" stroke-miterlimit="10" stroke-width="8"/>
          <line id="Línea_112" data-name="Línea 112" x1="275.087" y1="173.42" transform="translate(-19.253 -51.983)" fill="none" stroke="#f3ad13" stroke-miterlimit="10" stroke-width="8"/>
          <line id="Línea_113" data-name="Línea 113" x1="275.087" y1="173.42" transform="translate(-12.886 -62.082)" fill="none" stroke="#f3ad13" stroke-miterlimit="10" stroke-width="8"/>
          <line id="Línea_114" data-name="Línea 114" x1="275.087" y1="173.42" transform="translate(-6.519 -72.181)" fill="none" stroke="#f3ad13" stroke-miterlimit="10" stroke-width="8"/>
          <line id="Línea_115" data-name="Línea 115" x1="275.087" y1="173.42" transform="translate(-0.153 -82.281)" fill="none" stroke="#f3ad13" stroke-miterlimit="10" stroke-width="8"/>
          <line id="Línea_116" data-name="Línea 116" x1="275.087" y1="173.42" transform="translate(6.214 -92.38)" fill="none" stroke="#f3ad13" stroke-miterlimit="10" stroke-width="8"/>
          <line id="Línea_117" data-name="Línea 117" x1="275.087" y1="173.419" transform="translate(12.581 -102.479)" fill="none" stroke="#f3ad13" stroke-miterlimit="10" stroke-width="8"/>
          <line id="Línea_118" data-name="Línea 118" x1="275.088" y1="173.419" transform="translate(18.947 -112.578)" fill="none" stroke="#f3ad13" stroke-miterlimit="10" stroke-width="8"/>
          <line id="Línea_119" data-name="Línea 119" x1="275.087" y1="173.419" transform="translate(25.315 -122.677)" fill="none" stroke="#f3ad13" stroke-miterlimit="10" stroke-width="8"/>
          <line id="Línea_120" data-name="Línea 120" x1="275.087" y1="173.419" transform="translate(31.681 -132.777)" fill="none" stroke="#f3ad13" stroke-miterlimit="10" stroke-width="8"/>
        </g>
      </g>
      <g id="Grupo_346" data-name="Grupo 346">
        <g id="Grupo_345" data-name="Grupo 345" clip-path="url(#clip-path-2)">
          <rect id="Rectángulo_256" data-name="Rectángulo 256" width="303.721" height="1.702" transform="translate(133.178 443.908)" fill="#2e3433"/>
        </g>
      </g>
      <g id="Grupo_348" data-name="Grupo 348" transform="translate(104.936 193.554)">
        <g id="Grupo_347" data-name="Grupo 347" clip-path="url(#clip-path-5)">
          <path id="Trazado_1061" data-name="Trazado 1061" d="M399.089,264.379v264a20.1,20.1,0,0,1-20.083,20.077H326.2v-.039H259.57a20.109,20.109,0,0,1-18.881-20.038v-264A20.1,20.1,0,0,1,260.772,244.3H379.006a20.1,20.1,0,0,1,20.083,20.076" transform="translate(-149.672 -238.962)" fill="#2e3433"/>
          <path id="Trazado_1062" data-name="Trazado 1062" d="M389.81,264.379v264a20.1,20.1,0,0,1-20.083,20.077H316.922v-.039H250.291a20.109,20.109,0,0,1-18.881-20.038v-264A20.105,20.105,0,0,1,251.493,244.3H369.727a20.1,20.1,0,0,1,20.083,20.076" transform="translate(-147.947 -238.962)" fill="#dbe0e6"/>
          <path id="Trazado_1063" data-name="Trazado 1063" d="M389.81,264.379v264a20.1,20.1,0,0,1-20.083,20.077H316.922v-.039H250.291a20.109,20.109,0,0,1-18.881-20.038v-264A20.105,20.105,0,0,1,251.493,244.3H369.727A20.1,20.1,0,0,1,389.81,264.379Z" transform="translate(-147.947 -238.962)" fill="none" stroke="#2e3433" stroke-miterlimit="10" stroke-width="1"/>
          <path id="Trazado_1064" data-name="Trazado 1064" d="M386.367,265.395v264a15.615,15.615,0,0,1-15.619,15.612H252.51A15.613,15.613,0,0,1,236.9,529.4v-264a15.614,15.614,0,0,1,15.612-15.612H370.748a15.615,15.615,0,0,1,15.619,15.612" transform="translate(-148.967 -239.98)" fill="#fff"/>
          <path id="Trazado_1065" data-name="Trazado 1065" d="M386.367,265.395v264a15.615,15.615,0,0,1-15.619,15.612H252.51A15.613,15.613,0,0,1,236.9,529.4v-264a15.614,15.614,0,0,1,15.612-15.612H370.748A15.615,15.615,0,0,1,386.367,265.395Z" transform="translate(-148.967 -239.98)" fill="none" stroke="#2e3433" stroke-miterlimit="10" stroke-width="1"/>
          <path id="Trazado_1066" data-name="Trazado 1066" d="M342.821,252.978h-36.81a1.487,1.487,0,0,0,0,2.974h36.81a1.487,1.487,0,1,0,0-2.974" transform="translate(-161.537 -240.574)" fill="#2e3433"/>
          <rect id="Rectángulo_258" data-name="Rectángulo 258" width="6.975" height="0.883" transform="translate(101.538 28.606) rotate(-45.001)" fill="#2e3433"/>
          <rect id="Rectángulo_259" data-name="Rectángulo 259" width="0.883" height="6.976" transform="translate(101.538 24.298) rotate(-45)" fill="#2e3433"/>
          <rect id="Rectángulo_260" data-name="Rectángulo 260" width="7.913" height="0.883" transform="translate(215.47 27.638)" fill="#2e3433"/>
          <path id="Trazado_1067" data-name="Trazado 1067" d="M223.209,513.45l9.066,10.916a48.265,48.265,0,0,1-29.363-2.2q-16.85-6.529-31.362-24-14.043-16.91-18.544-33.955t1.667-32.3a65.535,65.535,0,0,1,19.285-26.145A71.365,71.365,0,0,1,206.446,390.3a58.264,58.264,0,0,1,34.144,3.163q16.058,6.667,28.7,21.886,10.725,12.913,14.045,27.129a46.162,46.162,0,0,1-1.527,27.2,51.912,51.912,0,0,1-15.81,22.094,49.42,49.42,0,0,1-30.305,11.574q-21.709.968-34.816-14.814-3.534-4.256-3.835-7.641a9.338,9.338,0,0,1,1.973-6.486,25.32,25.32,0,0,1-17.418-9.087,24.323,24.323,0,0,1-5.856-18.99q1.207-10.483,10.944-18.57a49.7,49.7,0,0,1,27.6-11.495q18.9-1.844,29.542,10.967,7.574,9.121,4.223,19.265l6.752-3.441,11.236,13.529L222.867,479.36a38.986,38.986,0,0,0-5.105,3.028,3.586,3.586,0,0,0-1.433,2.184,2.406,2.406,0,0,0,.531,1.943q2.042,2.458,8.249,3.884a36.869,36.869,0,0,0,17.476-.225,39.529,39.529,0,0,0,16.262-8.049,35.913,35.913,0,0,0,13.511-26.634q.9-16.164-12.671-32.512-11.532-13.886-25.217-18.843a46.734,46.734,0,0,0-28.024-1.319,63.941,63.941,0,0,0-25.46,12.873,47.836,47.836,0,0,0-15.145,21.8,41.251,41.251,0,0,0-.214,26.069q4.117,13.248,14.672,25.956,10.171,12.247,20.9,18.232a42.435,42.435,0,0,0,22.011,5.7m-24.943-72.887q-6.509,5.406-7.391,10.6a10.76,10.76,0,0,0,2.35,9.087,14.354,14.354,0,0,0,5.99,4.291,17.574,17.574,0,0,0,6.421,1.163q5.379.118,13.015-2.888a46.631,46.631,0,0,0,12.81-7.3q5.79-4.808,6.656-10.075a11.184,11.184,0,0,0-2.539-9.364,15.433,15.433,0,0,0-10.173-5.318q-6.518-.91-14.393,2.427a51.228,51.228,0,0,0-12.746,7.382" transform="translate(-133.022 -265.874)" fill="#f5b015"/>
          <path id="Trazado_1068" data-name="Trazado 1068" d="M371.612,420.5H259.366a8.029,8.029,0,0,1-8.029-8.029V311.938a6.523,6.523,0,0,1,6.522-6.523h115.26a6.523,6.523,0,0,1,6.522,6.523V412.474a8.029,8.029,0,0,1-8.029,8.029" transform="translate(-151.651 -250.32)" fill="#fff"/>
          <path id="Trazado_1069" data-name="Trazado 1069" d="M370.651,421.154H259.941a9.654,9.654,0,0,1-9.643-9.643V312.367a8,8,0,0,1,7.992-7.992H372.3a8,8,0,0,1,7.992,7.992v99.144a9.655,9.655,0,0,1-9.643,9.643M258.29,306.067a6.307,6.307,0,0,0-6.3,6.3v99.144a7.96,7.96,0,0,0,7.951,7.951H370.651a7.959,7.959,0,0,0,7.951-7.951V312.367a6.307,6.307,0,0,0-6.3-6.3Z" transform="translate(-151.458 -250.127)" fill="#96999e"/>
          <path id="Trazado_1070" data-name="Trazado 1070" d="M389.538,311.491a1.106,1.106,0,1,0,1.106,1.106,1.107,1.107,0,0,0-1.106-1.106" transform="translate(-177.132 -251.449)" fill="#2e3433"/>
          <path id="Trazado_1071" data-name="Trazado 1071" d="M395.272,311.491a1.106,1.106,0,1,0,1.106,1.106,1.106,1.106,0,0,0-1.106-1.106" transform="translate(-178.198 -251.449)" fill="#2e3433"/>
          <path id="Trazado_1072" data-name="Trazado 1072" d="M401.007,311.491a1.106,1.106,0,1,0,1.106,1.106,1.106,1.106,0,0,0-1.106-1.106" transform="translate(-179.264 -251.449)" fill="#2e3433"/>
          <path id="Trazado_1073" data-name="Trazado 1073" d="M387.077,320.53h0Z" transform="translate(-159.503 -253.13)" fill="#fff"/>
          <rect id="Rectángulo_261" data-name="Rectángulo 261" width="93.497" height="1.641" transform="translate(134.076 66.58)" fill="#96999e"/>
          <rect id="Rectángulo_262" data-name="Rectángulo 262" width="110.287" height="1.606" transform="translate(108.408 119.614)" fill="#2e3433"/>
          <rect id="Rectángulo_263" data-name="Rectángulo 263" width="15.215" height="1.607" transform="translate(108.408 113.962)" fill="#2e3433"/>
          <rect id="Rectángulo_264" data-name="Rectángulo 264" width="73.169" height="1.607" transform="translate(130.206 113.962)" fill="#2e3433"/>
          <rect id="Rectángulo_265" data-name="Rectángulo 265" width="94.417" height="1.607" transform="translate(108.408 108.308)" fill="#2e3433"/>
          <rect id="Rectángulo_266" data-name="Rectángulo 266" width="15.748" height="1.607" transform="translate(207.101 108.308)" fill="#2e3433"/>
          <rect id="Rectángulo_267" data-name="Rectángulo 267" width="110.287" height="1.607" transform="translate(108.022 136.347)" fill="#2e3433"/>
          <rect id="Rectángulo_268" data-name="Rectángulo 268" width="15.215" height="1.606" transform="translate(108.022 130.695)" fill="#2e3433"/>
          <rect id="Rectángulo_269" data-name="Rectángulo 269" width="73.17" height="1.606" transform="translate(129.82 130.695)" fill="#2e3433"/>
          <rect id="Rectángulo_270" data-name="Rectángulo 270" width="94.417" height="1.607" transform="translate(108.022 125.042)" fill="#2e3433"/>
          <rect id="Rectángulo_271" data-name="Rectángulo 271" width="15.749" height="1.607" transform="translate(206.714 125.042)" fill="#2e3433"/>
          <rect id="Rectángulo_272" data-name="Rectángulo 272" width="51.805" height="1.607" transform="translate(108.023 153.768)" fill="#2e3433"/>
          <rect id="Rectángulo_273" data-name="Rectángulo 273" width="15.215" height="1.606" transform="translate(108.022 148.116)" fill="#2e3433"/>
          <rect id="Rectángulo_274" data-name="Rectángulo 274" width="94.417" height="1.607" transform="translate(108.022 142.463)" fill="#2e3433"/>
          <rect id="Rectángulo_275" data-name="Rectángulo 275" width="35.953" height="2.943" transform="translate(142.176 89.378)" fill="#f5b015"/>
          <rect id="Rectángulo_276" data-name="Rectángulo 276" width="77.614" height="2.943" transform="translate(142.176 83.315)" fill="#f5b015"/>
          <path id="Trazado_1074" data-name="Trazado 1074" d="M277.964,348.023l.021,1.326-1.2.019-.02-1.278a3.8,3.8,0,0,1-2.813-1.068L275,345.938a2.7,2.7,0,0,0,1.894.681l-.035-2.144-.379-.041a2.833,2.833,0,0,1-1.645-.685,2.2,2.2,0,0,1-.631-1.636,2.509,2.509,0,0,1,2.422-2.574l-.017-1.066,1.2-.02.017,1.054a3.457,3.457,0,0,1,2.349.933l-1.026,1.047a2.362,2.362,0,0,0-1.465-.545l.033,2.061.451.064a2.869,2.869,0,0,1,1.621.637,2.331,2.331,0,0,1,.68,1.766,2.557,2.557,0,0,1-2.505,2.552m-1.156-7.053a1.05,1.05,0,0,0-1.014,1.058.814.814,0,0,0,.258.6,1.4,1.4,0,0,0,.787.319Zm1.78,3.868a1.431,1.431,0,0,0-.846-.294l.033,2.036c.709-.094,1.094-.456,1.084-1.036a.938.938,0,0,0-.272-.707" transform="translate(-155.855 -256.461)" fill="#d8143b"/>
          <path id="Trazado_1075" data-name="Trazado 1075" d="M279.531,329.235a.544.544,0,0,1-.6.458h-2.775a.544.544,0,0,1-.6-.458v-1.628a.544.544,0,0,1,.6-.458h2.775a.544.544,0,0,1,.6.458Z" transform="translate(-156.153 -254.36)" fill="#f5b015"/>
          <path id="Trazado_1076" data-name="Trazado 1076" d="M275.583,350.619a7.969,7.969,0,0,1,0-15.938,1.327,1.327,0,1,0,0-2.654,10.623,10.623,0,0,0,0,21.246,1.327,1.327,0,1,0,0-2.654" transform="translate(-154.183 -255.266)" fill="#d8143b"/>
          <rect id="Rectángulo_277" data-name="Rectángulo 277" width="1.705" height="1.642" transform="translate(130.935 86.533)" fill="#f5b015"/>
          <path id="Trazado_1077" data-name="Trazado 1077" d="M288.729,344.851a.821.821,0,1,0,.821-.821.82.82,0,0,0-.821.821" transform="translate(-158.601 -257.497)" fill="#f5b015"/>
          <path id="Trazado_1078" data-name="Trazado 1078" d="M290.746,344.851a.821.821,0,1,0,.821-.821.82.82,0,0,0-.821.821" transform="translate(-158.976 -257.497)" fill="#f5b015"/>
          <rect id="Rectángulo_278" data-name="Rectángulo 278" width="1.705" height="1.642" transform="translate(129.134 81.944) rotate(-36.963)" fill="#f5b015"/>
          <path id="Trazado_1079" data-name="Trazado 1079" d="M287.284,339.494a.821.821,0,1,0,.162-1.15.821.821,0,0,0-.162,1.15" transform="translate(-158.302 -256.41)" fill="#f5b015"/>
          <path id="Trazado_1080" data-name="Trazado 1080" d="M288.9,338.282a.821.821,0,1,0,.162-1.15.821.821,0,0,0-.162,1.15" transform="translate(-158.601 -256.185)" fill="#f5b015"/>
          <rect id="Rectángulo_279" data-name="Rectángulo 279" width="1.704" height="1.642" transform="translate(125.182 78.883) rotate(-60.618)" fill="#f5b015"/>
          <path id="Trazado_1081" data-name="Trazado 1081" d="M282.951,335.641a.821.821,0,1,0-.313-1.118.821.821,0,0,0,.313,1.118" transform="translate(-157.449 -255.653)" fill="#f5b015"/>
          <path id="Trazado_1082" data-name="Trazado 1082" d="M283.939,333.884a.821.821,0,1,0-.313-1.118.821.821,0,0,0,.313,1.118" transform="translate(-157.633 -255.326)" fill="#f5b015"/>
          <rect id="Rectángulo_280" data-name="Rectángulo 280" width="1.642" height="1.704" transform="translate(129.21 92.557) rotate(-58.596)" fill="#f5b015"/>
          <path id="Trazado_1083" data-name="Trazado 1083" d="M287.254,349.962a.821.821,0,1,0,1.128-.273.821.821,0,0,0-1.128.273" transform="translate(-158.304 -258.527)" fill="#f5b015"/>
          <path id="Trazado_1084" data-name="Trazado 1084" d="M288.975,351.012a.821.821,0,1,0,1.128-.273.821.821,0,0,0-1.128.273" transform="translate(-158.624 -258.722)" fill="#f5b015"/>
          <rect id="Rectángulo_281" data-name="Rectángulo 281" width="1.642" height="1.704" transform="matrix(0.86, -0.511, 0.511, 0.86, 125.232, 95.396)" fill="#f5b015"/>
          <path id="Trazado_1085" data-name="Trazado 1085" d="M282.985,353.524a.821.821,0,1,0,1.125.287.821.821,0,0,0-1.125-.287" transform="translate(-157.459 -259.24)" fill="#f5b015"/>
          <path id="Trazado_1086" data-name="Trazado 1086" d="M284.015,355.257a.821.821,0,1,0,1.125.287.821.821,0,0,0-1.125-.287" transform="translate(-157.65 -259.562)" fill="#f5b015"/>
        </g>
      </g>
      <g id="Grupo_353" data-name="Grupo 353">
        <g id="Grupo_352" data-name="Grupo 352" clip-path="url(#clip-path-2)">
          <g id="Grupo_351" data-name="Grupo 351" transform="translate(207.167 244.682)" opacity="0.3" style="mix-blend-mode: multiply;isolation: isolate">
            <g id="Grupo_350" data-name="Grupo 350">
              <g id="Grupo_349" data-name="Grupo 349" clip-path="url(#clip-path-7)">
                <path id="Trazado_1088" data-name="Trazado 1088" d="M382.156,301.746c-13.156,4.23-11.567,12.392-11.567,12.392s-3.657,1.668-2.922,8.02c.7,6.05,4.866,12.293,5.256,12.865.593,9.159,3.247,21.891,12.249,22.992.059.459.148.948.261,1.461l.178,1.491a45.929,45.929,0,0,0-21.784,9.288,31.214,31.214,0,0,0-6.435,5.813c-2.092,2.473-5.044,6.293-8.335,10.69-3.025-2.2-6.227-4.234-7.886-4.668a.808.808,0,0,0-.114-.064c-4.629-1.964-14.242-3.164-18.3-4.21-1.786-.458-3.406,1.091-.449,3.238,3.573,2.591,9.446,4.816,13.285,5.773a15.163,15.163,0,0,1-2.65,5.7c-2.048,2.582-.558,5.65-1.091,8.607-.335,1.875.943,3.681,2.952,5.162-5.981,8.345-10.636,14.982-10.636,14.982a30.78,30.78,0,0,0,1.663,5.513c-.182.32-.37.646-.553.972-11.444-9.692-24.324-20.816-29.22-28.149.148-.756.588-4.19-2.161-8.38l-.074.044a42.7,42.7,0,0,1-3.3-5.665,16.14,16.14,0,0,1-1.317-4.906c-.178-1.465-1.146-1.791-2.1-1.115l-1.781-14.182a3.307,3.307,0,0,0-3.533-3.148l-18.225,2.718-3.854.543a3.505,3.505,0,0,0-2.635,4.067l1.307,10.392a9.321,9.321,0,0,0-2.329,2.074c-3.662,4.382.089,5.922.335,6.02l.015.01c-4.041,3.81,1.106,6.12,1.106,6.12-3.242,3.568.331,5.6.331,5.6-.746,5.034,2.561,6.583,3.9,7l.948,7.566a3.314,3.314,0,0,0,3.533,3.143l1.145-.182a1.707,1.707,0,0,0,.282-.006,1.542,1.542,0,0,0,.212-.024l15.486-2.31a16.143,16.143,0,0,0,4.061,3.13c8.735,15.274,23.279,39.761,31.885,49.156,7.8,8.508,14.993,7.99,20.037,3.607a42.041,42.041,0,0,0,5.083-3.271c-.36,2.556-.646,4.164-.651,4.209l.962.173c.01-.055.366-2.077.795-5.221.212-.163.424-.335.637-.5-.4,13.3-.937,25.39-2.023,33.494l49.957-.016V301.268c-2.893-.923-6.826-1.165-11.938.478m-9.376,28.53-.029-.8a.317.317,0,0,0,.045,0c-.006.266-.01.538-.016.809" transform="translate(-254.463 -300.543)" fill="#ccc"/>
              </g>
            </g>
          </g>
          <path id="Trazado_1089" data-name="Trazado 1089" d="M468.854,254.216c-2.714,1.332-3.027,8.2-3.077,11.218a11.435,11.435,0,0,0,2.235,6.522c1.92,2.807,6.658,5.616,8.662,6.525,1.917.869,2.3-1.08,3.7-2.646a10.653,10.653,0,0,0,2.354-5.756c.551-4.068-.458-8.667-3.747-11.124-2.421-1.809-7.415-6.071-10.129-4.74" transform="translate(-86.572 -47.203)" fill="#96999e"/>
          <path id="Trazado_1090" data-name="Trazado 1090" d="M477.447,278.991a2.477,2.477,0,0,1-1.018-.249c-2.017-.915-6.829-3.746-8.82-6.657a11.8,11.8,0,0,1-2.3-6.743c.112-6.651,1.22-10.538,3.292-11.554,2.623-1.284,6.848,1.956,9.643,4.1.321.247.617.475.883.672,3.65,2.727,4.406,7.718,3.9,11.481A10.929,10.929,0,0,1,480.574,276a11.229,11.229,0,0,0-.94,1.259c-.576.853-1.167,1.729-2.186,1.729m-7.491-24.737a2.3,2.3,0,0,0-1.022.217c-1.743.856-2.761,4.72-2.864,10.883a11.04,11.04,0,0,0,2.169,6.3c1.881,2.75,6.629,5.542,8.505,6.393,1.058.478,1.456-.025,2.256-1.212a12.013,12.013,0,0,1,1.005-1.342,10.189,10.189,0,0,0,2.259-5.552c.48-3.547-.212-8.239-3.6-10.767-.268-.2-.567-.43-.891-.679-2.139-1.644-5.517-4.241-7.821-4.241" transform="translate(-86.485 -47.116)" fill="#2e3433"/>
          <path id="Trazado_1091" data-name="Trazado 1091" d="M500.177,295.047a13.119,13.119,0,0,0-3.446-.262,12.292,12.292,0,0,0-7.982,4.4,36.5,36.5,0,0,0-4.908,7.917l.012,1.8a21.993,21.993,0,0,0,13.915,2.475,9.55,9.55,0,0,0,3.017-.9c2.3-1.215,3.565-3.729,4.558-6.134.682-1.652,4.112-4.718,3.593-6.428-.738-2.43-6.266-2.392-8.76-2.868" transform="translate(-89.93 -54.785)" fill="#96999e"/>
          <path id="Trazado_1092" data-name="Trazado 1092" d="M494.364,311.922a22.3,22.3,0,0,1-10.783-2.777l-.2-.108-.015-2.113.042-.083a36.786,36.786,0,0,1,4.962-8,12.568,12.568,0,0,1,8.239-4.524,13.345,13.345,0,0,1,3.546.267c.54.1,1.247.184,2,.27,2.856.326,6.411.732,7.056,2.862.389,1.279-.9,2.941-2.148,4.549a11.84,11.84,0,0,0-1.457,2.136c-1.049,2.541-2.348,5.066-4.733,6.325a9.939,9.939,0,0,1-3.138.935,21.928,21.928,0,0,1-3.375.26m-10.218-3.338a21.535,21.535,0,0,0,13.476,2.324,9.244,9.244,0,0,0,2.9-.856c2.17-1.147,3.389-3.533,4.383-5.942a12.19,12.19,0,0,1,1.56-2.314c1.023-1.318,2.3-2.958,2.021-3.858-.5-1.651-3.918-2.041-6.413-2.327-.765-.087-1.487-.169-2.054-.278a12.583,12.583,0,0,0-3.346-.256,11.814,11.814,0,0,0-7.725,4.27,35.8,35.8,0,0,0-4.811,7.754Z" transform="translate(-89.842 -54.699)" fill="#2e3433"/>
          <path id="Trazado_1093" data-name="Trazado 1093" d="M466.178,291.739c-2.7-.731-6.927-1.251-8.411,1.12-1.018,1.627.049,4.518.835,6.271,1.53,3.42,4.824,5.8,8.351,7.067A42.029,42.029,0,0,0,478,308.051l.607-.3a17.328,17.328,0,0,0-12.433-16.009" transform="translate(-85.006 -54.11)" fill="#96999e"/>
          <path id="Trazado_1094" data-name="Trazado 1094" d="M477.995,308.351l-.106-.007a42.319,42.319,0,0,1-11.152-1.876c-4.086-1.469-7.129-4.051-8.57-7.27-1.373-3.065-1.645-5.3-.81-6.629,1.777-2.84,6.771-1.846,8.833-1.286A17.746,17.746,0,0,1,478.9,307.654l0,.239Zm-16.108-16.935c-1.573,0-3.13.354-3.883,1.557-.475.76-.713,2.4.859,5.913a13.79,13.79,0,0,0,8.131,6.865,41.4,41.4,0,0,0,10.848,1.824l.294-.147a16.594,16.594,0,0,0-16.249-16.011" transform="translate(-84.919 -54.022)" fill="#2e3433"/>
          <path id="Trazado_1095" data-name="Trazado 1095" d="M464.5,325.278a11.109,11.109,0,0,0-3.754-2.525,7.787,7.787,0,0,0-6.616,1.18,8.578,8.578,0,0,0-2.626,11.934,13.39,13.39,0,0,0,8.014,5.953,25.185,25.185,0,0,0,10.154.488l.566-1.1c.226-3.45.422-7.069-1.036-10.206a18.777,18.777,0,0,0-4.7-5.724" transform="translate(-83.685 -59.931)" fill="#96999e"/>
          <path id="Trazado_1096" data-name="Trazado 1096" d="M465.346,342.89a21.483,21.483,0,0,1-6.021-.788,13.784,13.784,0,0,1-8.24-6.132,8.962,8.962,0,0,1,2.748-12.44,8.156,8.156,0,0,1,6.949-1.223,11.336,11.336,0,0,1,3.888,2.6h0a19.223,19.223,0,0,1,4.791,5.846c1.534,3.3,1.288,7.067,1.071,10.391l-.042.15-.657,1.279-.2.025a34.228,34.228,0,0,1-4.288.288m-6.651-20.15a8.186,8.186,0,0,0-4.441,1.426,8.2,8.2,0,0,0-2.5,11.428,13.015,13.015,0,0,0,7.788,5.775,24.486,24.486,0,0,0,9.8.5l.437-.851c.21-3.213.435-6.842-1.005-9.941a18.61,18.61,0,0,0-4.614-5.6h0a10.745,10.745,0,0,0-3.62-2.445,5.78,5.78,0,0,0-1.843-.29" transform="translate(-83.597 -59.845)" fill="#2e3433"/>
          <path id="Trazado_1097" data-name="Trazado 1097" d="M495.579,334.485c-4.119-.719-8.449-.95-12.211.873s-10.438,9.707-7.6,10.519c3.225.923,12.7,4.277,15.982,3.574,2.688-.576,9.881-5.3,10.051-6.22.395-2.134-2.994-8.183-6.227-8.746" transform="translate(-88.303 -62.07)" fill="#96999e"/>
          <path id="Trazado_1098" data-name="Trazado 1098" d="M490.588,349.841c-3.189,0-8.817-1.762-12.7-2.976-.927-.291-1.722-.539-2.308-.708a1.246,1.246,0,0,1-.956-1.151c-.214-2.472,5.157-8.464,8.49-10.078,4.138-2,8.824-1.537,12.443-.905,1.969.343,3.64,2.375,4.461,3.556,1.45,2.084,2.3,4.4,2.075,5.635-.226,1.215-7.768,5.971-10.347,6.523a5.607,5.607,0,0,1-1.159.1m-.5-15.6a15.1,15.1,0,0,0-6.638,1.372c-3.182,1.54-8.231,7.38-8.063,9.325a.489.489,0,0,0,.405.484c.592.169,1.392.42,2.327.712,4.073,1.275,10.889,3.4,13.471,2.855,2.684-.576,9.461-5.17,9.761-5.935.183-1-.656-3.173-1.956-5.042-1.282-1.843-2.728-3.024-3.966-3.24a31.228,31.228,0,0,0-5.341-.531" transform="translate(-88.215 -61.982)" fill="#2e3433"/>
          <path id="Trazado_1099" data-name="Trazado 1099" d="M447.542,353.3a6.031,6.031,0,0,0-3.782,2.333c-1.426,2.152-.651,5.054.49,7.37a28,28,0,0,0,12.438,12.526l1.025-.046a30.786,30.786,0,0,0,1.912-11.3,14.886,14.886,0,0,0-.656-4.451,10.138,10.138,0,0,0-11.427-6.43" transform="translate(-82.336 -65.626)" fill="#96999e"/>
          <path id="Trazado_1100" data-name="Trazado 1100" d="M456.519,375.824l-.089-.044a28.316,28.316,0,0,1-12.609-12.7c-1.09-2.211-2.056-5.35-.466-7.749a6.379,6.379,0,0,1,4.016-2.494,10.539,10.539,0,0,1,11.873,6.681,15.6,15.6,0,0,1,.676,4.564,31.415,31.415,0,0,1-1.936,11.442l-.088.237ZM449.4,353.378a8.477,8.477,0,0,0-1.864.2,5.631,5.631,0,0,0-3.547,2.171c-1.391,2.1-.488,4.959.514,6.99a27.563,27.563,0,0,0,12.179,12.309l.672-.03a30.634,30.634,0,0,0,1.8-10.923,14.161,14.161,0,0,0-.636-4.337,9.821,9.821,0,0,0-9.118-6.384" transform="translate(-82.249 -65.54)" fill="#2e3433"/>
          <path id="Trazado_1101" data-name="Trazado 1101" d="M478.26,365.825a16.413,16.413,0,0,0-4.1.166,13.911,13.911,0,0,0-7.136,4.475c-1.947,2.087-3.554,4.468-5.477,6.577l.344.181c1.443,3.16,5.307,4.274,8.727,4.88,4.175.739,8.951,1.1,12.18-1.645a11.515,11.515,0,0,0,3.317-5.758,7.577,7.577,0,0,0-.047-5.359c-1.325-2.692-4.811-3.361-7.807-3.516" transform="translate(-85.786 -67.985)" fill="#96999e"/>
          <path id="Trazado_1102" data-name="Trazado 1102" d="M475.612,382.924a30.143,30.143,0,0,1-5.2-.532c-3.343-.592-7.367-1.693-8.952-4.978l-.667-.35.332-.366c.915-1,1.776-2.092,2.608-3.146.91-1.15,1.85-2.339,2.872-3.434a14.157,14.157,0,0,1,7.339-4.588,16.87,16.87,0,0,1,4.2-.173c4.347.226,7.006,1.445,8.129,3.729.711,1.445.734,3.287.072,5.631a11.667,11.667,0,0,1-3.437,5.944,10.957,10.957,0,0,1-7.292,2.262m-13.594-6.078.024.013.055.119c1.4,3.054,5.247,4.1,8.447,4.663,3.866.684,8.708,1.125,11.866-1.56a10.951,10.951,0,0,0,3.2-5.572c.61-2.154.6-3.817-.023-5.086-.99-2.013-3.437-3.094-7.483-3.3a16.3,16.3,0,0,0-4.006.16,13.431,13.431,0,0,0-6.932,4.361c-1,1.071-1.931,2.249-2.831,3.386-.741.939-1.5,1.9-2.314,2.82" transform="translate(-85.646 -67.898)" fill="#2e3433"/>
          <path id="Trazado_1103" data-name="Trazado 1103" d="M446.682,390.631a19.5,19.5,0,0,0-4.453-6.237,11.6,11.6,0,0,0-12.681-1.347c-1.983,1.064-3.72,2.915-3.917,5.157-.261,2.954,2.1,5.419,4.319,7.387,3.182,2.824,7.013,5.728,11.229,5.149a15.35,15.35,0,0,0,3.393-1.016l3.117-1.2.575-.342a9.982,9.982,0,0,0-.2-4.17,17.34,17.34,0,0,0-1.387-3.378" transform="translate(-79.107 -70.955)" fill="#96999e"/>
          <path id="Trazado_1104" data-name="Trazado 1104" d="M439.977,401.107c-3.81,0-7.226-2.534-10.368-5.321-2.35-2.086-4.716-4.632-4.446-7.706a7.256,7.256,0,0,1,4.116-5.46,11.933,11.933,0,0,1,13.109,1.393,19.8,19.8,0,0,1,4.547,6.355,17.907,17.907,0,0,1,1.415,3.454,10.425,10.425,0,0,1,.2,4.329l-.028.175-.726.433-3.177,1.23a15.652,15.652,0,0,1-3.478,1.037,8.475,8.475,0,0,1-1.167.081m-5.221-19.073a10.818,10.818,0,0,0-5.115,1.259,6.511,6.511,0,0,0-3.718,4.854c-.24,2.737,1.985,5.109,4.193,7.067,3.323,2.95,6.939,5.6,10.925,5.057a15.036,15.036,0,0,0,3.307-.994l3.117-1.2.363-.22a9.672,9.672,0,0,0-.215-3.839,17.21,17.21,0,0,0-1.358-3.3,19.134,19.134,0,0,0-4.36-6.118,11.057,11.057,0,0,0-7.138-2.561" transform="translate(-79.02 -70.866)" fill="#2e3433"/>
          <path id="Trazado_1105" data-name="Trazado 1105" d="M469.768,395.772a22.412,22.412,0,0,0-17.072,6.376l1.884.023a6.875,6.875,0,0,0,2.963,6.135,17.626,17.626,0,0,0,6.573,2.671c3.083.743,6.593,1.25,9.211-.541,2.152-1.471,3.13-4.145,3.586-6.711a7.67,7.67,0,0,0-.1-3.993c-.988-2.674-4.2-3.768-7.042-3.96" transform="translate(-84.141 -73.552)" fill="#96999e"/>
          <path id="Trazado_1106" data-name="Trazado 1106" d="M468.662,411.955a21.017,21.017,0,0,1-4.842-.694,18.044,18.044,0,0,1-6.713-2.736,7.415,7.415,0,0,1-3.154-6.064l-2.378-.029.645-.641a22.782,22.782,0,0,1,17.366-6.487c3.738.253,6.494,1.826,7.374,4.209a8.005,8.005,0,0,1,.122,4.193c-.591,3.321-1.851,5.662-3.747,6.958a8.088,8.088,0,0,1-4.673,1.291m-15.231-10.263,1.377.016-.059.428a6.492,6.492,0,0,0,2.816,5.778A17.4,17.4,0,0,0,464,410.52c3,.721,6.4,1.228,8.907-.486,1.72-1.176,2.872-3.35,3.427-6.463a7.331,7.331,0,0,0-.087-3.795c-1.145-3.1-5.425-3.625-6.709-3.711a22.027,22.027,0,0,0-16.1,5.626" transform="translate(-83.932 -73.465)" fill="#2e3433"/>
          <path id="Trazado_1107" data-name="Trazado 1107" d="M502.276,301.572c-3.171.94-6.154,2.792-9.154,4.181a42.027,42.027,0,0,1-9.536,3.077.272.272,0,0,0,.057.54c3.285.072,6.427-1.264,9.36-2.617,3.146-1.45,6.656-2.78,9.5-4.758a.243.243,0,0,0-.225-.423" transform="translate(-89.839 -56.05)" fill="#2e3433"/>
          <path id="Trazado_1108" data-name="Trazado 1108" d="M478.832,307.392c-2.9.1-5.966-2.847-8.233-4.483-1.871-1.35-3.644-2.854-5.612-4.058-.274-.168-.48.254-.282.449a60.627,60.627,0,0,0,8.65,6.516c1.715,1.165,3.365,2.537,5.526,2.064a.246.246,0,0,0-.05-.489" transform="translate(-86.358 -55.539)" fill="#2e3433"/>
          <path id="Trazado_1109" data-name="Trazado 1109" d="M458.454,329.912c-.344-.157-.706.371-.366.585a27.587,27.587,0,0,1,8.345,7.322c1.362,1.912,2.361,4.417,4.5,5.574.131.072.222-.1.166-.2-2.793-5.228-7.148-10.756-12.643-13.279" transform="translate(-85.118 -61.314)" fill="#2e3433"/>
          <path id="Trazado_1110" data-name="Trazado 1110" d="M497.492,344.117a21.064,21.064,0,0,0-10.237-.392c-4.093.983-7.2,2.776-11.557,1.668a.265.265,0,0,0-.15.5,11.975,11.975,0,0,0,8.368-.178,22.633,22.633,0,0,1,6.444-1.552c2.362-.1,4.7.362,7.054.452a.253.253,0,0,0,.078-.5" transform="translate(-88.36 -63.801)" fill="#2e3433"/>
          <path id="Trazado_1111" data-name="Trazado 1111" d="M454.9,366.573A24.871,24.871,0,0,0,449.291,359c-.118-.1-.269.054-.192.178,2.413,3.865,5.1,7.286,6.782,11.595.766,1.956,1.166,5.242,3.795,5.333a.284.284,0,0,0,.16-.537c-2.8-1.334-3.55-6.388-4.933-9" transform="translate(-83.468 -66.721)" fill="#2e3433"/>
          <path id="Trazado_1112" data-name="Trazado 1112" d="M482.661,373.679a29.265,29.265,0,0,0-8.936.961c-3.466.9-7.845,4.247-11.426,3.366-.234-.058-.353.33-.122.41,2.947,1.038,5.416-.726,8.123-1.785a35.02,35.02,0,0,1,12.341-2.153c.451-.008.48-.774.02-.8" transform="translate(-85.88 -69.447)" fill="#2e3433"/>
          <path id="Trazado_1113" data-name="Trazado 1113" d="M429.351,389.263c-.2-.052-.3.282-.107.355,7.361,2.75,15.057,3.909,20.055,10.593.331.443,1.033-.055.7-.5-5.011-6.64-12.951-8.495-20.648-10.452" transform="translate(-79.762 -72.35)" fill="#2e3433"/>
          <path id="Trazado_1114" data-name="Trazado 1114" d="M472.822,404.519c-3.206-.533-6.441-.694-9.663-1.3a22.722,22.722,0,0,0-8.789-.379.308.308,0,0,0,.064.611,39.84,39.84,0,0,1,10.508,1.116c2.528.5,5.405,1.225,7.936.493.28-.082.207-.5-.056-.543" transform="translate(-84.403 -74.821)" fill="#2e3433"/>
          <path id="Trazado_1115" data-name="Trazado 1115" d="M468.915,268.8a81.406,81.406,0,0,1,7.1,26.773c.758,10.372-.985,20.59-4.164,30.449-5.975,18.539-16.28,35.53-20.314,54.719-2.009,9.557-2.41,19.4.338,28.848.089.3.608.186.541-.128-8.539-40.393,27.588-73.118,25.288-113.056a68.368,68.368,0,0,0-7.628-28.224c-.356-.666-1.465-.067-1.164.62" transform="translate(-83.626 -49.792)" fill="#2e3433"/>
          <path id="Trazado_1116" data-name="Trazado 1116" d="M474.181,445.614a9.45,9.45,0,0,0-1.191.548c.414-.292.816-.586,1.217-.877,0,.075-.02.189-.026.329" transform="translate(-87.913 -82.763)" fill="#96999e"/>
          <path id="Trazado_1117" data-name="Trazado 1117" d="M450.394,386.091c2.876,3.125,5.514,11.137,12.091,20.657a11.576,11.576,0,0,0,4.426,4.089c-5.48-1.706-12.443-1.067-14.938-.707s-8.219-.261-11.208-.631c3.721,1.06,4.4,5.264,14.44,8.555,5.384,1.758,9.446.986,12.253-.359l-.657.626a90.174,90.174,0,0,0-9.767,6.305c-6.426,4.741-14.333,3.822-14.333,3.822,7.629,1.991,2.068,1.715,11.79,2.1,8.285.335,13.226-12.153,13.226-12.153.187-.158.334-.291.444-.39-.142,2.1-.433,7.79.525,12.063,1.186,5.342,3.662,9.64,5.676,11.381,1.921,1.671,5.548,1.659,5.9,1.645-.3-.131-4.742-2.058-5.029-4.343-.3-2.377.512-4.658-1.872-10.871s-4.566-10.673-4.566-10.673l-.366-.02a13.448,13.448,0,0,0,3.1-2.438,128.684,128.684,0,0,0,12.147-11.4c-.66,3.359,5.361,13.139,7.966,14.79,19.867,12.6,29.622,2.2,29.622,2.2.519-.653-2.586-.135-4.85.026s-7.264-3.778-7.264-3.778c-7.635-9.486-11.011-9.437-11.011-9.437s-6.659-2.72-10.64-3.23a5.632,5.632,0,0,1-3.024-1.414c2.072-2.22,4.1-4.526,6.081-6.88.922,1.57,2.714,6.016,5.347,6.662,14.7,3.562,22.8-9.3,22.8-9.3s-3.669,3.051-10.731,2.478c-5.813-.462-13.073-1.476-16.354-1.1,2.219-2.677,4.383-5.43,6.478-8.209,1.045,1.041,6.625,6.147,14.07,5.891,3.823-.133,13.445-1.784,17.8-6.819,0,0-28.631-1.187-31.015-.116,0,0-.017-.008-.051-.02,2.388-3.195,4.685-6.43,6.873-9.642,1.351.876,29.4,12.4,41.8-.186,0,0-6.374.625-11.43-1.033s-8.591-5.289-15.228-4.5c-5.043.6-11.427,3.157-14.207,4.352,2.324-3.436,4.515-6.841,6.572-10.143,2.606,1.023,18.583,6.324,36.286-8.075,2.022-1.655,4.707-4.355,3.918-3.922-6.538,3.58-7.852,2.849-10.653,2.923-18.213.531-23.3,3.607-28.973,8.153,1.976-3.2,3.818-6.29,5.51-9.205,9.209-.23,12.266-1.742,17.023-3.147,4.869-1.449,13.962-8.089,13.962-8.089s6.045-4.11,7.557-7.257c1.287-2.706-3.532,5.136-14.9,6.068-9.148.741-19.663,8.688-23.095,11.471,1.977-3.448,3.745-6.651,5.264-9.484,1.51.517,9.658,2.356,25.516-11.266,11.838-10.186,6.332-6.166,6.332-6.166a24.031,24.031,0,0,1-6.519,3.012c-4.411,1.436-14.246,2.723-24.9,13.624,1.818-3.416,3.263-6.283,4.271-8.372,1.178.029,5.627-1.766,8.671-3.276a35.17,35.17,0,0,0,7.223-4.907c5.132-4.429,13.609-12.3,12.765-11.7-2.594,1.889-10.274,4.573-18.056,10.211-6.421,4.648-9.024,7.271-10.075,8.579a23.065,23.065,0,0,0,1.2-2.759c-3.633,7.108-7.25,13.694-10.808,19.808.116-.239.219-.477.219-.477a105.033,105.033,0,0,0,3.792-21c.671-10.693.926-18.058.116-25.721S523.5,294.9,523.5,294.9s.216,13.679-.631,18.174c-.85,4.514-2.464,11.943-2.462,16.089s.656,19.233.21,20.848c-.146.532-.145.662-.087.616q-2.672,4.584-5.294,8.8c.052-.23.077-.412.077-.412s5.229-17.029,3.568-35.222-2.268-24.327-2.483-24.146c-.216.282-.7,14.148-1.482,21.156-.38,3.367-.732,6.213-1.036,8.642-.623-10.937-2.347-12.675-2.347-12.675s1.12,16.169-3.434,28.766c-3.169,8.765.133,23.969.133,23.969l.07.658q-3.517,5.211-6.825,9.753c.348-.942,1.024-3.038,2.338-7.453,3.143-10.645,2.336-19.912.008-32s-5.867-14.5-5.626-13.651,1.592,11.062,1.75,12.429-1.049,11.7-1.278,19.169,2.473,21.895,2.473,21.895l-.012.077c-2.485,3.393-4.876,6.533-7.134,9.363a51.169,51.169,0,0,0-.212-31c-1.785-5.541-7.485-22.289-8.25-24.7.327,1.38,1.452,7.817,1.285,25.384-.173,19.039,5.563,29.327,6.606,31.017-2.082,2.6-4.062,4.965-5.9,7.1.617-1,1.646-4.383-1.334-14.829,0,0-4.388-13.261-22.508-11.352a17.606,17.606,0,0,1,9.337,10.076c2.682,7.514,9.687,14.474,14.176,16.479-1.638.822-15.079,15.381-15.079,15.381l-.268.261a11.026,11.026,0,0,0-3.54-2.237c4.539,1.132,8.315-2.648,8.315-2.648-1.623-.872-1.944-7.892-4.884-9.476s-8.233-3.051-10.177-4.237-10.863-9.616-11.4-10.223.236,1.338.236,1.338m58.054-16.156a98.872,98.872,0,0,0,4.827-20.709c.294,2.6.749,5.946,1.4,10.3a2.28,2.28,0,0,0,.136.574q-3.226,5.183-6.36,9.833m-40.23,47.4c0,.075-.02.189-.026.329a9.565,9.565,0,0,0-1.191.548c.414-.292.816-.586,1.217-.877" transform="translate(-81.923 -54.811)" fill="#96999e"/>
          <path id="Trazado_1118" data-name="Trazado 1118" d="M167.816,300.248a1.294,1.294,0,1,1-1.294-1.294,1.294,1.294,0,0,1,1.294,1.294" transform="translate(-30.71 -55.565)" fill="#f5b015"/>
          <path id="Trazado_1119" data-name="Trazado 1119" d="M213.533,295.723a1.294,1.294,0,1,1-1.294-1.294,1.294,1.294,0,0,1,1.294,1.294" transform="translate(-39.208 -54.724)" fill="#f5b015"/>
          <path id="Trazado_1120" data-name="Trazado 1120" d="M432.91,190.029a1.294,1.294,0,1,1-1.294-1.294,1.294,1.294,0,0,1,1.294,1.294" transform="translate(-79.982 -35.079)" fill="#f5b015"/>
          <path id="Trazado_1121" data-name="Trazado 1121" d="M263.419,214.041a2.588,2.588,0,1,1-2.588-2.587,2.589,2.589,0,0,1,2.588,2.587" transform="translate(-47.999 -39.302)" fill="#f5b015"/>
          <path id="Trazado_1122" data-name="Trazado 1122" d="M387.276,227.467a2.588,2.588,0,1,1-2.587-2.588,2.587,2.587,0,0,1,2.587,2.588" transform="translate(-71.02 -41.797)" fill="#f5b015"/>
        </g>
      </g>
      <g id="Grupo_358" data-name="Grupo 358" transform="translate(212.167 237.185)">
        <g id="Grupo_357" data-name="Grupo 357" clip-path="url(#clip-path-8)">
          <path id="Trazado_1123" data-name="Trazado 1123" d="M382,513.935c-18.986,41.931-11.51,96.807-7.678,112.26,5.853,23.6,38.265,16.885,49.735,6.266,21.369-19.786,17.538-83.742,16.4-97.938-2.633-32.867-46.018-48.063-58.458-20.589" transform="translate(-280.863 -330.06)" fill="#2e3433"/>
          <g id="Grupo_356" data-name="Grupo 356" transform="translate(115.884 172.495)" opacity="0.4">
            <g id="Grupo_355" data-name="Grupo 355">
              <g id="Grupo_354" data-name="Grupo 354" clip-path="url(#clip-path-9)">
                <path id="Trazado_1124" data-name="Trazado 1124" d="M403.892,518.188c17.154,46.936,6.06,86.056,9.893,101.51,5.853,23.6,32.244,26.463,43.712,15.845,21.369-19.785,17.539-83.741,16.4-97.937-2.633-32.868-80.359-47.744-70.007-19.417" transform="translate(-402.944 -503.21)" fill="#2e3433"/>
              </g>
            </g>
          </g>
          <path id="Trazado_1125" data-name="Trazado 1125" d="M352.063,384.966l-17.36-1.174a4.04,4.04,0,0,1-3.887-3.054l-10.734-40c-.378-1.676,1-4.653,3.662-4.738l18.885-.609a4.037,4.037,0,0,1,3.886,3.055l9.349,41.488c.392,1.74-.685,4.929-3.8,5.028" transform="translate(-271.647 -299.523)" fill="#2e3433"/>
          <path id="Trazado_1126" data-name="Trazado 1126" d="M352.07,385.37l-18.7.6a4.038,4.038,0,0,1-3.886-3.055l-9.349-41.488a2.544,2.544,0,0,1,2.275-3.244l18.885-.61a4.039,4.039,0,0,1,3.885,3.055l9.349,41.488a2.551,2.551,0,0,1-2.464,3.257" transform="translate(-271.655 -299.927)" fill="#f5b015"/>
          <path id="Trazado_1127" data-name="Trazado 1127" d="M352.07,385.37l-18.7.6a4.038,4.038,0,0,1-3.886-3.055l-9.349-41.488a2.544,2.544,0,0,1,2.275-3.244l18.885-.61a4.039,4.039,0,0,1,3.885,3.055l9.349,41.488A2.551,2.551,0,0,1,352.07,385.37Z" transform="translate(-271.655 -299.927)" fill="none" stroke="#2e3433" stroke-miterlimit="10" stroke-width="1"/>
          <path id="Trazado_1128" data-name="Trazado 1128" d="M333.2,386.464a4.712,4.712,0,0,1-4.492-3.556l-9.35-41.49a3.341,3.341,0,0,1,.51-2.742,3.19,3.19,0,0,1,2.336-1.284l18.924-.612h.041a4.707,4.707,0,0,1,4.492,3.556l9.349,41.488a3.324,3.324,0,0,1-.562,2.816,3.222,3.222,0,0,1-2.51,1.225l-18.7.6-.042,0m7.995-48.4h-.028l-18.885.609a1.9,1.9,0,0,0-1.375.757,2.072,2.072,0,0,0-.294,1.7l9.349,41.488a3.42,3.42,0,0,0,3.212,2.555h.027l18.7-.6a1.961,1.961,0,0,0,1.531-.729,2.05,2.05,0,0,0,.326-1.744l-9.35-41.49a3.414,3.414,0,0,0-3.208-2.553" transform="translate(-271.507 -299.781)" fill="#2e3433"/>
          <path id="Trazado_1129" data-name="Trazado 1129" d="M341.99,362.273a.518.518,0,0,0,.4-.186.555.555,0,0,0,.081-.471L338.79,345.26a1.085,1.085,0,0,0-1.014-.8l-7.427.24a.491.491,0,0,0-.357.191.569.569,0,0,0-.072.461l3.686,16.355a1.085,1.085,0,0,0,1.014.8Z" transform="translate(-273.484 -301.208)" fill="#2e3433"/>
          <path id="Trazado_1130" data-name="Trazado 1130" d="M333.537,349.213a1.785,1.785,0,1,0,.962-2.42,1.843,1.843,0,0,0-.962,2.42" transform="translate(-274.133 -301.62)" fill="#fff"/>
          <path id="Trazado_1131" data-name="Trazado 1131" d="M335.094,347.313a1.257,1.257,0,0,1,1.165.826,1.314,1.314,0,0,1,.007.971,1.086,1.086,0,0,1-.61.621,1.025,1.025,0,0,1-.362.073,1.257,1.257,0,0,1-1.165-.826,1.208,1.208,0,0,1,.6-1.593,1.044,1.044,0,0,1,.363-.072m-.014-.638a1.691,1.691,0,0,0-.583.117,1.843,1.843,0,0,0-.961,2.42,1.894,1.894,0,0,0,1.772,1.23,1.682,1.682,0,0,0,.582-.117,1.843,1.843,0,0,0,.961-2.42,1.9,1.9,0,0,0-1.772-1.23" transform="translate(-274.134 -301.62)" fill="#2e3433"/>
          <path id="Trazado_1132" data-name="Trazado 1132" d="M335.184,355.956a1.786,1.786,0,1,0,.961-2.42,1.843,1.843,0,0,0-.961,2.42" transform="translate(-274.44 -302.873)" fill="#fff"/>
          <path id="Trazado_1133" data-name="Trazado 1133" d="M336.741,354.055a1.257,1.257,0,0,1,1.165.826,1.315,1.315,0,0,1,.008.97,1.086,1.086,0,0,1-.611.622,1.025,1.025,0,0,1-.362.073,1.257,1.257,0,0,1-1.165-.826,1.209,1.209,0,0,1,.6-1.593,1.043,1.043,0,0,1,.362-.072m-.014-.637a1.692,1.692,0,0,0-.583.117,1.843,1.843,0,0,0-.961,2.42,1.893,1.893,0,0,0,1.772,1.229,1.68,1.68,0,0,0,.582-.116,1.843,1.843,0,0,0,.962-2.42,1.894,1.894,0,0,0-1.772-1.229" transform="translate(-274.44 -302.873)" fill="#2e3433"/>
          <path id="Trazado_1134" data-name="Trazado 1134" d="M336.833,362.7a1.785,1.785,0,1,0,.96-2.42,1.841,1.841,0,0,0-.96,2.42" transform="translate(-274.746 -304.126)" fill="#fff"/>
          <path id="Trazado_1135" data-name="Trazado 1135" d="M338.389,360.8a1.256,1.256,0,0,1,1.165.826,1.208,1.208,0,0,1-.6,1.593,1.035,1.035,0,0,1-.361.072,1.257,1.257,0,0,1-1.166-.826,1.21,1.21,0,0,1,.6-1.594,1.061,1.061,0,0,1,.362-.072m-.014-.637a1.683,1.683,0,0,0-.582.118,1.842,1.842,0,0,0-.961,2.419,1.894,1.894,0,0,0,1.772,1.23,1.684,1.684,0,0,0,.582-.117,1.843,1.843,0,0,0,.961-2.42,1.894,1.894,0,0,0-1.772-1.23" transform="translate(-274.746 -304.126)" fill="#2e3433"/>
          <path id="Trazado_1136" data-name="Trazado 1136" d="M321.328,375.6l.195-.219c.089-.134.145-.205.145-.205l.018.023a144.537,144.537,0,0,1,12.06-12c.835-.716,2.192.791,1.781,1.814-1.6,3.98-10.1,10.848-10.1,10.848s9.139-5.155,10.183-4.308c.6.484,2.411,3.653,3.855,6.279,1.033,1.879.4,2.075-1.233,3.466-2.069,1.763-3.4,3.471-3.362,3.865.046.5,1.492,2.394,2.652,4.008,4.485,2.416,2.96,10.375,2.96,10.375l-.015.007c.647,2.843,1.115,5.3,1.4,6.3a115.227,115.227,0,0,0,12.6,27.529,98.544,98.544,0,0,0,7.982-11.791c18.071-13.217,40.493,12.879,27.9,26.218s-31.413,22.153-43.186,22.245a48.111,48.111,0,0,1-7.386-1.265c-2.779-1.359-6.511-5.283-7.719-10.416-2.756-11.718-3.275-39.782-3.349-54.684-.283-1.926-1.372-6.524-5.6-13.613-4.7-7.887-2.661-12.862-1.78-14.393-.007-.048-.01-.081-.01-.081" transform="translate(-271.668 -304.658)" fill="#fff"/>
          <path id="Trazado_1137" data-name="Trazado 1137" d="M321.328,375.6l.195-.219c.089-.134.145-.205.145-.205l.018.023a144.537,144.537,0,0,1,12.06-12c.835-.716,2.192.791,1.781,1.814-1.6,3.98-10.1,10.848-10.1,10.848s9.139-5.155,10.183-4.308c.6.484,2.411,3.653,3.855,6.279,1.033,1.879.4,2.075-1.233,3.466-2.069,1.763-3.4,3.471-3.362,3.865.046.5,1.492,2.394,2.652,4.008,4.485,2.416,2.96,10.375,2.96,10.375l-.015.007c.647,2.843,1.115,5.3,1.4,6.3a115.227,115.227,0,0,0,12.6,27.529,98.544,98.544,0,0,0,7.982-11.791c18.071-13.217,40.493,12.879,27.9,26.218s-31.413,22.153-43.186,22.245a48.111,48.111,0,0,1-7.386-1.265c-2.779-1.359-6.511-5.283-7.719-10.416-2.756-11.718-3.275-39.782-3.349-54.684-.283-1.926-1.372-6.524-5.6-13.613-4.7-7.887-2.661-12.862-1.78-14.393C321.331,375.638,321.328,375.6,321.328,375.6Z" transform="translate(-271.668 -304.658)" fill="none" stroke="#2e3433" stroke-linecap="round" stroke-miterlimit="10" stroke-width="1"/>
          <path id="Trazado_1138" data-name="Trazado 1138" d="M341.288,380.026l-8.666,5.46a77.281,77.281,0,0,1,8.666-5.46" transform="translate(-273.99 -307.819)" fill="#2e3433"/>
          <path id="Trazado_1139" data-name="Trazado 1139" d="M341.288,380.026l-8.666,5.46A77.281,77.281,0,0,1,341.288,380.026Z" transform="translate(-273.99 -307.819)" fill="none" stroke="#2e3433" stroke-linecap="round" stroke-linejoin="round" stroke-width="0.5"/>
          <path id="Trazado_1140" data-name="Trazado 1140" d="M338.922,376.7l-10.712,5.644s7.13-4.314,10.712-5.644" transform="translate(-273.17 -307.201)" fill="#2e3433"/>
          <path id="Trazado_1141" data-name="Trazado 1141" d="M338.922,376.7l-10.712,5.644S335.34,378.031,338.922,376.7Z" transform="translate(-273.17 -307.201)" fill="none" stroke="#2e3433" stroke-linecap="round" stroke-linejoin="round" stroke-width="0.5"/>
          <path id="Trazado_1142" data-name="Trazado 1142" d="M421.928,524.92c-.136,67.84-.512,82.008,3.32,97.461,5.853,23.6,32.245,26.464,43.713,15.846,21.369-19.787,17.539-83.742,16.4-97.939-2.633-32.867-63.374-45.528-63.435-15.368" transform="translate(-290.574 -331.573)" fill="#2e3433"/>
          <path id="Trazado_1143" data-name="Trazado 1143" d="M442.673,378.165c9.159,18.757-10.184,52.624-55.687,87.8,0,0-11.368-15.975-20.2-46.026a430.942,430.942,0,0,1,37.167-36.728c21.57-18.843,34.9-12.872,38.723-5.043" transform="translate(-280.339 -306.082)" fill="#f5b015"/>
          <path id="Trazado_1144" data-name="Trazado 1144" d="M442.673,378.165c9.159,18.757-10.184,52.624-55.687,87.8,0,0-11.368-15.975-20.2-46.026a430.942,430.942,0,0,1,37.167-36.728C425.52,364.365,438.849,370.336,442.673,378.165Z" transform="translate(-280.339 -306.082)" fill="none" stroke="#2e3433" stroke-miterlimit="10" stroke-width="1"/>
          <path id="Trazado_1145" data-name="Trazado 1145" d="M367.7,423.211c-1.933,2.755-4.119,5.724-4.119,5.724a29.448,29.448,0,0,0,.984,6.224c7.357,26.292,25.261,51.776,25.261,51.776l8.351-8.337c-9.788-15.227-26.82-42.523-30.477-55.387" transform="translate(-279.744 -315.845)" fill="#2e3433"/>
          <path id="Trazado_1146" data-name="Trazado 1146" d="M389.024,486.679c-2-2.608-18.566-28.234-25.119-51.659a29.774,29.774,0,0,1-1-6.356l-.007-.19.113-.154c.022-.029,2.2-3,4.111-5.714l.664-.947.315,1.112a58.51,58.51,0,0,0,2.628,7.149l-1.01.438a63.313,63.313,0,0,1-2.349-6.192c-1.47,2.074-2.941,4.084-3.356,4.65a29.273,29.273,0,0,0,.953,5.907c6.51,23.265,22.951,48.7,24.933,51.286Z" transform="translate(-279.616 -315.557)" fill="#2e3433"/>
          <path id="Trazado_1147" data-name="Trazado 1147" d="M456.236,367.993c35.457,7.558,38.381,106.174,13.585,159.494,0,0-45.4,5.834-95.759-24.848,0,0,8.789-45.4,23.117-55.7,0,0,10.338-48.242,25.344-66.038s25.472-14.667,33.714-12.911" transform="translate(-281.692 -305.324)" fill="#fff"/>
          <path id="Trazado_1148" data-name="Trazado 1148" d="M390.025,524.639c5.174,1.326,15.656-21.077,17.515-34.274.672-4.759,4.238-35.535,6.2-44.226,1.958-8.669,13.147-64.223,19.389-75.975-5.06,1.614-6.828,3.169-13.463,11.039-15.006,17.8-17.847,46.97-28.077,63.333C382.237,459.493,363.578,525,363.578,525c10.8-1.209,19.792-2.179,26.447-.363" transform="translate(-279.743 -305.986)" fill="#f5b015"/>
          <path id="Trazado_1149" data-name="Trazado 1149" d="M390.025,524.639c5.174,1.326,15.656-21.077,17.515-34.274.672-4.759,4.238-35.535,6.2-44.226,1.958-8.669,13.147-64.223,19.389-75.975-5.06,1.614-6.828,3.169-13.463,11.039-15.006,17.8-17.847,46.97-28.077,63.333C382.237,459.493,363.578,525,363.578,525,374.382,523.793,383.37,522.824,390.025,524.639Z" transform="translate(-279.743 -305.986)" fill="none" stroke="#2e3433" stroke-miterlimit="10" stroke-width="1"/>
          <path id="Trazado_1150" data-name="Trazado 1150" d="M410.062,492.327l-1-.462c2.656-5.737,2.743-10.341,1.947-26.021-.82-16.185,7.563-63.939,7.647-64.418l.213-1.208.762.962c1.361,1.719,3.146,3.963,4.461,5.6-.514-1.877-1.062-4.137-1.294-5.106l-.04-.168.062-.161c4.414-11.277,16.91-29.926,17.036-30.112l.914.614c-.124.186-12.435,18.56-16.861,29.74a72.6,72.6,0,0,0,2.041,7.437l.269.438-.391.351c-.19.135-.305.221-.76-.216l-.043.024a1.331,1.331,0,0,1-.076-.139c-.713-.725-2.148-2.525-5.418-6.652-1.3,7.561-8.162,48.341-7.42,62.959.805,15.9.71,20.58-2.05,26.539" transform="translate(-288.197 -306.184)" fill="#2e3433"/>
          <path id="Trazado_1151" data-name="Trazado 1151" d="M464.335,368.281s-13.718,14.526-15.861,29.66c-2.495,17.621-13.375,36.712-12.122,78.692,1.19,39.939-18.388,49.5-18.775,49.91,25.622,15.174,71.1,3.483,71.1,3.483,15.367-56.639,11.119-154.187-24.339-161.745" transform="translate(-289.78 -305.636)" fill="#f5b015"/>
          <path id="Trazado_1152" data-name="Trazado 1152" d="M464.335,368.281s-13.718,14.526-15.861,29.66c-2.495,17.621-13.375,36.712-12.122,78.692,1.19,39.939-18.388,49.5-18.775,49.91,25.622,15.174,71.1,3.483,71.1,3.483C504.04,473.387,499.792,375.839,464.335,368.281Z" transform="translate(-289.78 -305.636)" fill="none" stroke="#2e3433" stroke-miterlimit="10" stroke-width="1"/>
          <path id="Trazado_1153" data-name="Trazado 1153" d="M433.5,516.566l-1-.456a64.19,64.19,0,0,1,4.678-8.463c3.306-5.223,5.918-9.349,9.371-28.246,4.581-25.063,10.029-70.427,10.769-76.651l-4.05.58,4.177-4.983a141.66,141.66,0,0,0,9.166-28.834l1.085.2a142.886,142.886,0,0,1-9.279,29.158l-.08.126-2.376,2.836,2.618-.375-.084.711c-.059.5-5.955,50.584-10.861,77.431-3.493,19.109-6.156,23.314-9.526,28.638a62.659,62.659,0,0,0-4.607,8.329" transform="translate(-292.552 -305.865)" fill="#2e3433"/>
          <path id="Trazado_1154" data-name="Trazado 1154" d="M498.367,412.684,457.7,448.374s40.072,19.989,40.666-35.69" transform="translate(-297.238 -313.889)" fill="#2e3433"/>
          <path id="Trazado_1155" data-name="Trazado 1155" d="M473.828,313.456c-4.807-17.076-17.2-19.161-23.339-18.394s-13.3,4.742-16.624,10.589c-3.628,6.374-2.261,22.624,7.5,33.388s4.971,18.472,4.971,18.472,24.452-6.8,29.427-12.311a21.818,21.818,0,0,1-3.283-9.744,20.766,20.766,0,0,0,6.1,7.284s6.542,1.637,11.487-5.955c0,0-11.434-6.253-16.241-23.328m-9.947,17.355a5.683,5.683,0,1,1,5.57-5.793,5.683,5.683,0,0,1-5.57,5.793" transform="translate(-292.466 -292.002)" fill="#2e3433"/>
          <path id="Trazado_1156" data-name="Trazado 1156" d="M443.12,343.238l3.916,23.349s13.336,6.681,22.035-3.66L465.9,339.338Z" transform="translate(-294.527 -300.256)" fill="#fff"/>
          <path id="Trazado_1157" data-name="Trazado 1157" d="M443.12,343.238l3.916,23.349s13.336,6.681,22.035-3.66L465.9,339.338Z" transform="translate(-294.527 -300.256)" fill="none" stroke="#2e3433" stroke-linecap="round" stroke-miterlimit="10" stroke-width="1"/>
          <path id="Trazado_1158" data-name="Trazado 1158" d="M445.536,354.2l1.288,7.565c14.47,2.092,18.228-16.521,18.228-16.521-15.607,2.963-19.516,8.956-19.516,8.956" transform="translate(-294.977 -301.354)" fill="#2e3433"/>
          <path id="Trazado_1159" data-name="Trazado 1159" d="M463.44,334.461c3.045-.164,5.39-3.576,5.329-6.647-.061-3.138-2.336-5.846-5.473-5.785a5.667,5.667,0,0,0-2.371.575c-3.059-6.6-6-12.252-11.728-13.491a14.043,14.043,0,0,0-7.58.535c-7.636,2.643-12.381,8.7-11.41,16.72,1.087,8.994,4.975,26,15.6,24.571,4.719-.633,12.261-7.022,15.968-12.408" transform="translate(-292.104 -294.584)" fill="#fff"/>
          <path id="Trazado_1160" data-name="Trazado 1160" d="M463.44,334.461c3.045-.164,5.39-3.576,5.329-6.647-.061-3.138-2.336-5.846-5.473-5.785a5.667,5.667,0,0,0-2.371.575c-3.059-6.6-6-12.252-11.728-13.491a14.043,14.043,0,0,0-7.58.535c-7.636,2.643-12.381,8.7-11.41,16.72,1.087,8.994,4.975,26,15.6,24.571,4.719-.633,12.261-7.022,15.968-12.408" transform="translate(-292.104 -294.584)" fill="none" stroke="#2e3433" stroke-linecap="round" stroke-miterlimit="10" stroke-width="1"/>
          <path id="Trazado_1161" data-name="Trazado 1161" d="M438.822,340.063c-.588-.147-3.546-.953-4.032-2.334a1.3,1.3,0,0,1,.233-1.272c2.118-2.786,1.594-6.47,1.456-7.222a4.127,4.127,0,0,0-4.444-.913l-.371-1.037a5.242,5.242,0,0,1,5.749,1.338l.086.1.029.129c.043.193,1.038,4.763-1.629,8.269-.105.138-.083.2-.07.241.194.55,1.842,1.274,3.261,1.631Z" transform="translate(-292.398 -297.952)" fill="#2e3433"/>
          <path id="Trazado_1162" data-name="Trazado 1162" d="M461.024,322.385s-8.1-8.048-15.582-9.1c0,0-13.57,2.764-15.4,9.726,0,0-3.541-14.744,11.9-18.476,15.017-3.629,19.9,11.509,19.083,17.847" transform="translate(-292.031 -293.685)" fill="#2e3433"/>
          <path id="Trazado_1163" data-name="Trazado 1163" d="M449.842,314.686l-1.057-.31a9.741,9.741,0,0,1,4.247-5.854l.514.975a8.83,8.83,0,0,0-3.705,5.19" transform="translate(-295.58 -294.529)" fill="#fff"/>
          <path id="Trazado_1164" data-name="Trazado 1164" d="M471.194,335.342a1.813,1.813,0,0,1-.365.057,1.51,1.51,0,0,1-1.134-.436,1.412,1.412,0,0,1-.208-1.847,1.308,1.308,0,0,0,.041-1.386,3.555,3.555,0,0,0-1.1-1.154c-.632-.481-1.586-1.208-.54-2.619,1.448-1.951,5.023.01,5.176.094l-.537.963c-.743-.414-3.029-1.372-3.753-.4-.4.536-.372.557.322,1.086a4.559,4.559,0,0,1,1.41,1.518,2.374,2.374,0,0,1-.018,2.362c-.2.427-.192.433-.028.59a.4.4,0,0,0,.321.128,2.241,2.241,0,0,0,1.188-.755l.833.72a3.674,3.674,0,0,1-1.606,1.079" transform="translate(-299.044 -297.981)" fill="#2e3433"/>
          <path id="Trazado_1165" data-name="Trazado 1165" d="M450.368,327.709c-4.639-2.281-5.909-.357-5.92-.338l-.953-.554c.068-.119,1.719-2.872,7.359-.1Z" transform="translate(-294.597 -297.682)" fill="#2e3433"/>
          <path id="Trazado_1166" data-name="Trazado 1166" d="M440.339,347.609a4.878,4.878,0,0,0,9.707-.795,4.816,4.816,0,0,0-.344-1.645,51.936,51.936,0,0,1-9.363,2.439" transform="translate(-294.011 -301.34)" fill="#2e3433"/>
          <path id="Trazado_1167" data-name="Trazado 1167" d="M443.731,351.512c.009.055.019.11.029.165a4.882,4.882,0,0,0,6.91-4.545c-.017-.9-7.554.642-6.939,4.38" transform="translate(-294.634 -301.659)" fill="#96999e"/>
          <path id="Trazado_1168" data-name="Trazado 1168" d="M463.741,338.868c-1.626-2.488-1.521-4.941-1.417-7.313a11.385,11.385,0,0,0-.791-5.892,14.579,14.579,0,0,0-3.945-4.506c-1.724-1.479-3.507-3.007-4.277-5.551l1.054-.321c.678,2.236,2.262,3.6,3.94,5.036a15.416,15.416,0,0,1,4.212,4.851,12.4,12.4,0,0,1,.907,6.43c-.1,2.3-.192,4.471,1.238,6.663Z" transform="translate(-296.422 -295.786)" fill="#2e3433"/>
          <path id="Trazado_1169" data-name="Trazado 1169" d="M448.611,329.7a1.207,1.207,0,1,1-1.294-1.114,1.206,1.206,0,0,1,1.294,1.114" transform="translate(-295.1 -298.258)" fill="#2e3433"/>
          <path id="Trazado_1170" data-name="Trazado 1170" d="M435.36,332.476a1.207,1.207,0,1,1-1.294-1.114,1.208,1.208,0,0,1,1.294,1.114" transform="translate(-292.637 -298.773)" fill="#2e3433"/>
          <path id="Trazado_1171" data-name="Trazado 1171" d="M412.032,418.8c-6.975-11-32.72-38.067-35.9-41.392a80.189,80.189,0,0,1-6.734-16.369c-2.552-8.386-6.852-11.673-9.678-12.959-.41-.213-16.777-8.737-22.368-8.151-1.235.13-1.934,2.142-.653,2.619,4.995,1.857,17.7,8.743,17.7,8.743s-13.036,2.373-13.13,4.041c-.053.953,1.344,5.267,2.551,8.789.864,2.52,3.484,2.984,6.134,2.718,3.209-.322,5.635-.281,6.361.138.867.5,1.276,1.881,1.464,2.889-.017.038-.032.08-.05.117-2.726,5.617,3.821,10.676,5.972,12.144,7.388,9.209,15.028,38.027,27.1,54.868,8.164,11.39,32.6-.26,21.225-18.193" transform="translate(-274.622 -300.361)" fill="#fff"/>
          <path id="Trazado_1172" data-name="Trazado 1172" d="M412.032,418.8c-6.975-11-32.72-38.067-35.9-41.392a80.189,80.189,0,0,1-6.734-16.369c-2.552-8.386-6.852-11.673-9.678-12.959-.41-.213-16.777-8.737-22.368-8.151-1.235.13-1.934,2.142-.653,2.619,4.995,1.857,17.7,8.743,17.7,8.743s-13.036,2.373-13.13,4.041c-.053.953,1.344,5.267,2.551,8.789.864,2.52,3.484,2.984,6.134,2.718,3.209-.322,5.635-.281,6.361.138.867.5,1.276,1.881,1.464,2.889-.017.038-.032.08-.05.117-2.726,5.617,3.821,10.676,5.972,12.144,7.388,9.209,15.028,38.027,27.1,54.868C398.971,448.383,423.4,436.733,412.032,418.8Z" transform="translate(-274.622 -300.361)" fill="none" stroke="#2e3433" stroke-linecap="round" stroke-miterlimit="10" stroke-width="1"/>
          <path id="Trazado_1173" data-name="Trazado 1173" d="M345.48,368.2l12.921-1.685s-8.515-.077-12.921,1.685" transform="translate(-276.38 -305.307)" fill="#2e3433"/>
          <path id="Trazado_1174" data-name="Trazado 1174" d="M345.48,368.2l12.921-1.685S349.886,366.435,345.48,368.2Z" transform="translate(-276.38 -305.307)" fill="none" stroke="#2e3433" stroke-linecap="round" stroke-linejoin="round" stroke-width="0.5"/>
          <path id="Trazado_1175" data-name="Trazado 1175" d="M343.559,362.782l14.8-3.41s-10.585,1.23-14.8,3.41" transform="translate(-276.023 -303.98)" fill="#2e3433"/>
          <path id="Trazado_1176" data-name="Trazado 1176" d="M343.559,362.782l14.8-3.41S347.774,360.6,343.559,362.782Z" transform="translate(-276.023 -303.98)" fill="none" stroke="#2e3433" stroke-linecap="round" stroke-linejoin="round" stroke-width="0.5"/>
          <path id="Trazado_1177" data-name="Trazado 1177" d="M464.021,527.487a28.664,28.664,0,0,1-8.925-2.46l.51-.976c8.768,4.595,32.208,2.693,32.442,2.673l.093,1.1c-.73.062-13.8,1.12-24.12-.334" transform="translate(-296.753 -334.588)" fill="#2e3433"/>
          <path id="Trazado_1178" data-name="Trazado 1178" d="M490.027,398.328c5.026,20.258-20.071,38.39-71.386,64.264,0,0-5.468-21.213,3.138-59.7,0,0,5.914-.736,30.281-15.788s35.095-.351,37.967,11.229" transform="translate(-289.659 -307.943)" fill="#f5b015"/>
          <path id="Trazado_1179" data-name="Trazado 1179" d="M490.027,398.328c5.026,20.258-20.071,38.39-71.386,64.264,0,0-5.468-21.213,3.138-59.7,0,0,5.914-.736,30.281-15.788S487.155,386.747,490.027,398.328Z" transform="translate(-289.659 -307.943)" fill="none" stroke="#2e3433" stroke-miterlimit="10" stroke-width="1"/>
          <path id="Trazado_1180" data-name="Trazado 1180" d="M419.921,468.6l-.476-.992c43.921-21.035,65.425-37.657,71.9-55.578l1.036.374c-6.586,18.219-28.257,35.026-72.464,56.2" transform="translate(-290.127 -313.768)" fill="#2e3433"/>
          <path id="Trazado_1181" data-name="Trazado 1181" d="M428.161,401.562c-3.019,1.487-6.362,3.042-6.362,3.042a29.513,29.513,0,0,0-2.127,5.932c-6.178,26.593-2.717,57.545-2.717,57.545l11.329-3.3c-1.269-18.056-3.1-50.179-.122-63.218" transform="translate(-289.484 -311.822)" fill="#2e3433"/>
          <path id="Trazado_1182" data-name="Trazado 1182" d="M416.232,467.555c-.5-3.249-2.714-33.7,2.786-57.374a29.778,29.778,0,0,1,2.174-6.056l.086-.17.173-.08c.033-.015,3.372-1.57,6.35-3.037l1.039-.512-.258,1.128a58.187,58.187,0,0,0-1.13,7.532l-1.1-.1a63.323,63.323,0,0,1,.914-6.56c-2.284,1.113-4.541,2.169-5.177,2.467a29.361,29.361,0,0,0-2,5.638c-5.463,23.514-3.265,53.734-2.772,56.959Z" transform="translate(-289.37 -311.592)" fill="#2e3433"/>
        </g>
      </g>
    </g>
  </g>
</svg>
