<svg xmlns="http://www.w3.org/2000/svg" xmlns:xlink="http://www.w3.org/1999/xlink" width="80.133" height="90.553" viewBox="0 0 74.133 73.553">
  <defs>
    <clipPath id="clip-path">
      <rect id="Rectángulo_78" data-name="Rectángulo 78" width="45.798" height="38.165" fill="#e00520"/>
    </clipPath>
  </defs>
  <g id="Grupo_187" data-name="Grupo 187" transform="translate(-182.392 -644.313)">
    <path id="Trazado_397" data-name="Trazado 397" d="M-23402.018-18379.123v-18.564h18.543" transform="translate(23586.416 19044)" fill="none" stroke="#e00520" stroke-linecap="round" stroke-linejoin="round" stroke-width="4"/>
    <path id="Trazado_401" data-name="Trazado 401" d="M0,18.561V0H18.544" transform="translate(184.392 715.866) rotate(-90)" fill="none" stroke="#e00520" stroke-linecap="round" stroke-linejoin="round" stroke-width="4"/>
    <path id="Trazado_398" data-name="Trazado 398" d="M0,18.561V0H18.544" transform="translate(254.524 646.32) rotate(90)" fill="none" stroke="#e00520" stroke-linecap="round" stroke-linejoin="round" stroke-width="4"/>
    <path id="Trazado_399" data-name="Trazado 399" d="M0,18.561V0H18.544" transform="translate(254.518 715.864) rotate(180)" fill="none" stroke="#e00520" stroke-linecap="round" stroke-linejoin="round" stroke-width="4"/>
    <g id="Grupo_61" data-name="Grupo 61" transform="translate(196.767 662.504)">
      <g id="Grupo_58" data-name="Grupo 58" clip-path="url(#clip-path)">
        <path id="Trazado_409" data-name="Trazado 409" d="M36.257,0H9.541A9.553,9.553,0,0,0,0,9.541V28.624a9.553,9.553,0,0,0,9.541,9.541H36.257A9.553,9.553,0,0,0,45.8,28.624V9.541A9.553,9.553,0,0,0,36.257,0m5.725,28.624a5.725,5.725,0,0,1-5.725,5.725H9.541a5.725,5.725,0,0,1-5.725-5.725V9.541A5.725,5.725,0,0,1,9.541,3.817H36.257a5.725,5.725,0,0,1,5.725,5.725Zm-3.817-8.8a1.908,1.908,0,0,1-1.908,1.908H26.716a1.908,1.908,0,0,1,0-3.816h9.541a1.908,1.908,0,0,1,1.908,1.908m0-7.633A1.908,1.908,0,0,1,36.257,14.1H26.716a1.908,1.908,0,0,1,0-3.817h9.541A1.908,1.908,0,0,1,38.165,12.2M34.349,27.461a1.908,1.908,0,0,1-1.908,1.908H26.716a1.908,1.908,0,0,1,0-3.817H32.44a1.908,1.908,0,0,1,1.908,1.908M14.084,10.577a4.651,4.651,0,1,1-4.651,4.651,4.651,4.651,0,0,1,4.651-4.651m0,10.852a6.984,6.984,0,0,0-6.976,6.976.775.775,0,0,0,.775.775h12.4a.775.775,0,0,0,.775-.775,6.984,6.984,0,0,0-6.976-6.976" fill="#e00520"/>
      </g>
    </g>
  </g>
</svg>
