<svg id="Grupo_216" data-name="Grupo 216" xmlns="http://www.w3.org/2000/svg" xmlns:xlink="http://www.w3.org/1999/xlink" width="30.106" height="30.106" viewBox="0 0 30.106 30.106">
  <defs>
    <clipPath id="clip-path">
      <rect id="Rectángulo_84" data-name="Rectángulo 84" width="30.106" height="30.106" transform="translate(0 0)" fill="#e00520" stroke="#f0f0f0" stroke-width="1"/>
    </clipPath>
  </defs>
  <g id="Grupo_73" data-name="Grupo 73" transform="translate(0 0)" clip-path="url(#clip-path)">
    <path id="Trazado_417" data-name="Trazado 417" d="M14.572,0A14.572,14.572,0,1,0,29.143,14.572,14.572,14.572,0,0,0,14.572,0m0,3.643a10.864,10.864,0,0,1,6.323,2.03L5.673,20.893a10.912,10.912,0,0,1,8.9-17.25m0,21.857A10.858,10.858,0,0,1,8.25,23.47L23.47,8.249a10.912,10.912,0,0,1-8.9,17.251" transform="translate(0.361 0.348)" fill="#e00520" stroke="#f0f0f0" stroke-width="1"/>
  </g>
</svg>
