<svg xmlns="http://www.w3.org/2000/svg" xmlns:xlink="http://www.w3.org/1999/xlink" width="63" height="63" viewBox="0 0 63 63">
  <defs>
    <clipPath id="clip-path">
      <rect id="Rectángulo_100" data-name="Rectángulo 100" width="63" height="63" transform="translate(0.001 0)" fill="#e00520"/>
    </clipPath>
  </defs>
  <g id="Grupo_121" data-name="Grupo 121" transform="translate(0.593 0.174)">
    <g id="Grupo_121-2" data-name="Grupo 121" transform="translate(-0.594 -0.174)" clip-path="url(#clip-path)">
      <path id="Trazado_438" data-name="Trazado 438" d="M49.509,0H13.36A13.242,13.242,0,0,0,0,13.1v7.859a2.62,2.62,0,0,0,5.239,0V13.1A8,8,0,0,1,13.36,5.239h36.15A8,8,0,0,1,57.63,13.1V49.771a8,8,0,0,1-8.121,7.859H13.36a8,8,0,0,1-8.121-7.859V41.913a2.62,2.62,0,0,0-5.239,0v7.859a13.242,13.242,0,0,0,13.36,13.1h36.15a13.242,13.242,0,0,0,13.36-13.1V13.1A13.242,13.242,0,0,0,49.509,0" transform="translate(0.324 -0.091)" fill="#e00520"/>
      <path id="Trazado_439" data-name="Trazado 439" d="M64,125.238a2.619,2.619,0,0,0,2.619,2.619l34.546-.079L89.842,139.1a2.62,2.62,0,1,0,3.64,3.768l.064-.064,12.013-12.013a7.858,7.858,0,0,0,0-11.112L93.551,107.669a2.62,2.62,0,0,0-3.7,3.7l11.164,11.167-34.392.079A2.619,2.619,0,0,0,64,125.238" transform="translate(-55.817 -93.895)" fill="#e00520"/>
    </g>
  </g>
</svg>
