<svg xmlns="http://www.w3.org/2000/svg" xmlns:xlink="http://www.w3.org/1999/xlink" width="139.525" height="138.404" viewBox="0 0 139.525 138.404">
  <defs>
    <clipPath id="clip-path">
      <rect id="Rectángulo_506" data-name="Rectángulo 506" width="88.5" height="73.751" transform="translate(0 0)" fill="none"/>
    </clipPath>
  </defs>
  <g id="Grupo_723" data-name="Grupo 723" transform="translate(-182.392 -644.313)">
    <path id="Trazado_397" data-name="Trazado 397" d="M-23402.018-18361.816v-35.873h35.832" transform="translate(23586.42 19044.002)" fill="none" stroke="#e00520" stroke-linecap="round" stroke-linejoin="round" stroke-width="4"/>
    <path id="Trazado_401" data-name="Trazado 401" d="M0,35.868V0H35.835" transform="translate(184.392 780.717) rotate(-90)" fill="none" stroke="#e00520" stroke-linecap="round" stroke-linejoin="round" stroke-width="4"/>
    <path id="Trazado_398" data-name="Trazado 398" d="M0,35.868V0H35.835" transform="translate(319.917 646.327) rotate(90)" fill="none" stroke="#e00520" stroke-linecap="round" stroke-linejoin="round" stroke-width="4"/>
    <path id="Trazado_399" data-name="Trazado 399" d="M0,35.868V0H35.835" transform="translate(319.904 780.715) rotate(180)" fill="none" stroke="#e00520" stroke-linecap="round" stroke-linejoin="round" stroke-width="4"/>
    <g id="Grupo_724" data-name="Grupo 724" transform="translate(207.904 676.639)">
      <g id="Grupo_724-2" data-name="Grupo 724" clip-path="url(#clip-path)">
        <path id="Trazado_2439" data-name="Trazado 2439" d="M70.063,0H18.438A18.46,18.46,0,0,0,0,18.438V55.313A18.46,18.46,0,0,0,18.438,73.751H70.063A18.46,18.46,0,0,0,88.5,55.313V18.438A18.46,18.46,0,0,0,70.063,0M81.126,55.313A11.063,11.063,0,0,1,70.063,66.376H18.438A11.063,11.063,0,0,1,7.375,55.313V18.438A11.063,11.063,0,0,1,18.438,7.375H70.063A11.063,11.063,0,0,1,81.126,18.438Z" fill="#e00520"/>
        <path id="Rectángulo_498" data-name="Rectángulo 498" d="M3.535,0H9.8A3.536,3.536,0,0,1,13.34,3.536V9.805A3.535,3.535,0,0,1,9.805,13.34H3.535A3.535,3.535,0,0,1,0,9.805V3.535A3.535,3.535,0,0,1,3.535,0Z" transform="translate(26.717 18.482)" fill="none" stroke="#e00520" stroke-miterlimit="10" stroke-width="4"/>
        <path id="Rectángulo_499" data-name="Rectángulo 499" d="M.139,0H1.326a.139.139,0,0,1,.139.139V1.326a.138.138,0,0,1-.138.138H.139A.139.139,0,0,1,0,1.325V.139A.139.139,0,0,1,.139,0Z" transform="translate(32.655 24.42)" fill="none" stroke="#e00520" stroke-miterlimit="10" stroke-width="3"/>
        <path id="Rectángulo_500" data-name="Rectángulo 500" d="M.139,0H1.326a.139.139,0,0,1,.139.139V1.326a.138.138,0,0,1-.138.138H.139A.139.139,0,0,1,0,1.325V.139A.139.139,0,0,1,.139,0Z" transform="translate(32.655 46.828)" fill="none" stroke="#e00520" stroke-miterlimit="10" stroke-width="3"/>
        <path id="Rectángulo_501" data-name="Rectángulo 501" d="M.139,0H1.326a.139.139,0,0,1,.139.139V1.326a.138.138,0,0,1-.138.138H.139A.139.139,0,0,1,0,1.325V.139A.139.139,0,0,1,.139,0Z" transform="translate(54.979 24.42)" fill="none" stroke="#e00520" stroke-miterlimit="10" stroke-width="3"/>
        <path id="Rectángulo_502" data-name="Rectángulo 502" d="M3.535,0H9.8A3.536,3.536,0,0,1,13.34,3.536V9.805A3.535,3.535,0,0,1,9.805,13.34H3.535A3.535,3.535,0,0,1,0,9.805V3.535A3.535,3.535,0,0,1,3.535,0Z" transform="translate(49.171 18.482)" fill="none" stroke="#e00520" stroke-miterlimit="10" stroke-width="4"/>
        <path id="Rectángulo_503" data-name="Rectángulo 503" d="M3.535,0H9.8A3.536,3.536,0,0,1,13.34,3.536V9.805A3.535,3.535,0,0,1,9.805,13.34H3.535A3.535,3.535,0,0,1,0,9.805V3.535A3.535,3.535,0,0,1,3.535,0Z" transform="translate(26.717 40.754)" fill="none" stroke="#e00520" stroke-miterlimit="10" stroke-width="4"/>
        <rect id="Rectángulo_504" data-name="Rectángulo 504" width="8.865" height="8.865" rx="1.048" transform="translate(49.172 40.755)" fill="none" stroke="#e00520" stroke-miterlimit="10" stroke-width="4"/>
        <path id="Rectángulo_505" data-name="Rectángulo 505" d="M1.117,0H4.264A1.116,1.116,0,0,1,5.38,1.116V4.263A1.117,1.117,0,0,1,4.263,5.38H1.117A1.117,1.117,0,0,1,0,4.263V1.117A1.117,1.117,0,0,1,1.117,0Z" transform="translate(57.098 48.63)" fill="none" stroke="#e00520" stroke-miterlimit="10" stroke-width="4"/>
      </g>
    </g>
  </g>
</svg>
