<svg xmlns="http://www.w3.org/2000/svg" xmlns:xlink="http://www.w3.org/1999/xlink" width="32" height="32" viewBox="0 0 32 32">
  <defs>
    <clipPath id="clip-path">
      <rect id="Rectángulo_76" data-name="Rectángulo 76" width="2.874" height="20.117" fill="#fff"/>
    </clipPath>
  </defs>
  <g id="Grupo_217" data-name="Grupo 217" transform="translate(-199 -541.477)">
    <g id="Elipse_10" data-name="Elipse 10" transform="translate(199 541.477)" fill="#e00520" stroke="#e00520" stroke-width="4">
      <circle cx="16" cy="16" r="16" stroke="none"/>
      <circle cx="16" cy="16" r="14" fill="none"/>
    </g>
    <g id="Grupo_53" data-name="Grupo 53" transform="translate(213.676 547.296)">
      <g id="Grupo_52" data-name="Grupo 52" clip-path="url(#clip-path)">
        <path id="Trazado_405" data-name="Trazado 405" d="M1.437,0A1.437,1.437,0,0,0,0,1.437v11.5a1.437,1.437,0,1,0,2.874,0V1.437A1.437,1.437,0,0,0,1.437,0" fill="#fff"/>
        <path id="Trazado_406" data-name="Trazado 406" d="M1.437,256h0A1.437,1.437,0,1,1,0,257.437,1.437,1.437,0,0,1,1.437,256" transform="translate(0 -238.757)" fill="#fff"/>
      </g>
    </g>
  </g>
</svg>
