<svg xmlns="http://www.w3.org/2000/svg" width="182" height="182" viewBox="0 0 182 182">
  <g id="Grupo_743" data-name="Grupo 743" transform="translate(-444 -889)">
    <g id="Grupo_739" data-name="Grupo 739" transform="translate(310 1260.144)">
      <g id="Rectángulo_511" data-name="Rectángulo 511" transform="translate(134 -371.144)" fill="#fff" stroke="#e3e3e3" stroke-width="1">
        <rect width="182" height="182" rx="52" stroke="none"/>
        <rect x="0.5" y="0.5" width="181" height="181" rx="51.5" fill="none"/>
      </g>
    </g>
    <path id="Trazado_2584" data-name="Trazado 2584" d="M378.271,381.455H332.2a52.928,52.928,0,0,1-52.928-52.93V282.456a52.928,52.928,0,0,1,52.928-52.93h46.072a52.931,52.931,0,0,1,52.93,52.93v46.069a52.93,52.93,0,0,1-52.93,52.93" transform="translate(184.762 674.51)" fill="#fff"/>
    <path id="Trazado_2585" data-name="Trazado 2585" d="M320.587,296.191l.094,5.869-5.292.084-.092-5.658c-5.032-.077-8.983-1.324-12.443-4.725l4.639-4.795a11.94,11.94,0,0,0,8.381,3.01l-.151-9.483-1.681-.183a12.5,12.5,0,0,1-7.282-3.027,9.738,9.738,0,0,1-2.79-7.24c-.1-6.025,3.918-10.544,10.718-11.386l-.077-4.718,5.292-.084.077,4.663a15.315,15.315,0,0,1,10.391,4.129l-4.537,4.634a10.465,10.465,0,0,0-6.488-2.411l.149,9.116,1.995.282c3.416.47,5.579,1.379,7.173,2.819,2.022,1.854,2.955,4.512,3.01,7.814.1,6.391-4.55,10.4-11.087,11.29m-5.114-31.205c-3.035.465-4.522,2.379-4.485,4.683a3.6,3.6,0,0,0,1.143,2.654,6.175,6.175,0,0,0,3.48,1.413Zm7.874,17.114a6.353,6.353,0,0,0-3.743-1.3l.146,9.012c3.139-.418,4.842-2.017,4.8-4.584a4.154,4.154,0,0,0-1.2-3.126" transform="translate(219.555 710.4)" fill="#d8143b"/>
    <path id="Trazado_2586" data-name="Trazado 2586" d="M322.77,246.633c0,1.119-1.188,2.025-2.653,2.025H307.839c-1.468,0-2.656-.906-2.656-2.025v-7.2c0-1.119,1.188-2.027,2.656-2.027h12.277c1.465,0,2.653.908,2.653,2.027Z" transform="translate(222.99 686.13)" fill="#f5b015"/>
    <path id="Trazado_2587" data-name="Trazado 2587" d="M336.765,326.766a35.261,35.261,0,0,1,0-70.521,5.871,5.871,0,0,0,0-11.743,47,47,0,0,0,0,94.006,5.871,5.871,0,0,0,0-11.742" transform="translate(200.242 696.603)" fill="#d8143b"/>
    <rect id="Rectángulo_512" data-name="Rectángulo 512" width="7.542" height="7.265" transform="translate(579.195 984.345)" fill="#f5b015"/>
    <path id="Trazado_2588" data-name="Trazado 2588" d="M324.355,265.6a3.632,3.632,0,1,0,3.631-3.631,3.632,3.632,0,0,0-3.631,3.631" transform="translate(251.271 722.372)" fill="#f5b015"/>
    <path id="Trazado_2589" data-name="Trazado 2589" d="M327.289,265.6a3.632,3.632,0,1,0,3.631-3.631,3.632,3.632,0,0,0-3.631,3.631" transform="translate(255.602 722.372)" fill="#f5b015"/>
    <rect id="Rectángulo_513" data-name="Rectángulo 513" width="7.543" height="7.265" transform="translate(571.225 964.041) rotate(-36.956)" fill="#f5b015"/>
    <path id="Trazado_2590" data-name="Trazado 2590" d="M322.741,259.272a3.632,3.632,0,1,0,.718-5.087,3.632,3.632,0,0,0-.718,5.087" transform="translate(247.816 709.813)" fill="#f5b015"/>
    <path id="Trazado_2591" data-name="Trazado 2591" d="M325.086,257.507a3.632,3.632,0,1,0,.718-5.087,3.632,3.632,0,0,0-.718,5.087" transform="translate(251.275 707.209)" fill="#f5b015"/>
    <rect id="Rectángulo_514" data-name="Rectángulo 514" width="7.541" height="7.265" transform="translate(553.744 950.496) rotate(-60.616)" fill="#f5b015"/>
    <path id="Trazado_2592" data-name="Trazado 2592" d="M317.186,254.323a3.632,3.632,0,1,0-1.384-4.948,3.633,3.633,0,0,0,1.384,4.948" transform="translate(237.967 701.063)" fill="#f5b015"/>
    <path id="Trazado_2593" data-name="Trazado 2593" d="M318.626,251.766a3.632,3.632,0,1,0-1.384-4.948,3.633,3.633,0,0,0,1.384,4.948" transform="translate(240.09 697.292)" fill="#f5b015"/>
    <rect id="Rectángulo_515" data-name="Rectángulo 515" width="7.266" height="7.542" transform="matrix(0.521, -0.854, 0.854, 0.521, 571.561, 1011)" fill="#f5b015"/>
    <path id="Trazado_2594" data-name="Trazado 2594" d="M322.564,271.771a3.632,3.632,0,1,0,4.993-1.208,3.632,3.632,0,0,0-4.993,1.208" transform="translate(247.846 734.264)" fill="#f5b015"/>
    <path id="Trazado_2595" data-name="Trazado 2595" d="M325.069,273.3a3.632,3.632,0,1,0,4.993-1.208,3.632,3.632,0,0,0-4.993,1.208" transform="translate(251.541 736.518)" fill="#f5b015"/>
    <rect id="Rectángulo_516" data-name="Rectángulo 516" width="7.265" height="7.542" transform="matrix(0.86, -0.511, 0.511, 0.86, 553.961, 1023.56)" fill="#f5b015"/>
    <path id="Trazado_2596" data-name="Trazado 2596" d="M317.187,276.128a3.633,3.633,0,1,0,4.978,1.267,3.632,3.632,0,0,0-4.978-1.267" transform="translate(238.076 742.505)" fill="#f5b015"/>
    <path id="Trazado_2597" data-name="Trazado 2597" d="M318.687,278.65a3.633,3.633,0,1,0,4.978,1.267,3.632,3.632,0,0,0-4.978-1.267" transform="translate(240.289 746.226)" fill="#f5b015"/>
  </g>
</svg>
