<svg id="Grupo_261" data-name="Grupo 261" xmlns="http://www.w3.org/2000/svg" xmlns:xlink="http://www.w3.org/1999/xlink" width="62.99" height="63" viewBox="0 0 62.99 63">
  <defs>
    <clipPath id="clip-path">
      <rect id="Rectángulo_101" data-name="Rectángulo 101" width="62.99" height="63" fill="#e00520"/>
    </clipPath>
  </defs>
  <g id="Grupo_122" data-name="Grupo 122" clip-path="url(#clip-path)">
    <path id="Trazado_440" data-name="Trazado 440" d="M4.931,46.923a29.551,29.551,0,0,0-4.816,10.5,4.564,4.564,0,0,0,5.467,5.464,29.559,29.559,0,0,0,10.482-4.814A7.878,7.878,0,1,0,4.931,46.923m7.422,7.425h0A26.431,26.431,0,0,1,5.53,57.455a26.51,26.51,0,0,1,3.108-6.824,2.625,2.625,0,0,1,3.711,3.711ZM47.242,22.31a6.561,6.561,0,1,1-6.561-6.561,6.561,6.561,0,0,1,6.561,6.561M55.042,0h0A40.646,40.646,0,0,0,22.66,15.764a29.04,29.04,0,0,0-11.992,3.052A21.258,21.258,0,0,0,.638,28.438a7.755,7.755,0,0,0,.656,7.349A7.9,7.9,0,0,0,7.91,39.369h6.525a9.231,9.231,0,0,1,9.186,9.186V55.08A7.9,7.9,0,0,0,27.2,61.7a7.756,7.756,0,0,0,7.349.656,21.259,21.259,0,0,0,9.622-10.031A29.04,29.04,0,0,0,47.221,40.33,40.7,40.7,0,0,0,62.989,7.875,7.9,7.9,0,0,0,55.069,0h-.026M11.406,34.12H7.91a2.624,2.624,0,0,1-2.231-1.21,2.493,2.493,0,0,1-.223-2.388,16.208,16.208,0,0,1,7.567-7.013,23.6,23.6,0,0,1,5.231-1.89,90.175,90.175,0,0,0-6.848,12.5M39.489,49.967a16.22,16.22,0,0,1-7.01,7.567,2.5,2.5,0,0,1-2.391-.223,2.625,2.625,0,0,1-1.21-2.231v-3.5a90.19,90.19,0,0,0,12.5-6.847,23.6,23.6,0,0,1-1.9,5.231Zm.354-10.551A78.53,78.53,0,0,1,28.634,45.9,14.435,14.435,0,0,0,17.086,34.354a78.516,78.516,0,0,1,6.488-11.2c8.839-12.33,18-17.519,31.542-17.9A2.625,2.625,0,0,1,57.74,7.8c-.386,13.616-5.575,22.776-17.9,31.615Z" transform="translate(0 0)" fill="#e00520"/>
  </g>
</svg>
