<svg id="Grupo_700" data-name="Grupo 700" xmlns="http://www.w3.org/2000/svg" xmlns:xlink="http://www.w3.org/1999/xlink" width="29.903" height="30.039" viewBox="0 0 29.903 30.039">
  <defs>
    <clipPath id="clip-path">
      <rect id="Rectángulo_495" data-name="Rectángulo 495" width="29.903" height="30.039" fill="#e00520"/>
    </clipPath>
  </defs>
  <g id="Grupo_700-2" data-name="Grupo 700" clip-path="url(#clip-path)">
    <path id="Trazado_2431" data-name="Trazado 2431" d="M28.021,15a1.9,1.9,0,0,0-1.865,1.654A11.286,11.286,0,1,1,22.314,6.439L20.9,7.855a1.253,1.253,0,0,0,.889,2.139h5.746A1.253,1.253,0,0,0,28.787,8.74V2.995a1.253,1.253,0,0,0-2.139-.886L24.979,3.778a15.019,15.019,0,1,0,4.9,13.424A1.9,1.9,0,0,0,28.021,15" transform="translate(0 0)" fill="#e00520"/>
  </g>
</svg>
