<svg id="Grupo_244" data-name="Grupo 244" xmlns="http://www.w3.org/2000/svg" xmlns:xlink="http://www.w3.org/1999/xlink" width="70.318" height="70.091" viewBox="0 0 70.318 70.091">
  <defs>
    <clipPath id="clip-path">
      <rect id="Rectángulo_92" data-name="Rectángulo 92" width="70.318" height="70.091" fill="#e00520"/>
    </clipPath>
  </defs>
  <g id="Grupo_102" data-name="Grupo 102" clip-path="url(#clip-path)">
    <path id="Trazado_426" data-name="Trazado 426" d="M35.159,0A35.2,35.2,0,0,0,0,35.159c1.758,46.586,68.56,46.565,70.318,0A35.2,35.2,0,0,0,35.159,0m0,64.459a29.332,29.332,0,0,1-29.3-29.3c1.465-38.816,57.134-38.8,58.6,0a29.332,29.332,0,0,1-29.3,29.3M20.509,27.834A4.395,4.395,0,1,1,24.9,32.229a4.395,4.395,0,0,1-4.395-4.395m20.509,0a4.395,4.395,0,1,1,4.395,4.395,4.395,4.395,0,0,1-4.395-4.395m11.257,17.7A20,20,0,0,1,35.159,55.669,20.029,20.029,0,0,1,18.025,45.537,2.93,2.93,0,0,1,21.1,41.089a45.121,45.121,0,0,0,14.064,2.86,45.122,45.122,0,0,0,14.04-2.86,2.93,2.93,0,0,1,3.076,4.448" fill="#e00520"/>
  </g>
</svg>
