<svg xmlns="http://www.w3.org/2000/svg" xmlns:xlink="http://www.w3.org/1999/xlink" width="68" height="68" viewBox="0 0 68 68">
  <defs>
    <clipPath id="clip-path">
      <rect id="Rectángulo_76" data-name="Rectángulo 76" width="6.114" height="42.796" fill="#fff"/>
    </clipPath>
  </defs>
  <g id="Grupo_47" data-name="Grupo 47" transform="translate(-199.039 -541.516)">
    <g id="Elipse_10" data-name="Elipse 10" transform="translate(199.039 541.516)" fill="#fa940a" stroke="#fa940a" stroke-width="4">
      <circle cx="34" cy="34" r="34" stroke="none"/>
      <circle cx="34" cy="34" r="32" fill="none"/>
    </g>
    <g id="Grupo_53" data-name="Grupo 53" transform="translate(230.232 553.868)">
      <g id="Grupo_52" data-name="Grupo 52" clip-path="url(#clip-path)">
        <path id="Trazado_405" data-name="Trazado 405" d="M3.057,0A3.057,3.057,0,0,0,0,3.057V27.512a3.057,3.057,0,1,0,6.114,0V3.057A3.057,3.057,0,0,0,3.057,0" fill="#fff"/>
        <path id="Trazado_406" data-name="Trazado 406" d="M3.057,256h0A3.057,3.057,0,1,1,0,259.057,3.057,3.057,0,0,1,3.057,256" transform="translate(0 -219.318)" fill="#fff"/>
      </g>
    </g>
  </g>
</svg>
