<svg id="Grupo_120" data-name="Grupo 120" xmlns="http://www.w3.org/2000/svg" xmlns:xlink="http://www.w3.org/1999/xlink" width="73.999" height="63.424" viewBox="0 0 73.999 63.424">
  <defs>
    <clipPath id="clip-path">
      <rect id="Rectángulo_99" data-name="Rectángulo 99" width="73.999" height="63.424" fill="#e00520"/>
    </clipPath>
  </defs>
  <g id="Grupo_119" data-name="Grupo 119" clip-path="url(#clip-path)">
    <path id="Trazado_437" data-name="Trazado 437" d="M70.2,22.488a15.4,15.4,0,0,0-11.631-5.305h-12.3l1.036-6.292A9.362,9.362,0,0,0,29.675,5.227l-5.9,11.955h-8.36A15.432,15.432,0,0,0,0,32.6V48.01A15.432,15.432,0,0,0,15.414,63.424h41A15.488,15.488,0,0,0,71.677,50.168L73.85,34.754A15.414,15.414,0,0,0,70.2,22.488M6.166,48.01V32.6a9.248,9.248,0,0,1,9.248-9.248h6.166v33.91H15.414A9.248,9.248,0,0,1,6.166,48.01M67.731,33.888,65.555,49.3a9.285,9.285,0,0,1-9.14,7.957H27.745V22.528a3.083,3.083,0,0,0,.709-.9L35.2,7.956a3.3,3.3,0,0,1,5.308-.638,3.157,3.157,0,0,1,.718,2.59L39.6,19.772a3.083,3.083,0,0,0,3.043,3.576H58.572a9.249,9.249,0,0,1,9.159,10.54Z" transform="translate(0 0)" fill="#e00520"/>
  </g>
</svg>
