<svg xmlns="http://www.w3.org/2000/svg" xmlns:xlink="http://www.w3.org/1999/xlink" width="75.232" height="74.643" viewBox="0 0 75.232 74.643">
  <defs>
    <clipPath id="clip-path">
      <rect id="Rectángulo_459" data-name="Rectángulo 459" width="46.757" height="46.756" fill="#e00520"/>
    </clipPath>
  </defs>
  <g id="Grupo_696" data-name="Grupo 696" transform="translate(-182.392 -644.313)">
    <path id="Trazado_397" data-name="Trazado 397" d="M-23402.016-18378.832v-18.855h18.832" transform="translate(23586.414 19044)" fill="none" stroke="#e00520" stroke-linecap="round" stroke-linejoin="round" stroke-width="4"/>
    <path id="Trazado_401" data-name="Trazado 401" d="M0,18.852V0H18.835" transform="translate(184.392 716.956) rotate(-90)" fill="none" stroke="#e00520" stroke-linecap="round" stroke-linejoin="round" stroke-width="4"/>
    <path id="Trazado_398" data-name="Trazado 398" d="M0,18.852V0H18.835" transform="translate(255.623 646.32) rotate(90)" fill="none" stroke="#e00520" stroke-linecap="round" stroke-linejoin="round" stroke-width="4"/>
    <path id="Trazado_399" data-name="Trazado 399" d="M0,18.852V0H18.835" transform="translate(255.617 716.954) rotate(180)" fill="none" stroke="#e00520" stroke-linecap="round" stroke-linejoin="round" stroke-width="4"/>
    <g id="Grupo_579" data-name="Grupo 579" transform="translate(196.629 657.93)">
      <g id="Grupo_578" data-name="Grupo 578" clip-path="url(#clip-path)">
        <path id="Trazado_2349" data-name="Trazado 2349" d="M46.755,44.807a1.948,1.948,0,0,1-1.948,1.948H1.951a1.948,1.948,0,1,1,0-3.9H44.807a1.948,1.948,0,0,1,1.948,1.948M.569,16.662a4.759,4.759,0,0,1,.3-5A9.187,9.187,0,0,1,4.117,8.741L18.729,1.136a10.079,10.079,0,0,1,9.3,0l14.61,7.611a9.186,9.186,0,0,1,3.249,2.922,4.759,4.759,0,0,1,.3,5,5.285,5.285,0,0,1-4.706,2.815h-.569V35.067h1.948a1.948,1.948,0,0,1,0,3.9H3.9a1.948,1.948,0,0,1,0-3.9H5.847V19.483H5.278A5.285,5.285,0,0,1,.569,16.662Zm9.173,18.4h5.844V19.483H9.743Zm9.74,0h7.792V19.483H19.483ZM37.015,19.483H31.171V35.067h5.844ZM4.021,14.856a1.4,1.4,0,0,0,1.256.731h36.2a1.4,1.4,0,0,0,1.256-.731.881.881,0,0,0-.047-.974A5.26,5.26,0,0,0,40.841,12.2L26.231,4.588a6.187,6.187,0,0,0-5.7,0L5.921,12.2a5.284,5.284,0,0,0-1.849,1.685A.88.88,0,0,0,4.021,14.856Z" transform="translate(0 0)" fill="#e00520"/>
      </g>
    </g>
  </g>
</svg>
