<svg xmlns="http://www.w3.org/2000/svg" xmlns:xlink="http://www.w3.org/1999/xlink" width="149" height="149" viewBox="0 0 149 149">
  <defs>
    <clipPath id="clip-path">
      <path id="Trazado_2446" data-name="Trazado 2446" d="M39.964,0,7.85,47.848,34.116,88.56H8.983V66.752L0,52.834V97.543H50.6l-32-49.6L44.754,8.983H59.328L31.91,47.847l33.7,49.7H76.467l-33.635-49.6L76.66,0Z" fill="none"/>
    </clipPath>
    <clipPath id="clip-path-2">
      <path id="Trazado_2583" data-name="Trazado 2583" d="M0,0V42.877l8.983-13.96V8.983h12.83L27.592,0Z" fill="none"/>
    </clipPath>
  </defs>
  <g id="Grupo_756" data-name="Grupo 756" transform="translate(-863 -536)">
    <g id="Grupo_739" data-name="Grupo 739" transform="translate(863 536)">
      <g id="Rectángulo_511" data-name="Rectángulo 511" fill="#fff" stroke="#e3e3e3" stroke-width="1">
        <rect width="149" height="149" rx="39" stroke="none"/>
        <rect x="0.5" y="0.5" width="148" height="148" rx="38.5" fill="none"/>
      </g>
    </g>
    <g id="Grupo_740" data-name="Grupo 740" transform="translate(903.305 561.768)">
      <g id="Grupo_735" data-name="Grupo 735" transform="translate(0 0)">
        <g id="Grupo_734" data-name="Grupo 734" clip-path="url(#clip-path)">
          <path id="Trazado_2442" data-name="Trazado 2442" d="M31.4,0,0,11.8V10.77L28.656,0Z" transform="translate(0 0)" fill="#33f7a0"/>
          <path id="Trazado_2443" data-name="Trazado 2443" d="M34.144,0,0,12.833V11.8L31.4,0Z" transform="translate(0 0)" fill="#32f7a1"/>
          <path id="Trazado_2444" data-name="Trazado 2444" d="M36.887,0,0,13.864V12.833L34.143,0Z" transform="translate(0 0)" fill="#31f6a2"/>
          <path id="Trazado_2445" data-name="Trazado 2445" d="M39.631,0,0,14.9V13.864L36.887,0Z" transform="translate(0 0)" fill="#31f6a3"/>
        </g>
      </g>
      <path id="Trazado_2447" data-name="Trazado 2447" d="M92.795,0l-.813,1.212L95.206,0Z" transform="translate(-52.831 0)" fill="#30f6a4"/>
      <path id="Trazado_2448" data-name="Trazado 2448" d="M93.957,0,90.733,1.212l-.926,1.379L96.7,0Z" transform="translate(-51.581 0)" fill="#30f5a5"/>
      <path id="Trazado_2449" data-name="Trazado 2449" d="M95.452,0,88.558,2.591,87.633,3.97,98.2,0Z" transform="translate(-50.332 0)" fill="#2ff5a6"/>
      <path id="Trazado_2450" data-name="Trazado 2450" d="M96.946,0,86.383,3.97l-.926,1.379L99.69,0Z" transform="translate(-49.083 0)" fill="#2ff5a7"/>
      <path id="Trazado_2451" data-name="Trazado 2451" d="M98.441,0,84.209,5.349l-.926,1.379L101.185,0Z" transform="translate(-47.834 0)" fill="#2ef4a8"/>
      <path id="Trazado_2452" data-name="Trazado 2452" d="M99.936,0l-17.9,6.728-.925,1.379L102.68,0Z" transform="translate(-46.586 0)" fill="#2ef4a9"/>
      <path id="Trazado_2453" data-name="Trazado 2453" d="M101.431,0,79.86,8.107l-.926,1.379L104.174,0Z" transform="translate(-45.337 0)" fill="#2df3aa"/>
      <path id="Trazado_2454" data-name="Trazado 2454" d="M102.925,0,77.685,9.486l-.925,1.379L105.669,0Z" transform="translate(-44.087 0)" fill="#2df3ab"/>
      <path id="Trazado_2455" data-name="Trazado 2455" d="M104.42,0,75.51,10.866l-.926,1.379L107.164,0Z" transform="translate(-42.838 0)" fill="#2cf3ac"/>
      <path id="Trazado_2456" data-name="Trazado 2456" d="M105.915,0,73.336,12.245l-.926,1.379L108.659,0Z" transform="translate(-41.589 0)" fill="#2bf2ad"/>
      <path id="Trazado_2457" data-name="Trazado 2457" d="M107.41,0,71.161,13.624,70.236,15,84.7,9.565l.39-.581h1.157L110.153,0Z" transform="translate(-40.34 0)" fill="#2bf2ae"/>
      <path id="Trazado_2458" data-name="Trazado 2458" d="M68.987,15l-.926,1.379L82.53,10.944l.925-1.379ZM108.9,0,85,8.983h2.744L111.648,0Z" transform="translate(-39.09 0)" fill="#2af2af"/>
      <path id="Trazado_2459" data-name="Trazado 2459" d="M66.811,16.382l-.925,1.379,14.469-5.438.926-1.379ZM110.4,0,86.5,8.983h2.744L113.142,0Z" transform="translate(-37.841 0)" fill="#2af1b0"/>
      <path id="Trazado_2460" data-name="Trazado 2460" d="M64.637,17.761l-.926,1.379L78.18,13.7l.925-1.379ZM111.893,0l-23.9,8.983h2.744L112.754.708l.5-.708Z" transform="translate(-36.592 0)" fill="#29f1b1"/>
      <path id="Trazado_2461" data-name="Trazado 2461" d="M62.463,20.1l-.926,1.379,14.469-5.438.926-1.379ZM89.487,9.938h2.744l18.284-6.872.99-1.4Z" transform="translate(-35.344 -0.955)" fill="#29f0b2"/>
      <path id="Trazado_2462" data-name="Trazado 2462" d="M60.288,23.368l-.926,1.379,14.469-5.438.926-1.379ZM90.982,11.832h2.442l-.109.155,14.96-5.623.99-1.4Z" transform="translate(-34.095 -2.849)" fill="#28f0b3"/>
      <path id="Trazado_2463" data-name="Trazado 2463" d="M58.113,26.641l-.925,1.379,14.469-5.438.925-1.379ZM92.066,13.881l-.99,1.4,14.961-5.623.99-1.4Z" transform="translate(-32.846 -4.743)" fill="#28f0b4"/>
      <path id="Trazado_2464" data-name="Trazado 2464" d="M55.939,29.914l-.926,1.379,14.469-5.438.926-1.379ZM89.827,17.178l-.99,1.4,14.96-5.623.99-1.4Z" transform="translate(-31.596 -6.637)" fill="#27efb5"/>
      <path id="Trazado_2465" data-name="Trazado 2465" d="M53.764,33.186l-.926,1.379,14.469-5.438.926-1.379ZM87.588,20.474l-.99,1.4,14.961-5.623.99-1.4Z" transform="translate(-30.347 -8.53)" fill="#27efb6"/>
      <path id="Trazado_2466" data-name="Trazado 2466" d="M51.589,36.459l-.925,1.379L65.132,32.4l.926-1.379Zm33.76-12.688-.99,1.4,14.96-5.623.99-1.4Z" transform="translate(-29.099 -10.423)" fill="#26efb7"/>
      <path id="Trazado_2467" data-name="Trazado 2467" d="M49.415,39.732l-.926,1.379,14.468-5.438.926-1.379Zm33.7-12.664-.99,1.4,14.96-5.623.99-1.4Z" transform="translate(-27.85 -12.317)" fill="#26eeb8"/>
      <path id="Trazado_2468" data-name="Trazado 2468" d="M47.24,43l-.926,1.379,14.469-5.438.925-1.379Zm33.631-12.64-.99,1.4,14.96-5.623.99-1.4Z" transform="translate(-26.601 -14.211)" fill="#25eeb9"/>
      <path id="Trazado_2469" data-name="Trazado 2469" d="M45.065,46.278l-.925,1.379,14.468-5.438.926-1.379ZM78.632,33.662l-.99,1.4L92.6,29.442l.99-1.4Z" transform="translate(-25.352 -16.104)" fill="#24edba"/>
      <path id="Trazado_2470" data-name="Trazado 2470" d="M42.891,49.55l-.926,1.379,14.468-5.438.926-1.379Zm33.5-12.592-.99,1.4,14.96-5.623.99-1.4Z" transform="translate(-24.102 -17.998)" fill="#24edbb"/>
      <path id="Trazado_2471" data-name="Trazado 2471" d="M40.716,52.823,39.79,54.2l14.468-5.438.926-1.379ZM74.153,40.256l-.99,1.4,14.96-5.623.99-1.4Z" transform="translate(-22.853 -19.892)" fill="#23edbc"/>
      <path id="Trazado_2472" data-name="Trazado 2472" d="M38.541,56.1l-.925,1.379,14.468-5.438.926-1.379ZM71.915,43.553l-.99,1.4,14.96-5.623.99-1.4Z" transform="translate(-21.604 -21.786)" fill="#23ecbd"/>
      <path id="Trazado_2473" data-name="Trazado 2473" d="M36.367,59.368l-.926,1.379L49.909,55.31l.926-1.379ZM69.675,46.85l-.99,1.4,14.96-5.623.99-1.4Z" transform="translate(-20.354 -23.679)" fill="#22ecbe"/>
      <path id="Trazado_2474" data-name="Trazado 2474" d="M34.192,62.641l-.925,1.379,14.468-5.438.925-1.379ZM67.437,50.147l-.99,1.4,14.96-5.623.99-1.4Z" transform="translate(-19.107 -25.573)" fill="#22ebbf"/>
      <path id="Trazado_2475" data-name="Trazado 2475" d="M32.018,65.914l-.926,1.379L45.56,61.856l.925-1.379ZM65.2,53.444l-.99,1.4,14.96-5.623.99-1.4Z" transform="translate(-17.858 -27.467)" fill="#21ebc0"/>
      <path id="Trazado_2476" data-name="Trazado 2476" d="M29.843,69.187l-.926,1.379,14.468-5.438.926-1.379ZM62.958,56.741l-.99,1.4,14.96-5.623.99-1.4Z" transform="translate(-16.608 -29.36)" fill="#21ebc1"/>
      <path id="Trazado_2477" data-name="Trazado 2477" d="M27.668,72.459l-.925,1.379L41.211,68.4l.926-1.379ZM60.719,60.038l-.99,1.4,14.96-5.623.99-1.4Z" transform="translate(-15.359 -31.254)" fill="#20eac2"/>
      <path id="Trazado_2478" data-name="Trazado 2478" d="M25.494,75.732l-.926,1.379,14.468-5.438.926-1.379Zm32.986-12.4-.99,1.4,14.96-5.623.99-1.4Z" transform="translate(-14.11 -33.147)" fill="#20eac3"/>
      <path id="Trazado_2479" data-name="Trazado 2479" d="M23.319,79l-.925,1.379,14.468-5.438.925-1.379ZM56.241,66.632l-.99,1.4,14.96-5.622.99-1.4Z" transform="translate(-12.862 -35.041)" fill="#1feac4"/>
      <path id="Trazado_2480" data-name="Trazado 2480" d="M21.145,82.278l-.926,1.379,14.468-5.438.926-1.379ZM54,69.929l-.99,1.4,14.96-5.622.99-1.4Z" transform="translate(-11.613 -36.935)" fill="#1ee9c5"/>
      <path id="Trazado_2481" data-name="Trazado 2481" d="M19.2,85.551l-.756,1.127.1.152,14.2-5.337.926-1.379ZM51.992,73.226,51,74.63l14.96-5.622.99-1.4Z" transform="translate(-10.592 -38.829)" fill="#1ee9c6"/>
      <path id="Trazado_2482" data-name="Trazado 2482" d="M18.673,88.723l.535.83,12.739-4.788.926-1.379Zm32.461-12.2-.99,1.4L65.1,72.3l.99-1.4Z" transform="translate(-10.724 -40.723)" fill="#1de8c7"/>
      <path id="Trazado_2483" data-name="Trazado 2483" d="M0,95.667l.112-.042L0,95.45Zm8.483-4.22.535.83L20.3,88.038l.925-1.379ZM39.419,79.82l-.99,1.4L53.388,75.6l.99-1.4Z" transform="translate(0 -42.616)" fill="#1de8c8"/>
      <path id="Trazado_2484" data-name="Trazado 2484" d="M0,97.56v1.031l.648-.243-.535-.83Zm9.019-3.39.535.83,9.816-3.689.926-1.379Zm29.41-11.053-.99,1.4L52.4,78.9l.99-1.4Z" transform="translate(0 -44.51)" fill="#1ce8c9"/>
      <path id="Trazado_2485" data-name="Trazado 2485" d="M0,100.485v1.031l1.184-.445-.536-.83Zm9.555-3.591.535.83,8.6-3.234-.091-.141.768-1.145Zm27.884-10.48-.99,1.4L51.408,82.2l.99-1.4Z" transform="translate(0 -46.404)" fill="#1ce7cb"/>
      <path id="Trazado_2486" data-name="Trazado 2486" d="M0,103.41v1.031l1.719-.646-.535-.83Zm10.09-3.792.535.83,8.6-3.234-.535-.83Zm26.359-9.907-.99,1.4,14.959-5.622.99-1.4Z" transform="translate(0 -48.298)" fill="#1be7cc"/>
      <path id="Trazado_2487" data-name="Trazado 2487" d="M0,106.335v1.031l2.255-.847-.536-.83Zm10.626-3.993.535.83,8.6-3.234-.535-.83Zm24.833-9.333-.99,1.4,14.959-5.622.99-1.4Z" transform="translate(0 -50.191)" fill="#1be7cd"/>
      <path id="Trazado_2488" data-name="Trazado 2488" d="M0,109.26v1.031l2.79-1.049-.535-.83Zm11.161-4.195.535.83,8.6-3.234-.535-.83Zm23.308-8.76-.99,1.4,14.959-5.622.99-1.4Z" transform="translate(0 -52.085)" fill="#1ae6ce"/>
      <path id="Trazado_2489" data-name="Trazado 2489" d="M0,112.185v1.031l3.326-1.25-.536-.83Zm11.7-4.4.535.83,8.6-3.234-.535-.83ZM33.479,99.6l-.99,1.4,14.959-5.622.99-1.4Z" transform="translate(0 -53.979)" fill="#1ae6cf"/>
      <path id="Trazado_2490" data-name="Trazado 2490" d="M0,115.109v1.031l3.862-1.451-.536-.83Zm12.232-4.6.535.83,8.6-3.234-.535-.83ZM32.489,102.9l-.578.82.232.341,14.316-5.38.99-1.4Z" transform="translate(0 -55.872)" fill="#19e5d0"/>
      <path id="Trazado_2491" data-name="Trazado 2491" d="M0,118.035v1.031l4.4-1.653-.535-.83Zm12.767-4.8.535.83,8.6-3.234-.535-.83Zm19.375-7.282.557.822,12.769-4.8.99-1.4Z" transform="translate(0 -57.766)" fill="#18e5d1"/>
      <path id="Trazado_2492" data-name="Trazado 2492" d="M0,120.959v1.031l4.933-1.854-.535-.83Zm13.3-5,.535.83,8.6-3.234-.535-.83Zm19.4-7.29.557.822,11.221-4.218.99-1.4Z" transform="translate(0 -59.659)" fill="#18e5d2"/>
      <path id="Trazado_2493" data-name="Trazado 2493" d="M0,123.884v1.031l5.469-2.055-.535-.83Zm13.838-5.2.535.83,8.6-3.234-.535-.83Zm19.418-7.3.557.822,9.674-3.636.99-1.4Z" transform="translate(0 -61.553)" fill="#17e4d3"/>
      <path id="Trazado_2494" data-name="Trazado 2494" d="M0,126.809v1.031l6-2.257-.536-.83Zm14.374-5.4.535.83,8.6-3.234-.535-.83Zm19.44-7.306.557.822,8.649-3.251-.188-.278.655-.929Z" transform="translate(0 -63.447)" fill="#17e4d4"/>
      <path id="Trazado_2495" data-name="Trazado 2495" d="M0,129.469V130.5l6.54-2.458L6,127.212Zm14.909-5.6.535.83,8.6-3.234-.535-.83Zm19.462-7.315.557.822,8.649-3.251-.557-.821Z" transform="translate(0 -65.075)" fill="#16e4d5"/>
      <path id="Trazado_2496" data-name="Trazado 2496" d="M0,131.609v1.031l7.076-2.659-.536-.83Zm15.445-5.8.536.83,8.6-3.234-.536-.83Zm19.484-7.323.557.822,8.649-3.251-.557-.821Z" transform="translate(0 -66.185)" fill="#16e3d6"/>
      <path id="Trazado_2497" data-name="Trazado 2497" d="M0,133.749v1.031l7.611-2.861-.536-.83Zm15.98-6.006.535.83,8.6-3.234-.535-.83Zm19.506-7.331.557.822,8.649-3.251-.557-.821Z" transform="translate(0 -67.293)" fill="#15e3d7"/>
      <path id="Trazado_2498" data-name="Trazado 2498" d="M0,135.889v1.031l8.147-3.062-.535-.83Zm16.516-6.208.535.83,8.6-3.234-.535-.83Zm19.527-7.339.557.822,8.649-3.251-.557-.821Z" transform="translate(0 -68.402)" fill="#15e2d8"/>
      <path id="Trazado_2499" data-name="Trazado 2499" d="M0,138.03v1.031L8.683,135.8l-.535-.83Zm17.051-6.409.535.83,8.6-3.234-.535-.83ZM36.6,124.274l.557.821,8.649-3.251-.557-.821Z" transform="translate(0 -69.511)" fill="#14e2d9"/>
      <path id="Trazado_2500" data-name="Trazado 2500" d="M0,140.17V141.2l8.983-3.376v-.452l-.3-.466Zm17.586-6.61.535.83,8.6-3.234-.535-.83ZM37.158,126.2l.557.822,8.649-3.251-.557-.821Z" transform="translate(0 -70.62)" fill="#14e2da"/>
      <path id="Trazado_2501" data-name="Trazado 2501" d="M0,142.309v1.031l8.983-3.376v-1.031ZM18.122,135.5l.535.83,8.6-3.234-.535-.83Zm19.593-7.364.557.822,8.649-3.251-.557-.821Z" transform="translate(0 -71.729)" fill="#13e1db"/>
      <path id="Trazado_2502" data-name="Trazado 2502" d="M0,144.45v1.031L8.983,142.1v-1.031Zm18.657-7.012.535.83,8.6-3.234-.535-.83Zm19.615-7.372.557.822,8.649-3.251-.557-.821Z" transform="translate(0 -72.838)" fill="#12e1dc"/>
      <path id="Trazado_2503" data-name="Trazado 2503" d="M0,146.59v1.031l8.983-3.376v-1.031Zm19.193-7.214.536.83,8.6-3.234-.535-.83ZM38.83,132l.557.822,8.649-3.251-.557-.821Z" transform="translate(0 -73.947)" fill="#12e0dd"/>
      <path id="Trazado_2504" data-name="Trazado 2504" d="M0,148.73v1.031l8.983-3.376v-1.031Zm19.728-7.415.535.83,8.6-3.234-.535-.83Zm19.658-7.388.557.822,8.649-3.251-.557-.821Z" transform="translate(0 -75.055)" fill="#11e0de"/>
      <path id="Trazado_2505" data-name="Trazado 2505" d="M0,150.87V151.9l8.983-3.377v-1.031Zm20.264-7.616.535.83,8.6-3.234-.535-.83Zm19.68-7.4.557.822,8.649-3.251-.557-.821Z" transform="translate(0.002 -76.164)" fill="#11e0df"/>
      <path id="Trazado_2506" data-name="Trazado 2506" d="M0,153.011v1.031l8.983-3.376v-1.031Zm20.8-7.817.535.83,8.6-3.234-.535-.83Zm19.7-7.4.557.822,8.649-3.251-.557-.822Z" transform="translate(0 -77.274)" fill="#10dfe0"/>
      <path id="Trazado_2507" data-name="Trazado 2507" d="M0,155.15v1.031l8.983-3.376v-1.031Zm21.335-8.019.535.83,8.6-3.234-.535-.83Zm19.724-7.413.557.822,8.649-3.251-.557-.821Z" transform="translate(0 -78.382)" fill="#10dfe1"/>
      <path id="Trazado_2508" data-name="Trazado 2508" d="M0,157.29v1.031l8.983-3.376v-1.031Zm21.87-8.22.535.83,8.6-3.234-.535-.83Zm19.746-7.421.557.822,8.649-3.251-.557-.821Z" transform="translate(0 -79.491)" fill="#0fdfe2"/>
      <path id="Trazado_2509" data-name="Trazado 2509" d="M0,159.431v1.031l8.983-3.376v-1.031Zm22.406-8.421.535.83,8.6-3.234-.535-.83Zm19.767-7.429.557.822,8.649-3.251-.557-.821Z" transform="translate(0 -80.6)" fill="#0fdee3"/>
      <path id="Trazado_2510" data-name="Trazado 2510" d="M0,161.571V162.6l8.983-3.376v-1.031Zm22.941-8.622.535.83,8.6-3.233-.535-.83Zm19.789-7.438.557.822,8.65-3.251-.558-.821Z" transform="translate(0 -81.71)" fill="#0edee4"/>
      <path id="Trazado_2511" data-name="Trazado 2511" d="M0,163.711v1.031l8.983-3.376v-1.031Zm23.477-8.823.535.83,8.6-3.234-.535-.83Zm19.811-7.446.557.822,8.65-3.251-.558-.821Z" transform="translate(0.002 -82.818)" fill="#0edde5"/>
      <path id="Trazado_2512" data-name="Trazado 2512" d="M0,165.851v1.031l8.983-3.376v-1.031Zm24.012-9.024.535.83,8.6-3.234-.535-.83Zm19.833-7.454.557.822,8.65-3.251-.558-.821Z" transform="translate(0 -83.927)" fill="#0ddde6"/>
      <path id="Trazado_2513" data-name="Trazado 2513" d="M0,167.992v1.031l8.983-3.376v-1.031Zm24.548-9.226.535.83,8.6-3.234-.535-.83ZM44.4,151.3l.557.822,8.65-3.251-.558-.821Z" transform="translate(0 -85.036)" fill="#0ddde7"/>
      <path id="Trazado_2514" data-name="Trazado 2514" d="M0,170.131v1.031l8.983-3.376v-1.031ZM25.083,160.7l.535.83,8.6-3.234-.535-.83Zm19.877-7.47.557.821,8.649-3.251-.557-.822Z" transform="translate(0 -86.144)" fill="#0cdce8"/>
      <path id="Trazado_2515" data-name="Trazado 2515" d="M0,172.271V173.3l8.983-3.376V168.9Zm25.619-9.628.535.83,8.6-3.234-.535-.83Zm19.9-7.479.557.822,8.65-3.251-.558-.822Z" transform="translate(0 -87.253)" fill="#0bdce9"/>
      <path id="Trazado_2516" data-name="Trazado 2516" d="M0,174.411v1.031l8.983-3.376v-1.031Zm26.154-9.83.535.83,8.6-3.234-.535-.83Zm19.92-7.487.557.822,8.65-3.251-.558-.822Z" transform="translate(0 -88.362)" fill="#0bdcea"/>
      <path id="Trazado_2517" data-name="Trazado 2517" d="M0,176.551v1.031l8.983-3.376v-1.031ZM26.69,166.52l.535.83,8.6-3.234-.535-.83Zm19.942-7.5.557.822,8.65-3.251-.558-.822Z" transform="translate(0 -89.471)" fill="#0adbeb"/>
      <path id="Trazado_2518" data-name="Trazado 2518" d="M0,178.691v1.031l8.983-3.376v-1.031Zm27.225-10.232.535.83,8.6-3.234-.536-.83Zm19.964-7.5.557.822,8.65-3.251-.557-.822Z" transform="translate(0 -90.58)" fill="#0adbec"/>
      <path id="Trazado_2519" data-name="Trazado 2519" d="M0,180.831v1.031l8.983-3.376v-1.031ZM27.76,170.4l.535.83,8.6-3.234-.535-.83Zm19.986-7.512.557.822,8.65-3.251-.558-.822Z" transform="translate(0 -91.688)" fill="#09daed"/>
      <path id="Trazado_2520" data-name="Trazado 2520" d="M0,182.972V184l8.983-3.376V179.6Zm28.3-10.635.535.83,8.6-3.234-.535-.83Zm20.007-7.52.557.822,8.65-3.251-.558-.822Z" transform="translate(0 -92.797)" fill="#09daee"/>
      <path id="Trazado_2521" data-name="Trazado 2521" d="M0,185.112v1.031l9.782-3.677h-.8v-.731Zm28.832-10.836.535.83,8.6-3.234-.536-.83Zm20.029-7.528.557.822,8.649-3.251-.558-.822Z" transform="translate(0 -93.907)" fill="#08daef"/>
      <path id="Trazado_2522" data-name="Trazado 2522" d="M9.782,183.575,0,187.252v1.031l12.526-4.708Zm19.586-7.361.535.83,8.6-3.234-.535-.83Zm20.051-7.536.557.822,8.65-3.251-.558-.822Z" transform="translate(0 -95.015)" fill="#08d9f0"/>
      <path id="Trazado_2523" data-name="Trazado 2523" d="M12.525,184.684,0,189.392v1.031l15.269-5.739ZM29.9,178.153l.535.83,8.6-3.234-.536-.83Zm20.073-7.544.557.822,8.65-3.251-.557-.822Z" transform="translate(0 -96.124)" fill="#07d9f1"/>
      <path id="Trazado_2524" data-name="Trazado 2524" d="M15.269,185.794,0,191.532v1.031l18.013-6.77Zm15.169-5.7.535.83,8.6-3.234-.535-.83Zm20.095-7.552.557.821,8.65-3.251-.558-.822Z" transform="translate(0 -97.233)" fill="#07d9f2"/>
      <path id="Trazado_2525" data-name="Trazado 2525" d="M18.013,186.9,0,193.672V194.7l20.756-7.8Zm12.961-4.871.535.83,8.6-3.234-.535-.83ZM51.09,174.47l.557.822,8.65-3.251-.557-.822Z" transform="translate(0 -98.342)" fill="#06d8f3"/>
      <path id="Trazado_2526" data-name="Trazado 2526" d="M20.756,188.011,0,195.812v1.031l23.5-8.832Zm10.752-4.041.535.83,8.6-3.234-.535-.83ZM51.647,176.4l.557.822,8.65-3.251-.557-.822Z" transform="translate(0 -99.451)" fill="#05d8f4"/>
      <path id="Trazado_2527" data-name="Trazado 2527" d="M23.5,189.12,0,197.953v.151H2.342l23.9-8.983Zm8.544-3.211.535.83,8.6-3.234-.536-.83Zm20.16-7.577.557.822,8.65-3.251-.557-.822Z" transform="translate(0 -100.56)" fill="#05d7f5"/>
      <path id="Trazado_2528" data-name="Trazado 2528" d="M29.405,190.229,5.5,199.212H8.248l23.9-8.983Zm6.336-2.381.535.83,8.6-3.234-.535-.83Zm20.182-7.585.557.822,8.65-3.251-.557-.822Z" transform="translate(-3.16 -101.669)" fill="#04d7f6"/>
      <path id="Trazado_2529" data-name="Trazado 2529" d="M35.851,191.338l-23.9,8.983h2.744l23.9-8.983Zm4.128-1.551.535.83,8.6-3.234-.535-.83Zm20.2-7.593.557.822,8.65-3.251-.557-.822Z" transform="translate(-6.863 -102.777)" fill="#04d7f7"/>
      <path id="Trazado_2530" data-name="Trazado 2530" d="M44.216,191.725l.466.721H42.3L18.4,201.43H21.14l32.216-12.108-.535-.83Zm20.226-7.6.557.822,8.65-3.251-.557-.822Z" transform="translate(-10.565 -103.887)" fill="#03d6f8"/>
      <path id="Trazado_2531" data-name="Trazado 2531" d="M24.843,202.539h2.744l30.008-11.278-.535-.83ZM68.7,186.055l.557.822,8.65-3.251-.557-.822Z" transform="translate(-14.268 -104.996)" fill="#03d6f9"/>
      <path id="Trazado_2532" data-name="Trazado 2532" d="M31.288,203.648h2.744l27.8-10.448-.535-.83Zm41.674-15.663.557.822,8.65-3.251-.557-.822Z" transform="translate(-17.97 -106.104)" fill="#02d6fa"/>
      <path id="Trazado_2533" data-name="Trazado 2533" d="M37.735,204.757h2.744l25.591-9.618-.535-.83Zm39.487-14.841.557.822,8.65-3.251-.557-.822Z" transform="translate(-21.673 -107.213)" fill="#02d5fb"/>
      <path id="Trazado_2534" data-name="Trazado 2534" d="M44.181,205.866h2.744l23.383-8.788-.535-.83Zm37.3-14.019.557.822,8.65-3.251-.557-.822Z" transform="translate(-25.375 -108.322)" fill="#01d5fc"/>
      <path id="Trazado_2535" data-name="Trazado 2535" d="M50.628,206.974h2.743l21.175-7.959-.535-.83Zm35.114-13.2.557.822,8.65-3.251-.557-.822Z" transform="translate(-29.079 -109.431)" fill="#01d4fd"/>
      <path id="Trazado_2536" data-name="Trazado 2536" d="M57.073,208.083h2.744l18.966-7.128-.535-.83ZM90,195.708l.557.822,8.65-3.251-.557-.822Z" transform="translate(-32.78 -110.54)" fill="#00d4fe"/>
      <path id="Trazado_2537" data-name="Trazado 2537" d="M63.521,209.193H87.086l-4.6-7.128Zm30.741-11.553,7.835,11.553h10.855l-10.04-14.8Z" transform="translate(-36.484 -111.649)" fill="#00d4fe"/>
      <path id="Trazado_2538" data-name="Trazado 2538" d="M0,0V.458L1.218,0Z" transform="translate(0 0)" fill="#38fb96"/>
      <path id="Trazado_2539" data-name="Trazado 2539" d="M1.218,0,0,.458V1.489L3.962,0Z" transform="translate(0 0)" fill="#38fb96"/>
      <path id="Trazado_2540" data-name="Trazado 2540" d="M3.962,0,0,1.489V2.521L6.706,0Z" transform="translate(0 0)" fill="#37fb97"/>
      <path id="Trazado_2541" data-name="Trazado 2541" d="M6.705,0,0,2.521V3.552L9.449,0Z" transform="translate(0 0)" fill="#37fa98"/>
      <path id="Trazado_2542" data-name="Trazado 2542" d="M9.45,0,0,3.552V4.583L12.193,0Z" transform="translate(0 0)" fill="#36fa99"/>
      <path id="Trazado_2543" data-name="Trazado 2543" d="M12.193,0,0,4.583V5.614L14.937,0Z" transform="translate(0 0)" fill="#36f99a"/>
      <path id="Trazado_2544" data-name="Trazado 2544" d="M14.937,0,0,5.614V6.645L17.681,0Z" transform="translate(0 0)" fill="#35f99b"/>
      <path id="Trazado_2545" data-name="Trazado 2545" d="M17.68,0,0,6.645V7.677L20.425,0Z" transform="translate(0 0)" fill="#35f99c"/>
      <path id="Trazado_2546" data-name="Trazado 2546" d="M20.425,0,0,7.677V8.708L23.168,0Z" transform="translate(0 0)" fill="#34f89d"/>
      <path id="Trazado_2547" data-name="Trazado 2547" d="M23.168,0,0,8.708V9.739L25.912,0Z" transform="translate(0 0)" fill="#34f89e"/>
      <path id="Trazado_2548" data-name="Trazado 2548" d="M25.912,0,0,9.739V10.77L27.253.528,27.592,0Z" transform="translate(0 0)" fill="#33f89f"/>
      <path id="Trazado_2549" data-name="Trazado 2549" d="M0,11.482v1.031L26.378,2.6l.875-1.36Z" transform="translate(0 -0.712)" fill="#33f7a0"/>
      <path id="Trazado_2550" data-name="Trazado 2550" d="M0,14.349V15.38L8.983,12V11.53h1.259L25.5,5.795l.875-1.36Z" transform="translate(0 -2.547)" fill="#32f7a1"/>
      <path id="Trazado_2551" data-name="Trazado 2551" d="M0,17.215v1.031L8.983,14.87V13.839Zm10.243-3.849h2.743L24.628,8.99,25.5,7.63Z" transform="translate(0 -4.382)" fill="#31f6a2"/>
      <path id="Trazado_2552" data-name="Trazado 2552" d="M0,20.081v1.031l8.983-3.377V16.705ZM12.986,15.2h2.744l8.023-3.016.875-1.36Z" transform="translate(0 -6.217)" fill="#31f6a3"/>
      <path id="Trazado_2553" data-name="Trazado 2553" d="M0,22.948v1.031L8.983,20.6V19.571Zm15.73-5.912h2.744l4.4-1.655.875-1.36Z" transform="translate(0 -8.052)" fill="#30f6a4"/>
      <path id="Trazado_2554" data-name="Trazado 2554" d="M0,25.814v1.031l8.983-3.376V22.438Zm18.473-6.943h2.744L22,18.576l.875-1.36Z" transform="translate(0 -9.888)" fill="#30f5a5"/>
      <path id="Trazado_2555" data-name="Trazado 2555" d="M0,28.681v1.031l8.983-3.376V25.305Zm21.217-7.974h.6l.19-.295Z" transform="translate(0 -11.724)" fill="#2ff5a6"/>
      <path id="Trazado_2556" data-name="Trazado 2556" d="M0,37.707v1.031l8.983-3.376V34.331Z" transform="translate(0 -19.718)" fill="#2ff5a7"/>
      <path id="Trazado_2557" data-name="Trazado 2557" d="M0,40.129v1.031l8.983-3.376V36.753Z" transform="translate(0 -21.11)" fill="#2ef4a8"/>
      <path id="Trazado_2558" data-name="Trazado 2558" d="M0,42.552v1.031l8.983-3.376V39.176Z" transform="translate(0 -22.501)" fill="#2ef4a9"/>
      <path id="Trazado_2559" data-name="Trazado 2559" d="M0,44.975v1.031L8.983,42.63V41.6Z" transform="translate(0 -23.893)" fill="#2df3aa"/>
      <path id="Trazado_2560" data-name="Trazado 2560" d="M0,47.4v1.031l8.983-3.376V44.022Z" transform="translate(0 -25.284)" fill="#2df3ab"/>
      <path id="Trazado_2561" data-name="Trazado 2561" d="M0,49.821v1.031l8.983-3.376V46.445Z" transform="translate(0 -26.676)" fill="#2cf3ac"/>
      <path id="Trazado_2562" data-name="Trazado 2562" d="M0,52.243v1.031L8.983,49.9V48.867Z" transform="translate(0 -28.068)" fill="#2bf2ad"/>
      <path id="Trazado_2563" data-name="Trazado 2563" d="M0,54.666V55.7l8.983-3.376V51.29Z" transform="translate(0 -29.459)" fill="#2bf2ae"/>
      <path id="Trazado_2564" data-name="Trazado 2564" d="M0,57.089V58.12l8.983-3.376V53.713Z" transform="translate(0 -30.851)" fill="#2af2af"/>
      <path id="Trazado_2565" data-name="Trazado 2565" d="M0,59.512v1.031l8.983-3.376V56.136Z" transform="translate(0 -32.242)" fill="#2af1b0"/>
      <path id="Trazado_2566" data-name="Trazado 2566" d="M0,61.935v1.031L8.983,59.59V58.559Z" transform="translate(0 -33.634)" fill="#29f1b1"/>
      <path id="Trazado_2567" data-name="Trazado 2567" d="M0,64.357v1.031l8.983-3.376V60.981Z" transform="translate(0 -35.025)" fill="#29f0b2"/>
      <path id="Trazado_2568" data-name="Trazado 2568" d="M0,66.78v1.031l8.983-3.376V63.4Z" transform="translate(0 -36.417)" fill="#28f0b3"/>
      <path id="Trazado_2569" data-name="Trazado 2569" d="M0,69.2v1.031L8.871,66.9l.112-.173v-.9Z" transform="translate(0 -37.809)" fill="#28f0b4"/>
      <path id="Trazado_2570" data-name="Trazado 2570" d="M0,71.683v1.031l8-3.005.875-1.36Z" transform="translate(0 -39.257)" fill="#27efb5"/>
      <path id="Trazado_2571" data-name="Trazado 2571" d="M0,74.549v1.031L7.121,72.9,8,71.544Z" transform="translate(0 -41.093)" fill="#27efb6"/>
      <path id="Trazado_2572" data-name="Trazado 2572" d="M0,77.416v1.031L6.245,76.1l.876-1.36Z" transform="translate(0 -42.927)" fill="#26efb7"/>
      <path id="Trazado_2573" data-name="Trazado 2573" d="M0,80.282v1.031L5.37,79.3l.875-1.36Z" transform="translate(0 -44.763)" fill="#26eeb8"/>
      <path id="Trazado_2574" data-name="Trazado 2574" d="M0,83.149v1.031l4.495-1.689.876-1.36Z" transform="translate(0 -46.599)" fill="#25eeb9"/>
      <path id="Trazado_2575" data-name="Trazado 2575" d="M0,86.016v1.031l3.62-1.36.875-1.36Z" transform="translate(0 -48.434)" fill="#24edba"/>
      <path id="Trazado_2576" data-name="Trazado 2576" d="M0,88.883v1.031l2.744-1.031.876-1.36Z" transform="translate(0 -50.27)" fill="#24edbb"/>
      <path id="Trazado_2577" data-name="Trazado 2577" d="M0,91.75v1.031l1.869-.7.875-1.36Z" transform="translate(0 -52.105)" fill="#23edbc"/>
      <path id="Trazado_2578" data-name="Trazado 2578" d="M0,94.616v1.031l.994-.374.875-1.36Z" transform="translate(0 -53.941)" fill="#23ecbd"/>
      <path id="Trazado_2579" data-name="Trazado 2579" d="M0,97.483v1.031l.118-.045.876-1.36Z" transform="translate(0 -55.776)" fill="#22ecbe"/>
      <path id="Trazado_2580" data-name="Trazado 2580" d="M0,100.349v.14l.118-.184Z" transform="translate(0 -57.611)" fill="#22ebbf"/>
      <g id="Grupo_737" data-name="Grupo 737" transform="translate(0 0)">
        <g id="Grupo_736" data-name="Grupo 736" clip-path="url(#clip-path-2)">
          <path id="Trazado_2581" data-name="Trazado 2581" d="M30.794,79.5,8.317,87.947H5.574l25.22-9.479Z" transform="translate(-3.201 -45.069)" fill="#21ebc0"/>
          <path id="Trazado_2582" data-name="Trazado 2582" d="M34.5,81.922,14.763,89.338H12.02L34.5,80.891Z" transform="translate(-6.904 -46.461)" fill="#21ebc1"/>
        </g>
      </g>
    </g>
  </g>
</svg>
