<svg xmlns="http://www.w3.org/2000/svg" xmlns:xlink="http://www.w3.org/1999/xlink" width="264.33" height="57.6" viewBox="0 0 264.333 57.6"><defs><clipPath id="a"><rect width="264.333" height="57.6" fill="none"/></clipPath></defs><g clip-path="url(#a)"><path d="M41.962,60.925l.039,2.4-2.162.035L39.8,61.046a6.86,6.86,0,0,1-5.086-1.931l1.9-1.959a4.882,4.882,0,0,0,3.425,1.23l-.063-3.875-.687-.075A5.115,5.115,0,0,1,36.312,53.2a3.976,3.976,0,0,1-1.14-2.959c-.04-2.462,1.6-4.309,4.38-4.654L39.52,43.66l2.162-.035.031,1.906a6.257,6.257,0,0,1,4.246,1.687l-1.854,1.894a4.273,4.273,0,0,0-2.65-.986l.06,3.725.816.116a5.19,5.19,0,0,1,2.931,1.152,4.223,4.223,0,0,1,1.229,3.193c.042,2.612-1.859,4.249-4.531,4.613m-2.09-12.752a1.9,1.9,0,0,0-1.833,1.914,1.469,1.469,0,0,0,.467,1.084,2.52,2.52,0,0,0,1.423.577Zm3.218,6.994a2.6,2.6,0,0,0-1.529-.532l.059,3.683c1.282-.171,1.979-.824,1.962-1.873a1.7,1.7,0,0,0-.492-1.277" transform="translate(-21.473 -26.984)" fill="#e00520"/><path d="M48.078,3.771a.983.983,0,0,1-1.084.828H41.976a.983.983,0,0,1-1.084-.828V.828A.982.982,0,0,1,41.976,0h5.017a.982.982,0,0,1,1.084.828Z" transform="translate(-25.293 0)" fill="#f5b015"/><path d="M19.208,52.442a14.409,14.409,0,1,1,0-28.818,2.4,2.4,0,1,0,0-4.8,19.208,19.208,0,1,0,0,38.415,2.4,2.4,0,1,0,0-4.8" transform="translate(0 -11.645)" fill="#e00520"/><rect width="3.082" height="2.969" transform="translate(36.449 24.851)" fill="#f5b015"/><path d="M91.727,66.625a1.484,1.484,0,1,0,1.484-1.484,1.484,1.484,0,0,0-1.484,1.484" transform="translate(-56.737 -40.293)" fill="#f5b015"/><path d="M99.508,66.625a1.484,1.484,0,1,0,1.484-1.484,1.484,1.484,0,0,0-1.484,1.484" transform="translate(-61.55 -40.293)" fill="#f5b015"/><rect width="3.082" height="2.969" transform="translate(33.192 16.553) rotate(-36.961)" fill="#f5b015"/><path d="M85.811,44.943a1.484,1.484,0,1,0,.294-2.079,1.485,1.485,0,0,0-.294,2.079" transform="translate(-52.893 -26.329)" fill="#f5b015"/><path d="M92.028,40.265a1.484,1.484,0,1,0,.294-2.079,1.485,1.485,0,0,0-.294,2.079" transform="translate(-56.739 -23.435)" fill="#f5b015"/><rect width="3.082" height="2.969" transform="translate(26.047 11.019) rotate(-60.627)" fill="#f5b015"/><path d="M68.567,29.618A1.484,1.484,0,1,0,68,27.6a1.484,1.484,0,0,0,.565,2.021" transform="translate(-41.944 -16.602)" fill="#f5b015"/><path d="M72.384,22.838a1.484,1.484,0,1,0-.565-2.021,1.484,1.484,0,0,0,.565,2.021" transform="translate(-44.305 -12.408)" fill="#f5b015"/><rect width="2.969" height="3.082" transform="translate(33.329 35.742) rotate(-58.606)" fill="#f5b015"/><path d="M85.786,87.228a1.484,1.484,0,1,0,2.04-.494,1.484,1.484,0,0,0-2.04.494" transform="translate(-52.928 -53.514)" fill="#f5b015"/><path d="M92.428,91.282a1.484,1.484,0,1,0,2.04-.494,1.484,1.484,0,0,0-2.04.494" transform="translate(-57.036 -56.022)" fill="#f5b015"/><rect width="2.969" height="3.082" transform="matrix(0.86, -0.511, 0.511, 0.86, 26.136, 40.875)" fill="#f5b015"/><path d="M68.736,101.54a1.484,1.484,0,1,0,2.034.518,1.484,1.484,0,0,0-2.034-.518" transform="translate(-42.067 -62.678)" fill="#f5b015"/><path d="M72.711,108.229a1.484,1.484,0,1,0,2.034.518,1.484,1.484,0,0,0-2.034-.518" transform="translate(-44.526 -66.815)" fill="#f5b015"/><path d="M146.29,58.628a10.071,10.071,0,0,1,1.038,3.076,14.774,14.774,0,0,1-3.187.963,19.7,19.7,0,0,1-3.52.3,13.665,13.665,0,0,1-5.206-.945,10.568,10.568,0,0,1-3.909-2.7,12.013,12.013,0,0,1-2.446-4.28,17.626,17.626,0,0,1-.852-5.669,18.276,18.276,0,0,1,.852-5.762,12.536,12.536,0,0,1,2.446-4.391,10.693,10.693,0,0,1,3.89-2.8,12.989,12.989,0,0,1,5.151-.982,19.246,19.246,0,0,1,3.631.3,20.443,20.443,0,0,1,2.7.7,6.848,6.848,0,0,1-.315,1.575q-.241.723-.574,1.538-.556-.185-1.075-.333t-1.112-.259a12.315,12.315,0,0,0-1.316-.167q-.723-.056-1.649-.056a7.659,7.659,0,0,0-6.281,2.742q-2.242,2.742-2.242,7.893a14.7,14.7,0,0,0,.63,4.558,8.633,8.633,0,0,0,1.779,3.187A7.248,7.248,0,0,0,137.489,59a9.846,9.846,0,0,0,3.613.63,14.022,14.022,0,0,0,2.816-.259,12.039,12.039,0,0,0,2.372-.741" transform="translate(-79.302 -21.916)" fill="#59595b"/><path d="M192.222,56.369q.407-.074.778-.111t.778-.037c.272,0,.543.013.815.037a5.95,5.95,0,0,1,.741.111q.111.556.222,1.464a13.013,13.013,0,0,1,.111,1.538,7.685,7.685,0,0,1,2.056-2.186A5.455,5.455,0,0,1,201,56.258q.3,0,.611.018t.537.056a6.073,6.073,0,0,1,.111.7q.037.371.037.778a8.09,8.09,0,0,1-.055.926c-.037.322-.08.63-.13.927a2.528,2.528,0,0,0-.611-.074H201a6.482,6.482,0,0,0-1.908.278,4,4,0,0,0-1.63.982,4.877,4.877,0,0,0-1.149,1.927,9.74,9.74,0,0,0-.426,3.149v9.449a8.78,8.78,0,0,1-.908.111q-.5.037-.908.037t-.908-.037q-.5-.037-.945-.111Z" transform="translate(-118.898 -34.775)" fill="#59595b"/><path d="M229.723,66.3a6.208,6.208,0,0,0,1.612,4.558,6.4,6.4,0,0,0,4.539,1.445,13.625,13.625,0,0,0,5-.926,5.562,5.562,0,0,1,.482,1.352,8.8,8.8,0,0,1,.222,1.575,12.389,12.389,0,0,1-2.687.778,18.7,18.7,0,0,1-3.242.259,12.248,12.248,0,0,1-4.447-.722,7.814,7.814,0,0,1-4.817-5.151,13.309,13.309,0,0,1-.556-3.946,13.968,13.968,0,0,1,.537-3.947,8.889,8.889,0,0,1,1.649-3.187,7.97,7.97,0,0,1,2.8-2.149,9.242,9.242,0,0,1,3.983-.8,8.328,8.328,0,0,1,3.446.667,7.01,7.01,0,0,1,2.483,1.834,7.971,7.971,0,0,1,1.519,2.779,11.379,11.379,0,0,1,.519,3.5c0,.346-.013.711-.037,1.093s-.05.711-.074.982Zm9.412-2.742a6.987,6.987,0,0,0-.278-1.982,5.032,5.032,0,0,0-.815-1.649,3.973,3.973,0,0,0-1.371-1.13,4.311,4.311,0,0,0-1.982-.426,4.367,4.367,0,0,0-3.465,1.371,6.711,6.711,0,0,0-1.464,3.817Z" transform="translate(-139.687 -34.294)" fill="#59595b"/><path d="M290.843,59.481a5.715,5.715,0,0,1-3.208-1.435q-1.631-1.519-1.667-5.039a11.079,11.079,0,0,1,.352-2.872,6.6,6.6,0,0,1,1.075-2.279,5.124,5.124,0,0,1,1.834-1.519,5.82,5.82,0,0,1,2.631-.556,10.871,10.871,0,0,1,1.853.148,7.983,7.983,0,0,1,1.594.444v9h3.631V35a8.77,8.77,0,0,0-.908-.111q-.5-.037-.907-.037-.371,0-.89.037a8.717,8.717,0,0,0-.926.111v8.264a12.642,12.642,0,0,0-1.723-.371,13.071,13.071,0,0,0-1.945-.148,9.978,9.978,0,0,0-3.909.741,8.676,8.676,0,0,0-3.02,2.093,9.391,9.391,0,0,0-1.945,3.242,12.2,12.2,0,0,0-.685,4.187,11.4,11.4,0,0,0,.778,4.484A7.756,7.756,0,0,0,288.1,62.1a13.723,13.723,0,0,0,2.744.462Z" transform="translate(-174.477 -21.556)" fill="#59595b"/><path d="M344.261,39.323q.481.075,1.038.111t1,.037q.407,0,.945-.037t.982-.111a7.64,7.64,0,0,0,.093-.964q.018-.518.019-.926t-.019-.927a6.64,6.64,0,0,0-.093-.926q-.445-.074-1-.111t-.963-.037q-.409,0-.964.037t-1.038.111a6.421,6.421,0,0,0-.093.926q-.019.52-.018.927t.018.926a7.372,7.372,0,0,0,.093.964" transform="translate(-212.872 -21.916)" fill="#59595b"/><path d="M340.023,59.5h2.408v9.338h3.594V56.609h-6a4.575,4.575,0,0,0-.111.685c-.025.259-.037.513-.037.759s.012.5.037.76a4.558,4.558,0,0,0,.111.685" transform="translate(-210.227 -35.015)" fill="#59595b"/><path d="M377.444,56.219l.575-14.044L383.8,56.219h3.987l5.981-13.933.573,13.933h3.627l-.939-19.862a8.871,8.871,0,0,0-1-.111q-.593-.037-1.075-.037-.519,0-1.075.037a7.375,7.375,0,0,0-.926.111l-6.93,16.675L379.13,36.357a8.914,8.914,0,0,0-1.019-.111q-.612-.037-1.13-.037t-1.093.037q-.575.037-1.019.111l-.884,19.862Z" transform="translate(-231.326 -22.397)" fill="#59595b"/><path d="M455.389,39.323q.481.075,1.038.111t1,.037q.407,0,.945-.037t.982-.111a7.639,7.639,0,0,0,.093-.964q.018-.518.019-.926t-.019-.927a6.64,6.64,0,0,0-.093-.926q-.445-.074-1-.111t-.963-.037q-.409,0-.964.037t-1.038.111a6.417,6.417,0,0,0-.093.926q-.019.52-.018.927t.018.926a7.367,7.367,0,0,0,.093.964" transform="translate(-281.609 -21.916)" fill="#59595b"/><path d="M451.151,59.5h2.409v9.338h3.594V56.609h-6a4.575,4.575,0,0,0-.111.685c-.025.259-.037.513-.037.759s.012.5.037.76a4.558,4.558,0,0,0,.111.685" transform="translate(-278.965 -35.015)" fill="#59595b"/><path d="M488.379,68.116V65.262a9.231,9.231,0,0,1,.426-2.983,5.747,5.747,0,0,1,1.13-2.019,4.365,4.365,0,0,1,1.63-1.149,5.242,5.242,0,0,1,1.964-.371,2.876,2.876,0,0,1,2.594,1.242,7.2,7.2,0,0,1,.816,3.872v4.261h3.669V62.854a8.492,8.492,0,0,0-1.556-5.54,5.913,5.913,0,0,0-4.817-1.871,6.773,6.773,0,0,0-3.816,1.13A7.308,7.308,0,0,0,489.1,57.7a7.61,7.61,0,0,0-.945,1.26,13.939,13.939,0,0,0-.111-1.575q-.111-.945-.222-1.5-.408-.073-.759-.111a7.374,7.374,0,0,0-.76-.037q-.408,0-.8.037t-.8.111V68.116Z" transform="translate(-299.815 -34.294)" fill="#59595b"/><path d="M546,68.6a13.824,13.824,0,0,1-.112-1.816V56.368a8.872,8.872,0,0,0-.926-.111q-.52-.037-.927-.037-.371,0-.889.037a8.82,8.82,0,0,0-.926.111V66.929c0,.593.026,1.146.071,1.667Z" transform="translate(-335.385 -34.774)" fill="#59595b"/><path d="M577.517,68.6V56.368a8.893,8.893,0,0,0-.908-.111q-.5-.037-.908-.037t-.908.037a8.875,8.875,0,0,0-.908.111V68.6Z" transform="translate(-354.973 -34.774)" fill="#59595b"/><path d="M597.419,51.905v9.3h3.638c0-.2-.006-.41-.006-.63V51.905h4.817q.074-.37.111-.741t.037-.778a6.182,6.182,0,0,0-.148-1.408H601.05V44.272h-.3l-6.373,7.115.148.519Z" transform="translate(-367.65 -27.384)" fill="#59595b"/><path d="M638.353,68.116a13.263,13.263,0,0,1-.255-2.7,9.3,9.3,0,0,1,1.2-5.132,4.177,4.177,0,0,1,3.761-1.834,4.224,4.224,0,0,1,3.779,1.834,9.192,9.192,0,0,1,1.223,5.132,13.056,13.056,0,0,1-.259,2.7h3.862a14.525,14.525,0,0,0,.251-2.7,13.8,13.8,0,0,0-.537-3.928,8.725,8.725,0,0,0-1.649-3.15,7.918,7.918,0,0,0-2.779-2.112,10.115,10.115,0,0,0-7.781,0,7.921,7.921,0,0,0-2.779,2.112,8.717,8.717,0,0,0-1.649,3.15,13.785,13.785,0,0,0-.537,3.928,14.525,14.525,0,0,0,.25,2.7Z" transform="translate(-392.284 -34.294)" fill="#59595b"/><rect width="145.552" height="21.547" transform="translate(118.78 36.053)" fill="#e00520"/><path d="M329.854,118.878a4.751,4.751,0,0,1-1.775-.981.743.743,0,0,1-.243-.567.634.634,0,0,1,.13-.4.378.378,0,0,1,.308-.171.784.784,0,0,1,.454.179,5.464,5.464,0,0,0,3.437,1.167,3.636,3.636,0,0,0,2.14-.535,1.763,1.763,0,0,0,.746-1.524,1.224,1.224,0,0,0-.357-.916,2.573,2.573,0,0,0-.941-.559,14.145,14.145,0,0,0-1.572-.438,15.312,15.312,0,0,1-2.181-.648,3.393,3.393,0,0,1-1.378-.973,2.5,2.5,0,0,1-.527-1.654,2.94,2.94,0,0,1,.527-1.727,3.411,3.411,0,0,1,1.475-1.167,5.37,5.37,0,0,1,2.164-.414,6.278,6.278,0,0,1,2.116.349,4.46,4.46,0,0,1,1.646,1,.792.792,0,0,1,.259.568.638.638,0,0,1-.13.4.379.379,0,0,1-.308.17.985.985,0,0,1-.47-.178,5.528,5.528,0,0,0-1.475-.908,4.619,4.619,0,0,0-1.638-.259,3.422,3.422,0,0,0-2.091.56,1.843,1.843,0,0,0-.746,1.564,1.437,1.437,0,0,0,.657,1.289,6.619,6.619,0,0,0,2.019.754q1.474.356,2.318.656a3.471,3.471,0,0,1,1.4.9,2.258,2.258,0,0,1,.56,1.6,2.806,2.806,0,0,1-.527,1.686,3.424,3.424,0,0,1-1.483,1.135,5.57,5.57,0,0,1-2.189.405,7.4,7.4,0,0,1-2.327-.365" transform="translate(-202.781 -66.526)" fill="#fff"/><path d="M369.063,107.868a.705.705,0,0,1,.17.495v10.262a.672.672,0,0,1-.162.47.582.582,0,0,1-.454.179.533.533,0,0,1-.438-.179.718.718,0,0,1-.146-.47V110.34l-3.518,6.744a.717.717,0,0,1-.665.47.738.738,0,0,1-.665-.47l-3.534-6.663v8.2a.693.693,0,0,1-.154.47.557.557,0,0,1-.446.179.582.582,0,0,1-.454-.179.672.672,0,0,1-.162-.47V108.362a.686.686,0,0,1,.179-.495.642.642,0,0,1,.486-.187.729.729,0,0,1,.648.47l4.118,7.9,4.069-7.9a.942.942,0,0,1,.284-.365.631.631,0,0,1,.365-.106.616.616,0,0,1,.478.187" transform="translate(-221.708 -66.605)" fill="#fff"/><path d="M405.11,118.68a.516.516,0,0,1-.187.405.658.658,0,0,1-.446.162.573.573,0,0,1-.567-.389l-1.151-2.626h-6.112l-1.167,2.626a.574.574,0,0,1-.568.389.667.667,0,0,1-.454-.17.53.53,0,0,1-.195-.414.579.579,0,0,1,.065-.259l4.637-10.311a.7.7,0,0,1,.292-.341.822.822,0,0,1,.421-.113.807.807,0,0,1,.438.122.757.757,0,0,1,.292.332l4.637,10.311a.611.611,0,0,1,.065.276m-7.977-3.551h5.139l-2.578-5.82Z" transform="translate(-243.869 -66.579)" fill="#fff"/><path d="M439.014,118.87a.493.493,0,0,1-.187.4.683.683,0,0,1-1.013-.171l-2.172-3.437a2.609,2.609,0,0,0-.875-.916,2.554,2.554,0,0,0-1.232-.251h-2.043v4.232a.684.684,0,0,1-.179.494.62.62,0,0,1-.47.187.64.64,0,0,1-.486-.187.682.682,0,0,1-.179-.494V108.542a.621.621,0,0,1,.186-.47.686.686,0,0,1,.494-.178h4.021a4.306,4.306,0,0,1,2.845.827,3,3,0,0,1,.981,2.432,3.044,3.044,0,0,1-.786,2.188,3.581,3.581,0,0,1-2.246,1.005,2,2,0,0,1,.73.422,3.789,3.789,0,0,1,.648.811L438.9,118.5a.686.686,0,0,1,.114.373m-4.248-5.48a3.037,3.037,0,0,0,1.986-.551,2.058,2.058,0,0,0,.656-1.67,2,2,0,0,0-.648-1.638,3.1,3.1,0,0,0-1.994-.535h-3.275v4.394Z" transform="translate(-266.084 -66.737)" fill="#fff"/><path d="M461.8,119.218a.667.667,0,0,1-.187-.495v-9.7h-3.486a.655.655,0,0,1-.454-.146.63.63,0,0,1,0-.843.655.655,0,0,1,.454-.146h8.317a.655.655,0,0,1,.454.146.629.629,0,0,1,0,.843.655.655,0,0,1-.454.146h-3.486v9.7a.684.684,0,0,1-.179.495.643.643,0,0,1-.486.187.669.669,0,0,1-.494-.187" transform="translate(-282.988 -66.736)" fill="#fff"/><path d="M489.179,119.218a.683.683,0,0,1-.178-.494V108.542a.62.62,0,0,1,.187-.47.685.685,0,0,1,.494-.178h3.842a4.1,4.1,0,0,1,2.8.875,3.126,3.126,0,0,1,1,2.48,3.164,3.164,0,0,1-1.005,2.5,4.057,4.057,0,0,1-2.788.891h-3.194v4.086a.684.684,0,0,1-.179.494.727.727,0,0,1-.972,0m4.215-5.683q2.61,0,2.61-2.286,0-2.253-2.61-2.253h-3.064v4.539Z" transform="translate(-302.468 -66.737)" fill="#fff"/><path d="M528.261,107.868a.7.7,0,0,1,.17.495v10.23a.7.7,0,0,1-.17.494.615.615,0,0,1-.478.187.641.641,0,0,1-.486-.187.684.684,0,0,1-.178-.494v-4.637h-6.842v4.637a.684.684,0,0,1-.179.494.641.641,0,0,1-.486.187.615.615,0,0,1-.478-.187.7.7,0,0,1-.17-.494v-10.23a.707.707,0,0,1,.17-.495.617.617,0,0,1,.478-.187.643.643,0,0,1,.486.187.686.686,0,0,1,.179.495v4.458h6.842v-4.458a.686.686,0,0,1,.178-.495.642.642,0,0,1,.486-.187.617.617,0,0,1,.478.187" transform="translate(-321.001 -66.605)" fill="#fff"/><path d="M555.064,118.529a4.677,4.677,0,0,1-1.808-2.027,7.069,7.069,0,0,1-.632-3.1,7.242,7.242,0,0,1,.624-3.121,4.575,4.575,0,0,1,1.8-2.027,5.833,5.833,0,0,1,5.561,0,4.576,4.576,0,0,1,1.8,2.027,7.2,7.2,0,0,1,.624,3.1,7.123,7.123,0,0,1-.632,3.1,4.671,4.671,0,0,1-1.808,2.035,5.713,5.713,0,0,1-5.528,0m5.594-1.646a6.541,6.541,0,0,0,.008-6.98,3.9,3.9,0,0,0-5.666.008,6.485,6.485,0,0,0,0,6.963,3.873,3.873,0,0,0,5.658.008" transform="translate(-341.822 -66.526)" fill="#fff"/><path d="M597.749,107.868a.729.729,0,0,1,.162.495v10.23a.7.7,0,0,1-.17.494.615.615,0,0,1-.478.187.675.675,0,0,1-.535-.275L590,110v8.593a.7.7,0,0,1-.17.494.594.594,0,0,1-.462.187.569.569,0,0,1-.454-.187.724.724,0,0,1-.162-.494v-10.23a.7.7,0,0,1,.17-.495.616.616,0,0,1,.478-.187.691.691,0,0,1,.551.276l6.712,9v-8.592a.7.7,0,0,1,.17-.495.6.6,0,0,1,.462-.187.571.571,0,0,1,.454.187" transform="translate(-364.168 -66.605)" fill="#fff"/><path d="M622.9,119.145a.621.621,0,0,1-.186-.47V108.542a.621.621,0,0,1,.186-.47.687.687,0,0,1,.495-.178h6.063a.655.655,0,0,1,.454.146.587.587,0,0,1,0,.811.655.655,0,0,1-.454.146h-5.431v3.972h5.107a.655.655,0,0,1,.454.146.588.588,0,0,1,0,.811.657.657,0,0,1-.454.146h-5.107v4.15h5.431a.68.68,0,0,1,.454.138.512.512,0,0,1,.162.413.518.518,0,0,1-.162.406.655.655,0,0,1-.454.146H623.39a.686.686,0,0,1-.495-.179" transform="translate(-385.172 -66.737)" fill="#fff"/><path d="M649.761,118.878a4.75,4.75,0,0,1-1.775-.981.743.743,0,0,1-.243-.567.634.634,0,0,1,.13-.4.379.379,0,0,1,.308-.171.784.784,0,0,1,.454.179,5.464,5.464,0,0,0,3.437,1.167,3.636,3.636,0,0,0,2.14-.535,1.763,1.763,0,0,0,.746-1.524,1.224,1.224,0,0,0-.357-.916,2.572,2.572,0,0,0-.941-.559,14.171,14.171,0,0,0-1.572-.438,15.309,15.309,0,0,1-2.181-.648,3.393,3.393,0,0,1-1.378-.973,2.5,2.5,0,0,1-.527-1.654,2.941,2.941,0,0,1,.527-1.727A3.411,3.411,0,0,1,650,107.967a5.369,5.369,0,0,1,2.164-.414,6.279,6.279,0,0,1,2.116.349,4.461,4.461,0,0,1,1.646,1,.792.792,0,0,1,.259.568.639.639,0,0,1-.13.4.379.379,0,0,1-.308.17.985.985,0,0,1-.47-.178,5.528,5.528,0,0,0-1.476-.908,4.618,4.618,0,0,0-1.638-.259,3.422,3.422,0,0,0-2.091.56,1.843,1.843,0,0,0-.746,1.564,1.437,1.437,0,0,0,.657,1.289,6.62,6.62,0,0,0,2.019.754q1.474.356,2.318.656a3.47,3.47,0,0,1,1.4.9,2.258,2.258,0,0,1,.56,1.6,2.806,2.806,0,0,1-.527,1.686,3.422,3.422,0,0,1-1.484,1.135,5.567,5.567,0,0,1-2.188.405,7.4,7.4,0,0,1-2.327-.365" transform="translate(-400.657 -66.526)" fill="#fff"/></g></svg>